<?xml version="1.0" encoding="UTF-8"?>
<svg xmlns="http://www.w3.org/2000/svg" viewBox="0 0 1152 2048">
  <defs>
    <style>
      .cls-1 {
        fill: #fff;
      }

      .cls-2 {
        opacity: .6;
      }

      .cls-3 {
        fill: #f80;
        stroke: #000;
        stroke-miterlimit: 10;
      }
    </style>
  </defs>
  <g id="glaçage">
    <path class="cls-1" d="M994.06,905.68l4.57-2.12-1.91-4.12c.38-1.29.35-2.7-.17-4.02-.84-2.12-2.78-3.56-5.01-3.81l-1.02-1.02-.97.97h-2.55l-.97-.97-.97.97h-.76l-2.76-2.76-2.76,2.76h-1.35l-1.9-1.9-1.9,1.9h-2.86l-.97-.97-.97.97h-5.29l-2.71-2.71-1.87,1.87-.99-.99-1.82,1.82h-.84l-1.82-1.82-1.7,1.7-3.57-3.57-3.7,3.7h-5.17l-1.4-1.4-1.4,1.4h-4.08l-.54-.54-.54.54h-12.82l-1.34-1.34-1.34,1.34h-1.06l-.46-.46-.46.46h-3.56l-.46-.46-.46.46h-2.47l-2.33-2.33-2.33,2.33h-2.71l-.97-.97-.97.97h-2.55l-.97-.97-.97.97h-.76l-2.76-2.76-2.76,2.76h-1.35l-1.9-1.9-1.9,1.9h-2.86l-.97-.97-.97.97h-5.29l-2.71-2.71-1.87,1.87-.99-.99-1.82,1.82h-.84l-1.82-1.82-1.7,1.7-3.57-3.57-3.7,3.7h-2.59l-.59-.59-.59.59h-3.3l-.59-.59-.59.59h-1.51l-2.38-2.38-2.38,2.38h-2.1l-1.53-1.53-1.53,1.53h-3.61l-.59-.59-.59.59h-6.05l-2.33-2.33-1.87,1.87-.99-.99-1.45,1.45h-1.59l-1.45-1.45-1.45,1.45h-.49l-3.32-3.32-3.32,3.32h-13.82l-1.58-1.58-1.58,1.58h-3.71l-.72-.72-.72.72h-12.45l-1.53-1.53-1.53,1.53h-.69l-.64-.64-.64.64h-3.2l-.64-.64-.64.64h-.47l-3.37-3.37-3.37,3.37h-1.06l-1.58-1.58-1.58,1.58h-3.51l-.64-.64-.64.64h-5.94l-2.38-2.38-2.38,2.38h-2.05l-1.58-1.58-1.58,1.58h-2.26l-.64-.64-.64.64h-2.31l-1.53-1.53-1.53,1.53h-1.97l-2.51-2.51-2.51,2.51h-1.64l-1.58-1.58-1.58,1.58h-4.07l-3.32-3.32-3.08,3.08-2.2-2.2-2.24,2.24-2.24-2.24-2.44,2.44h-1.22l-1.53-1.53-1.53,1.53h-.42l-3.37-3.37-3.33,3.33-2.4-2.4-2.44,2.44h-4.02l-1.53-1.53-1.53,1.53h-5.87l-1.58-1.58-1.58,1.58h-3.71l-.72-.72-.72.72h-12.45l-1.53-1.53-1.53,1.53h-.69l-.64-.64-.64.64h-3.2l-.64-.64-.64.64h-.47l-3.37-3.37-3.37,3.37h-1.06l-1.58-1.58-1.58,1.58h-3.51l-.64-.64-.64.64h-5.94l-2.38-2.38-2.38,2.38h-2.05l-1.58-1.58-1.58,1.58h-2.26l-.64-.64-.64.64h-2.31l-1.53-1.53-1.53,1.53h-1.97l-2.51-2.51-2.51,2.51h-1.64l-1.58-1.58-1.58,1.58h-4.07l-3.32-3.32-3.08,3.08-2.2-2.2-2.24,2.24-2.24-2.24-1.66,1.66-3.4-3.4-3.12,3.12-2.32-2.32-3.33,3.33-2.4-2.4-2.44,2.44h-2.36l-4.18-4.18-4.18,4.18.31.31h-3.7v3.7l-3.6,4.17,3.3,2.85-2.03,2.35,2.33,2.01v.14l-2,2.32,1.78,1.53-3.14,3.64,3.34,2.89-2.14,2.48,2.17,1.87v2.83l-.82.95.82.71v.24c0,2.84,1.94,5.2,4.58,5.91l-.28.57,5.3,2.61.19-.39,1.19,3.51,4.7-1.59c.54.51,1.07,1.07,1.61,1.68l.46,4.2,2.37-.26c.83,1.38,1.63,2.95,2.4,4.72l-.51.77,1.15.77c.08.19.15.4.23.6l-2.26,3.38,2.64,1.76-1.76,2.64,4.3,2.87-2.81,4.22,3.49,2.33-2.41,3.92,3.33,2.05-3.36,5.47,2.47,1.52-1.18,1.92-.63.13.14.66-1.3,2.12,1.68,1.03c-.2.97-.38,1.96-.55,2.98l-2.8-1.15-2.58,6.27,2.93,1.21-1.21,2.93,1.76.72-1.69,4.11,3.36,1.38c.16.63.36,1.22.59,1.78l-.84,2.05,3.09,1.27c.74.64,1.6,1.13,2.63,1.43l1.74,2.95,3.96-2.34c.73.01,1.59-.05,2.51-.24l1.34.89,1.2-1.8c1.55-.8,3.11-2.12,4.41-4.24l2.11-1.7-.79-.98c.15-.37.29-.76.42-1.17l2.62-2.12-1.63-2.01c.16-1,.29-2.08.38-3.22l1.03-.83-.91-1.12c0-.18.02-.37.02-.55l2.11-2.17-1.8-1.75.25-.2-.44-.55,1.93-1.99-1.37-1.33,3.09-3.18-3.48-3.39,2.54-2.61-3.38-3.29,2.36-2.43-.75-.73h.23s-.16-5.91-.16-5.91l-1.47.04c.32-1.34.73-2.7,1.26-4.04l3.68.2.26-4.85,3.64.2.26-4.71,3.39.18.06-1.05.16.17,3.62-3.33.09,2.34,4.71-.19.13,3.39,4.85-.19.14,3.64,1.9-.08.18,4.44,3.17-.13.13,3.17,3.25-.13c.22.47.45.96.67,1.46l-1.24,1.86,2.73,1.82c.22.6.44,1.22.66,1.86l-1.37,2.05,1.58,1.06-2.46,3.69,2.64,1.76-1.76,2.64,4.3,2.87-2.81,4.22,3.49,2.33-2.41,3.92,3.33,2.05-3.36,5.47,2.47,1.52-2.97,4.83,4.02,2.47-1.78,2.89,2.51,1.54v3.65l-.28.46.28.17v3.01l-.98,1.6.98.6v7.45l-2.53,4.12,2.35,1.44c-.08.35-.19.68-.34,1.01-.31.7-.74,1.7-1.22,2.92l-1.99.42.67,3.14c-.38,1.09-.76,2.27-1.11,3.49l-2.39-.98-2.58,6.27,2.93,1.21-1.21,2.93,1.32.54c-.03.47-.05.93-.06,1.39l-1.19,2.9,1.38.57c.23,1.58.68,3.03,1.37,4.3l-.54,1.31,2.22.91c.49.47,1.07.87,1.7,1.23l2.05,3.55,3.58-2.07c.23.01.44.04.67.04,0,0,3.09.16,6.29-1.39l3.9,1.6,2.25-5.46-1.31-.54c.2-.33.38-.67.56-1.03l1.97-1.6-.97-1.19c.05-.18.08-.38.12-.57l3.1-2.51-2.7-3.33c-.01-.23-.03-.46-.05-.7l2.52-2.04-2.97-3.66,2.64-2.13-3.71-4.59-.95.77c-.14-.44-.31-.92-.47-1.37l1.08-1.19-1.88-1.7c-.02-.15-.05-.3-.05-.45,0-.13,0-.28,0-.43l1.72-1.9-1.41-1.28,2.98-3.29-3.44-3.12c0-.1,0-.21,0-.31l2.29-2.53-2.34-2.12c0-.76-.01-1.53-.02-2.31l1.14-1.25-1.15-1.04c0-1.69,0-3.4,0-5.1l.66-.31-.65-1.41c.01-1.98.03-3.91.06-5.74l2.06-1.05-1.21-2.36,1.25-.64-1.86-3.64c.03-.55.06-1.06.1-1.54l.14.27,6.04-3.08-2.14-4.2,3.02-1.54-1.29-2.52c.67-1.08,1.32-2.17,1.94-3.26l.39-.2-.13-.25c.47-.84.94-1.68,1.38-2.53l1.83-.94-.67-1.31c.43-.85.85-1.7,1.26-2.55l.79-.4-.31-.6c.39-.81.77-1.62,1.14-2.42l.2.38,5.26-2.69-2.35-4.6c.41-.93.83-1.86,1.23-2.75l2.68-.21-.38-4.74c.22-.45.44-.89.66-1.33l3.34-.27-.39-4.94c1.01-1.55,2.05-2.9,3.16-3.97l2.02,1.5,1.89-2.55,2.55,1.89,3.31-4.46c.11,0,.23.02.35.03l1.93,4.12,2.39-1.19.61,1.3.16-.08.57,2.66,1.86-.4.92,4.34,3.1-.66.66,3.1,1.73-.37c.31.62.61,1.28.91,1.97l-.37.08,1.15,5.39-1.31,1.97,3.92,2.62-1.88,2.82,3.39,2.26c.08.34.17.68.25,1.03l-1.62,2.43,1.58,1.06-2.46,3.69,2.64,1.76-1.76,2.64,4.28,2.86s0,.02,0,.03l-2.8,4.2,3.49,2.33-2.41,3.92,3.2,1.97c0,.08.02.17.02.25l-3.25,5.3,2.47,1.52-2.97,4.83,4.02,2.47-1.78,2.89,2.5,1.54v3.67l-.27.44.27.17v3.03l-.97,1.58.97.6v7.48l-2.52,4.1,2.08,1.28c-.14.36-.3.71-.51,1.04-.47.73-1.07,1.72-1.74,2.89l-2.04,1.21.71,1.21c-.25.47-.5.96-.75,1.46l-2.11-1.63-4.15,5.36,2.51,1.94-1.94,2.51,1.51,1.17-2.72,3.51,2.41,1.87c-.04.95,0,1.89.13,2.79l-.93,1.2,1.49,1.15c.34.97.85,1.88,1.49,2.71l-1.32,1.71,4.67,3.61,1.45-1.88c.16.06.31.14.48.2l-.07,2.78,6.78.18.05-1.82c.37-.03.87-.09,1.48-.2l.84,2.28,6.37-2.34-.85-2.32c.66-.41,1.31-.9,1.93-1.45l.81-.3-.13-.35c.65-.66,1.25-1.42,1.78-2.28l1.86-.68-.66-1.8c.38-1.03.68-2.17.86-3.44l1.55-.57-1.39-3.78c-.01-.24-.01-.47-.03-.72l2.98-1.09-2.03-5.54-1.94.71c-.15-.62-.34-1.27-.53-1.93l.81-1.05-1.48-1.07c-.11-.33-.22-.66-.34-1l.49-.64-1-.72c-.11-.3-.21-.58-.33-.88-.23-.57-.37-1.18-.42-1.79-.05-.67-.12-1.55-.2-2.61l2.41-3.14-2.77-2.01c-.04-.67-.09-1.37-.13-2.09l1.11-1.45-1.24-.9c-.13-2.59-.25-5.43-.32-8.37l.97-1.27-1.01-.73c-.02-1.06-.02-2.14-.02-3.22l.38-.49-.38-.27c0-.87.01-1.75.03-2.62l.1.07,3.64-4.76-3.46-2.5c.1-1.48.22-2.94.37-4.35l1.09-.64-.85-1.39c.09-.67.19-1.33.29-1.98l1.7-.99-1-1.64,3.93-2.29-2.43-3.96c.04-.12.09-.24.13-.36l2.97-1.73-1.33-2.18c.52-1.11,1.12-2.26,1.8-3.43l.32.43,5.69-3.97-1.58-2.15,1.18-.82-.1-.14,2.53-1.01-.67-1.68c.06-.06.09-.1.15-.16l3.94-1.58-.8-2.01c.44-.49.94-1.06,1.52-1.7l1.05-.42-.21-.52c.6-.67,1.27-1.41,2.02-2.24l4.93-1.97-1.28-3.19c.76-1.3,1.56-2.73,2.41-4.22h1.11s.01-1.13.01-1.13l1.94.22.57-4.96c.37-.53.75-1.05,1.13-1.56l3.83.29.2-2.64,1.4.11.26-3.44c.84-.58,1.72-1.08,2.65-1.47l5.03.39.1-1.35c.79.02,1.61.1,2.46.27l.4,2.7,2.62-.39.2,1.39,3.34-.49c.29.25.58.51.89.81l-1.04,2.28,4.75,2.16c.31.45.62.93.94,1.43l-1.47,3.59,2.45,1.01-.53,1.3,3.26,1.34c.29.68.57,1.38.85,2.11l-2.26,5.5,4.36,1.79-1.29,3.14,2.75,1.13c.25,1.02.5,2.07.73,3.17l-.38.92.63.26c.15.71.29,1.43.43,2.17l-.99,2.41,1.55.64c.16.92.31,1.86.46,2.82l-.28.68.41.17c.14.92.27,1.85.4,2.81l-2.12,5.15,2.88,1.18c.41,3.92.75,8.12,1,12.64l-1.9,1.91,2.11,2.09c.04.85.07,1.71.1,2.58l-1.33,1.34,1.36,1.35v3.56l-2.85,3.38,1.69,1.42-2.89,3.43,4.05,3.42v1.04l-.65-.55-4.37,5.19,3.6,3.04-2.19,2.59,3.6,3.04v.22l-2.24,2.66,1.46,1.23-2.86,3.39,2.43,2.04-2.04,2.43,2.34,1.97c-.58,1.07-1.38,2.61-2.21,4.47l-2.93,2.73,1.27,1.36c-.16.45-.32.91-.47,1.37l-2.67-1.26-2.89,6.13,2.87,1.35-1.35,2.87,1.72.81-1.89,4.01,2.87,1.35c.2.78.47,1.54.8,2.27l-.82,1.75,2.69,1.27c.39.46.83.9,1.29,1.33l-1.17,2.48,5.34,2.52.91-1.94c.5.2,1.01.38,1.56.55,1.3.4,2.7.34,3.96-.14.08-.03.16-.06.24-.1l1.44,2.86,6.06-3.05-1.42-2.83,2.83-1.42-.86-1.7,3.97-1.99-1.61-3.21c.14-.51.25-1.04.35-1.59l2.34-1.18-2.1-4.18s0-.03,0-.04l3.02-1.52-2.65-5.28-1.41.71c-.43-1.64-1.01-3.38-1.73-5.23l.45-.5-1.03-.93c-.25-.6-.51-1.2-.79-1.82-.02-.03-.03-.07-.04-.1l2.97-3.26-3.51-3.19c0-.32,0-.66,0-1.01l.2.17,4.37-5.19-2.03-1.71.9-1.07-3.26-2.75c.01-.44.02-.9.03-1.35l4.2-4.99-3.6-3.04,2.19-2.59-2.41-2.03c.03-.92.07-1.85.1-2.78l.94-1.11-.87-.73c.02-.42.03-.84.05-1.25l2.22-2.64-2.03-1.71c.01-.28.03-.56.04-.84l1.61-1.91-1.46-1.23c.07-1.4.14-2.8.22-4.17l4.04-3.77-3.22-3.45,2.48-2.31-2.47-2.64c.05-.63.11-1.25.16-1.85l1.66-1.55-1.3-1.39,3.24-3.03-2.16-2.32,2.32-2.16-1.92-2.06c.02-.06.03-.12.05-.17.35-1.09.63-1.94.85-2.63l3.79-1.9-1.94-3.87c.28-.83.63-1.88,1.08-3.22l2.09-1.14-1.2-2.19c.01-.07.03-.14.04-.2l1.11-.61-.7-1.28c.3-1.43.64-3.02,1.03-4.73l3.86-2.11-2.26-4.13,2.97-1.63-1.54-2.82c.28-.79.58-1.58.9-2.36l1.51-.83-.65-1.19c.12-.28.25-.55.38-.83l3.25-1.78-1.17-2.14c.25-.42.5-.84.77-1.25l1.66-.91-.46-.84c1.34-1.84,2.86-3.55,4.59-5.07l3.2,1.81,2.32-4.1,2.95,1.67,2.39-4.23,3.17,1.79.94-1.66,3.87,2.18,1.2-2.12c.47.26.91.55,1.33.87l-1.58,5.44,2.54.74-.39,1.34,5.54,1.61c.12.31.24.61.36.93l-1.21-.35-1.89,6.51,4.53,1.31-.95,3.26,3.36.98c.24.75.49,1.52.75,2.3l-.46,1.58,1.09.32c.14.42.29.84.43,1.26l-.93,3.21,2.33.68c.14.39.29.77.44,1.17l-.61,2.09,1.6.47c.33.82.67,1.65,1.03,2.5l-1.41-.41-1.65,5.67,6.25,1.82c.03.06.06.12.09.18l-1.13,4.51,2.57.64-.34,1.36,2.69.67c.48.9,1.01,1.92,1.62,3.15l-1.19,4.76,3.94.99c.15.31.3.64.44.94l-.63,2.51,2.01.5c.68,1.48,1.29,2.84,1.85,4.08l-.03.14.11.03c.42.94.82,1.82,1.19,2.64l-.53,2.1,1.66.41c.34.75.66,1.46.97,2.13l-.33,1.3,1.06.27c.4.85.8,1.67,1.22,2.48l-.97-.24-1.43,5.73,5.97,1.5c.26.6.49,1.22.71,1.95l-2.01,2.71,2.55,1.89-1.89,2.55,1.53,1.13-2.64,3.57,3.9,2.89-2.17,2.93,2.72,2.01c-.07.89-.15,1.75-.25,2.58l-.7.94.54.4c-.84,6.67-1.97,11.4.73,14.99l-.81,1.09,5.45,4.04,1.03-1.39c1.04.32,2.14.52,3.26.63l.15.11.07-.09c1,.08,2,.08,3,0l1.63,1.21,1.26-1.7c1.08-.28,2.11-.67,3.06-1.15l1.5,1.11,3.52-4.74-.55-.4c1.09-1.79,1.69-3.9,1.98-6.17l1.64-2.21-1.41-1.05c.01-.77,0-1.56-.03-2.34l.78-1.05-.86-.64c-.03-.43-.06-.85-.09-1.27l2.07-2.79-2.53-1.87c-.1-.85-.21-1.67-.33-2.44l1.12-1.51-1.57-1.16c-.25-1.33-.51-2.51-.78-3.58l.59-.79-.99-.73c-.52-1.85-1.02-3.33-1.44-4.59l2.83-3.81-2.13-1.58.83-1.13-1.7-1.26c.13-.31.28-.61.43-.9l1.97.14.19-2.64,1.4.1.14-1.91c.5-.41,1.02-.78,1.54-1.15l1.71.12.08-1.14,5.08-.81-.42-2.61c.75-.7,1.35-1.48,1.74-2.38l1.28-.21-.93-5.83-.85.14c-.8-1.63-1.84-3.18-2.03-5.32l2.36-.68-1.26-4.39c.03-.06.06-.12.09-.18l3.12-.9-.68-2.37c.23-.24.45-.48.7-.72,0,0,1.09-.94,2.57-2.97l3.28-.94-.73-2.55,1.35-.39-.54-1.87c.22-.47.43-.96.65-1.46l2.06-.59-.8-2.77c.27-.8.53-1.62.77-2.5,0,0,.32-1.24,1.1-2.92l.75.13.39-2.24c.52-.85,1.15-1.72,1.89-2.55l6.05,1.05.45-2.61,1.38.24.54-3.11s.06,0,.08,0l3.05.53.09-.5c2.5.27,5.36,1.13,8.64,2.83.75.39,1.56.65,2.41.71.49.04,1.1.06,1.81.06l2.81,1.26.69-1.53c2.62-.39,5.75-1.29,8.92-3.18l2.53,1.13,2.09-4.67c1.91-1.84,3.74-4.16,5.38-7.06l.82-.38-.29-.62c.57-1.09,1.12-2.26,1.63-3.51l.19-.09-.08-.18c.3-.73.58-1.49.86-2.28l2.45-1.14-1.27-2.74c.2-.74.39-1.5.57-2.29l1.97-.91-1.35-2.9c.06-.51.14-1.11.24-1.78l2.2-1.02-1.5-3.22c.12-.62.25-1.25.39-1.9l5.83-2.7-1.12-2.4,1.27-.59-1.33-2.88,2.88-1.33-1.01-2.17Z"/>
    <path class="cls-3" d="M994.06,905.68l4.57-2.12-1.91-4.12c.38-1.29.35-2.7-.17-4.02-.84-2.12-2.78-3.56-5.01-3.81l-1.02-1.02-.97.97h-2.55l-.97-.97-.97.97h-.76l-2.76-2.76-2.76,2.76h-1.35l-1.9-1.9-1.9,1.9h-2.86l-.97-.97-.97.97h-5.29l-2.71-2.71-1.87,1.87-.99-.99-1.82,1.82h-.84l-1.82-1.82-1.7,1.7-3.57-3.57-3.7,3.7h-5.17l-1.4-1.4-1.4,1.4h-4.08l-.54-.54-.54.54h-12.82l-1.34-1.34-1.34,1.34h-1.06l-.46-.46-.46.46h-3.56l-.46-.46-.46.46h-2.47l-2.33-2.33-2.33,2.33h-2.71l-.97-.97-.97.97h-2.55l-.97-.97-.97.97h-.76l-2.76-2.76-2.76,2.76h-1.35l-1.9-1.9-1.9,1.9h-2.86l-.97-.97-.97.97h-5.29l-2.71-2.71-1.87,1.87-.99-.99-1.82,1.82h-.84l-1.82-1.82-1.7,1.7-3.57-3.57-3.7,3.7h-2.59l-.59-.59-.59.59h-3.3l-.59-.59-.59.59h-1.51l-2.38-2.38-2.38,2.38h-2.1l-1.53-1.53-1.53,1.53h-3.61l-.59-.59-.59.59h-6.05l-2.33-2.33-1.87,1.87-.99-.99-1.45,1.45h-1.59l-1.45-1.45-1.45,1.45h-.49l-3.32-3.32-3.32,3.32h-13.82l-1.58-1.58-1.58,1.58h-3.71l-.72-.72-.72.72h-12.45l-1.53-1.53-1.53,1.53h-.69l-.64-.64-.64.64h-3.2l-.64-.64-.64.64h-.47l-3.37-3.37-3.37,3.37h-1.06l-1.58-1.58-1.58,1.58h-3.51l-.64-.64-.64.64h-5.94l-2.38-2.38-2.38,2.38h-2.05l-1.58-1.58-1.58,1.58h-2.26l-.64-.64-.64.64h-2.31l-1.53-1.53-1.53,1.53h-1.97l-2.51-2.51-2.51,2.51h-1.64l-1.58-1.58-1.58,1.58h-4.07l-3.32-3.32-3.08,3.08-2.2-2.2-2.24,2.24-2.24-2.24-2.44,2.44h-1.22l-1.53-1.53-1.53,1.53h-.42l-3.37-3.37-3.33,3.33-2.4-2.4-2.44,2.44h-4.02l-1.53-1.53-1.53,1.53h-5.87l-1.58-1.58-1.58,1.58h-3.71l-.72-.72-.72.72h-12.45l-1.53-1.53-1.53,1.53h-.69l-.64-.64-.64.64h-3.2l-.64-.64-.64.64h-.47l-3.37-3.37-3.37,3.37h-1.06l-1.58-1.58-1.58,1.58h-3.51l-.64-.64-.64.64h-5.94l-2.38-2.38-2.38,2.38h-2.05l-1.58-1.58-1.58,1.58h-2.26l-.64-.64-.64.64h-2.31l-1.53-1.53-1.53,1.53h-1.97l-2.51-2.51-2.51,2.51h-1.64l-1.58-1.58-1.58,1.58h-4.07l-3.32-3.32-3.08,3.08-2.2-2.2-2.24,2.24-2.24-2.24-1.66,1.66-3.4-3.4-3.12,3.12-2.32-2.32-3.33,3.33-2.4-2.4-2.44,2.44h-2.36l-4.18-4.18-4.18,4.18.31.31h-3.7v3.7l-3.6,4.17,3.3,2.85-2.03,2.35,2.33,2.01v.14l-2,2.32,1.78,1.53-3.14,3.64,3.34,2.89-2.14,2.48,2.17,1.87v2.83l-.82.95.82.71v.24c0,2.84,1.94,5.2,4.58,5.91l-.28.57,5.3,2.61.19-.39,1.19,3.51,4.7-1.59c.54.51,1.07,1.07,1.61,1.68l.46,4.2,2.37-.26c.83,1.38,1.63,2.95,2.4,4.72l-.51.77,1.15.77c.08.19.15.4.23.6l-2.26,3.38,2.64,1.76-1.76,2.64,4.3,2.87-2.81,4.22,3.49,2.33-2.41,3.92,3.33,2.05-3.36,5.47,2.47,1.52-1.18,1.92-.63.13.14.66-1.3,2.12,1.68,1.03c-.2.97-.38,1.96-.55,2.98l-2.8-1.15-2.58,6.27,2.93,1.21-1.21,2.93,1.76.72-1.69,4.11,3.36,1.38c.16.63.36,1.22.59,1.78l-.84,2.05,3.09,1.27c.74.64,1.6,1.13,2.63,1.43l1.74,2.95,3.96-2.34c.73.01,1.59-.05,2.51-.24l1.34.89,1.2-1.8c1.55-.8,3.11-2.12,4.41-4.24l2.11-1.7-.79-.98c.15-.37.29-.76.42-1.17l2.62-2.12-1.63-2.01c.16-1,.29-2.08.38-3.22l1.03-.83-.91-1.12c0-.18.02-.37.02-.55l2.11-2.17-1.8-1.75.25-.2-.44-.55,1.93-1.99-1.37-1.33,3.09-3.18-3.48-3.39,2.54-2.61-3.38-3.29,2.36-2.43-.75-.73h.23s-.16-5.91-.16-5.91l-1.47.04c.32-1.34.73-2.7,1.26-4.04l3.68.2.26-4.85,3.64.2.26-4.71,3.39.18.06-1.05.16.17,3.62-3.33.09,2.34,4.71-.19.13,3.39,4.85-.19.14,3.64,1.9-.08.18,4.44,3.17-.13.13,3.17,3.25-.13c.22.47.45.96.67,1.46l-1.24,1.86,2.73,1.82c.22.6.44,1.22.66,1.86l-1.37,2.05,1.58,1.06-2.46,3.69,2.64,1.76-1.76,2.64,4.3,2.87-2.81,4.22,3.49,2.33-2.41,3.92,3.33,2.05-3.36,5.47,2.47,1.52-2.97,4.83,4.02,2.47-1.78,2.89,2.51,1.54v3.65l-.28.46.28.17v3.01l-.98,1.6.98.6v7.45l-2.53,4.12,2.35,1.44c-.08.35-.19.68-.34,1.01-.31.7-.74,1.7-1.22,2.92l-1.99.42.67,3.14c-.38,1.09-.76,2.27-1.11,3.49l-2.39-.98-2.58,6.27,2.93,1.21-1.21,2.93,1.32.54c-.03.47-.05.93-.06,1.39l-1.19,2.9,1.38.57c.23,1.58.68,3.03,1.37,4.3l-.54,1.31,2.22.91c.49.47,1.07.87,1.7,1.23l2.05,3.55,3.58-2.07c.23.01.44.04.67.04,0,0,3.09.16,6.29-1.39l3.9,1.6,2.25-5.46-1.31-.54c.2-.33.38-.67.56-1.03l1.97-1.6-.97-1.19c.05-.18.08-.38.12-.57l3.1-2.51-2.7-3.33c-.01-.23-.03-.46-.05-.7l2.52-2.04-2.97-3.66,2.64-2.13-3.71-4.59-.95.77c-.14-.44-.31-.92-.47-1.37l1.08-1.19-1.88-1.7c-.02-.15-.05-.3-.05-.45,0-.13,0-.28,0-.43l1.72-1.9-1.41-1.28,2.98-3.29-3.44-3.12c0-.1,0-.21,0-.31l2.29-2.53-2.34-2.12c0-.76-.01-1.53-.02-2.31l1.14-1.25-1.15-1.04c0-1.69,0-3.4,0-5.1l.66-.31-.65-1.41c.01-1.98.03-3.91.06-5.74l2.06-1.05-1.21-2.36,1.25-.64-1.86-3.64c.03-.55.06-1.06.1-1.54l.14.27,6.04-3.08-2.14-4.2,3.02-1.54-1.29-2.52c.67-1.08,1.32-2.17,1.94-3.26l.39-.2-.13-.25c.47-.84.94-1.68,1.38-2.53l1.83-.94-.67-1.31c.43-.85.85-1.7,1.26-2.55l.79-.4-.31-.6c.39-.81.77-1.62,1.14-2.42l.2.38,5.26-2.69-2.35-4.6c.41-.93.83-1.86,1.23-2.75l2.68-.21-.38-4.74c.22-.45.44-.89.66-1.33l3.34-.27-.39-4.94c1.01-1.55,2.05-2.9,3.16-3.97l2.02,1.5,1.89-2.55,2.55,1.89,3.31-4.46c.11,0,.23.02.35.03l1.93,4.12,2.39-1.19.61,1.3.16-.08.57,2.66,1.86-.4.92,4.34,3.1-.66.66,3.1,1.73-.37c.31.62.61,1.28.91,1.97l-.37.08,1.15,5.39-1.31,1.97,3.92,2.62-1.88,2.82,3.39,2.26c.08.34.17.68.25,1.03l-1.62,2.43,1.58,1.06-2.46,3.69,2.64,1.76-1.76,2.64,4.28,2.86s0,.02,0,.03l-2.8,4.2,3.49,2.33-2.41,3.92,3.2,1.97c0,.08.02.17.02.25l-3.25,5.3,2.47,1.52-2.97,4.83,4.02,2.47-1.78,2.89,2.5,1.54v3.67l-.27.44.27.17v3.03l-.97,1.58.97.6v7.48l-2.52,4.1,2.08,1.28c-.14.36-.3.71-.51,1.04-.47.73-1.07,1.72-1.74,2.89l-2.04,1.21.71,1.21c-.25.47-.5.96-.75,1.46l-2.11-1.63-4.15,5.36,2.51,1.94-1.94,2.51,1.51,1.17-2.72,3.51,2.41,1.87c-.04.95,0,1.89.13,2.79l-.93,1.2,1.49,1.15c.34.97.85,1.88,1.49,2.71l-1.32,1.71,4.67,3.61,1.45-1.88c.16.06.31.14.48.2l-.07,2.78,6.78.18.05-1.82c.37-.03.87-.09,1.48-.2l.84,2.28,6.37-2.34-.85-2.32c.66-.41,1.31-.9,1.93-1.45l.81-.3-.13-.35c.65-.66,1.25-1.42,1.78-2.28l1.86-.68-.66-1.8c.38-1.03.68-2.17.86-3.44l1.55-.57-1.39-3.78c-.01-.24-.01-.47-.03-.72l2.98-1.09-2.03-5.54-1.94.71c-.15-.62-.34-1.27-.53-1.93l.81-1.05-1.48-1.07c-.11-.33-.22-.66-.34-1l.49-.64-1-.72c-.11-.3-.21-.58-.33-.88-.23-.57-.37-1.18-.42-1.79-.05-.67-.12-1.55-.2-2.61l2.41-3.14-2.77-2.01c-.04-.67-.09-1.37-.13-2.09l1.11-1.45-1.24-.9c-.13-2.59-.25-5.43-.32-8.37l.97-1.27-1.01-.73c-.02-1.06-.02-2.14-.02-3.22l.38-.49-.38-.27c0-.87.01-1.75.03-2.62l.1.07,3.64-4.76-3.46-2.5c.1-1.48.22-2.94.37-4.35l1.09-.64-.85-1.39c.09-.67.19-1.33.29-1.98l1.7-.99-1-1.64,3.93-2.29-2.43-3.96c.04-.12.09-.24.13-.36l2.97-1.73-1.33-2.18c.52-1.11,1.12-2.26,1.8-3.43l.32.43,5.69-3.97-1.58-2.15,1.18-.82-.1-.14,2.53-1.01-.67-1.68c.06-.06.09-.1.15-.16l3.94-1.58-.8-2.01c.44-.49.94-1.06,1.52-1.7l1.05-.42-.21-.52c.6-.67,1.27-1.41,2.02-2.24l4.93-1.97-1.28-3.19c.76-1.3,1.56-2.73,2.41-4.22h1.11s.01-1.13.01-1.13l1.94.22.57-4.96c.37-.53.75-1.05,1.13-1.56l3.83.29.2-2.64,1.4.11.26-3.44c.84-.58,1.72-1.08,2.65-1.47l5.03.39.1-1.35c.79.02,1.61.1,2.46.27l.4,2.7,2.62-.39.2,1.39,3.34-.49c.29.25.58.51.89.81l-1.04,2.28,4.75,2.16c.31.45.62.93.94,1.43l-1.47,3.59,2.45,1.01-.53,1.3,3.26,1.34c.29.68.57,1.38.85,2.11l-2.26,5.5,4.36,1.79-1.29,3.14,2.75,1.13c.25,1.02.5,2.07.73,3.17l-.38.92.63.26c.15.71.29,1.43.43,2.17l-.99,2.41,1.55.64c.16.92.31,1.86.46,2.82l-.28.68.41.17c.14.92.27,1.85.4,2.81l-2.12,5.15,2.88,1.18c.41,3.92.75,8.12,1,12.64l-1.9,1.91,2.11,2.09c.04.85.07,1.71.1,2.58l-1.33,1.34,1.36,1.35v3.56l-2.85,3.38,1.69,1.42-2.89,3.43,4.05,3.42v1.04l-.65-.55-4.37,5.19,3.6,3.04-2.19,2.59,3.6,3.04v.22l-2.24,2.66,1.46,1.23-2.86,3.39,2.43,2.04-2.04,2.43,2.34,1.97c-.58,1.07-1.38,2.61-2.21,4.47l-2.93,2.73,1.27,1.36c-.16.45-.32.91-.47,1.37l-2.67-1.26-2.89,6.13,2.87,1.35-1.35,2.87,1.72.81-1.89,4.01,2.87,1.35c.2.78.47,1.54.8,2.27l-.82,1.75,2.69,1.27c.39.46.83.9,1.29,1.33l-1.17,2.48,5.34,2.52.91-1.94c.5.2,1.01.38,1.56.55,1.3.4,2.7.34,3.96-.14.08-.03.16-.06.24-.1l1.44,2.86,6.06-3.05-1.42-2.83,2.83-1.42-.86-1.7,3.97-1.99-1.61-3.21c.14-.51.25-1.04.35-1.59l2.34-1.18-2.1-4.18s0-.03,0-.04l3.02-1.52-2.65-5.28-1.41.71c-.43-1.64-1.01-3.38-1.73-5.23l.45-.5-1.03-.93c-.25-.6-.51-1.2-.79-1.82-.02-.03-.03-.07-.04-.1l2.97-3.26-3.51-3.19c0-.32,0-.66,0-1.01l.2.17,4.37-5.19-2.03-1.71.9-1.07-3.26-2.75c.01-.44.02-.9.03-1.35l4.2-4.99-3.6-3.04,2.19-2.59-2.41-2.03c.03-.92.07-1.85.1-2.78l.94-1.11-.87-.73c.02-.42.03-.84.05-1.25l2.22-2.64-2.03-1.71c.01-.28.03-.56.04-.84l1.61-1.91-1.46-1.23c.07-1.4.14-2.8.22-4.17l4.04-3.77-3.22-3.45,2.48-2.31-2.47-2.64c.05-.63.11-1.25.16-1.85l1.66-1.55-1.3-1.39,3.24-3.03-2.16-2.32,2.32-2.16-1.92-2.06c.02-.06.03-.12.05-.17.35-1.09.63-1.94.85-2.63l3.79-1.9-1.94-3.87c.28-.83.63-1.88,1.08-3.22l2.09-1.14-1.2-2.19c.01-.07.03-.14.04-.2l1.11-.61-.7-1.28c.3-1.43.64-3.02,1.03-4.73l3.86-2.11-2.26-4.13,2.97-1.63-1.54-2.82c.28-.79.58-1.58.9-2.36l1.51-.83-.65-1.19c.12-.28.25-.55.38-.83l3.25-1.78-1.17-2.14c.25-.42.5-.84.77-1.25l1.66-.91-.46-.84c1.34-1.84,2.86-3.55,4.59-5.07l3.2,1.81,2.32-4.1,2.95,1.67,2.39-4.23,3.17,1.79.94-1.66,3.87,2.18,1.2-2.12c.47.26.91.55,1.33.87l-1.58,5.44,2.54.74-.39,1.34,5.54,1.61c.12.31.24.61.36.93l-1.21-.35-1.89,6.51,4.53,1.31-.95,3.26,3.36.98c.24.75.49,1.52.75,2.3l-.46,1.58,1.09.32c.14.42.29.84.43,1.26l-.93,3.21,2.33.68c.14.39.29.77.44,1.17l-.61,2.09,1.6.47c.33.82.67,1.65,1.03,2.5l-1.41-.41-1.65,5.67,6.25,1.82c.03.06.06.12.09.18l-1.13,4.51,2.57.64-.34,1.36,2.69.67c.48.9,1.01,1.92,1.62,3.15l-1.19,4.76,3.94.99c.15.31.3.64.44.94l-.63,2.51,2.01.5c.68,1.48,1.29,2.84,1.85,4.08l-.03.14.11.03c.42.94.82,1.82,1.19,2.64l-.53,2.1,1.66.41c.34.75.66,1.46.97,2.13l-.33,1.3,1.06.27c.4.85.8,1.67,1.22,2.48l-.97-.24-1.43,5.73,5.97,1.5c.26.6.49,1.22.71,1.95l-2.01,2.71,2.55,1.89-1.89,2.55,1.53,1.13-2.64,3.57,3.9,2.89-2.17,2.93,2.72,2.01c-.07.89-.15,1.75-.25,2.58l-.7.94.54.4c-.84,6.67-1.97,11.4.73,14.99l-.81,1.09,5.45,4.04,1.03-1.39c1.04.32,2.14.52,3.26.63l.15.11.07-.09c1,.08,2,.08,3,0l1.63,1.21,1.26-1.7c1.08-.28,2.11-.67,3.06-1.15l1.5,1.11,3.52-4.74-.55-.4c1.09-1.79,1.69-3.9,1.98-6.17l1.64-2.21-1.41-1.05c.01-.77,0-1.56-.03-2.34l.78-1.05-.86-.64c-.03-.43-.06-.85-.09-1.27l2.07-2.79-2.53-1.87c-.1-.85-.21-1.67-.33-2.44l1.12-1.51-1.57-1.16c-.25-1.33-.51-2.51-.78-3.58l.59-.79-.99-.73c-.52-1.85-1.02-3.33-1.44-4.59l2.83-3.81-2.13-1.58.83-1.13-1.7-1.26c.13-.31.28-.61.43-.9l1.97.14.19-2.64,1.4.1.14-1.91c.5-.41,1.02-.78,1.54-1.15l1.71.12.08-1.14,5.08-.81-.42-2.61c.75-.7,1.35-1.48,1.74-2.38l1.28-.21-.93-5.83-.85.14c-.8-1.63-1.84-3.18-2.03-5.32l2.36-.68-1.26-4.39c.03-.06.06-.12.09-.18l3.12-.9-.68-2.37c.23-.24.45-.48.7-.72,0,0,1.09-.94,2.57-2.97l3.28-.94-.73-2.55,1.35-.39-.54-1.87c.22-.47.43-.96.65-1.46l2.06-.59-.8-2.77c.27-.8.53-1.62.77-2.5,0,0,.32-1.24,1.1-2.92l.75.13.39-2.24c.52-.85,1.15-1.72,1.89-2.55l6.05,1.05.45-2.61,1.38.24.54-3.11s.06,0,.08,0l3.05.53.09-.5c2.5.27,5.36,1.13,8.64,2.83.75.39,1.56.65,2.41.71.49.04,1.1.06,1.81.06l2.81,1.26.69-1.53c2.62-.39,5.75-1.29,8.92-3.18l2.53,1.13,2.09-4.67c1.91-1.84,3.74-4.16,5.38-7.06l.82-.38-.29-.62c.57-1.09,1.12-2.26,1.63-3.51l.19-.09-.08-.18c.3-.73.58-1.49.86-2.28l2.45-1.14-1.27-2.74c.2-.74.39-1.5.57-2.29l1.97-.91-1.35-2.9c.06-.51.14-1.11.24-1.78l2.2-1.02-1.5-3.22c.12-.62.25-1.25.39-1.9l5.83-2.7-1.12-2.4,1.27-.59-1.33-2.88,2.88-1.33-1.01-2.17Z"/>
  </g>
  <g id="lumière" class="cls-2">
    <g>
      <ellipse class="cls-1" cx="901.11" cy="1052.16" rx="5.1" ry="7.49"/>
      <path class="cls-1" d="M994.06,897.95s-12.85,2.28-22.88,40.33c0,0,1.54,6.09-31.61,6.09-2.1.3-4.94.97-8,2.5-5.65,2.84-8.82,7.04-10.25,9.26-.57.77-1.13,1.6-1.67,2.47-2.94,4.73-4.47,9.44-5.27,13.41,0,0-1.54,15.98-13.37,6.85,0,0-2.31-.7,0,8.15.62,1.85,1.49,5.46.23,9.49-.31,1-.71,1.87-1.13,2.63-.63,1.71-1.95,5.89-.17,7.58,2.08,1.97,8.07.26,14.69-5.01.51-1.05,1.02-2.58.64-4.22-.31-1.35-1.11-2.2-1.32-2.46-1.19-1.46-1.31-5.24,3.25-15.39,0,0,16.71-29.42,18.76-29.42s7.37-6,20.82-1.52c0,0,20.56,5.65,22.62-14.04,0,0,6.94-32.38,14.65-36.69Z"/>
      <path class="cls-1" d="M577.96,949.72c.89-1.07,1.16-2.26.72-2.8-.56-.69-2.17-.23-3.13.39-.99.64-1.45,1.57-1.6,1.88-1.77,3.75-8.69,25.26-6.51,25.84.2.05.56-.04,1.26-1.04.42-3.26.98-5.95,1.43-7.89,1.03-4.36,1.54-6.54,2.82-8.61.73-1.18,1.4-1.94,3.18-4.76.79-1.25,1.42-2.3,1.83-3Z"/>
      <path class="cls-1" d="M660.92,940.32c-.58-.3-1.45-.64-2.45-.49-3.04.45-4.65,5.06-5.1,6.24-1.57,4.1-6.13,11.39-18.78,25.43,0,0-.77,1.89-1.91,4.14-1.77,3.51-3.66,5.75-4.07,6.29-3.14,4.13-2.16,10.1-3.78,23.33-1.37,11.15-3.29,16.86.49,22.3.45.65.88,1.15,1.17,1.47.48.47,1.17,1.01,1.7.82,1.52-.54.25-6.34-.24-15.1-.38-6.92-.62-11.93.98-17.61,1.24-4.4,3.16-7.74,4.6-9.87.56-.41,1.42-1.12,2.25-2.16,2.36-2.98,2.63-6.37,2.74-7.34.66-6.02,5.45-13.48,11.74-23.28,2.47-3.85,5.95-8.79,10.66-14.18Z"/>
      <path class="cls-1" d="M702.84,1036.42c.47.16,1.15.29,1.76,0,2.78-1.31.67-9.69,0-17.71-.32-3.78-1.08-16.68,3.44-28.2,1.67-4.25,5.14-11.06,12.9-17.95,5.16-5.02,8.17-9.72,9.98-13.14,2.1-3.98,3.06-7.15,6.34-11.14,2.61-3.17,5.37-5.25,7.3-6.52,1.17-1.21,2.34-2.42,3.51-3.64h0c-.74-.11-1.47-.15-2.18-.13-13.29.33-22.33,21.13-24.42,26.22,0,0-17.8,18.92-19.21,29.68-.97,5.04-1.73,10.98-1.87,17.67-.2,9.82,1.01,18.28,2.46,24.86Z"/>
      <path class="cls-1" d="M817.05,932.93c-.73.44-2.29,1.39-4.14,2.76,0,0-38.37,28.26-21.08,110.87.08.4.32,1.54.66,1.54.3,0,.61-.88.94-2.66.9-9.53,1.29-17.31,1.48-22.55.64-17.77,1.54-34.74,3.91-42.78.3-1.03.68-2.23,3.38-11.15,3.64-12.05,3.91-13.03,4.45-14.67,1.71-5.19,4.73-12.58,10.4-21.36Z"/>
      <ellipse class="cls-1" cx="791.22" cy="1081.49" rx="2.2" ry="3.57"/>
      <ellipse class="cls-1" cx="788.17" cy="1067.71" rx="2.64" ry="3.88"/>
      <ellipse class="cls-1" cx="702.64" cy="1063.8" rx="1.96" ry="2.58"/>
      <ellipse class="cls-1" cx="699.84" cy="1051.08" rx="2.41" ry="4.01"/>
      <ellipse class="cls-1" cx="626.06" cy="1058.87" rx="2.54" ry="3.82"/>
      <ellipse class="cls-1" cx="623.96" cy="1046.6" rx="1.81" ry="3.86"/>
      <ellipse class="cls-1" cx="566.48" cy="997.28" rx="2.15" ry="3.39"/>
      <ellipse class="cls-1" cx="563.79" cy="982.81" rx="2.89" ry="4.55"/>
    </g>
    <g>
      <ellipse class="cls-1" cx="901.11" cy="1052.16" rx="5.1" ry="7.49"/>
      <path class="cls-1" d="M994.06,897.95s-12.85,2.28-22.88,40.33c0,0,1.54,6.09-31.61,6.09-2.1.3-4.94.97-8,2.5-5.65,2.84-8.82,7.04-10.25,9.26-.57.77-1.13,1.6-1.67,2.47-2.94,4.73-4.47,9.44-5.27,13.41,0,0-1.54,15.98-13.37,6.85,0,0-2.31-.7,0,8.15.62,1.85,1.49,5.46.23,9.49-.31,1-.71,1.87-1.13,2.63-.63,1.71-1.95,5.89-.17,7.58,2.08,1.97,8.07.26,14.69-5.01.51-1.05,1.02-2.58.64-4.22-.31-1.35-1.11-2.2-1.32-2.46-1.19-1.46-1.31-5.24,3.25-15.39,0,0,16.71-29.42,18.76-29.42s7.37-6,20.82-1.52c0,0,20.56,5.65,22.62-14.04,0,0,6.94-32.38,14.65-36.69Z"/>
      <path class="cls-1" d="M577.96,949.72c.89-1.07,1.16-2.26.72-2.8-.56-.69-2.17-.23-3.13.39-.99.64-1.45,1.57-1.6,1.88-1.77,3.75-8.69,25.26-6.51,25.84.2.05.56-.04,1.26-1.04.42-3.26.98-5.95,1.43-7.89,1.03-4.36,1.54-6.54,2.82-8.61.73-1.18,1.4-1.94,3.18-4.76.79-1.25,1.42-2.3,1.83-3Z"/>
      <path class="cls-1" d="M660.92,940.32c-.58-.3-1.45-.64-2.45-.49-3.04.45-4.65,5.06-5.1,6.24-1.57,4.1-6.13,11.39-18.78,25.43,0,0-.77,1.89-1.91,4.14-1.77,3.51-3.66,5.75-4.07,6.29-3.14,4.13-2.16,10.1-3.78,23.33-1.37,11.15-3.29,16.86.49,22.3.45.65.88,1.15,1.17,1.47.48.47,1.17,1.01,1.7.82,1.52-.54.25-6.34-.24-15.1-.38-6.92-.62-11.93.98-17.61,1.24-4.4,3.16-7.74,4.6-9.87.56-.41,1.42-1.12,2.25-2.16,2.36-2.98,2.63-6.37,2.74-7.34.66-6.02,5.45-13.48,11.74-23.28,2.47-3.85,5.95-8.79,10.66-14.18Z"/>
      <path class="cls-1" d="M702.84,1036.42c.47.16,1.15.29,1.76,0,2.78-1.31.67-9.69,0-17.71-.32-3.78-1.08-16.68,3.44-28.2,1.67-4.25,5.14-11.06,12.9-17.95,5.16-5.02,8.17-9.72,9.98-13.14,2.1-3.98,3.06-7.15,6.34-11.14,2.61-3.17,5.37-5.25,7.3-6.52,1.17-1.21,2.34-2.42,3.51-3.64h0c-.74-.11-1.47-.15-2.18-.13-13.29.33-22.33,21.13-24.42,26.22,0,0-17.8,18.92-19.21,29.68-.97,5.04-1.73,10.98-1.87,17.67-.2,9.82,1.01,18.28,2.46,24.86Z"/>
      <path class="cls-1" d="M817.05,932.93c-.73.44-2.29,1.39-4.14,2.76,0,0-38.37,28.26-21.08,110.87.08.4.32,1.54.66,1.54.3,0,.61-.88.94-2.66.9-9.53,1.29-17.31,1.48-22.55.64-17.77,1.54-34.74,3.91-42.78.3-1.03.68-2.23,3.38-11.15,3.64-12.05,3.91-13.03,4.45-14.67,1.71-5.19,4.73-12.58,10.4-21.36Z"/>
      <ellipse class="cls-1" cx="791.22" cy="1081.49" rx="2.2" ry="3.57"/>
      <ellipse class="cls-1" cx="788.17" cy="1067.71" rx="2.64" ry="3.88"/>
      <ellipse class="cls-1" cx="702.64" cy="1063.8" rx="1.96" ry="2.58"/>
      <ellipse class="cls-1" cx="699.84" cy="1051.08" rx="2.41" ry="4.01"/>
      <ellipse class="cls-1" cx="626.06" cy="1058.87" rx="2.54" ry="3.82"/>
      <ellipse class="cls-1" cx="623.96" cy="1046.6" rx="1.81" ry="3.86"/>
      <ellipse class="cls-1" cx="566.48" cy="997.28" rx="2.15" ry="3.39"/>
      <ellipse class="cls-1" cx="563.79" cy="982.81" rx="2.89" ry="4.55"/>
    </g>
  </g>
</svg>