<?xml version="1.0" encoding="UTF-8"?>
<svg xmlns="http://www.w3.org/2000/svg" viewBox="0 0 1152 2048">
  <defs>
    <style>
      .cls-1 {
        fill: none;
      }

      .cls-1, .cls-2, .cls-3 {
        stroke: #000;
      }

      .cls-1, .cls-2, .cls-3, .cls-4 {
        stroke-miterlimit: 10;
      }

      .cls-2 {
        fill: #c00;
      }

      .cls-3 {
        fill: #ff5b32;
      }

      .cls-5 {
        fill: #fff;
      }

      .cls-4 {
        fill: #ffb744;
        stroke: #ff5b32;
      }

      .cls-6 {
        opacity: .6;
      }
    </style>
  </defs>
  <g id="glaçage">
    <g>
      <path class="cls-5" d="M525.01,897.69v28.85c0,3.28,2.58,5.93,5.86,6.13,7.23.44,19,6.62,22.62,40.6.09.82,0,1.66-.24,2.46-1.92,6.26-10.04,35.38,4.78,35.24.41,0,.83.02,1.24.1,3.18.6,18.82,1.79,13.53-33.78,0,0-4.08-25.99,16.32-32.04,1.21-.36,2.51-.35,3.7.06,5.56,1.92,20.88,11.02,23.79,53.27.01.15.02.31.02.46v36c0,.85-.18,1.7-.52,2.48-2.67,6-13.93,33.73,5.61,34.08,0,0,21.49,1.15,9.74-31.13-.23-.63-.36-1.29-.38-1.96-.16-6.6-.77-43.2.81-45.17,15.65-19.43,19.4-47.46,31.14-49.63.32-.06.64-.12.95-.25,3.17-1.27,24.6-6.91,29.34,70.02,0,.13.01.26.01.4v25.73c0,1.17-.33,2.32-.95,3.31-4.09,6.43-18.86,32.12,4.8,34.12.36.03.71.03,1.07,0,3.65-.32,22.04-3.32,11.08-31.18-.23-.57-.37-1.18-.42-1.79-.48-6.34-2.7-31.72.46-47.21,0,0,2.05-13.34,12.49-23.25.81-.77-1.05,1.04,8.47-9.47,5.47-6.04,11.93-28.29,27.57-23.63,0,0,21.52,2.74,23.87,72.78v42.19c0,1.05-.27,2.07-.78,2.99-3.28,5.92-14.92,29.62,4.76,35.71,1.3.4,2.7.34,3.96-.14,5.24-2.02,17.84-9.51,7.09-32.99-.36-.79-.57-1.63-.58-2.49-.15-9.33,1.09-64.85,4.3-74.69,3.56-10.94-.39.81,3.88-11.88,2.67-7.92,4.62-40.4,30.05-44.19,1.8-.27,3.14.48,4.19.87,11.27,4.18,9.85,19.46,21.64,44.58,3.3,7.03,4.09,7.28,8.58,16.93,5.25,11.29,7.1,15.95,9.62,20.86,2.85,5.54,3.55,6.19,4.63,10.52,5.19,20.73-4.41,31.34,2.96,37.87,5.07,4.49,14.84,3.98,19.57-.39,4.87-4.51,4.23-12.9,3.52-19.96-1.67-16.59-6.16-18.09-3.91-23.87,3.29-8.46,14.26-8.71,14.48-15.68.13-4.1-3.62-6.02-2.95-10.96.3-2.24,1.5-4.67,4.29-7.37,0,0,5.48-4.7,8.61-16.04,0,0,4.92-19.29,24.41-9.16.75.39,1.56.65,2.41.71,5.22.39,23.68-.31,29.46-28.77.04-.22.08-.44.1-.66.25-2.54,2.15-19.89,8.53-24.72,2.19-1.66,3-4.59,1.98-7.14h0c-.93-2.33-3.19-3.87-5.7-3.87h-459.7c-3.39,0-6.14,2.75-6.14,6.14Z"/>
      <path class="cls-5" d="M935.31,907.92c-7.94,23.82,9.13,25.01,9.13,25.01,0,0,15.88-2.38,15.48-18.26-7.32,5.37-9.23,6.09-9.58,5.71-.75-.84,6.74-6.06,7-13.79.21-6.44-1.05-5.73-6.1-11.81-1.01.31-.13,3.64-1.79,4.61-1.52.9-4.26-.74-7-2.98,2.28,14.57,1.59,15.83.6,16.08-1.27.32-3.61-3.32-4.05-3.13-.47.21,3.68,8.92,2.26,9.82-.72.46-2.67-1.25-3.72-2.53-2.74-3.35-2.39-7.5-2.23-8.73Z"/>
      <path class="cls-5" d="M952.87,927.96c.7-.97,1.44-2.15,1.13-2.48-.51-.56-3.15,2.21-5.15,1.44-2.17-.83-2.02-5.2-2.98-5.21-1.07,0-1.41,5.39-2.98,5.55-1.41.15-2.87-4.02-3.57-3.77-.4.15.08,1.47-.6,2.83-.53,1.07-1.53,1.68-2.39,2.04.43.55.92,1.17,1.6,1.68,1.23.94,3.34,2.08,6.81,2.87,1.38-.27,5.42-1.25,8.12-4.96Z"/>
      <path class="cls-5" d="M935.31,907.92c-7.94,23.82,9.13,25.01,9.13,25.01,0,0,15.88-2.38,15.48-18.26-7.32,5.37-9.23,6.09-9.58,5.71-.75-.84,6.74-6.06,7-13.79.21-6.44-1.05-5.73-6.1-11.81-1.01.31-.13,3.64-1.79,4.61-1.52.9-4.26-.74-7-2.98,2.28,14.57,1.59,15.83.6,16.08-1.27.32-3.61-3.32-4.05-3.13-.47.21,3.68,8.92,2.26,9.82-.72.46-2.67-1.25-3.72-2.53-2.74-3.35-2.39-7.5-2.23-8.73Z"/>
    </g>
    <g>
      <path class="cls-2" d="M525.01,897.69v28.85c0,3.28,2.58,5.93,5.86,6.13,7.23.44,19,6.62,22.62,40.6.09.82,0,1.66-.24,2.46-1.92,6.26-10.04,35.38,4.78,35.24.41,0,.83.02,1.24.1,3.18.6,18.82,1.79,13.53-33.78,0,0-4.08-25.99,16.32-32.04,1.21-.36,2.51-.35,3.7.06,5.56,1.92,20.88,11.02,23.79,53.27.01.15.02.31.02.46v36c0,.85-.18,1.7-.52,2.48-2.67,6-13.93,33.73,5.61,34.08,0,0,21.49,1.15,9.74-31.13-.23-.63-.36-1.29-.38-1.96-.16-6.6-.77-43.2.81-45.17,15.65-19.43,19.4-47.46,31.14-49.63.32-.06.64-.12.95-.25,3.17-1.27,24.6-6.91,29.34,70.02,0,.13.01.26.01.4v25.73c0,1.17-.33,2.32-.95,3.31-4.09,6.43-18.86,32.12,4.8,34.12.36.03.71.03,1.07,0,3.65-.32,22.04-3.32,11.08-31.18-.23-.57-.37-1.18-.42-1.79-.48-6.34-2.7-31.72.46-47.21,0,0,2.05-13.34,12.49-23.25.81-.77-1.05,1.04,8.47-9.47,5.47-6.04,11.93-28.29,27.57-23.63,0,0,21.52,2.74,23.87,72.78v42.19c0,1.05-.27,2.07-.78,2.99-3.28,5.92-14.92,29.62,4.76,35.71,1.3.4,2.7.34,3.96-.14,5.24-2.02,17.84-9.51,7.09-32.99-.36-.79-.57-1.63-.58-2.49-.15-9.33,1.09-64.85,4.3-74.69,3.56-10.94-.39.81,3.88-11.88,2.67-7.92,4.62-40.4,30.05-44.19,1.8-.27,3.14.48,4.19.87,11.27,4.18,9.85,19.46,21.64,44.58,3.3,7.03,4.09,7.28,8.58,16.93,5.25,11.29,7.1,15.95,9.62,20.86,2.85,5.54,3.55,6.19,4.63,10.52,5.19,20.73-4.41,31.34,2.96,37.87,5.07,4.49,14.84,3.98,19.57-.39,4.87-4.51,4.23-12.9,3.52-19.96-1.67-16.59-6.16-18.09-3.91-23.87,3.29-8.46,14.26-8.71,14.48-15.68.13-4.1-3.62-6.02-2.95-10.96.3-2.24,1.5-4.67,4.29-7.37,0,0,5.48-4.7,8.61-16.04,0,0,4.92-19.29,24.41-9.16.75.39,1.56.65,2.41.71,5.22.39,23.68-.31,29.46-28.77.04-.22.08-.44.1-.66.25-2.54,2.15-19.89,8.53-24.72,2.19-1.66,3-4.59,1.98-7.14h0c-.93-2.33-3.19-3.87-5.7-3.87h-459.7c-3.39,0-6.14,2.75-6.14,6.14Z"/>
      <path class="cls-3" d="M935.31,907.92c-7.94,23.82,9.13,25.01,9.13,25.01,0,0,15.88-2.38,15.48-18.26-7.32,5.37-9.23,6.09-9.58,5.71-.75-.84,6.74-6.06,7-13.79.21-6.44-1.05-5.73-6.1-11.81-1.01.31-.13,3.64-1.79,4.61-1.52.9-4.26-.74-7-2.98,2.28,14.57,1.59,15.83.6,16.08-1.27.32-3.61-3.32-4.05-3.13-.47.21,3.68,8.92,2.26,9.82-.72.46-2.67-1.25-3.72-2.53-2.74-3.35-2.39-7.5-2.23-8.73Z"/>
      <path class="cls-4" d="M952.87,927.96c.7-.97,1.44-2.15,1.13-2.48-.51-.56-3.15,2.21-5.15,1.44-2.17-.83-2.02-5.2-2.98-5.21-1.07,0-1.41,5.39-2.98,5.55-1.41.15-2.87-4.02-3.57-3.77-.4.15.08,1.47-.6,2.83-.53,1.07-1.53,1.68-2.39,2.04.43.55.92,1.17,1.6,1.68,1.23.94,3.34,2.08,6.81,2.87,1.38-.27,5.42-1.25,8.12-4.96Z"/>
      <path class="cls-1" d="M935.31,907.92c-7.94,23.82,9.13,25.01,9.13,25.01,0,0,15.88-2.38,15.48-18.26-7.32,5.37-9.23,6.09-9.58,5.71-.75-.84,6.74-6.06,7-13.79.21-6.44-1.05-5.73-6.1-11.81-1.01.31-.13,3.64-1.79,4.61-1.52.9-4.26-.74-7-2.98,2.28,14.57,1.59,15.83.6,16.08-1.27.32-3.61-3.32-4.05-3.13-.47.21,3.68,8.92,2.26,9.82-.72.46-2.67-1.25-3.72-2.53-2.74-3.35-2.39-7.5-2.23-8.73Z"/>
    </g>
  </g>
  <g id="lumière" class="cls-6">
    <g>
      <ellipse class="cls-5" cx="901.11" cy="1052.16" rx="5.1" ry="7.49"/>
      <path class="cls-5" d="M994.06,897.95s-12.85,2.28-22.88,40.33c0,0,1.54,6.09-31.61,6.09-2.1.3-4.94.97-8,2.5-5.65,2.84-8.82,7.04-10.25,9.26-.57.77-1.13,1.6-1.67,2.47-2.94,4.73-4.47,9.44-5.27,13.41,0,0-1.54,15.98-13.37,6.85,0,0-2.31-.7,0,8.15.62,1.85,1.49,5.46.23,9.49-.31,1-.71,1.87-1.13,2.63-.63,1.71-1.95,5.89-.17,7.58,2.08,1.97,8.07.26,14.69-5.01.51-1.05,1.02-2.58.64-4.22-.31-1.35-1.11-2.2-1.32-2.46-1.19-1.46-1.31-5.24,3.25-15.39,0,0,16.71-29.42,18.76-29.42s7.37-6,20.82-1.52c0,0,20.56,5.65,22.62-14.04,0,0,6.94-32.38,14.65-36.69Z"/>
      <path class="cls-5" d="M577.96,949.72c.89-1.07,1.16-2.26.72-2.8-.56-.69-2.17-.23-3.13.39-.99.64-1.45,1.57-1.6,1.88-1.77,3.75-8.69,25.26-6.51,25.84.2.05.56-.04,1.26-1.04.42-3.26.98-5.95,1.43-7.89,1.03-4.36,1.54-6.54,2.82-8.61.73-1.18,1.4-1.94,3.18-4.76.79-1.25,1.42-2.3,1.83-3Z"/>
      <path class="cls-5" d="M660.92,940.32c-.58-.3-1.45-.64-2.45-.49-3.04.45-4.65,5.06-5.1,6.24-1.57,4.1-6.13,11.39-18.78,25.43,0,0-.77,1.89-1.91,4.14-1.77,3.51-3.66,5.75-4.07,6.29-3.14,4.13-2.16,10.1-3.78,23.33-1.37,11.15-3.29,16.86.49,22.3.45.65.88,1.15,1.17,1.47.48.47,1.17,1.01,1.7.82,1.52-.54.25-6.34-.24-15.1-.38-6.92-.62-11.93.98-17.61,1.24-4.4,3.16-7.74,4.6-9.87.56-.41,1.42-1.12,2.25-2.16,2.36-2.98,2.63-6.37,2.74-7.34.66-6.02,5.45-13.48,11.74-23.28,2.47-3.85,5.95-8.79,10.66-14.18Z"/>
      <path class="cls-5" d="M702.84,1036.42c.47.16,1.15.29,1.76,0,2.78-1.31.67-9.69,0-17.71-.32-3.78-1.08-16.68,3.44-28.2,1.67-4.25,5.14-11.06,12.9-17.95,5.16-5.02,8.17-9.72,9.98-13.14,2.1-3.98,3.06-7.15,6.34-11.14,2.61-3.17,5.37-5.25,7.3-6.52,1.17-1.21,2.34-2.42,3.51-3.64h0c-.74-.11-1.47-.15-2.18-.13-13.29.33-22.33,21.13-24.42,26.22,0,0-17.8,18.92-19.21,29.68-.97,5.04-1.73,10.98-1.87,17.67-.2,9.82,1.01,18.28,2.46,24.86Z"/>
      <path class="cls-5" d="M817.05,932.93c-.73.44-2.29,1.39-4.14,2.76,0,0-38.37,28.26-21.08,110.87.08.4.32,1.54.66,1.54.3,0,.61-.88.94-2.66.9-9.53,1.29-17.31,1.48-22.55.64-17.77,1.54-34.74,3.91-42.78.3-1.03.68-2.23,3.38-11.15,3.64-12.05,3.91-13.03,4.45-14.67,1.71-5.19,4.73-12.58,10.4-21.36Z"/>
      <ellipse class="cls-5" cx="791.22" cy="1081.49" rx="2.2" ry="3.57"/>
      <ellipse class="cls-5" cx="788.17" cy="1067.71" rx="2.64" ry="3.88"/>
      <ellipse class="cls-5" cx="702.64" cy="1063.8" rx="1.96" ry="2.58"/>
      <ellipse class="cls-5" cx="699.84" cy="1051.08" rx="2.41" ry="4.01"/>
      <ellipse class="cls-5" cx="626.06" cy="1058.87" rx="2.54" ry="3.82"/>
      <ellipse class="cls-5" cx="623.96" cy="1046.6" rx="1.81" ry="3.86"/>
      <ellipse class="cls-5" cx="566.48" cy="997.28" rx="2.15" ry="3.39"/>
      <ellipse class="cls-5" cx="563.79" cy="982.81" rx="2.89" ry="4.55"/>
    </g>
    <g>
      <ellipse class="cls-5" cx="901.11" cy="1052.16" rx="5.1" ry="7.49"/>
      <path class="cls-5" d="M994.06,897.95s-12.85,2.28-22.88,40.33c0,0,1.54,6.09-31.61,6.09-2.1.3-4.94.97-8,2.5-5.65,2.84-8.82,7.04-10.25,9.26-.57.77-1.13,1.6-1.67,2.47-2.94,4.73-4.47,9.44-5.27,13.41,0,0-1.54,15.98-13.37,6.85,0,0-2.31-.7,0,8.15.62,1.85,1.49,5.46.23,9.49-.31,1-.71,1.87-1.13,2.63-.63,1.71-1.95,5.89-.17,7.58,2.08,1.97,8.07.26,14.69-5.01.51-1.05,1.02-2.58.64-4.22-.31-1.35-1.11-2.2-1.32-2.46-1.19-1.46-1.31-5.24,3.25-15.39,0,0,16.71-29.42,18.76-29.42s7.37-6,20.82-1.52c0,0,20.56,5.65,22.62-14.04,0,0,6.94-32.38,14.65-36.69Z"/>
      <path class="cls-5" d="M577.96,949.72c.89-1.07,1.16-2.26.72-2.8-.56-.69-2.17-.23-3.13.39-.99.64-1.45,1.57-1.6,1.88-1.77,3.75-8.69,25.26-6.51,25.84.2.05.56-.04,1.26-1.04.42-3.26.98-5.95,1.43-7.89,1.03-4.36,1.54-6.54,2.82-8.61.73-1.18,1.4-1.94,3.18-4.76.79-1.25,1.42-2.3,1.83-3Z"/>
      <path class="cls-5" d="M660.92,940.32c-.58-.3-1.45-.64-2.45-.49-3.04.45-4.65,5.06-5.1,6.24-1.57,4.1-6.13,11.39-18.78,25.43,0,0-.77,1.89-1.91,4.14-1.77,3.51-3.66,5.75-4.07,6.29-3.14,4.13-2.16,10.1-3.78,23.33-1.37,11.15-3.29,16.86.49,22.3.45.65.88,1.15,1.17,1.47.48.47,1.17,1.01,1.7.82,1.52-.54.25-6.34-.24-15.1-.38-6.92-.62-11.93.98-17.61,1.24-4.4,3.16-7.74,4.6-9.87.56-.41,1.42-1.12,2.25-2.16,2.36-2.98,2.63-6.37,2.74-7.34.66-6.02,5.45-13.48,11.74-23.28,2.47-3.85,5.95-8.79,10.66-14.18Z"/>
      <path class="cls-5" d="M702.84,1036.42c.47.16,1.15.29,1.76,0,2.78-1.31.67-9.69,0-17.71-.32-3.78-1.08-16.68,3.44-28.2,1.67-4.25,5.14-11.06,12.9-17.95,5.16-5.02,8.17-9.72,9.98-13.14,2.1-3.98,3.06-7.15,6.34-11.14,2.61-3.17,5.37-5.25,7.3-6.52,1.17-1.21,2.34-2.42,3.51-3.64h0c-.74-.11-1.47-.15-2.18-.13-13.29.33-22.33,21.13-24.42,26.22,0,0-17.8,18.92-19.21,29.68-.97,5.04-1.73,10.98-1.87,17.67-.2,9.82,1.01,18.28,2.46,24.86Z"/>
      <path class="cls-5" d="M817.05,932.93c-.73.44-2.29,1.39-4.14,2.76,0,0-38.37,28.26-21.08,110.87.08.4.32,1.54.66,1.54.3,0,.61-.88.94-2.66.9-9.53,1.29-17.31,1.48-22.55.64-17.77,1.54-34.74,3.91-42.78.3-1.03.68-2.23,3.38-11.15,3.64-12.05,3.91-13.03,4.45-14.67,1.71-5.19,4.73-12.58,10.4-21.36Z"/>
      <ellipse class="cls-5" cx="791.22" cy="1081.49" rx="2.2" ry="3.57"/>
      <ellipse class="cls-5" cx="788.17" cy="1067.71" rx="2.64" ry="3.88"/>
      <ellipse class="cls-5" cx="702.64" cy="1063.8" rx="1.96" ry="2.58"/>
      <ellipse class="cls-5" cx="699.84" cy="1051.08" rx="2.41" ry="4.01"/>
      <ellipse class="cls-5" cx="626.06" cy="1058.87" rx="2.54" ry="3.82"/>
      <ellipse class="cls-5" cx="623.96" cy="1046.6" rx="1.81" ry="3.86"/>
      <ellipse class="cls-5" cx="566.48" cy="997.28" rx="2.15" ry="3.39"/>
      <ellipse class="cls-5" cx="563.79" cy="982.81" rx="2.89" ry="4.55"/>
    </g>
  </g>
</svg>