<?xml version="1.0" encoding="UTF-8"?>
<svg xmlns="http://www.w3.org/2000/svg" version="1.1" viewBox="0 0 600 500">
  <!-- Generator: Adobe Illustrator 30.1.0, SVG Export Plug-In . SVG Version: 2.1.1 Build 136)  -->
  <defs>
    <style>
      .st0 {
        opacity: .14;
      }

      .st1 {
        fill: #fc6;
      }

      .st1, .st2, .st3, .st4, .st5, .st6, .st7, .st8, .st9, .st10, .st11, .st12, .st13 {
        stroke-miterlimit: 10;
      }

      .st1, .st2, .st5, .st6, .st9, .st10, .st12, .st13 {
        stroke: #000;
      }

      .st1, .st2, .st5, .st7, .st10, .st12, .st13 {
        stroke-width: 3px;
      }

      .st3 {
        fill: #fff2bb;
        stroke: #fc6;
      }

      .st3, .st11 {
        stroke-width: .75px;
      }

      .st4, .st8 {
        fill: #930;
        stroke: #862000;
        stroke-width: 5px;
      }

      .st5 {
        fill: #7e2000;
      }

      .st6 {
        stroke-width: 2px;
      }

      .st6, .st12 {
        fill: none;
      }

      .st7 {
        opacity: .39;
      }

      .st7, .st11 {
        fill: #fff;
        stroke: #fff;
      }

      .st8 {
        opacity: .8;
      }

      .st14 {
        opacity: .15;
      }

      .st9 {
        fill: #ffa410;
      }

      .st10 {
        fill: #ffe3b2;
      }

      .st15 {
        display: none;
      }

      .st11 {
        opacity: .29;
      }

      .st13 {
        fill: #ffe399;
      }
    </style>
  </defs>
  <g id="donuts" class="st15">
    <path class="st13" d="M307.11,42.24C139.62,46.67,3.73,114.74,3.73,253.07c0,118.66,101.12,210.83,303.38,210.83,84.67,0,151.58-12.28,200.8-36.87-1.36-3.68-2.15-7.59-2.33-11.53-3.86-4.69-6.04-10.54-6.42-17.26-2.15-1.07-4.63-2.61-7.6-4.8-10.96-8.11-10.72-28.07-6.6-36.25h0s0,0,0,0c-36.89-21.96-10.29-63.82-10.29-63.82-26.22-51.44,26.51-69.31,26.51-69.31-.01-5.77.9-16.19,7.67-25.78,10.98-15.56,32.78-22.43,55.17-17.4,2.15-2.19,6.01-5.57,11.74-8.01,5.51-2.35,10.43-2.84,13.46-2.92-43.49-79.47-149.72-131.18-282.08-127.68ZM307.11,252.98c-44.85,0-81.22-11.72-81.22-26.18s36.37-26.18,81.22-26.18,81.22,11.72,81.22,26.18-36.37,26.18-81.22,26.18Z"/>
    <path class="st4" d="M589.67,170.5"/>
    <path class="st10" d="M589.67,170.5s31.3,159.28-39.93,171.15c-3.4,3.22-9.52,8.2-18.48,11.61-9.3,3.53-17.48,3.77-22.21,3.56-.79-.75-10.68,11.08-24.12.64-.13-.1-.07-.33-.22-.41-3-1.75-33.54-20.9-9.63-63.11,2.18-3.85-30.36-45.47,26.51-69.31,0,0-.12-53.39,62.4-43.77,0,0,12.59-12.14,25.68-10.35Z"/>
    <path class="st3" d="M484.45,357.22s0,0,0,0h0c-18.27-10.87-20.97-26.62-19.04-39.76-45.03,13.19-98.42,22.29-158.57,20.76-157.4-3.99-265.11-78.29-300.88-105.38-.72,11.28-.92,23.72-.25,37.14.42,8.46,1.15,16.46,2.08,23.97,38.31,26.71,146.13,94.38,299.98,95.69,67.97.58,127.11-11.95,175.19-28.26.41-1.58.91-2.99,1.5-4.16Z"/>
    <path class="st12" d="M306.63,41.06C139.14,45.49,3.25,113.56,3.25,251.89c0,118.66,101.12,210.83,303.38,210.83,84.71,0,151.62-12.3,200.85-36.91-1.1-3.31-1.73-6.8-1.89-10.3-3.79-4.61-5.96-10.32-6.4-16.89-2.06-1.06-4.42-2.54-7.21-4.6-10.96-8.11-10.72-28.07-6.6-36.25,0,0,0,0,0,0h0c-36.89-21.96-10.29-63.82-10.29-63.82-26.22-51.44,26.51-69.31,26.51-69.31,0-5.78.94-16.16,7.67-25.78,10.91-15.59,32.47-22.62,54.73-17.99,2.5-2.18,6.55-5.2,12.2-7.44,5.42-2.15,10.24-2.76,13.49-2.92-42.88-80.46-149.71-132.96-283.05-129.44ZM306.63,251.81c-44.85,0-81.22-11.72-81.22-26.18s36.37-26.18,81.22-26.18,81.22,11.72,81.22,26.18-36.37,26.18-81.22,26.18Z"/>
    <path class="st14" d="M589.19,169.93l4.1,24.37c-1.19-.76-5.81-3.51-11.97-2.59-7.38,1.11-11.24,6.63-11.87,7.56-3.53-1.7-16.57-7.48-31.91-2.94-23.92,7.08-30.58,32.51-30.88,33.76-3.64,2.04-15.97,9.54-22.21,25.33-6.98,17.69-1.37,33.23,0,36.74,0,0-23.27,49.49,0,54.78l.26,10.11s-34.01-20.22-10.06-63.69c0,0-28.11-47.58,26.51-69.31,0,0-.54-53.11,62.83-43.18,0,0,11.05-12.08,25.2-10.93Z"/>
    <g>
      <path class="st1" d="M310.26,252.96c-1.2.01-2.41.02-3.63.02,1.22,0,2.42,0,3.63-.02Z"/>
      <path class="st1" d="M306.63,148.28c-62.43,0-113.04,23.44-113.04,52.35,0,23.07,32.21,42.65,76.93,49.63-26.73-4.28-45.12-13.18-45.12-23.45,0-14.45,36.37-26.18,81.22-26.18s81.22,11.72,81.22,26.18c0,10.27-18.38,19.17-45.12,23.45,44.72-6.98,76.93-26.56,76.93-49.63,0-28.92-50.6-52.35-113.04-52.35h0Z"/>
      <path class="st1" d="M299.57,252.89c.71.02,1.42.04,2.13.05-.72-.01-1.42-.04-2.13-.05Z"/>
      <path class="st1" d="M313.7,252.89c-.71.02-1.42.04-2.13.05.72-.01,1.42-.04,2.13-.05Z"/>
      <path class="st1" d="M306.63,252.99c-1.22,0-2.42-.01-3.63-.02,1.2.01,2.42.02,3.63.02Z"/>
    </g>
    <g class="st0">
      <path class="st2" d="M310.74,252.96c-1.2.01-2.41.02-3.63.02,1.22,0,2.42,0,3.63-.02Z"/>
      <path class="st2" d="M307.11,148.28c-62.43,0-113.04,23.44-113.04,52.35,0,23.07,32.21,42.65,76.93,49.63-26.73-4.28-45.12-13.18-45.12-23.45,0-14.45,36.37-26.18,81.22-26.18s81.22,11.72,81.22,26.18c0,10.27-18.38,19.17-45.12,23.45,44.72-6.98,76.93-26.56,76.93-49.63,0-28.92-50.6-52.35-113.04-52.35h0Z"/>
      <path class="st2" d="M300.05,252.89c.71.02,1.42.04,2.13.05-.72-.01-1.42-.04-2.13-.05Z"/>
      <path class="st2" d="M314.18,252.89c-.71.02-1.42.04-2.13.05.72-.01,1.42-.04,2.13-.05Z"/>
      <path class="st2" d="M307.11,252.99c-1.22,0-2.42-.01-3.63-.02,1.2.01,2.42.02,3.63.02Z"/>
    </g>
  </g>
  <g id="fourrage" class="st15">
    <path class="st8" d="M537.06,235.42s42.79-7.67,34.43,34.43c0,0,9.64,23.51-12.42,26.47,0,0-4.12,12.96-22.01,7.95,0,0-43.01,2.85-34.43-27.15,0,0-4.89-31.34,10.79-32.29,0,0,7.07-18.67,23.64-9.41Z"/>
  </g>
  <g id="glaçage" class="st15">
    <path class="st5" d="M312.06,34.35S17,32.8,3.25,215.43c0,0-.86,2.63,3.08,5.56,0,0,208.11,162.05,463.28,82.73l5.04-10.36s-26.11-48.78,26.51-69.31c0,0,1.09-55,62.83-43.18,0,0,10.32-10.46,25.2-10.93l4.1-.08s-44.57-136.28-281.24-135.5ZM307.11,252.99c-112.79-2.37-113.52-52.37-113.52-52.37,7.4-52.41,113.04-52.34,113.04-52.34,108.82,1.26,113.04,52.34,113.04,52.34-7.2,52.83-112.55,52.37-112.55,52.37Z"/>
    <ellipse class="st7" cx="470.86" cy="111.08" rx="39.68" ry="21.67"/>
  </g>
  <g id="toppings">
    <g>
      <path class="st9" d="M92.73,182.29s-12.7-10.92-16.18-16.46c0,0-8.87-6.58-13.01-.63,0,0-25.34,23.02,8.29,51.85,0,0,22.7,17.41,45.69,3.12,0,0,23.18-19.05,8.65-29.99,0,0-3.38-2.76-4.72-2.2,0,0-9.55-1.89-13.22-.92,0,0-10.79-.56-15.5-4.78Z"/>
      <path class="st11" d="M77.31,166.93s-.8,5.29,3.83,7.8c0,0,6.14,7.86-6.78,7.88,0,0-1.56.72,2.14,1.83,0,0-1.85,2.26-1.3,3.29,0,0,2.57.88,6.42-2.23s.26.23.26.23c0,0,2.01,1.94-4.22,5.08l-.32-.05s1.06,5.79,7.85-.88-.08.56-.08.56c0,0-6.6,17.52,1.55,1.11,0,0-3.83,17.38,2.37,1.45.07-.19.15-.37.22-.57,0,0-.16,15.49-1.84,16.57,0,0,2.2-12.34,4.93-14.66,0,0,.63.27-.57,4.29-.03.12-.07.23-.11.36-1.34,4.36,5.96-5.84,5.96-5.84,0,0,2.84,14.85-.33,17.93,0,0,2.76-.23,5.29-17.21,0,0,11.53,9.97,8.77,15.01,0,0,9.41,1.05-5.97-16.38,0,0,3.34-1.22,6.44,5.37,0,0,1.88-2.07,2.47.42,0,0,1.66,2.91,1.49,4.44-.02.22-.09.41-.19.56-.87,1.2,5.7-2.18-1.22-10.35,0,0,.14-4.87,5.62,7.95,0,0-.82-3.92.3-4.26l1.18,4.1s-.38-5.25,1.2-5.21c0,0,1.15-6.47,3.99-4.95,0,0-2.65-2.42-4.4-2.62,0,0-11.19-1.48-14.69-.93,0,0-11.42-.8-15.37-5.17,0,0-14.21-12.57-14.91-14.92Z"/>
      <path class="st6" d="M92.73,182.29s-12.7-10.92-16.18-16.46c0,0-8.87-6.58-13.01-.63,0,0-25.34,23.02,8.29,51.85,0,0,22.7,17.41,45.69,3.12,0,0,23.18-19.05,8.65-29.99,0,0-3.38-2.76-4.72-2.2,0,0-9.55-1.89-13.22-.92,0,0-10.79-.56-15.5-4.78Z"/>
    </g>
    <g>
      <path class="st9" d="M134.09,116.92s-16.75.01-23-1.92c0,0-11.02.8-10.27,8.01,0,0-4.19,33.98,40.11,33.89,0,0,28.56-1.61,36.67-27.44,0,0,5.14-29.56-13.01-28.37,0,0-4.36.11-5.01,1.41,0,0-8.47,4.8-10.62,7.93,0,0-8.55,6.61-14.86,6.49Z"/>
      <path class="st11" d="M112.38,115.33s2.85,4.53,8,3.41c0,0,9.78,1.95,0,10.39,0,0-.71,1.57,2.82,0,0,0,.08,2.92,1.16,3.34,0,0,2.52-1.01,3.41-5.88s.35,0,.35,0c0,0,2.79.16.12,6.6l-.27.17s4.58,3.7,5.37-5.79.3.48.3.48c0,0,6.43,17.59,1.9-.17,0,0,8.44,15.67,2.75-.45-.07-.19-.13-.38-.2-.58,0,0,9.98,11.84,9.41,13.76,0,0-6.38-10.79-5.83-14.33,0,0,.66-.21,2.37,3.62.05.11.1.22.15.34,1.83,4.18.71-8.32.71-8.32,0,0,11.84,9.4,11.45,13.8,0,0,1.94-1.97-7.22-16.49,0,0,15.24.04,16.44,5.66,0,0,7.81-5.34-15.21-8.52,0,0,1.74-3.11,8.38-.13,0,0,.08-2.8,2.15-1.29,0,0,3.16,1.12,4.03,2.39.12.18.2.37.22.55.12,1.48,2.9-5.37-7.67-7.05,0,0-3.07-3.78,9.45,2.36,0,0-3.18-2.43-2.55-3.43l3.56,2.34s-3.71-3.73-2.49-4.73c0,0-3.35-5.65-.21-6.36,0,0-3.59-.1-5.05.88,0,0-9.45,6.18-11.74,8.87,0,0-9.18,6.84-15.02,6.1,0,0-18.97-.25-21.03-1.58Z"/>
      <path class="st6" d="M134.09,116.92s-16.75.01-23-1.92c0,0-11.02.8-10.27,8.01,0,0-4.19,33.98,40.11,33.89,0,0,28.56-1.61,36.67-27.44,0,0,5.14-29.56-13.01-28.37,0,0-4.36.11-5.01,1.41,0,0-8.47,4.8-10.62,7.93,0,0-8.55,6.61-14.86,6.49Z"/>
    </g>
    <g>
      <path class="st9" d="M233.36,84.46s-16.05-4.8-21.48-8.45c0,0-10.78-2.4-12.14,4.72,0,0-13.77,31.34,28.69,43.98,0,0,27.82,6.66,43-15.75,0,0,13.42-26.84-4.31-30.91,0,0-4.21-1.14-5.21-.09,0,0-9.49,2.16-12.45,4.55,0,0-10.09,3.88-16.1,1.95Z"/>
      <path class="st11" d="M213.02,76.71s1.42,5.16,6.68,5.57c0,0,8.8,4.68-2.99,9.95,0,0-1.13,1.3,2.7.8,0,0-.77,2.82.15,3.54,0,0,2.7-.24,4.96-4.65s.33.1.33.1c0,0,2.62.95-1.78,6.36l-.31.09s3.32,4.86,6.81-4,.15.54.15.54c0,0,1.11,18.69,1.87.39,0,0,3.58,17.43,2.76.36,0-.2-.02-.4-.03-.61,0,0,6.16,14.21,5.07,15.88,0,0-3.01-12.17-1.47-15.4,0,0,.69,0,1.23,4.15.02.12.03.24.05.37.55,4.53,3.07-7.76,3.07-7.76,0,0,8.64,12.4,7,16.51,0,0,2.42-1.33-2.18-17.87,0,0,14.59,4.41,14.12,10.14,0,0,9.02-2.87-12.12-12.53,0,0,2.56-2.48,8.06,2.28,0,0,.88-2.66,2.43-.62,0,0,2.7,1.98,3.17,3.45.07.21.09.41.05.59-.31,1.45,4.32-4.31-5.33-8.96,0,0-1.86-4.51,8.37,4.98,0,0-2.35-3.24-1.46-4.01l2.74,3.26s-2.48-4.64-1.02-5.24c0,0-1.58-6.38,1.63-6.15,0,0-3.41-1.13-5.09-.6,0,0-10.82,3.21-13.79,5.13,0,0-10.76,3.92-16.14,1.53,0,0-18.09-5.69-19.69-7.55Z"/>
      <path class="st6" d="M233.36,84.46s-16.05-4.8-21.48-8.45c0,0-10.78-2.4-12.14,4.72,0,0-13.77,31.34,28.69,43.98,0,0,27.82,6.66,43-15.75,0,0,13.42-26.84-4.31-30.91,0,0-4.21-1.14-5.21-.09,0,0-9.49,2.16-12.45,4.55,0,0-10.09,3.88-16.1,1.95Z"/>
    </g>
    <g>
      <path class="st9" d="M180.79,244.19s-10.47-13.07-12.87-19.17c0,0-7.5-8.1-12.67-3.02,0,0-29.15,17.95-1.41,52.49,0,0,19.1,21.3,44.33,11.49,0,0,26.3-14.45,14.03-27.88,0,0-2.81-3.33-4.23-3.03,0,0-9.04-3.62-12.83-3.34,0,0-10.5-2.54-14.35-7.55Z"/>
      <path class="st11" d="M168.47,226.25s-1.76,5.05,2.33,8.38c0,0,4.58,8.85-8.12,6.49,0,0-1.67.42,1.76,2.19,0,0-2.23,1.88-1.89,3,0,0,2.36,1.34,6.72-1.01s.22.27.22.27c0,0,1.62,2.28-5.08,4.22l-.3-.1s-.03,5.88,7.88.58-.18.53-.18.53c0,0-9.72,16.01,1.32,1.38,0,0-6.97,16.38,2.06,1.87.11-.17.21-.34.32-.52,0,0-3.02,15.19-4.87,15.95,0,0,4.44-11.72,7.55-13.5,0,0,.57.38-1.35,4.11-.06.11-.11.22-.17.33-2.13,4.04,6.94-4.64,6.94-4.64,0,0,.05,15.12-3.63,17.56,0,0,2.75.28,8.37-15.94,0,0,9.49,11.92,5.85,16.37,0,0,9.05,2.77-2.85-17.2,0,0,3.51-.59,5.34,6.46,0,0,2.23-1.69,2.35.87,0,0,1.1,3.16.65,4.64-.06.21-.16.39-.29.51-1.08,1.02,6-1.09.71-10.4,0,0,1.03-4.76,4.05,8.85,0,0-.09-4,1.08-4.13l.4,4.24s.6-5.22,2.14-4.9c0,0,2.32-6.15,4.84-4.13,0,0-2.16-2.86-3.84-3.39,0,0-10.73-3.52-14.26-3.62,0,0-11.08-2.9-14.15-7.92,0,0-11.65-14.97-11.9-17.41Z"/>
      <path class="st6" d="M180.79,244.19s-10.47-13.07-12.87-19.17c0,0-7.5-8.1-12.67-3.02,0,0-29.15,17.95-1.41,52.49,0,0,19.1,21.3,44.33,11.49,0,0,26.3-14.45,14.03-27.88,0,0-2.81-3.33-4.23-3.03,0,0-9.04-3.62-12.83-3.34,0,0-10.5-2.54-14.35-7.55Z"/>
    </g>
    <g>
      <path class="st9" d="M280.56,273.02s-14.95-7.55-19.66-12.1c0,0-10.19-4.26-12.78,2.51,0,0-19.07,28.43,20.5,48.34,0,0,26.22,11.45,45.1-7.94,0,0,17.93-24.06,1.19-31.19,0,0-3.94-1.87-5.11-1,0,0-9.73.46-13.05,2.29,0,0-10.61,2.05-16.19-.91Z"/>
      <path class="st11" d="M261.9,261.81s.49,5.33,5.6,6.65c0,0,7.84,6.15-4.69,9.27,0,0-1.34,1.08,2.52,1.26,0,0-1.25,2.64-.47,3.51,0,0,2.7.24,5.7-3.71s.31.16.31.16c0,0,2.42,1.4-2.87,5.95l-.32.03s2.42,5.36,7.41-2.74c4.99-8.11.06.56.06.56,0,0-2.2,18.6,1.77.71,0,0,.46,17.79,2.65.84.03-.2.05-.4.08-.61,0,0,3.56,15.07,2.19,16.53,0,0-.83-12.51,1.27-15.42,0,0,.68.11.48,4.3,0,.12-.01.24-.02.37-.26,4.56,4.39-7.1,4.39-7.1,0,0,6.32,13.73,3.99,17.48,0,0,2.62-.89,1-17.98,0,0,13.58,6.91,12.12,12.47,0,0,9.38-1.24-9.73-14.46,0,0,2.95-1.99,7.54,3.66,0,0,1.33-2.46,2.5-.18,0,0,2.31,2.42,2.52,3.95.03.22.02.42-.05.59-.56,1.38,5.01-3.48-3.67-9.76,0,0-1.03-4.76,7.36,6.37,0,0-1.74-3.61-.73-4.21l2.13,3.69s-1.63-5-.08-5.34c0,0-.44-6.56,2.68-5.77,0,0-3.16-1.71-4.9-1.49,0,0-11.22,1.25-14.48,2.62,0,0-11.28,1.96-16.16-1.33,0,0-16.81-8.79-18.06-10.9Z"/>
      <path class="st6" d="M280.56,273.02s-14.95-7.55-19.66-12.1c0,0-10.19-4.26-12.78,2.51,0,0-19.07,28.43,20.5,48.34,0,0,26.22,11.45,45.1-7.94,0,0,17.93-24.06,1.19-31.19,0,0-3.94-1.87-5.11-1,0,0-9.73.46-13.05,2.29,0,0-10.61,2.05-16.19-.91Z"/>
    </g>
    <g>
      <path class="st9" d="M333.42,87.01s-10.37-13.16-12.71-19.27c0,0-7.44-8.16-12.65-3.12,0,0-29.3,17.72-1.83,52.48,0,0,18.93,21.45,44.24,11.85,0,0,26.41-14.24,14.25-27.76,0,0-2.78-3.36-4.21-3.07,0,0-9.01-3.7-12.8-3.44,0,0-10.48-2.63-14.29-7.67Z"/>
      <path class="st11" d="M321.24,68.97s-1.8,5.04,2.26,8.4c0,0,4.51,8.89-8.17,6.43,0,0-1.67.41,1.75,2.21,0,0-2.25,1.87-1.91,2.98,0,0,2.35,1.36,6.73-.95s.22.27.22.27c0,0,1.6,2.29-5.11,4.18l-.3-.11s-.08,5.88,7.87.64-.19.53-.19.53c0,0-9.85,15.93,1.3,1.39,0,0-7.1,16.32,2.05,1.88.11-.17.21-.34.33-.52,0,0-3.14,15.16-4.99,15.91,0,0,4.53-11.69,7.66-13.44,0,0,.57.39-1.38,4.1-.06.11-.11.22-.17.33-2.16,4.02,6.98-4.59,6.98-4.59,0,0-.07,15.12-3.77,17.53,0,0,2.75.3,8.5-15.87,0,0,9.39,12,5.72,16.42,0,0,9.03,2.84-2.71-17.22,0,0,3.52-.56,5.28,6.5,0,0,2.25-1.67,2.34.89,0,0,1.07,3.17.61,4.64-.07.21-.16.39-.3.51-1.09,1.01,6.01-1.04.8-10.39,0,0,1.07-4.75,3.98,8.88,0,0-.05-4,1.12-4.12l.37,4.25s.64-5.22,2.18-4.88c0,0,2.37-6.13,4.87-4.09,0,0-2.14-2.88-3.82-3.42,0,0-10.7-3.6-14.23-3.74,0,0-11.05-2.99-14.08-8.03,0,0-11.53-15.06-11.76-17.51Z"/>
      <path class="st6" d="M333.42,87.01s-10.37-13.16-12.71-19.27c0,0-7.44-8.16-12.65-3.12,0,0-29.3,17.72-1.83,52.48,0,0,18.93,21.45,44.24,11.85,0,0,26.41-14.24,14.25-27.76,0,0-2.78-3.36-4.21-3.07,0,0-9.01-3.7-12.8-3.44,0,0-10.48-2.63-14.29-7.67Z"/>
    </g>
    <g>
      <path class="st9" d="M457.2,157.96s-16.67-1.63-22.71-4.16c0,0-11.04-.28-11.01,6.96,0,0-7.49,33.41,36.61,37.65,0,0,28.58,1.19,39.17-23.72,0,0,8.01-28.92-10.17-29.5,0,0-4.35-.31-5.13.92,0,0-8.9,3.94-11.34,6.85,0,0-9.15,5.75-15.43,5.01Z"/>
      <path class="st11" d="M435.74,154.26s2.39,4.79,7.62,4.18c0,0,9.54,2.9-1.02,10.34,0,0-.86,1.49,2.8.27,0,0-.21,2.91.83,3.44,0,0,2.61-.76,3.97-5.52,1.36-4.76.35.03.35.03,0,0,2.76.43-.52,6.58l-.29.14s4.19,4.13,5.92-5.24.25.5.25.5c0,0,4.68,18.13,1.91.02,0,0,6.86,16.42,2.78-.18-.05-.19-.1-.39-.15-.59,0,0,8.77,12.76,8.02,14.62,0,0-5.29-11.36-4.4-14.83,0,0,.67-.14,2,3.84.04.11.08.23.12.35,1.41,4.34,1.52-8.21,1.52-8.21,0,0,10.86,10.51,10.04,14.86,0,0,2.12-1.77-5.57-17.12,0,0,15.16,1.53,15.81,7.24,0,0,8.3-4.55-14.31-9.96,0,0,2.03-2.92,8.35.69,0,0,.35-2.78,2.26-1.07,0,0,3.03,1.42,3.77,2.77.11.19.17.38.16.57-.02,1.48,3.41-5.06-6.95-7.77,0,0-2.69-4.06,9.17,3.28,0,0-2.93-2.73-2.2-3.66l3.32,2.67s-3.32-4.08-2.01-4.95c0,0-2.78-5.95.42-6.35,0,0-3.56-.45-5.11.39,0,0-10.01,5.23-12.55,7.68,0,0-9.81,5.91-15.54,4.61,0,0-18.85-2.11-20.78-3.63Z"/>
      <path class="st6" d="M457.2,157.96s-16.67-1.63-22.71-4.16c0,0-11.04-.28-11.01,6.96,0,0-7.49,33.41,36.61,37.65,0,0,28.58,1.19,39.17-23.72,0,0,8.01-28.92-10.17-29.5,0,0-4.35-.31-5.13.92,0,0-8.9,3.94-11.34,6.85,0,0-9.15,5.75-15.43,5.01Z"/>
    </g>
    <g>
      <path class="st9" d="M395.12,265.74s-16.59,2.33-23.05,1.28c0,0-10.8,2.31-9.07,9.35,0,0,.55,34.23,44.41,28.01,0,0,28.07-5.55,32.52-32.25,0,0,1-29.99-16.81-26.3,0,0-4.3.71-4.77,2.09,0,0-7.73,5.92-9.42,9.32,0,0-7.55,7.73-13.82,8.49Z"/>
      <path class="st11" d="M373.4,267.17s3.45,4.1,8.39,2.27c0,0,9.95.58,1.44,10.29,0,0-.49,1.65,2.79-.4,0,0,.48,2.88,1.61,3.15,0,0,2.36-1.35,2.56-6.29s.35-.05.35-.05c0,0,2.78-.23,1.03,6.52l-.24.21s5.04,3.03,4.52-6.48.37.43.37.43c0,0,8.8,16.53,1.86-.43,0,0,10.52,14.35,2.66-.82-.09-.18-.19-.36-.28-.54,0,0,11.52,10.35,11.23,12.33,0,0-7.81-9.8-7.75-13.39,0,0,.62-.3,2.85,3.26.06.1.13.21.2.32,2.39,3.89-.45-8.34-.45-8.34,0,0,13.02,7.67,13.25,12.09,0,0,1.65-2.22-9.43-15.34,0,0,15.1-2.07,17.06,3.33,0,0,7-6.37-16.24-6.33,0,0,1.29-3.32,8.28-1.29,0,0-.31-2.78,1.95-1.58,0,0,3.28.67,4.32,1.81.15.16.25.33.29.52.33,1.45,2.13-5.71-8.58-5.92,0,0-3.57-3.32,9.68,1.04,0,0-3.49-1.97-3-3.04l3.85,1.82s-4.19-3.18-3.12-4.34c0,0-4.1-5.14-1.08-6.27,0,0-3.57.4-4.88,1.57,0,0-8.5,7.43-10.4,10.41,0,0-8.15,8.05-14.03,8.12,0,0-18.82,2.37-21.05,1.35Z"/>
      <path class="st6" d="M395.12,265.74s-16.59,2.33-23.05,1.28c0,0-10.8,2.31-9.07,9.35,0,0,.55,34.23,44.41,28.01,0,0,28.07-5.55,32.52-32.25,0,0,1-29.99-16.81-26.3,0,0-4.3.71-4.77,2.09,0,0-7.73,5.92-9.42,9.32,0,0-7.55,7.73-13.82,8.49Z"/>
    </g>
    <g>
      <path class="st9" d="M400.16,60.77s-16.33-3.71-22-6.99c0,0-10.92-1.67-11.8,5.52,0,0-11.64,32.2,31.57,41.96,0,0,28.21,4.78,41.85-18.6,0,0,11.59-27.68-6.37-30.55,0,0-4.28-.86-5.2.26,0,0-9.33,2.79-12.12,5.37,0,0-9.8,4.55-15.94,3.03Z"/>
      <path class="st11" d="M379.35,54.4s1.77,5.05,7.04,5.11c0,0,9.1,4.08-2.31,10.13,0,0-1.04,1.37,2.75.62,0,0-.58,2.86.39,3.52,0,0,2.68-.42,4.63-4.97s.34.08.34.08c0,0,2.68.77-1.35,6.46l-.3.11s3.64,4.62,6.53-4.45c2.89-9.07.19.53.19.53,0,0,2.36,18.58,1.89.26,0,0,4.74,17.15,2.78.18-.02-.2-.05-.4-.07-.61,0,0,7.09,13.77,6.12,15.51,0,0-3.82-11.94-2.49-15.27,0,0,.69-.06,1.5,4.06.02.12.05.24.07.37.85,4.48,2.54-7.95,2.54-7.95,0,0,9.45,11.8,8.09,16,0,0,2.33-1.49-3.37-17.69,0,0,14.85,3.43,14.77,9.17,0,0,8.81-3.47-12.94-11.69,0,0,2.38-2.64,8.2,1.74,0,0,.7-2.71,2.38-.78,0,0,2.83,1.79,3.39,3.23.08.2.12.4.09.59-.21,1.47,4.02-4.59-5.91-8.58,0,0-2.15-4.37,8.68,4.41,0,0-2.56-3.08-1.72-3.91l2.95,3.07s-2.78-4.46-1.37-5.16c0,0-2.01-6.26,1.21-6.24,0,0-3.48-.89-5.12-.26,0,0-10.58,3.92-13.42,6.04,0,0-10.47,4.63-16,2.61,0,0-18.44-4.47-20.16-6.22Z"/>
      <path class="st6" d="M400.16,60.77s-16.33-3.71-22-6.99c0,0-10.92-1.67-11.8,5.52,0,0-11.64,32.2,31.57,41.96,0,0,28.21,4.78,41.85-18.6,0,0,11.59-27.68-6.37-30.55,0,0-4.28-.86-5.2.26,0,0-9.33,2.79-12.12,5.37,0,0-9.8,4.55-15.94,3.03Z"/>
    </g>
  </g>
</svg>