<?xml version="1.0" encoding="UTF-8"?>
<svg xmlns="http://www.w3.org/2000/svg" version="1.1" viewBox="0 0 600 500">
  <!-- Generator: Adobe Illustrator 30.1.0, SVG Export Plug-In . SVG Version: 2.1.1 Build 136)  -->
  <defs>
    <style>
      .st0 {
        opacity: .14;
      }

      .st1 {
        fill: #fc6;
      }

      .st1, .st2, .st3, .st4, .st5, .st6, .st7, .st8, .st9, .st10, .st11, .st12 {
        stroke-miterlimit: 10;
      }

      .st1, .st2, .st5, .st6, .st9, .st10, .st11, .st12 {
        stroke: #000;
      }

      .st1, .st2, .st5, .st7, .st9, .st10, .st12 {
        stroke-width: 3px;
      }

      .st3 {
        fill: #fff2bb;
        stroke: #fc6;
        stroke-width: .75px;
      }

      .st4, .st8 {
        fill: #930;
        stroke: #862000;
        stroke-width: 5px;
      }

      .st5 {
        fill: #7e2000;
      }

      .st6 {
        fill: #840;
      }

      .st7 {
        fill: #fff;
        opacity: .39;
        stroke: #fff;
      }

      .st8 {
        opacity: .8;
      }

      .st13 {
        opacity: .15;
      }

      .st9 {
        fill: #ffe3b2;
      }

      .st14 {
        display: none;
      }

      .st10 {
        fill: none;
      }

      .st11 {
        fill: #552f00;
      }

      .st12 {
        fill: #ffe399;
      }
    </style>
  </defs>
  <g id="donuts" class="st14">
    <path class="st12" d="M307.11,42.24C139.62,46.67,3.73,114.74,3.73,253.07c0,118.66,101.12,210.83,303.38,210.83,84.67,0,151.58-12.28,200.8-36.87-1.36-3.68-2.15-7.59-2.33-11.53-3.86-4.69-6.04-10.54-6.42-17.26-2.15-1.07-4.63-2.61-7.6-4.8-10.96-8.11-10.72-28.07-6.6-36.25h0s0,0,0,0c-36.89-21.96-10.29-63.82-10.29-63.82-26.22-51.44,26.51-69.31,26.51-69.31-.01-5.77.9-16.19,7.67-25.78,10.98-15.56,32.78-22.43,55.17-17.4,2.15-2.19,6.01-5.57,11.74-8.01,5.51-2.35,10.43-2.84,13.46-2.92-43.49-79.47-149.72-131.18-282.08-127.68ZM307.11,252.98c-44.85,0-81.22-11.72-81.22-26.18s36.37-26.18,81.22-26.18,81.22,11.72,81.22,26.18-36.37,26.18-81.22,26.18Z"/>
    <path class="st4" d="M589.67,170.5"/>
    <path class="st9" d="M589.67,170.5s31.3,159.28-39.93,171.15c-3.4,3.22-9.52,8.2-18.48,11.61-9.3,3.53-17.48,3.77-22.21,3.56-.79-.75-10.68,11.08-24.12.64-.13-.1-.07-.33-.22-.41-3-1.75-33.54-20.9-9.63-63.11,2.18-3.85-30.36-45.47,26.51-69.31,0,0-.12-53.39,62.4-43.77,0,0,12.59-12.14,25.68-10.35Z"/>
    <path class="st3" d="M484.45,357.22s0,0,0,0h0c-18.27-10.87-20.97-26.62-19.04-39.76-45.03,13.19-98.42,22.29-158.57,20.76-157.4-3.99-265.11-78.29-300.88-105.38-.72,11.28-.92,23.72-.25,37.14.42,8.46,1.15,16.46,2.08,23.97,38.31,26.71,146.13,94.38,299.98,95.69,67.97.58,127.11-11.95,175.19-28.26.41-1.58.91-2.99,1.5-4.16Z"/>
    <path class="st10" d="M306.63,41.06C139.14,45.49,3.25,113.56,3.25,251.89c0,118.66,101.12,210.83,303.38,210.83,84.71,0,151.62-12.3,200.85-36.91-1.1-3.31-1.73-6.8-1.89-10.3-3.79-4.61-5.96-10.32-6.4-16.89-2.06-1.06-4.42-2.54-7.21-4.6-10.96-8.11-10.72-28.07-6.6-36.25,0,0,0,0,0,0h0c-36.89-21.96-10.29-63.82-10.29-63.82-26.22-51.44,26.51-69.31,26.51-69.31,0-5.78.94-16.16,7.67-25.78,10.91-15.59,32.47-22.62,54.73-17.99,2.5-2.18,6.55-5.2,12.2-7.44,5.42-2.15,10.24-2.76,13.49-2.92-42.88-80.46-149.71-132.96-283.05-129.44ZM306.63,251.81c-44.85,0-81.22-11.72-81.22-26.18s36.37-26.18,81.22-26.18,81.22,11.72,81.22,26.18-36.37,26.18-81.22,26.18Z"/>
    <path class="st13" d="M589.19,169.93l4.1,24.37c-1.19-.76-5.81-3.51-11.97-2.59-7.38,1.11-11.24,6.63-11.87,7.56-3.53-1.7-16.57-7.48-31.91-2.94-23.92,7.08-30.58,32.51-30.88,33.76-3.64,2.04-15.97,9.54-22.21,25.33-6.98,17.69-1.37,33.23,0,36.74,0,0-23.27,49.49,0,54.78l.26,10.11s-34.01-20.22-10.06-63.69c0,0-28.11-47.58,26.51-69.31,0,0-.54-53.11,62.83-43.18,0,0,11.05-12.08,25.2-10.93Z"/>
    <g>
      <path class="st1" d="M310.26,252.96c-1.2.01-2.41.02-3.63.02,1.22,0,2.42,0,3.63-.02Z"/>
      <path class="st1" d="M306.63,148.28c-62.43,0-113.04,23.44-113.04,52.35,0,23.07,32.21,42.65,76.93,49.63-26.73-4.28-45.12-13.18-45.12-23.45,0-14.45,36.37-26.18,81.22-26.18s81.22,11.72,81.22,26.18c0,10.27-18.38,19.17-45.12,23.45,44.72-6.98,76.93-26.56,76.93-49.63,0-28.92-50.6-52.35-113.04-52.35h0Z"/>
      <path class="st1" d="M299.57,252.89c.71.02,1.42.04,2.13.05-.72-.01-1.42-.04-2.13-.05Z"/>
      <path class="st1" d="M313.7,252.89c-.71.02-1.42.04-2.13.05.72-.01,1.42-.04,2.13-.05Z"/>
      <path class="st1" d="M306.63,252.99c-1.22,0-2.42-.01-3.63-.02,1.2.01,2.42.02,3.63.02Z"/>
    </g>
    <g class="st0">
      <path class="st2" d="M310.74,252.96c-1.2.01-2.41.02-3.63.02,1.22,0,2.42,0,3.63-.02Z"/>
      <path class="st2" d="M307.11,148.28c-62.43,0-113.04,23.44-113.04,52.35,0,23.07,32.21,42.65,76.93,49.63-26.73-4.28-45.12-13.18-45.12-23.45,0-14.45,36.37-26.18,81.22-26.18s81.22,11.72,81.22,26.18c0,10.27-18.38,19.17-45.12,23.45,44.72-6.98,76.93-26.56,76.93-49.63,0-28.92-50.6-52.35-113.04-52.35h0Z"/>
      <path class="st2" d="M300.05,252.89c.71.02,1.42.04,2.13.05-.72-.01-1.42-.04-2.13-.05Z"/>
      <path class="st2" d="M314.18,252.89c-.71.02-1.42.04-2.13.05.72-.01,1.42-.04,2.13-.05Z"/>
      <path class="st2" d="M307.11,252.99c-1.22,0-2.42-.01-3.63-.02,1.2.01,2.42.02,3.63.02Z"/>
    </g>
  </g>
  <g id="fourrage" class="st14">
    <path class="st8" d="M537.06,235.42s42.79-7.67,34.43,34.43c0,0,9.64,23.51-12.42,26.47,0,0-4.12,12.96-22.01,7.95,0,0-43.01,2.85-34.43-27.15,0,0-4.89-31.34,10.79-32.29,0,0,7.07-18.67,23.64-9.41Z"/>
  </g>
  <g id="glaçage" class="st14">
    <path class="st5" d="M312.06,34.35S17,32.8,3.25,215.43c0,0-.86,2.63,3.08,5.56,0,0,208.11,162.05,463.28,82.73l5.04-10.36s-26.11-48.78,26.51-69.31c0,0,1.09-55,62.83-43.18,0,0,10.32-10.46,25.2-10.93l4.1-.08s-44.57-136.28-281.24-135.5ZM307.11,252.99c-112.79-2.37-113.52-52.37-113.52-52.37,7.4-52.41,113.04-52.34,113.04-52.34,108.82,1.26,113.04,52.34,113.04,52.34-7.2,52.83-112.55,52.37-112.55,52.37Z"/>
    <ellipse class="st7" cx="470.86" cy="111.08" rx="39.68" ry="21.67"/>
  </g>
  <g id="toppings">
    <g>
      <path class="st6" d="M39.56,194.96l-.27,1.93s14.33,20.7,17.99,19.25c0,0,14.11,1.98,46.73-5.92,0,0,3.69-4.04,3.38-4.69"/>
      <path class="st6" d="M33.87,187.14c5.48,7.53,10.95,15.06,16.43,22.6,0,0,1.57,6.1,11.6,3.7l50.73-8.82s3.48-2.63,1.47-10.52l-4.96-4.16s.08-5.51-9.05-11.99c0,0-9.06-15.01-13.04-14.64-.96.02-2.03.49-2.89.06-5.06-2.56-5.2.08-5.2.08l-8.72.51c-1.6-.92-4.41-.62-4.41-.62-1.28.05-2.02,1.22-2.02,1.22l-4.18,1.03c-3.56-1.77-4.43.3-4.43.3,0,0-16.15,9.05-17.4,12.22,0,0-9.01.55-3.93,9.04Z"/>
      <path class="st11" d="M33.4,186.49c-.08-.35-.53-2.54.75-4.01,1.48-1.7,4.84-1.88,7.49.32,1.5.89,3.02,1.83,4.57,2.82,1.31.84,2.58,1.67,3.8,2.51,4.75-.14,7.87,4.33,7.87,4.33,2.76,2.93,3.57,18.61,3.57,18.61l1.66-.34c1.22-2.71-1.8-15.14-1.8-15.14-1.98-9.74-10.04-9.84-10.04-9.84-1.63-1.1-3.25-2.2-4.87-3.31-1.36-.92-2.72-1.85-4.08-2.78-3.65-2.51-7.98-1.52-9.43.95-.96,1.64-.66,3.94.51,5.88l.1.13"/>
      <path class="st11" d="M55.2,165.89c15.68,7.5,12.58,46.53,12.58,46.53l2.81-.49c2.78-37.76-10.96-46.34-10.96-46.34,0,0-2.89-1.7-4.31.11l-.11.19Z"/>
      <path class="st11" d="M70.24,163.96s16.8,4.43,18.54,43.09c0,0-2.5.57-2.49-.35,0,0,.41-37.56-22.48-42.15,0,0,1.82-2.46,6.56-.56"/>
      <path class="st11" d="M84.17,163.37s13.92,8.53,9.13,46.04c0,0-1.87,1.01-2.13.39,0,0,1.1-4.58.76-5.43s.18-40.82-12.96-40.93c0,0,.38-2.61,5.2-.08Z"/>
      <path class="st11" d="M112.01,205.11c.35-8.26-2.87-15.17-2.87-15.17-.88-5.73-6.9-10.35-6.9-10.35,0,0,7.66,8.95,8.56,25.34l1.21.17Z"/>
    </g>
    <g>
      <path class="st6" d="M121.52,254.77l-.33,1.92s13.72,21.11,17.43,19.76c0,0,14.04,2.38,46.88-4.56,0,0,3.8-3.93,3.52-4.59"/>
      <path class="st6" d="M116.06,246.79c5.26,7.69,10.51,15.38,15.77,23.07,0,0,1.39,6.15,11.48,4.04l50.97-7.34s3.56-2.53,1.78-10.48l-4.83-4.3s.24-5.5-8.7-12.25c0,0-8.62-15.27-12.6-15.01-.96,0-2.04.43-2.89-.03-4.99-2.7-5.2-.07-5.2-.07l-8.74.26c-1.58-.96-4.39-.75-4.39-.75-1.28.01-2.05,1.16-2.05,1.16l-4.21.91c-3.51-1.87-4.43.17-4.43.17,0,0-16.41,8.57-17.75,11.71,0,0-9.02.28-4.19,8.92Z"/>
      <path class="st11" d="M115.6,246.12c-.07-.35-.46-2.56.87-3.98,1.53-1.65,4.89-1.74,7.48.53,1.47.93,2.96,1.91,4.48,2.95,1.28.87,2.53,1.75,3.73,2.62,4.75,0,7.74,4.56,7.74,4.56,2.68,3,3.02,18.71,3.02,18.71l1.67-.3c1.29-2.68-1.36-15.18-1.36-15.18-1.7-9.79-9.75-10.13-9.75-10.13-1.59-1.15-3.18-2.3-4.78-3.45-1.33-.96-2.67-1.93-4-2.9-3.58-2.61-7.93-1.75-9.45.67-1.01,1.61-.78,3.92.34,5.89l.09.13"/>
      <path class="st11" d="M138,226.16c15.45,7.96,11.22,46.87,11.22,46.87l2.82-.41c3.87-37.66-9.61-46.64-9.61-46.64,0,0-2.84-1.79-4.31-.02l-.12.19Z"/>
      <path class="st11" d="M153.09,224.67s16.67,4.92,17.28,43.61c0,0-2.52.5-2.48-.42,0,0,1.5-37.53-21.25-42.78,0,0,1.89-2.4,6.58-.37"/>
      <path class="st11" d="M167.03,224.49s13.67,8.93,7.79,46.29c0,0-1.9.95-2.14.33,0,0,1.23-4.54.92-5.41s1.36-40.8-11.77-41.29c0,0,.46-2.6,5.2.07Z"/>
      <path class="st11" d="M193.65,267.02c.59-8.25-2.42-15.24-2.42-15.24-.72-5.76-6.6-10.54-6.6-10.54,0,0,7.4,9.17,7.82,25.58l1.2.2Z"/>
    </g>
    <g>
      <path class="st6" d="M190.94,104.31l.46,1.89s20.96,13.94,23.83,11.24c0,0,13.84-3.38,41.24-22.76,0,0,1.93-5.12,1.41-5.61"/>
      <path class="st6" d="M182.77,99.14c7.87,4.98,15.75,9.95,23.62,14.93,0,0,3.71,5.09,12.14-.85l43.88-26.94s2.27-3.73-2.52-10.32l-6.14-2.03s-1.96-5.15-12.84-7.8c0,0-13.97-10.6-17.52-8.79-.89.37-1.71,1.21-2.67,1.12-5.65-.5-4.81,2-4.81,2l-7.92,3.7c-1.83-.26-4.33,1.06-4.33,1.06-1.17.52-1.42,1.88-1.42,1.88l-3.51,2.5c-3.96-.33-4,1.92-4,1.92,0,0-11.67,14.37-11.66,17.78,0,0-8.17,3.84-.31,9.85Z"/>
      <path class="st11" d="M182.09,98.71c-.2-.29-1.43-2.17-.78-4,.75-2.12,3.8-3.54,7.08-2.48,1.72.27,3.48.58,5.28.93,1.53.29,3.01.6,4.46.93,4.36-1.89,8.92,1.12,8.92,1.12,3.65,1.7,10.19,15.98,10.19,15.98l1.42-.93c.13-2.97-7.27-13.4-7.27-13.4-5.44-8.32-12.97-5.44-12.97-5.44-1.92-.42-3.83-.85-5.75-1.27-1.61-.36-3.21-.71-4.82-1.07-4.32-.98-7.98,1.53-8.41,4.36-.29,1.88.84,3.91,2.65,5.27l.14.09"/>
      <path class="st11" d="M194.74,71.51c17.34,1.18,28.88,38.59,28.88,38.59l2.43-1.49c-11.37-36.12-27.31-39.01-27.31-39.01,0,0-3.32-.52-3.97,1.69l-.03.22Z"/>
      <path class="st11" d="M208,64.16s17.25-2.09,33.15,33.19c0,0-2.11,1.46-2.44.6,0,0-13.49-35.05-36.46-30.86,0,0,.78-2.95,5.89-2.94"/>
      <path class="st11" d="M220.72,58.47s16.09,2.78,25.49,39.41c0,0-1.37,1.63-1.84,1.15,0,0-.67-4.66-1.3-5.33s-14.92-38-27.16-33.24c0,0-.61-2.57,4.81-2Z"/>
      <path class="st11" d="M262.02,86.97c-2.73-7.81-8.27-13.03-8.27-13.03-2.94-5-10.24-7.06-10.24-7.06,0,0,10.43,5.48,17.32,20.39l1.19-.29Z"/>
    </g>
    <g>
      <path class="st6" d="M213.2,292.89l.17,1.94s18.59,16.98,21.84,14.75c0,0,14.19-1.22,44.23-16.2,0,0,2.69-4.76,2.25-5.33"/>
      <path class="st6" d="M205.91,286.54c7.02,6.12,14.04,12.24,21.06,18.36,0,0,2.89,5.6,12.13,1.02l47.48-19.92s2.81-3.34-.91-10.59l-5.76-2.94s-1.15-5.39-11.5-9.66c0,0-12.18-12.61-15.97-11.36-.94.23-1.87.93-2.81.7-5.51-1.36-5.05,1.24-5.05,1.24l-8.39,2.44c-1.77-.54-4.44.38-4.44.38-1.23.34-1.69,1.64-1.69,1.64l-3.85,1.94c-3.86-.93-4.25,1.28-4.25,1.28,0,0-13.72,12.42-14.24,15.79,0,0-8.66,2.54-1.81,9.69Z"/>
      <path class="st11" d="M205.3,286.01c-.15-.32-1.08-2.36-.16-4.07,1.07-1.98,4.3-2.91,7.38-1.36,1.66.53,3.35,1.11,5.08,1.73,1.46.52,2.88,1.06,4.27,1.6,4.6-1.2,8.64,2.47,8.64,2.47,3.35,2.23,7.63,17.35,7.63,17.35l1.54-.71c.58-2.92-5.14-14.35-5.14-14.35-4.11-9.05-11.99-7.35-11.99-7.35-1.83-.71-3.66-1.42-5.49-2.13-1.53-.6-3.07-1.2-4.6-1.8-4.12-1.63-8.12.3-8.98,3.03-.57,1.81.23,3.99,1.81,5.62l.12.11"/>
      <path class="st11" d="M221.96,261.06c16.96,3.81,22.65,42.55,22.65,42.55l2.63-1.1c-5.72-37.43-21.03-42.73-21.03-42.73,0,0-3.2-1.02-4.18,1.07l-.07.21Z"/>
      <path class="st11" d="M236.19,255.82s17.37.57,27.69,37.87c0,0-2.31,1.12-2.5.22,0,0-7.98-36.7-31.32-36.06,0,0,1.22-2.8,6.27-2.01"/>
      <path class="st11" d="M249.63,252.14s15.47,5.2,19.18,42.85c0,0-1.6,1.4-1.99.86,0,0,.05-4.71-.47-5.46s-8.94-39.83-21.77-37c0,0-.21-2.63,5.05-1.24Z"/>
      <path class="st11" d="M286.09,286.61c-1.5-8.13-6.18-14.14-6.18-14.14-2.14-5.39-9.04-8.55-9.04-8.55,0,0,9.47,7.01,14,22.79l1.22-.1Z"/>
    </g>
    <g>
      <path class="st6" d="M272.62,108.71l-.29,1.92s14.09,20.86,17.77,19.46c0,0,14.08,2.14,46.79-5.37,0,0,3.73-4,3.43-4.65"/>
      <path class="st6" d="M267.02,100.82c5.39,7.6,10.78,15.19,16.17,22.79,0,0,1.5,6.12,11.55,3.84l50.83-8.23s3.51-2.59,1.6-10.51l-4.91-4.21s.14-5.51-8.91-12.09c0,0-8.89-15.11-12.86-14.79-.96,0-2.04.47-2.89.02-5.03-2.61-5.2.02-5.2.02l-8.73.41c-1.59-.94-4.41-.67-4.41-.67-1.28.04-2.03,1.19-2.03,1.19l-4.19.98c-3.54-1.81-4.43.25-4.43.25,0,0-16.25,8.86-17.54,12.01,0,0-9.02.44-4.03,8.99Z"/>
      <path class="st11" d="M266.56,100.16c-.07-.35-.5-2.55.8-4,1.5-1.68,4.86-1.82,7.49.4,1.49.91,3,1.86,4.53,2.87,1.3.85,2.56,1.7,3.77,2.55,4.75-.09,7.82,4.42,7.82,4.42,2.73,2.96,3.35,18.65,3.35,18.65l1.67-.32c1.25-2.7-1.63-15.16-1.63-15.16-1.87-9.76-9.93-9.96-9.93-9.96-1.61-1.12-3.22-2.24-4.83-3.36-1.35-.94-2.7-1.88-4.05-2.83-3.62-2.55-7.96-1.61-9.44.84-.98,1.63-.71,3.93.44,5.88l.09.13"/>
      <path class="st11" d="M288.6,79.82c15.59,7.68,12.04,46.67,12.04,46.67l2.82-.46c3.22-37.73-10.42-46.47-10.42-46.47,0,0-2.87-1.74-4.31.06l-.12.19Z"/>
      <path class="st11" d="M303.66,78.06s16.75,4.62,18.04,43.31c0,0-2.51.54-2.49-.38,0,0,.85-37.55-21.99-42.4,0,0,1.85-2.43,6.57-.48"/>
      <path class="st11" d="M317.59,77.64s13.82,8.69,8.59,46.15c0,0-1.88.99-2.14.37,0,0,1.16-4.56.82-5.42s.65-40.81-12.48-41.08c0,0,.41-2.61,5.2-.02Z"/>
      <path class="st11" d="M344.95,119.7c.45-8.26-2.69-15.2-2.69-15.2-.82-5.74-6.78-10.43-6.78-10.43,0,0,7.56,9.03,8.27,25.44l1.21.18Z"/>
    </g>
    <g>
      <path class="st6" d="M86.67,127.21l.08,1.94s17.82,17.78,21.17,15.69c0,0,14.23-.6,44.9-14.24,0,0,2.9-4.64,2.48-5.22"/>
      <path class="st6" d="M79.67,120.55c6.74,6.42,13.49,12.84,20.23,19.27,0,0,2.64,5.72,12.07,1.55l48.31-17.81s2.95-3.21-.45-10.62l-5.62-3.19s-.91-5.43-11.06-10.16c0,0-11.62-13.13-15.46-12.05-.94.19-1.91.85-2.83.58-5.44-1.6-5.1,1.02-5.1,1.02l-8.49,2.07c-1.74-.61-4.45.19-4.45.19-1.25.28-1.76,1.56-1.76,1.56l-3.93,1.77c-3.82-1.1-4.3,1.1-4.3,1.1,0,0-14.26,11.81-14.92,15.15,0,0-8.76,2.16-2.24,9.6Z"/>
      <path class="st11" d="M79.09,119.99c-.14-.33-.98-2.41.02-4.08,1.16-1.93,4.42-2.72,7.43-1.04,1.63.6,3.3,1.25,5,1.95,1.44.59,2.84,1.18,4.19,1.78,4.65-1,8.53,2.84,8.53,2.84,3.25,2.38,6.86,17.67,6.86,17.67l1.57-.64c.71-2.89-4.5-14.56-4.5-14.56-3.7-9.22-11.65-7.87-11.65-7.87-1.8-.79-3.59-1.58-5.39-2.37-1.51-.66-3.01-1.33-4.52-2-4.05-1.81-8.12-.06-9.1,2.63-.65,1.78.06,4,1.56,5.69l.12.11"/>
      <path class="st11" d="M96.82,95.8c16.77,4.56,20.76,43.5,20.76,43.5l2.68-.99c-4.07-37.64-19.13-43.61-19.13-43.61,0,0-3.15-1.16-4.22.88l-.08.21Z"/>
      <path class="st11" d="M111.27,91.19s17.32,1.33,26,39.05c0,0-2.36,1.01-2.51.11,0,0-6.36-37.02-29.71-37.41,0,0,1.35-2.74,6.35-1.73"/>
      <path class="st11" d="M124.86,88.1s15.23,5.88,17.27,43.65c0,0-1.66,1.33-2.03.77,0,0,.26-4.7-.23-5.48s-7.18-40.18-20.12-37.92c0,0-.1-2.64,5.1-1.02Z"/>
      <path class="st11" d="M159.77,124.14c-1.14-8.19-5.55-14.4-5.55-14.4-1.9-5.48-8.66-8.93-8.66-8.93,0,0,9.15,7.42,12.99,23.39l1.22-.05Z"/>
    </g>
    <g>
      <path class="st6" d="M123.92,155.09l-.39,1.91s13,21.56,16.75,20.34c0,0,13.95,2.86,47.01-2.97,0,0,3.93-3.8,3.67-4.47"/>
      <path class="st6" d="M118.73,146.93c4.99,7.86,9.99,15.72,14.98,23.58,0,0,1.18,6.19,11.34,4.42l51.19-5.62s3.64-2.4,2.13-10.41l-4.69-4.46s.42-5.49-8.28-12.53c0,0-8.1-15.55-12.09-15.43-.96-.04-2.06.36-2.89-.13-4.89-2.87-5.2-.25-5.2-.25l-8.74-.04c-1.54-1.02-4.37-.89-4.37-.89-1.28-.03-2.09,1.09-2.09,1.09l-4.24.77c-3.44-1.99-4.44.02-4.44.02,0,0-16.69,8.01-18.13,11.1,0,0-9.03-.02-4.49,8.77Z"/>
      <path class="st11" d="M118.3,146.24c-.05-.35-.37-2.57,1-3.95,1.59-1.6,4.95-1.57,7.46.79,1.44.98,2.9,2.01,4.38,3.1,1.25.92,2.47,1.83,3.64,2.74,4.75.16,7.59,4.82,7.59,4.82,2.57,3.09,2.39,18.8,2.39,18.8l1.68-.24c1.38-2.63-.85-15.22-.85-15.22-1.37-9.84-9.41-10.46-9.41-10.46-1.55-1.2-3.11-2.4-4.66-3.6-1.3-1.01-2.6-2.02-3.9-3.03-3.49-2.73-7.87-2.02-9.47.35-1.06,1.57-.91,3.89.14,5.9l.09.14"/>
      <path class="st11" d="M141.36,127.05c15.18,8.47,9.64,47.23,9.64,47.23l2.83-.31c5.14-37.51-8.03-46.94-8.03-46.94,0,0-2.78-1.88-4.31-.16l-.13.19Z"/>
      <path class="st11" d="M156.49,126.07s16.49,5.48,15.8,44.17c0,0-2.53.41-2.46-.5,0,0,2.77-37.46-19.79-43.47,0,0,1.97-2.34,6.59-.15"/>
      <path class="st11" d="M170.42,126.36s13.36,9.38,6.22,46.53c0,0-1.93.89-2.15.26,0,0,1.39-4.5,1.1-5.37s2.74-40.73-10.37-41.66c0,0,.54-2.59,5.2.25Z"/>
      <path class="st11" d="M195.6,169.76c.87-8.22-1.91-15.32-1.91-15.32-.52-5.78-6.24-10.76-6.24-10.76,0,0,7.09,9.41,6.95,25.83l1.2.24Z"/>
    </g>
    <g>
      <path class="st6" d="M439.76,178.7l.31,1.92s19.8,15.55,22.87,13.08c0,0,14.06-2.27,42.9-19.44,0,0,2.33-4.95,1.85-5.48"/>
      <path class="st6" d="M432.02,172.9c7.46,5.58,14.91,11.16,22.37,16.74,0,0,3.3,5.37,12.17.11l45.87-23.39s2.55-3.54-1.7-10.49l-5.96-2.51s-1.55-5.29-12.19-8.78c0,0-13.09-11.67-16.77-10.14-.92.3-1.8,1.07-2.75.91-5.59-.95-4.95,1.61-4.95,1.61l-8.19,3.06c-1.8-.4-4.4.71-4.4.71-1.2.43-1.57,1.76-1.57,1.76l-3.69,2.22c-3.92-.64-4.14,1.6-4.14,1.6,0,0-12.76,13.41-13.02,16.81,0,0-8.45,3.18-1.09,9.79Z"/>
      <path class="st11" d="M431.38,172.42c-.18-.31-1.26-2.27-.46-4.05.92-2.06,4.07-3.23,7.25-1.91,1.69.41,3.42.86,5.19,1.34,1.5.41,2.96.84,4.37,1.27,4.5-1.54,8.8,1.82,8.8,1.82,3.5,1.98,8.9,16.73,8.9,16.73l1.49-.82c.36-2.95-6.19-13.93-6.19-13.93-4.77-8.72-12.5-6.44-12.5-6.44-1.88-.57-3.76-1.15-5.63-1.72-1.57-.48-3.15-.97-4.72-1.45-4.23-1.32-8.07.9-8.73,3.69-.43,1.85.53,3.96,2.22,5.47l.13.1"/>
      <path class="st11" d="M446.13,146.3c17.19,2.54,25.75,40.75,25.75,40.75l2.54-1.3c-8.48-36.9-24.15-41.05-24.15-41.05,0,0-3.26-.78-4.09,1.38l-.05.22Z"/>
      <path class="st11" d="M459.93,140.02s17.36-.72,30.43,35.71c0,0-2.22,1.29-2.48.4,0,0-10.68-36.01-33.91-33.64,0,0,1.01-2.88,6.11-2.47"/>
      <path class="st11" d="M473.07,135.35s15.82,4.04,22.31,41.3c0,0-1.49,1.51-1.92,1.01,0,0-.3-4.7-.88-5.41s-11.87-39.05-24.46-35.28c0,0-.41-2.61,4.95-1.61Z"/>
      <path class="st11" d="M511.99,167.02c-2.1-8-7.21-13.65-7.21-13.65-2.54-5.22-9.65-7.85-9.65-7.85,0,0,9.96,6.29,15.66,21.69l1.21-.19Z"/>
    </g>
    <g>
      <path class="st6" d="M366.26,288.57l.37,1.91s20.3,14.89,23.29,12.32c0,0,13.98-2.74,42.24-20.85,0,0,2.17-5.02,1.66-5.54"/>
      <path class="st6" d="M358.33,283.03c7.64,5.33,15.27,10.66,22.91,15.99,0,0,3.48,5.26,12.17-.29l45.07-24.9s2.43-3.62-2.04-10.43l-6.04-2.31s-1.72-5.23-12.47-8.38c0,0-13.46-11.23-17.1-9.58-.91.33-1.76,1.13-2.72,1-5.62-.76-4.89,1.77-4.89,1.77l-8.08,3.33c-1.81-.34-4.37.86-4.37.86-1.19.47-1.51,1.81-1.51,1.81l-3.62,2.34c-3.94-.51-4.09,1.73-4.09,1.73,0,0-12.31,13.82-12.46,17.23,0,0-8.34,3.46-.76,9.82Z"/>
      <path class="st11" d="M357.67,282.57c-.19-.3-1.33-2.23-.6-4.03.85-2.09,3.96-3.36,7.19-2.15,1.7.35,3.45.74,5.24,1.17,1.51.36,2.98.74,4.41,1.13,4.44-1.69,8.86,1.52,8.86,1.52,3.57,1.86,9.45,16.43,9.45,16.43l1.46-.87c.26-2.96-6.65-13.72-6.65-13.72-5.05-8.56-12.71-6.03-12.71-6.03-1.9-.51-3.79-1.02-5.69-1.53-1.59-.43-3.18-.86-4.77-1.29-4.27-1.18-8.04,1.17-8.6,3.97-.37,1.86.66,3.94,2.4,5.39l.13.09"/>
      <path class="st11" d="M371.55,255.98c17.27,1.97,27.08,39.87,27.08,39.87l2.5-1.38c-9.7-36.6-25.49-40.22-25.49-40.22,0,0-3.29-.67-4.04,1.51l-.04.22Z"/>
      <path class="st11" d="M385.14,249.24s17.33-1.3,31.59,34.68c0,0-2.18,1.36-2.47.48,0,0-11.87-35.63-35.01-32.5,0,0,.92-2.91,6.02-2.67"/>
      <path class="st11" d="M398.11,244.14s15.94,3.51,23.66,40.54c0,0-1.44,1.56-1.89,1.07,0,0-.45-4.69-1.05-5.38s-13.16-38.64-25.61-34.45c0,0-.49-2.6,4.89-1.77Z"/>
      <path class="st11" d="M438.06,274.5c-2.37-7.92-7.66-13.4-7.66-13.4-2.71-5.13-9.9-7.53-9.9-7.53,0,0,10.16,5.95,16.37,21.16l1.2-.23Z"/>
    </g>
    <g>
      <path class="st6" d="M345.26,65.18l-.8,1.77s7.93,23.89,11.85,23.53c0,0,12.98,5.86,46.51,7.47,0,0,4.67-2.84,4.56-3.55"/>
      <path class="st6" d="M342.01,56.07c3.14,8.77,6.27,17.54,9.41,26.31,0,0-.21,6.3,10.09,6.81l51.16,5.81s4.08-1.54,4.37-9.68l-3.59-5.38s1.63-5.26-5.31-14.05c0,0-4.47-16.95-8.39-17.72-.93-.25-2.09-.1-2.79-.76-4.14-3.88-5.02-1.39-5.02-1.39l-8.52-1.97c-1.28-1.33-4.06-1.83-4.06-1.83-1.24-.31-2.28.6-2.28.6l-4.3-.19c-2.92-2.7-4.33-.95-4.33-.95,0,0-18.04,4.14-20.14,6.83,0,0-8.8-2.01-6.31,7.57Z"/>
      <path class="st11" d="M341.74,55.31c.02-.35.21-2.59,1.85-3.63,1.9-1.21,5.17-.44,7.1,2.41,1.18,1.27,2.38,2.6,3.59,3.99,1.02,1.17,2,2.33,2.94,3.48,4.6,1.2,6.34,6.37,6.34,6.37,1.83,3.58-1.81,18.87-1.81,18.87l1.69.14c1.93-2.26,2.53-15.03,2.53-15.03.84-9.9-6.87-12.27-6.87-12.27-1.25-1.51-2.5-3.03-3.75-4.54-1.05-1.27-2.09-2.54-3.14-3.82-2.8-3.43-7.23-3.71-9.31-1.74-1.38,1.3-1.75,3.6-1.16,5.79l.05.15"/>
      <path class="st11" d="M368.46,41.68c12.93,11.61-1.02,48.19-1.02,48.19l2.83.32c13.29-35.45,2.52-47.55,2.52-47.55,0,0-2.29-2.45-4.17-1.11l-.16.15Z"/>
      <path class="st11" d="M383.43,44.06s14.88,8.98,5.67,46.57c0,0-2.56-.15-2.29-1.03,0,0,10.96-35.92-9.72-46.77,0,0,2.44-1.84,6.46,1.31"/>
      <path class="st11" d="M396.96,47.41s10.96,12.1-4.2,46.75c0,0-2.08.44-2.16-.22,0,0,2.35-4.08,2.26-5s11.65-39.12-.92-42.92c0,0,1.1-2.4,5.02,1.39Z"/>
      <path class="st11" d="M411.94,95.3c2.66-7.83,1.52-15.36,1.52-15.36.76-5.75-3.71-11.87-3.71-11.87,0,0,4.84,10.74,1.08,26.73l1.11.5Z"/>
    </g>
  </g>
</svg>