<?xml version="1.0" encoding="UTF-8"?>
<svg xmlns="http://www.w3.org/2000/svg" version="1.1" viewBox="0 0 600 500">
  <!-- Generator: Adobe Illustrator 30.1.0, SVG Export Plug-In . SVG Version: 2.1.1 Build 136)  -->
  <defs>
    <style>
      .st0, .st1, .st2, .st3, .st4, .st5, .st6, .st7, .st8, .st9, .st10, .st11 {
        stroke-miterlimit: 10;
      }

      .st0, .st1, .st2, .st3, .st6, .st9, .st10, .st11 {
        stroke: #000;
      }

      .st0, .st10 {
        fill: none;
      }

      .st12 {
        opacity: .14;
      }

      .st1 {
        fill: #551c00;
      }

      .st2 {
        fill: #fc6;
      }

      .st2, .st3, .st6, .st7, .st9, .st10, .st11 {
        stroke-width: 3px;
      }

      .st4 {
        fill: #fff2bb;
        stroke: #fc6;
        stroke-width: .75px;
      }

      .st5, .st8 {
        fill: #930;
        stroke: #862000;
        stroke-width: 5px;
      }

      .st6 {
        fill: #7e2000;
      }

      .st7 {
        fill: #fff;
        opacity: .39;
        stroke: #fff;
      }

      .st8 {
        opacity: .8;
      }

      .st13 {
        opacity: .15;
      }

      .st9 {
        fill: #ffe3b2;
      }

      .st14 {
        display: none;
      }

      .st11 {
        fill: #ffe399;
      }
    </style>
  </defs>
  <g id="donuts" class="st14">
    <path class="st11" d="M307.11,42.24C139.62,46.67,3.73,114.74,3.73,253.07c0,118.66,101.12,210.83,303.38,210.83,84.67,0,151.58-12.28,200.8-36.87-1.36-3.68-2.15-7.59-2.33-11.53-3.86-4.69-6.04-10.54-6.42-17.26-2.15-1.07-4.63-2.61-7.6-4.8-10.96-8.11-10.72-28.07-6.6-36.25h0s0,0,0,0c-36.89-21.96-10.29-63.82-10.29-63.82-26.22-51.44,26.51-69.31,26.51-69.31-.01-5.77.9-16.19,7.67-25.78,10.98-15.56,32.78-22.43,55.17-17.4,2.15-2.19,6.01-5.57,11.74-8.01,5.51-2.35,10.43-2.84,13.46-2.92-43.49-79.47-149.72-131.18-282.08-127.68ZM307.11,252.98c-44.85,0-81.22-11.72-81.22-26.18s36.37-26.18,81.22-26.18,81.22,11.72,81.22,26.18-36.37,26.18-81.22,26.18Z"/>
    <path class="st5" d="M589.67,170.5"/>
    <path class="st9" d="M589.67,170.5s31.3,159.28-39.93,171.15c-3.4,3.22-9.52,8.2-18.48,11.61-9.3,3.53-17.48,3.77-22.21,3.56-.79-.75-10.68,11.08-24.12.64-.13-.1-.07-.33-.22-.41-3-1.75-33.54-20.9-9.63-63.11,2.18-3.85-30.36-45.47,26.51-69.31,0,0-.12-53.39,62.4-43.77,0,0,12.59-12.14,25.68-10.35Z"/>
    <path class="st4" d="M484.45,357.22s0,0,0,0h0c-18.27-10.87-20.97-26.62-19.04-39.76-45.03,13.19-98.42,22.29-158.57,20.76-157.4-3.99-265.11-78.29-300.88-105.38-.72,11.28-.92,23.72-.25,37.14.42,8.46,1.15,16.46,2.08,23.97,38.31,26.71,146.13,94.38,299.98,95.69,67.97.58,127.11-11.95,175.19-28.26.41-1.58.91-2.99,1.5-4.16Z"/>
    <path class="st10" d="M306.63,41.06C139.14,45.49,3.25,113.56,3.25,251.89c0,118.66,101.12,210.83,303.38,210.83,84.71,0,151.62-12.3,200.85-36.91-1.1-3.31-1.73-6.8-1.89-10.3-3.79-4.61-5.96-10.32-6.4-16.89-2.06-1.06-4.42-2.54-7.21-4.6-10.96-8.11-10.72-28.07-6.6-36.25,0,0,0,0,0,0h0c-36.89-21.96-10.29-63.82-10.29-63.82-26.22-51.44,26.51-69.31,26.51-69.31,0-5.78.94-16.16,7.67-25.78,10.91-15.59,32.47-22.62,54.73-17.99,2.5-2.18,6.55-5.2,12.2-7.44,5.42-2.15,10.24-2.76,13.49-2.92-42.88-80.46-149.71-132.96-283.05-129.44ZM306.63,251.81c-44.85,0-81.22-11.72-81.22-26.18s36.37-26.18,81.22-26.18,81.22,11.72,81.22,26.18-36.37,26.18-81.22,26.18Z"/>
    <path class="st13" d="M589.19,169.93l4.1,24.37c-1.19-.76-5.81-3.51-11.97-2.59-7.38,1.11-11.24,6.63-11.87,7.56-3.53-1.7-16.57-7.48-31.91-2.94-23.92,7.08-30.58,32.51-30.88,33.76-3.64,2.04-15.97,9.54-22.21,25.33-6.98,17.69-1.37,33.23,0,36.74,0,0-23.27,49.49,0,54.78l.26,10.11s-34.01-20.22-10.06-63.69c0,0-28.11-47.58,26.51-69.31,0,0-.54-53.11,62.83-43.18,0,0,11.05-12.08,25.2-10.93Z"/>
    <g>
      <path class="st2" d="M310.26,252.96c-1.2.01-2.41.02-3.63.02,1.22,0,2.42,0,3.63-.02Z"/>
      <path class="st2" d="M306.63,148.28c-62.43,0-113.04,23.44-113.04,52.35,0,23.07,32.21,42.65,76.93,49.63-26.73-4.28-45.12-13.18-45.12-23.45,0-14.45,36.37-26.18,81.22-26.18s81.22,11.72,81.22,26.18c0,10.27-18.38,19.17-45.12,23.45,44.72-6.98,76.93-26.56,76.93-49.63,0-28.92-50.6-52.35-113.04-52.35h0Z"/>
      <path class="st2" d="M299.57,252.89c.71.02,1.42.04,2.13.05-.72-.01-1.42-.04-2.13-.05Z"/>
      <path class="st2" d="M313.7,252.89c-.71.02-1.42.04-2.13.05.72-.01,1.42-.04,2.13-.05Z"/>
      <path class="st2" d="M306.63,252.99c-1.22,0-2.42-.01-3.63-.02,1.2.01,2.42.02,3.63.02Z"/>
    </g>
    <g class="st12">
      <path class="st3" d="M310.74,252.96c-1.2.01-2.41.02-3.63.02,1.22,0,2.42,0,3.63-.02Z"/>
      <path class="st3" d="M307.11,148.28c-62.43,0-113.04,23.44-113.04,52.35,0,23.07,32.21,42.65,76.93,49.63-26.73-4.28-45.12-13.18-45.12-23.45,0-14.45,36.37-26.18,81.22-26.18s81.22,11.72,81.22,26.18c0,10.27-18.38,19.17-45.12,23.45,44.72-6.98,76.93-26.56,76.93-49.63,0-28.92-50.6-52.35-113.04-52.35h0Z"/>
      <path class="st3" d="M300.05,252.89c.71.02,1.42.04,2.13.05-.72-.01-1.42-.04-2.13-.05Z"/>
      <path class="st3" d="M314.18,252.89c-.71.02-1.42.04-2.13.05.72-.01,1.42-.04,2.13-.05Z"/>
      <path class="st3" d="M307.11,252.99c-1.22,0-2.42-.01-3.63-.02,1.2.01,2.42.02,3.63.02Z"/>
    </g>
  </g>
  <g id="fourrage" class="st14">
    <path class="st8" d="M537.06,235.42s42.79-7.67,34.43,34.43c0,0,9.64,23.51-12.42,26.47,0,0-4.12,12.96-22.01,7.95,0,0-43.01,2.85-34.43-27.15,0,0-4.89-31.34,10.79-32.29,0,0,7.07-18.67,23.64-9.41Z"/>
  </g>
  <g id="glaçage" class="st14">
    <path class="st6" d="M312.06,34.35S17,32.8,3.25,215.43c0,0-.86,2.63,3.08,5.56,0,0,208.11,162.05,463.28,82.73l5.04-10.36s-26.11-48.78,26.51-69.31c0,0,1.09-55,62.83-43.18,0,0,10.32-10.46,25.2-10.93l4.1-.08s-44.57-136.28-281.24-135.5ZM307.11,252.99c-112.79-2.37-113.52-52.37-113.52-52.37,7.4-52.41,113.04-52.34,113.04-52.34,108.82,1.26,113.04,52.34,113.04,52.34-7.2,52.83-112.55,52.37-112.55,52.37Z"/>
    <ellipse class="st7" cx="470.86" cy="111.08" rx="39.68" ry="21.67"/>
  </g>
  <g id="toppings">
    <g>
      <polyline class="st1" points="106.9 165.53 103.69 161.52 101 151.13 87.78 141.78 63.55 154.99 56.94 165.29 53.79 168.74 73.55 184.65 106.9 165.53 103.69 161.52 101 151.13 87.48 141.94"/>
      <polyline class="st0" points="101.17 151.03 103.79 161.46 74.56 178.54 56.94 165.29 53.79 168.74 73.55 184.65 107.2 165.36"/>
      <polyline class="st0" points="63.55 154.99 76.78 164.81 74.56 178.54 73.55 184.65"/>
      <line class="st0" x1="76.78" y1="164.81" x2="101" y2="151.13"/>
    </g>
    <g>
      <polyline class="st1" points="126.63 231.32 124.48 226.65 124.37 215.92 113.79 203.66 87.1 210.66 78.2 219.06 74.31 221.66 89.66 241.85 126.63 231.32 124.48 226.65 124.37 215.92 113.46 203.75"/>
      <polyline class="st0" points="124.56 215.87 124.59 226.62 92.12 236.17 78.2 219.06 74.31 221.66 89.66 241.85 126.96 231.23"/>
      <polyline class="st0" points="87.1 210.66 97.57 223.37 92.12 236.17 89.66 241.85"/>
      <line class="st0" x1="97.57" y1="223.37" x2="124.37" y2="215.92"/>
    </g>
    <g>
      <polyline class="st1" points="177.51 140.25 172.72 138.38 165.19 130.72 149.07 129.23 134.7 152.79 134.12 165.01 133.12 169.58 158.18 173.48 177.51 140.25 172.72 138.38 165.19 130.72 148.89 129.53"/>
      <polyline class="st0" points="165.29 130.56 172.78 138.28 156.01 167.69 134.12 165.01 133.12 169.58 158.18 173.48 177.68 139.96"/>
      <polyline class="st0" points="134.7 152.79 151.06 154.69 156.01 167.69 158.18 173.48"/>
      <line class="st0" x1="151.06" y1="154.69" x2="165.19" y2="130.72"/>
    </g>
    <g>
      <polyline class="st1" points="181.84 258.42 179.15 254.04 177.78 243.4 165.83 232.48 140.14 242.58 132.3 251.97 128.75 255.01 146.37 273.25 181.84 258.42 179.15 254.04 177.78 243.4 165.51 232.6"/>
      <polyline class="st0" points="177.96 243.32 179.26 254 148.14 267.31 132.3 251.97 128.75 255.01 146.37 273.25 182.16 258.29"/>
      <polyline class="st0" points="140.14 242.58 152.04 253.96 148.14 267.31 146.37 273.25"/>
      <line class="st0" x1="152.04" y1="253.96" x2="177.78" y2="243.4"/>
    </g>
    <g>
      <polyline class="st1" points="241.08 274.09 236.91 271.08 231.56 261.77 216.34 256.27 196.49 275.45 192.85 287.13 190.73 291.3 214.01 301.38 241.08 274.09 236.91 271.08 231.56 261.77 216.09 256.51"/>
      <polyline class="st0" points="231.7 261.64 237 270.99 213.36 295.23 192.85 287.13 190.73 291.3 214.01 301.38 241.32 273.85"/>
      <polyline class="st0" points="196.49 275.45 211.85 281.4 213.36 295.23 214.01 301.38"/>
      <line class="st0" x1="211.85" y1="281.4" x2="231.56" y2="261.77"/>
    </g>
    <g>
      <polyline class="st1" points="309.43 289.29 306.42 285.12 304.25 274.61 291.51 264.62 266.66 276.61 259.54 286.57 256.22 289.86 275.17 306.73 309.43 289.29 306.42 285.12 304.25 274.61 291.2 264.77"/>
      <polyline class="st0" points="304.43 274.53 306.52 285.07 276.48 300.68 259.54 286.57 256.22 289.86 275.17 306.73 309.73 289.14"/>
      <polyline class="st0" points="266.66 276.61 279.38 287.08 276.48 300.68 275.17 306.73"/>
      <line class="st0" x1="279.38" y1="287.08" x2="304.25" y2="274.61"/>
    </g>
    <g>
      <polyline class="st1" points="401.17 265.72 396.67 263.22 390.25 254.63 374.47 250.98 357.06 272.39 354.84 284.42 353.23 288.81 377.54 296.05 401.17 265.72 396.67 263.22 390.25 254.63 374.26 251.24"/>
      <polyline class="st0" points="390.37 254.47 396.74 263.13 376.17 290.01 354.84 284.42 353.23 288.81 377.54 296.05 401.38 265.45"/>
      <polyline class="st0" points="357.06 272.39 373.01 276.47 376.17 290.01 377.54 296.05"/>
      <line class="st0" x1="373.01" y1="276.47" x2="390.25" y2="254.63"/>
    </g>
    <g>
      <polyline class="st1" points="199.77 83.59 196.86 79.36 194.94 68.8 182.45 58.5 157.32 69.91 149.97 79.69 146.57 82.91 165.11 100.22 199.77 83.59 196.86 79.36 194.94 68.8 182.13 58.64"/>
      <polyline class="st0" points="195.12 68.71 196.97 79.3 166.57 94.2 149.97 79.69 146.57 82.91 165.11 100.22 200.08 83.45"/>
      <polyline class="st0" points="157.32 69.91 169.78 80.67 166.57 94.2 165.11 100.22"/>
      <line class="st0" x1="169.78" y1="80.67" x2="194.94" y2="68.8"/>
    </g>
    <g>
      <polyline class="st1" points="251.76 112.38 247.28 109.85 240.92 101.21 225.17 97.45 207.6 118.73 205.3 130.75 203.66 135.12 227.92 142.54 251.76 112.38 247.28 109.85 240.92 101.21 224.95 97.71"/>
      <polyline class="st0" points="241.04 101.05 247.35 109.76 226.59 136.49 205.3 130.75 203.66 135.12 227.92 142.54 251.97 112.11"/>
      <polyline class="st0" points="207.6 118.73 223.53 122.92 226.59 136.49 227.92 142.54"/>
      <line class="st0" x1="223.53" y1="122.92" x2="240.92" y2="101.21"/>
    </g>
    <g>
      <polyline class="st1" points="305.16 74.07 302.41 69.73 300.87 59.11 288.75 48.37 263.23 58.87 255.53 68.38 252.02 71.47 269.93 89.44 305.16 74.07 302.41 69.73 300.87 59.11 288.43 48.5"/>
      <polyline class="st0" points="301.05 59.03 302.51 69.68 271.6 83.48 255.53 68.38 252.02 71.47 269.93 89.44 305.48 73.94"/>
      <polyline class="st0" points="263.23 58.87 275.3 70.07 271.6 83.48 269.93 89.44"/>
      <line class="st0" x1="275.3" y1="70.07" x2="300.87" y2="59.11"/>
    </g>
    <g>
      <polyline class="st1" points="350.01 121.85 346.94 117.72 344.63 107.24 331.75 97.43 307.07 109.77 300.09 119.82 296.82 123.16 316 139.76 350.01 121.85 346.94 117.72 344.63 107.24 331.45 97.58"/>
      <polyline class="st0" points="344.8 107.15 347.05 117.67 317.23 133.7 300.09 119.82 296.82 123.16 316 139.76 350.31 121.69"/>
      <polyline class="st0" points="307.07 109.77 319.93 120.05 317.23 133.7 316 139.76"/>
      <line class="st0" x1="319.93" y1="120.05" x2="344.63" y2="107.24"/>
    </g>
    <g>
      <polyline class="st1" points="393.52 64.18 389.34 61.19 383.93 51.92 368.67 46.51 348.94 65.81 345.37 77.52 343.28 81.7 366.62 91.64 393.52 64.18 389.34 61.19 383.93 51.92 368.42 46.75"/>
      <polyline class="st0" points="384.07 51.78 389.42 61.11 365.93 85.49 345.37 77.52 343.28 81.7 366.62 91.64 393.76 63.94"/>
      <polyline class="st0" points="348.94 65.81 364.33 71.67 365.93 85.49 366.62 91.64"/>
      <line class="st0" x1="364.33" y1="71.67" x2="383.93" y2="51.92"/>
    </g>
    <g>
      <polyline class="st1" points="416.58 131.24 413.37 127.21 410.73 116.81 397.54 107.41 373.27 120.54 366.62 130.81 363.45 134.26 383.16 150.23 416.58 131.24 413.37 127.21 410.73 116.81 397.24 107.58"/>
      <polyline class="st0" points="410.9 116.72 413.48 127.15 384.19 144.13 366.62 130.81 363.45 134.26 383.16 150.23 416.87 131.07"/>
      <polyline class="st0" points="373.27 120.54 386.45 130.41 384.19 144.13 383.16 150.23"/>
      <line class="st0" x1="386.45" y1="130.41" x2="410.73" y2="116.81"/>
    </g>
    <g>
      <polyline class="st1" points="477.85 167.22 473.7 164.18 468.41 154.85 453.22 149.25 433.25 168.3 429.54 179.96 427.39 184.11 450.61 194.34 477.85 167.22 473.7 164.18 468.41 154.85 452.97 149.48"/>
      <polyline class="st0" points="468.55 154.71 473.79 164.1 450 188.19 429.54 179.96 427.39 184.11 450.61 194.34 478.09 166.98"/>
      <polyline class="st0" points="433.25 168.3 448.57 174.35 450 188.19 450.61 194.34"/>
      <line class="st0" x1="448.57" y1="174.35" x2="468.41" y2="154.85"/>
    </g>
    <g>
      <polyline class="st1" points="466.43 225.7 462.23 222.74 456.77 213.5 441.48 208.17 421.86 227.58 418.36 239.3 416.29 243.49 439.68 253.31 466.43 225.7 462.23 222.74 456.77 213.5 441.24 208.41"/>
      <polyline class="st0" points="456.91 213.36 462.31 222.65 438.96 247.16 418.36 239.3 416.29 243.49 439.68 253.31 466.67 225.46"/>
      <polyline class="st0" points="421.86 227.58 437.28 233.35 438.96 247.16 439.68 253.31"/>
      <line class="st0" x1="437.28" y1="233.35" x2="456.77" y2="213.5"/>
    </g>
  </g>
</svg>