<?xml version="1.0" encoding="UTF-8"?>
<svg xmlns="http://www.w3.org/2000/svg" version="1.1" viewBox="0 0 600 500">
  <!-- Generator: Adobe Illustrator 29.8.2, SVG Export Plug-In . SVG Version: 2.1.1 Build 3)  -->
  <defs>
    <style>
      .st0 {
        fill: #ffe399;
      }

      .st0, .st1, .st2, .st3, .st4, .st5, .st6, .st7, .st8, .st9, .st10, .st11, .st12, .st13, .st14, .st15 {
        stroke-miterlimit: 10;
      }

      .st0, .st2, .st3, .st4, .st5, .st6, .st7, .st10, .st12, .st13, .st14, .st15 {
        stroke: #000;
      }

      .st0, .st8, .st10, .st12, .st13, .st14, .st15 {
        stroke-width: 3px;
      }

      .st1 {
        opacity: .8;
      }

      .st1, .st11 {
        fill: #930;
        stroke: #862000;
        stroke-width: 5px;
      }

      .st2 {
        fill: #cc1500;
      }

      .st2, .st3, .st4, .st5, .st6, .st7 {
        stroke-width: 2px;
      }

      .st3 {
        fill: #ff9000;
      }

      .st4 {
        fill: #008823;
      }

      .st5 {
        fill: #884500;
      }

      .st16, .st8 {
        fill: #fff;
      }

      .st6 {
        fill: #faf236;
      }

      .st7 {
        fill: #007aff;
      }

      .st8 {
        opacity: .39;
        stroke: #fff;
      }

      .st9 {
        fill: #fff2bb;
        stroke: #fc6;
        stroke-width: .75px;
      }

      .st17 {
        opacity: .15;
      }

      .st18 {
        opacity: .14;
      }

      .st10 {
        fill: #fc6;
      }

      .st13 {
        fill: #7e2000;
      }

      .st14 {
        fill: #ffe3b2;
      }

      .st19 {
        display: none;
      }

      .st15 {
        fill: none;
      }
    </style>
  </defs>
  <g id="donuts" class="st19">
    <path class="st0" d="M307.11,42.24C139.62,46.67,3.73,114.74,3.73,253.07c0,118.66,101.12,210.83,303.38,210.83,84.67,0,151.58-12.28,200.8-36.87-1.36-3.68-2.15-7.59-2.33-11.53-3.86-4.69-6.04-10.54-6.42-17.26-2.15-1.07-4.63-2.61-7.6-4.8-10.96-8.11-10.72-28.07-6.6-36.25h0s0,0,0,0c-36.89-21.96-10.29-63.82-10.29-63.82-26.22-51.44,26.51-69.31,26.51-69.31-.01-5.77.9-16.19,7.67-25.78,10.98-15.56,32.78-22.43,55.17-17.4,2.15-2.19,6.01-5.57,11.74-8.01,5.51-2.35,10.43-2.84,13.46-2.92-43.49-79.47-149.72-131.18-282.08-127.68ZM307.11,252.98c-44.85,0-81.22-11.72-81.22-26.18s36.37-26.18,81.22-26.18,81.22,11.72,81.22,26.18-36.37,26.18-81.22,26.18Z"/>
    <path class="st11" d="M589.67,170.5"/>
    <path class="st14" d="M589.67,170.5s31.3,159.28-39.93,171.15c-3.4,3.22-9.52,8.2-18.48,11.61-9.3,3.53-17.48,3.77-22.21,3.56-.79-.75-10.68,11.08-24.12.64-.13-.1-.07-.33-.22-.41-3-1.75-33.54-20.9-9.63-63.11,2.18-3.85-30.36-45.47,26.51-69.31,0,0-.12-53.39,62.4-43.77,0,0,12.59-12.14,25.68-10.35Z"/>
    <path class="st9" d="M484.45,357.22s0,0,0,0h0c-18.27-10.87-20.97-26.62-19.04-39.76-45.03,13.19-98.42,22.29-158.57,20.76-157.4-3.99-265.11-78.29-300.88-105.38-.72,11.28-.92,23.72-.25,37.14.42,8.46,1.15,16.46,2.08,23.97,38.31,26.71,146.13,94.38,299.98,95.69,67.97.58,127.11-11.95,175.19-28.26.41-1.58.91-2.99,1.5-4.16Z"/>
    <path class="st15" d="M306.63,41.06C139.14,45.49,3.25,113.56,3.25,251.89c0,118.66,101.12,210.83,303.38,210.83,84.71,0,151.62-12.3,200.85-36.91-1.1-3.31-1.73-6.8-1.89-10.3-3.79-4.61-5.96-10.32-6.4-16.89-2.06-1.06-4.42-2.54-7.21-4.6-10.96-8.11-10.72-28.07-6.6-36.25,0,0,0,0,0,0h0c-36.89-21.96-10.29-63.82-10.29-63.82-26.22-51.44,26.51-69.31,26.51-69.31,0-5.78.94-16.16,7.67-25.78,10.91-15.59,32.47-22.62,54.73-17.99,2.5-2.18,6.55-5.2,12.2-7.44,5.42-2.15,10.24-2.76,13.49-2.92-42.88-80.46-149.71-132.96-283.05-129.44ZM306.63,251.81c-44.85,0-81.22-11.72-81.22-26.18s36.37-26.18,81.22-26.18,81.22,11.72,81.22,26.18-36.37,26.18-81.22,26.18Z"/>
    <path class="st17" d="M589.19,169.93l4.1,24.37c-1.19-.76-5.81-3.51-11.97-2.59-7.38,1.11-11.24,6.63-11.87,7.56-3.53-1.7-16.57-7.48-31.91-2.94-23.92,7.08-30.58,32.51-30.88,33.76-3.64,2.04-15.97,9.54-22.21,25.33-6.98,17.69-1.37,33.23,0,36.74,0,0-23.27,49.49,0,54.78l.26,10.11s-34.01-20.22-10.06-63.69c0,0-28.11-47.58,26.51-69.31,0,0-.54-53.11,62.83-43.18,0,0,11.05-12.08,25.2-10.93Z"/>
    <g>
      <path class="st10" d="M310.26,252.96c-1.2.01-2.41.02-3.63.02,1.22,0,2.42,0,3.63-.02Z"/>
      <path class="st10" d="M306.63,148.28c-62.43,0-113.04,23.44-113.04,52.35,0,23.07,32.21,42.65,76.93,49.63-26.73-4.28-45.12-13.18-45.12-23.45,0-14.45,36.37-26.18,81.22-26.18s81.22,11.72,81.22,26.18c0,10.27-18.38,19.17-45.12,23.45,44.72-6.98,76.93-26.56,76.93-49.63,0-28.92-50.6-52.35-113.04-52.35h0Z"/>
      <path class="st10" d="M299.57,252.89c.71.02,1.42.04,2.13.05-.72-.01-1.42-.04-2.13-.05Z"/>
      <path class="st10" d="M313.7,252.89c-.71.02-1.42.04-2.13.05.72-.01,1.42-.04,2.13-.05Z"/>
      <path class="st10" d="M306.63,252.99c-1.22,0-2.42-.01-3.63-.02,1.2.01,2.42.02,3.63.02Z"/>
    </g>
    <g class="st18">
      <path class="st12" d="M310.74,252.96c-1.2.01-2.41.02-3.63.02,1.22,0,2.42,0,3.63-.02Z"/>
      <path class="st12" d="M307.11,148.28c-62.43,0-113.04,23.44-113.04,52.35,0,23.07,32.21,42.65,76.93,49.63-26.73-4.28-45.12-13.18-45.12-23.45,0-14.45,36.37-26.18,81.22-26.18s81.22,11.72,81.22,26.18c0,10.27-18.38,19.17-45.12,23.45,44.72-6.98,76.93-26.56,76.93-49.63,0-28.92-50.6-52.35-113.04-52.35h0Z"/>
      <path class="st12" d="M300.05,252.89c.71.02,1.42.04,2.13.05-.72-.01-1.42-.04-2.13-.05Z"/>
      <path class="st12" d="M314.18,252.89c-.71.02-1.42.04-2.13.05.72-.01,1.42-.04,2.13-.05Z"/>
      <path class="st12" d="M307.11,252.99c-1.22,0-2.42-.01-3.63-.02,1.2.01,2.42.02,3.63.02Z"/>
    </g>
  </g>
  <g id="fourrage" class="st19">
    <path class="st1" d="M537.06,235.42s42.79-7.67,34.43,34.43c0,0,9.64,23.51-12.42,26.47,0,0-4.12,12.96-22.01,7.95,0,0-43.01,2.85-34.43-27.15,0,0-4.89-31.34,10.79-32.29,0,0,7.07-18.67,23.64-9.41Z"/>
  </g>
  <g id="glaçage" class="st19">
    <path class="st13" d="M312.06,34.35S17,32.8,3.25,215.43c0,0-.86,2.63,3.08,5.56,0,0,208.11,162.05,463.28,82.73l5.04-10.36s-26.11-48.78,26.51-69.31c0,0,1.09-55,62.83-43.18,0,0,10.32-10.46,25.2-10.93l4.1-.08s-44.57-136.28-281.24-135.5ZM307.11,252.99c-112.79-2.37-113.52-52.37-113.52-52.37,7.4-52.41,113.04-52.34,113.04-52.34,108.82,1.26,113.04,52.34,113.04,52.34-7.2,52.83-112.55,52.37-112.55,52.37Z"/>
    <ellipse class="st8" cx="470.86" cy="111.08" rx="39.68" ry="21.67"/>
  </g>
  <g id="toppings">
    <g>
      <ellipse class="st6" cx="74.72" cy="200.63" rx="20.54" ry="31.11" transform="translate(-139.31 195.19) rotate(-68.12)"/>
      <path class="st16" d="M67.54,191.2l2.61,1.05-.57,1.42.05.02c1.31-.7,2.69-.76,4.14-.18.92.39,1.61.85,2.06,1.38.42.56.77,1.19,1.02,1.9,1.53-.77,3.17-.79,4.93-.06,1.11.45,1.97,1.25,2.58,2.4.59,1.16.6,2.51.02,4.06l-3.58,8.91-2.61-1.05,3.21-7.99c.38-.94.41-1.75.11-2.45-.3-.7-.84-1.21-1.63-1.53s-1.54-.33-2.25-.03c-.71.28-1.26.9-1.64,1.84l-3.21,7.99-2.61-1.05,3.21-7.99c.38-.94.41-1.75.11-2.45-.31-.7-.86-1.21-1.64-1.53s-1.53-.32-2.23-.03c-.72.28-1.27.89-1.65,1.83l-3.21,7.99-2.61-1.05,5.38-13.4Z"/>
    </g>
    <g>
      <ellipse class="st2" cx="365.09" cy="111.8" rx="31.11" ry="20.54" transform="translate(-14.93 74.69) rotate(-11.45)"/>
      <path class="st16" d="M353.92,107.86l2.76-.56.3,1.5h.05c.71-1.32,1.83-2.13,3.36-2.44.99-.18,1.81-.17,2.48.02.66.24,1.29.58,1.9,1.02.86-1.48,2.22-2.4,4.08-2.76,1.17-.24,2.33-.04,3.47.59,1.13.64,1.88,1.77,2.25,3.38l1.91,9.41-2.76.56-1.71-8.44c-.2-.99-.62-1.69-1.25-2.11-.63-.42-1.37-.55-2.2-.38s-1.46.57-1.89,1.21c-.44.63-.56,1.44-.36,2.43l1.71,8.44-2.75.56-1.71-8.44c-.2-.99-.62-1.69-1.25-2.11-.64-.42-1.38-.54-2.21-.38s-1.46.57-1.88,1.2c-.45.63-.57,1.44-.37,2.44l1.71,8.44-2.76.56-2.87-14.16Z"/>
    </g>
    <g>
      <ellipse class="st7" cx="206.39" cy="99.63" rx="20.54" ry="31.11" transform="translate(52.62 269.56) rotate(-73.63)"/>
      <path class="st16" d="M198.34,90.93l2.7.79-.43,1.47.05.02c1.24-.83,2.61-1.02,4.1-.58.96.3,1.68.69,2.18,1.18.48.52.88,1.11,1.2,1.79,1.45-.91,3.08-1.09,4.9-.53,1.15.34,2.08,1.05,2.79,2.14.7,1.1.84,2.44.41,4.04l-2.71,9.21-2.7-.79,2.43-8.26c.29-.97.24-1.79-.12-2.45-.36-.67-.95-1.12-1.77-1.36s-1.56-.18-2.24.18c-.68.35-1.17,1.01-1.45,1.98l-2.43,8.26-2.69-.79,2.43-8.26c.29-.97.24-1.79-.12-2.45-.37-.67-.97-1.13-1.78-1.37s-1.56-.18-2.22.19c-.69.35-1.18,1.01-1.47,1.98l-2.43,8.26-2.7-.79,4.07-13.86Z"/>
    </g>
    <g>
      <ellipse class="st5" cx="419.66" cy="255.68" rx="31.11" ry="20.54" transform="translate(-55.26 129.45) rotate(-16.47)"/>
      <path class="st16" d="M408.18,252.74l2.7-.8.43,1.47.05-.02c.59-1.37,1.64-2.27,3.13-2.71.97-.27,1.79-.33,2.47-.19.68.18,1.34.46,1.98.85.72-1.55,2-2.58,3.83-3.1,1.15-.34,2.32-.24,3.51.28,1.19.54,2.03,1.6,2.53,3.17l2.72,9.21-2.7.8-2.44-8.26c-.29-.97-.76-1.63-1.43-1.99-.67-.36-1.41-.43-2.22-.18s-1.41.7-1.78,1.37c-.38.67-.43,1.48-.15,2.46l2.44,8.26-2.69.8-2.44-8.26c-.29-.97-.76-1.63-1.43-1.99-.68-.36-1.42-.42-2.24-.18s-1.4.7-1.77,1.36c-.39.67-.45,1.49-.16,2.46l2.44,8.26-2.7.8-4.09-13.85Z"/>
    </g>
    <g>
      <ellipse class="st4" cx="163.42" cy="245.86" rx="20.54" ry="31.11" transform="translate(-88.52 399.75) rotate(-87.8)"/>
      <path class="st16" d="M153.49,239.4l2.81.11-.06,1.53h.05c1-1.1,2.28-1.62,3.83-1.56,1,.06,1.8.26,2.4.61.59.39,1.12.86,1.6,1.44,1.18-1.24,2.72-1.81,4.62-1.72,1.2.05,2.27.51,3.23,1.39.95.89,1.41,2.16,1.39,3.81l-.37,9.6-2.81-.11.33-8.61c.04-1.01-.2-1.79-.72-2.34-.52-.56-1.2-.85-2.05-.89s-1.56.21-2.13.73c-.58.51-.88,1.27-.92,2.28l-.33,8.61-2.81-.11.33-8.61c.04-1.01-.2-1.79-.72-2.34-.53-.56-1.21-.85-2.06-.89s-1.55.21-2.11.73c-.59.51-.9,1.27-.94,2.28l-.33,8.61-2.81-.11.55-14.43Z"/>
    </g>
    <g>
      <ellipse class="st3" cx="296.46" cy="76.65" rx="31.11" ry="20.54" transform="translate(-7.92 43.21) rotate(-8.23)"/>
      <path class="st16" d="M285.52,72.08l2.78-.4.22,1.52h.05c.78-1.27,1.95-2.02,3.49-2.24.99-.13,1.82-.07,2.47.16.65.27,1.26.65,1.84,1.13.94-1.43,2.35-2.27,4.23-2.52,1.18-.17,2.33.09,3.43.78,1.1.7,1.78,1.87,2.05,3.5l1.37,9.5-2.78.4-1.23-8.52c-.14-1-.52-1.73-1.13-2.17-.61-.46-1.33-.62-2.18-.5s-1.49.49-1.96,1.1c-.48.6-.64,1.41-.5,2.41l1.23,8.52-2.78.4-1.23-8.52c-.14-1-.52-1.73-1.13-2.17-.62-.45-1.35-.62-2.19-.5s-1.49.49-1.94,1.1c-.48.61-.65,1.41-.51,2.41l1.23,8.52-2.78.4-2.07-14.3Z"/>
    </g>
    <g>
      <ellipse class="st4" cx="450.43" cy="162.09" rx="31.11" ry="20.54" transform="translate(-23.21 92.63) rotate(-11.45)"/>
      <path class="st16" d="M439.25,158.15l2.76-.56.3,1.5h.05c.71-1.32,1.83-2.13,3.36-2.44.99-.18,1.81-.17,2.48.02.66.24,1.29.58,1.9,1.02.86-1.48,2.22-2.4,4.08-2.76,1.17-.24,2.33-.04,3.47.59,1.13.64,1.88,1.77,2.25,3.38l1.91,9.41-2.76.56-1.71-8.44c-.2-.99-.62-1.69-1.25-2.11-.63-.42-1.37-.55-2.2-.38s-1.46.57-1.89,1.21c-.44.63-.56,1.44-.36,2.43l1.71,8.44-2.75.56-1.71-8.44c-.2-.99-.62-1.69-1.25-2.11-.64-.42-1.38-.54-2.21-.38s-1.46.57-1.88,1.2c-.45.63-.57,1.44-.37,2.44l1.71,8.44-2.76.56-2.87-14.16Z"/>
    </g>
    <g>
      <ellipse class="st7" cx="236.8" cy="283.54" rx="31.11" ry="20.54" transform="translate(-70.66 78.75) rotate(-16.47)"/>
      <path class="st16" d="M225.32,280.59l2.7-.8.43,1.47.05-.02c.59-1.37,1.64-2.27,3.13-2.71.97-.27,1.79-.33,2.47-.19.68.18,1.34.46,1.98.85.72-1.55,2-2.58,3.83-3.1,1.15-.34,2.32-.24,3.51.28,1.19.54,2.03,1.6,2.53,3.17l2.72,9.21-2.7.8-2.44-8.26c-.29-.97-.76-1.63-1.43-1.99-.67-.36-1.41-.43-2.22-.18s-1.41.7-1.78,1.37c-.38.67-.43,1.48-.15,2.46l2.44,8.26-2.69.8-2.44-8.26c-.29-.97-.76-1.63-1.43-1.99-.68-.36-1.42-.42-2.24-.18s-1.4.7-1.77,1.36c-.39.67-.45,1.49-.16,2.46l2.44,8.26-2.7.8-4.09-13.85Z"/>
    </g>
    <g>
      <ellipse class="st2" cx="116.07" cy="119.45" rx="31.11" ry="20.54" transform="translate(-29.1 37.8) rotate(-16.47)"/>
      <path class="st16" d="M104.59,116.5l2.7-.8.43,1.47.05-.02c.59-1.37,1.64-2.27,3.13-2.71.97-.27,1.79-.33,2.47-.19.68.18,1.34.46,1.98.85.72-1.55,2-2.58,3.83-3.1,1.15-.34,2.32-.24,3.51.28,1.19.54,2.03,1.6,2.53,3.17l2.72,9.21-2.7.8-2.44-8.26c-.29-.97-.76-1.63-1.43-1.99-.67-.36-1.41-.43-2.22-.18s-1.41.7-1.78,1.37c-.38.67-.43,1.48-.15,2.46l2.44,8.26-2.69.8-2.44-8.26c-.29-.97-.76-1.63-1.43-1.99-.68-.36-1.42-.42-2.24-.18s-1.4.7-1.77,1.36c-.39.67-.45,1.49-.16,2.46l2.44,8.26-2.7.8-4.09-13.85Z"/>
    </g>
    <g>
      <ellipse class="st6" cx="535.4" cy="148.28" rx="31.11" ry="20.54" transform="translate(-20.07 157.85) rotate(-16.47)"/>
      <path class="st16" d="M523.92,145.33l2.7-.8.43,1.47.05-.02c.59-1.37,1.64-2.27,3.13-2.71.97-.27,1.79-.33,2.47-.19.68.18,1.34.46,1.98.85.72-1.55,2-2.58,3.83-3.1,1.15-.34,2.32-.24,3.51.28,1.19.54,2.03,1.6,2.53,3.17l2.72,9.21-2.7.8-2.44-8.26c-.29-.97-.76-1.63-1.43-1.99-.67-.36-1.41-.43-2.22-.18s-1.41.7-1.78,1.37c-.38.67-.43,1.48-.15,2.46l2.44,8.26-2.69.8-2.44-8.26c-.29-.97-.76-1.63-1.43-1.99-.68-.36-1.42-.42-2.24-.18s-1.4.7-1.77,1.36c-.39.67-.45,1.49-.16,2.46l2.44,8.26-2.7.8-4.09-13.85Z"/>
    </g>
    <g>
      <ellipse class="st5" cx="155.54" cy="162.09" rx="31.11" ry="20.54" transform="translate(-14.5 15.28) rotate(-5.37)"/>
      <path class="st16" d="M144.84,156.99l2.8-.26.14,1.52h.05c.84-1.23,2.04-1.92,3.59-2.06,1-.08,1.82.02,2.46.29.63.3,1.23.71,1.78,1.22,1.01-1.38,2.46-2.15,4.35-2.31,1.19-.11,2.32.21,3.39.95,1.06.76,1.68,1.96,1.88,3.6l.9,9.56-2.8.26-.81-8.57c-.09-1.01-.43-1.75-1.02-2.23-.59-.49-1.3-.69-2.15-.61s-1.52.41-2.01,1c-.51.58-.71,1.37-.62,2.38l.81,8.57-2.8.26-.81-8.57c-.09-1.01-.43-1.75-1.02-2.23-.6-.48-1.32-.69-2.16-.61s-1.51.41-2,1c-.51.58-.72,1.37-.63,2.38l.81,8.57-2.8.26-1.35-14.38Z"/>
    </g>
    <g>
      <ellipse class="st2" cx="285.52" cy="285.3" rx="20.54" ry="31.11" transform="translate(-68.7 478.81) rotate(-73.63)"/>
      <path class="st16" d="M277.47,276.6l2.7.79-.43,1.47.05.02c1.24-.83,2.61-1.02,4.1-.58.96.3,1.68.69,2.18,1.18.48.52.88,1.11,1.2,1.79,1.45-.91,3.08-1.09,4.9-.53,1.15.34,2.08,1.05,2.79,2.14.7,1.1.84,2.44.41,4.04l-2.71,9.21-2.7-.79,2.43-8.26c.29-.97.24-1.79-.12-2.45-.36-.67-.95-1.12-1.77-1.36s-1.56-.18-2.24.18c-.68.35-1.17,1.01-1.45,1.98l-2.43,8.26-2.69-.79,2.43-8.26c.29-.97.24-1.79-.12-2.45-.37-.67-.97-1.13-1.78-1.37s-1.56-.18-2.22.19c-.69.35-1.18,1.01-1.47,1.98l-2.43,8.26-2.7-.79,4.07-13.86Z"/>
    </g>
    <g>
      <ellipse class="st3" cx="353.92" cy="294.44" rx="31.11" ry="20.54" transform="translate(-38.49 53.68) rotate(-8.23)"/>
      <path class="st16" d="M342.98,289.88l2.78-.4.22,1.52h.05c.78-1.27,1.95-2.02,3.49-2.24.99-.13,1.82-.07,2.47.16.65.27,1.26.65,1.84,1.13.94-1.43,2.35-2.27,4.23-2.52,1.18-.17,2.33.09,3.43.78,1.1.7,1.78,1.87,2.05,3.5l1.37,9.5-2.78.4-1.23-8.52c-.14-1-.52-1.73-1.13-2.17-.61-.46-1.33-.62-2.18-.5s-1.49.49-1.96,1.1c-.48.6-.64,1.41-.5,2.41l1.23,8.52-2.78.4-1.23-8.52c-.14-1-.52-1.73-1.13-2.17-.62-.45-1.35-.62-2.19-.5s-1.49.49-1.94,1.1c-.48.61-.65,1.41-.51,2.41l1.23,8.52-2.78.4-2.07-14.3Z"/>
    </g>
    <g>
      <ellipse class="st7" cx="389.26" cy="78.05" rx="20.54" ry="31.11" transform="translate(204.64 429.52) rotate(-73.63)"/>
      <path class="st16" d="M381.21,69.35l2.7.79-.43,1.47.05.02c1.24-.83,2.61-1.02,4.1-.58.96.3,1.68.69,2.18,1.18.48.52.88,1.11,1.2,1.79,1.45-.91,3.08-1.09,4.9-.53,1.15.34,2.08,1.05,2.79,2.14.7,1.1.84,2.44.41,4.04l-2.71,9.21-2.7-.79,2.43-8.26c.29-.97.24-1.79-.12-2.45-.36-.67-.95-1.12-1.77-1.36s-1.56-.18-2.24.18c-.68.35-1.17,1.01-1.45,1.98l-2.43,8.26-2.69-.79,2.43-8.26c.29-.97.24-1.79-.12-2.45-.37-.67-.97-1.13-1.78-1.37s-1.56-.18-2.22.19c-.69.35-1.18,1.01-1.47,1.98l-2.43,8.26-2.7-.79,4.07-13.86Z"/>
    </g>
    <g>
      <ellipse class="st6" cx="248.67" cy="122.87" rx="31.11" ry="20.54" transform="translate(-27.3 95.03) rotate(-20.53)"/>
      <path class="st16" d="M237.01,120.74l2.63-.99.54,1.43.05-.02c.49-1.4,1.47-2.38,2.93-2.93.94-.33,1.76-.46,2.45-.37.69.13,1.37.36,2.03.71.61-1.6,1.81-2.72,3.6-3.37,1.12-.42,2.29-.41,3.52.03,1.22.45,2.14,1.45,2.75,2.98l3.37,8.99-2.63.99-3.02-8.06c-.36-.95-.88-1.58-1.57-1.88-.69-.32-1.44-.32-2.23-.03s-1.36.8-1.68,1.49c-.34.69-.33,1.51.03,2.46l3.02,8.06-2.63.99-3.02-8.06c-.36-.95-.88-1.58-1.57-1.88-.7-.31-1.45-.32-2.25-.02s-1.35.79-1.67,1.49c-.34.7-.34,1.52.02,2.46l3.02,8.06-2.63.99-5.07-13.53Z"/>
    </g>
  </g>
</svg>