<?xml version="1.0" encoding="UTF-8"?>
<svg xmlns="http://www.w3.org/2000/svg" version="1.1" viewBox="0 0 600 500">
  <!-- Generator: Adobe Illustrator 29.8.2, SVG Export Plug-In . SVG Version: 2.1.1 Build 3)  -->
  <defs>
    <style>
      .st0 {
        fill: #ffe399;
      }

      .st0, .st1, .st2, .st3, .st4, .st5, .st6, .st7, .st8, .st9, .st10, .st11, .st12, .st13 {
        stroke-miterlimit: 10;
      }

      .st0, .st2, .st3, .st6, .st7, .st9, .st10, .st11, .st12, .st13 {
        stroke: #000;
      }

      .st0, .st4, .st7, .st9, .st10, .st11, .st13 {
        stroke-width: 3px;
      }

      .st1 {
        opacity: .8;
      }

      .st1, .st8 {
        fill: #930;
        stroke: #862000;
        stroke-width: 5px;
      }

      .st2 {
        fill: #fbffaa;
      }

      .st2, .st3, .st6, .st12 {
        stroke-width: 2px;
      }

      .st3 {
        fill: #44fcff;
      }

      .st4 {
        fill: #fff;
        opacity: .39;
        stroke: #fff;
      }

      .st5 {
        fill: #fff2bb;
        stroke: #fc6;
        stroke-width: .75px;
      }

      .st14 {
        opacity: .15;
      }

      .st15 {
        opacity: .14;
      }

      .st6 {
        fill: #ff666a;
      }

      .st7 {
        fill: #fc6;
      }

      .st10 {
        fill: #7e2000;
      }

      .st11 {
        fill: #ffe3b2;
      }

      .st16 {
        display: none;
      }

      .st12 {
        fill: #ff88e5;
      }

      .st13 {
        fill: none;
      }
    </style>
  </defs>
  <g id="donuts" class="st16">
    <path class="st0" d="M307.11,42.24C139.62,46.67,3.73,114.74,3.73,253.07c0,118.66,101.12,210.83,303.38,210.83,84.67,0,151.58-12.28,200.8-36.87-1.36-3.68-2.15-7.59-2.33-11.53-3.86-4.69-6.04-10.54-6.42-17.26-2.15-1.07-4.63-2.61-7.6-4.8-10.96-8.11-10.72-28.07-6.6-36.25h0s0,0,0,0c-36.89-21.96-10.29-63.82-10.29-63.82-26.22-51.44,26.51-69.31,26.51-69.31-.01-5.77.9-16.19,7.67-25.78,10.98-15.56,32.78-22.43,55.17-17.4,2.15-2.19,6.01-5.57,11.74-8.01,5.51-2.35,10.43-2.84,13.46-2.92-43.49-79.47-149.72-131.18-282.08-127.68ZM307.11,252.98c-44.85,0-81.22-11.72-81.22-26.18s36.37-26.18,81.22-26.18,81.22,11.72,81.22,26.18-36.37,26.18-81.22,26.18Z"/>
    <path class="st8" d="M589.67,170.5"/>
    <path class="st11" d="M589.67,170.5s31.3,159.28-39.93,171.15c-3.4,3.22-9.52,8.2-18.48,11.61-9.3,3.53-17.48,3.77-22.21,3.56-.79-.75-10.68,11.08-24.12.64-.13-.1-.07-.33-.22-.41-3-1.75-33.54-20.9-9.63-63.11,2.18-3.85-30.36-45.47,26.51-69.31,0,0-.12-53.39,62.4-43.77,0,0,12.59-12.14,25.68-10.35Z"/>
    <path class="st5" d="M484.45,357.22s0,0,0,0h0c-18.27-10.87-20.97-26.62-19.04-39.76-45.03,13.19-98.42,22.29-158.57,20.76-157.4-3.99-265.11-78.29-300.88-105.38-.72,11.28-.92,23.72-.25,37.14.42,8.46,1.15,16.46,2.08,23.97,38.31,26.71,146.13,94.38,299.98,95.69,67.97.58,127.11-11.95,175.19-28.26.41-1.58.91-2.99,1.5-4.16Z"/>
    <path class="st13" d="M306.63,41.06C139.14,45.49,3.25,113.56,3.25,251.89c0,118.66,101.12,210.83,303.38,210.83,84.71,0,151.62-12.3,200.85-36.91-1.1-3.31-1.73-6.8-1.89-10.3-3.79-4.61-5.96-10.32-6.4-16.89-2.06-1.06-4.42-2.54-7.21-4.6-10.96-8.11-10.72-28.07-6.6-36.25,0,0,0,0,0,0h0c-36.89-21.96-10.29-63.82-10.29-63.82-26.22-51.44,26.51-69.31,26.51-69.31,0-5.78.94-16.16,7.67-25.78,10.91-15.59,32.47-22.62,54.73-17.99,2.5-2.18,6.55-5.2,12.2-7.44,5.42-2.15,10.24-2.76,13.49-2.92-42.88-80.46-149.71-132.96-283.05-129.44ZM306.63,251.81c-44.85,0-81.22-11.72-81.22-26.18s36.37-26.18,81.22-26.18,81.22,11.72,81.22,26.18-36.37,26.18-81.22,26.18Z"/>
    <path class="st14" d="M589.19,169.93l4.1,24.37c-1.19-.76-5.81-3.51-11.97-2.59-7.38,1.11-11.24,6.63-11.87,7.56-3.53-1.7-16.57-7.48-31.91-2.94-23.92,7.08-30.58,32.51-30.88,33.76-3.64,2.04-15.97,9.54-22.21,25.33-6.98,17.69-1.37,33.23,0,36.74,0,0-23.27,49.49,0,54.78l.26,10.11s-34.01-20.22-10.06-63.69c0,0-28.11-47.58,26.51-69.31,0,0-.54-53.11,62.83-43.18,0,0,11.05-12.08,25.2-10.93Z"/>
    <g>
      <path class="st7" d="M310.26,252.96c-1.2.01-2.41.02-3.63.02,1.22,0,2.42,0,3.63-.02Z"/>
      <path class="st7" d="M306.63,148.28c-62.43,0-113.04,23.44-113.04,52.35,0,23.07,32.21,42.65,76.93,49.63-26.73-4.28-45.12-13.18-45.12-23.45,0-14.45,36.37-26.18,81.22-26.18s81.22,11.72,81.22,26.18c0,10.27-18.38,19.17-45.12,23.45,44.72-6.98,76.93-26.56,76.93-49.63,0-28.92-50.6-52.35-113.04-52.35h0Z"/>
      <path class="st7" d="M299.57,252.89c.71.02,1.42.04,2.13.05-.72-.01-1.42-.04-2.13-.05Z"/>
      <path class="st7" d="M313.7,252.89c-.71.02-1.42.04-2.13.05.72-.01,1.42-.04,2.13-.05Z"/>
      <path class="st7" d="M306.63,252.99c-1.22,0-2.42-.01-3.63-.02,1.2.01,2.42.02,3.63.02Z"/>
    </g>
    <g class="st15">
      <path class="st9" d="M310.74,252.96c-1.2.01-2.41.02-3.63.02,1.22,0,2.42,0,3.63-.02Z"/>
      <path class="st9" d="M307.11,148.28c-62.43,0-113.04,23.44-113.04,52.35,0,23.07,32.21,42.65,76.93,49.63-26.73-4.28-45.12-13.18-45.12-23.45,0-14.45,36.37-26.18,81.22-26.18s81.22,11.72,81.22,26.18c0,10.27-18.38,19.17-45.12,23.45,44.72-6.98,76.93-26.56,76.93-49.63,0-28.92-50.6-52.35-113.04-52.35h0Z"/>
      <path class="st9" d="M300.05,252.89c.71.02,1.42.04,2.13.05-.72-.01-1.42-.04-2.13-.05Z"/>
      <path class="st9" d="M314.18,252.89c-.71.02-1.42.04-2.13.05.72-.01,1.42-.04,2.13-.05Z"/>
      <path class="st9" d="M307.11,252.99c-1.22,0-2.42-.01-3.63-.02,1.2.01,2.42.02,3.63.02Z"/>
    </g>
  </g>
  <g id="fourrage" class="st16">
    <path class="st1" d="M537.06,235.42s42.79-7.67,34.43,34.43c0,0,9.64,23.51-12.42,26.47,0,0-4.12,12.96-22.01,7.95,0,0-43.01,2.85-34.43-27.15,0,0-4.89-31.34,10.79-32.29,0,0,7.07-18.67,23.64-9.41Z"/>
  </g>
  <g id="glaçage" class="st16">
    <path class="st10" d="M312.06,34.35S17,32.8,3.25,215.43c0,0-.86,2.63,3.08,5.56,0,0,208.11,162.05,463.28,82.73l5.04-10.36s-26.11-48.78,26.51-69.31c0,0,1.09-55,62.83-43.18,0,0,10.32-10.46,25.2-10.93l4.1-.08s-44.57-136.28-281.24-135.5ZM307.11,252.99c-112.79-2.37-113.52-52.37-113.52-52.37,7.4-52.41,113.04-52.34,113.04-52.34,108.82,1.26,113.04,52.34,113.04,52.34-7.2,52.83-112.55,52.37-112.55,52.37Z"/>
    <ellipse class="st4" cx="470.86" cy="111.08" rx="39.68" ry="21.67"/>
  </g>
  <g id="toppings">
    <path class="st12" d="M143.49,198.68c1.43-4.12-.74-8.62-4.86-10.05-2.3-.8-4.71-.48-6.65.68-.8-2.11-2.49-3.86-4.79-4.66-4.12-1.43-8.62.74-10.05,4.86-.84,2.42-.44,4.98.88,6.96l6.72,13.91,14.03-6.78-.04-.08c2.15-.78,3.95-2.49,4.76-4.82Z"/>
    <path class="st3" d="M107.64,127.21c-1.43-4.12-5.93-6.3-10.05-4.87-2.3.8-3.99,2.55-4.79,4.66-1.94-1.16-4.35-1.49-6.65-.69-4.12,1.43-6.3,5.93-4.87,10.05.84,2.42,2.74,4.17,5.01,4.92l13.9,6.74,6.8-14.03-.08-.04c1.2-1.95,1.55-4.4.74-6.73Z"/>
    <path class="st2" d="M189.2,139.44c-.38-4.34-4.22-7.56-8.56-7.17-2.42.21-4.49,1.5-5.78,3.35-1.59-1.6-3.86-2.5-6.28-2.29-4.34.38-7.56,4.22-7.17,8.56.23,2.55,1.64,4.72,3.66,5.99l11.84,9.92,10.01-11.95-.07-.06c1.64-1.6,2.58-3.89,2.36-6.35Z"/>
    <path class="st3" d="M166.13,258.37c-.81-4.29-4.94-7.1-9.23-6.29-2.39.45-4.32,1.94-5.42,3.91-1.75-1.43-4.09-2.11-6.48-1.65-4.29.81-7.1,4.94-6.29,9.23.48,2.52,2.1,4.53,4.23,5.6l12.76,8.7,8.78-12.88-.07-.05c1.47-1.75,2.18-4.13,1.72-6.55Z"/>
    <path class="st12" d="M305.77,79.28c-.66-4.31-4.68-7.28-8.99-6.62-2.4.37-4.39,1.78-5.56,3.71-1.69-1.49-4.01-2.25-6.41-1.89-4.31.66-7.28,4.68-6.62,8.99.39,2.54,1.94,4.6,4.03,5.75l12.44,9.16,9.24-12.55-.07-.05c1.54-1.7,2.33-4.05,1.95-6.49Z"/>
    <path class="st3" d="M252.76,120.67c1.51-4.09-.58-8.63-4.67-10.15-2.28-.84-4.7-.57-6.66.55-.76-2.12-2.42-3.91-4.7-4.75-4.09-1.51-8.63.58-10.15,4.67-.89,2.41-.53,4.97.74,6.98l6.45,14.03,14.16-6.51-.04-.08c2.17-.74,3.99-2.42,4.85-4.73Z"/>
    <path class="st3" d="M411.68,59.85c-1.34-4.15-5.79-6.43-9.94-5.08-2.31.75-4.04,2.46-4.89,4.56-1.91-1.2-4.32-1.58-6.63-.83-4.15,1.34-6.43,5.79-5.08,9.94.79,2.44,2.65,4.23,4.9,5.02l13.75,7.03,7.09-13.88-.08-.04c1.24-1.92,1.64-4.37.88-6.72Z"/>
    <path class="st6" d="M471.59,161.71c1.62-4.05-.34-8.65-4.39-10.27-2.26-.91-4.69-.69-6.67.37-.7-2.14-2.31-3.98-4.57-4.88-4.05-1.62-8.65.34-10.27,4.39-.96,2.38-.67,4.95.55,6.99l6.07,14.2,14.34-6.12-.04-.08c2.19-.68,4.06-2.31,4.98-4.6Z"/>
    <path class="st6" d="M244.32,279.47c1.76-3.99-.04-8.65-4.03-10.41-2.22-.98-4.66-.86-6.68.14-.63-2.17-2.17-4.05-4.4-5.04-3.99-1.76-8.65.04-10.41,4.03-1.04,2.35-.84,4.92.31,7.01l5.58,14.4,14.54-5.63-.03-.08c2.21-.61,4.13-2.17,5.13-4.42Z"/>
    <path class="st12" d="M552.32,132.98c-2.71-3.41-7.68-3.98-11.1-1.27-1.9,1.51-2.92,3.73-2.98,5.98-2.21-.45-4.6.04-6.5,1.55-3.41,2.71-3.98,7.68-1.27,11.1,1.6,2.01,3.97,3.03,6.35,2.98l15.34,1.75,1.77-15.49h-.09c.49-2.25,0-4.68-1.53-6.61Z"/>
    <path class="st2" d="M370.1,112.94c-2.06-3.84-6.85-5.29-10.69-3.23-2.14,1.15-3.54,3.15-4,5.35-2.09-.84-4.53-.78-6.67.37-3.84,2.06-5.29,6.85-3.23,10.69,1.21,2.26,3.37,3.69,5.72,4.07l14.78,4.47,4.51-14.92-.09-.03c.88-2.11.84-4.59-.33-6.77Z"/>
    <path class="st2" d="M57.29,183.81c.77-4.29-2.09-8.4-6.38-9.16-2.39-.43-4.73.27-6.46,1.72-1.12-1.96-3.07-3.42-5.46-3.85-4.29-.77-8.4,2.09-9.16,6.38-.45,2.52.35,4.98,1.96,6.74l8.83,12.67,12.79-8.91-.05-.07c2-1.11,3.5-3.08,3.94-5.51Z"/>
    <path class="st3" d="M311.78,294.39c-1.37-4.14-5.84-6.39-9.98-5.02-2.31.76-4.03,2.49-4.86,4.59-1.92-1.19-4.33-1.55-6.64-.78-4.14,1.37-6.39,5.84-5.02,9.98.81,2.43,2.68,4.21,4.93,4.99l13.8,6.94,7-13.93-.08-.04c1.23-1.93,1.61-4.38.84-6.72Z"/>
    <path class="st6" d="M437.91,241.34c-1.32-4.16-5.76-6.46-9.92-5.14-2.32.74-4.06,2.44-4.91,4.53-1.9-1.21-4.31-1.6-6.63-.86-4.16,1.32-6.46,5.76-5.14,9.92.78,2.44,2.63,4.24,4.87,5.05l13.71,7.1,7.17-13.84-.08-.04c1.25-1.92,1.67-4.36.92-6.71Z"/>
    <path class="st2" d="M388.58,293.51c.95-4.26-1.73-8.48-5.98-9.43-2.37-.53-4.74.07-6.53,1.44-1.04-2-2.92-3.55-5.29-4.08-4.26-.95-8.48,1.73-9.43,5.98-.56,2.5.14,4.99,1.67,6.81l8.27,13.04,13.16-8.35-.05-.08c2.05-1.03,3.63-2.93,4.17-5.34Z"/>
    <path class="st6" d="M199.31,80.38c.85-4.28-1.92-8.44-6.2-9.29-2.39-.48-4.73.18-6.49,1.59-1.08-1.98-3-3.48-5.38-3.96-4.28-.85-8.44,1.92-9.29,6.2-.5,2.51.25,4.99,1.83,6.77l8.57,12.85,12.97-8.65-.05-.07c2.02-1.07,3.57-3.01,4.05-5.43Z"/>
    <path class="st6" d="M93.07,235.07c.69-4.31-2.24-8.36-6.54-9.05-2.4-.39-4.72.35-6.43,1.83-1.16-1.94-3.13-3.37-5.53-3.76-4.31-.69-8.36,2.24-9.05,6.54-.41,2.53.44,4.98,2.08,6.7l9.05,12.52,12.63-9.13-.05-.07c1.98-1.15,3.45-3.14,3.84-5.58Z"/>
    <path class="st6" d="M353.21,59.57c1.01-4.24-1.62-8.5-5.86-9.51-2.37-.56-4.74,0-6.55,1.35-1.01-2.02-2.87-3.59-5.24-4.15-4.24-1.01-8.5,1.62-9.51,5.86-.59,2.5.07,4.99,1.58,6.84l8.1,13.15,13.27-8.18-.05-.08c2.06-1,3.67-2.88,4.24-5.28Z"/>
  </g>
</svg>