<?xml version="1.0" encoding="UTF-8"?>
<svg xmlns="http://www.w3.org/2000/svg" version="1.1" viewBox="0 0 600 500">
  <!-- Generator: Adobe Illustrator 29.8.2, SVG Export Plug-In . SVG Version: 2.1.1 Build 3)  -->
  <defs>
    <style>
      .st0 {
        fill: #ffe399;
      }

      .st0, .st1, .st2, .st3, .st4, .st5, .st6, .st7, .st8, .st9, .st10, .st11, .st12, .st13 {
        stroke-miterlimit: 10;
      }

      .st0, .st2, .st5, .st6, .st7, .st9, .st10, .st11, .st12, .st13 {
        stroke: #000;
      }

      .st0, .st3, .st6, .st9, .st10, .st11, .st13 {
        stroke-width: 3px;
      }

      .st1 {
        opacity: .8;
      }

      .st1, .st8 {
        fill: #930;
        stroke: #862000;
        stroke-width: 5px;
      }

      .st2 {
        fill: #ff666a;
      }

      .st3 {
        fill: #fff;
        opacity: .39;
        stroke: #fff;
      }

      .st4 {
        fill: #fff2bb;
        stroke: #fc6;
        stroke-width: .75px;
      }

      .st5 {
        fill: #fbffaa;
      }

      .st14 {
        opacity: .15;
      }

      .st15 {
        opacity: .14;
      }

      .st6 {
        fill: #fc6;
      }

      .st7 {
        fill: #44fcff;
      }

      .st10 {
        fill: #7e2000;
      }

      .st11 {
        fill: #ffe3b2;
      }

      .st16 {
        display: none;
      }

      .st12 {
        fill: #ff88e5;
      }

      .st13 {
        fill: none;
      }
    </style>
  </defs>
  <g id="donuts" class="st16">
    <path class="st0" d="M307.11,42.24C139.62,46.67,3.73,114.74,3.73,253.07c0,118.66,101.12,210.83,303.38,210.83,84.67,0,151.58-12.28,200.8-36.87-1.36-3.68-2.15-7.59-2.33-11.53-3.86-4.69-6.04-10.54-6.42-17.26-2.15-1.07-4.63-2.61-7.6-4.8-10.96-8.11-10.72-28.07-6.6-36.25h0s0,0,0,0c-36.89-21.96-10.29-63.82-10.29-63.82-26.22-51.44,26.51-69.31,26.51-69.31-.01-5.77.9-16.19,7.67-25.78,10.98-15.56,32.78-22.43,55.17-17.4,2.15-2.19,6.01-5.57,11.74-8.01,5.51-2.35,10.43-2.84,13.46-2.92-43.49-79.47-149.72-131.18-282.08-127.68ZM307.11,252.98c-44.85,0-81.22-11.72-81.22-26.18s36.37-26.18,81.22-26.18,81.22,11.72,81.22,26.18-36.37,26.18-81.22,26.18Z"/>
    <path class="st8" d="M589.67,170.5"/>
    <path class="st11" d="M589.67,170.5s31.3,159.28-39.93,171.15c-3.4,3.22-9.52,8.2-18.48,11.61-9.3,3.53-17.48,3.77-22.21,3.56-.79-.75-10.68,11.08-24.12.64-.13-.1-.07-.33-.22-.41-3-1.75-33.54-20.9-9.63-63.11,2.18-3.85-30.36-45.47,26.51-69.31,0,0-.12-53.39,62.4-43.77,0,0,12.59-12.14,25.68-10.35Z"/>
    <path class="st4" d="M484.45,357.22s0,0,0,0h0c-18.27-10.87-20.97-26.62-19.04-39.76-45.03,13.19-98.42,22.29-158.57,20.76-157.4-3.99-265.11-78.29-300.88-105.38-.72,11.28-.92,23.72-.25,37.14.42,8.46,1.15,16.46,2.08,23.97,38.31,26.71,146.13,94.38,299.98,95.69,67.97.58,127.11-11.95,175.19-28.26.41-1.58.91-2.99,1.5-4.16Z"/>
    <path class="st13" d="M306.63,41.06C139.14,45.49,3.25,113.56,3.25,251.89c0,118.66,101.12,210.83,303.38,210.83,84.71,0,151.62-12.3,200.85-36.91-1.1-3.31-1.73-6.8-1.89-10.3-3.79-4.61-5.96-10.32-6.4-16.89-2.06-1.06-4.42-2.54-7.21-4.6-10.96-8.11-10.72-28.07-6.6-36.25,0,0,0,0,0,0h0c-36.89-21.96-10.29-63.82-10.29-63.82-26.22-51.44,26.51-69.31,26.51-69.31,0-5.78.94-16.16,7.67-25.78,10.91-15.59,32.47-22.62,54.73-17.99,2.5-2.18,6.55-5.2,12.2-7.44,5.42-2.15,10.24-2.76,13.49-2.92-42.88-80.46-149.71-132.96-283.05-129.44ZM306.63,251.81c-44.85,0-81.22-11.72-81.22-26.18s36.37-26.18,81.22-26.18,81.22,11.72,81.22,26.18-36.37,26.18-81.22,26.18Z"/>
    <path class="st14" d="M589.19,169.93l4.1,24.37c-1.19-.76-5.81-3.51-11.97-2.59-7.38,1.11-11.24,6.63-11.87,7.56-3.53-1.7-16.57-7.48-31.91-2.94-23.92,7.08-30.58,32.51-30.88,33.76-3.64,2.04-15.97,9.54-22.21,25.33-6.98,17.69-1.37,33.23,0,36.74,0,0-23.27,49.49,0,54.78l.26,10.11s-34.01-20.22-10.06-63.69c0,0-28.11-47.58,26.51-69.31,0,0-.54-53.11,62.83-43.18,0,0,11.05-12.08,25.2-10.93Z"/>
    <g>
      <path class="st6" d="M310.26,252.96c-1.2.01-2.41.02-3.63.02,1.22,0,2.42,0,3.63-.02Z"/>
      <path class="st6" d="M306.63,148.28c-62.43,0-113.04,23.44-113.04,52.35,0,23.07,32.21,42.65,76.93,49.63-26.73-4.28-45.12-13.18-45.12-23.45,0-14.45,36.37-26.18,81.22-26.18s81.22,11.72,81.22,26.18c0,10.27-18.38,19.17-45.12,23.45,44.72-6.98,76.93-26.56,76.93-49.63,0-28.92-50.6-52.35-113.04-52.35h0Z"/>
      <path class="st6" d="M299.57,252.89c.71.02,1.42.04,2.13.05-.72-.01-1.42-.04-2.13-.05Z"/>
      <path class="st6" d="M313.7,252.89c-.71.02-1.42.04-2.13.05.72-.01,1.42-.04,2.13-.05Z"/>
      <path class="st6" d="M306.63,252.99c-1.22,0-2.42-.01-3.63-.02,1.2.01,2.42.02,3.63.02Z"/>
    </g>
    <g class="st15">
      <path class="st9" d="M310.74,252.96c-1.2.01-2.41.02-3.63.02,1.22,0,2.42,0,3.63-.02Z"/>
      <path class="st9" d="M307.11,148.28c-62.43,0-113.04,23.44-113.04,52.35,0,23.07,32.21,42.65,76.93,49.63-26.73-4.28-45.12-13.18-45.12-23.45,0-14.45,36.37-26.18,81.22-26.18s81.22,11.72,81.22,26.18c0,10.27-18.38,19.17-45.12,23.45,44.72-6.98,76.93-26.56,76.93-49.63,0-28.92-50.6-52.35-113.04-52.35h0Z"/>
      <path class="st9" d="M300.05,252.89c.71.02,1.42.04,2.13.05-.72-.01-1.42-.04-2.13-.05Z"/>
      <path class="st9" d="M314.18,252.89c-.71.02-1.42.04-2.13.05.72-.01,1.42-.04,2.13-.05Z"/>
      <path class="st9" d="M307.11,252.99c-1.22,0-2.42-.01-3.63-.02,1.2.01,2.42.02,3.63.02Z"/>
    </g>
  </g>
  <g id="fourrage" class="st16">
    <path class="st1" d="M537.06,235.42s42.79-7.67,34.43,34.43c0,0,9.64,23.51-12.42,26.47,0,0-4.12,12.96-22.01,7.95,0,0-43.01,2.85-34.43-27.15,0,0-4.89-31.34,10.79-32.29,0,0,7.07-18.67,23.64-9.41Z"/>
  </g>
  <g id="glaçage" class="st16">
    <path class="st10" d="M312.06,34.35S17,32.8,3.25,215.43c0,0-.86,2.63,3.08,5.56,0,0,208.11,162.05,463.28,82.73l5.04-10.36s-26.11-48.78,26.51-69.31c0,0,1.09-55,62.83-43.18,0,0,10.32-10.46,25.2-10.93l4.1-.08s-44.57-136.28-281.24-135.5ZM307.11,252.99c-112.79-2.37-113.52-52.37-113.52-52.37,7.4-52.41,113.04-52.34,113.04-52.34,108.82,1.26,113.04,52.34,113.04,52.34-7.2,52.83-112.55,52.37-112.55,52.37Z"/>
    <ellipse class="st3" cx="470.86" cy="111.08" rx="39.68" ry="21.67"/>
  </g>
  <g id="toppings">
    <polygon class="st5" points="68.31 139.14 69.86 149.43 80.12 151.13 70.81 155.79 72.36 166.08 65.06 158.66 55.75 163.31 60.55 154.08 53.25 146.66 63.51 148.37 68.31 139.14"/>
    <polygon class="st2" points="403.99 261.78 403.07 272.15 412.65 276.22 402.51 278.55 401.59 288.92 396.24 279.99 386.1 282.33 392.93 274.48 387.58 265.55 397.15 269.63 403.99 261.78"/>
    <polygon class="st12" points="467.92 167.11 472.35 176.53 482.68 175.24 475.08 182.35 479.51 191.77 470.39 186.75 462.8 193.87 464.76 183.65 455.64 178.63 465.97 177.33 467.92 167.11"/>
    <polygon class="st5" points="251.85 259.97 251.85 270.38 261.75 273.59 251.85 276.81 251.85 287.21 245.73 278.79 235.83 282.01 241.95 273.59 235.83 265.17 245.73 268.39 251.85 259.97"/>
    <polygon class="st2" points="334.2 288.43 323.83 289.32 321.47 299.45 317.42 289.86 307.05 290.75 314.92 283.94 310.88 274.35 319.79 279.73 327.66 272.92 325.29 283.05 334.2 288.43"/>
    <polygon class="st2" points="357.79 61.12 365.52 68.08 374.53 62.88 370.3 72.39 378.03 79.35 367.68 78.26 363.45 87.77 361.29 77.59 350.94 76.5 359.95 71.3 357.79 61.12"/>
    <polygon class="st2" points="296.83 102 305.95 107.02 313.54 99.9 311.58 110.12 320.7 115.14 310.37 116.44 308.41 126.66 303.99 117.24 293.66 118.54 301.25 111.42 296.83 102"/>
    <polygon class="st5" points="221.46 72.22 223.78 82.36 234.14 83.29 225.21 88.63 227.52 98.78 219.69 91.93 210.75 97.27 214.84 87.7 207.01 80.85 217.37 81.78 221.46 72.22"/>
    <polygon class="st7" points="154.65 167.22 159.56 176.4 169.8 174.58 162.59 182.08 167.49 191.26 158.13 186.71 150.91 194.21 152.34 183.9 142.98 179.36 153.22 177.53 154.65 167.22"/>
    <polygon class="st12" points="179.97 240.03 183.19 249.93 193.59 249.93 185.17 256.04 188.39 265.94 179.97 259.83 171.55 265.94 174.77 256.04 166.35 249.93 176.75 249.93 179.97 240.03"/>
    <polygon class="st12" points="147.01 107.26 147.73 117.64 157.83 120.16 148.19 124.06 148.91 134.44 142.22 126.47 132.58 130.37 138.09 121.54 131.4 113.57 141.49 116.09 147.01 107.26"/>
    <polygon class="st2" points="81.25 200.85 86.15 210.03 96.39 208.21 89.18 215.71 94.08 224.89 84.72 220.34 77.5 227.84 78.93 217.53 69.57 212.99 79.82 211.16 81.25 200.85"/>
    <polygon class="st2" points="201.16 119.9 205.58 129.32 215.91 128.03 208.32 135.14 212.74 144.56 203.63 139.54 196.04 146.66 197.99 136.44 188.88 131.42 199.2 130.13 201.16 119.9"/>
    <polygon class="st7" points="401.06 120.85 398.21 130.86 406.86 136.66 396.46 137.05 393.62 147.06 390.03 137.29 379.63 137.68 387.82 131.25 384.23 121.48 392.87 127.28 401.06 120.85"/>
    <polygon class="st7" points="284.99 48.76 284.08 59.12 293.65 63.2 283.51 65.53 282.59 75.9 277.24 66.97 267.1 69.3 273.93 61.46 268.58 52.53 278.16 56.61 284.99 48.76"/>
    <polygon class="st7" points="128.82 240.96 128.32 251.36 138.05 255.05 128.01 257.78 127.51 268.17 121.8 259.47 111.76 262.2 118.28 254.09 112.58 245.38 122.31 249.08 128.82 240.96"/>
    <polygon class="st7" points="549.27 129.73 543.76 138.56 550.45 146.53 540.35 144.01 534.84 152.84 534.11 142.46 524.02 139.94 533.66 136.04 532.93 125.66 539.63 133.63 549.27 129.73"/>
    <polygon class="st5" points="411.61 60.49 418.64 68.16 428.11 63.85 422.99 72.91 430.02 80.58 419.82 78.5 414.7 87.56 413.52 77.22 403.32 75.15 412.79 70.83 411.61 60.49"/>
  </g>
</svg>