<?xml version="1.0" encoding="UTF-8"?>
<svg xmlns="http://www.w3.org/2000/svg" version="1.1" viewBox="0 0 600 500">
  <!-- Generator: Adobe Illustrator 30.1.0, SVG Export Plug-In . SVG Version: 2.1.1 Build 136)  -->
  <defs>
    <style>
      .st0 {
        fill: #1f1f1f;
      }

      .st0, .st1, .st2, .st3, .st4, .st5, .st6, .st7, .st8, .st9, .st10, .st11 {
        stroke-miterlimit: 10;
      }

      .st0, .st1, .st2, .st5, .st7, .st9, .st10, .st11 {
        stroke: #000;
      }

      .st0, .st7 {
        stroke-width: 1.5px;
      }

      .st12 {
        opacity: .14;
      }

      .st1 {
        fill: #fc6;
      }

      .st1, .st2, .st5, .st6, .st9, .st10, .st11 {
        stroke-width: 3px;
      }

      .st3 {
        fill: #fff2bb;
        stroke: #fc6;
        stroke-width: .75px;
      }

      .st4, .st8 {
        fill: #930;
        stroke: #862000;
        stroke-width: 5px;
      }

      .st5 {
        fill: #7e2000;
      }

      .st6 {
        opacity: .39;
        stroke: #fff;
      }

      .st6, .st7 {
        fill: #fff;
      }

      .st8 {
        opacity: .8;
      }

      .st13 {
        opacity: .15;
      }

      .st9 {
        fill: #ffe3b2;
      }

      .st14 {
        display: none;
      }

      .st10 {
        fill: none;
      }

      .st11 {
        fill: #ffe399;
      }
    </style>
  </defs>
  <g id="donuts" class="st14">
    <path class="st11" d="M307.11,42.24C139.62,46.67,3.73,114.74,3.73,253.07c0,118.66,101.12,210.83,303.38,210.83,84.67,0,151.58-12.28,200.8-36.87-1.36-3.68-2.15-7.59-2.33-11.53-3.86-4.69-6.04-10.54-6.42-17.26-2.15-1.07-4.63-2.61-7.6-4.8-10.96-8.11-10.72-28.07-6.6-36.25h0s0,0,0,0c-36.89-21.96-10.29-63.82-10.29-63.82-26.22-51.44,26.51-69.31,26.51-69.31-.01-5.77.9-16.19,7.67-25.78,10.98-15.56,32.78-22.43,55.17-17.4,2.15-2.19,6.01-5.57,11.74-8.01,5.51-2.35,10.43-2.84,13.46-2.92-43.49-79.47-149.72-131.18-282.08-127.68ZM307.11,252.98c-44.85,0-81.22-11.72-81.22-26.18s36.37-26.18,81.22-26.18,81.22,11.72,81.22,26.18-36.37,26.18-81.22,26.18Z"/>
    <path class="st4" d="M589.67,170.5"/>
    <path class="st9" d="M589.67,170.5s31.3,159.28-39.93,171.15c-3.4,3.22-9.52,8.2-18.48,11.61-9.3,3.53-17.48,3.77-22.21,3.56-.79-.75-10.68,11.08-24.12.64-.13-.1-.07-.33-.22-.41-3-1.75-33.54-20.9-9.63-63.11,2.18-3.85-30.36-45.47,26.51-69.31,0,0-.12-53.39,62.4-43.77,0,0,12.59-12.14,25.68-10.35Z"/>
    <path class="st3" d="M484.45,357.22s0,0,0,0h0c-18.27-10.87-20.97-26.62-19.04-39.76-45.03,13.19-98.42,22.29-158.57,20.76-157.4-3.99-265.11-78.29-300.88-105.38-.72,11.28-.92,23.72-.25,37.14.42,8.46,1.15,16.46,2.08,23.97,38.31,26.71,146.13,94.38,299.98,95.69,67.97.58,127.11-11.95,175.19-28.26.41-1.58.91-2.99,1.5-4.16Z"/>
    <path class="st10" d="M306.63,41.06C139.14,45.49,3.25,113.56,3.25,251.89c0,118.66,101.12,210.83,303.38,210.83,84.71,0,151.62-12.3,200.85-36.91-1.1-3.31-1.73-6.8-1.89-10.3-3.79-4.61-5.96-10.32-6.4-16.89-2.06-1.06-4.42-2.54-7.21-4.6-10.96-8.11-10.72-28.07-6.6-36.25,0,0,0,0,0,0h0c-36.89-21.96-10.29-63.82-10.29-63.82-26.22-51.44,26.51-69.31,26.51-69.31,0-5.78.94-16.16,7.67-25.78,10.91-15.59,32.47-22.62,54.73-17.99,2.5-2.18,6.55-5.2,12.2-7.44,5.42-2.15,10.24-2.76,13.49-2.92-42.88-80.46-149.71-132.96-283.05-129.44ZM306.63,251.81c-44.85,0-81.22-11.72-81.22-26.18s36.37-26.18,81.22-26.18,81.22,11.72,81.22,26.18-36.37,26.18-81.22,26.18Z"/>
    <path class="st13" d="M589.19,169.93l4.1,24.37c-1.19-.76-5.81-3.51-11.97-2.59-7.38,1.11-11.24,6.63-11.87,7.56-3.53-1.7-16.57-7.48-31.91-2.94-23.92,7.08-30.58,32.51-30.88,33.76-3.64,2.04-15.97,9.54-22.21,25.33-6.98,17.69-1.37,33.23,0,36.74,0,0-23.27,49.49,0,54.78l.26,10.11s-34.01-20.22-10.06-63.69c0,0-28.11-47.58,26.51-69.31,0,0-.54-53.11,62.83-43.18,0,0,11.05-12.08,25.2-10.93Z"/>
    <g>
      <path class="st1" d="M310.26,252.96c-1.2.01-2.41.02-3.63.02,1.22,0,2.42,0,3.63-.02Z"/>
      <path class="st1" d="M306.63,148.28c-62.43,0-113.04,23.44-113.04,52.35,0,23.07,32.21,42.65,76.93,49.63-26.73-4.28-45.12-13.18-45.12-23.45,0-14.45,36.37-26.18,81.22-26.18s81.22,11.72,81.22,26.18c0,10.27-18.38,19.17-45.12,23.45,44.72-6.98,76.93-26.56,76.93-49.63,0-28.92-50.6-52.35-113.04-52.35h0Z"/>
      <path class="st1" d="M299.57,252.89c.71.02,1.42.04,2.13.05-.72-.01-1.42-.04-2.13-.05Z"/>
      <path class="st1" d="M313.7,252.89c-.71.02-1.42.04-2.13.05.72-.01,1.42-.04,2.13-.05Z"/>
      <path class="st1" d="M306.63,252.99c-1.22,0-2.42-.01-3.63-.02,1.2.01,2.42.02,3.63.02Z"/>
    </g>
    <g class="st12">
      <path class="st2" d="M310.74,252.96c-1.2.01-2.41.02-3.63.02,1.22,0,2.42,0,3.63-.02Z"/>
      <path class="st2" d="M307.11,148.28c-62.43,0-113.04,23.44-113.04,52.35,0,23.07,32.21,42.65,76.93,49.63-26.73-4.28-45.12-13.18-45.12-23.45,0-14.45,36.37-26.18,81.22-26.18s81.22,11.72,81.22,26.18c0,10.27-18.38,19.17-45.12,23.45,44.72-6.98,76.93-26.56,76.93-49.63,0-28.92-50.6-52.35-113.04-52.35h0Z"/>
      <path class="st2" d="M300.05,252.89c.71.02,1.42.04,2.13.05-.72-.01-1.42-.04-2.13-.05Z"/>
      <path class="st2" d="M314.18,252.89c-.71.02-1.42.04-2.13.05.72-.01,1.42-.04,2.13-.05Z"/>
      <path class="st2" d="M307.11,252.99c-1.22,0-2.42-.01-3.63-.02,1.2.01,2.42.02,3.63.02Z"/>
    </g>
  </g>
  <g id="fourrage" class="st14">
    <path class="st8" d="M537.06,235.42s42.79-7.67,34.43,34.43c0,0,9.64,23.51-12.42,26.47,0,0-4.12,12.96-22.01,7.95,0,0-43.01,2.85-34.43-27.15,0,0-4.89-31.34,10.79-32.29,0,0,7.07-18.67,23.64-9.41Z"/>
  </g>
  <g id="glaçage" class="st14">
    <path class="st5" d="M312.06,34.35S17,32.8,3.25,215.43c0,0-.86,2.63,3.08,5.56,0,0,208.11,162.05,463.28,82.73l5.04-10.36s-26.11-48.78,26.51-69.31c0,0,1.09-55,62.83-43.18,0,0,10.32-10.46,25.2-10.93l4.1-.08s-44.57-136.28-281.24-135.5ZM307.11,252.99c-112.79-2.37-113.52-52.37-113.52-52.37,7.4-52.41,113.04-52.34,113.04-52.34,108.82,1.26,113.04,52.34,113.04,52.34-7.2,52.83-112.55,52.37-112.55,52.37Z"/>
    <ellipse class="st6" cx="470.86" cy="111.08" rx="39.68" ry="21.67"/>
  </g>
  <g id="toppings">
    <g>
      <ellipse class="st0" cx="56.95" cy="199.04" rx="11.61" ry="30.24" transform="translate(-148.51 224.46) rotate(-81.09)"/>
      <ellipse class="st7" cx="57.8" cy="193.6" rx="10.67" ry="27.8" transform="translate(-142.42 220.71) rotate(-81.09)"/>
      <ellipse class="st0" cx="59.02" cy="185.83" rx="11.61" ry="30.24" transform="translate(-133.71 215.34) rotate(-81.09)"/>
    </g>
    <ellipse class="st0" cx="118.68" cy="126.01" rx="11.61" ry="30.24" transform="translate(-24.2 223.73) rotate(-81.09)"/>
    <ellipse class="st7" cx="119.53" cy="120.58" rx="10.67" ry="27.8" transform="translate(-18.12 219.98) rotate(-81.09)"/>
    <ellipse class="st0" cx="120.75" cy="112.81" rx="11.61" ry="30.24" transform="translate(-9.4 214.62) rotate(-81.09)"/>
    <ellipse class="st0" cx="141.09" cy="253.44" rx="30.24" ry="11.61" transform="translate(-36.27 23.92) rotate(-8.59)"/>
    <ellipse class="st7" cx="140.27" cy="248.01" rx="27.8" ry="10.67" transform="translate(-35.47 23.73) rotate(-8.59)"/>
    <ellipse class="st0" cx="139.09" cy="240.22" rx="30.24" ry="11.61" transform="translate(-34.32 23.47) rotate(-8.59)"/>
    <ellipse class="st0" cx="207.96" cy="137.4" rx="30.24" ry="11.61" transform="translate(-18.19 32.6) rotate(-8.59)"/>
    <ellipse class="st7" cx="207.14" cy="131.97" rx="27.8" ry="10.67" transform="translate(-17.39 32.42) rotate(-8.59)"/>
    <ellipse class="st0" cx="205.96" cy="124.18" rx="30.24" ry="11.61" transform="translate(-16.24 32.16) rotate(-8.59)"/>
    <ellipse class="st0" cx="237.2" cy="74.61" rx="11.61" ry="30.24" transform="translate(135.21 301.38) rotate(-83.25)"/>
    <ellipse class="st7" cx="237.85" cy="69.15" rx="10.67" ry="27.8" transform="translate(141.2 297.21) rotate(-83.25)"/>
    <ellipse class="st0" cx="238.77" cy="61.33" rx="11.61" ry="30.24" transform="translate(149.78 291.23) rotate(-83.25)"/>
    <ellipse class="st0" cx="146.39" cy="200.11" rx="11.61" ry="30.24" transform="translate(-82.93 294.38) rotate(-76.16)"/>
    <ellipse class="st7" cx="147.7" cy="194.77" rx="10.67" ry="27.8" transform="translate(-76.75 291.59) rotate(-76.16)"/>
    <ellipse class="st0" cx="149.58" cy="187.13" rx="11.61" ry="30.24" transform="translate(-67.89 287.6) rotate(-76.16)"/>
    <ellipse class="st0" cx="236.17" cy="281.67" rx="11.61" ry="30.24" transform="translate(-78.69 471.33) rotate(-81.09)"/>
    <ellipse class="st7" cx="237.02" cy="276.23" rx="10.67" ry="27.8" transform="translate(-72.61 467.59) rotate(-81.09)"/>
    <ellipse class="st0" cx="238.24" cy="268.46" rx="11.61" ry="30.24" transform="translate(-63.9 462.22) rotate(-81.09)"/>
    <ellipse class="st0" cx="370.5" cy="124.76" rx="30.24" ry="11.61" transform="translate(-18.02 81.29) rotate(-12.23)"/>
    <ellipse class="st7" cx="369.34" cy="119.38" rx="27.8" ry="10.67" transform="translate(-16.9 80.92) rotate(-12.23)"/>
    <ellipse class="st0" cx="367.67" cy="111.69" rx="30.24" ry="11.61" transform="translate(-15.31 80.39) rotate(-12.23)"/>
    <ellipse class="st0" cx="454.17" cy="169.54" rx="11.61" ry="30.24" transform="translate(232.39 600.61) rotate(-83.25)"/>
    <ellipse class="st7" cx="454.81" cy="164.08" rx="10.67" ry="27.8" transform="translate(238.38 596.43) rotate(-83.25)"/>
    <ellipse class="st0" cx="455.74" cy="156.26" rx="11.61" ry="30.24" transform="translate(246.96 590.46) rotate(-83.25)"/>
    <ellipse class="st0" cx="353.24" cy="293.53" rx="30.24" ry="11.61" transform="translate(-39.88 56.06) rotate(-8.59)"/>
    <ellipse class="st7" cx="352.42" cy="288.09" rx="27.8" ry="10.67" transform="translate(-39.08 55.87) rotate(-8.59)"/>
    <ellipse class="st0" cx="351.25" cy="280.31" rx="30.24" ry="11.61" transform="translate(-37.93 55.61) rotate(-8.59)"/>
    <ellipse class="st0" cx="291.91" cy="117.72" rx="11.61" ry="30.24" transform="translate(140.67 393.76) rotate(-83.25)"/>
    <ellipse class="st7" cx="292.56" cy="112.26" rx="10.67" ry="27.8" transform="translate(146.66 389.58) rotate(-83.25)"/>
    <ellipse class="st0" cx="293.48" cy="104.44" rx="11.61" ry="30.24" transform="translate(155.24 383.6) rotate(-83.25)"/>
    <ellipse class="st0" cx="350.65" cy="75.65" rx="11.61" ry="30.24" transform="translate(193.32 398.02) rotate(-76.16)"/>
    <ellipse class="st7" cx="351.96" cy="70.31" rx="10.67" ry="27.8" transform="translate(199.5 395.23) rotate(-76.16)"/>
    <ellipse class="st0" cx="353.84" cy="62.66" rx="11.61" ry="30.24" transform="translate(208.35 391.24) rotate(-76.16)"/>
    <ellipse class="st0" cx="427.11" cy="256.24" rx="30.24" ry="11.61" transform="translate(-63.55 170.6) rotate(-21.06)"/>
    <ellipse class="st7" cx="425.14" cy="251.11" rx="27.8" ry="10.67" transform="translate(-61.84 169.55) rotate(-21.06)"/>
    <ellipse class="st0" cx="422.31" cy="243.76" rx="30.24" ry="11.61" transform="translate(-59.39 168.04) rotate(-21.06)"/>
  </g>
</svg>