<?xml version="1.0" encoding="UTF-8"?>
<svg xmlns="http://www.w3.org/2000/svg" version="1.1" viewBox="0 0 600 500">
  <!-- Generator: Adobe Illustrator 30.1.0, SVG Export Plug-In . SVG Version: 2.1.1 Build 136)  -->
  <defs>
    <style>
      .st0 {
        fill: #fee;
        stroke: #550200;
        stroke-width: .5px;
      }

      .st0, .st1, .st2, .st3, .st4, .st5, .st6, .st7, .st8, .st9, .st10 {
        stroke-miterlimit: 10;
      }

      .st11 {
        opacity: .14;
      }

      .st1 {
        fill: #fc6;
      }

      .st1, .st2, .st5, .st6, .st8, .st9, .st10 {
        stroke-width: 3px;
      }

      .st1, .st2, .st5, .st8, .st9, .st10 {
        stroke: #000;
      }

      .st3 {
        fill: #fff2bb;
        stroke: #fc6;
        stroke-width: .75px;
      }

      .st4, .st7 {
        fill: #930;
        stroke: #862000;
        stroke-width: 5px;
      }

      .st5 {
        fill: #7e2000;
      }

      .st6 {
        fill: #fff;
        opacity: .39;
        stroke: #fff;
      }

      .st7 {
        opacity: .8;
      }

      .st12 {
        opacity: .15;
      }

      .st8 {
        fill: #ffe3b2;
      }

      .st13 {
        display: none;
      }

      .st9 {
        fill: none;
      }

      .st10 {
        fill: #ffe399;
      }
    </style>
  </defs>
  <g id="donuts" class="st13">
    <path class="st10" d="M307.11,42.24C139.62,46.67,3.73,114.74,3.73,253.07c0,118.66,101.12,210.83,303.38,210.83,84.67,0,151.58-12.28,200.8-36.87-1.36-3.68-2.15-7.59-2.33-11.53-3.86-4.69-6.04-10.54-6.42-17.26-2.15-1.07-4.63-2.61-7.6-4.8-10.96-8.11-10.72-28.07-6.6-36.25h0s0,0,0,0c-36.89-21.96-10.29-63.82-10.29-63.82-26.22-51.44,26.51-69.31,26.51-69.31-.01-5.77.9-16.19,7.67-25.78,10.98-15.56,32.78-22.43,55.17-17.4,2.15-2.19,6.01-5.57,11.74-8.01,5.51-2.35,10.43-2.84,13.46-2.92-43.49-79.47-149.72-131.18-282.08-127.68ZM307.11,252.98c-44.85,0-81.22-11.72-81.22-26.18s36.37-26.18,81.22-26.18,81.22,11.72,81.22,26.18-36.37,26.18-81.22,26.18Z"/>
    <path class="st4" d="M589.67,170.5"/>
    <path class="st8" d="M589.67,170.5s31.3,159.28-39.93,171.15c-3.4,3.22-9.52,8.2-18.48,11.61-9.3,3.53-17.48,3.77-22.21,3.56-.79-.75-10.68,11.08-24.12.64-.13-.1-.07-.33-.22-.41-3-1.75-33.54-20.9-9.63-63.11,2.18-3.85-30.36-45.47,26.51-69.31,0,0-.12-53.39,62.4-43.77,0,0,12.59-12.14,25.68-10.35Z"/>
    <path class="st3" d="M484.45,357.22s0,0,0,0h0c-18.27-10.87-20.97-26.62-19.04-39.76-45.03,13.19-98.42,22.29-158.57,20.76-157.4-3.99-265.11-78.29-300.88-105.38-.72,11.28-.92,23.72-.25,37.14.42,8.46,1.15,16.46,2.08,23.97,38.31,26.71,146.13,94.38,299.98,95.69,67.97.58,127.11-11.95,175.19-28.26.41-1.58.91-2.99,1.5-4.16Z"/>
    <path class="st9" d="M306.63,41.06C139.14,45.49,3.25,113.56,3.25,251.89c0,118.66,101.12,210.83,303.38,210.83,84.71,0,151.62-12.3,200.85-36.91-1.1-3.31-1.73-6.8-1.89-10.3-3.79-4.61-5.96-10.32-6.4-16.89-2.06-1.06-4.42-2.54-7.21-4.6-10.96-8.11-10.72-28.07-6.6-36.25,0,0,0,0,0,0h0c-36.89-21.96-10.29-63.82-10.29-63.82-26.22-51.44,26.51-69.31,26.51-69.31,0-5.78.94-16.16,7.67-25.78,10.91-15.59,32.47-22.62,54.73-17.99,2.5-2.18,6.55-5.2,12.2-7.44,5.42-2.15,10.24-2.76,13.49-2.92-42.88-80.46-149.71-132.96-283.05-129.44ZM306.63,251.81c-44.85,0-81.22-11.72-81.22-26.18s36.37-26.18,81.22-26.18,81.22,11.72,81.22,26.18-36.37,26.18-81.22,26.18Z"/>
    <path class="st12" d="M589.19,169.93l4.1,24.37c-1.19-.76-5.81-3.51-11.97-2.59-7.38,1.11-11.24,6.63-11.87,7.56-3.53-1.7-16.57-7.48-31.91-2.94-23.92,7.08-30.58,32.51-30.88,33.76-3.64,2.04-15.97,9.54-22.21,25.33-6.98,17.69-1.37,33.23,0,36.74,0,0-23.27,49.49,0,54.78l.26,10.11s-34.01-20.22-10.06-63.69c0,0-28.11-47.58,26.51-69.31,0,0-.54-53.11,62.83-43.18,0,0,11.05-12.08,25.2-10.93Z"/>
    <g>
      <path class="st1" d="M310.26,252.96c-1.2.01-2.41.02-3.63.02,1.22,0,2.42,0,3.63-.02Z"/>
      <path class="st1" d="M306.63,148.28c-62.43,0-113.04,23.44-113.04,52.35,0,23.07,32.21,42.65,76.93,49.63-26.73-4.28-45.12-13.18-45.12-23.45,0-14.45,36.37-26.18,81.22-26.18s81.22,11.72,81.22,26.18c0,10.27-18.38,19.17-45.12,23.45,44.72-6.98,76.93-26.56,76.93-49.63,0-28.92-50.6-52.35-113.04-52.35h0Z"/>
      <path class="st1" d="M299.57,252.89c.71.02,1.42.04,2.13.05-.72-.01-1.42-.04-2.13-.05Z"/>
      <path class="st1" d="M313.7,252.89c-.71.02-1.42.04-2.13.05.72-.01,1.42-.04,2.13-.05Z"/>
      <path class="st1" d="M306.63,252.99c-1.22,0-2.42-.01-3.63-.02,1.2.01,2.42.02,3.63.02Z"/>
    </g>
    <g class="st11">
      <path class="st2" d="M310.74,252.96c-1.2.01-2.41.02-3.63.02,1.22,0,2.42,0,3.63-.02Z"/>
      <path class="st2" d="M307.11,148.28c-62.43,0-113.04,23.44-113.04,52.35,0,23.07,32.21,42.65,76.93,49.63-26.73-4.28-45.12-13.18-45.12-23.45,0-14.45,36.37-26.18,81.22-26.18s81.22,11.72,81.22,26.18c0,10.27-18.38,19.17-45.12,23.45,44.72-6.98,76.93-26.56,76.93-49.63,0-28.92-50.6-52.35-113.04-52.35h0Z"/>
      <path class="st2" d="M300.05,252.89c.71.02,1.42.04,2.13.05-.72-.01-1.42-.04-2.13-.05Z"/>
      <path class="st2" d="M314.18,252.89c-.71.02-1.42.04-2.13.05.72-.01,1.42-.04,2.13-.05Z"/>
      <path class="st2" d="M307.11,252.99c-1.22,0-2.42-.01-3.63-.02,1.2.01,2.42.02,3.63.02Z"/>
    </g>
  </g>
  <g id="fourrage" class="st13">
    <path class="st7" d="M537.06,235.42s42.79-7.67,34.43,34.43c0,0,9.64,23.51-12.42,26.47,0,0-4.12,12.96-22.01,7.95,0,0-43.01,2.85-34.43-27.15,0,0-4.89-31.34,10.79-32.29,0,0,7.07-18.67,23.64-9.41Z"/>
  </g>
  <g id="glaçage" class="st13">
    <path class="st5" d="M312.06,34.35S17,32.8,3.25,215.43c0,0-.86,2.63,3.08,5.56,0,0,208.11,162.05,463.28,82.73l5.04-10.36s-26.11-48.78,26.51-69.31c0,0,1.09-55,62.83-43.18,0,0,10.32-10.46,25.2-10.93l4.1-.08s-44.57-136.28-281.24-135.5ZM307.11,252.99c-112.79-2.37-113.52-52.37-113.52-52.37,7.4-52.41,113.04-52.34,113.04-52.34,108.82,1.26,113.04,52.34,113.04,52.34-7.2,52.83-112.55,52.37-112.55,52.37Z"/>
    <ellipse class="st6" cx="470.86" cy="111.08" rx="39.68" ry="21.67"/>
  </g>
  <g id="toppings">
    <polygon class="st0" points="51.4 143.22 51.95 146.88 55.6 147.49 52.29 149.14 52.84 152.8 50.25 150.16 46.94 151.82 48.64 148.53 46.05 145.9 49.7 146.5 51.4 143.22"/>
    <polygon class="st0" points="170.77 186.83 170.44 190.52 173.85 191.97 170.24 192.79 169.92 196.48 168.01 193.31 164.41 194.14 166.84 191.35 164.93 188.17 168.34 189.62 170.77 186.83"/>
    <polygon class="st0" points="193.51 153.17 195.08 156.52 198.75 156.06 196.05 158.59 197.63 161.94 194.38 160.15 191.68 162.68 192.38 159.05 189.14 157.26 192.81 156.8 193.51 153.17"/>
    <polygon class="st0" points="116.67 186.19 116.67 189.89 120.19 191.03 116.67 192.17 116.67 195.88 114.49 192.88 110.98 194.02 113.15 191.03 110.98 188.04 114.49 189.18 116.67 186.19"/>
    <polygon class="st0" points="145.95 196.31 142.27 196.62 141.43 200.23 139.99 196.82 136.3 197.13 139.1 194.71 137.66 191.3 140.83 193.21 143.63 190.79 142.79 194.4 145.95 196.31"/>
    <polygon class="st0" points="154.34 115.48 157.09 117.95 160.3 116.1 158.79 119.48 161.54 121.96 157.86 121.57 156.36 124.95 155.59 121.33 151.91 120.95 155.11 119.1 154.34 115.48"/>
    <polygon class="st0" points="132.67 130.01 135.91 131.8 138.61 129.27 137.91 132.9 141.15 134.69 137.48 135.15 136.78 138.78 135.21 135.43 131.54 135.9 134.24 133.36 132.67 130.01"/>
    <polygon class="st0" points="105.86 119.42 106.69 123.03 110.37 123.36 107.2 125.26 108.02 128.87 105.23 126.43 102.06 128.33 103.51 124.93 100.72 122.49 104.41 122.83 105.86 119.42"/>
    <polygon class="st0" points="82.11 153.21 83.85 156.47 87.49 155.82 84.93 158.49 86.67 161.75 83.34 160.14 80.78 162.8 81.29 159.14 77.96 157.52 81.6 156.87 82.11 153.21"/>
    <polygon class="st0" points="91.11 179.1 92.25 182.62 95.95 182.62 92.96 184.79 94.1 188.31 91.11 186.14 88.12 188.31 89.26 184.79 86.27 182.62 89.97 182.62 91.11 179.1"/>
    <polygon class="st0" points="79.39 131.88 79.65 135.58 83.24 136.47 79.81 137.86 80.07 141.55 77.69 138.72 74.26 140.1 76.22 136.96 73.84 134.13 77.43 135.02 79.39 131.88"/>
    <polygon class="st0" points="56.01 165.17 57.75 168.43 61.39 167.78 58.83 170.45 60.57 173.71 57.24 172.1 54.67 174.76 55.18 171.1 51.85 169.48 55.5 168.83 56.01 165.17"/>
    <polygon class="st0" points="98.65 136.38 100.22 139.73 103.89 139.27 101.19 141.8 102.76 145.15 99.52 143.36 96.82 145.9 97.52 142.26 94.28 140.48 97.95 140.02 98.65 136.38"/>
    <polygon class="st0" points="169.73 136.72 168.72 140.28 171.79 142.34 168.09 142.48 167.08 146.04 165.81 142.56 162.11 142.7 165.02 140.42 163.74 136.94 166.82 139 169.73 136.72"/>
    <polygon class="st0" points="128.46 111.08 128.13 114.77 131.53 116.22 127.93 117.05 127.6 120.73 125.7 117.56 122.09 118.39 124.52 115.6 122.62 112.42 126.03 113.87 128.46 111.08"/>
    <polygon class="st0" points="72.92 179.43 72.74 183.12 76.2 184.44 72.63 185.41 72.45 189.1 70.43 186.01 66.86 186.98 69.17 184.1 67.15 181 70.61 182.31 72.92 179.43"/>
    <polygon class="st0" points="222.43 139.88 220.47 143.01 222.85 145.85 219.26 144.95 217.3 148.09 217.04 144.4 213.45 143.51 216.88 142.12 216.62 138.43 219 141.26 222.43 139.88"/>
    <polygon class="st0" points="173.48 115.25 175.98 117.98 179.35 116.45 177.53 119.67 180.03 122.4 176.4 121.66 174.58 124.88 174.16 121.2 170.53 120.47 173.9 118.93 173.48 115.25"/>
    <polygon class="st0" points="187.73 79.91 188.28 83.57 191.93 84.17 188.62 85.83 189.17 89.49 186.57 86.85 183.26 88.5 184.97 85.22 182.37 82.58 186.02 83.19 187.73 79.91"/>
    <polygon class="st0" points="307.09 123.52 306.77 127.2 310.17 128.65 306.57 129.48 306.24 133.17 304.34 129.99 300.73 130.82 303.16 128.03 301.26 124.86 304.66 126.31 307.09 123.52"/>
    <polygon class="st0" points="329.83 89.86 331.4 93.2 335.08 92.74 332.38 95.27 333.95 98.62 330.71 96.84 328.01 99.37 328.71 95.74 325.46 93.95 329.14 93.49 329.83 89.86"/>
    <polygon class="st0" points="253 122.87 253 126.57 256.51 127.72 253 128.86 253 132.56 250.82 129.57 247.3 130.71 249.48 127.72 247.3 124.72 250.82 125.87 253 122.87"/>
    <polygon class="st0" points="282.28 133 278.59 133.31 277.75 136.91 276.31 133.5 272.63 133.82 275.42 131.4 273.99 127.99 277.15 129.9 279.95 127.48 279.11 131.08 282.28 133"/>
    <polygon class="st0" points="290.67 52.16 293.42 54.64 296.62 52.79 295.12 56.17 297.87 58.65 294.19 58.26 292.68 61.64 291.91 58.02 288.23 57.63 291.44 55.78 290.67 52.16"/>
    <polygon class="st0" points="268.99 66.7 272.23 68.49 274.93 65.95 274.24 69.59 277.48 71.37 273.81 71.84 273.11 75.47 271.54 72.12 267.86 72.58 270.56 70.05 268.99 66.7"/>
    <polygon class="st0" points="242.19 56.11 243.01 59.72 246.7 60.05 243.52 61.95 244.35 65.56 241.56 63.12 238.38 65.02 239.84 61.62 237.05 59.18 240.74 59.51 242.19 56.11"/>
    <polygon class="st0" points="218.43 89.89 220.18 93.16 223.82 92.51 221.25 95.18 223 98.44 219.67 96.82 217.1 99.49 217.61 95.83 214.28 94.21 217.93 93.56 218.43 89.89"/>
    <polygon class="st0" points="227.44 115.78 228.58 119.3 232.28 119.3 229.29 121.48 230.43 125 227.44 122.82 224.44 125 225.59 121.48 222.59 119.3 226.29 119.3 227.44 115.78"/>
    <polygon class="st0" points="215.71 68.57 215.97 72.26 219.56 73.16 216.13 74.55 216.39 78.24 214.01 75.4 210.58 76.79 212.54 73.65 210.16 70.82 213.75 71.71 215.71 68.57"/>
    <polygon class="st0" points="192.33 101.85 194.07 105.12 197.72 104.47 195.15 107.13 196.89 110.4 193.57 108.78 191 111.45 191.51 107.78 188.18 106.17 191.82 105.52 192.33 101.85"/>
    <polygon class="st0" points="234.97 73.07 236.54 76.42 240.22 75.96 237.52 78.49 239.09 81.84 235.85 80.05 233.15 82.58 233.84 78.95 230.6 77.16 234.27 76.7 234.97 73.07"/>
    <polygon class="st0" points="306.05 73.41 305.04 76.96 308.12 79.03 304.42 79.17 303.41 82.72 302.13 79.25 298.43 79.39 301.34 77.1 300.07 73.63 303.14 75.69 306.05 73.41"/>
    <polygon class="st0" points="264.78 47.77 264.45 51.45 267.86 52.9 264.25 53.73 263.93 57.42 262.02 54.25 258.42 55.07 260.85 52.28 258.95 49.11 262.35 50.56 264.78 47.77"/>
    <polygon class="st0" points="209.25 116.12 209.07 119.81 212.53 121.12 208.96 122.1 208.78 125.79 206.75 122.7 203.18 123.67 205.5 120.78 203.47 117.69 206.93 119 209.25 116.12"/>
    <polygon class="st0" points="358.76 76.56 356.8 79.7 359.18 82.54 355.59 81.64 353.63 84.78 353.37 81.09 349.78 80.19 353.21 78.81 352.95 75.12 355.33 77.95 358.76 76.56"/>
    <polygon class="st0" points="309.81 51.94 312.31 54.67 315.67 53.13 313.85 56.36 316.35 59.08 312.73 58.35 310.9 61.57 310.49 57.89 306.86 57.15 310.23 55.62 309.81 51.94"/>
    <polygon class="st0" points="114.67 227.26 115.22 230.92 118.87 231.52 115.56 233.18 116.11 236.84 113.52 234.2 110.2 235.86 111.91 232.57 109.31 229.93 112.96 230.54 114.67 227.26"/>
    <polygon class="st0" points="234.04 270.87 233.71 274.55 237.12 276 233.51 276.83 233.18 280.52 231.28 277.35 227.67 278.18 230.1 275.38 228.2 272.21 231.61 273.66 234.04 270.87"/>
    <polygon class="st0" points="194.37 245.24 195.94 248.59 199.61 248.13 196.91 250.66 198.49 254.01 195.24 252.23 192.55 254.76 193.24 251.12 190 249.34 193.67 248.88 194.37 245.24"/>
    <polygon class="st0" points="179.94 270.23 179.94 273.93 183.46 275.07 179.94 276.21 179.94 279.91 177.76 276.92 174.24 278.06 176.42 275.07 174.24 272.08 177.76 273.22 179.94 270.23"/>
    <polygon class="st0" points="209.22 280.35 205.53 280.66 204.69 284.26 203.25 280.86 199.57 281.17 202.37 278.75 200.93 275.34 204.09 277.25 206.89 274.83 206.05 278.43 209.22 280.35"/>
    <polygon class="st0" points="48.19 200.03 50.94 202.51 54.14 200.66 52.64 204.04 55.39 206.51 51.71 206.13 50.2 209.51 49.43 205.89 45.75 205.5 48.96 203.65 48.19 200.03"/>
    <polygon class="st0" points="160.31 168.15 163.55 169.93 166.25 167.4 165.56 171.04 168.8 172.82 165.13 173.28 164.43 176.92 162.86 173.57 159.18 174.03 161.88 171.5 160.31 168.15"/>
    <polygon class="st0" points="169.13 203.46 169.95 207.07 173.64 207.4 170.46 209.3 171.29 212.91 168.5 210.47 165.32 212.37 166.78 208.97 163.99 206.53 167.68 206.86 169.13 203.46"/>
    <polygon class="st0" points="145.37 237.25 147.12 240.51 150.76 239.86 148.2 242.53 149.94 245.79 146.61 244.18 144.04 246.84 144.55 243.18 141.22 241.56 144.87 240.91 145.37 237.25"/>
    <polygon class="st0" points="154.38 263.14 155.52 266.65 159.22 266.65 156.23 268.83 157.37 272.35 154.38 270.17 151.38 272.35 152.53 268.83 149.53 266.65 153.23 266.65 154.38 263.14"/>
    <polygon class="st0" points="142.66 215.92 142.91 219.61 146.51 220.51 143.07 221.9 143.33 225.59 140.95 222.75 137.52 224.14 139.48 221 137.1 218.17 140.7 219.06 142.66 215.92"/>
    <polygon class="st0" points="119.27 249.2 121.01 252.47 124.66 251.82 122.09 254.49 123.84 257.75 120.51 256.13 117.94 258.8 118.45 255.13 115.12 253.52 118.76 252.87 119.27 249.2"/>
    <polygon class="st0" points="161.91 220.42 163.49 223.77 167.16 223.31 164.46 225.84 166.03 229.19 162.79 227.4 160.09 229.93 160.79 226.3 157.54 224.51 161.22 224.05 161.91 220.42"/>
    <polygon class="st0" points="78.98 225.27 77.97 228.83 81.04 230.9 77.35 231.03 76.34 234.59 75.06 231.12 71.36 231.26 74.27 228.97 73 225.5 76.07 227.56 78.98 225.27"/>
    <polygon class="st0" points="131.76 161.44 131.44 165.13 134.84 166.58 131.24 167.41 130.91 171.09 129.01 167.92 125.4 168.75 127.83 165.96 125.93 162.78 129.33 164.23 131.76 161.44"/>
    <polygon class="st0" points="136.19 263.47 136.01 267.16 139.47 268.47 135.9 269.45 135.72 273.14 133.69 270.05 130.12 271.02 132.44 268.13 130.41 265.04 133.87 266.35 136.19 263.47"/>
    <polygon class="st0" points="268.66 277.13 266.7 280.27 269.08 283.11 265.48 282.21 263.52 285.35 263.27 281.66 259.67 280.77 263.11 279.38 262.85 275.69 265.23 278.52 268.66 277.13"/>
    <polygon class="st0" points="27.43 185.84 29.93 188.57 33.3 187.03 31.47 190.26 33.97 192.98 30.35 192.25 28.53 195.47 28.11 191.79 24.48 191.05 27.85 189.52 27.43 185.84"/>
    <polygon class="st0" points="344.75 99.01 345.3 102.67 348.95 103.28 345.64 104.94 346.19 108.6 343.6 105.96 340.29 107.61 341.99 104.33 339.4 101.69 343.05 102.3 344.75 99.01"/>
    <polygon class="st0" points="464.12 142.63 463.79 146.31 467.2 147.76 463.59 148.59 463.27 152.28 461.36 149.1 457.76 149.93 460.19 147.14 458.28 143.97 461.69 145.42 464.12 142.63"/>
    <polygon class="st0" points="486.02 133.67 487.6 137.02 491.27 136.56 488.57 139.09 490.14 142.44 486.9 140.65 484.2 143.19 484.9 139.55 481.66 137.77 485.33 137.31 486.02 133.67"/>
    <polygon class="st0" points="410.02 141.98 410.02 145.68 413.54 146.83 410.02 147.97 410.02 151.67 407.84 148.68 404.33 149.82 406.5 146.83 404.33 143.83 407.84 144.98 410.02 141.98"/>
    <polygon class="st0" points="439.3 152.1 435.62 152.42 434.78 156.02 433.34 152.61 429.65 152.93 432.45 150.51 431.01 147.1 434.18 149.01 436.98 146.59 436.14 150.19 439.3 152.1"/>
    <polygon class="st0" points="447.69 71.27 450.44 73.75 453.65 71.9 452.14 75.28 454.89 77.76 451.21 77.37 449.7 80.75 448.94 77.13 445.26 76.74 448.46 74.89 447.69 71.27"/>
    <polygon class="st0" points="426.01 85.81 429.26 87.59 431.96 85.06 431.26 88.7 434.5 90.48 430.83 90.94 430.13 94.58 428.56 91.23 424.89 91.69 427.59 89.16 426.01 85.81"/>
    <polygon class="st0" points="399.21 75.22 400.04 78.83 403.72 79.16 400.55 81.06 401.37 84.66 398.58 82.23 395.41 84.13 396.86 80.72 394.07 78.29 397.76 78.62 399.21 75.22"/>
    <polygon class="st0" points="375.46 109 377.2 112.27 380.84 111.62 378.28 114.28 380.02 117.55 376.69 115.93 374.13 118.6 374.64 114.93 371.31 113.32 374.95 112.67 375.46 109"/>
    <polygon class="st0" points="384.46 134.89 385.6 138.41 389.3 138.41 386.31 140.59 387.45 144.11 384.46 141.93 381.47 144.11 382.61 140.59 379.62 138.41 383.32 138.41 384.46 134.89"/>
    <polygon class="st0" points="372.74 87.68 373 91.37 376.59 92.27 373.16 93.65 373.42 97.34 371.04 94.51 367.61 95.9 369.57 92.76 367.19 89.92 370.78 90.82 372.74 87.68"/>
    <polygon class="st0" points="349.35 120.96 351.1 124.23 354.74 123.58 352.18 126.24 353.92 129.51 350.59 127.89 348.02 130.56 348.53 126.89 345.2 125.28 348.85 124.63 349.35 120.96"/>
    <polygon class="st0" points="392 92.18 393.57 95.53 397.24 95.06 394.54 97.6 396.11 100.94 392.87 99.16 390.17 101.69 390.87 98.06 387.63 96.27 391.3 95.81 392 92.18"/>
    <polygon class="st0" points="514.66 128.51 513.65 132.07 516.72 134.13 513.02 134.27 512.01 137.83 510.74 134.35 507.04 134.49 509.95 132.21 508.68 128.73 511.75 130.79 514.66 128.51"/>
    <polygon class="st0" points="421.81 66.88 421.48 70.56 424.88 72.01 421.28 72.84 420.95 76.53 419.05 73.35 415.44 74.18 417.87 71.39 415.97 68.22 419.38 69.67 421.81 66.88"/>
    <polygon class="st0" points="366.27 135.22 366.09 138.92 369.55 140.23 365.98 141.2 365.8 144.9 363.78 141.8 360.21 142.78 362.52 139.89 360.5 136.8 363.96 138.11 366.27 135.22"/>
    <polygon class="st0" points="525.7 100.65 523.74 103.79 526.12 106.63 522.53 105.73 520.57 108.87 520.31 105.18 516.72 104.29 520.15 102.9 519.89 99.21 522.27 102.04 525.7 100.65"/>
    <polygon class="st0" points="466.83 71.05 469.33 73.78 472.7 72.24 470.88 75.46 473.38 78.19 469.75 77.45 467.93 80.68 467.51 77 463.88 76.26 467.25 74.73 466.83 71.05"/>
    <polygon class="st0" points="277.92 88.61 280.67 91.09 283.88 89.24 282.37 92.62 285.12 95.09 281.44 94.71 279.94 98.09 279.17 94.47 275.49 94.08 278.69 92.23 277.92 88.61"/>
    <polygon class="st0" points="256.25 103.15 259.49 104.93 262.19 102.4 261.49 106.03 264.73 107.82 261.06 108.28 260.37 111.92 258.79 108.57 255.12 109.03 257.82 106.5 256.25 103.15"/>
    <polygon class="st0" points="293.31 109.85 292.3 113.41 295.37 115.47 291.67 115.61 290.66 119.17 289.39 115.7 285.69 115.83 288.6 113.55 287.33 110.07 290.4 112.14 293.31 109.85"/>
    <polygon class="st0" points="252.04 84.21 251.71 87.9 255.12 89.35 251.51 90.18 251.18 93.86 249.28 90.69 245.67 91.52 248.1 88.73 246.2 85.56 249.61 87 252.04 84.21"/>
    <polygon class="st0" points="297.06 88.39 299.56 91.11 302.93 89.58 301.11 92.8 303.61 95.53 299.98 94.79 298.16 98.01 297.74 94.34 294.12 93.6 297.48 92.06 297.06 88.39"/>
    <polygon class="st0" points="289.21 255.76 289.76 259.42 293.41 260.03 290.1 261.68 290.65 265.34 288.06 262.7 284.75 264.36 286.45 261.07 283.85 258.44 287.51 259.05 289.21 255.76"/>
    <polygon class="st0" points="408.58 299.37 408.25 303.06 411.66 304.51 408.05 305.34 407.72 309.02 405.82 305.85 402.21 306.68 404.64 303.89 402.74 300.71 406.15 302.16 408.58 299.37"/>
    <polygon class="st0" points="395.45 270.07 397.03 273.42 400.7 272.96 398 275.49 399.57 278.84 396.33 277.06 393.63 279.59 394.33 275.95 391.08 274.17 394.76 273.71 395.45 270.07"/>
    <polygon class="st0" points="390.39 247.78 390.39 251.49 393.91 252.63 390.39 253.77 390.39 257.47 388.22 254.48 384.7 255.62 386.87 252.63 384.7 249.64 388.22 250.78 390.39 247.78"/>
    <polygon class="st0" points="236.87 294.69 233.18 295 232.34 298.6 230.9 295.19 227.22 295.51 230.01 293.09 228.58 289.68 231.74 291.59 234.54 289.17 233.7 292.77 236.87 294.69"/>
    <polygon class="st0" points="319.92 265.75 321.66 269.01 325.3 268.36 322.74 271.03 324.48 274.3 321.15 272.68 318.58 275.35 319.09 271.68 315.76 270.06 319.41 269.41 319.92 265.75"/>
    <polygon class="st0" points="328.92 291.64 330.06 295.16 333.76 295.16 330.77 297.33 331.91 300.85 328.92 298.68 325.92 300.85 327.07 297.33 324.07 295.16 327.77 295.16 328.92 291.64"/>
    <polygon class="st0" points="293.81 277.71 295.56 280.97 299.2 280.32 296.63 282.99 298.38 286.25 295.05 284.64 292.48 287.3 292.99 283.64 289.66 282.02 293.3 281.37 293.81 277.71"/>
    <polygon class="st0" points="310.73 291.97 310.55 295.67 314.01 296.98 310.44 297.95 310.26 301.65 308.23 298.55 304.66 299.52 306.98 296.64 304.95 293.54 308.41 294.86 310.73 291.97"/>
    <polygon class="st0" points="367.63 276.51 370.87 278.29 373.57 275.76 372.87 279.4 376.11 281.18 372.44 281.64 371.75 285.28 370.17 281.93 366.5 282.39 369.2 279.86 367.63 276.51"/>
    <polygon class="st0" points="356.38 259.89 356.06 263.58 359.46 265.03 355.86 265.86 355.53 269.54 353.63 266.37 350.02 267.2 352.45 264.41 350.55 261.23 353.95 262.68 356.38 259.89"/>
    <polygon class="st0" points="332.2 268.69 332.75 272.35 336.4 272.96 333.09 274.61 333.64 278.27 331.04 275.64 327.73 277.29 329.44 274.01 326.84 271.37 330.49 271.98 332.2 268.69"/>
    <polygon class="st0" points="247.32 303.59 246.99 307.28 250.4 308.73 246.79 309.56 246.46 313.24 244.56 310.07 240.95 310.9 243.38 308.11 241.48 304.93 244.89 306.38 247.32 303.59"/>
    <polygon class="st0" points="187.74 237.34 189.31 240.69 192.98 240.23 190.29 242.76 191.86 246.11 188.62 244.33 185.92 246.86 186.61 243.22 183.37 241.44 187.04 240.98 187.74 237.34"/>
    <polygon class="st0" points="423.97 269.35 423.97 273.05 427.49 274.19 423.97 275.34 423.97 279.04 421.79 276.04 418.28 277.19 420.45 274.19 418.28 271.2 421.79 272.34 423.97 269.35"/>
    <polygon class="st0" points="223.36 253.79 219.67 254.1 218.83 257.7 217.39 254.29 213.71 254.61 216.5 252.19 215.07 248.78 218.23 250.69 221.03 248.27 220.19 251.87 223.36 253.79"/>
    <polygon class="st0" points="349.63 287.17 351.37 290.44 355.02 289.79 352.45 292.45 354.19 295.72 350.87 294.1 348.3 296.77 348.81 293.1 345.48 291.49 349.12 290.84 349.63 287.17"/>
    <polygon class="st0" points="371.91 304.57 373.05 308.09 376.75 308.09 373.76 310.27 374.9 313.78 371.91 311.61 368.91 313.78 370.05 310.27 367.06 308.09 370.76 308.09 371.91 304.57"/>
    <polygon class="st0" points="336.8 290.64 338.54 293.9 342.19 293.25 339.62 295.92 341.36 299.19 338.03 297.57 335.47 300.24 335.98 296.57 332.65 294.95 336.29 294.31 336.8 290.64"/>
    <polygon class="st0" points="353.72 304.9 353.54 308.6 357 309.91 353.43 310.88 353.25 314.58 351.22 311.48 347.65 312.46 349.97 309.57 347.94 306.47 351.4 307.79 353.72 304.9"/>
    <polygon class="st0" points="441.11 293.62 444.35 295.41 447.05 292.88 446.35 296.51 449.59 298.3 445.92 298.76 445.22 302.39 443.65 299.04 439.98 299.5 442.68 296.97 441.11 293.62"/>
    <polygon class="st0" points="382.49 291.91 382.16 295.59 385.57 297.04 381.96 297.87 381.63 301.56 379.73 298.38 376.12 299.21 378.55 296.42 376.65 293.25 380.06 294.7 382.49 291.91"/>
    <polygon class="st0" points="407.17 232.12 409.19 235.22 412.76 234.26 410.43 237.14 412.45 240.24 409 238.91 406.67 241.79 406.86 238.1 403.41 236.77 406.98 235.81 407.17 232.12"/>
    <polygon class="st0" points="438.28 215.69 438.67 219.37 442.29 220.13 438.92 221.64 439.31 225.32 436.83 222.57 433.45 224.09 435.3 220.88 432.81 218.13 436.43 218.9 438.28 215.69"/>
    <polygon class="st0" points="441.27 186.19 443.96 188.73 447.21 186.95 445.62 190.3 448.31 192.84 444.64 192.36 443.06 195.71 442.37 192.07 438.7 191.6 441.95 189.82 441.27 186.19"/>
    <polygon class="st0" points="424.09 249.11 421.39 251.64 422.95 254.99 419.71 253.19 417 255.72 417.71 252.08 414.48 250.29 418.15 249.84 418.86 246.21 420.42 249.56 424.09 249.11"/>
    <polygon class="st0" points="471.59 175.1 474.98 176.59 477.44 173.83 477.07 177.52 480.46 179.01 476.84 179.79 476.47 183.47 474.6 180.27 470.99 181.06 473.45 178.3 471.59 175.1"/>
    <polygon class="st0" points="494.65 189.92 497.72 191.98 500.63 189.7 499.62 193.26 502.69 195.32 498.99 195.46 497.98 199.02 496.71 195.54 493.01 195.68 495.92 193.39 494.65 189.92"/>
    <polygon class="st0" points="458.43 200.62 461.82 202.11 464.28 199.35 463.91 203.03 467.29 204.53 463.68 205.31 463.3 208.99 461.44 205.79 457.82 206.57 460.29 203.81 458.43 200.62"/>
    <polygon class="st0" points="480.54 201.4 482.68 204.42 486.22 203.32 484.01 206.29 486.15 209.31 482.64 208.12 480.43 211.09 480.47 207.39 476.97 206.2 480.5 205.1 480.54 201.4"/>
    <polygon class="st0" points="483.08 169.84 485.77 172.38 489.01 170.6 487.43 173.95 490.12 176.49 486.45 176.01 484.87 179.36 484.18 175.72 480.51 175.25 483.76 173.47 483.08 169.84"/>
    <polygon class="st0" points="437.81 249.68 439.83 252.78 443.4 251.82 441.08 254.69 443.09 257.8 439.64 256.47 437.31 259.35 437.5 255.65 434.05 254.33 437.62 253.37 437.81 249.68"/>
    <polygon class="st0" points="500.24 184.27 503.62 185.76 506.09 183 505.72 186.69 509.1 188.18 505.48 188.96 505.11 192.64 503.25 189.44 499.63 190.23 502.1 187.47 500.24 184.27"/>
  </g>
</svg>