<?xml version="1.0" encoding="UTF-8"?>
<svg xmlns="http://www.w3.org/2000/svg" version="1.1" viewBox="0 0 600 500">
  <!-- Generator: Adobe Illustrator 30.1.0, SVG Export Plug-In . SVG Version: 2.1.1 Build 136)  -->
  <defs>
    <style>
      .st0 {
        opacity: .14;
      }

      .st1 {
        fill: #fc6;
      }

      .st1, .st2, .st3, .st4, .st5, .st6, .st7, .st8, .st9, .st10, .st11 {
        stroke-miterlimit: 10;
      }

      .st1, .st2, .st5, .st6, .st9, .st10, .st11 {
        stroke-width: 3px;
      }

      .st1, .st2, .st5, .st8, .st9, .st10, .st11 {
        stroke: #000;
      }

      .st3 {
        fill: #fff2bb;
        stroke: #fc6;
        stroke-width: .75px;
      }

      .st4, .st7 {
        fill: #930;
        stroke: #862000;
        stroke-width: 5px;
      }

      .st5 {
        fill: #7e2000;
      }

      .st6 {
        fill: #fff;
        opacity: .39;
        stroke: #fff;
      }

      .st7 {
        opacity: .8;
      }

      .st12 {
        opacity: .15;
      }

      .st8 {
        fill: #aa5a00;
      }

      .st9 {
        fill: #ffe3b2;
      }

      .st13 {
        display: none;
      }

      .st10 {
        fill: none;
      }

      .st11 {
        fill: #ffe399;
      }
    </style>
  </defs>
  <g id="donuts" class="st13">
    <path class="st11" d="M307.11,42.24C139.62,46.67,3.73,114.74,3.73,253.07c0,118.66,101.12,210.83,303.38,210.83,84.67,0,151.58-12.28,200.8-36.87-1.36-3.68-2.15-7.59-2.33-11.53-3.86-4.69-6.04-10.54-6.42-17.26-2.15-1.07-4.63-2.61-7.6-4.8-10.96-8.11-10.72-28.07-6.6-36.25h0s0,0,0,0c-36.89-21.96-10.29-63.82-10.29-63.82-26.22-51.44,26.51-69.31,26.51-69.31-.01-5.77.9-16.19,7.67-25.78,10.98-15.56,32.78-22.43,55.17-17.4,2.15-2.19,6.01-5.57,11.74-8.01,5.51-2.35,10.43-2.84,13.46-2.92-43.49-79.47-149.72-131.18-282.08-127.68ZM307.11,252.98c-44.85,0-81.22-11.72-81.22-26.18s36.37-26.18,81.22-26.18,81.22,11.72,81.22,26.18-36.37,26.18-81.22,26.18Z"/>
    <path class="st4" d="M589.67,170.5"/>
    <path class="st9" d="M589.67,170.5s31.3,159.28-39.93,171.15c-3.4,3.22-9.52,8.2-18.48,11.61-9.3,3.53-17.48,3.77-22.21,3.56-.79-.75-10.68,11.08-24.12.64-.13-.1-.07-.33-.22-.41-3-1.75-33.54-20.9-9.63-63.11,2.18-3.85-30.36-45.47,26.51-69.31,0,0-.12-53.39,62.4-43.77,0,0,12.59-12.14,25.68-10.35Z"/>
    <path class="st3" d="M484.45,357.22s0,0,0,0h0c-18.27-10.87-20.97-26.62-19.04-39.76-45.03,13.19-98.42,22.29-158.57,20.76-157.4-3.99-265.11-78.29-300.88-105.38-.72,11.28-.92,23.72-.25,37.14.42,8.46,1.15,16.46,2.08,23.97,38.31,26.71,146.13,94.38,299.98,95.69,67.97.58,127.11-11.95,175.19-28.26.41-1.58.91-2.99,1.5-4.16Z"/>
    <path class="st10" d="M306.63,41.06C139.14,45.49,3.25,113.56,3.25,251.89c0,118.66,101.12,210.83,303.38,210.83,84.71,0,151.62-12.3,200.85-36.91-1.1-3.31-1.73-6.8-1.89-10.3-3.79-4.61-5.96-10.32-6.4-16.89-2.06-1.06-4.42-2.54-7.21-4.6-10.96-8.11-10.72-28.07-6.6-36.25,0,0,0,0,0,0h0c-36.89-21.96-10.29-63.82-10.29-63.82-26.22-51.44,26.51-69.31,26.51-69.31,0-5.78.94-16.16,7.67-25.78,10.91-15.59,32.47-22.62,54.73-17.99,2.5-2.18,6.55-5.2,12.2-7.44,5.42-2.15,10.24-2.76,13.49-2.92-42.88-80.46-149.71-132.96-283.05-129.44ZM306.63,251.81c-44.85,0-81.22-11.72-81.22-26.18s36.37-26.18,81.22-26.18,81.22,11.72,81.22,26.18-36.37,26.18-81.22,26.18Z"/>
    <path class="st12" d="M589.19,169.93l4.1,24.37c-1.19-.76-5.81-3.51-11.97-2.59-7.38,1.11-11.24,6.63-11.87,7.56-3.53-1.7-16.57-7.48-31.91-2.94-23.92,7.08-30.58,32.51-30.88,33.76-3.64,2.04-15.97,9.54-22.21,25.33-6.98,17.69-1.37,33.23,0,36.74,0,0-23.27,49.49,0,54.78l.26,10.11s-34.01-20.22-10.06-63.69c0,0-28.11-47.58,26.51-69.31,0,0-.54-53.11,62.83-43.18,0,0,11.05-12.08,25.2-10.93Z"/>
    <g>
      <path class="st1" d="M310.26,252.96c-1.2.01-2.41.02-3.63.02,1.22,0,2.42,0,3.63-.02Z"/>
      <path class="st1" d="M306.63,148.28c-62.43,0-113.04,23.44-113.04,52.35,0,23.07,32.21,42.65,76.93,49.63-26.73-4.28-45.12-13.18-45.12-23.45,0-14.45,36.37-26.18,81.22-26.18s81.22,11.72,81.22,26.18c0,10.27-18.38,19.17-45.12,23.45,44.72-6.98,76.93-26.56,76.93-49.63,0-28.92-50.6-52.35-113.04-52.35h0Z"/>
      <path class="st1" d="M299.57,252.89c.71.02,1.42.04,2.13.05-.72-.01-1.42-.04-2.13-.05Z"/>
      <path class="st1" d="M313.7,252.89c-.71.02-1.42.04-2.13.05.72-.01,1.42-.04,2.13-.05Z"/>
      <path class="st1" d="M306.63,252.99c-1.22,0-2.42-.01-3.63-.02,1.2.01,2.42.02,3.63.02Z"/>
    </g>
    <g class="st0">
      <path class="st2" d="M310.74,252.96c-1.2.01-2.41.02-3.63.02,1.22,0,2.42,0,3.63-.02Z"/>
      <path class="st2" d="M307.11,148.28c-62.43,0-113.04,23.44-113.04,52.35,0,23.07,32.21,42.65,76.93,49.63-26.73-4.28-45.12-13.18-45.12-23.45,0-14.45,36.37-26.18,81.22-26.18s81.22,11.72,81.22,26.18c0,10.27-18.38,19.17-45.12,23.45,44.72-6.98,76.93-26.56,76.93-49.63,0-28.92-50.6-52.35-113.04-52.35h0Z"/>
      <path class="st2" d="M300.05,252.89c.71.02,1.42.04,2.13.05-.72-.01-1.42-.04-2.13-.05Z"/>
      <path class="st2" d="M314.18,252.89c-.71.02-1.42.04-2.13.05.72-.01,1.42-.04,2.13-.05Z"/>
      <path class="st2" d="M307.11,252.99c-1.22,0-2.42-.01-3.63-.02,1.2.01,2.42.02,3.63.02Z"/>
    </g>
  </g>
  <g id="fourrage" class="st13">
    <path class="st7" d="M537.06,235.42s42.79-7.67,34.43,34.43c0,0,9.64,23.51-12.42,26.47,0,0-4.12,12.96-22.01,7.95,0,0-43.01,2.85-34.43-27.15,0,0-4.89-31.34,10.79-32.29,0,0,7.07-18.67,23.64-9.41Z"/>
  </g>
  <g id="glaçage" class="st13">
    <path class="st5" d="M312.06,34.35S17,32.8,3.25,215.43c0,0-.86,2.63,3.08,5.56,0,0,208.11,162.05,463.28,82.73l5.04-10.36s-26.11-48.78,26.51-69.31c0,0,1.09-55,62.83-43.18,0,0,10.32-10.46,25.2-10.93l4.1-.08s-44.57-136.28-281.24-135.5ZM307.11,252.99c-112.79-2.37-113.52-52.37-113.52-52.37,7.4-52.41,113.04-52.34,113.04-52.34,108.82,1.26,113.04,52.34,113.04,52.34-7.2,52.83-112.55,52.37-112.55,52.37Z"/>
    <ellipse class="st6" cx="470.86" cy="111.08" rx="39.68" ry="21.67"/>
  </g>
  <g id="toppings">
    <path class="st8" d="M52.42,167.82s-2.52-.99-4.98.91c0,0-3.64-.47-4.75,2.2,0,0-3.43,1.24-2.55,4.49,0,0-2.04,2.19.06,4.46,0,0-1.06,2.94,1.17,3.36,0,0-1.39,2.63.62,3.91,0,0-.87,3.46.65,4.11,0,0,2.45,8.32,9.84,6.77,0,0,3.74.98,5.26-.95,0,0,2.25,2.06,4.31-.48,0,0,3.81,1.37,4.4-.49,0,0,3.37,1.55,5.58-1.74,0,0,2.92,2.67,5.76-.74,0,0,3.66,2.12,5.27-.34,0,0,3.52,1.52,4.66-1.05,0,0,2.92,2.05,4.82-.36,0,0,3.81,1.89,4.64-.74,0,0,4.8.67,5.83-3.43,0,0,2.03-.16,1.63-3.39,0,0,2.46-1.38.16-3.74,0,0,1.79-1.98-.93-4.06,0,0,2.17-1.43-.74-4.09,0,0,1.5-1.54-.43-3.91,0,0,1.59-2.08-1.19-3.94,0,0-1.82-6.37-9.77-3.79,0,0-1.78-.91-5.05,1.12,0,0-1.94-1.3-4.36.79,0,0-2.5-.99-4.84.57,0,0-2.18-1.15-5.15,1.56,0,0-2.79-1.97-6.04,1.3,0,0-2.86-2.37-5.36.36,0,0-2.52-1.5-4.04.43,0,0-2.68-1.37-4.51.92Z"/>
    <path class="st8" d="M111.4,212.74s-1.91-1.91-4.93-1.17c0,0-3.15-1.89-5.23.11,0,0-3.64-.24-4.14,3.08,0,0-2.74,1.19-1.73,4.11,0,0-2.15,2.27-.27,3.55,0,0-2.33,1.85-1,3.83,0,0-2.18,2.82-1.05,4.03,0,0-1.1,8.6,6.3,10.15,0,0,3.03,2.39,5.2,1.24,0,0,1.23,2.79,4.14,1.29,0,0,2.94,2.78,4.23,1.32,0,0,2.47,2.78,5.81.65,0,0,1.6,3.61,5.58,1.64,0,0,2.5,3.41,4.97,1.81,0,0,2.61,2.81,4.69.91,0,0,1.85,3.05,4.56,1.6,0,0,2.73,3.26,4.55,1.18,0,0,4.13,2.54,6.72-.8,0,0,1.92.67,2.85-2.45,0,0,2.81-.27,1.65-3.36,0,0,2.44-1.09.78-4.09,0,0,2.56-.43.96-4.05,0,0,1.99-.81,1.18-3.75,0,0,2.29-1.26.5-4.09,0,0,.9-6.57-7.43-7.39,0,0-1.26-1.55-5.07-1,0,0-1.26-1.97-4.31-1.02,0,0-1.9-1.91-4.66-1.42,0,0-1.53-1.93-5.34-.64,0,0-1.77-2.92-6.05-1.23,0,0-1.67-3.32-5.06-1.83,0,0-1.71-2.39-3.87-1.23,0,0-1.91-2.33-4.5-.97Z"/>
    <path class="st8" d="M139.61,81.5s-1.9-1.93-4.92-1.21c0,0-3.13-1.92-5.23.07,0,0-3.63-.26-4.16,3.05,0,0-2.75,1.17-1.76,4.09,0,0-2.17,2.25-.3,3.55,0,0-2.35,1.83-1.03,3.82,0,0-2.2,2.8-1.08,4.02,0,0-1.16,8.6,6.22,10.2,0,0,3.01,2.42,5.19,1.28,0,0,1.21,2.8,4.13,1.32,0,0,2.92,2.8,4.22,1.35,0,0,2.44,2.79,5.8.69,0,0,1.58,3.63,5.56,1.68,0,0,2.48,3.43,4.95,1.84,0,0,2.59,2.83,4.68.94,0,0,1.83,3.06,4.55,1.64,0,0,2.71,3.28,4.54,1.22,0,0,4.11,2.58,6.73-.75,0,0,1.92.68,2.87-2.43,0,0,2.81-.25,1.68-3.35,0,0,2.44-1.07.81-4.08,0,0,2.57-.41.99-4.04,0,0,2-.8,1.2-3.74,0,0,2.3-1.25.53-4.08,0,0,.95-6.56-7.37-7.45,0,0-1.25-1.56-5.07-1.03,0,0-1.25-1.98-4.3-1.05,0,0-1.88-1.92-4.65-1.46,0,0-1.52-1.94-5.33-.68,0,0-1.75-2.94-6.04-1.27,0,0-1.65-3.33-5.04-1.86,0,0-1.69-2.4-3.86-1.26,0,0-1.89-2.34-4.5-1Z"/>
    <path class="st8" d="M223.5,93.89s-1.89-1.93-4.92-1.22c0,0-3.13-1.92-5.23.06,0,0-3.63-.27-4.17,3.04,0,0-2.76,1.16-1.77,4.09,0,0-2.17,2.25-.31,3.55,0,0-2.35,1.82-1.04,3.82,0,0-2.21,2.8-1.09,4.02,0,0-1.18,8.59,6.2,10.21,0,0,3.01,2.42,5.18,1.29,0,0,1.2,2.8,4.13,1.33,0,0,2.91,2.81,4.22,1.36,0,0,2.44,2.8,5.8.7,0,0,1.57,3.63,5.56,1.69,0,0,2.47,3.43,4.95,1.85,0,0,2.59,2.84,4.68.95,0,0,1.82,3.06,4.54,1.65,0,0,2.7,3.28,4.54,1.23,0,0,4.1,2.58,6.73-.74,0,0,1.92.68,2.88-2.42,0,0,2.81-.24,1.68-3.35,0,0,2.45-1.07.82-4.08,0,0,2.57-.41,1-4.04,0,0,2-.79,1.21-3.74,0,0,2.3-1.24.54-4.08,0,0,.96-6.56-7.36-7.47,0,0-1.25-1.56-5.07-1.04,0,0-1.24-1.98-4.3-1.06,0,0-1.88-1.93-4.65-1.46,0,0-1.51-1.94-5.33-.69,0,0-1.74-2.94-6.04-1.29,0,0-1.64-3.33-5.04-1.87,0,0-1.68-2.4-3.86-1.27,0,0-1.89-2.35-4.49-1.01Z"/>
    <path class="st8" d="M297.13,78.22s-2.69-.25-4.54,2.25c0,0-3.63.56-3.95,3.43,0,0-2.95,2.14-1.21,5.02,0,0-1.35,2.67,1.29,4.27,0,0-.2,3.12,2.06,2.9,0,0-.61,2.91,1.68,3.59,0,0,.12,3.56,1.77,3.77,0,0,4.66,7.32,11.33,3.78,0,0,3.86-.1,4.79-2.37,0,0,2.73,1.36,4.01-1.66,0,0,4.04.26,4.1-1.69,0,0,3.67.56,4.88-3.22,0,0,3.54,1.75,5.33-2.31,0,0,4.11,1.02,4.97-1.79,0,0,3.81.49,4.19-2.3,0,0,3.37,1.16,4.53-1.68,0,0,4.18.76,4.25-2,0,0,4.8-.68,4.66-4.92,0,0,1.91-.72.63-3.71,0,0,1.99-2.01-.88-3.64,0,0,1.18-2.4-2.01-3.64,0,0,1.69-1.97-1.85-3.73,0,0,1.01-1.9-1.5-3.64,0,0,.95-2.44-2.23-3.46,0,0-3.51-5.62-10.44-.94,0,0-1.96-.39-4.54,2.48,0,0-2.23-.71-3.97,1.97,0,0-2.68-.26-4.49,1.89,0,0-2.41-.5-4.51,2.92,0,0-3.23-1.12-5.44,2.93,0,0-3.41-1.48-5.06,1.83,0,0-2.84-.74-3.77,1.53,0,0-2.96-.57-4.08,2.14Z"/>
    <path class="st8" d="M347.72,109.81s-2.56-.88-4.94,1.12c0,0-3.66-.32-4.65,2.4,0,0-3.37,1.39-2.36,4.59,0,0-1.94,2.28.25,4.45,0,0-.93,2.98,1.32,3.31,0,0-1.28,2.68.78,3.88,0,0-.72,3.49.83,4.08,0,0,2.8,8.21,10.12,6.34,0,0,3.77.82,5.21-1.18,0,0,2.33,1.96,4.29-.66,0,0,3.86,1.21,4.38-.68,0,0,3.44,1.41,5.5-1.97,0,0,3.03,2.54,5.73-.98,0,0,3.75,1.96,5.26-.57,0,0,3.58,1.37,4.61-1.25,0,0,3,1.92,4.8-.57,0,0,3.88,1.72,4.6-.94,0,0,4.83.47,5.68-3.68,0,0,2.02-.25,1.48-3.46,0,0,2.4-1.48,0-3.75,0,0,1.71-2.05-1.1-4.02,0,0,2.11-1.52-.92-4.06,0,0,1.43-1.61-.6-3.89,0,0,1.5-2.14-1.35-3.89,0,0-2.08-6.29-9.92-3.37,0,0-1.81-.84-5,1.34,0,0-2-1.21-4.32.98,0,0-2.54-.88-4.81.78,0,0-2.22-1.06-5.08,1.77,0,0-2.87-1.85-5.97,1.56,0,0-2.96-2.24-5.34.59,0,0-2.58-1.39-4.02.6,0,0-2.74-1.25-4.47,1.12Z"/>
    <path class="st8" d="M436.79,142.22s-2.08-1.73-5.01-.72c0,0-3.31-1.6-5.2.58,0,0-3.64.09-3.85,3.44,0,0-2.63,1.43-1.36,4.25,0,0-1.93,2.46.05,3.56,0,0-2.16,2.05-.65,3.9,0,0-1.92,3-.68,4.1,0,0-.32,8.67,7.19,9.54,0,0,3.23,2.11,5.29.76,0,0,1.48,2.67,4.24.91,0,0,3.18,2.51,4.33.93,0,0,2.71,2.54,5.84.12,0,0,1.92,3.45,5.7,1.13,0,0,2.8,3.17,5.11,1.35,0,0,2.86,2.56,4.75.48,0,0,2.12,2.87,4.68,1.19,0,0,3.01,3,4.64.77,0,0,4.34,2.16,6.62-1.41,0,0,1.98.49,2.62-2.7,0,0,2.77-.52,1.34-3.5,0,0,2.33-1.31.41-4.14,0,0,2.51-.66.59-4.12,0,0,1.91-.99.83-3.84,0,0,2.16-1.47.13-4.12,0,0,.3-6.62-8.06-6.69,0,0-1.4-1.43-5.14-.53,0,0-1.43-1.85-4.38-.63,0,0-2.06-1.73-4.77-.99,0,0-1.7-1.78-5.37-.16,0,0-2.02-2.75-6.14-.68,0,0-1.97-3.15-5.2-1.36,0,0-1.91-2.22-3.97-.88,0,0-2.11-2.15-4.57-.55Z"/>
    <path class="st8" d="M389.18,261.7s-2.62-.68-4.84,1.49c0,0-3.67-.04-4.45,2.75,0,0-3.25,1.64-2,4.76,0,0-1.76,2.42.59,4.42,0,0-.7,3.05,1.56,3.2,0,0-1.07,2.77,1.08,3.81,0,0-.45,3.54,1.14,4,0,0,3.42,7.97,10.58,5.55,0,0,3.83.53,5.11-1.57,0,0,2.48,1.78,4.23-.99,0,0,3.94.91,4.31-1.01,0,0,3.53,1.14,5.34-2.39,0,0,3.22,2.3,5.63-1.42,0,0,3.89,1.67,5.2-.97,0,0,3.68,1.1,4.5-1.6,0,0,3.14,1.69,4.74-.93,0,0,4,1.42,4.52-1.29,0,0,4.85.1,5.39-4.1,0,0,2-.4,1.22-3.56,0,0,2.28-1.66-.28-3.73,0,0,1.55-2.18-1.4-3.92,0,0,1.99-1.68-1.23-3.98,0,0,1.3-1.71-.89-3.83,0,0,1.33-2.25-1.65-3.77,0,0-2.56-6.11-10.15-2.6,0,0-1.87-.7-4.88,1.72,0,0-2.08-1.06-4.23,1.3,0,0-2.6-.68-4.74,1.14,0,0-2.3-.88-4.93,2.16,0,0-3.01-1.62-5.84,2.01,0,0-3.13-2.01-5.28.99,0,0-2.68-1.19-3.96.9,0,0-2.83-1.04-4.37,1.45Z"/>
    <path class="st8" d="M298.08,278.3s-2.6-.76-4.88,1.34c0,0-3.67-.15-4.53,2.62,0,0-3.3,1.54-2.15,4.7,0,0-1.83,2.36.46,4.43,0,0-.79,3.02,1.47,3.24,0,0-1.16,2.74.96,3.84,0,0-.56,3.52,1.02,4.04,0,0,3.18,8.07,10.41,5.87,0,0,3.81.64,5.15-1.41,0,0,2.42,1.86,4.25-.86,0,0,3.91,1.03,4.34-.88,0,0,3.5,1.25,5.41-2.23,0,0,3.14,2.4,5.68-1.25,0,0,3.84,1.79,5.22-.81,0,0,3.64,1.21,4.55-1.46,0,0,3.09,1.78,4.77-.79,0,0,3.96,1.54,4.56-1.15,0,0,4.84.24,5.51-3.94,0,0,2.01-.34,1.32-3.52,0,0,2.33-1.59-.17-3.74,0,0,1.61-2.13-1.28-3.96,0,0,2.04-1.61-1.1-4.01,0,0,1.35-1.67-.78-3.86,0,0,1.4-2.21-1.53-3.82,0,0-2.37-6.19-10.07-2.91,0,0-1.85-.75-4.93,1.57,0,0-2.05-1.12-4.27,1.18,0,0-2.58-.76-4.77,1,0,0-2.27-.95-4.99,2.01,0,0-2.96-1.71-5.9,1.83,0,0-3.06-2.1-5.31.83,0,0-2.64-1.27-3.99.78,0,0-2.79-1.13-4.41,1.32Z"/>
    <path class="st8" d="M206.85,257.73s-1.7-2.11-4.78-1.69c0,0-2.93-2.22-5.22-.45,0,0-3.59-.62-4.45,2.62,0,0-2.86.89-2.16,3.9,0,0-2.38,2.03-.65,3.5,0,0-2.52,1.59-1.41,3.7,0,0-2.47,2.57-1.47,3.89,0,0-2.01,8.44,5.18,10.77,0,0,2.76,2.7,5.04,1.79,0,0,.93,2.91,3.98,1.73,0,0,2.62,3.08,4.07,1.76,0,0,2.15,3.02,5.71,1.27,0,0,1.21,3.76,5.37,2.22,0,0,2.13,3.66,4.75,2.32,0,0,2.3,3.07,4.57,1.4,0,0,1.51,3.23,4.36,2.08,0,0,2.37,3.53,4.39,1.66,0,0,3.83,2.97,6.77-.08,0,0,1.84.87,3.1-2.13,0,0,2.82.03,2-3.17,0,0,2.54-.82,1.21-3.98,0,0,2.6-.16,1.39-3.92,0,0,2.07-.6,1.57-3.61,0,0,2.41-1.01.93-4.01,0,0,1.59-6.43-6.6-8.15,0,0-1.09-1.68-4.94-1.53,0,0-1.04-2.09-4.17-1.48,0,0-1.68-2.1-4.49-1.91,0,0-1.32-2.08-5.24-1.21,0,0-1.45-3.09-5.89-1.87,0,0-1.31-3.48-4.83-2.36,0,0-1.44-2.55-3.72-1.64,0,0-1.65-2.52-4.38-1.44Z"/>
    <path class="st8" d="M149.43,137.71s-1.72-2.09-4.79-1.64c0,0-2.95-2.19-5.22-.4,0,0-3.6-.59-4.42,2.67,0,0-2.85.92-2.12,3.92,0,0-2.36,2.05-.62,3.51,0,0-2.5,1.61-1.37,3.71,0,0-2.45,2.59-1.44,3.9,0,0-1.93,8.46,5.28,10.72,0,0,2.78,2.68,5.05,1.74,0,0,.95,2.9,4,1.69,0,0,2.65,3.06,4.08,1.72,0,0,2.18,3,5.72,1.21,0,0,1.24,3.75,5.39,2.17,0,0,2.16,3.64,4.77,2.28,0,0,2.33,3.05,4.58,1.36,0,0,1.54,3.21,4.38,2.04,0,0,2.4,3.51,4.41,1.62,0,0,3.86,2.93,6.77-.14,0,0,1.85.85,3.08-2.16,0,0,2.82,0,1.97-3.19,0,0,2.53-.85,1.18-3.99,0,0,2.59-.18,1.35-3.93,0,0,2.06-.62,1.53-3.62,0,0,2.4-1.04.89-4.02,0,0,1.53-6.45-6.67-8.08,0,0-1.1-1.67-4.95-1.49,0,0-1.06-2.08-4.19-1.44,0,0-1.7-2.09-4.5-1.87,0,0-1.34-2.07-5.25-1.16,0,0-1.47-3.08-5.9-1.81,0,0-1.34-3.46-4.86-2.31,0,0-1.47-2.54-3.73-1.6,0,0-1.67-2.5-4.39-1.4Z"/>
    <path class="st8" d="M438.94,205.59s-2.6-.76-4.88,1.34c0,0-3.67-.15-4.54,2.61,0,0-3.3,1.54-2.15,4.69,0,0-1.83,2.36.45,4.43,0,0-.79,3.02,1.47,3.25,0,0-1.16,2.74.96,3.84,0,0-.56,3.52,1.01,4.04,0,0,3.17,8.07,10.4,5.87,0,0,3.81.64,5.15-1.41,0,0,2.42,1.86,4.25-.86,0,0,3.91,1.03,4.34-.88,0,0,3.5,1.25,5.41-2.22,0,0,3.14,2.4,5.68-1.24,0,0,3.83,1.79,5.22-.8,0,0,3.64,1.21,4.55-1.46,0,0,3.09,1.78,4.77-.78,0,0,3.96,1.54,4.56-1.15,0,0,4.84.25,5.51-3.93,0,0,2.01-.34,1.32-3.52,0,0,2.33-1.59-.17-3.74,0,0,1.61-2.13-1.28-3.96,0,0,2.04-1.61-1.1-4.01,0,0,1.36-1.67-.77-3.86,0,0,1.4-2.21-1.53-3.82,0,0-2.37-6.19-10.07-2.91,0,0-1.85-.75-4.93,1.57,0,0-2.05-1.12-4.27,1.17,0,0-2.58-.76-4.77,1,0,0-2.27-.95-4.99,2,0,0-2.95-1.71-5.9,1.83,0,0-3.06-2.1-5.31.83,0,0-2.64-1.27-3.99.78,0,0-2.79-1.13-4.41,1.32Z"/>
  </g>
</svg>