<?xml version="1.0" encoding="UTF-8"?>
<svg xmlns="http://www.w3.org/2000/svg" xmlns:xlink="http://www.w3.org/1999/xlink" version="1.1" viewBox="0 0 600 500">
  <!-- Generator: Adobe Illustrator 29.8.2, SVG Export Plug-In . SVG Version: 2.1.1 Build 3)  -->
  <defs>
    <style>
      .st0 {
        fill: #773800;
      }

      .st0, .st1, .st2, .st3, .st4, .st5, .st6, .st7, .st8, .st9, .st10, .st11 {
        stroke: #000;
        stroke-miterlimit: 10;
      }

      .st0, .st2, .st4, .st5, .st6, .st7, .st8, .st9, .st10, .st11 {
        stroke-width: 3px;
      }

      .st1 {
        fill: #93aa00;
        stroke-width: 2px;
      }

      .st2 {
        fill: #aa0400;
      }

      .st3 {
        fill: #ffb955;
      }

      .st4 {
        fill: url(#Dégradé_sans_nom_57);
      }

      .st12 {
        fill: #81430f;
      }

      .st5 {
        fill: url(#Dégradé_sans_nom_101);
      }

      .st6 {
        fill: url(#Dégradé_sans_nom_574);
      }

      .st7 {
        fill: url(#Dégradé_sans_nom_571);
      }

      .st8 {
        fill: url(#Dégradé_sans_nom_572);
      }

      .st9 {
        fill: url(#Dégradé_sans_nom_573);
      }

      .st10 {
        fill: url(#Dégradé_sans_nom_208);
      }

      .st13 {
        display: none;
      }

      .st14 {
        fill: #d0a775;
      }

      .st11 {
        fill: none;
      }
    </style>
    <linearGradient id="Dégradé_sans_nom_208" data-name="Dégradé sans nom 208" x1="300.64" y1="367.15" x2="300.64" y2="470.74" gradientUnits="userSpaceOnUse">
      <stop offset="0" stop-color="#cc7800"/>
      <stop offset=".17" stop-color="#cf7d07"/>
      <stop offset=".42" stop-color="#da8c1c"/>
      <stop offset=".73" stop-color="#eca53d"/>
      <stop offset="1" stop-color="#ffc062"/>
    </linearGradient>
    <linearGradient id="Dégradé_sans_nom_101" data-name="Dégradé sans nom 101" x1="301.22" y1="30.89" x2="301.22" y2="382.4" gradientUnits="userSpaceOnUse">
      <stop offset="0" stop-color="#cc7800"/>
      <stop offset=".45" stop-color="#cc7901"/>
      <stop offset=".61" stop-color="#d07e08"/>
      <stop offset=".73" stop-color="#d68714"/>
      <stop offset=".82" stop-color="#df9325"/>
      <stop offset=".9" stop-color="#eaa33b"/>
      <stop offset=".97" stop-color="#f8b755"/>
      <stop offset="1" stop-color="#ffc062"/>
    </linearGradient>
    <linearGradient id="Dégradé_sans_nom_57" data-name="Dégradé sans nom 57" x1="299.62" y1="233.45" x2="303.06" y2="233.45" gradientUnits="userSpaceOnUse">
      <stop offset="0" stop-color="#cc7800"/>
      <stop offset=".03" stop-color="#d2800b"/>
      <stop offset=".1" stop-color="#df9426"/>
      <stop offset=".18" stop-color="#eba43c"/>
      <stop offset=".27" stop-color="#f4b04d"/>
      <stop offset=".39" stop-color="#fab959"/>
      <stop offset=".55" stop-color="#febe60"/>
      <stop offset="1" stop-color="#ffc062"/>
    </linearGradient>
    <linearGradient id="Dégradé_sans_nom_571" data-name="Dégradé sans nom 57" x1="299.77" y1="143.77" x2="299.77" y2="230.87" xlink:href="#Dégradé_sans_nom_57"/>
    <linearGradient id="Dégradé_sans_nom_572" data-name="Dégradé sans nom 57" x1="292.92" y1="233.39" x2="294.94" y2="233.39" xlink:href="#Dégradé_sans_nom_57"/>
    <linearGradient id="Dégradé_sans_nom_573" data-name="Dégradé sans nom 57" x1="304.3" y1="233.39" x2="306.32" y2="233.39" xlink:href="#Dégradé_sans_nom_57"/>
    <linearGradient id="Dégradé_sans_nom_574" data-name="Dégradé sans nom 57" x1="296.18" x2="299.62" xlink:href="#Dégradé_sans_nom_57"/>
  </defs>
  <g id="Bagel" class="st13">
    <g>
      <path class="st10" d="M375.55,412.84c-20.59,1.72-41.51,2.58-62.66,2.58-37.16,0-75.05-2.65-113.26-7.95-83.81-11.61-145.92-32.9-165.88-40.32,31.35,53.41,104.51,105.46,272.56,103.53,159.92-1.84,230.34-54.03,261.2-102.76-59.6,24.13-124.13,39.24-191.97,44.91Z"/>
      <path class="st5" d="M299.37,31.47C.56,25.36,11.57,233.54,11.57,233.54c-1.19,17.06-2.73,58.36,19.87,99.64,15.1,5.79,79.59,29.1,168.7,41.44,92.85,12.85,232,16.04,370.02-40.91,24.56-41.68,20.97-79.62,20.97-79.62C602.62,8.44,299.37,31.47,299.37,31.47ZM299.37,233.46c-42.55,0-77.05-11.12-77.05-24.83s34.5-24.83,77.05-24.83,77.05,11.12,77.05,24.83-34.5,24.83-77.05,24.83Z"/>
    </g>
    <g>
      <path class="st4" d="M303.06,233.43c-1.14.02-2.29.03-3.44.03,1.15,0,2.3-.01,3.44-.03Z"/>
      <path class="st7" d="M297.9,143.77c-59.22,0-96.92,13.65-105.5,40.02-6.33,19.45,30.55,40.46,72.98,47.08-25.36-4.06-42.8-12.5-42.8-22.24,0-13.71,34.5-17.85,77.05-17.85s77.05,4.13,77.05,17.85c0,9.75-17.44,18.18-42.8,22.24,42.42-6.62,80.72-22.24,72.98-47.08-9.1-29.2-49.73-40.02-108.95-40.02Z"/>
      <path class="st8" d="M292.92,233.36c.67.02,1.35.04,2.02.05-.68-.01-1.35-.03-2.02-.05Z"/>
      <path class="st9" d="M306.32,233.36c-.67.02-1.34.04-2.02.05.68-.01,1.35-.03,2.02-.05Z"/>
      <path class="st6" d="M299.62,233.46c-1.15,0-2.3-.01-3.44-.03,1.14.02,2.29.03,3.44.03Z"/>
    </g>
    <g>
      <path class="st3" d="M56.74,169.9s6.77,9.28,17.37,2.51c-8.25-9.49-17.37-2.51-17.37-2.51Z"/>
      <path class="st3" d="M56.69,203.41s7.28,8.88,17.48,1.53c-8.77-9.01-17.48-1.53-17.48-1.53Z"/>
      <path class="st3" d="M69.73,183.57s3.26,11.01,15.51,8.21c-4.58-11.71-15.51-8.21-15.51-8.21Z"/>
      <path class="st3" d="M107.21,179.46s4.28,10.66,16.22,6.71c-5.66-11.23-16.22-6.71-16.22-6.71Z"/>
      <path class="st3" d="M27.49,190.72s10.38,4.9,16.45-6.11c-11.78-4.38-16.45,6.11-16.45,6.11Z"/>
      <path class="st3" d="M119.15,205.5s9.72,6.12,17.07-4.08c-11.17-5.78-17.07,4.08-17.07,4.08Z"/>
      <path class="st3" d="M100,162.89s9.05,7.06,17.39-2.35c-10.53-6.86-17.39,2.35-17.39,2.35Z"/>
      <path class="st3" d="M153.93,172.93s3.79,10.84,15.9,7.44c-5.14-11.47-15.9-7.44-15.9-7.44Z"/>
      <path class="st3" d="M92.61,216.95s6.77,9.28,17.37,2.51c-8.25-9.49-17.37-2.51-17.37-2.51Z"/>
      <path class="st3" d="M114.68,251.56s7.28,8.88,17.48,1.53c-8.77-9.01-17.48-1.53-17.48-1.53Z"/>
      <path class="st3" d="M127.69,222.15s4.28,10.66,16.22,6.71c-5.66-11.23-16.22-6.71-16.22-6.71Z"/>
      <path class="st3" d="M63.36,237.77s10.38,4.9,16.45-6.11c-11.78-4.38-16.45,6.11-16.45,6.11Z"/>
      <path class="st3" d="M144.81,253.27s9.72,6.12,17.07-4.08c-11.17-5.78-17.07,4.08-17.07,4.08Z"/>
      <path class="st3" d="M150.17,203.25s9.05,7.06,17.39-2.35c-10.53-6.86-17.39,2.35-17.39,2.35Z"/>
      <path class="st3" d="M174.96,217.37s3.79,10.84,15.9,7.44c-5.14-11.47-15.9-7.44-15.9-7.44Z"/>
      <path class="st3" d="M89.09,111.1s6.77,9.28,17.37,2.51c-8.25-9.49-17.37-2.51-17.37-2.51Z"/>
      <path class="st3" d="M89.03,144.61s7.28,8.88,17.48,1.53c-8.77-9.01-17.48-1.53-17.48-1.53Z"/>
      <path class="st3" d="M102.08,124.77s3.26,11.01,15.51,8.21c-4.58-11.71-15.51-8.21-15.51-8.21Z"/>
      <path class="st3" d="M124.16,116.3s4.28,10.66,16.22,6.71c-5.66-11.23-16.22-6.71-16.22-6.71Z"/>
      <path class="st3" d="M59.84,131.92s10.38,4.9,16.45-6.11c-11.78-4.38-16.45,6.11-16.45,6.11Z"/>
      <path class="st3" d="M141.29,147.42s9.72,6.12,17.07-4.08c-11.17-5.78-17.07,4.08-17.07,4.08Z"/>
      <path class="st3" d="M132.35,104.1s9.05,7.06,17.39-2.35c-10.53-6.86-17.39,2.35-17.39,2.35Z"/>
      <path class="st3" d="M162.93,115.94s3.79,10.84,15.9,7.44c-5.14-11.47-15.9-7.44-15.9-7.44Z"/>
      <path class="st3" d="M195.71,61.07s6.77,9.28,17.37,2.51c-8.25-9.49-17.37-2.51-17.37-2.51Z"/>
      <path class="st3" d="M195.65,94.58s7.28,8.88,17.48,1.53c-8.77-9.01-17.48-1.53-17.48-1.53Z"/>
      <path class="st3" d="M208.7,74.73s3.26,11.01,15.51,8.21c-4.58-11.71-15.51-8.21-15.51-8.21Z"/>
      <path class="st3" d="M230.78,66.27s4.28,10.66,16.22,6.71c-5.66-11.23-16.22-6.71-16.22-6.71Z"/>
      <path class="st3" d="M166.46,81.89s10.38,4.9,16.45-6.11c-11.78-4.38-16.45,6.11-16.45,6.11Z"/>
      <path class="st3" d="M238.97,54.06s9.05,7.06,17.39-2.35c-10.53-6.86-17.39,2.35-17.39,2.35Z"/>
      <path class="st3" d="M269.55,65.91s3.79,10.84,15.9,7.44c-5.14-11.47-15.9-7.44-15.9-7.44Z"/>
      <path class="st3" d="M208.62,235.35s3.61,10.9,15.77,7.7c-4.95-11.56-15.77-7.7-15.77-7.7Z"/>
      <path class="st3" d="M198.32,267.24s4.22,10.68,16.18,6.8c-5.6-11.26-16.18-6.8-16.18-6.8Z"/>
      <path class="st3" d="M216.81,252.33s-.27,11.48,12.26,12.56c-.78-12.55-12.26-12.56-12.26-12.56Z"/>
      <path class="st3" d="M240.42,251.02s.82,11.45,13.39,11.35c-1.96-12.42-13.39-11.35-13.39-11.35Z"/>
      <path class="st3" d="M174.4,246.23s8.39,7.84,17.53-.79c-9.88-7.78-17.53.79-17.53.79Z"/>
      <path class="st3" d="M247.22,285.88s7.38,8.8,17.5,1.34c-8.87-8.91-17.5-1.34-17.5-1.34Z"/>
      <path class="st3" d="M251.95,241.9s6.46,9.49,17.28,3.08c-7.93-9.76-17.28-3.08-17.28-3.08Z"/>
      <path class="st3" d="M277.45,262.52s.3,11.48,12.86,11.94c-1.39-12.5-12.86-11.94-12.86-11.94Z"/>
      <path class="st3" d="M319.94,274.22s5.88,9.86,17.06,4.11c-7.34-10.21-17.06-4.11-17.06-4.11Z"/>
      <path class="st3" d="M335.79,256.53s1.59,11.37,14.12,10.42c-2.79-12.26-14.12-10.42-14.12-10.42Z"/>
      <path class="st3" d="M358.88,251.44s2.65,11.17,15.04,9.04c-3.93-11.94-15.04-9.04-15.04-9.04Z"/>
      <path class="st3" d="M292.95,257.34s9.54,6.39,17.18-3.6c-11-6.08-17.18,3.6-17.18,3.6Z"/>
      <path class="st3" d="M371.2,284.75s8.7,7.5,17.49-1.5c-10.19-7.37-17.49,1.5-17.49,1.5Z"/>
      <path class="st3" d="M368.79,240.58s7.91,8.33,17.55.26c-9.4-8.35-17.55-.26-17.55-.26Z"/>
      <path class="st3" d="M397.28,256.83s2.14,11.28,14.62,9.71c-3.39-12.11-14.62-9.71-14.62-9.71Z"/>
      <path class="st3" d="M428.73,208.14s6.77,9.28,17.37,2.51c-8.25-9.49-17.37-2.51-17.37-2.51Z"/>
      <path class="st3" d="M428.67,241.65s7.28,8.88,17.48,1.53c-8.77-9.01-17.48-1.53-17.48-1.53Z"/>
      <path class="st3" d="M441.72,221.8s3.26,11.01,15.51,8.21c-4.58-11.71-15.51-8.21-15.51-8.21Z"/>
      <path class="st3" d="M477.29,211.25s4.28,10.66,16.22,6.71c-5.66-11.23-16.22-6.71-16.22-6.71Z"/>
      <path class="st3" d="M399.48,228.96s10.38,4.9,16.45-6.11c-11.78-4.38-16.45,6.11-16.45,6.11Z"/>
      <path class="st3" d="M480.92,244.45s9.72,6.12,17.07-4.08c-11.17-5.78-17.07,4.08-17.07,4.08Z"/>
      <path class="st3" d="M420.98,187.69s9.05,7.06,17.39-2.35c-10.53-6.86-17.39,2.35-17.39,2.35Z"/>
      <path class="st3" d="M502.57,212.97s3.79,10.84,15.9,7.44c-5.14-11.47-15.9-7.44-15.9-7.44Z"/>
      <path class="st3" d="M294.42,89.8s6.77,9.28,17.37,2.51c-8.25-9.49-17.37-2.51-17.37-2.51Z"/>
      <path class="st3" d="M294.36,123.32s7.28,8.88,17.48,1.53c-8.77-9.01-17.48-1.53-17.48-1.53Z"/>
      <path class="st3" d="M307.41,103.47s3.26,11.01,15.51,8.21c-4.58-11.71-15.51-8.21-15.51-8.21Z"/>
      <path class="st3" d="M329.49,95.01s4.28,10.66,16.22,6.71c-5.66-11.23-16.22-6.71-16.22-6.71Z"/>
      <path class="st3" d="M265.16,110.62s10.38,4.9,16.45-6.11c-11.78-4.38-16.45,6.11-16.45,6.11Z"/>
      <path class="st3" d="M346.61,126.12s9.72,6.12,17.07-4.08c-11.17-5.78-17.07,4.08-17.07,4.08Z"/>
      <path class="st3" d="M368.26,94.64s3.79,10.84,15.9,7.44c-5.14-11.47-15.9-7.44-15.9-7.44Z"/>
      <path class="st3" d="M422.56,114.24s1.7,11.36,14.23,10.27c-2.91-12.23-14.23-10.27-14.23-10.27Z"/>
      <path class="st3" d="M406.99,143.91s2.34,11.24,14.79,9.45c-3.6-12.05-14.79-9.45-14.79-9.45Z"/>
      <path class="st3" d="M427.75,132.37s-2.22,11.27,9.95,14.46c1.37-12.5-9.95-14.46-9.95-14.46Z"/>
      <path class="st3" d="M451.24,135.1s-1.15,11.43,11.26,13.46c.19-12.57-11.26-13.46-11.26-13.46Z"/>
      <path class="st3" d="M387,119.14s6.93,9.16,17.41,2.21c-8.41-9.35-17.41-2.21-17.41-2.21Z"/>
      <path class="st3" d="M452,170.61s5.77,9.93,17.02,4.3c-7.22-10.29-17.02-4.3-17.02-4.3Z"/>
      <path class="st3" d="M464.15,128.07s4.75,10.46,16.5,5.98c-6.16-10.96-16.5-5.98-16.5-5.98Z"/>
      <path class="st3" d="M485.76,152.74s-1.66,11.36,10.64,13.96c.76-12.55-10.64-13.96-10.64-13.96Z"/>
      <path class="st3" d="M412.23,57.21s2.23,11.26,14.7,9.59c-3.48-12.08-14.7-9.59-14.7-9.59Z"/>
      <path class="st3" d="M398.07,87.58s2.87,11.12,15.21,8.75c-4.16-11.87-15.21-8.75-15.21-8.75Z"/>
      <path class="st3" d="M418.26,75.07s-1.68,11.36,10.61,13.98c.78-12.55-10.61-13.98-10.61-13.98Z"/>
      <path class="st3" d="M441.86,76.69s-.61,11.47,11.88,12.91c-.4-12.57-11.88-12.91-11.88-12.91Z"/>
      <path class="st3" d="M376.93,63.77s7.35,8.82,17.49,1.39c-8.84-8.94-17.49-1.39-17.49-1.39Z"/>
      <path class="st3" d="M444.29,112.13s6.23,9.64,17.2,3.49c-7.7-9.94-17.2-3.49-17.2-3.49Z"/>
      <path class="st3" d="M454.42,69.07s5.24,10.22,16.76,5.2c-6.66-10.66-16.76-5.2-16.76-5.2Z"/>
      <path class="st3" d="M477.17,92.69s-1.13,11.43,11.29,13.44c.16-12.57-11.29-13.44-11.29-13.44Z"/>
      <path class="st3" d="M299.25,52.1s6.77,9.28,17.37,2.51c-8.25-9.49-17.37-2.51-17.37-2.51Z"/>
      <path class="st3" d="M312.24,65.76s3.26,11.01,15.51,8.21c-4.58-11.71-15.51-8.21-15.51-8.21Z"/>
      <path class="st3" d="M334.32,57.3s4.28,10.66,16.22,6.71c-5.66-11.23-16.22-6.71-16.22-6.71Z"/>
      <path class="st3" d="M351.44,88.41s9.72,6.12,17.07-4.08c-11.17-5.78-17.07,4.08-17.07,4.08Z"/>
      <path class="st3" d="M342.51,45.09s9.05,7.06,17.39-2.35c-10.53-6.86-17.39,2.35-17.39,2.35Z"/>
      <path class="st3" d="M184.44,160.82s10.41,4.84,16.42-6.2c-11.81-4.32-16.42,6.2-16.42,6.2Z"/>
      <path class="st3" d="M187.59,137.28s7.71,8.51,17.54.67c-9.2-8.57-17.54-.67-17.54-.67Z"/>
      <path class="st3" d="M203.83,120.08s8.48,7.75,17.52-.98c-9.97-7.66-17.52.98-17.52.98Z"/>
      <path class="st3" d="M158.87,158.53s6.85,9.22,17.39,2.37c-8.33-9.42-17.39-2.37-17.39-2.37Z"/>
      <path class="st3" d="M232.74,140.69s11.41,1.3,13.61-11.07c-12.57-.36-13.61,11.07-13.61,11.07Z"/>
      <path class="st3" d="M238.6,102.94s8.12,8.12,17.55-.19c-9.61-8.11-17.55.19-17.55.19Z"/>
      <path class="st3" d="M509.84,149.42s4.33,10.64,16.25,6.64c-5.71-11.2-16.25-6.64-16.25-6.64Z"/>
      <path class="st3" d="M509.88,179.35s4.13,10.72,16.12,6.94c-5.5-11.31-16.12-6.94-16.12-6.94Z"/>
      <path class="st3" d="M532.95,173.23s4.71,10.47,16.48,6.04c-6.11-10.99-16.48-6.04-16.48-6.04Z"/>
      <path class="st3" d="M533.55,161.36s5.68,9.98,16.97,4.46c-7.12-10.36-16.97-4.46-16.97-4.46Z"/>
      <path class="st3" d="M491.94,118.53s2.77,11.14,15.14,8.88c-4.06-11.9-15.14-8.88-15.14-8.88Z"/>
      <path class="st3" d="M531.48,191.4s1.41,11.4,13.96,10.64c-2.6-12.3-13.96-10.64-13.96-10.64Z"/>
      <path class="st3" d="M540.83,145.43s9.5,6.45,17.2-3.5c-10.97-6.15-17.2,3.5-17.2,3.5Z"/>
      <path class="st3" d="M558.83,186.68s4.51,10.56,16.36,6.36c-5.9-11.1-16.36-6.36-16.36-6.36Z"/>
      <path class="st3" d="M513.13,132.51s4.28,10.66,16.22,6.71c-5.66-11.23-16.22-6.71-16.22-6.71Z"/>
      <path class="st3" d="M369.69,230.58s9.72,6.12,17.07-4.08c-11.17-5.78-17.07,4.08-17.07,4.08Z"/>
      <path class="st3" d="M521.32,120.3s9.05,7.06,17.39-2.35c-10.53-6.86-17.39,2.35-17.39,2.35Z"/>
      <path class="st3" d="M476.66,228.43s7.28,8.88,17.48,1.53c-8.77-9.01-17.48-1.53-17.48-1.53Z"/>
      <path class="st3" d="M488.33,186.89s4.28,10.66,16.22,6.71c-5.66-11.23-16.22-6.71-16.22-6.71Z"/>
      <path class="st3" d="M454.28,195.28s10.38,4.9,16.45-6.11c-11.78-4.38-16.45,6.11-16.45,6.11Z"/>
      <path class="st3" d="M528.91,231.23s9.72,6.12,17.07-4.08c-11.17-5.78-17.07,4.08-17.07,4.08Z"/>
      <path class="st3" d="M550.56,199.76s3.79,10.84,15.9,7.44c-5.14-11.47-15.9-7.44-15.9-7.44Z"/>
      <path class="st3" d="M35.2,231.64s7.28,8.88,17.48,1.53c-8.77-9.01-17.48-1.53-17.48-1.53Z"/>
      <path class="st3" d="M29.54,217.53s10.38,4.9,16.45-6.11c-11.78-4.38-16.45,6.11-16.45,6.11Z"/>
      <path class="st3" d="M98.25,245.13s9.72,6.12,17.07-4.08c-11.17-5.78-17.07,4.08-17.07,4.08Z"/>
      <path class="st3" d="M89.31,201.81s9.05,7.06,17.39-2.35c-10.53-6.86-17.39,2.35-17.39,2.35Z"/>
    </g>
  </g>
  <g id="fourrage" class="st13">
    <path class="st0" d="M570.48,367.11c-260.36,111.06-538.72-.53-538.72-.53-1.69-.52-6.08-2.12-8.79-6.42-1.48-2.35-1.94-4.67-2.18-5.93-.19-1.02-.63-3.76,0-7.21.19-1.05.78-3.8,2.57-6.82,2.68-4.5,6.43-6.87,8.4-7.93,46.96,17.28,104.81,32.73,171.72,41.91,102.13,14.01,236.81,14.14,367-41.38.96.75,2.3,1.84,3.83,3.23,1.59,1.44,2.41,2.19,3.33,3.33.65.8,1.82,2.28,2.74,4.5.41.99,1.33,3.29,1.27,6.3-.06,2.72-.89,4.75-2.05,7.59-.45,1.09-.85,2.09-1.43,3.06,0,0-2.27,3.99-7.69,6.3Z"/>
    <path class="st0" d="M55.03,340.38s11.6,21.75-5.62,32.82"/>
    <path class="st0" d="M89.03,350.9s13.07,25.98-6.23,32.48"/>
    <path class="st0" d="M127.69,361.42s10.79,25.4-4.26,31.99"/>
    <path class="st0" d="M168.63,368.71s15.74,23.78-2.69,33.8"/>
    <path class="st0" d="M212.84,375.42s19.33,21.94-4.22,33.25"/>
    <path class="st0" d="M255.97,380.43s20.82,16.97,0,32.95"/>
    <path class="st0" d="M307.54,381.98s18.26,15.8,0,33.42"/>
    <path class="st0" d="M352.88,381.12s22.96,10.27,0,34.28"/>
    <path class="st0" d="M407.46,376.33s17.55,18.02,0,33.11"/>
    <path class="st0" d="M457.24,368.04s20.37,20.24,0,34.19"/>
    <path class="st0" d="M501.31,357.24s25.04,12.5,6.78,32.33"/>
    <path class="st0" d="M540.74,344.52s26.96,9.56,10.33,29.79"/>
    <path class="st0" d="M300,233.63c-37.46,0-77.66-14.27-77.05-24.83.64-10.97,21.57-17.85,77.3-17.85s76.16,6.9,76.8,17.85c.62,10.56-39.57,24.83-77.05,24.83Z"/>
  </g>
  <g id="glaçage" class="st13">
    <path class="st2" d="M22.4,128.9"/>
    <path class="st1" d="M589.22,170.09c-3.58-10.83-10.97-32.45-29.46-53.32-7.17-8.09-16.37-15.87-36-29.74-59.16-41.81-53.14-39.44-60.26-43.04-1.19-.6-2.47-1.23-3.98-1.89-22.65-9.92-89.94-18.02-89.94-18.02-30.26-3.64-42.99-5.51-64.28-4.91-6.2.17-11.35.51-14.92.78-3.28-.11-8.17-.19-14.09,0-29.74.97-42.62,7.55-71.07,13.08-34.68,6.74-35.08.57-56.89,8.15-11.7,4.06-22.85,9.62-41.72,22.38-35.98,24.33-54.3,35.99-69.65,57.13-6.64,9.15-3.69,7.16-31.3,81.39-2.57,6.92-7.41,19.86-1.78,31.75,2.2,4.65,5.38,7.82,7.73,9.77,23.15,6.85,49.41,14.28,77.69,21.65l-.11-.03c2.29.8,5.2,2.06,8.29,4.08,2.74,1.8,4.86,3.7,6.42,5.32.82,1.11,2.19,3.38,1.97,6.19-.03.42-.1.82-.19,1.19-.33,1.01-.5,1.88-.55,2.66-1.65,1.6-5.34,5.63-6.56,11.91-.62,3.21-1.84,9.51,2.35,13.93,3.51,3.7,9.28,4.47,13.68,2.82,6.01-2.26,9.87-9.21,8.71-16.75-.25-.88-.5-1.78-.74-2.7-.62-2.41-1.14-4.74-1.58-6.99.13-.25.33-.61.57-1.05,2.19-4.02,3.29-6.03,4.33-7.1.79-.81,2.97-2.6,8.13-2.33,0,0-.02,0-.03,0,7.69,1.83,15.49,3.63,23.35,5.4,6.37,11.59,6.81,20.34,5.33,26.81-3.12,13.63-15.21,19.11-12.81,30.32,1.56,7.3,8.4,12.94,14.77,15.07,2.72.91,9.33,3.12,14.97-.79,6.73-4.66,6.04-13.84,6-14.29,0,0-13.81-35.72.06-51.02,43.03,11.74,79.29,14.64,104.91,14.96,25.04.32,44.98-1.76,61.43-3.52,37.39-4.01,68.38-10.55,90.97-16.25l-.15.04s11.07,1.41,11.19,17.62c-.4,2.34-.97,4.48-1.63,6.45-5.37,15.76-18.44,23.39-15.72,38.4,1.36,7.46,6.74,17.42,16.02,20.55,5,1.68,9.41.81,10.73.53,1-.21,11.12-2.52,15.26-12.32,3.04-7.19.9-13.76.3-15.41-6.56-15.24-9.56-29.75-9.46-41.99.43-5.71,3.4-16.71,18.66-25.02l-.2.05c2.65-.89,5.28-1.8,7.83-2.76,12.83-4.85,22.42-9.98,31.82-13.74.08-.03.17-.06.25-.1.51.41,1.87,1.62,2.45,3.71.48,1.73.19,3.19.01,3.84.05.78.08,2.05-.11,3.59-1.01,7.77-6.26,9.21-8.13,15.9-1.47,5.26-.2,11.49,3.3,15.11.69.71,2.54,2.58,5.5,3.13,3.51.65,6.33-.97,7.23-1.49,4.68-2.69,7.13-9.12,6.58-16.34-.6-1.7-1.21-3.96-1.44-6.67-.32-3.79.22-6.94.77-9.05,2.31-5.71,4.62-11.41,6.93-17.12,2.37-.12,4.84-.13,7.45.02,8.49.48,23.92,2.77,32.91-6.4,3.98-4.06,5.47-9.12,6.11-12.73.7-14.57-.13-36.26-8.24-60.79ZM336.85,230.48c.64-.11,1.27-.24,1.9-.38-11.38,2.13-24.62,3.36-38.75,3.36-15.18,0-29.34-1.33-41.24-3.86-39.26-8.34-71.17-27.52-65.73-45.8,7.28-24.49,45.64-39.16,104.86-39.16,54.51,0,99.07,9.99,108.07,39.16,6.33,20.52-27.92,39.76-69.11,46.68Z"/>
    <g>
      <path class="st3" d="M56.74,169.9s6.77,9.28,17.37,2.51c-8.25-9.49-17.37-2.51-17.37-2.51Z"/>
      <path class="st3" d="M56.69,203.41s7.28,8.88,17.48,1.53c-8.77-9.01-17.48-1.53-17.48-1.53Z"/>
      <path class="st3" d="M69.73,183.57s3.26,11.01,15.51,8.21c-4.58-11.71-15.51-8.21-15.51-8.21Z"/>
      <path class="st3" d="M107.21,179.46s4.28,10.66,16.22,6.71c-5.66-11.23-16.22-6.71-16.22-6.71Z"/>
      <path class="st3" d="M27.49,190.72s10.38,4.9,16.45-6.11c-11.78-4.38-16.45,6.11-16.45,6.11Z"/>
      <path class="st3" d="M119.15,205.5s9.72,6.12,17.07-4.08c-11.17-5.78-17.07,4.08-17.07,4.08Z"/>
      <path class="st3" d="M100,162.89s9.05,7.06,17.39-2.35c-10.53-6.86-17.39,2.35-17.39,2.35Z"/>
      <path class="st3" d="M153.93,172.93s3.79,10.84,15.9,7.44c-5.14-11.47-15.9-7.44-15.9-7.44Z"/>
      <path class="st3" d="M92.61,216.95s6.77,9.28,17.37,2.51c-8.25-9.49-17.37-2.51-17.37-2.51Z"/>
      <path class="st3" d="M114.68,251.56s7.28,8.88,17.48,1.53c-8.77-9.01-17.48-1.53-17.48-1.53Z"/>
      <path class="st3" d="M127.69,222.15s4.28,10.66,16.22,6.71c-5.66-11.23-16.22-6.71-16.22-6.71Z"/>
      <path class="st3" d="M63.36,237.77s10.38,4.9,16.45-6.11c-11.78-4.38-16.45,6.11-16.45,6.11Z"/>
      <path class="st3" d="M144.81,253.27s9.72,6.12,17.07-4.08c-11.17-5.78-17.07,4.08-17.07,4.08Z"/>
      <path class="st3" d="M150.17,203.25s9.05,7.06,17.39-2.35c-10.53-6.86-17.39,2.35-17.39,2.35Z"/>
      <path class="st3" d="M174.96,217.37s3.79,10.84,15.9,7.44c-5.14-11.47-15.9-7.44-15.9-7.44Z"/>
      <path class="st3" d="M89.09,111.1s6.77,9.28,17.37,2.51c-8.25-9.49-17.37-2.51-17.37-2.51Z"/>
      <path class="st3" d="M89.03,144.61s7.28,8.88,17.48,1.53c-8.77-9.01-17.48-1.53-17.48-1.53Z"/>
      <path class="st3" d="M102.08,124.77s3.26,11.01,15.51,8.21c-4.58-11.71-15.51-8.21-15.51-8.21Z"/>
      <path class="st3" d="M124.16,116.3s4.28,10.66,16.22,6.71c-5.66-11.23-16.22-6.71-16.22-6.71Z"/>
      <path class="st3" d="M59.84,131.92s10.38,4.9,16.45-6.11c-11.78-4.38-16.45,6.11-16.45,6.11Z"/>
      <path class="st3" d="M141.29,147.42s9.72,6.12,17.07-4.08c-11.17-5.78-17.07,4.08-17.07,4.08Z"/>
      <path class="st3" d="M132.35,104.1s9.05,7.06,17.39-2.35c-10.53-6.86-17.39,2.35-17.39,2.35Z"/>
      <path class="st3" d="M162.93,115.94s3.79,10.84,15.9,7.44c-5.14-11.47-15.9-7.44-15.9-7.44Z"/>
      <path class="st3" d="M195.71,61.07s6.77,9.28,17.37,2.51c-8.25-9.49-17.37-2.51-17.37-2.51Z"/>
      <path class="st3" d="M195.65,94.58s7.28,8.88,17.48,1.53c-8.77-9.01-17.48-1.53-17.48-1.53Z"/>
      <path class="st3" d="M208.7,74.73s3.26,11.01,15.51,8.21c-4.58-11.71-15.51-8.21-15.51-8.21Z"/>
      <path class="st3" d="M230.78,66.27s4.28,10.66,16.22,6.71c-5.66-11.23-16.22-6.71-16.22-6.71Z"/>
      <path class="st3" d="M166.46,81.89s10.38,4.9,16.45-6.11c-11.78-4.38-16.45,6.11-16.45,6.11Z"/>
      <path class="st3" d="M238.97,54.06s9.05,7.06,17.39-2.35c-10.53-6.86-17.39,2.35-17.39,2.35Z"/>
      <path class="st3" d="M269.55,65.91s3.79,10.84,15.9,7.44c-5.14-11.47-15.9-7.44-15.9-7.44Z"/>
      <path class="st3" d="M208.62,235.35s3.61,10.9,15.77,7.7c-4.95-11.56-15.77-7.7-15.77-7.7Z"/>
      <path class="st3" d="M198.32,267.24s4.22,10.68,16.18,6.8c-5.6-11.26-16.18-6.8-16.18-6.8Z"/>
      <path class="st3" d="M216.81,252.33s-.27,11.48,12.26,12.56c-.78-12.55-12.26-12.56-12.26-12.56Z"/>
      <path class="st3" d="M240.42,251.02s.82,11.45,13.39,11.35c-1.96-12.42-13.39-11.35-13.39-11.35Z"/>
      <path class="st3" d="M174.4,246.23s8.39,7.84,17.53-.79c-9.88-7.78-17.53.79-17.53.79Z"/>
      <path class="st3" d="M247.22,285.88s7.38,8.8,17.5,1.34c-8.87-8.91-17.5-1.34-17.5-1.34Z"/>
      <path class="st3" d="M251.95,241.9s6.46,9.49,17.28,3.08c-7.93-9.76-17.28-3.08-17.28-3.08Z"/>
      <path class="st3" d="M277.45,262.52s.3,11.48,12.86,11.94c-1.39-12.5-12.86-11.94-12.86-11.94Z"/>
      <path class="st3" d="M319.94,274.22s5.88,9.86,17.06,4.11c-7.34-10.21-17.06-4.11-17.06-4.11Z"/>
      <path class="st3" d="M335.79,256.53s1.59,11.37,14.12,10.42c-2.79-12.26-14.12-10.42-14.12-10.42Z"/>
      <path class="st3" d="M358.88,251.44s2.65,11.17,15.04,9.04c-3.93-11.94-15.04-9.04-15.04-9.04Z"/>
      <path class="st3" d="M292.95,257.34s9.54,6.39,17.18-3.6c-11-6.08-17.18,3.6-17.18,3.6Z"/>
      <path class="st3" d="M371.2,284.75s8.7,7.5,17.49-1.5c-10.19-7.37-17.49,1.5-17.49,1.5Z"/>
      <path class="st3" d="M368.79,240.58s7.91,8.33,17.55.26c-9.4-8.35-17.55-.26-17.55-.26Z"/>
      <path class="st3" d="M397.28,256.83s2.14,11.28,14.62,9.71c-3.39-12.11-14.62-9.71-14.62-9.71Z"/>
      <path class="st3" d="M428.73,208.14s6.77,9.28,17.37,2.51c-8.25-9.49-17.37-2.51-17.37-2.51Z"/>
      <path class="st3" d="M428.67,241.65s7.28,8.88,17.48,1.53c-8.77-9.01-17.48-1.53-17.48-1.53Z"/>
      <path class="st3" d="M441.72,221.8s3.26,11.01,15.51,8.21c-4.58-11.71-15.51-8.21-15.51-8.21Z"/>
      <path class="st3" d="M477.29,211.25s4.28,10.66,16.22,6.71c-5.66-11.23-16.22-6.71-16.22-6.71Z"/>
      <path class="st3" d="M399.48,228.96s10.38,4.9,16.45-6.11c-11.78-4.38-16.45,6.11-16.45,6.11Z"/>
      <path class="st3" d="M480.92,244.45s9.72,6.12,17.07-4.08c-11.17-5.78-17.07,4.08-17.07,4.08Z"/>
      <path class="st3" d="M420.98,187.69s9.05,7.06,17.39-2.35c-10.53-6.86-17.39,2.35-17.39,2.35Z"/>
      <path class="st3" d="M502.57,212.97s3.79,10.84,15.9,7.44c-5.14-11.47-15.9-7.44-15.9-7.44Z"/>
      <path class="st3" d="M294.42,89.8s6.77,9.28,17.37,2.51c-8.25-9.49-17.37-2.51-17.37-2.51Z"/>
      <path class="st3" d="M294.36,123.32s7.28,8.88,17.48,1.53c-8.77-9.01-17.48-1.53-17.48-1.53Z"/>
      <path class="st3" d="M307.41,103.47s3.26,11.01,15.51,8.21c-4.58-11.71-15.51-8.21-15.51-8.21Z"/>
      <path class="st3" d="M329.49,95.01s4.28,10.66,16.22,6.71c-5.66-11.23-16.22-6.71-16.22-6.71Z"/>
      <path class="st3" d="M265.16,110.62s10.38,4.9,16.45-6.11c-11.78-4.38-16.45,6.11-16.45,6.11Z"/>
      <path class="st3" d="M346.61,126.12s9.72,6.12,17.07-4.08c-11.17-5.78-17.07,4.08-17.07,4.08Z"/>
      <path class="st3" d="M368.26,94.64s3.79,10.84,15.9,7.44c-5.14-11.47-15.9-7.44-15.9-7.44Z"/>
      <path class="st3" d="M422.56,114.24s1.7,11.36,14.23,10.27c-2.91-12.23-14.23-10.27-14.23-10.27Z"/>
      <path class="st3" d="M406.99,143.91s2.34,11.24,14.79,9.45c-3.6-12.05-14.79-9.45-14.79-9.45Z"/>
      <path class="st3" d="M427.75,132.37s-2.22,11.27,9.95,14.46c1.37-12.5-9.95-14.46-9.95-14.46Z"/>
      <path class="st3" d="M451.24,135.1s-1.15,11.43,11.26,13.46c.19-12.57-11.26-13.46-11.26-13.46Z"/>
      <path class="st3" d="M387,119.14s6.93,9.16,17.41,2.21c-8.41-9.35-17.41-2.21-17.41-2.21Z"/>
      <path class="st3" d="M452,170.61s5.77,9.93,17.02,4.3c-7.22-10.29-17.02-4.3-17.02-4.3Z"/>
      <path class="st3" d="M464.15,128.07s4.75,10.46,16.5,5.98c-6.16-10.96-16.5-5.98-16.5-5.98Z"/>
      <path class="st3" d="M485.76,152.74s-1.66,11.36,10.64,13.96c.76-12.55-10.64-13.96-10.64-13.96Z"/>
      <path class="st3" d="M412.23,57.21s2.23,11.26,14.7,9.59c-3.48-12.08-14.7-9.59-14.7-9.59Z"/>
      <path class="st3" d="M398.07,87.58s2.87,11.12,15.21,8.75c-4.16-11.87-15.21-8.75-15.21-8.75Z"/>
      <path class="st3" d="M418.26,75.07s-1.68,11.36,10.61,13.98c.78-12.55-10.61-13.98-10.61-13.98Z"/>
      <path class="st3" d="M441.86,76.69s-.61,11.47,11.88,12.91c-.4-12.57-11.88-12.91-11.88-12.91Z"/>
      <path class="st3" d="M376.93,63.77s7.35,8.82,17.49,1.39c-8.84-8.94-17.49-1.39-17.49-1.39Z"/>
      <path class="st3" d="M444.29,112.13s6.23,9.64,17.2,3.49c-7.7-9.94-17.2-3.49-17.2-3.49Z"/>
      <path class="st3" d="M454.42,69.07s5.24,10.22,16.76,5.2c-6.66-10.66-16.76-5.2-16.76-5.2Z"/>
      <path class="st3" d="M477.17,92.69s-1.13,11.43,11.29,13.44c.16-12.57-11.29-13.44-11.29-13.44Z"/>
      <path class="st3" d="M299.25,52.1s6.77,9.28,17.37,2.51c-8.25-9.49-17.37-2.51-17.37-2.51Z"/>
      <path class="st3" d="M312.24,65.76s3.26,11.01,15.51,8.21c-4.58-11.71-15.51-8.21-15.51-8.21Z"/>
      <path class="st3" d="M334.32,57.3s4.28,10.66,16.22,6.71c-5.66-11.23-16.22-6.71-16.22-6.71Z"/>
      <path class="st3" d="M351.44,88.41s9.72,6.12,17.07-4.08c-11.17-5.78-17.07,4.08-17.07,4.08Z"/>
      <path class="st3" d="M342.51,45.09s9.05,7.06,17.39-2.35c-10.53-6.86-17.39,2.35-17.39,2.35Z"/>
      <path class="st3" d="M184.44,160.82s10.41,4.84,16.42-6.2c-11.81-4.32-16.42,6.2-16.42,6.2Z"/>
      <path class="st3" d="M187.59,137.28s7.71,8.51,17.54.67c-9.2-8.57-17.54-.67-17.54-.67Z"/>
      <path class="st3" d="M203.83,120.08s8.48,7.75,17.52-.98c-9.97-7.66-17.52.98-17.52.98Z"/>
      <path class="st3" d="M158.87,158.53s6.85,9.22,17.39,2.37c-8.33-9.42-17.39-2.37-17.39-2.37Z"/>
      <path class="st3" d="M232.74,140.69s11.41,1.3,13.61-11.07c-12.57-.36-13.61,11.07-13.61,11.07Z"/>
      <path class="st3" d="M238.6,102.94s8.12,8.12,17.55-.19c-9.61-8.11-17.55.19-17.55.19Z"/>
      <path class="st3" d="M509.84,149.42s4.33,10.64,16.25,6.64c-5.71-11.2-16.25-6.64-16.25-6.64Z"/>
      <path class="st3" d="M509.88,179.35s4.13,10.72,16.12,6.94c-5.5-11.31-16.12-6.94-16.12-6.94Z"/>
      <path class="st3" d="M532.95,173.23s4.71,10.47,16.48,6.04c-6.11-10.99-16.48-6.04-16.48-6.04Z"/>
      <path class="st3" d="M533.55,161.36s5.68,9.98,16.97,4.46c-7.12-10.36-16.97-4.46-16.97-4.46Z"/>
      <path class="st3" d="M491.94,118.53s2.77,11.14,15.14,8.88c-4.06-11.9-15.14-8.88-15.14-8.88Z"/>
      <path class="st3" d="M531.48,191.4s1.41,11.4,13.96,10.64c-2.6-12.3-13.96-10.64-13.96-10.64Z"/>
      <path class="st3" d="M540.83,145.43s9.5,6.45,17.2-3.5c-10.97-6.15-17.2,3.5-17.2,3.5Z"/>
      <path class="st3" d="M558.83,186.68s4.51,10.56,16.36,6.36c-5.9-11.1-16.36-6.36-16.36-6.36Z"/>
      <path class="st3" d="M513.13,132.51s4.28,10.66,16.22,6.71c-5.66-11.23-16.22-6.71-16.22-6.71Z"/>
      <path class="st3" d="M369.69,230.58s9.72,6.12,17.07-4.08c-11.17-5.78-17.07,4.08-17.07,4.08Z"/>
      <path class="st3" d="M521.32,120.3s9.05,7.06,17.39-2.35c-10.53-6.86-17.39,2.35-17.39,2.35Z"/>
      <path class="st3" d="M476.66,228.43s7.28,8.88,17.48,1.53c-8.77-9.01-17.48-1.53-17.48-1.53Z"/>
      <path class="st3" d="M488.33,186.89s4.28,10.66,16.22,6.71c-5.66-11.23-16.22-6.71-16.22-6.71Z"/>
      <path class="st3" d="M454.28,195.28s10.38,4.9,16.45-6.11c-11.78-4.38-16.45,6.11-16.45,6.11Z"/>
      <path class="st3" d="M528.91,231.23s9.72,6.12,17.07-4.08c-11.17-5.78-17.07,4.08-17.07,4.08Z"/>
      <path class="st3" d="M550.56,199.76s3.79,10.84,15.9,7.44c-5.14-11.47-15.9-7.44-15.9-7.44Z"/>
      <path class="st3" d="M35.2,231.64s7.28,8.88,17.48,1.53c-8.77-9.01-17.48-1.53-17.48-1.53Z"/>
      <path class="st3" d="M29.54,217.53s10.38,4.9,16.45-6.11c-11.78-4.38-16.45,6.11-16.45,6.11Z"/>
      <path class="st3" d="M98.25,245.13s9.72,6.12,17.07-4.08c-11.17-5.78-17.07,4.08-17.07,4.08Z"/>
      <path class="st3" d="M89.31,201.81s9.05,7.06,17.39-2.35c-10.53-6.86-17.39,2.35-17.39,2.35Z"/>
    </g>
  </g>
  <g id="crudités">
    <g>
      <path class="st14" d="M78.68,347.97c-3.7-.91-7.49-1.7-11.1-2.96-3.19-1.11-6.94-4.41-10.28-4.38-.51,0-.98-.06-1.41-.17-1.46,1.03-12.61,9.67-2.06,25.46,0,0,8.38,10.73,28.19.31,0,0,10.12-4.15,14.83-13.92-6-1.64-12.11-2.84-18.16-4.33ZM54.98,352.99s-2.81-5.35.69-5.7c0,0,6.2,3.68,3.63-3.24l7.09,9.69s-4.31,4.48-11.41-.74Z"/>
      <path class="st12" d="M95.84,352.03c-4.54,9.19-14.07,13.22-14.2,13.27l-.09.04c-18.75,9.87-26.61.37-26.89.02-3.62-5.42-4.97-10.5-4.03-15.1,1.21-5.92,5.91-9.04,5.93-9.05.15-.09.33-.2.46-.47l1.34,3.63c.86,2.31.47,2.82.47,2.83-.24.2-1.54-.13-2.65-.79l-.28-.17-.33.03c-1.34.14-1.99.84-2.29,1.4-1.06,1.98.5,5.15.82,5.76l.11.2.19.14c7.72,5.67,12.67.67,12.72.62l.58-.61-9.6-13.11c-.27-.04-.53-.06-.79-.06-.98,0-1.82-.22-2.5-.61-1.51,1.19-5.02,4.45-6.12,9.8-1.07,5.15.39,10.75,4.36,16.71.24.31,4.27,5.28,13.04,5.28,4.29,0,9.7-1.19,16.36-4.69.8-.35,10.7-4.79,15.36-14.56-.65-.18-1.31-.37-1.96-.54ZM60.78,347.75l4.24,5.79c-1.32.85-4.54,2.14-9.25-1.22-.55-1.14-1.12-2.95-.73-3.68.04-.07.12-.22.45-.31.95.51,3.27,1.55,4.63.42.33-.27.54-.62.67-1Z"/>
    </g>
    <g>
      <path class="st14" d="M184.87,371.28c.79,1.92,1.19,5.24-2.11,9.55,0,0-5.41,2.7-5.69-.8,0,0,3.81-6.12-3.17-3.7l7.94-5.56c-1.97-.33-3.94-.64-5.93-.9-4.98-.63-9.98-1.03-14.92-1.9-4.43-.78-8.75-3.29-13.16-3.78-2.33,1.1-4.94,2.15-7.8,3,0,0,2.2,7.87,5.94,8.6,0,0,1.52,8.87,3.55,10.32,0,0,19.78-8.11,20.64-6.6,0,0,8.42,13.65,25.51,2.75,0,0,3.45-2.58,4.69-8.4-5.2-.65-10.33-1.65-15.48-2.57Z"/>
      <path class="st12" d="M199.39,373.73c-1.12,5.17-4.07,7.52-4.26,7.66-5.49,3.5-10.6,4.75-15.18,3.71-5.89-1.33-8.91-6.1-8.93-6.11-.09-.16-.19-.34-.46-.47l3.66-1.27c2.33-.81,2.83-.41,2.84-.41.2.25-.16,1.54-.84,2.64l-.17.28.03.33c.11,1.34.8,2,1.36,2.32,1.96,1.11,5.16-.39,5.78-.7l.21-.1.14-.18c3.27-4.26,3.17-7.72,2.44-9.95-.77-.14-1.54-.28-2.32-.42.8,1.47,1.69,4.6-1.56,8.96-1.15.53-2.98,1.05-3.7.65-.07-.04-.22-.12-.3-.45.53-.94,1.62-3.24.52-4.62-.27-.33-.6-.55-.98-.69l5.6-3.93c-.94-.16-1.87-.32-2.81-.47l-11.23,7.86c-2.2.16-7.27,1.56-19.45,6.53-.99-1.39-2.18-5.67-2.8-9.31l-.12-.68-.68-.13c-2.21-.44-4.08-4.62-4.88-6.96,3.08-.98,5.84-2.16,8.26-3.38-.68-.15-1.36-.27-2.05-.33-.48-.04-.93-.15-1.34-.29-1.96.87-4.11,1.69-6.41,2.38l-.94.28.27.95c.23.82,2.24,7.66,6.03,9.12.44,2.39,1.81,8.89,3.84,10.35l.45.32.51-.21c8.25-3.38,17.58-6.72,19.57-6.72h.02c.79,1.15,4.07,5.4,9.98,6.76,1.2.27,2.43.41,3.68.41,4.11,0,8.49-1.47,13.11-4.43.27-.2,3.87-3,5.13-9.08-.67-.08-1.34-.14-2-.23Z"/>
      <path class="st12" d="M169.31,380.02s.02.03.03.05c-.01-.02-.02-.04-.03-.05Z"/>
    </g>
    <g>
      <path class="st14" d="M336.52,381.91c-.82-.09-1.64-.2-2.47-.32-4.48-.65-8.67-.49-13.16-.13-8.33.67-16.51-.22-24.8-.55.26.75.54,1.51.85,2.29,0,0,5.39,18.35,23.26,19.67,0,0,18.33-1.95,13.89-19.36,0,0,.86-.65,2.42-1.6ZM327.39,393.39c-8.81-.34-9.39-6.52-9.39-6.52l11.58-3.17c-6.32,3.83.83,4.8.83,4.8,2.52,2.45-3.01,4.89-3.01,4.89Z"/>
      <path class="st12" d="M330.1,384.55l4.72-2.86c-.25-.04-.51-.06-.76-.1-.13-.02-.26-.03-.39-.05l-16.74,4.59.08.84c0,.07.78,7.06,10.35,7.43h.23s.21-.08.21-.08c.64-.28,3.83-1.79,4.23-4,.11-.63.05-1.58-.92-2.52l-.24-.23-.33-.04c-1.28-.18-2.51-.73-2.57-1.03,0,0,.02-.64,2.13-1.92ZM329.9,389.43c.2.27.17.45.16.52-.15.82-1.72,1.89-2.86,2.43-5.79-.3-7.51-3.32-8-4.8l6.92-1.9c-.14.38-.18.78-.1,1.2.36,1.73,2.82,2.36,3.88,2.55Z"/>
      <path class="st12" d="M338.22,382.08c-1.08-.08-2.17-.22-3.26-.36-.87.57-1.37.94-1.45,1l-.53.4.16.64c1.21,4.76.75,8.73-1.37,11.79-3.55,5.12-10.72,6.21-11.57,6.32-16.88-1.31-22.23-18.77-22.28-18.95l-.03-.09c-.26-.64-.49-1.26-.71-1.87-.71-.03-1.43-.06-2.14-.08.29.87.61,1.75.98,2.66.35,1.11,6.26,19.01,24.13,20.33h.09s.09,0,.09,0c.36-.04,8.79-1,13.08-7.17,2.37-3.41,2.99-7.7,1.84-12.76.57-.39,1.59-1.06,2.98-1.86Z"/>
    </g>
    <g>
      <path class="st14" d="M512.93,355.24c-3.49.83-7.04,1.15-10.59,1.48-1.59,3.44-4.61,4.06-4.61,4.06l-1.33-3.42c-2.67.37-5.33.9-7.93,1.83-1.22.44-2.42.79-3.62,1.11-.71,1.51-2.14,2.65-4.32,2.65-.64,0-1.21-.1-1.72-.28-.54.67-1.25,1.21-2.18,1.48l3.98,5.44s-4.31,4.48-11.41-.74c0,0-1.04-1.98-1.06-3.61-1.36.29-2.76.47-4.23.53-.88,4.07-.28,9.42,4.14,16.02,0,0,8.38,10.73,28.19.31,0,0,17.7-7.24,17.17-25.17,0,0-.14-.67-.49-1.69Z"/>
      <path class="st12" d="M474.33,364.62c.1-.09.17-.19.26-.28-.72-.07-1.34-.27-1.88-.56-.71.3-1.43.58-2.17.82,1.12.47,2.74.9,3.79.02Z"/>
      <path class="st12" d="M477.58,363.76c-.58.32-1.26.53-2.05.59l3.71,5.07c-1.32.85-4.54,2.14-9.25-1.22-.45-.93-.91-2.31-.84-3.18-.65.17-1.31.32-1.99.43.08,1.69.93,3.44,1.16,3.88l.11.2.19.14c7.72,5.67,12.67.67,12.72.62l.58-.61-4.34-5.93Z"/>
      <path class="st12" d="M514.39,356.73c-.02-.09-.17-.76-.49-1.74-.65.17-1.3.33-1.96.47.28.81.43,1.39.48,1.6.43,16.93-16.38,24.04-16.56,24.11l-.09.04c-18.75,9.87-26.61.37-26.89.02-3.62-5.42-4.97-10.5-4.03-15.1.03-.15.08-.28.11-.42-.68.05-1.37.08-2.08.08-1.03,5.13.42,10.7,4.38,16.62.24.31,4.27,5.28,13.04,5.28,4.29,0,9.7-1.19,16.36-4.69,1.07-.46,18.27-8.18,17.74-26.1l-.02-.18Z"/>
      <path class="st12" d="M497.92,361.76c.05-.01,3.83-.84,5.54-5.15-.76.07-1.53.14-2.29.21-.88,1.57-2.08,2.34-2.85,2.7l-.89-2.3c-.68.08-1.36.18-2.04.29l1.72,4.42.82-.17Z"/>
    </g>
    <path class="st11" d="M570.84,332.8c-262.59,110.81-538.72-.53-538.72-.53"/>
  </g>
</svg>