<?xml version="1.0" encoding="UTF-8"?>
<svg xmlns="http://www.w3.org/2000/svg" version="1.1" xmlns:xlink="http://www.w3.org/1999/xlink" viewBox="0 0 600 500">
  <!-- Generator: Adobe Illustrator 30.1.0, SVG Export Plug-In . SVG Version: 2.1.1 Build 136)  -->
  <defs>
    <style>
      .st0 {
        fill: url(#Dégradé_sans_nom_57);
      }

      .st0, .st1, .st2, .st3, .st4, .st5, .st6, .st7, .st8, .st9, .st10, .st11 {
        stroke: #000;
        stroke-miterlimit: 10;
      }

      .st0, .st1, .st2, .st3, .st5, .st7, .st8, .st9, .st10, .st11 {
        stroke-width: 3px;
      }

      .st12 {
        fill: #ecff99;
      }

      .st13 {
        opacity: .49;
      }

      .st1 {
        fill: url(#Dégradé_sans_nom_101);
      }

      .st2 {
        fill: url(#Dégradé_sans_nom_571);
      }

      .st3 {
        fill: url(#Dégradé_sans_nom_573);
      }

      .st4 {
        fill: #ffb955;
      }

      .st5 {
        fill: url(#Dégradé_sans_nom_574);
      }

      .st14 {
        display: none;
      }

      .st15 {
        fill: #6f8800;
      }

      .st6 {
        fill: #93aa00;
        stroke-width: 2px;
      }

      .st7 {
        fill: url(#Dégradé_sans_nom_208);
      }

      .st8 {
        fill: none;
      }

      .st9 {
        fill: #aa0400;
      }

      .st10 {
        fill: url(#Dégradé_sans_nom_572);
      }

      .st11 {
        fill: #773800;
      }
    </style>
    <linearGradient id="Dégradé_sans_nom_208" data-name="Dégradé sans nom 208" x1="300.64" y1="367.15" x2="300.64" y2="470.74" gradientUnits="userSpaceOnUse">
      <stop offset="0" stop-color="#cc7800"/>
      <stop offset=".17" stop-color="#cf7d07"/>
      <stop offset=".42" stop-color="#da8c1c"/>
      <stop offset=".73" stop-color="#eca53d"/>
      <stop offset="1" stop-color="#ffc062"/>
    </linearGradient>
    <linearGradient id="Dégradé_sans_nom_101" data-name="Dégradé sans nom 101" x1="301.22" y1="30.89" x2="301.22" y2="382.4" gradientUnits="userSpaceOnUse">
      <stop offset="0" stop-color="#cc7800"/>
      <stop offset=".45" stop-color="#cc7901"/>
      <stop offset=".61" stop-color="#d07e08"/>
      <stop offset=".73" stop-color="#d68714"/>
      <stop offset=".82" stop-color="#df9325"/>
      <stop offset=".9" stop-color="#eaa33b"/>
      <stop offset=".97" stop-color="#f8b755"/>
      <stop offset="1" stop-color="#ffc062"/>
    </linearGradient>
    <linearGradient id="Dégradé_sans_nom_57" data-name="Dégradé sans nom 57" x1="299.62" y1="233.45" x2="303.06" y2="233.45" gradientUnits="userSpaceOnUse">
      <stop offset="0" stop-color="#cc7800"/>
      <stop offset=".03" stop-color="#d2800b"/>
      <stop offset=".1" stop-color="#df9426"/>
      <stop offset=".18" stop-color="#eba43c"/>
      <stop offset=".27" stop-color="#f4b04d"/>
      <stop offset=".39" stop-color="#fab959"/>
      <stop offset=".55" stop-color="#febe60"/>
      <stop offset="1" stop-color="#ffc062"/>
    </linearGradient>
    <linearGradient id="Dégradé_sans_nom_571" data-name="Dégradé sans nom 57" x1="299.77" y1="143.77" x2="299.77" y2="230.87" xlink:href="#Dégradé_sans_nom_57"/>
    <linearGradient id="Dégradé_sans_nom_572" data-name="Dégradé sans nom 57" x1="292.92" y1="233.39" x2="294.94" y2="233.39" xlink:href="#Dégradé_sans_nom_57"/>
    <linearGradient id="Dégradé_sans_nom_573" data-name="Dégradé sans nom 57" x1="304.3" y1="233.39" x2="306.32" y2="233.39" xlink:href="#Dégradé_sans_nom_57"/>
    <linearGradient id="Dégradé_sans_nom_574" data-name="Dégradé sans nom 57" x1="296.18" x2="299.62" xlink:href="#Dégradé_sans_nom_57"/>
  </defs>
  <g id="Bagel" class="st14">
    <g>
      <path class="st7" d="M375.55,412.84c-20.59,1.72-41.51,2.58-62.66,2.58-37.16,0-75.05-2.65-113.26-7.95-83.81-11.61-145.92-32.9-165.88-40.32,31.35,53.41,104.51,105.46,272.56,103.53,159.92-1.84,230.34-54.03,261.2-102.76-59.6,24.13-124.13,39.24-191.97,44.91Z"/>
      <path class="st1" d="M299.37,31.47C.56,25.36,11.57,233.54,11.57,233.54c-1.19,17.06-2.73,58.36,19.87,99.64,15.1,5.79,79.59,29.1,168.7,41.44,92.85,12.85,232,16.04,370.02-40.91,24.56-41.68,20.97-79.62,20.97-79.62C602.62,8.44,299.37,31.47,299.37,31.47ZM299.37,233.46c-42.55,0-77.05-11.12-77.05-24.83s34.5-24.83,77.05-24.83,77.05,11.12,77.05,24.83-34.5,24.83-77.05,24.83Z"/>
    </g>
    <g>
      <path class="st0" d="M303.06,233.43c-1.14.02-2.29.03-3.44.03,1.15,0,2.3-.01,3.44-.03Z"/>
      <path class="st2" d="M297.9,143.77c-59.22,0-96.92,13.65-105.5,40.02-6.33,19.45,30.55,40.46,72.98,47.08-25.36-4.06-42.8-12.5-42.8-22.24,0-13.71,34.5-17.85,77.05-17.85s77.05,4.13,77.05,17.85c0,9.75-17.44,18.18-42.8,22.24,42.42-6.62,80.72-22.24,72.98-47.08-9.1-29.2-49.73-40.02-108.95-40.02Z"/>
      <path class="st10" d="M292.92,233.36c.67.02,1.35.04,2.02.05-.68-.01-1.35-.03-2.02-.05Z"/>
      <path class="st3" d="M306.32,233.36c-.67.02-1.34.04-2.02.05.68-.01,1.35-.03,2.02-.05Z"/>
      <path class="st5" d="M299.62,233.46c-1.15,0-2.3-.01-3.44-.03,1.14.02,2.29.03,3.44.03Z"/>
    </g>
    <g>
      <path class="st4" d="M56.74,169.9s6.77,9.28,17.37,2.51c-8.25-9.49-17.37-2.51-17.37-2.51Z"/>
      <path class="st4" d="M56.69,203.41s7.28,8.88,17.48,1.53c-8.77-9.01-17.48-1.53-17.48-1.53Z"/>
      <path class="st4" d="M69.73,183.57s3.26,11.01,15.51,8.21c-4.58-11.71-15.51-8.21-15.51-8.21Z"/>
      <path class="st4" d="M107.21,179.46s4.28,10.66,16.22,6.71c-5.66-11.23-16.22-6.71-16.22-6.71Z"/>
      <path class="st4" d="M27.49,190.72s10.38,4.9,16.45-6.11c-11.78-4.38-16.45,6.11-16.45,6.11Z"/>
      <path class="st4" d="M119.15,205.5s9.72,6.12,17.07-4.08c-11.17-5.78-17.07,4.08-17.07,4.08Z"/>
      <path class="st4" d="M100,162.89s9.05,7.06,17.39-2.35c-10.53-6.86-17.39,2.35-17.39,2.35Z"/>
      <path class="st4" d="M153.93,172.93s3.79,10.84,15.9,7.44c-5.14-11.47-15.9-7.44-15.9-7.44Z"/>
      <path class="st4" d="M92.61,216.95s6.77,9.28,17.37,2.51c-8.25-9.49-17.37-2.51-17.37-2.51Z"/>
      <path class="st4" d="M114.68,251.56s7.28,8.88,17.48,1.53c-8.77-9.01-17.48-1.53-17.48-1.53Z"/>
      <path class="st4" d="M127.69,222.15s4.28,10.66,16.22,6.71c-5.66-11.23-16.22-6.71-16.22-6.71Z"/>
      <path class="st4" d="M63.36,237.77s10.38,4.9,16.45-6.11c-11.78-4.38-16.45,6.11-16.45,6.11Z"/>
      <path class="st4" d="M144.81,253.27s9.72,6.12,17.07-4.08c-11.17-5.78-17.07,4.08-17.07,4.08Z"/>
      <path class="st4" d="M150.17,203.25s9.05,7.06,17.39-2.35c-10.53-6.86-17.39,2.35-17.39,2.35Z"/>
      <path class="st4" d="M174.96,217.37s3.79,10.84,15.9,7.44c-5.14-11.47-15.9-7.44-15.9-7.44Z"/>
      <path class="st4" d="M89.09,111.1s6.77,9.28,17.37,2.51c-8.25-9.49-17.37-2.51-17.37-2.51Z"/>
      <path class="st4" d="M89.03,144.61s7.28,8.88,17.48,1.53c-8.77-9.01-17.48-1.53-17.48-1.53Z"/>
      <path class="st4" d="M102.08,124.77s3.26,11.01,15.51,8.21c-4.58-11.71-15.51-8.21-15.51-8.21Z"/>
      <path class="st4" d="M124.16,116.3s4.28,10.66,16.22,6.71c-5.66-11.23-16.22-6.71-16.22-6.71Z"/>
      <path class="st4" d="M59.84,131.92s10.38,4.9,16.45-6.11c-11.78-4.38-16.45,6.11-16.45,6.11Z"/>
      <path class="st4" d="M141.29,147.42s9.72,6.12,17.07-4.08c-11.17-5.78-17.07,4.08-17.07,4.08Z"/>
      <path class="st4" d="M132.35,104.1s9.05,7.06,17.39-2.35c-10.53-6.86-17.39,2.35-17.39,2.35Z"/>
      <path class="st4" d="M162.93,115.94s3.79,10.84,15.9,7.44c-5.14-11.47-15.9-7.44-15.9-7.44Z"/>
      <path class="st4" d="M195.71,61.07s6.77,9.28,17.37,2.51c-8.25-9.49-17.37-2.51-17.37-2.51Z"/>
      <path class="st4" d="M195.65,94.58s7.28,8.88,17.48,1.53c-8.77-9.01-17.48-1.53-17.48-1.53Z"/>
      <path class="st4" d="M208.7,74.73s3.26,11.01,15.51,8.21c-4.58-11.71-15.51-8.21-15.51-8.21Z"/>
      <path class="st4" d="M230.78,66.27s4.28,10.66,16.22,6.71c-5.66-11.23-16.22-6.71-16.22-6.71Z"/>
      <path class="st4" d="M166.46,81.89s10.38,4.9,16.45-6.11c-11.78-4.38-16.45,6.11-16.45,6.11Z"/>
      <path class="st4" d="M238.97,54.06s9.05,7.06,17.39-2.35c-10.53-6.86-17.39,2.35-17.39,2.35Z"/>
      <path class="st4" d="M269.55,65.91s3.79,10.84,15.9,7.44c-5.14-11.47-15.9-7.44-15.9-7.44Z"/>
      <path class="st4" d="M208.62,235.35s3.61,10.9,15.77,7.7c-4.95-11.56-15.77-7.7-15.77-7.7Z"/>
      <path class="st4" d="M198.32,267.24s4.22,10.68,16.18,6.8c-5.6-11.26-16.18-6.8-16.18-6.8Z"/>
      <path class="st4" d="M216.81,252.33s-.27,11.48,12.26,12.56c-.78-12.55-12.26-12.56-12.26-12.56Z"/>
      <path class="st4" d="M240.42,251.02s.82,11.45,13.39,11.35c-1.96-12.42-13.39-11.35-13.39-11.35Z"/>
      <path class="st4" d="M174.4,246.23s8.39,7.84,17.53-.79c-9.88-7.78-17.53.79-17.53.79Z"/>
      <path class="st4" d="M247.22,285.88s7.38,8.8,17.5,1.34c-8.87-8.91-17.5-1.34-17.5-1.34Z"/>
      <path class="st4" d="M251.95,241.9s6.46,9.49,17.28,3.08c-7.93-9.76-17.28-3.08-17.28-3.08Z"/>
      <path class="st4" d="M277.45,262.52s.3,11.48,12.86,11.94c-1.39-12.5-12.86-11.94-12.86-11.94Z"/>
      <path class="st4" d="M319.94,274.22s5.88,9.86,17.06,4.11c-7.34-10.21-17.06-4.11-17.06-4.11Z"/>
      <path class="st4" d="M335.79,256.53s1.59,11.37,14.12,10.42c-2.79-12.26-14.12-10.42-14.12-10.42Z"/>
      <path class="st4" d="M358.88,251.44s2.65,11.17,15.04,9.04c-3.93-11.94-15.04-9.04-15.04-9.04Z"/>
      <path class="st4" d="M292.95,257.34s9.54,6.39,17.18-3.6c-11-6.08-17.18,3.6-17.18,3.6Z"/>
      <path class="st4" d="M371.2,284.75s8.7,7.5,17.49-1.5c-10.19-7.37-17.49,1.5-17.49,1.5Z"/>
      <path class="st4" d="M368.79,240.58s7.91,8.33,17.55.26c-9.4-8.35-17.55-.26-17.55-.26Z"/>
      <path class="st4" d="M397.28,256.83s2.14,11.28,14.62,9.71c-3.39-12.11-14.62-9.71-14.62-9.71Z"/>
      <path class="st4" d="M428.73,208.14s6.77,9.28,17.37,2.51c-8.25-9.49-17.37-2.51-17.37-2.51Z"/>
      <path class="st4" d="M428.67,241.65s7.28,8.88,17.48,1.53c-8.77-9.01-17.48-1.53-17.48-1.53Z"/>
      <path class="st4" d="M441.72,221.8s3.26,11.01,15.51,8.21c-4.58-11.71-15.51-8.21-15.51-8.21Z"/>
      <path class="st4" d="M477.29,211.25s4.28,10.66,16.22,6.71c-5.66-11.23-16.22-6.71-16.22-6.71Z"/>
      <path class="st4" d="M399.48,228.96s10.38,4.9,16.45-6.11c-11.78-4.38-16.45,6.11-16.45,6.11Z"/>
      <path class="st4" d="M480.92,244.45s9.72,6.12,17.07-4.08c-11.17-5.78-17.07,4.08-17.07,4.08Z"/>
      <path class="st4" d="M420.98,187.69s9.05,7.06,17.39-2.35c-10.53-6.86-17.39,2.35-17.39,2.35Z"/>
      <path class="st4" d="M502.57,212.97s3.79,10.84,15.9,7.44c-5.14-11.47-15.9-7.44-15.9-7.44Z"/>
      <path class="st4" d="M294.42,89.8s6.77,9.28,17.37,2.51c-8.25-9.49-17.37-2.51-17.37-2.51Z"/>
      <path class="st4" d="M294.36,123.32s7.28,8.88,17.48,1.53c-8.77-9.01-17.48-1.53-17.48-1.53Z"/>
      <path class="st4" d="M307.41,103.47s3.26,11.01,15.51,8.21c-4.58-11.71-15.51-8.21-15.51-8.21Z"/>
      <path class="st4" d="M329.49,95.01s4.28,10.66,16.22,6.71c-5.66-11.23-16.22-6.71-16.22-6.71Z"/>
      <path class="st4" d="M265.16,110.62s10.38,4.9,16.45-6.11c-11.78-4.38-16.45,6.11-16.45,6.11Z"/>
      <path class="st4" d="M346.61,126.12s9.72,6.12,17.07-4.08c-11.17-5.78-17.07,4.08-17.07,4.08Z"/>
      <path class="st4" d="M368.26,94.64s3.79,10.84,15.9,7.44c-5.14-11.47-15.9-7.44-15.9-7.44Z"/>
      <path class="st4" d="M422.56,114.24s1.7,11.36,14.23,10.27c-2.91-12.23-14.23-10.27-14.23-10.27Z"/>
      <path class="st4" d="M406.99,143.91s2.34,11.24,14.79,9.45c-3.6-12.05-14.79-9.45-14.79-9.45Z"/>
      <path class="st4" d="M427.75,132.37s-2.22,11.27,9.95,14.46c1.37-12.5-9.95-14.46-9.95-14.46Z"/>
      <path class="st4" d="M451.24,135.1s-1.15,11.43,11.26,13.46c.19-12.57-11.26-13.46-11.26-13.46Z"/>
      <path class="st4" d="M387,119.14s6.93,9.16,17.41,2.21c-8.41-9.35-17.41-2.21-17.41-2.21Z"/>
      <path class="st4" d="M452,170.61s5.77,9.93,17.02,4.3c-7.22-10.29-17.02-4.3-17.02-4.3Z"/>
      <path class="st4" d="M464.15,128.07s4.75,10.46,16.5,5.98c-6.16-10.96-16.5-5.98-16.5-5.98Z"/>
      <path class="st4" d="M485.76,152.74s-1.66,11.36,10.64,13.96c.76-12.55-10.64-13.96-10.64-13.96Z"/>
      <path class="st4" d="M412.23,57.21s2.23,11.26,14.7,9.59c-3.48-12.08-14.7-9.59-14.7-9.59Z"/>
      <path class="st4" d="M398.07,87.58s2.87,11.12,15.21,8.75c-4.16-11.87-15.21-8.75-15.21-8.75Z"/>
      <path class="st4" d="M418.26,75.07s-1.68,11.36,10.61,13.98c.78-12.55-10.61-13.98-10.61-13.98Z"/>
      <path class="st4" d="M441.86,76.69s-.61,11.47,11.88,12.91c-.4-12.57-11.88-12.91-11.88-12.91Z"/>
      <path class="st4" d="M376.93,63.77s7.35,8.82,17.49,1.39c-8.84-8.94-17.49-1.39-17.49-1.39Z"/>
      <path class="st4" d="M444.29,112.13s6.23,9.64,17.2,3.49c-7.7-9.94-17.2-3.49-17.2-3.49Z"/>
      <path class="st4" d="M454.42,69.07s5.24,10.22,16.76,5.2c-6.66-10.66-16.76-5.2-16.76-5.2Z"/>
      <path class="st4" d="M477.17,92.69s-1.13,11.43,11.29,13.44c.16-12.57-11.29-13.44-11.29-13.44Z"/>
      <path class="st4" d="M299.25,52.1s6.77,9.28,17.37,2.51c-8.25-9.49-17.37-2.51-17.37-2.51Z"/>
      <path class="st4" d="M312.24,65.76s3.26,11.01,15.51,8.21c-4.58-11.71-15.51-8.21-15.51-8.21Z"/>
      <path class="st4" d="M334.32,57.3s4.28,10.66,16.22,6.71c-5.66-11.23-16.22-6.71-16.22-6.71Z"/>
      <path class="st4" d="M351.44,88.41s9.72,6.12,17.07-4.08c-11.17-5.78-17.07,4.08-17.07,4.08Z"/>
      <path class="st4" d="M342.51,45.09s9.05,7.06,17.39-2.35c-10.53-6.86-17.39,2.35-17.39,2.35Z"/>
      <path class="st4" d="M184.44,160.82s10.41,4.84,16.42-6.2c-11.81-4.32-16.42,6.2-16.42,6.2Z"/>
      <path class="st4" d="M187.59,137.28s7.71,8.51,17.54.67c-9.2-8.57-17.54-.67-17.54-.67Z"/>
      <path class="st4" d="M203.83,120.08s8.48,7.75,17.52-.98c-9.97-7.66-17.52.98-17.52.98Z"/>
      <path class="st4" d="M158.87,158.53s6.85,9.22,17.39,2.37c-8.33-9.42-17.39-2.37-17.39-2.37Z"/>
      <path class="st4" d="M232.74,140.69s11.41,1.3,13.61-11.07c-12.57-.36-13.61,11.07-13.61,11.07Z"/>
      <path class="st4" d="M238.6,102.94s8.12,8.12,17.55-.19c-9.61-8.11-17.55.19-17.55.19Z"/>
      <path class="st4" d="M509.84,149.42s4.33,10.64,16.25,6.64c-5.71-11.2-16.25-6.64-16.25-6.64Z"/>
      <path class="st4" d="M509.88,179.35s4.13,10.72,16.12,6.94c-5.5-11.31-16.12-6.94-16.12-6.94Z"/>
      <path class="st4" d="M532.95,173.23s4.71,10.47,16.48,6.04c-6.11-10.99-16.48-6.04-16.48-6.04Z"/>
      <path class="st4" d="M533.55,161.36s5.68,9.98,16.97,4.46c-7.12-10.36-16.97-4.46-16.97-4.46Z"/>
      <path class="st4" d="M491.94,118.53s2.77,11.14,15.14,8.88c-4.06-11.9-15.14-8.88-15.14-8.88Z"/>
      <path class="st4" d="M531.48,191.4s1.41,11.4,13.96,10.64c-2.6-12.3-13.96-10.64-13.96-10.64Z"/>
      <path class="st4" d="M540.83,145.43s9.5,6.45,17.2-3.5c-10.97-6.15-17.2,3.5-17.2,3.5Z"/>
      <path class="st4" d="M558.83,186.68s4.51,10.56,16.36,6.36c-5.9-11.1-16.36-6.36-16.36-6.36Z"/>
      <path class="st4" d="M513.13,132.51s4.28,10.66,16.22,6.71c-5.66-11.23-16.22-6.71-16.22-6.71Z"/>
      <path class="st4" d="M369.69,230.58s9.72,6.12,17.07-4.08c-11.17-5.78-17.07,4.08-17.07,4.08Z"/>
      <path class="st4" d="M521.32,120.3s9.05,7.06,17.39-2.35c-10.53-6.86-17.39,2.35-17.39,2.35Z"/>
      <path class="st4" d="M476.66,228.43s7.28,8.88,17.48,1.53c-8.77-9.01-17.48-1.53-17.48-1.53Z"/>
      <path class="st4" d="M488.33,186.89s4.28,10.66,16.22,6.71c-5.66-11.23-16.22-6.71-16.22-6.71Z"/>
      <path class="st4" d="M454.28,195.28s10.38,4.9,16.45-6.11c-11.78-4.38-16.45,6.11-16.45,6.11Z"/>
      <path class="st4" d="M528.91,231.23s9.72,6.12,17.07-4.08c-11.17-5.78-17.07,4.08-17.07,4.08Z"/>
      <path class="st4" d="M550.56,199.76s3.79,10.84,15.9,7.44c-5.14-11.47-15.9-7.44-15.9-7.44Z"/>
      <path class="st4" d="M35.2,231.64s7.28,8.88,17.48,1.53c-8.77-9.01-17.48-1.53-17.48-1.53Z"/>
      <path class="st4" d="M29.54,217.53s10.38,4.9,16.45-6.11c-11.78-4.38-16.45,6.11-16.45,6.11Z"/>
      <path class="st4" d="M98.25,245.13s9.72,6.12,17.07-4.08c-11.17-5.78-17.07,4.08-17.07,4.08Z"/>
      <path class="st4" d="M89.31,201.81s9.05,7.06,17.39-2.35c-10.53-6.86-17.39,2.35-17.39,2.35Z"/>
    </g>
  </g>
  <g id="fourrage" class="st14">
    <path class="st11" d="M570.48,367.11c-260.36,111.06-538.72-.53-538.72-.53-1.69-.52-6.08-2.12-8.79-6.42-1.48-2.35-1.94-4.67-2.18-5.93-.19-1.02-.63-3.76,0-7.21.19-1.05.78-3.8,2.57-6.82,2.68-4.5,6.43-6.87,8.4-7.93,46.96,17.28,104.81,32.73,171.72,41.91,102.13,14.01,236.81,14.14,367-41.38.96.75,2.3,1.84,3.83,3.23,1.59,1.44,2.41,2.19,3.33,3.33.65.8,1.82,2.28,2.74,4.5.41.99,1.33,3.29,1.27,6.3-.06,2.72-.89,4.75-2.05,7.59-.45,1.09-.85,2.09-1.43,3.06,0,0-2.27,3.99-7.69,6.3Z"/>
    <path class="st11" d="M55.03,340.38s11.6,21.75-5.62,32.82"/>
    <path class="st11" d="M89.03,350.9s13.07,25.98-6.23,32.48"/>
    <path class="st11" d="M127.69,361.42s10.79,25.4-4.26,31.99"/>
    <path class="st11" d="M168.63,368.71s15.74,23.78-2.69,33.8"/>
    <path class="st11" d="M212.84,375.42s19.33,21.94-4.22,33.25"/>
    <path class="st11" d="M255.97,380.43s20.82,16.97,0,32.95"/>
    <path class="st11" d="M307.54,381.98s18.26,15.8,0,33.42"/>
    <path class="st11" d="M352.88,381.12s22.96,10.27,0,34.28"/>
    <path class="st11" d="M407.46,376.33s17.55,18.02,0,33.11"/>
    <path class="st11" d="M457.24,368.04s20.37,20.24,0,34.19"/>
    <path class="st11" d="M501.31,357.24s25.04,12.5,6.78,32.33"/>
    <path class="st11" d="M540.74,344.52s26.96,9.56,10.33,29.79"/>
    <path class="st11" d="M300,233.63c-37.46,0-77.66-14.27-77.05-24.83.64-10.97,21.57-17.85,77.3-17.85s76.16,6.9,76.8,17.85c.62,10.56-39.57,24.83-77.05,24.83Z"/>
  </g>
  <g id="glaçage" class="st14">
    <path class="st9" d="M22.4,128.9"/>
    <path class="st6" d="M589.22,170.09c-3.58-10.83-10.97-32.45-29.46-53.32-7.17-8.09-16.37-15.87-36-29.74-59.16-41.81-53.14-39.44-60.26-43.04-1.19-.6-2.47-1.23-3.98-1.89-22.65-9.92-89.94-18.02-89.94-18.02-30.26-3.64-42.99-5.51-64.28-4.91-6.2.17-11.35.51-14.92.78-3.28-.11-8.17-.19-14.09,0-29.74.97-42.62,7.55-71.07,13.08-34.68,6.74-35.08.57-56.89,8.15-11.7,4.06-22.85,9.62-41.72,22.38-35.98,24.33-54.3,35.99-69.65,57.13-6.64,9.15-3.69,7.16-31.3,81.39-2.57,6.92-7.41,19.86-1.78,31.75,2.2,4.65,5.38,7.82,7.73,9.77,23.15,6.85,49.41,14.28,77.69,21.65l-.11-.03c2.29.8,5.2,2.06,8.29,4.08,2.74,1.8,4.86,3.7,6.42,5.32.82,1.11,2.19,3.38,1.97,6.19-.03.42-.1.82-.19,1.19-.33,1.01-.5,1.88-.55,2.66-1.65,1.6-5.34,5.63-6.56,11.91-.62,3.21-1.84,9.51,2.35,13.93,3.51,3.7,9.28,4.47,13.68,2.82,6.01-2.26,9.87-9.21,8.71-16.75-.25-.88-.5-1.78-.74-2.7-.62-2.41-1.14-4.74-1.58-6.99.13-.25.33-.61.57-1.05,2.19-4.02,3.29-6.03,4.33-7.1.79-.81,2.97-2.6,8.13-2.33,0,0-.02,0-.03,0,7.69,1.83,15.49,3.63,23.35,5.4,6.37,11.59,6.81,20.34,5.33,26.81-3.12,13.63-15.21,19.11-12.81,30.32,1.56,7.3,8.4,12.94,14.77,15.07,2.72.91,9.33,3.12,14.97-.79,6.73-4.66,6.04-13.84,6-14.29,0,0-13.81-35.72.06-51.02,43.03,11.74,79.29,14.64,104.91,14.96,25.04.32,44.98-1.76,61.43-3.52,37.39-4.01,68.38-10.55,90.97-16.25l-.15.04s11.07,1.41,11.19,17.62c-.4,2.34-.97,4.48-1.63,6.45-5.37,15.76-18.44,23.39-15.72,38.4,1.36,7.46,6.74,17.42,16.02,20.55,5,1.68,9.41.81,10.73.53,1-.21,11.12-2.52,15.26-12.32,3.04-7.19.9-13.76.3-15.41-6.56-15.24-9.56-29.75-9.46-41.99.43-5.71,3.4-16.71,18.66-25.02l-.2.05c2.65-.89,5.28-1.8,7.83-2.76,12.83-4.85,22.42-9.98,31.82-13.74.08-.03.17-.06.25-.1.51.41,1.87,1.62,2.45,3.71.48,1.73.19,3.19.01,3.84.05.78.08,2.05-.11,3.59-1.01,7.77-6.26,9.21-8.13,15.9-1.47,5.26-.2,11.49,3.3,15.11.69.71,2.54,2.58,5.5,3.13,3.51.65,6.33-.97,7.23-1.49,4.68-2.69,7.13-9.12,6.58-16.34-.6-1.7-1.21-3.96-1.44-6.67-.32-3.79.22-6.94.77-9.05,2.31-5.71,4.62-11.41,6.93-17.12,2.37-.12,4.84-.13,7.45.02,8.49.48,23.92,2.77,32.91-6.4,3.98-4.06,5.47-9.12,6.11-12.73.7-14.57-.13-36.26-8.24-60.79ZM336.85,230.48c.64-.11,1.27-.24,1.9-.38-11.38,2.13-24.62,3.36-38.75,3.36-15.18,0-29.34-1.33-41.24-3.86-39.26-8.34-71.17-27.52-65.73-45.8,7.28-24.49,45.64-39.16,104.86-39.16,54.51,0,99.07,9.99,108.07,39.16,6.33,20.52-27.92,39.76-69.11,46.68Z"/>
    <g>
      <path class="st4" d="M56.74,169.9s6.77,9.28,17.37,2.51c-8.25-9.49-17.37-2.51-17.37-2.51Z"/>
      <path class="st4" d="M56.69,203.41s7.28,8.88,17.48,1.53c-8.77-9.01-17.48-1.53-17.48-1.53Z"/>
      <path class="st4" d="M69.73,183.57s3.26,11.01,15.51,8.21c-4.58-11.71-15.51-8.21-15.51-8.21Z"/>
      <path class="st4" d="M107.21,179.46s4.28,10.66,16.22,6.71c-5.66-11.23-16.22-6.71-16.22-6.71Z"/>
      <path class="st4" d="M27.49,190.72s10.38,4.9,16.45-6.11c-11.78-4.38-16.45,6.11-16.45,6.11Z"/>
      <path class="st4" d="M119.15,205.5s9.72,6.12,17.07-4.08c-11.17-5.78-17.07,4.08-17.07,4.08Z"/>
      <path class="st4" d="M100,162.89s9.05,7.06,17.39-2.35c-10.53-6.86-17.39,2.35-17.39,2.35Z"/>
      <path class="st4" d="M153.93,172.93s3.79,10.84,15.9,7.44c-5.14-11.47-15.9-7.44-15.9-7.44Z"/>
      <path class="st4" d="M92.61,216.95s6.77,9.28,17.37,2.51c-8.25-9.49-17.37-2.51-17.37-2.51Z"/>
      <path class="st4" d="M114.68,251.56s7.28,8.88,17.48,1.53c-8.77-9.01-17.48-1.53-17.48-1.53Z"/>
      <path class="st4" d="M127.69,222.15s4.28,10.66,16.22,6.71c-5.66-11.23-16.22-6.71-16.22-6.71Z"/>
      <path class="st4" d="M63.36,237.77s10.38,4.9,16.45-6.11c-11.78-4.38-16.45,6.11-16.45,6.11Z"/>
      <path class="st4" d="M144.81,253.27s9.72,6.12,17.07-4.08c-11.17-5.78-17.07,4.08-17.07,4.08Z"/>
      <path class="st4" d="M150.17,203.25s9.05,7.06,17.39-2.35c-10.53-6.86-17.39,2.35-17.39,2.35Z"/>
      <path class="st4" d="M174.96,217.37s3.79,10.84,15.9,7.44c-5.14-11.47-15.9-7.44-15.9-7.44Z"/>
      <path class="st4" d="M89.09,111.1s6.77,9.28,17.37,2.51c-8.25-9.49-17.37-2.51-17.37-2.51Z"/>
      <path class="st4" d="M89.03,144.61s7.28,8.88,17.48,1.53c-8.77-9.01-17.48-1.53-17.48-1.53Z"/>
      <path class="st4" d="M102.08,124.77s3.26,11.01,15.51,8.21c-4.58-11.71-15.51-8.21-15.51-8.21Z"/>
      <path class="st4" d="M124.16,116.3s4.28,10.66,16.22,6.71c-5.66-11.23-16.22-6.71-16.22-6.71Z"/>
      <path class="st4" d="M59.84,131.92s10.38,4.9,16.45-6.11c-11.78-4.38-16.45,6.11-16.45,6.11Z"/>
      <path class="st4" d="M141.29,147.42s9.72,6.12,17.07-4.08c-11.17-5.78-17.07,4.08-17.07,4.08Z"/>
      <path class="st4" d="M132.35,104.1s9.05,7.06,17.39-2.35c-10.53-6.86-17.39,2.35-17.39,2.35Z"/>
      <path class="st4" d="M162.93,115.94s3.79,10.84,15.9,7.44c-5.14-11.47-15.9-7.44-15.9-7.44Z"/>
      <path class="st4" d="M195.71,61.07s6.77,9.28,17.37,2.51c-8.25-9.49-17.37-2.51-17.37-2.51Z"/>
      <path class="st4" d="M195.65,94.58s7.28,8.88,17.48,1.53c-8.77-9.01-17.48-1.53-17.48-1.53Z"/>
      <path class="st4" d="M208.7,74.73s3.26,11.01,15.51,8.21c-4.58-11.71-15.51-8.21-15.51-8.21Z"/>
      <path class="st4" d="M230.78,66.27s4.28,10.66,16.22,6.71c-5.66-11.23-16.22-6.71-16.22-6.71Z"/>
      <path class="st4" d="M166.46,81.89s10.38,4.9,16.45-6.11c-11.78-4.38-16.45,6.11-16.45,6.11Z"/>
      <path class="st4" d="M238.97,54.06s9.05,7.06,17.39-2.35c-10.53-6.86-17.39,2.35-17.39,2.35Z"/>
      <path class="st4" d="M269.55,65.91s3.79,10.84,15.9,7.44c-5.14-11.47-15.9-7.44-15.9-7.44Z"/>
      <path class="st4" d="M208.62,235.35s3.61,10.9,15.77,7.7c-4.95-11.56-15.77-7.7-15.77-7.7Z"/>
      <path class="st4" d="M198.32,267.24s4.22,10.68,16.18,6.8c-5.6-11.26-16.18-6.8-16.18-6.8Z"/>
      <path class="st4" d="M216.81,252.33s-.27,11.48,12.26,12.56c-.78-12.55-12.26-12.56-12.26-12.56Z"/>
      <path class="st4" d="M240.42,251.02s.82,11.45,13.39,11.35c-1.96-12.42-13.39-11.35-13.39-11.35Z"/>
      <path class="st4" d="M174.4,246.23s8.39,7.84,17.53-.79c-9.88-7.78-17.53.79-17.53.79Z"/>
      <path class="st4" d="M247.22,285.88s7.38,8.8,17.5,1.34c-8.87-8.91-17.5-1.34-17.5-1.34Z"/>
      <path class="st4" d="M251.95,241.9s6.46,9.49,17.28,3.08c-7.93-9.76-17.28-3.08-17.28-3.08Z"/>
      <path class="st4" d="M277.45,262.52s.3,11.48,12.86,11.94c-1.39-12.5-12.86-11.94-12.86-11.94Z"/>
      <path class="st4" d="M319.94,274.22s5.88,9.86,17.06,4.11c-7.34-10.21-17.06-4.11-17.06-4.11Z"/>
      <path class="st4" d="M335.79,256.53s1.59,11.37,14.12,10.42c-2.79-12.26-14.12-10.42-14.12-10.42Z"/>
      <path class="st4" d="M358.88,251.44s2.65,11.17,15.04,9.04c-3.93-11.94-15.04-9.04-15.04-9.04Z"/>
      <path class="st4" d="M292.95,257.34s9.54,6.39,17.18-3.6c-11-6.08-17.18,3.6-17.18,3.6Z"/>
      <path class="st4" d="M371.2,284.75s8.7,7.5,17.49-1.5c-10.19-7.37-17.49,1.5-17.49,1.5Z"/>
      <path class="st4" d="M368.79,240.58s7.91,8.33,17.55.26c-9.4-8.35-17.55-.26-17.55-.26Z"/>
      <path class="st4" d="M397.28,256.83s2.14,11.28,14.62,9.71c-3.39-12.11-14.62-9.71-14.62-9.71Z"/>
      <path class="st4" d="M428.73,208.14s6.77,9.28,17.37,2.51c-8.25-9.49-17.37-2.51-17.37-2.51Z"/>
      <path class="st4" d="M428.67,241.65s7.28,8.88,17.48,1.53c-8.77-9.01-17.48-1.53-17.48-1.53Z"/>
      <path class="st4" d="M441.72,221.8s3.26,11.01,15.51,8.21c-4.58-11.71-15.51-8.21-15.51-8.21Z"/>
      <path class="st4" d="M477.29,211.25s4.28,10.66,16.22,6.71c-5.66-11.23-16.22-6.71-16.22-6.71Z"/>
      <path class="st4" d="M399.48,228.96s10.38,4.9,16.45-6.11c-11.78-4.38-16.45,6.11-16.45,6.11Z"/>
      <path class="st4" d="M480.92,244.45s9.72,6.12,17.07-4.08c-11.17-5.78-17.07,4.08-17.07,4.08Z"/>
      <path class="st4" d="M420.98,187.69s9.05,7.06,17.39-2.35c-10.53-6.86-17.39,2.35-17.39,2.35Z"/>
      <path class="st4" d="M502.57,212.97s3.79,10.84,15.9,7.44c-5.14-11.47-15.9-7.44-15.9-7.44Z"/>
      <path class="st4" d="M294.42,89.8s6.77,9.28,17.37,2.51c-8.25-9.49-17.37-2.51-17.37-2.51Z"/>
      <path class="st4" d="M294.36,123.32s7.28,8.88,17.48,1.53c-8.77-9.01-17.48-1.53-17.48-1.53Z"/>
      <path class="st4" d="M307.41,103.47s3.26,11.01,15.51,8.21c-4.58-11.71-15.51-8.21-15.51-8.21Z"/>
      <path class="st4" d="M329.49,95.01s4.28,10.66,16.22,6.71c-5.66-11.23-16.22-6.71-16.22-6.71Z"/>
      <path class="st4" d="M265.16,110.62s10.38,4.9,16.45-6.11c-11.78-4.38-16.45,6.11-16.45,6.11Z"/>
      <path class="st4" d="M346.61,126.12s9.72,6.12,17.07-4.08c-11.17-5.78-17.07,4.08-17.07,4.08Z"/>
      <path class="st4" d="M368.26,94.64s3.79,10.84,15.9,7.44c-5.14-11.47-15.9-7.44-15.9-7.44Z"/>
      <path class="st4" d="M422.56,114.24s1.7,11.36,14.23,10.27c-2.91-12.23-14.23-10.27-14.23-10.27Z"/>
      <path class="st4" d="M406.99,143.91s2.34,11.24,14.79,9.45c-3.6-12.05-14.79-9.45-14.79-9.45Z"/>
      <path class="st4" d="M427.75,132.37s-2.22,11.27,9.95,14.46c1.37-12.5-9.95-14.46-9.95-14.46Z"/>
      <path class="st4" d="M451.24,135.1s-1.15,11.43,11.26,13.46c.19-12.57-11.26-13.46-11.26-13.46Z"/>
      <path class="st4" d="M387,119.14s6.93,9.16,17.41,2.21c-8.41-9.35-17.41-2.21-17.41-2.21Z"/>
      <path class="st4" d="M452,170.61s5.77,9.93,17.02,4.3c-7.22-10.29-17.02-4.3-17.02-4.3Z"/>
      <path class="st4" d="M464.15,128.07s4.75,10.46,16.5,5.98c-6.16-10.96-16.5-5.98-16.5-5.98Z"/>
      <path class="st4" d="M485.76,152.74s-1.66,11.36,10.64,13.96c.76-12.55-10.64-13.96-10.64-13.96Z"/>
      <path class="st4" d="M412.23,57.21s2.23,11.26,14.7,9.59c-3.48-12.08-14.7-9.59-14.7-9.59Z"/>
      <path class="st4" d="M398.07,87.58s2.87,11.12,15.21,8.75c-4.16-11.87-15.21-8.75-15.21-8.75Z"/>
      <path class="st4" d="M418.26,75.07s-1.68,11.36,10.61,13.98c.78-12.55-10.61-13.98-10.61-13.98Z"/>
      <path class="st4" d="M441.86,76.69s-.61,11.47,11.88,12.91c-.4-12.57-11.88-12.91-11.88-12.91Z"/>
      <path class="st4" d="M376.93,63.77s7.35,8.82,17.49,1.39c-8.84-8.94-17.49-1.39-17.49-1.39Z"/>
      <path class="st4" d="M444.29,112.13s6.23,9.64,17.2,3.49c-7.7-9.94-17.2-3.49-17.2-3.49Z"/>
      <path class="st4" d="M454.42,69.07s5.24,10.22,16.76,5.2c-6.66-10.66-16.76-5.2-16.76-5.2Z"/>
      <path class="st4" d="M477.17,92.69s-1.13,11.43,11.29,13.44c.16-12.57-11.29-13.44-11.29-13.44Z"/>
      <path class="st4" d="M299.25,52.1s6.77,9.28,17.37,2.51c-8.25-9.49-17.37-2.51-17.37-2.51Z"/>
      <path class="st4" d="M312.24,65.76s3.26,11.01,15.51,8.21c-4.58-11.71-15.51-8.21-15.51-8.21Z"/>
      <path class="st4" d="M334.32,57.3s4.28,10.66,16.22,6.71c-5.66-11.23-16.22-6.71-16.22-6.71Z"/>
      <path class="st4" d="M351.44,88.41s9.72,6.12,17.07-4.08c-11.17-5.78-17.07,4.08-17.07,4.08Z"/>
      <path class="st4" d="M342.51,45.09s9.05,7.06,17.39-2.35c-10.53-6.86-17.39,2.35-17.39,2.35Z"/>
      <path class="st4" d="M184.44,160.82s10.41,4.84,16.42-6.2c-11.81-4.32-16.42,6.2-16.42,6.2Z"/>
      <path class="st4" d="M187.59,137.28s7.71,8.51,17.54.67c-9.2-8.57-17.54-.67-17.54-.67Z"/>
      <path class="st4" d="M203.83,120.08s8.48,7.75,17.52-.98c-9.97-7.66-17.52.98-17.52.98Z"/>
      <path class="st4" d="M158.87,158.53s6.85,9.22,17.39,2.37c-8.33-9.42-17.39-2.37-17.39-2.37Z"/>
      <path class="st4" d="M232.74,140.69s11.41,1.3,13.61-11.07c-12.57-.36-13.61,11.07-13.61,11.07Z"/>
      <path class="st4" d="M238.6,102.94s8.12,8.12,17.55-.19c-9.61-8.11-17.55.19-17.55.19Z"/>
      <path class="st4" d="M509.84,149.42s4.33,10.64,16.25,6.64c-5.71-11.2-16.25-6.64-16.25-6.64Z"/>
      <path class="st4" d="M509.88,179.35s4.13,10.72,16.12,6.94c-5.5-11.31-16.12-6.94-16.12-6.94Z"/>
      <path class="st4" d="M532.95,173.23s4.71,10.47,16.48,6.04c-6.11-10.99-16.48-6.04-16.48-6.04Z"/>
      <path class="st4" d="M533.55,161.36s5.68,9.98,16.97,4.46c-7.12-10.36-16.97-4.46-16.97-4.46Z"/>
      <path class="st4" d="M491.94,118.53s2.77,11.14,15.14,8.88c-4.06-11.9-15.14-8.88-15.14-8.88Z"/>
      <path class="st4" d="M531.48,191.4s1.41,11.4,13.96,10.64c-2.6-12.3-13.96-10.64-13.96-10.64Z"/>
      <path class="st4" d="M540.83,145.43s9.5,6.45,17.2-3.5c-10.97-6.15-17.2,3.5-17.2,3.5Z"/>
      <path class="st4" d="M558.83,186.68s4.51,10.56,16.36,6.36c-5.9-11.1-16.36-6.36-16.36-6.36Z"/>
      <path class="st4" d="M513.13,132.51s4.28,10.66,16.22,6.71c-5.66-11.23-16.22-6.71-16.22-6.71Z"/>
      <path class="st4" d="M369.69,230.58s9.72,6.12,17.07-4.08c-11.17-5.78-17.07,4.08-17.07,4.08Z"/>
      <path class="st4" d="M521.32,120.3s9.05,7.06,17.39-2.35c-10.53-6.86-17.39,2.35-17.39,2.35Z"/>
      <path class="st4" d="M476.66,228.43s7.28,8.88,17.48,1.53c-8.77-9.01-17.48-1.53-17.48-1.53Z"/>
      <path class="st4" d="M488.33,186.89s4.28,10.66,16.22,6.71c-5.66-11.23-16.22-6.71-16.22-6.71Z"/>
      <path class="st4" d="M454.28,195.28s10.38,4.9,16.45-6.11c-11.78-4.38-16.45,6.11-16.45,6.11Z"/>
      <path class="st4" d="M528.91,231.23s9.72,6.12,17.07-4.08c-11.17-5.78-17.07,4.08-17.07,4.08Z"/>
      <path class="st4" d="M550.56,199.76s3.79,10.84,15.9,7.44c-5.14-11.47-15.9-7.44-15.9-7.44Z"/>
      <path class="st4" d="M35.2,231.64s7.28,8.88,17.48,1.53c-8.77-9.01-17.48-1.53-17.48-1.53Z"/>
      <path class="st4" d="M29.54,217.53s10.38,4.9,16.45-6.11c-11.78-4.38-16.45,6.11-16.45,6.11Z"/>
      <path class="st4" d="M98.25,245.13s9.72,6.12,17.07-4.08c-11.17-5.78-17.07,4.08-17.07,4.08Z"/>
      <path class="st4" d="M89.31,201.81s9.05,7.06,17.39-2.35c-10.53-6.86-17.39,2.35-17.39,2.35Z"/>
    </g>
  </g>
  <g id="crudités">
    <g>
      <g>
        <path class="st12" d="M84.24,349.17c-5.75-1.91-11.71-3.53-17.57-5.03-5.28-1.35-10.38-3.32-15.61-4.87-.48-.06-.91-.1-1.21-.09-.07,0-.41.02-.85-.03-.19-.02-.37-.05-.54-.09-2.43,2.68-3.66,5.51-2.15,8.13,0,0-4.77,5.69,6.67,12.91,11.44,7.22,32.45,21.84,42.87,12.1,0,0,15.99-5.59,18.51-16.25-10.14-1.96-20.22-3.49-30.12-6.78Z"/>
        <path class="st15" d="M103.66,353.93c2.96,1.36,6.33,1.91,9.14,2.09-2.62,9.47-17.29,14.71-17.45,14.76l-.3.1-.23.22c-8.86,8.28-27.46-3.6-38.57-10.69-.87-.55-1.7-1.08-2.48-1.58-5.15-3.25-6.59-5.99-6.89-7.71-.31-1.81.54-2.93.57-2.96l.68-.81-.53-.91c-.35-.6-1.37-2.36,1.45-5.78.24.02.55.03.87.01.74-.03,2.99.4,4.74.82h0c.58.14.77.19,1.2.31.48.13,1.25.34,3.13.83.29.08,1.55.41,3.23.84,1.15.29,2.2.56,3.14.8l9.67,2.37c.88.26,1.56.4,2.11.51.19.04.37.08.53.12.94.22,1.06.25,1.34.33.22.06.52.15,1.31.35.32.08.57.15.79.2-4.76-1.48-9.63-2.8-14.42-4.03-5.43-1.39-10.68-3.44-16.08-5.01-1.14-.33-1.98-.93-2.55-1.68l-.12-.03-.58.64c-3.55,3.91-3.58,6.97-2.75,9.04-.47.89-.99,2.41-.68,4.4.54,3.42,3.32,6.74,8.26,9.87.78.49,1.6,1.02,2.47,1.57,9.26,5.91,21.99,14.05,32.29,14.05,3.62,0,6.95-1.01,9.71-3.48,2.34-.87,16.72-6.6,19.19-17.27-4.07-.81-8.13-1.54-12.17-2.31Z"/>
        <path class="st15" d="M83.44,349.13c.91.65,2.02,1.02,3.22,1.09,1.62.45,3.28.79,4.93,1.07-2.46-.63-4.91-1.32-7.34-2.13-.76-.25-1.53-.49-2.29-.73.22.12.45.25.68.36.26.11.51.22.81.33Z"/>
      </g>
      <g class="st13">
        <path class="st15" d="M69.24,344.81c1.3,4.33,8.17,7.5,8.17,7.5,0,0,.08-2.42-.12-5.29-2.68-.78-5.37-1.51-8.05-2.22Z"/>
        <path class="st15" d="M67.58,344.38l.05.24c1.03,5.19,8.33,8.68,9.16,9.06l2.06.94.07-2.26c0-.1.07-2.24-.09-4.88-3.73-1.11-7.5-2.13-11.24-3.1ZM71.93,346.56c.08.03.15.06.23.09,1.14.42,2.3.76,3.66,1.04.04.75.07,1.47.08,2.1-1.34-.83-2.88-1.96-3.98-3.23Z"/>
      </g>
      <g class="st13">
        <path class="st15" d="M84.24,349.17c-.56-.19-1.14-.36-1.71-.54-.42,1.86-.53,3.3-.53,3.3,0,0,2.27-.76,4.89-1.94-.89-.27-1.77-.52-2.65-.82Z"/>
        <path class="st15" d="M84.24,349.17c-1.04-.35-2.09-.67-3.14-1-.46,1.99-.59,3.56-.59,3.64l-.17,2.25,2.14-.72c.14-.05,3.34-1.13,6.58-2.72-1.61-.45-3.22-.93-4.82-1.46Z"/>
        <path class="st15" d="M83.89,349.42c-.02.07-.03.15-.04.22.08-.03.17-.07.26-.1-.07-.04-.14-.08-.21-.12Z"/>
      </g>
      <g class="st13">
        <path class="st15" d="M76.55,357.47s-11.46,4.04-5.99,6.5c5.46,2.46,5.99-6.5,5.99-6.5Z"/>
        <path class="st15" d="M72.33,365.89c-.69,0-1.49-.15-2.39-.56-2.02-.91-2.4-2.15-2.36-3.03.12-2.88,5.36-5.15,8.47-6.25l2.13-.75-.13,2.25c-.04.6-.43,5.88-3.47,7.71-.54.33-1.29.62-2.25.62ZM70.67,362.32c.1.07.26.17.5.28,1.04.47,1.55.28,1.85.11.75-.45,1.27-1.64,1.6-2.84-1.93.88-3.52,1.85-3.95,2.46Z"/>
      </g>
      <g class="st13">
        <path class="st15" d="M81.62,358.93s2.51,11.88,5.66,6.79c3.15-5.1-5.66-6.79-5.66-6.79Z"/>
        <path class="st15" d="M85.69,368.49c-.16,0-.31-.01-.45-.04-2.84-.5-4.41-5.98-5.09-9.21l-.47-2.21,2.22.43c.59.11,5.77,1.19,7.2,4.45.44,1,.7,2.6-.54,4.6-.98,1.58-2.03,1.98-2.86,1.98ZM83.74,361.15c.62,2.02,1.38,3.73,1.92,4.24.08-.09.2-.23.34-.46.6-.97.48-1.5.35-1.82-.35-.8-1.46-1.47-2.61-1.96Z"/>
      </g>
    </g>
    <g>
      <g>
        <path class="st12" d="M244.28,378.83c-7.99-.44-16.1-1.36-24.02-2.55-3.9-.59-7.84-.99-11.73-1.67-.62-.11-1.24-.24-1.85-.39-3.06-.31-6.07-.8-8.96-1.68,0,0-.02,0-.03.01-.44.06-.89.12-1.33.18-.08,0-.17,0-.25,0-1.06,7.62-1.39,18.25,4.77,19.14,0,0,1.5,7.27,14.26,2.79,9.17-3.22,24.41-7.95,31.82-15.64-.64-.06-1.27-.13-1.9-.2-.25.02-.51.03-.78.02Z"/>
        <path class="st15" d="M248.39,378.7h-.07c-.6,0-1.17-.11-1.71-.31-.65.31-1.42.49-2.33.44-7.99-.44-16.1-1.36-24.02-2.55-3.9-.59-7.84-.99-11.73-1.67-3.62-.64-7.23-2.02-10.89-2.37-1.09-.1-1.99-.49-2.7-1.04h-.13s-.18,1.32-.18,1.32c-2.07,14.93,1.43,19.56,5.12,20.63.41.92,1.27,2.27,3.03,3.27,1.41.8,3.11,1.2,5.09,1.2,2.24,0,4.84-.52,7.78-1.55.86-.3,1.77-.62,2.72-.94,9.59-3.31,22.72-7.85,29.69-15.07l1.41-1.47c-.34.08-.7.12-1.07.11ZM217.38,392.29c-.96.33-1.87.65-2.73.95-5.75,2.02-8.79,1.44-10.32.61-1.62-.88-1.96-2.25-1.97-2.28l-.21-1.03-1.04-.15c-4.86-.71-4.31-10.84-3.65-16.28l.17-.02c5.92,1.73,12.15,1.96,18.2,2.16.69.3,1.45.47,2.26.52.41.11.83.18,1.26.21h0c4.82.37,9.7,1.11,14.43,1.83,3.18.48,6.44.98,9.71,1.36-6.88,5.5-17.84,9.29-26.1,12.14Z"/>
      </g>
      <g class="st13">
        <path class="st15" d="M226.94,377.2c-.8,3.21-1.49,7.95,2.14,6.07,2.8-1.45,2.27-3.78,1.15-5.67-1.1-.13-2.2-.25-3.29-.39Z"/>
        <path class="st15" d="M225.44,377.01c-1.31,5.33-.33,6.9.55,7.61.38.31.92.58,1.67.58.58,0,1.28-.16,2.11-.59,1.51-.78,2.43-1.87,2.75-3.23.25-1.09.08-2.29-.49-3.56-2.2-.24-4.4-.51-6.59-.8ZM229.6,380.69c-.04.17-.16.7-1.21,1.24-.24.12-.41.19-.52.22-.12-.48-.15-1.74.42-4.17.15.02.3.04.46.06.7,1.07,1,2,.85,2.65Z"/>
      </g>
    </g>
    <g>
      <g>
        <path class="st12" d="M358.33,381.06c-3.06-.04-6.15-.22-9.24-.31-2.5.04-5,.05-7.5.05-.34.02-.68.03-1.02.06-5.52.45-10.81.75-16.3.62.63,2.46,2.86,5.65,9.53,8.23,12.74,4.93,36.45,15.42,44.48,2.59,0,0,8.07-5.48,12.17-13.23-10.5,2.15-21.5,2.11-32.13,1.99Z"/>
        <path class="st15" d="M358.33,381.06c-5.89-.07-11.88-.68-17.76-.2-6.04.49-11.81.8-17.85.57.58,2.88,2.93,6.74,10.54,9.68.87.34,1.79.7,2.75,1.08,8.13,3.2,19.63,7.72,29.17,7.72,5.89,0,11.04-1.72,14.2-6.54,1.48-1.05,8.63-6.36,12.47-13.72l.51-.99c-11.07,2.57-22.76,2.54-34.05,2.4ZM377.45,391.06l-.26.18-.17.27c-6.82,10.89-27.53,2.75-39.9-2.11-.97-.38-1.89-.75-2.77-1.08-5.08-1.96-7.32-4.21-8.23-6.11,1.97,0,3.94.03,5.92.04,10.42.08,21.19.18,31.79-.68,4.67-.38,9.5-.5,14.16-.62,3.22-.08,6.53-.17,9.82-.34-4.08,6.14-10.29,10.4-10.36,10.45Z"/>
      </g>
      <g class="st13">
        <path class="st15" d="M356.23,381.27s-10.29,7.02-4.42,8.33,4.42-8.33,4.42-8.33Z"/>
        <path class="st15" d="M357.71,381.04c-1.19-.02-2.39-.06-3.59-.11-2.49,1.86-6.07,5.03-5.57,7.63.17.88.81,2.03,2.93,2.5.49.11.94.16,1.36.16,1.45,0,2.43-.59,3.04-1.16,2.72-2.54,1.93-8.36,1.83-9.02h0ZM353.83,387.88c-.24.22-.68.49-1.7.26-.35-.08-.53-.16-.62-.21.13-.7,1.55-2.24,3.37-3.75-.05,1.48-.32,3.03-1.05,3.7Z"/>
      </g>
      <g class="st13">
        <path class="st15" d="M361.49,381.61s5.06,12.01,7.02,5.85c1.95-6.16-7.02-5.85-7.02-5.85Z"/>
        <path class="st15" d="M366.93,381.1c-2.44.02-4.88,0-7.3-.03l.47,1.12c1.35,3.2,4.02,8.53,6.89,8.53.04,0,.07,0,.11,0,.9-.04,2.12-.56,2.83-2.8.78-2.46.1-4.08-.61-5.02-.62-.82-1.48-1.39-2.39-1.8ZM367.08,387.01c-.09.28-.17.47-.24.59-.69-.5-1.84-2.23-2.9-4.29,1.18.21,2.41.63,3,1.4.15.2.61.81.14,2.3Z"/>
      </g>
    </g>
    <g>
      <g>
        <path class="st12" d="M493.25,359.99c-6.26,1.7-12.57,3.12-18.87,4.65-4.53,1.11-9.05,2.41-13.68,2.92,1.41,3.66,4.41,6.87,9.94,8.9,0,0,10.74,3.02,19.5,1.16,15.33-3.26,26.78-16.03,26.78-16.03,0,0,2.59-4.76,4.71-10.43-9.08,3.78-19.06,6.3-28.38,8.83Z"/>
        <path class="st15" d="M519.72,351.94c-1.73,4.37-3.62,7.99-4.04,8.77-1.22,1.31-12,12.5-25.86,15.44-7.98,1.69-17.91-.9-18.73-1.12-4.17-1.54-7.05-3.91-8.59-7.05,3.32-.46,6.76-1.24,10.5-2.38,1.43.29,2.9.1,4.12-.5.04,0,.09,0,.13,0,1.36,0,2.6-.39,3.63-1.13,3.1-.28,5.86-.75,8.42-1.45,2.84-.77,5.62-1.84,8.31-2.88,2.2-.85,4.47-1.72,6.72-2.41,1.76-.54,3.49-1.16,5.19-1.79-5.45,1.66-10.97,3.1-16.28,4.54-6.26,1.7-12.57,3.12-18.87,4.65-5.04,1.23-10.05,2.71-15.23,3.07l.03.07c1.67,4.64,5.36,8.03,10.95,10.09l.11.04c.34.1,6.59,1.82,13.51,1.82,2.22,0,4.51-.18,6.7-.64,15.63-3.32,27.11-15.96,27.59-16.5l.2-.28c.13-.23,3.09-5.68,5.28-11.94-1.24.55-2.51,1.07-3.79,1.58Z"/>
      </g>
      <g class="st13">
        <path class="st15" d="M501.39,357.8c1.66,1.04,3.13,1.05,3.91-1.09-1.31.37-2.61.74-3.91,1.09Z"/>
        <path class="st15" d="M499.52,358.3c1.4,1.13,2.65,1.69,3.78,1.69.4,0,.78-.07,1.15-.21,1.25-.47,2.1-1.66,2.55-3.57-2.5.73-4.99,1.42-7.48,2.09Z"/>
      </g>
      <g class="st13">
        <path class="st15" d="M483.63,362.43c-.73,2.89-.15,5.01,3.64,4.29,4.02-.77,5.12-3.5,5.02-6.47-2.88.77-5.76,1.49-8.65,2.18Z"/>
        <path class="st15" d="M493.77,359.85c-.17.05-.35.09-.52.14-3.73,1.01-7.48,1.92-11.23,2.82-.36,1.94-.09,3.38.83,4.37.72.78,1.75,1.17,3.07,1.17.5,0,1.05-.06,1.63-.17,4.26-.82,6.47-3.74,6.23-8.24v-.1ZM486.98,365.24c-1.17.22-1.77.09-1.94-.09-.04-.04-.32-.4-.11-1.67,1.52-.25,2.99-.57,4.37-.95.43-.12.87-.25,1.33-.39-.4,1.72-1.58,2.7-3.66,3.1Z"/>
      </g>
    </g>
    <path class="st8" d="M31.86,332.49s289.16,112.4,538.72,0"/>
  </g>
</svg>