<?xml version="1.0" encoding="UTF-8"?>
<svg xmlns="http://www.w3.org/2000/svg" version="1.1" xmlns:xlink="http://www.w3.org/1999/xlink" viewBox="0 0 600 500">
  <!-- Generator: Adobe Illustrator 30.1.0, SVG Export Plug-In . SVG Version: 2.1.1 Build 136)  -->
  <defs>
    <style>
      .st0 {
        fill: url(#Dégradé_sans_nom_57);
      }

      .st0, .st1, .st2, .st3, .st4, .st5, .st6, .st7, .st8, .st9, .st10, .st11 {
        stroke: #000;
        stroke-miterlimit: 10;
      }

      .st0, .st1, .st2, .st3, .st5, .st7, .st8, .st9, .st11 {
        stroke-width: 3px;
      }

      .st1 {
        fill: url(#Dégradé_sans_nom_101);
      }

      .st2 {
        fill: url(#Dégradé_sans_nom_571);
      }

      .st3 {
        fill: url(#Dégradé_sans_nom_573);
      }

      .st4 {
        fill: #ffb955;
      }

      .st5 {
        fill: url(#Dégradé_sans_nom_574);
      }

      .st12 {
        display: none;
      }

      .st6 {
        fill: #93aa00;
      }

      .st6, .st10 {
        stroke-width: 2px;
      }

      .st7 {
        fill: url(#Dégradé_sans_nom_208);
      }

      .st8 {
        fill: #aa0400;
      }

      .st9 {
        fill: url(#Dégradé_sans_nom_572);
      }

      .st10 {
        fill: #ffc010;
      }

      .st11 {
        fill: #773800;
      }
    </style>
    <linearGradient id="Dégradé_sans_nom_208" data-name="Dégradé sans nom 208" x1="300.64" y1="367.15" x2="300.64" y2="470.74" gradientUnits="userSpaceOnUse">
      <stop offset="0" stop-color="#cc7800"/>
      <stop offset=".17" stop-color="#cf7d07"/>
      <stop offset=".42" stop-color="#da8c1c"/>
      <stop offset=".73" stop-color="#eca53d"/>
      <stop offset="1" stop-color="#ffc062"/>
    </linearGradient>
    <linearGradient id="Dégradé_sans_nom_101" data-name="Dégradé sans nom 101" x1="301.22" y1="30.89" x2="301.22" y2="382.4" gradientUnits="userSpaceOnUse">
      <stop offset="0" stop-color="#cc7800"/>
      <stop offset=".45" stop-color="#cc7901"/>
      <stop offset=".61" stop-color="#d07e08"/>
      <stop offset=".73" stop-color="#d68714"/>
      <stop offset=".82" stop-color="#df9325"/>
      <stop offset=".9" stop-color="#eaa33b"/>
      <stop offset=".97" stop-color="#f8b755"/>
      <stop offset="1" stop-color="#ffc062"/>
    </linearGradient>
    <linearGradient id="Dégradé_sans_nom_57" data-name="Dégradé sans nom 57" x1="299.62" y1="233.45" x2="303.06" y2="233.45" gradientUnits="userSpaceOnUse">
      <stop offset="0" stop-color="#cc7800"/>
      <stop offset=".03" stop-color="#d2800b"/>
      <stop offset=".1" stop-color="#df9426"/>
      <stop offset=".18" stop-color="#eba43c"/>
      <stop offset=".27" stop-color="#f4b04d"/>
      <stop offset=".39" stop-color="#fab959"/>
      <stop offset=".55" stop-color="#febe60"/>
      <stop offset="1" stop-color="#ffc062"/>
    </linearGradient>
    <linearGradient id="Dégradé_sans_nom_571" data-name="Dégradé sans nom 57" x1="299.77" y1="143.77" x2="299.77" y2="230.87" xlink:href="#Dégradé_sans_nom_57"/>
    <linearGradient id="Dégradé_sans_nom_572" data-name="Dégradé sans nom 57" x1="292.92" y1="233.39" x2="294.94" y2="233.39" xlink:href="#Dégradé_sans_nom_57"/>
    <linearGradient id="Dégradé_sans_nom_573" data-name="Dégradé sans nom 57" x1="304.3" y1="233.39" x2="306.32" y2="233.39" xlink:href="#Dégradé_sans_nom_57"/>
    <linearGradient id="Dégradé_sans_nom_574" data-name="Dégradé sans nom 57" x1="296.18" x2="299.62" xlink:href="#Dégradé_sans_nom_57"/>
  </defs>
  <g id="Bagel" class="st12">
    <g>
      <path class="st7" d="M375.55,412.84c-20.59,1.72-41.51,2.58-62.66,2.58-37.16,0-75.05-2.65-113.26-7.95-83.81-11.61-145.92-32.9-165.88-40.32,31.35,53.41,104.51,105.46,272.56,103.53,159.92-1.84,230.34-54.03,261.2-102.76-59.6,24.13-124.13,39.24-191.97,44.91Z"/>
      <path class="st1" d="M299.37,31.47C.56,25.36,11.57,233.54,11.57,233.54c-1.19,17.06-2.73,58.36,19.87,99.64,15.1,5.79,79.59,29.1,168.7,41.44,92.85,12.85,232,16.04,370.02-40.91,24.56-41.68,20.97-79.62,20.97-79.62C602.62,8.44,299.37,31.47,299.37,31.47ZM299.37,233.46c-42.55,0-77.05-11.12-77.05-24.83s34.5-24.83,77.05-24.83,77.05,11.12,77.05,24.83-34.5,24.83-77.05,24.83Z"/>
    </g>
    <g>
      <path class="st0" d="M303.06,233.43c-1.14.02-2.29.03-3.44.03,1.15,0,2.3-.01,3.44-.03Z"/>
      <path class="st2" d="M297.9,143.77c-59.22,0-96.92,13.65-105.5,40.02-6.33,19.45,30.55,40.46,72.98,47.08-25.36-4.06-42.8-12.5-42.8-22.24,0-13.71,34.5-17.85,77.05-17.85s77.05,4.13,77.05,17.85c0,9.75-17.44,18.18-42.8,22.24,42.42-6.62,80.72-22.24,72.98-47.08-9.1-29.2-49.73-40.02-108.95-40.02Z"/>
      <path class="st9" d="M292.92,233.36c.67.02,1.35.04,2.02.05-.68-.01-1.35-.03-2.02-.05Z"/>
      <path class="st3" d="M306.32,233.36c-.67.02-1.34.04-2.02.05.68-.01,1.35-.03,2.02-.05Z"/>
      <path class="st5" d="M299.62,233.46c-1.15,0-2.3-.01-3.44-.03,1.14.02,2.29.03,3.44.03Z"/>
    </g>
    <g>
      <path class="st4" d="M56.74,169.9s6.77,9.28,17.37,2.51c-8.25-9.49-17.37-2.51-17.37-2.51Z"/>
      <path class="st4" d="M56.69,203.41s7.28,8.88,17.48,1.53c-8.77-9.01-17.48-1.53-17.48-1.53Z"/>
      <path class="st4" d="M69.73,183.57s3.26,11.01,15.51,8.21c-4.58-11.71-15.51-8.21-15.51-8.21Z"/>
      <path class="st4" d="M107.21,179.46s4.28,10.66,16.22,6.71c-5.66-11.23-16.22-6.71-16.22-6.71Z"/>
      <path class="st4" d="M27.49,190.72s10.38,4.9,16.45-6.11c-11.78-4.38-16.45,6.11-16.45,6.11Z"/>
      <path class="st4" d="M119.15,205.5s9.72,6.12,17.07-4.08c-11.17-5.78-17.07,4.08-17.07,4.08Z"/>
      <path class="st4" d="M100,162.89s9.05,7.06,17.39-2.35c-10.53-6.86-17.39,2.35-17.39,2.35Z"/>
      <path class="st4" d="M153.93,172.93s3.79,10.84,15.9,7.44c-5.14-11.47-15.9-7.44-15.9-7.44Z"/>
      <path class="st4" d="M92.61,216.95s6.77,9.28,17.37,2.51c-8.25-9.49-17.37-2.51-17.37-2.51Z"/>
      <path class="st4" d="M114.68,251.56s7.28,8.88,17.48,1.53c-8.77-9.01-17.48-1.53-17.48-1.53Z"/>
      <path class="st4" d="M127.69,222.15s4.28,10.66,16.22,6.71c-5.66-11.23-16.22-6.71-16.22-6.71Z"/>
      <path class="st4" d="M63.36,237.77s10.38,4.9,16.45-6.11c-11.78-4.38-16.45,6.11-16.45,6.11Z"/>
      <path class="st4" d="M144.81,253.27s9.72,6.12,17.07-4.08c-11.17-5.78-17.07,4.08-17.07,4.08Z"/>
      <path class="st4" d="M150.17,203.25s9.05,7.06,17.39-2.35c-10.53-6.86-17.39,2.35-17.39,2.35Z"/>
      <path class="st4" d="M174.96,217.37s3.79,10.84,15.9,7.44c-5.14-11.47-15.9-7.44-15.9-7.44Z"/>
      <path class="st4" d="M89.09,111.1s6.77,9.28,17.37,2.51c-8.25-9.49-17.37-2.51-17.37-2.51Z"/>
      <path class="st4" d="M89.03,144.61s7.28,8.88,17.48,1.53c-8.77-9.01-17.48-1.53-17.48-1.53Z"/>
      <path class="st4" d="M102.08,124.77s3.26,11.01,15.51,8.21c-4.58-11.71-15.51-8.21-15.51-8.21Z"/>
      <path class="st4" d="M124.16,116.3s4.28,10.66,16.22,6.71c-5.66-11.23-16.22-6.71-16.22-6.71Z"/>
      <path class="st4" d="M59.84,131.92s10.38,4.9,16.45-6.11c-11.78-4.38-16.45,6.11-16.45,6.11Z"/>
      <path class="st4" d="M141.29,147.42s9.72,6.12,17.07-4.08c-11.17-5.78-17.07,4.08-17.07,4.08Z"/>
      <path class="st4" d="M132.35,104.1s9.05,7.06,17.39-2.35c-10.53-6.86-17.39,2.35-17.39,2.35Z"/>
      <path class="st4" d="M162.93,115.94s3.79,10.84,15.9,7.44c-5.14-11.47-15.9-7.44-15.9-7.44Z"/>
      <path class="st4" d="M195.71,61.07s6.77,9.28,17.37,2.51c-8.25-9.49-17.37-2.51-17.37-2.51Z"/>
      <path class="st4" d="M195.65,94.58s7.28,8.88,17.48,1.53c-8.77-9.01-17.48-1.53-17.48-1.53Z"/>
      <path class="st4" d="M208.7,74.73s3.26,11.01,15.51,8.21c-4.58-11.71-15.51-8.21-15.51-8.21Z"/>
      <path class="st4" d="M230.78,66.27s4.28,10.66,16.22,6.71c-5.66-11.23-16.22-6.71-16.22-6.71Z"/>
      <path class="st4" d="M166.46,81.89s10.38,4.9,16.45-6.11c-11.78-4.38-16.45,6.11-16.45,6.11Z"/>
      <path class="st4" d="M238.97,54.06s9.05,7.06,17.39-2.35c-10.53-6.86-17.39,2.35-17.39,2.35Z"/>
      <path class="st4" d="M269.55,65.91s3.79,10.84,15.9,7.44c-5.14-11.47-15.9-7.44-15.9-7.44Z"/>
      <path class="st4" d="M208.62,235.35s3.61,10.9,15.77,7.7c-4.95-11.56-15.77-7.7-15.77-7.7Z"/>
      <path class="st4" d="M198.32,267.24s4.22,10.68,16.18,6.8c-5.6-11.26-16.18-6.8-16.18-6.8Z"/>
      <path class="st4" d="M216.81,252.33s-.27,11.48,12.26,12.56c-.78-12.55-12.26-12.56-12.26-12.56Z"/>
      <path class="st4" d="M240.42,251.02s.82,11.45,13.39,11.35c-1.96-12.42-13.39-11.35-13.39-11.35Z"/>
      <path class="st4" d="M174.4,246.23s8.39,7.84,17.53-.79c-9.88-7.78-17.53.79-17.53.79Z"/>
      <path class="st4" d="M247.22,285.88s7.38,8.8,17.5,1.34c-8.87-8.91-17.5-1.34-17.5-1.34Z"/>
      <path class="st4" d="M251.95,241.9s6.46,9.49,17.28,3.08c-7.93-9.76-17.28-3.08-17.28-3.08Z"/>
      <path class="st4" d="M277.45,262.52s.3,11.48,12.86,11.94c-1.39-12.5-12.86-11.94-12.86-11.94Z"/>
      <path class="st4" d="M319.94,274.22s5.88,9.86,17.06,4.11c-7.34-10.21-17.06-4.11-17.06-4.11Z"/>
      <path class="st4" d="M335.79,256.53s1.59,11.37,14.12,10.42c-2.79-12.26-14.12-10.42-14.12-10.42Z"/>
      <path class="st4" d="M358.88,251.44s2.65,11.17,15.04,9.04c-3.93-11.94-15.04-9.04-15.04-9.04Z"/>
      <path class="st4" d="M292.95,257.34s9.54,6.39,17.18-3.6c-11-6.08-17.18,3.6-17.18,3.6Z"/>
      <path class="st4" d="M371.2,284.75s8.7,7.5,17.49-1.5c-10.19-7.37-17.49,1.5-17.49,1.5Z"/>
      <path class="st4" d="M368.79,240.58s7.91,8.33,17.55.26c-9.4-8.35-17.55-.26-17.55-.26Z"/>
      <path class="st4" d="M397.28,256.83s2.14,11.28,14.62,9.71c-3.39-12.11-14.62-9.71-14.62-9.71Z"/>
      <path class="st4" d="M428.73,208.14s6.77,9.28,17.37,2.51c-8.25-9.49-17.37-2.51-17.37-2.51Z"/>
      <path class="st4" d="M428.67,241.65s7.28,8.88,17.48,1.53c-8.77-9.01-17.48-1.53-17.48-1.53Z"/>
      <path class="st4" d="M441.72,221.8s3.26,11.01,15.51,8.21c-4.58-11.71-15.51-8.21-15.51-8.21Z"/>
      <path class="st4" d="M477.29,211.25s4.28,10.66,16.22,6.71c-5.66-11.23-16.22-6.71-16.22-6.71Z"/>
      <path class="st4" d="M399.48,228.96s10.38,4.9,16.45-6.11c-11.78-4.38-16.45,6.11-16.45,6.11Z"/>
      <path class="st4" d="M480.92,244.45s9.72,6.12,17.07-4.08c-11.17-5.78-17.07,4.08-17.07,4.08Z"/>
      <path class="st4" d="M420.98,187.69s9.05,7.06,17.39-2.35c-10.53-6.86-17.39,2.35-17.39,2.35Z"/>
      <path class="st4" d="M502.57,212.97s3.79,10.84,15.9,7.44c-5.14-11.47-15.9-7.44-15.9-7.44Z"/>
      <path class="st4" d="M294.42,89.8s6.77,9.28,17.37,2.51c-8.25-9.49-17.37-2.51-17.37-2.51Z"/>
      <path class="st4" d="M294.36,123.32s7.28,8.88,17.48,1.53c-8.77-9.01-17.48-1.53-17.48-1.53Z"/>
      <path class="st4" d="M307.41,103.47s3.26,11.01,15.51,8.21c-4.58-11.71-15.51-8.21-15.51-8.21Z"/>
      <path class="st4" d="M329.49,95.01s4.28,10.66,16.22,6.71c-5.66-11.23-16.22-6.71-16.22-6.71Z"/>
      <path class="st4" d="M265.16,110.62s10.38,4.9,16.45-6.11c-11.78-4.38-16.45,6.11-16.45,6.11Z"/>
      <path class="st4" d="M346.61,126.12s9.72,6.12,17.07-4.08c-11.17-5.78-17.07,4.08-17.07,4.08Z"/>
      <path class="st4" d="M368.26,94.64s3.79,10.84,15.9,7.44c-5.14-11.47-15.9-7.44-15.9-7.44Z"/>
      <path class="st4" d="M422.56,114.24s1.7,11.36,14.23,10.27c-2.91-12.23-14.23-10.27-14.23-10.27Z"/>
      <path class="st4" d="M406.99,143.91s2.34,11.24,14.79,9.45c-3.6-12.05-14.79-9.45-14.79-9.45Z"/>
      <path class="st4" d="M427.75,132.37s-2.22,11.27,9.95,14.46c1.37-12.5-9.95-14.46-9.95-14.46Z"/>
      <path class="st4" d="M451.24,135.1s-1.15,11.43,11.26,13.46c.19-12.57-11.26-13.46-11.26-13.46Z"/>
      <path class="st4" d="M387,119.14s6.93,9.16,17.41,2.21c-8.41-9.35-17.41-2.21-17.41-2.21Z"/>
      <path class="st4" d="M452,170.61s5.77,9.93,17.02,4.3c-7.22-10.29-17.02-4.3-17.02-4.3Z"/>
      <path class="st4" d="M464.15,128.07s4.75,10.46,16.5,5.98c-6.16-10.96-16.5-5.98-16.5-5.98Z"/>
      <path class="st4" d="M485.76,152.74s-1.66,11.36,10.64,13.96c.76-12.55-10.64-13.96-10.64-13.96Z"/>
      <path class="st4" d="M412.23,57.21s2.23,11.26,14.7,9.59c-3.48-12.08-14.7-9.59-14.7-9.59Z"/>
      <path class="st4" d="M398.07,87.58s2.87,11.12,15.21,8.75c-4.16-11.87-15.21-8.75-15.21-8.75Z"/>
      <path class="st4" d="M418.26,75.07s-1.68,11.36,10.61,13.98c.78-12.55-10.61-13.98-10.61-13.98Z"/>
      <path class="st4" d="M441.86,76.69s-.61,11.47,11.88,12.91c-.4-12.57-11.88-12.91-11.88-12.91Z"/>
      <path class="st4" d="M376.93,63.77s7.35,8.82,17.49,1.39c-8.84-8.94-17.49-1.39-17.49-1.39Z"/>
      <path class="st4" d="M444.29,112.13s6.23,9.64,17.2,3.49c-7.7-9.94-17.2-3.49-17.2-3.49Z"/>
      <path class="st4" d="M454.42,69.07s5.24,10.22,16.76,5.2c-6.66-10.66-16.76-5.2-16.76-5.2Z"/>
      <path class="st4" d="M477.17,92.69s-1.13,11.43,11.29,13.44c.16-12.57-11.29-13.44-11.29-13.44Z"/>
      <path class="st4" d="M299.25,52.1s6.77,9.28,17.37,2.51c-8.25-9.49-17.37-2.51-17.37-2.51Z"/>
      <path class="st4" d="M312.24,65.76s3.26,11.01,15.51,8.21c-4.58-11.71-15.51-8.21-15.51-8.21Z"/>
      <path class="st4" d="M334.32,57.3s4.28,10.66,16.22,6.71c-5.66-11.23-16.22-6.71-16.22-6.71Z"/>
      <path class="st4" d="M351.44,88.41s9.72,6.12,17.07-4.08c-11.17-5.78-17.07,4.08-17.07,4.08Z"/>
      <path class="st4" d="M342.51,45.09s9.05,7.06,17.39-2.35c-10.53-6.86-17.39,2.35-17.39,2.35Z"/>
      <path class="st4" d="M184.44,160.82s10.41,4.84,16.42-6.2c-11.81-4.32-16.42,6.2-16.42,6.2Z"/>
      <path class="st4" d="M187.59,137.28s7.71,8.51,17.54.67c-9.2-8.57-17.54-.67-17.54-.67Z"/>
      <path class="st4" d="M203.83,120.08s8.48,7.75,17.52-.98c-9.97-7.66-17.52.98-17.52.98Z"/>
      <path class="st4" d="M158.87,158.53s6.85,9.22,17.39,2.37c-8.33-9.42-17.39-2.37-17.39-2.37Z"/>
      <path class="st4" d="M232.74,140.69s11.41,1.3,13.61-11.07c-12.57-.36-13.61,11.07-13.61,11.07Z"/>
      <path class="st4" d="M238.6,102.94s8.12,8.12,17.55-.19c-9.61-8.11-17.55.19-17.55.19Z"/>
      <path class="st4" d="M509.84,149.42s4.33,10.64,16.25,6.64c-5.71-11.2-16.25-6.64-16.25-6.64Z"/>
      <path class="st4" d="M509.88,179.35s4.13,10.72,16.12,6.94c-5.5-11.31-16.12-6.94-16.12-6.94Z"/>
      <path class="st4" d="M532.95,173.23s4.71,10.47,16.48,6.04c-6.11-10.99-16.48-6.04-16.48-6.04Z"/>
      <path class="st4" d="M533.55,161.36s5.68,9.98,16.97,4.46c-7.12-10.36-16.97-4.46-16.97-4.46Z"/>
      <path class="st4" d="M491.94,118.53s2.77,11.14,15.14,8.88c-4.06-11.9-15.14-8.88-15.14-8.88Z"/>
      <path class="st4" d="M531.48,191.4s1.41,11.4,13.96,10.64c-2.6-12.3-13.96-10.64-13.96-10.64Z"/>
      <path class="st4" d="M540.83,145.43s9.5,6.45,17.2-3.5c-10.97-6.15-17.2,3.5-17.2,3.5Z"/>
      <path class="st4" d="M558.83,186.68s4.51,10.56,16.36,6.36c-5.9-11.1-16.36-6.36-16.36-6.36Z"/>
      <path class="st4" d="M513.13,132.51s4.28,10.66,16.22,6.71c-5.66-11.23-16.22-6.71-16.22-6.71Z"/>
      <path class="st4" d="M369.69,230.58s9.72,6.12,17.07-4.08c-11.17-5.78-17.07,4.08-17.07,4.08Z"/>
      <path class="st4" d="M521.32,120.3s9.05,7.06,17.39-2.35c-10.53-6.86-17.39,2.35-17.39,2.35Z"/>
      <path class="st4" d="M476.66,228.43s7.28,8.88,17.48,1.53c-8.77-9.01-17.48-1.53-17.48-1.53Z"/>
      <path class="st4" d="M488.33,186.89s4.28,10.66,16.22,6.71c-5.66-11.23-16.22-6.71-16.22-6.71Z"/>
      <path class="st4" d="M454.28,195.28s10.38,4.9,16.45-6.11c-11.78-4.38-16.45,6.11-16.45,6.11Z"/>
      <path class="st4" d="M528.91,231.23s9.72,6.12,17.07-4.08c-11.17-5.78-17.07,4.08-17.07,4.08Z"/>
      <path class="st4" d="M550.56,199.76s3.79,10.84,15.9,7.44c-5.14-11.47-15.9-7.44-15.9-7.44Z"/>
      <path class="st4" d="M35.2,231.64s7.28,8.88,17.48,1.53c-8.77-9.01-17.48-1.53-17.48-1.53Z"/>
      <path class="st4" d="M29.54,217.53s10.38,4.9,16.45-6.11c-11.78-4.38-16.45,6.11-16.45,6.11Z"/>
      <path class="st4" d="M98.25,245.13s9.72,6.12,17.07-4.08c-11.17-5.78-17.07,4.08-17.07,4.08Z"/>
      <path class="st4" d="M89.31,201.81s9.05,7.06,17.39-2.35c-10.53-6.86-17.39,2.35-17.39,2.35Z"/>
    </g>
  </g>
  <g id="fourrage" class="st12">
    <path class="st11" d="M570.48,367.11c-260.36,111.06-538.72-.53-538.72-.53-1.69-.52-6.08-2.12-8.79-6.42-1.48-2.35-1.94-4.67-2.18-5.93-.19-1.02-.63-3.76,0-7.21.19-1.05.78-3.8,2.57-6.82,2.68-4.5,6.43-6.87,8.4-7.93,46.96,17.28,104.81,32.73,171.72,41.91,102.13,14.01,236.81,14.14,367-41.38.96.75,2.3,1.84,3.83,3.23,1.59,1.44,2.41,2.19,3.33,3.33.65.8,1.82,2.28,2.74,4.5.41.99,1.33,3.29,1.27,6.3-.06,2.72-.89,4.75-2.05,7.59-.45,1.09-.85,2.09-1.43,3.06,0,0-2.27,3.99-7.69,6.3Z"/>
    <path class="st11" d="M55.03,340.38s11.6,21.75-5.62,32.82"/>
    <path class="st11" d="M89.03,350.9s13.07,25.98-6.23,32.48"/>
    <path class="st11" d="M127.69,361.42s10.79,25.4-4.26,31.99"/>
    <path class="st11" d="M168.63,368.71s15.74,23.78-2.69,33.8"/>
    <path class="st11" d="M212.84,375.42s19.33,21.94-4.22,33.25"/>
    <path class="st11" d="M255.97,380.43s20.82,16.97,0,32.95"/>
    <path class="st11" d="M307.54,381.98s18.26,15.8,0,33.42"/>
    <path class="st11" d="M352.88,381.12s22.96,10.27,0,34.28"/>
    <path class="st11" d="M407.46,376.33s17.55,18.02,0,33.11"/>
    <path class="st11" d="M457.24,368.04s20.37,20.24,0,34.19"/>
    <path class="st11" d="M501.31,357.24s25.04,12.5,6.78,32.33"/>
    <path class="st11" d="M540.74,344.52s26.96,9.56,10.33,29.79"/>
    <path class="st11" d="M300,233.63c-37.46,0-77.66-14.27-77.05-24.83.64-10.97,21.57-17.85,77.3-17.85s76.16,6.9,76.8,17.85c.62,10.56-39.57,24.83-77.05,24.83Z"/>
  </g>
  <g id="glaçage" class="st12">
    <path class="st8" d="M22.4,128.9"/>
    <path class="st6" d="M589.22,170.09c-3.58-10.83-10.97-32.45-29.46-53.32-7.17-8.09-16.37-15.87-36-29.74-59.16-41.81-53.14-39.44-60.26-43.04-1.19-.6-2.47-1.23-3.98-1.89-22.65-9.92-89.94-18.02-89.94-18.02-30.26-3.64-42.99-5.51-64.28-4.91-6.2.17-11.35.51-14.92.78-3.28-.11-8.17-.19-14.09,0-29.74.97-42.62,7.55-71.07,13.08-34.68,6.74-35.08.57-56.89,8.15-11.7,4.06-22.85,9.62-41.72,22.38-35.98,24.33-54.3,35.99-69.65,57.13-6.64,9.15-3.69,7.16-31.3,81.39-2.57,6.92-7.41,19.86-1.78,31.75,2.2,4.65,5.38,7.82,7.73,9.77,23.15,6.85,49.41,14.28,77.69,21.65l-.11-.03c2.29.8,5.2,2.06,8.29,4.08,2.74,1.8,4.86,3.7,6.42,5.32.82,1.11,2.19,3.38,1.97,6.19-.03.42-.1.82-.19,1.19-.33,1.01-.5,1.88-.55,2.66-1.65,1.6-5.34,5.63-6.56,11.91-.62,3.21-1.84,9.51,2.35,13.93,3.51,3.7,9.28,4.47,13.68,2.82,6.01-2.26,9.87-9.21,8.71-16.75-.25-.88-.5-1.78-.74-2.7-.62-2.41-1.14-4.74-1.58-6.99.13-.25.33-.61.57-1.05,2.19-4.02,3.29-6.03,4.33-7.1.79-.81,2.97-2.6,8.13-2.33,0,0-.02,0-.03,0,7.69,1.83,15.49,3.63,23.35,5.4,6.37,11.59,6.81,20.34,5.33,26.81-3.12,13.63-15.21,19.11-12.81,30.32,1.56,7.3,8.4,12.94,14.77,15.07,2.72.91,9.33,3.12,14.97-.79,6.73-4.66,6.04-13.84,6-14.29,0,0-13.81-35.72.06-51.02,43.03,11.74,79.29,14.64,104.91,14.96,25.04.32,44.98-1.76,61.43-3.52,37.39-4.01,68.38-10.55,90.97-16.25l-.15.04s11.07,1.41,11.19,17.62c-.4,2.34-.97,4.48-1.63,6.45-5.37,15.76-18.44,23.39-15.72,38.4,1.36,7.46,6.74,17.42,16.02,20.55,5,1.68,9.41.81,10.73.53,1-.21,11.12-2.52,15.26-12.32,3.04-7.19.9-13.76.3-15.41-6.56-15.24-9.56-29.75-9.46-41.99.43-5.71,3.4-16.71,18.66-25.02l-.2.05c2.65-.89,5.28-1.8,7.83-2.76,12.83-4.85,22.42-9.98,31.82-13.74.08-.03.17-.06.25-.1.51.41,1.87,1.62,2.45,3.71.48,1.73.19,3.19.01,3.84.05.78.08,2.05-.11,3.59-1.01,7.77-6.26,9.21-8.13,15.9-1.47,5.26-.2,11.49,3.3,15.11.69.71,2.54,2.58,5.5,3.13,3.51.65,6.33-.97,7.23-1.49,4.68-2.69,7.13-9.12,6.58-16.34-.6-1.7-1.21-3.96-1.44-6.67-.32-3.79.22-6.94.77-9.05,2.31-5.71,4.62-11.41,6.93-17.12,2.37-.12,4.84-.13,7.45.02,8.49.48,23.92,2.77,32.91-6.4,3.98-4.06,5.47-9.12,6.11-12.73.7-14.57-.13-36.26-8.24-60.79ZM336.85,230.48c.64-.11,1.27-.24,1.9-.38-11.38,2.13-24.62,3.36-38.75,3.36-15.18,0-29.34-1.33-41.24-3.86-39.26-8.34-71.17-27.52-65.73-45.8,7.28-24.49,45.64-39.16,104.86-39.16,54.51,0,99.07,9.99,108.07,39.16,6.33,20.52-27.92,39.76-69.11,46.68Z"/>
    <g>
      <path class="st4" d="M56.74,169.9s6.77,9.28,17.37,2.51c-8.25-9.49-17.37-2.51-17.37-2.51Z"/>
      <path class="st4" d="M56.69,203.41s7.28,8.88,17.48,1.53c-8.77-9.01-17.48-1.53-17.48-1.53Z"/>
      <path class="st4" d="M69.73,183.57s3.26,11.01,15.51,8.21c-4.58-11.71-15.51-8.21-15.51-8.21Z"/>
      <path class="st4" d="M107.21,179.46s4.28,10.66,16.22,6.71c-5.66-11.23-16.22-6.71-16.22-6.71Z"/>
      <path class="st4" d="M27.49,190.72s10.38,4.9,16.45-6.11c-11.78-4.38-16.45,6.11-16.45,6.11Z"/>
      <path class="st4" d="M119.15,205.5s9.72,6.12,17.07-4.08c-11.17-5.78-17.07,4.08-17.07,4.08Z"/>
      <path class="st4" d="M100,162.89s9.05,7.06,17.39-2.35c-10.53-6.86-17.39,2.35-17.39,2.35Z"/>
      <path class="st4" d="M153.93,172.93s3.79,10.84,15.9,7.44c-5.14-11.47-15.9-7.44-15.9-7.44Z"/>
      <path class="st4" d="M92.61,216.95s6.77,9.28,17.37,2.51c-8.25-9.49-17.37-2.51-17.37-2.51Z"/>
      <path class="st4" d="M114.68,251.56s7.28,8.88,17.48,1.53c-8.77-9.01-17.48-1.53-17.48-1.53Z"/>
      <path class="st4" d="M127.69,222.15s4.28,10.66,16.22,6.71c-5.66-11.23-16.22-6.71-16.22-6.71Z"/>
      <path class="st4" d="M63.36,237.77s10.38,4.9,16.45-6.11c-11.78-4.38-16.45,6.11-16.45,6.11Z"/>
      <path class="st4" d="M144.81,253.27s9.72,6.12,17.07-4.08c-11.17-5.78-17.07,4.08-17.07,4.08Z"/>
      <path class="st4" d="M150.17,203.25s9.05,7.06,17.39-2.35c-10.53-6.86-17.39,2.35-17.39,2.35Z"/>
      <path class="st4" d="M174.96,217.37s3.79,10.84,15.9,7.44c-5.14-11.47-15.9-7.44-15.9-7.44Z"/>
      <path class="st4" d="M89.09,111.1s6.77,9.28,17.37,2.51c-8.25-9.49-17.37-2.51-17.37-2.51Z"/>
      <path class="st4" d="M89.03,144.61s7.28,8.88,17.48,1.53c-8.77-9.01-17.48-1.53-17.48-1.53Z"/>
      <path class="st4" d="M102.08,124.77s3.26,11.01,15.51,8.21c-4.58-11.71-15.51-8.21-15.51-8.21Z"/>
      <path class="st4" d="M124.16,116.3s4.28,10.66,16.22,6.71c-5.66-11.23-16.22-6.71-16.22-6.71Z"/>
      <path class="st4" d="M59.84,131.92s10.38,4.9,16.45-6.11c-11.78-4.38-16.45,6.11-16.45,6.11Z"/>
      <path class="st4" d="M141.29,147.42s9.72,6.12,17.07-4.08c-11.17-5.78-17.07,4.08-17.07,4.08Z"/>
      <path class="st4" d="M132.35,104.1s9.05,7.06,17.39-2.35c-10.53-6.86-17.39,2.35-17.39,2.35Z"/>
      <path class="st4" d="M162.93,115.94s3.79,10.84,15.9,7.44c-5.14-11.47-15.9-7.44-15.9-7.44Z"/>
      <path class="st4" d="M195.71,61.07s6.77,9.28,17.37,2.51c-8.25-9.49-17.37-2.51-17.37-2.51Z"/>
      <path class="st4" d="M195.65,94.58s7.28,8.88,17.48,1.53c-8.77-9.01-17.48-1.53-17.48-1.53Z"/>
      <path class="st4" d="M208.7,74.73s3.26,11.01,15.51,8.21c-4.58-11.71-15.51-8.21-15.51-8.21Z"/>
      <path class="st4" d="M230.78,66.27s4.28,10.66,16.22,6.71c-5.66-11.23-16.22-6.71-16.22-6.71Z"/>
      <path class="st4" d="M166.46,81.89s10.38,4.9,16.45-6.11c-11.78-4.38-16.45,6.11-16.45,6.11Z"/>
      <path class="st4" d="M238.97,54.06s9.05,7.06,17.39-2.35c-10.53-6.86-17.39,2.35-17.39,2.35Z"/>
      <path class="st4" d="M269.55,65.91s3.79,10.84,15.9,7.44c-5.14-11.47-15.9-7.44-15.9-7.44Z"/>
      <path class="st4" d="M208.62,235.35s3.61,10.9,15.77,7.7c-4.95-11.56-15.77-7.7-15.77-7.7Z"/>
      <path class="st4" d="M198.32,267.24s4.22,10.68,16.18,6.8c-5.6-11.26-16.18-6.8-16.18-6.8Z"/>
      <path class="st4" d="M216.81,252.33s-.27,11.48,12.26,12.56c-.78-12.55-12.26-12.56-12.26-12.56Z"/>
      <path class="st4" d="M240.42,251.02s.82,11.45,13.39,11.35c-1.96-12.42-13.39-11.35-13.39-11.35Z"/>
      <path class="st4" d="M174.4,246.23s8.39,7.84,17.53-.79c-9.88-7.78-17.53.79-17.53.79Z"/>
      <path class="st4" d="M247.22,285.88s7.38,8.8,17.5,1.34c-8.87-8.91-17.5-1.34-17.5-1.34Z"/>
      <path class="st4" d="M251.95,241.9s6.46,9.49,17.28,3.08c-7.93-9.76-17.28-3.08-17.28-3.08Z"/>
      <path class="st4" d="M277.45,262.52s.3,11.48,12.86,11.94c-1.39-12.5-12.86-11.94-12.86-11.94Z"/>
      <path class="st4" d="M319.94,274.22s5.88,9.86,17.06,4.11c-7.34-10.21-17.06-4.11-17.06-4.11Z"/>
      <path class="st4" d="M335.79,256.53s1.59,11.37,14.12,10.42c-2.79-12.26-14.12-10.42-14.12-10.42Z"/>
      <path class="st4" d="M358.88,251.44s2.65,11.17,15.04,9.04c-3.93-11.94-15.04-9.04-15.04-9.04Z"/>
      <path class="st4" d="M292.95,257.34s9.54,6.39,17.18-3.6c-11-6.08-17.18,3.6-17.18,3.6Z"/>
      <path class="st4" d="M371.2,284.75s8.7,7.5,17.49-1.5c-10.19-7.37-17.49,1.5-17.49,1.5Z"/>
      <path class="st4" d="M368.79,240.58s7.91,8.33,17.55.26c-9.4-8.35-17.55-.26-17.55-.26Z"/>
      <path class="st4" d="M397.28,256.83s2.14,11.28,14.62,9.71c-3.39-12.11-14.62-9.71-14.62-9.71Z"/>
      <path class="st4" d="M428.73,208.14s6.77,9.28,17.37,2.51c-8.25-9.49-17.37-2.51-17.37-2.51Z"/>
      <path class="st4" d="M428.67,241.65s7.28,8.88,17.48,1.53c-8.77-9.01-17.48-1.53-17.48-1.53Z"/>
      <path class="st4" d="M441.72,221.8s3.26,11.01,15.51,8.21c-4.58-11.71-15.51-8.21-15.51-8.21Z"/>
      <path class="st4" d="M477.29,211.25s4.28,10.66,16.22,6.71c-5.66-11.23-16.22-6.71-16.22-6.71Z"/>
      <path class="st4" d="M399.48,228.96s10.38,4.9,16.45-6.11c-11.78-4.38-16.45,6.11-16.45,6.11Z"/>
      <path class="st4" d="M480.92,244.45s9.72,6.12,17.07-4.08c-11.17-5.78-17.07,4.08-17.07,4.08Z"/>
      <path class="st4" d="M420.98,187.69s9.05,7.06,17.39-2.35c-10.53-6.86-17.39,2.35-17.39,2.35Z"/>
      <path class="st4" d="M502.57,212.97s3.79,10.84,15.9,7.44c-5.14-11.47-15.9-7.44-15.9-7.44Z"/>
      <path class="st4" d="M294.42,89.8s6.77,9.28,17.37,2.51c-8.25-9.49-17.37-2.51-17.37-2.51Z"/>
      <path class="st4" d="M294.36,123.32s7.28,8.88,17.48,1.53c-8.77-9.01-17.48-1.53-17.48-1.53Z"/>
      <path class="st4" d="M307.41,103.47s3.26,11.01,15.51,8.21c-4.58-11.71-15.51-8.21-15.51-8.21Z"/>
      <path class="st4" d="M329.49,95.01s4.28,10.66,16.22,6.71c-5.66-11.23-16.22-6.71-16.22-6.71Z"/>
      <path class="st4" d="M265.16,110.62s10.38,4.9,16.45-6.11c-11.78-4.38-16.45,6.11-16.45,6.11Z"/>
      <path class="st4" d="M346.61,126.12s9.72,6.12,17.07-4.08c-11.17-5.78-17.07,4.08-17.07,4.08Z"/>
      <path class="st4" d="M368.26,94.64s3.79,10.84,15.9,7.44c-5.14-11.47-15.9-7.44-15.9-7.44Z"/>
      <path class="st4" d="M422.56,114.24s1.7,11.36,14.23,10.27c-2.91-12.23-14.23-10.27-14.23-10.27Z"/>
      <path class="st4" d="M406.99,143.91s2.34,11.24,14.79,9.45c-3.6-12.05-14.79-9.45-14.79-9.45Z"/>
      <path class="st4" d="M427.75,132.37s-2.22,11.27,9.95,14.46c1.37-12.5-9.95-14.46-9.95-14.46Z"/>
      <path class="st4" d="M451.24,135.1s-1.15,11.43,11.26,13.46c.19-12.57-11.26-13.46-11.26-13.46Z"/>
      <path class="st4" d="M387,119.14s6.93,9.16,17.41,2.21c-8.41-9.35-17.41-2.21-17.41-2.21Z"/>
      <path class="st4" d="M452,170.61s5.77,9.93,17.02,4.3c-7.22-10.29-17.02-4.3-17.02-4.3Z"/>
      <path class="st4" d="M464.15,128.07s4.75,10.46,16.5,5.98c-6.16-10.96-16.5-5.98-16.5-5.98Z"/>
      <path class="st4" d="M485.76,152.74s-1.66,11.36,10.64,13.96c.76-12.55-10.64-13.96-10.64-13.96Z"/>
      <path class="st4" d="M412.23,57.21s2.23,11.26,14.7,9.59c-3.48-12.08-14.7-9.59-14.7-9.59Z"/>
      <path class="st4" d="M398.07,87.58s2.87,11.12,15.21,8.75c-4.16-11.87-15.21-8.75-15.21-8.75Z"/>
      <path class="st4" d="M418.26,75.07s-1.68,11.36,10.61,13.98c.78-12.55-10.61-13.98-10.61-13.98Z"/>
      <path class="st4" d="M441.86,76.69s-.61,11.47,11.88,12.91c-.4-12.57-11.88-12.91-11.88-12.91Z"/>
      <path class="st4" d="M376.93,63.77s7.35,8.82,17.49,1.39c-8.84-8.94-17.49-1.39-17.49-1.39Z"/>
      <path class="st4" d="M444.29,112.13s6.23,9.64,17.2,3.49c-7.7-9.94-17.2-3.49-17.2-3.49Z"/>
      <path class="st4" d="M454.42,69.07s5.24,10.22,16.76,5.2c-6.66-10.66-16.76-5.2-16.76-5.2Z"/>
      <path class="st4" d="M477.17,92.69s-1.13,11.43,11.29,13.44c.16-12.57-11.29-13.44-11.29-13.44Z"/>
      <path class="st4" d="M299.25,52.1s6.77,9.28,17.37,2.51c-8.25-9.49-17.37-2.51-17.37-2.51Z"/>
      <path class="st4" d="M312.24,65.76s3.26,11.01,15.51,8.21c-4.58-11.71-15.51-8.21-15.51-8.21Z"/>
      <path class="st4" d="M334.32,57.3s4.28,10.66,16.22,6.71c-5.66-11.23-16.22-6.71-16.22-6.71Z"/>
      <path class="st4" d="M351.44,88.41s9.72,6.12,17.07-4.08c-11.17-5.78-17.07,4.08-17.07,4.08Z"/>
      <path class="st4" d="M342.51,45.09s9.05,7.06,17.39-2.35c-10.53-6.86-17.39,2.35-17.39,2.35Z"/>
      <path class="st4" d="M184.44,160.82s10.41,4.84,16.42-6.2c-11.81-4.32-16.42,6.2-16.42,6.2Z"/>
      <path class="st4" d="M187.59,137.28s7.71,8.51,17.54.67c-9.2-8.57-17.54-.67-17.54-.67Z"/>
      <path class="st4" d="M203.83,120.08s8.48,7.75,17.52-.98c-9.97-7.66-17.52.98-17.52.98Z"/>
      <path class="st4" d="M158.87,158.53s6.85,9.22,17.39,2.37c-8.33-9.42-17.39-2.37-17.39-2.37Z"/>
      <path class="st4" d="M232.74,140.69s11.41,1.3,13.61-11.07c-12.57-.36-13.61,11.07-13.61,11.07Z"/>
      <path class="st4" d="M238.6,102.94s8.12,8.12,17.55-.19c-9.61-8.11-17.55.19-17.55.19Z"/>
      <path class="st4" d="M509.84,149.42s4.33,10.64,16.25,6.64c-5.71-11.2-16.25-6.64-16.25-6.64Z"/>
      <path class="st4" d="M509.88,179.35s4.13,10.72,16.12,6.94c-5.5-11.31-16.12-6.94-16.12-6.94Z"/>
      <path class="st4" d="M532.95,173.23s4.71,10.47,16.48,6.04c-6.11-10.99-16.48-6.04-16.48-6.04Z"/>
      <path class="st4" d="M533.55,161.36s5.68,9.98,16.97,4.46c-7.12-10.36-16.97-4.46-16.97-4.46Z"/>
      <path class="st4" d="M491.94,118.53s2.77,11.14,15.14,8.88c-4.06-11.9-15.14-8.88-15.14-8.88Z"/>
      <path class="st4" d="M531.48,191.4s1.41,11.4,13.96,10.64c-2.6-12.3-13.96-10.64-13.96-10.64Z"/>
      <path class="st4" d="M540.83,145.43s9.5,6.45,17.2-3.5c-10.97-6.15-17.2,3.5-17.2,3.5Z"/>
      <path class="st4" d="M558.83,186.68s4.51,10.56,16.36,6.36c-5.9-11.1-16.36-6.36-16.36-6.36Z"/>
      <path class="st4" d="M513.13,132.51s4.28,10.66,16.22,6.71c-5.66-11.23-16.22-6.71-16.22-6.71Z"/>
      <path class="st4" d="M369.69,230.58s9.72,6.12,17.07-4.08c-11.17-5.78-17.07,4.08-17.07,4.08Z"/>
      <path class="st4" d="M521.32,120.3s9.05,7.06,17.39-2.35c-10.53-6.86-17.39,2.35-17.39,2.35Z"/>
      <path class="st4" d="M476.66,228.43s7.28,8.88,17.48,1.53c-8.77-9.01-17.48-1.53-17.48-1.53Z"/>
      <path class="st4" d="M488.33,186.89s4.28,10.66,16.22,6.71c-5.66-11.23-16.22-6.71-16.22-6.71Z"/>
      <path class="st4" d="M454.28,195.28s10.38,4.9,16.45-6.11c-11.78-4.38-16.45,6.11-16.45,6.11Z"/>
      <path class="st4" d="M528.91,231.23s9.72,6.12,17.07-4.08c-11.17-5.78-17.07,4.08-17.07,4.08Z"/>
      <path class="st4" d="M550.56,199.76s3.79,10.84,15.9,7.44c-5.14-11.47-15.9-7.44-15.9-7.44Z"/>
      <path class="st4" d="M35.2,231.64s7.28,8.88,17.48,1.53c-8.77-9.01-17.48-1.53-17.48-1.53Z"/>
      <path class="st4" d="M29.54,217.53s10.38,4.9,16.45-6.11c-11.78-4.38-16.45,6.11-16.45,6.11Z"/>
      <path class="st4" d="M98.25,245.13s9.72,6.12,17.07-4.08c-11.17-5.78-17.07,4.08-17.07,4.08Z"/>
      <path class="st4" d="M89.31,201.81s9.05,7.06,17.39-2.35c-10.53-6.86-17.39,2.35-17.39,2.35Z"/>
    </g>
  </g>
  <g id="crudités">
    <path class="st10" d="M110.72,72.18c-.41.29-1.06.78-1.78,1.49-3.81,3.71-4.63,8.55-4.93,10.02-1.75,8.75-6.84,9.03-12.09,23.49-3.66,10.08-2.83,14.48-6.89,17.48-1.01.75-4.25,2.83-4.59,6.11-.1.95.07,1.75.22,2.28.81.4,2.01.88,3.52,1.1,3,.43,5.4-.45,6.02-.66,7.67-2.6,28.13.45,53.76-5.94,1.97-.49,3.52-.92,4.25-1.13.26-.63.53-1.59.16-2.48-.48-1.14-1.78-1.59-2.07-1.7-2.95-1.12-7.2-7.02-10.15-11.11-7.14-9.92-4.23-11.54-10.22-18.63-4.32-5.13-12.71-12.43-12.46-16.32.02-.37.21-2-.79-3.06-.58-.63-1.38-.84-1.97-.93Z"/>
    <path class="st10" d="M127.6,164.61c-.49.12-1.28.35-2.2.74-4.89,2.08-7.41,6.29-8.22,7.55-4.79,7.52-9.64,5.94-19.77,17.53-7.06,8.08-7.88,12.48-12.75,13.81-1.21.33-4.98,1.1-6.49,4.03-.44.85-.57,1.66-.62,2.21.61.66,1.56,1.55,2.88,2.29,2.64,1.49,5.19,1.54,5.85,1.57,8.09.35,26.06,10.6,52.27,13.92,2.01.25,3.61.41,4.37.48.47-.49,1.07-1.29,1.05-2.26-.03-1.24-1.08-2.13-1.32-2.34-2.35-2.11-4.17-9.15-5.44-14.03-3.07-11.84.23-12.29-2.78-21.07-2.18-6.35-7.35-16.19-5.71-19.72.15-.33.92-1.79.38-3.14-.32-.79-.98-1.29-1.5-1.58Z"/>
    <path class="st10" d="M217.54,48.97c-.5-.05-1.32-.11-2.32-.05-5.31.3-9.11,3.4-10.29,4.32-7.06,5.45-11.09,2.31-24.55,9.77-9.38,5.2-11.65,9.06-16.68,8.66-1.25-.1-5.06-.66-7.48,1.59-.7.65-1.1,1.36-1.33,1.87.35.83.94,1.98,1.93,3.14,1.98,2.3,4.36,3.21,4.97,3.46,7.49,3.07,20.91,18.82,44.44,30.84,1.81.92,3.26,1.61,3.95,1.94.61-.3,1.45-.85,1.75-1.77.39-1.17-.3-2.37-.44-2.65-1.49-2.78-.82-10.03-.35-15.04,1.13-12.17,4.39-11.48,4.54-20.76.11-6.71-1.42-17.72,1.32-20.49.26-.26,1.47-1.37,1.42-2.83-.03-.86-.49-1.54-.88-1.99Z"/>
    <path class="st10" d="M179.07,200.65c-.4.3-1.05.81-1.75,1.53-3.72,3.8-4.42,8.66-4.68,10.13-1.53,8.79-6.61,9.19-11.5,23.78-3.41,10.17-2.47,14.55-6.45,17.65-.99.77-4.18,2.93-4.44,6.22-.08.95.11,1.75.28,2.28.82.38,2.03.83,3.54,1.01,3.01.36,5.39-.58,6.01-.81,7.6-2.79,28.13-.24,53.6-7.26,1.95-.54,3.49-1.01,4.22-1.24.24-.64.5-1.6.1-2.49-.51-1.13-1.82-1.55-2.12-1.65-2.98-1.04-7.37-6.84-10.42-10.86-7.39-9.74-4.52-11.43-10.67-18.38-4.45-5.02-13.01-12.12-12.86-16.01.01-.37.16-2.01-.86-3.04-.6-.61-1.4-.81-2-.88Z"/>
    <path class="st10" d="M344.51,56.57c-.48-.15-1.27-.38-2.26-.53-5.26-.81-9.62,1.44-10.96,2.09-8.04,3.87-11.32-.03-26.04,4.48-10.26,3.15-13.27,6.46-18.11,5.02-1.2-.36-4.82-1.69-7.65,0-.82.49-1.36,1.11-1.69,1.55.17.89.51,2.14,1.24,3.47,1.46,2.66,3.6,4.04,4.15,4.42,6.69,4.56,16.57,22.74,37.09,39.37,1.58,1.28,2.86,2.25,3.46,2.71.66-.17,1.59-.53,2.08-1.36.62-1.07.2-2.38.11-2.68-.88-3.03,1.27-9.98,2.77-14.79,3.63-11.68,6.67-10.32,8.73-19.37,1.49-6.54,2.28-17.63,5.54-19.77.31-.2,1.72-1.04,1.98-2.47.15-.84-.16-1.61-.45-2.13Z"/>
    <path class="st10" d="M474.89,106.36c-.45-.23-1.19-.57-2.15-.88-5.06-1.63-9.73-.09-11.16.33-8.55,2.55-11.18-1.82-26.42.31-10.62,1.49-14.12,4.28-18.67,2.1-1.13-.54-4.49-2.43-7.55-1.2-.88.35-1.52.88-1.91,1.27.03.9.17,2.19.68,3.62,1.02,2.85,2.92,4.56,3.4,5.02,5.89,5.56,12.77,25.07,30.41,44.73,1.35,1.51,2.46,2.68,2.99,3.23.68-.07,1.66-.27,2.27-1.02.79-.96.57-2.32.53-2.63-.39-3.13,2.83-9.65,5.07-14.17,5.43-10.96,8.21-9.14,11.68-17.75,2.51-6.22,5.04-17.05,8.59-18.65.33-.15,1.87-.75,2.34-2.13.28-.81.1-1.62-.11-2.18Z"/>
    <path class="st10" d="M446.23,176.7c-.4.3-1.05.8-1.76,1.52-3.74,3.78-4.48,8.63-4.75,10.1-1.59,8.78-6.67,9.15-11.66,23.71-3.48,10.15-2.57,14.53-6.57,17.6-1,.76-4.2,2.91-4.48,6.19-.08.95.1,1.75.27,2.28.82.38,2.03.84,3.53,1.03,3.01.38,5.39-.54,6.01-.77,7.62-2.74,28.13-.06,53.65-6.91,1.96-.53,3.5-.99,4.23-1.21.25-.63.51-1.6.12-2.48-.5-1.13-1.81-1.56-2.1-1.67-2.97-1.06-7.33-6.89-10.35-10.92-7.32-9.79-4.44-11.46-10.55-18.45-4.42-5.05-12.93-12.2-12.75-16.09.02-.37.17-2.01-.84-3.05-.6-.61-1.4-.82-1.99-.89Z"/>
    <path class="st10" d="M282.87,236.66c-.09.49-.2,1.31-.22,2.31-.09,5.32,2.73,9.33,3.55,10.58,4.92,7.44,1.5,11.22,7.96,25.19,4.5,9.74,8.19,12.28,7.42,17.26-.19,1.24-1.02,5,1.04,7.57.6.74,1.28,1.2,1.77,1.46.86-.29,2.05-.79,3.27-1.7,2.44-1.8,3.52-4.12,3.81-4.71,3.61-7.24,20.29-19.48,34-42.07,1.05-1.73,1.85-3.13,2.22-3.8-.26-.63-.74-1.51-1.63-1.88-1.14-.47-2.38.12-2.67.25-2.88,1.29-10.06.09-15.03-.75-12.06-2.02-11.13-5.21-20.38-6.04-6.68-.6-17.78.12-20.34-2.82-.24-.28-1.26-1.57-2.72-1.62-.86-.03-1.57.38-2.05.73Z"/>
    <path class="st10" d="M559.08,146.15c-.48.15-1.25.43-2.15.88-4.75,2.4-6.98,6.77-7.7,8.08-4.29,7.82-9.23,6.56-18.57,18.79-6.51,8.53-7.04,12.97-11.81,14.62-1.19.41-4.9,1.43-6.21,4.45-.38.87-.46,1.69-.47,2.25.66.62,1.66,1.44,3.03,2.1,2.73,1.31,5.28,1.19,5.94,1.18,8.09-.18,26.7,8.86,53.07,10.44,2.02.12,3.63.17,4.39.19.44-.52.99-1.36.9-2.32-.11-1.23-1.22-2.05-1.47-2.25-2.48-1.95-4.77-8.86-6.35-13.64-3.84-11.61-.58-12.27-4.17-20.84-2.59-6.19-8.4-15.67-7-19.3.13-.34.8-1.85.17-3.16-.37-.77-1.07-1.22-1.61-1.48Z"/>
  </g>
</svg>