<?xml version="1.0" encoding="UTF-8"?>
<svg xmlns="http://www.w3.org/2000/svg" version="1.1" xmlns:xlink="http://www.w3.org/1999/xlink" viewBox="0 0 600 500">
  <!-- Generator: Adobe Illustrator 30.1.0, SVG Export Plug-In . SVG Version: 2.1.1 Build 136)  -->
  <defs>
    <style>
      .st0 {
        fill: url(#Dégradé_sans_nom_57);
      }

      .st0, .st1, .st2, .st3, .st4, .st5, .st6, .st7, .st8, .st9, .st10, .st11 {
        stroke: #000;
        stroke-miterlimit: 10;
      }

      .st0, .st2, .st3, .st4, .st6, .st8, .st9, .st10, .st11 {
        stroke-width: 3px;
      }

      .st1 {
        fill: #fffa99;
      }

      .st1, .st7 {
        stroke-width: 2px;
      }

      .st2 {
        fill: url(#Dégradé_sans_nom_101);
      }

      .st3 {
        fill: url(#Dégradé_sans_nom_571);
      }

      .st4 {
        fill: url(#Dégradé_sans_nom_573);
      }

      .st5 {
        fill: #ffb955;
      }

      .st6 {
        fill: url(#Dégradé_sans_nom_574);
      }

      .st12 {
        display: none;
      }

      .st7 {
        fill: #93aa00;
      }

      .st8 {
        fill: url(#Dégradé_sans_nom_208);
      }

      .st9 {
        fill: #aa0400;
      }

      .st10 {
        fill: url(#Dégradé_sans_nom_572);
      }

      .st11 {
        fill: #773800;
      }
    </style>
    <linearGradient id="Dégradé_sans_nom_208" data-name="Dégradé sans nom 208" x1="300.64" y1="367.15" x2="300.64" y2="470.74" gradientUnits="userSpaceOnUse">
      <stop offset="0" stop-color="#cc7800"/>
      <stop offset=".17" stop-color="#cf7d07"/>
      <stop offset=".42" stop-color="#da8c1c"/>
      <stop offset=".73" stop-color="#eca53d"/>
      <stop offset="1" stop-color="#ffc062"/>
    </linearGradient>
    <linearGradient id="Dégradé_sans_nom_101" data-name="Dégradé sans nom 101" x1="301.22" y1="30.89" x2="301.22" y2="382.4" gradientUnits="userSpaceOnUse">
      <stop offset="0" stop-color="#cc7800"/>
      <stop offset=".45" stop-color="#cc7901"/>
      <stop offset=".61" stop-color="#d07e08"/>
      <stop offset=".73" stop-color="#d68714"/>
      <stop offset=".82" stop-color="#df9325"/>
      <stop offset=".9" stop-color="#eaa33b"/>
      <stop offset=".97" stop-color="#f8b755"/>
      <stop offset="1" stop-color="#ffc062"/>
    </linearGradient>
    <linearGradient id="Dégradé_sans_nom_57" data-name="Dégradé sans nom 57" x1="299.62" y1="233.45" x2="303.06" y2="233.45" gradientUnits="userSpaceOnUse">
      <stop offset="0" stop-color="#cc7800"/>
      <stop offset=".03" stop-color="#d2800b"/>
      <stop offset=".1" stop-color="#df9426"/>
      <stop offset=".18" stop-color="#eba43c"/>
      <stop offset=".27" stop-color="#f4b04d"/>
      <stop offset=".39" stop-color="#fab959"/>
      <stop offset=".55" stop-color="#febe60"/>
      <stop offset="1" stop-color="#ffc062"/>
    </linearGradient>
    <linearGradient id="Dégradé_sans_nom_571" data-name="Dégradé sans nom 57" x1="299.77" y1="143.77" x2="299.77" y2="230.87" xlink:href="#Dégradé_sans_nom_57"/>
    <linearGradient id="Dégradé_sans_nom_572" data-name="Dégradé sans nom 57" x1="292.92" y1="233.39" x2="294.94" y2="233.39" xlink:href="#Dégradé_sans_nom_57"/>
    <linearGradient id="Dégradé_sans_nom_573" data-name="Dégradé sans nom 57" x1="304.3" y1="233.39" x2="306.32" y2="233.39" xlink:href="#Dégradé_sans_nom_57"/>
    <linearGradient id="Dégradé_sans_nom_574" data-name="Dégradé sans nom 57" x1="296.18" x2="299.62" xlink:href="#Dégradé_sans_nom_57"/>
  </defs>
  <g id="Bagel" class="st12">
    <g>
      <path class="st8" d="M375.55,412.84c-20.59,1.72-41.51,2.58-62.66,2.58-37.16,0-75.05-2.65-113.26-7.95-83.81-11.61-145.92-32.9-165.88-40.32,31.35,53.41,104.51,105.46,272.56,103.53,159.92-1.84,230.34-54.03,261.2-102.76-59.6,24.13-124.13,39.24-191.97,44.91Z"/>
      <path class="st2" d="M299.37,31.47C.56,25.36,11.57,233.54,11.57,233.54c-1.19,17.06-2.73,58.36,19.87,99.64,15.1,5.79,79.59,29.1,168.7,41.44,92.85,12.85,232,16.04,370.02-40.91,24.56-41.68,20.97-79.62,20.97-79.62C602.62,8.44,299.37,31.47,299.37,31.47ZM299.37,233.46c-42.55,0-77.05-11.12-77.05-24.83s34.5-24.83,77.05-24.83,77.05,11.12,77.05,24.83-34.5,24.83-77.05,24.83Z"/>
    </g>
    <g>
      <path class="st0" d="M303.06,233.43c-1.14.02-2.29.03-3.44.03,1.15,0,2.3-.01,3.44-.03Z"/>
      <path class="st3" d="M297.9,143.77c-59.22,0-96.92,13.65-105.5,40.02-6.33,19.45,30.55,40.46,72.98,47.08-25.36-4.06-42.8-12.5-42.8-22.24,0-13.71,34.5-17.85,77.05-17.85s77.05,4.13,77.05,17.85c0,9.75-17.44,18.18-42.8,22.24,42.42-6.62,80.72-22.24,72.98-47.08-9.1-29.2-49.73-40.02-108.95-40.02Z"/>
      <path class="st10" d="M292.92,233.36c.67.02,1.35.04,2.02.05-.68-.01-1.35-.03-2.02-.05Z"/>
      <path class="st4" d="M306.32,233.36c-.67.02-1.34.04-2.02.05.68-.01,1.35-.03,2.02-.05Z"/>
      <path class="st6" d="M299.62,233.46c-1.15,0-2.3-.01-3.44-.03,1.14.02,2.29.03,3.44.03Z"/>
    </g>
    <g>
      <path class="st5" d="M56.74,169.9s6.77,9.28,17.37,2.51c-8.25-9.49-17.37-2.51-17.37-2.51Z"/>
      <path class="st5" d="M56.69,203.41s7.28,8.88,17.48,1.53c-8.77-9.01-17.48-1.53-17.48-1.53Z"/>
      <path class="st5" d="M69.73,183.57s3.26,11.01,15.51,8.21c-4.58-11.71-15.51-8.21-15.51-8.21Z"/>
      <path class="st5" d="M107.21,179.46s4.28,10.66,16.22,6.71c-5.66-11.23-16.22-6.71-16.22-6.71Z"/>
      <path class="st5" d="M27.49,190.72s10.38,4.9,16.45-6.11c-11.78-4.38-16.45,6.11-16.45,6.11Z"/>
      <path class="st5" d="M119.15,205.5s9.72,6.12,17.07-4.08c-11.17-5.78-17.07,4.08-17.07,4.08Z"/>
      <path class="st5" d="M100,162.89s9.05,7.06,17.39-2.35c-10.53-6.86-17.39,2.35-17.39,2.35Z"/>
      <path class="st5" d="M153.93,172.93s3.79,10.84,15.9,7.44c-5.14-11.47-15.9-7.44-15.9-7.44Z"/>
      <path class="st5" d="M92.61,216.95s6.77,9.28,17.37,2.51c-8.25-9.49-17.37-2.51-17.37-2.51Z"/>
      <path class="st5" d="M114.68,251.56s7.28,8.88,17.48,1.53c-8.77-9.01-17.48-1.53-17.48-1.53Z"/>
      <path class="st5" d="M127.69,222.15s4.28,10.66,16.22,6.71c-5.66-11.23-16.22-6.71-16.22-6.71Z"/>
      <path class="st5" d="M63.36,237.77s10.38,4.9,16.45-6.11c-11.78-4.38-16.45,6.11-16.45,6.11Z"/>
      <path class="st5" d="M144.81,253.27s9.72,6.12,17.07-4.08c-11.17-5.78-17.07,4.08-17.07,4.08Z"/>
      <path class="st5" d="M150.17,203.25s9.05,7.06,17.39-2.35c-10.53-6.86-17.39,2.35-17.39,2.35Z"/>
      <path class="st5" d="M174.96,217.37s3.79,10.84,15.9,7.44c-5.14-11.47-15.9-7.44-15.9-7.44Z"/>
      <path class="st5" d="M89.09,111.1s6.77,9.28,17.37,2.51c-8.25-9.49-17.37-2.51-17.37-2.51Z"/>
      <path class="st5" d="M89.03,144.61s7.28,8.88,17.48,1.53c-8.77-9.01-17.48-1.53-17.48-1.53Z"/>
      <path class="st5" d="M102.08,124.77s3.26,11.01,15.51,8.21c-4.58-11.71-15.51-8.21-15.51-8.21Z"/>
      <path class="st5" d="M124.16,116.3s4.28,10.66,16.22,6.71c-5.66-11.23-16.22-6.71-16.22-6.71Z"/>
      <path class="st5" d="M59.84,131.92s10.38,4.9,16.45-6.11c-11.78-4.38-16.45,6.11-16.45,6.11Z"/>
      <path class="st5" d="M141.29,147.42s9.72,6.12,17.07-4.08c-11.17-5.78-17.07,4.08-17.07,4.08Z"/>
      <path class="st5" d="M132.35,104.1s9.05,7.06,17.39-2.35c-10.53-6.86-17.39,2.35-17.39,2.35Z"/>
      <path class="st5" d="M162.93,115.94s3.79,10.84,15.9,7.44c-5.14-11.47-15.9-7.44-15.9-7.44Z"/>
      <path class="st5" d="M195.71,61.07s6.77,9.28,17.37,2.51c-8.25-9.49-17.37-2.51-17.37-2.51Z"/>
      <path class="st5" d="M195.65,94.58s7.28,8.88,17.48,1.53c-8.77-9.01-17.48-1.53-17.48-1.53Z"/>
      <path class="st5" d="M208.7,74.73s3.26,11.01,15.51,8.21c-4.58-11.71-15.51-8.21-15.51-8.21Z"/>
      <path class="st5" d="M230.78,66.27s4.28,10.66,16.22,6.71c-5.66-11.23-16.22-6.71-16.22-6.71Z"/>
      <path class="st5" d="M166.46,81.89s10.38,4.9,16.45-6.11c-11.78-4.38-16.45,6.11-16.45,6.11Z"/>
      <path class="st5" d="M238.97,54.06s9.05,7.06,17.39-2.35c-10.53-6.86-17.39,2.35-17.39,2.35Z"/>
      <path class="st5" d="M269.55,65.91s3.79,10.84,15.9,7.44c-5.14-11.47-15.9-7.44-15.9-7.44Z"/>
      <path class="st5" d="M208.62,235.35s3.61,10.9,15.77,7.7c-4.95-11.56-15.77-7.7-15.77-7.7Z"/>
      <path class="st5" d="M198.32,267.24s4.22,10.68,16.18,6.8c-5.6-11.26-16.18-6.8-16.18-6.8Z"/>
      <path class="st5" d="M216.81,252.33s-.27,11.48,12.26,12.56c-.78-12.55-12.26-12.56-12.26-12.56Z"/>
      <path class="st5" d="M240.42,251.02s.82,11.45,13.39,11.35c-1.96-12.42-13.39-11.35-13.39-11.35Z"/>
      <path class="st5" d="M174.4,246.23s8.39,7.84,17.53-.79c-9.88-7.78-17.53.79-17.53.79Z"/>
      <path class="st5" d="M247.22,285.88s7.38,8.8,17.5,1.34c-8.87-8.91-17.5-1.34-17.5-1.34Z"/>
      <path class="st5" d="M251.95,241.9s6.46,9.49,17.28,3.08c-7.93-9.76-17.28-3.08-17.28-3.08Z"/>
      <path class="st5" d="M277.45,262.52s.3,11.48,12.86,11.94c-1.39-12.5-12.86-11.94-12.86-11.94Z"/>
      <path class="st5" d="M319.94,274.22s5.88,9.86,17.06,4.11c-7.34-10.21-17.06-4.11-17.06-4.11Z"/>
      <path class="st5" d="M335.79,256.53s1.59,11.37,14.12,10.42c-2.79-12.26-14.12-10.42-14.12-10.42Z"/>
      <path class="st5" d="M358.88,251.44s2.65,11.17,15.04,9.04c-3.93-11.94-15.04-9.04-15.04-9.04Z"/>
      <path class="st5" d="M292.95,257.34s9.54,6.39,17.18-3.6c-11-6.08-17.18,3.6-17.18,3.6Z"/>
      <path class="st5" d="M371.2,284.75s8.7,7.5,17.49-1.5c-10.19-7.37-17.49,1.5-17.49,1.5Z"/>
      <path class="st5" d="M368.79,240.58s7.91,8.33,17.55.26c-9.4-8.35-17.55-.26-17.55-.26Z"/>
      <path class="st5" d="M397.28,256.83s2.14,11.28,14.62,9.71c-3.39-12.11-14.62-9.71-14.62-9.71Z"/>
      <path class="st5" d="M428.73,208.14s6.77,9.28,17.37,2.51c-8.25-9.49-17.37-2.51-17.37-2.51Z"/>
      <path class="st5" d="M428.67,241.65s7.28,8.88,17.48,1.53c-8.77-9.01-17.48-1.53-17.48-1.53Z"/>
      <path class="st5" d="M441.72,221.8s3.26,11.01,15.51,8.21c-4.58-11.71-15.51-8.21-15.51-8.21Z"/>
      <path class="st5" d="M477.29,211.25s4.28,10.66,16.22,6.71c-5.66-11.23-16.22-6.71-16.22-6.71Z"/>
      <path class="st5" d="M399.48,228.96s10.38,4.9,16.45-6.11c-11.78-4.38-16.45,6.11-16.45,6.11Z"/>
      <path class="st5" d="M480.92,244.45s9.72,6.12,17.07-4.08c-11.17-5.78-17.07,4.08-17.07,4.08Z"/>
      <path class="st5" d="M420.98,187.69s9.05,7.06,17.39-2.35c-10.53-6.86-17.39,2.35-17.39,2.35Z"/>
      <path class="st5" d="M502.57,212.97s3.79,10.84,15.9,7.44c-5.14-11.47-15.9-7.44-15.9-7.44Z"/>
      <path class="st5" d="M294.42,89.8s6.77,9.28,17.37,2.51c-8.25-9.49-17.37-2.51-17.37-2.51Z"/>
      <path class="st5" d="M294.36,123.32s7.28,8.88,17.48,1.53c-8.77-9.01-17.48-1.53-17.48-1.53Z"/>
      <path class="st5" d="M307.41,103.47s3.26,11.01,15.51,8.21c-4.58-11.71-15.51-8.21-15.51-8.21Z"/>
      <path class="st5" d="M329.49,95.01s4.28,10.66,16.22,6.71c-5.66-11.23-16.22-6.71-16.22-6.71Z"/>
      <path class="st5" d="M265.16,110.62s10.38,4.9,16.45-6.11c-11.78-4.38-16.45,6.11-16.45,6.11Z"/>
      <path class="st5" d="M346.61,126.12s9.72,6.12,17.07-4.08c-11.17-5.78-17.07,4.08-17.07,4.08Z"/>
      <path class="st5" d="M368.26,94.64s3.79,10.84,15.9,7.44c-5.14-11.47-15.9-7.44-15.9-7.44Z"/>
      <path class="st5" d="M422.56,114.24s1.7,11.36,14.23,10.27c-2.91-12.23-14.23-10.27-14.23-10.27Z"/>
      <path class="st5" d="M406.99,143.91s2.34,11.24,14.79,9.45c-3.6-12.05-14.79-9.45-14.79-9.45Z"/>
      <path class="st5" d="M427.75,132.37s-2.22,11.27,9.95,14.46c1.37-12.5-9.95-14.46-9.95-14.46Z"/>
      <path class="st5" d="M451.24,135.1s-1.15,11.43,11.26,13.46c.19-12.57-11.26-13.46-11.26-13.46Z"/>
      <path class="st5" d="M387,119.14s6.93,9.16,17.41,2.21c-8.41-9.35-17.41-2.21-17.41-2.21Z"/>
      <path class="st5" d="M452,170.61s5.77,9.93,17.02,4.3c-7.22-10.29-17.02-4.3-17.02-4.3Z"/>
      <path class="st5" d="M464.15,128.07s4.75,10.46,16.5,5.98c-6.16-10.96-16.5-5.98-16.5-5.98Z"/>
      <path class="st5" d="M485.76,152.74s-1.66,11.36,10.64,13.96c.76-12.55-10.64-13.96-10.64-13.96Z"/>
      <path class="st5" d="M412.23,57.21s2.23,11.26,14.7,9.59c-3.48-12.08-14.7-9.59-14.7-9.59Z"/>
      <path class="st5" d="M398.07,87.58s2.87,11.12,15.21,8.75c-4.16-11.87-15.21-8.75-15.21-8.75Z"/>
      <path class="st5" d="M418.26,75.07s-1.68,11.36,10.61,13.98c.78-12.55-10.61-13.98-10.61-13.98Z"/>
      <path class="st5" d="M441.86,76.69s-.61,11.47,11.88,12.91c-.4-12.57-11.88-12.91-11.88-12.91Z"/>
      <path class="st5" d="M376.93,63.77s7.35,8.82,17.49,1.39c-8.84-8.94-17.49-1.39-17.49-1.39Z"/>
      <path class="st5" d="M444.29,112.13s6.23,9.64,17.2,3.49c-7.7-9.94-17.2-3.49-17.2-3.49Z"/>
      <path class="st5" d="M454.42,69.07s5.24,10.22,16.76,5.2c-6.66-10.66-16.76-5.2-16.76-5.2Z"/>
      <path class="st5" d="M477.17,92.69s-1.13,11.43,11.29,13.44c.16-12.57-11.29-13.44-11.29-13.44Z"/>
      <path class="st5" d="M299.25,52.1s6.77,9.28,17.37,2.51c-8.25-9.49-17.37-2.51-17.37-2.51Z"/>
      <path class="st5" d="M312.24,65.76s3.26,11.01,15.51,8.21c-4.58-11.71-15.51-8.21-15.51-8.21Z"/>
      <path class="st5" d="M334.32,57.3s4.28,10.66,16.22,6.71c-5.66-11.23-16.22-6.71-16.22-6.71Z"/>
      <path class="st5" d="M351.44,88.41s9.72,6.12,17.07-4.08c-11.17-5.78-17.07,4.08-17.07,4.08Z"/>
      <path class="st5" d="M342.51,45.09s9.05,7.06,17.39-2.35c-10.53-6.86-17.39,2.35-17.39,2.35Z"/>
      <path class="st5" d="M184.44,160.82s10.41,4.84,16.42-6.2c-11.81-4.32-16.42,6.2-16.42,6.2Z"/>
      <path class="st5" d="M187.59,137.28s7.71,8.51,17.54.67c-9.2-8.57-17.54-.67-17.54-.67Z"/>
      <path class="st5" d="M203.83,120.08s8.48,7.75,17.52-.98c-9.97-7.66-17.52.98-17.52.98Z"/>
      <path class="st5" d="M158.87,158.53s6.85,9.22,17.39,2.37c-8.33-9.42-17.39-2.37-17.39-2.37Z"/>
      <path class="st5" d="M232.74,140.69s11.41,1.3,13.61-11.07c-12.57-.36-13.61,11.07-13.61,11.07Z"/>
      <path class="st5" d="M238.6,102.94s8.12,8.12,17.55-.19c-9.61-8.11-17.55.19-17.55.19Z"/>
      <path class="st5" d="M509.84,149.42s4.33,10.64,16.25,6.64c-5.71-11.2-16.25-6.64-16.25-6.64Z"/>
      <path class="st5" d="M509.88,179.35s4.13,10.72,16.12,6.94c-5.5-11.31-16.12-6.94-16.12-6.94Z"/>
      <path class="st5" d="M532.95,173.23s4.71,10.47,16.48,6.04c-6.11-10.99-16.48-6.04-16.48-6.04Z"/>
      <path class="st5" d="M533.55,161.36s5.68,9.98,16.97,4.46c-7.12-10.36-16.97-4.46-16.97-4.46Z"/>
      <path class="st5" d="M491.94,118.53s2.77,11.14,15.14,8.88c-4.06-11.9-15.14-8.88-15.14-8.88Z"/>
      <path class="st5" d="M531.48,191.4s1.41,11.4,13.96,10.64c-2.6-12.3-13.96-10.64-13.96-10.64Z"/>
      <path class="st5" d="M540.83,145.43s9.5,6.45,17.2-3.5c-10.97-6.15-17.2,3.5-17.2,3.5Z"/>
      <path class="st5" d="M558.83,186.68s4.51,10.56,16.36,6.36c-5.9-11.1-16.36-6.36-16.36-6.36Z"/>
      <path class="st5" d="M513.13,132.51s4.28,10.66,16.22,6.71c-5.66-11.23-16.22-6.71-16.22-6.71Z"/>
      <path class="st5" d="M369.69,230.58s9.72,6.12,17.07-4.08c-11.17-5.78-17.07,4.08-17.07,4.08Z"/>
      <path class="st5" d="M521.32,120.3s9.05,7.06,17.39-2.35c-10.53-6.86-17.39,2.35-17.39,2.35Z"/>
      <path class="st5" d="M476.66,228.43s7.28,8.88,17.48,1.53c-8.77-9.01-17.48-1.53-17.48-1.53Z"/>
      <path class="st5" d="M488.33,186.89s4.28,10.66,16.22,6.71c-5.66-11.23-16.22-6.71-16.22-6.71Z"/>
      <path class="st5" d="M454.28,195.28s10.38,4.9,16.45-6.11c-11.78-4.38-16.45,6.11-16.45,6.11Z"/>
      <path class="st5" d="M528.91,231.23s9.72,6.12,17.07-4.08c-11.17-5.78-17.07,4.08-17.07,4.08Z"/>
      <path class="st5" d="M550.56,199.76s3.79,10.84,15.9,7.44c-5.14-11.47-15.9-7.44-15.9-7.44Z"/>
      <path class="st5" d="M35.2,231.64s7.28,8.88,17.48,1.53c-8.77-9.01-17.48-1.53-17.48-1.53Z"/>
      <path class="st5" d="M29.54,217.53s10.38,4.9,16.45-6.11c-11.78-4.38-16.45,6.11-16.45,6.11Z"/>
      <path class="st5" d="M98.25,245.13s9.72,6.12,17.07-4.08c-11.17-5.78-17.07,4.08-17.07,4.08Z"/>
      <path class="st5" d="M89.31,201.81s9.05,7.06,17.39-2.35c-10.53-6.86-17.39,2.35-17.39,2.35Z"/>
    </g>
  </g>
  <g id="fourrage" class="st12">
    <path class="st11" d="M570.48,367.11c-260.36,111.06-538.72-.53-538.72-.53-1.69-.52-6.08-2.12-8.79-6.42-1.48-2.35-1.94-4.67-2.18-5.93-.19-1.02-.63-3.76,0-7.21.19-1.05.78-3.8,2.57-6.82,2.68-4.5,6.43-6.87,8.4-7.93,46.96,17.28,104.81,32.73,171.72,41.91,102.13,14.01,236.81,14.14,367-41.38.96.75,2.3,1.84,3.83,3.23,1.59,1.44,2.41,2.19,3.33,3.33.65.8,1.82,2.28,2.74,4.5.41.99,1.33,3.29,1.27,6.3-.06,2.72-.89,4.75-2.05,7.59-.45,1.09-.85,2.09-1.43,3.06,0,0-2.27,3.99-7.69,6.3Z"/>
    <path class="st11" d="M55.03,340.38s11.6,21.75-5.62,32.82"/>
    <path class="st11" d="M89.03,350.9s13.07,25.98-6.23,32.48"/>
    <path class="st11" d="M127.69,361.42s10.79,25.4-4.26,31.99"/>
    <path class="st11" d="M168.63,368.71s15.74,23.78-2.69,33.8"/>
    <path class="st11" d="M212.84,375.42s19.33,21.94-4.22,33.25"/>
    <path class="st11" d="M255.97,380.43s20.82,16.97,0,32.95"/>
    <path class="st11" d="M307.54,381.98s18.26,15.8,0,33.42"/>
    <path class="st11" d="M352.88,381.12s22.96,10.27,0,34.28"/>
    <path class="st11" d="M407.46,376.33s17.55,18.02,0,33.11"/>
    <path class="st11" d="M457.24,368.04s20.37,20.24,0,34.19"/>
    <path class="st11" d="M501.31,357.24s25.04,12.5,6.78,32.33"/>
    <path class="st11" d="M540.74,344.52s26.96,9.56,10.33,29.79"/>
    <path class="st11" d="M300,233.63c-37.46,0-77.66-14.27-77.05-24.83.64-10.97,21.57-17.85,77.3-17.85s76.16,6.9,76.8,17.85c.62,10.56-39.57,24.83-77.05,24.83Z"/>
  </g>
  <g id="glaçage" class="st12">
    <path class="st9" d="M22.4,128.9"/>
    <path class="st7" d="M589.22,170.09c-3.58-10.83-10.97-32.45-29.46-53.32-7.17-8.09-16.37-15.87-36-29.74-59.16-41.81-53.14-39.44-60.26-43.04-1.19-.6-2.47-1.23-3.98-1.89-22.65-9.92-89.94-18.02-89.94-18.02-30.26-3.64-42.99-5.51-64.28-4.91-6.2.17-11.35.51-14.92.78-3.28-.11-8.17-.19-14.09,0-29.74.97-42.62,7.55-71.07,13.08-34.68,6.74-35.08.57-56.89,8.15-11.7,4.06-22.85,9.62-41.72,22.38-35.98,24.33-54.3,35.99-69.65,57.13-6.64,9.15-3.69,7.16-31.3,81.39-2.57,6.92-7.41,19.86-1.78,31.75,2.2,4.65,5.38,7.82,7.73,9.77,23.15,6.85,49.41,14.28,77.69,21.65l-.11-.03c2.29.8,5.2,2.06,8.29,4.08,2.74,1.8,4.86,3.7,6.42,5.32.82,1.11,2.19,3.38,1.97,6.19-.03.42-.1.82-.19,1.19-.33,1.01-.5,1.88-.55,2.66-1.65,1.6-5.34,5.63-6.56,11.91-.62,3.21-1.84,9.51,2.35,13.93,3.51,3.7,9.28,4.47,13.68,2.82,6.01-2.26,9.87-9.21,8.71-16.75-.25-.88-.5-1.78-.74-2.7-.62-2.41-1.14-4.74-1.58-6.99.13-.25.33-.61.57-1.05,2.19-4.02,3.29-6.03,4.33-7.1.79-.81,2.97-2.6,8.13-2.33,0,0-.02,0-.03,0,7.69,1.83,15.49,3.63,23.35,5.4,6.37,11.59,6.81,20.34,5.33,26.81-3.12,13.63-15.21,19.11-12.81,30.32,1.56,7.3,8.4,12.94,14.77,15.07,2.72.91,9.33,3.12,14.97-.79,6.73-4.66,6.04-13.84,6-14.29,0,0-13.81-35.72.06-51.02,43.03,11.74,79.29,14.64,104.91,14.96,25.04.32,44.98-1.76,61.43-3.52,37.39-4.01,68.38-10.55,90.97-16.25l-.15.04s11.07,1.41,11.19,17.62c-.4,2.34-.97,4.48-1.63,6.45-5.37,15.76-18.44,23.39-15.72,38.4,1.36,7.46,6.74,17.42,16.02,20.55,5,1.68,9.41.81,10.73.53,1-.21,11.12-2.52,15.26-12.32,3.04-7.19.9-13.76.3-15.41-6.56-15.24-9.56-29.75-9.46-41.99.43-5.71,3.4-16.71,18.66-25.02l-.2.05c2.65-.89,5.28-1.8,7.83-2.76,12.83-4.85,22.42-9.98,31.82-13.74.08-.03.17-.06.25-.1.51.41,1.87,1.62,2.45,3.71.48,1.73.19,3.19.01,3.84.05.78.08,2.05-.11,3.59-1.01,7.77-6.26,9.21-8.13,15.9-1.47,5.26-.2,11.49,3.3,15.11.69.71,2.54,2.58,5.5,3.13,3.51.65,6.33-.97,7.23-1.49,4.68-2.69,7.13-9.12,6.58-16.34-.6-1.7-1.21-3.96-1.44-6.67-.32-3.79.22-6.94.77-9.05,2.31-5.71,4.62-11.41,6.93-17.12,2.37-.12,4.84-.13,7.45.02,8.49.48,23.92,2.77,32.91-6.4,3.98-4.06,5.47-9.12,6.11-12.73.7-14.57-.13-36.26-8.24-60.79ZM336.85,230.48c.64-.11,1.27-.24,1.9-.38-11.38,2.13-24.62,3.36-38.75,3.36-15.18,0-29.34-1.33-41.24-3.86-39.26-8.34-71.17-27.52-65.73-45.8,7.28-24.49,45.64-39.16,104.86-39.16,54.51,0,99.07,9.99,108.07,39.16,6.33,20.52-27.92,39.76-69.11,46.68Z"/>
    <g>
      <path class="st5" d="M56.74,169.9s6.77,9.28,17.37,2.51c-8.25-9.49-17.37-2.51-17.37-2.51Z"/>
      <path class="st5" d="M56.69,203.41s7.28,8.88,17.48,1.53c-8.77-9.01-17.48-1.53-17.48-1.53Z"/>
      <path class="st5" d="M69.73,183.57s3.26,11.01,15.51,8.21c-4.58-11.71-15.51-8.21-15.51-8.21Z"/>
      <path class="st5" d="M107.21,179.46s4.28,10.66,16.22,6.71c-5.66-11.23-16.22-6.71-16.22-6.71Z"/>
      <path class="st5" d="M27.49,190.72s10.38,4.9,16.45-6.11c-11.78-4.38-16.45,6.11-16.45,6.11Z"/>
      <path class="st5" d="M119.15,205.5s9.72,6.12,17.07-4.08c-11.17-5.78-17.07,4.08-17.07,4.08Z"/>
      <path class="st5" d="M100,162.89s9.05,7.06,17.39-2.35c-10.53-6.86-17.39,2.35-17.39,2.35Z"/>
      <path class="st5" d="M153.93,172.93s3.79,10.84,15.9,7.44c-5.14-11.47-15.9-7.44-15.9-7.44Z"/>
      <path class="st5" d="M92.61,216.95s6.77,9.28,17.37,2.51c-8.25-9.49-17.37-2.51-17.37-2.51Z"/>
      <path class="st5" d="M114.68,251.56s7.28,8.88,17.48,1.53c-8.77-9.01-17.48-1.53-17.48-1.53Z"/>
      <path class="st5" d="M127.69,222.15s4.28,10.66,16.22,6.71c-5.66-11.23-16.22-6.71-16.22-6.71Z"/>
      <path class="st5" d="M63.36,237.77s10.38,4.9,16.45-6.11c-11.78-4.38-16.45,6.11-16.45,6.11Z"/>
      <path class="st5" d="M144.81,253.27s9.72,6.12,17.07-4.08c-11.17-5.78-17.07,4.08-17.07,4.08Z"/>
      <path class="st5" d="M150.17,203.25s9.05,7.06,17.39-2.35c-10.53-6.86-17.39,2.35-17.39,2.35Z"/>
      <path class="st5" d="M174.96,217.37s3.79,10.84,15.9,7.44c-5.14-11.47-15.9-7.44-15.9-7.44Z"/>
      <path class="st5" d="M89.09,111.1s6.77,9.28,17.37,2.51c-8.25-9.49-17.37-2.51-17.37-2.51Z"/>
      <path class="st5" d="M89.03,144.61s7.28,8.88,17.48,1.53c-8.77-9.01-17.48-1.53-17.48-1.53Z"/>
      <path class="st5" d="M102.08,124.77s3.26,11.01,15.51,8.21c-4.58-11.71-15.51-8.21-15.51-8.21Z"/>
      <path class="st5" d="M124.16,116.3s4.28,10.66,16.22,6.71c-5.66-11.23-16.22-6.71-16.22-6.71Z"/>
      <path class="st5" d="M59.84,131.92s10.38,4.9,16.45-6.11c-11.78-4.38-16.45,6.11-16.45,6.11Z"/>
      <path class="st5" d="M141.29,147.42s9.72,6.12,17.07-4.08c-11.17-5.78-17.07,4.08-17.07,4.08Z"/>
      <path class="st5" d="M132.35,104.1s9.05,7.06,17.39-2.35c-10.53-6.86-17.39,2.35-17.39,2.35Z"/>
      <path class="st5" d="M162.93,115.94s3.79,10.84,15.9,7.44c-5.14-11.47-15.9-7.44-15.9-7.44Z"/>
      <path class="st5" d="M195.71,61.07s6.77,9.28,17.37,2.51c-8.25-9.49-17.37-2.51-17.37-2.51Z"/>
      <path class="st5" d="M195.65,94.58s7.28,8.88,17.48,1.53c-8.77-9.01-17.48-1.53-17.48-1.53Z"/>
      <path class="st5" d="M208.7,74.73s3.26,11.01,15.51,8.21c-4.58-11.71-15.51-8.21-15.51-8.21Z"/>
      <path class="st5" d="M230.78,66.27s4.28,10.66,16.22,6.71c-5.66-11.23-16.22-6.71-16.22-6.71Z"/>
      <path class="st5" d="M166.46,81.89s10.38,4.9,16.45-6.11c-11.78-4.38-16.45,6.11-16.45,6.11Z"/>
      <path class="st5" d="M238.97,54.06s9.05,7.06,17.39-2.35c-10.53-6.86-17.39,2.35-17.39,2.35Z"/>
      <path class="st5" d="M269.55,65.91s3.79,10.84,15.9,7.44c-5.14-11.47-15.9-7.44-15.9-7.44Z"/>
      <path class="st5" d="M208.62,235.35s3.61,10.9,15.77,7.7c-4.95-11.56-15.77-7.7-15.77-7.7Z"/>
      <path class="st5" d="M198.32,267.24s4.22,10.68,16.18,6.8c-5.6-11.26-16.18-6.8-16.18-6.8Z"/>
      <path class="st5" d="M216.81,252.33s-.27,11.48,12.26,12.56c-.78-12.55-12.26-12.56-12.26-12.56Z"/>
      <path class="st5" d="M240.42,251.02s.82,11.45,13.39,11.35c-1.96-12.42-13.39-11.35-13.39-11.35Z"/>
      <path class="st5" d="M174.4,246.23s8.39,7.84,17.53-.79c-9.88-7.78-17.53.79-17.53.79Z"/>
      <path class="st5" d="M247.22,285.88s7.38,8.8,17.5,1.34c-8.87-8.91-17.5-1.34-17.5-1.34Z"/>
      <path class="st5" d="M251.95,241.9s6.46,9.49,17.28,3.08c-7.93-9.76-17.28-3.08-17.28-3.08Z"/>
      <path class="st5" d="M277.45,262.52s.3,11.48,12.86,11.94c-1.39-12.5-12.86-11.94-12.86-11.94Z"/>
      <path class="st5" d="M319.94,274.22s5.88,9.86,17.06,4.11c-7.34-10.21-17.06-4.11-17.06-4.11Z"/>
      <path class="st5" d="M335.79,256.53s1.59,11.37,14.12,10.42c-2.79-12.26-14.12-10.42-14.12-10.42Z"/>
      <path class="st5" d="M358.88,251.44s2.65,11.17,15.04,9.04c-3.93-11.94-15.04-9.04-15.04-9.04Z"/>
      <path class="st5" d="M292.95,257.34s9.54,6.39,17.18-3.6c-11-6.08-17.18,3.6-17.18,3.6Z"/>
      <path class="st5" d="M371.2,284.75s8.7,7.5,17.49-1.5c-10.19-7.37-17.49,1.5-17.49,1.5Z"/>
      <path class="st5" d="M368.79,240.58s7.91,8.33,17.55.26c-9.4-8.35-17.55-.26-17.55-.26Z"/>
      <path class="st5" d="M397.28,256.83s2.14,11.28,14.62,9.71c-3.39-12.11-14.62-9.71-14.62-9.71Z"/>
      <path class="st5" d="M428.73,208.14s6.77,9.28,17.37,2.51c-8.25-9.49-17.37-2.51-17.37-2.51Z"/>
      <path class="st5" d="M428.67,241.65s7.28,8.88,17.48,1.53c-8.77-9.01-17.48-1.53-17.48-1.53Z"/>
      <path class="st5" d="M441.72,221.8s3.26,11.01,15.51,8.21c-4.58-11.71-15.51-8.21-15.51-8.21Z"/>
      <path class="st5" d="M477.29,211.25s4.28,10.66,16.22,6.71c-5.66-11.23-16.22-6.71-16.22-6.71Z"/>
      <path class="st5" d="M399.48,228.96s10.38,4.9,16.45-6.11c-11.78-4.38-16.45,6.11-16.45,6.11Z"/>
      <path class="st5" d="M480.92,244.45s9.72,6.12,17.07-4.08c-11.17-5.78-17.07,4.08-17.07,4.08Z"/>
      <path class="st5" d="M420.98,187.69s9.05,7.06,17.39-2.35c-10.53-6.86-17.39,2.35-17.39,2.35Z"/>
      <path class="st5" d="M502.57,212.97s3.79,10.84,15.9,7.44c-5.14-11.47-15.9-7.44-15.9-7.44Z"/>
      <path class="st5" d="M294.42,89.8s6.77,9.28,17.37,2.51c-8.25-9.49-17.37-2.51-17.37-2.51Z"/>
      <path class="st5" d="M294.36,123.32s7.28,8.88,17.48,1.53c-8.77-9.01-17.48-1.53-17.48-1.53Z"/>
      <path class="st5" d="M307.41,103.47s3.26,11.01,15.51,8.21c-4.58-11.71-15.51-8.21-15.51-8.21Z"/>
      <path class="st5" d="M329.49,95.01s4.28,10.66,16.22,6.71c-5.66-11.23-16.22-6.71-16.22-6.71Z"/>
      <path class="st5" d="M265.16,110.62s10.38,4.9,16.45-6.11c-11.78-4.38-16.45,6.11-16.45,6.11Z"/>
      <path class="st5" d="M346.61,126.12s9.72,6.12,17.07-4.08c-11.17-5.78-17.07,4.08-17.07,4.08Z"/>
      <path class="st5" d="M368.26,94.64s3.79,10.84,15.9,7.44c-5.14-11.47-15.9-7.44-15.9-7.44Z"/>
      <path class="st5" d="M422.56,114.24s1.7,11.36,14.23,10.27c-2.91-12.23-14.23-10.27-14.23-10.27Z"/>
      <path class="st5" d="M406.99,143.91s2.34,11.24,14.79,9.45c-3.6-12.05-14.79-9.45-14.79-9.45Z"/>
      <path class="st5" d="M427.75,132.37s-2.22,11.27,9.95,14.46c1.37-12.5-9.95-14.46-9.95-14.46Z"/>
      <path class="st5" d="M451.24,135.1s-1.15,11.43,11.26,13.46c.19-12.57-11.26-13.46-11.26-13.46Z"/>
      <path class="st5" d="M387,119.14s6.93,9.16,17.41,2.21c-8.41-9.35-17.41-2.21-17.41-2.21Z"/>
      <path class="st5" d="M452,170.61s5.77,9.93,17.02,4.3c-7.22-10.29-17.02-4.3-17.02-4.3Z"/>
      <path class="st5" d="M464.15,128.07s4.75,10.46,16.5,5.98c-6.16-10.96-16.5-5.98-16.5-5.98Z"/>
      <path class="st5" d="M485.76,152.74s-1.66,11.36,10.64,13.96c.76-12.55-10.64-13.96-10.64-13.96Z"/>
      <path class="st5" d="M412.23,57.21s2.23,11.26,14.7,9.59c-3.48-12.08-14.7-9.59-14.7-9.59Z"/>
      <path class="st5" d="M398.07,87.58s2.87,11.12,15.21,8.75c-4.16-11.87-15.21-8.75-15.21-8.75Z"/>
      <path class="st5" d="M418.26,75.07s-1.68,11.36,10.61,13.98c.78-12.55-10.61-13.98-10.61-13.98Z"/>
      <path class="st5" d="M441.86,76.69s-.61,11.47,11.88,12.91c-.4-12.57-11.88-12.91-11.88-12.91Z"/>
      <path class="st5" d="M376.93,63.77s7.35,8.82,17.49,1.39c-8.84-8.94-17.49-1.39-17.49-1.39Z"/>
      <path class="st5" d="M444.29,112.13s6.23,9.64,17.2,3.49c-7.7-9.94-17.2-3.49-17.2-3.49Z"/>
      <path class="st5" d="M454.42,69.07s5.24,10.22,16.76,5.2c-6.66-10.66-16.76-5.2-16.76-5.2Z"/>
      <path class="st5" d="M477.17,92.69s-1.13,11.43,11.29,13.44c.16-12.57-11.29-13.44-11.29-13.44Z"/>
      <path class="st5" d="M299.25,52.1s6.77,9.28,17.37,2.51c-8.25-9.49-17.37-2.51-17.37-2.51Z"/>
      <path class="st5" d="M312.24,65.76s3.26,11.01,15.51,8.21c-4.58-11.71-15.51-8.21-15.51-8.21Z"/>
      <path class="st5" d="M334.32,57.3s4.28,10.66,16.22,6.71c-5.66-11.23-16.22-6.71-16.22-6.71Z"/>
      <path class="st5" d="M351.44,88.41s9.72,6.12,17.07-4.08c-11.17-5.78-17.07,4.08-17.07,4.08Z"/>
      <path class="st5" d="M342.51,45.09s9.05,7.06,17.39-2.35c-10.53-6.86-17.39,2.35-17.39,2.35Z"/>
      <path class="st5" d="M184.44,160.82s10.41,4.84,16.42-6.2c-11.81-4.32-16.42,6.2-16.42,6.2Z"/>
      <path class="st5" d="M187.59,137.28s7.71,8.51,17.54.67c-9.2-8.57-17.54-.67-17.54-.67Z"/>
      <path class="st5" d="M203.83,120.08s8.48,7.75,17.52-.98c-9.97-7.66-17.52.98-17.52.98Z"/>
      <path class="st5" d="M158.87,158.53s6.85,9.22,17.39,2.37c-8.33-9.42-17.39-2.37-17.39-2.37Z"/>
      <path class="st5" d="M232.74,140.69s11.41,1.3,13.61-11.07c-12.57-.36-13.61,11.07-13.61,11.07Z"/>
      <path class="st5" d="M238.6,102.94s8.12,8.12,17.55-.19c-9.61-8.11-17.55.19-17.55.19Z"/>
      <path class="st5" d="M509.84,149.42s4.33,10.64,16.25,6.64c-5.71-11.2-16.25-6.64-16.25-6.64Z"/>
      <path class="st5" d="M509.88,179.35s4.13,10.72,16.12,6.94c-5.5-11.31-16.12-6.94-16.12-6.94Z"/>
      <path class="st5" d="M532.95,173.23s4.71,10.47,16.48,6.04c-6.11-10.99-16.48-6.04-16.48-6.04Z"/>
      <path class="st5" d="M533.55,161.36s5.68,9.98,16.97,4.46c-7.12-10.36-16.97-4.46-16.97-4.46Z"/>
      <path class="st5" d="M491.94,118.53s2.77,11.14,15.14,8.88c-4.06-11.9-15.14-8.88-15.14-8.88Z"/>
      <path class="st5" d="M531.48,191.4s1.41,11.4,13.96,10.64c-2.6-12.3-13.96-10.64-13.96-10.64Z"/>
      <path class="st5" d="M540.83,145.43s9.5,6.45,17.2-3.5c-10.97-6.15-17.2,3.5-17.2,3.5Z"/>
      <path class="st5" d="M558.83,186.68s4.51,10.56,16.36,6.36c-5.9-11.1-16.36-6.36-16.36-6.36Z"/>
      <path class="st5" d="M513.13,132.51s4.28,10.66,16.22,6.71c-5.66-11.23-16.22-6.71-16.22-6.71Z"/>
      <path class="st5" d="M369.69,230.58s9.72,6.12,17.07-4.08c-11.17-5.78-17.07,4.08-17.07,4.08Z"/>
      <path class="st5" d="M521.32,120.3s9.05,7.06,17.39-2.35c-10.53-6.86-17.39,2.35-17.39,2.35Z"/>
      <path class="st5" d="M476.66,228.43s7.28,8.88,17.48,1.53c-8.77-9.01-17.48-1.53-17.48-1.53Z"/>
      <path class="st5" d="M488.33,186.89s4.28,10.66,16.22,6.71c-5.66-11.23-16.22-6.71-16.22-6.71Z"/>
      <path class="st5" d="M454.28,195.28s10.38,4.9,16.45-6.11c-11.78-4.38-16.45,6.11-16.45,6.11Z"/>
      <path class="st5" d="M528.91,231.23s9.72,6.12,17.07-4.08c-11.17-5.78-17.07,4.08-17.07,4.08Z"/>
      <path class="st5" d="M550.56,199.76s3.79,10.84,15.9,7.44c-5.14-11.47-15.9-7.44-15.9-7.44Z"/>
      <path class="st5" d="M35.2,231.64s7.28,8.88,17.48,1.53c-8.77-9.01-17.48-1.53-17.48-1.53Z"/>
      <path class="st5" d="M29.54,217.53s10.38,4.9,16.45-6.11c-11.78-4.38-16.45,6.11-16.45,6.11Z"/>
      <path class="st5" d="M98.25,245.13s9.72,6.12,17.07-4.08c-11.17-5.78-17.07,4.08-17.07,4.08Z"/>
      <path class="st5" d="M89.31,201.81s9.05,7.06,17.39-2.35c-10.53-6.86-17.39,2.35-17.39,2.35Z"/>
    </g>
  </g>
  <g id="crudités">
    <path class="st1" d="M171.24,236.96s-27.94,6.65-108.84-24.52c0,0-5.78,3.92-3.91,6.14.31.36-.14-.01,0,0,3.04.3,44.88,20.25,109.98,28.45,3.45.44,1.85-6.71,2.77-10.07Z"/>
    <path class="st1" d="M150.7,162.78c-5.77,1.98-14.26,3.97-23.97,2.44-12.36-1.95-19.91-8.51-25.19-11.88-10.5-6.7-28.61-11.34-61.9-1.32-1.29.92-1.92,1.97-2.36,2.55-1.05,1.4-1.82,3.04-.76,4.03.32.29-.05.06-.02,0,0,0,0,0,.02,0,.1,0,.6,1.56.67,1.71.98,2.35,30.5-12.35,47.65-5.66,2.69,1.05,11.14,4.99,13.9,6.29,11.51,5.43,10.3,5.43,15.13,7.47,0,0,13.44,5.66,35.31,4.71.18,0,.59-.03,1.49-10.34Z"/>
    <path class="st1" d="M258.72,78.38c-17.63,1.82-29.93,3.43-37.78,4.99-1.62.32-5.5,1.13-10.44.36-5.65-.88-9.67-3.35-12.02-4.88-13.47-8.75-16.81-15.49-25.67-20.74-4.41-2.62-11.57-5.68-22.53-5.92-3.29,4.49-4.14,5.92-4,6.08.3.37-.14-.02,0,0,14.27,1.65,23.92,9.11,23.92,9.11,19.15,15.12,28.72,22.68,40.2,23.66,6.74.58,5.67-1.65,20.39-2.3,7.65-.34,23.19-.4,25.03-.34t2.93-10.02Z"/>
    <path class="st1" d="M247.79,82.89c-5.41,2.82-13.51,6.04-23.34,5.97-12.51-.09-20.95-5.45-26.67-8-11.38-5.06-29.98-6.96-61.4,7.9-1.14,1.1-1.61,2.23-1.95,2.88-.83,1.54-1.35,3.28-.15,4.09.35.24-.04.07-.02.01,0,0,0,0,.02-.01.09-.02.83,1.45.91,1.59,1.32,2.17,28.33-16.75,46.28-12.68,2.81.64,11.76,3.28,14.68,4.15,12.19,3.66,10.99,3.84,16.08,5.13,0,0,14.13,3.59,35.62-.59.17-.03.58-.12-.06-10.44Z"/>
    <path class="st1" d="M170.08,184.72c-4.44,4.18-11.37,9.47-20.85,12.07-12.07,3.3-21.64.42-27.84-.48-12.33-1.79-30.74,1.41-56.98,24.22-.8,1.36-.94,2.59-1.1,3.3-.38,1.71-.41,3.52.96,3.98.41.13-.02.08-.02.02,0,0,0,0,.02-.02.09-.04,1.19,1.17,1.31,1.29,1.86,1.74,22.74-23.79,41.12-24.73,2.88-.15,12.21-.03,15.26.02,12.73.23,11.62.72,16.87.59,0,0,14.58-.36,34.13-10.21.16-.08.53-.27-2.88-10.04Z"/>
    <path class="st1" d="M398.15,57.28c-3.99,4.61-10.33,10.59-19.5,14.15-11.66,4.53-21.49,2.64-27.74,2.39-12.44-.52-30.44,4.57-54.18,29.96-.65,1.44-.67,2.67-.76,3.39-.2,1.74-.05,3.55,1.37,3.86.42.09-.01.08-.02.02,0,0,0,0,.02-.02.08-.05,1.3,1.05,1.43,1.14,2.03,1.54,20.17-26,38.36-28.84,2.85-.44,12.14-1.29,15.18-1.55,12.68-1.09,11.63-.48,16.84-1.15,0,0,14.46-1.86,32.9-13.67.15-.1.5-.32-3.9-9.69Z"/>
    <path class="st1" d="M490.75,115.42c-5.69,2.19-14.1,4.48-23.86,3.3-12.42-1.5-20.2-7.79-25.6-10.96-10.73-6.32-29-10.31-61.9.91-1.26.96-1.85,2.04-2.26,2.64-.99,1.44-1.71,3.11-.61,4.05.33.28-.05.06-.02.01,0,0,0,0,.02-.01.1,0,.66,1.54.73,1.68,1.06,2.31,30.04-13.44,47.42-7.37,2.72.95,11.31,4.58,14.12,5.79,11.7,5.02,10.49,5.06,15.39,6.92,0,0,13.64,5.17,35.46,3.44.18-.01.59-.05,1.12-10.38Z"/>
    <path class="st1" d="M546.02,175.01c-5.97,1.25-14.64,2.15-24.08-.58-12.02-3.48-18.69-10.93-23.5-14.93-9.58-7.96-26.97-14.83-61.25-9.05-1.39.75-2.15,1.72-2.66,2.24-1.21,1.26-2.19,2.79-1.25,3.9.28.33-.06.05-.03,0,0,0,0,0,.03,0,.1,0,.4,1.62.45,1.78.68,2.45,31.81-8.44,47.99.34,2.54,1.38,10.43,6.34,13.01,7.98,10.74,6.83,9.54,6.68,14.08,9.3,0,0,12.63,7.29,34.45,9.09.18.01.59.04,2.77-10.07Z"/>
    <path class="st1" d="M518.86,231.33c-5.87,1.65-14.46,3.14-24.07,1.06-12.22-2.65-19.39-9.64-24.46-13.3-10.1-7.29-27.91-12.96-61.72-4.87-1.34.84-2.03,1.86-2.5,2.41-1.12,1.34-2,2.93-.99,3.98.3.31-.05.06-.02,0,0,0,0,0,.02,0,.1,0,.51,1.59.57,1.75.84,2.4,31.16-10.58,47.9-2.92,2.62,1.2,10.84,5.62,13.52,7.08,11.18,6.09,9.97,6.01,14.68,8.32,0,0,13.1,6.42,34.99,6.73.18,0,.59,0,2.08-10.23Z"/>
    <path class="st1" d="M248.77,273.6c-6.09-.27-14.72-1.54-23.19-6.53-10.78-6.35-15.39-15.22-19.07-20.29-7.31-10.08-22.45-21.05-57.09-23.95-1.54.38-2.51,1.13-3.13,1.51-1.49.92-2.81,2.16-2.18,3.47.19.39-.07.04-.03,0,0,0,0,0,.03,0,.09.03-.01,1.67,0,1.83.05,2.54,32.91-.29,46.4,12.23,2.12,1.96,8.53,8.73,10.62,10.95,8.71,9.28,7.59,8.83,11.34,12.5,0,0,10.43,10.19,31.12,17.35.17.06.56.19,5.18-9.07Z"/>
    <path class="st1" d="M394.63,77.86c-16.95,5.17-28.71,9.11-36.12,12.15-1.53.63-5.18,2.16-10.18,2.36-5.71.22-10.14-1.44-12.74-2.48-14.9-6.01-19.47-11.98-29.18-15.43-4.83-1.72-12.45-3.36-23.25-1.49-2.37,5.04-2.93,6.6-2.76,6.73.37.3-.14.01,0,0,14.33-1.12,25.22,4.35,25.22,4.35,21.69,11.16,32.54,16.74,43.99,15.51,6.73-.72,5.25-2.71,19.57-6.16,7.44-1.8,22.69-4.84,24.5-5.13t.95-10.4Z"/>
    <path class="st1" d="M192.46,146.32c-17.63,1.82-29.93,3.43-37.78,4.99-1.62.32-5.5,1.13-10.44.36-5.65-.88-9.67-3.35-12.02-4.88-13.47-8.75-16.81-15.49-25.67-20.74-4.41-2.62-11.57-5.68-22.53-5.92-3.29,4.49-4.14,5.92-4,6.08.3.37-.14-.02,0,0,14.27,1.65,23.92,9.11,23.92,9.11,19.15,15.12,28.72,22.68,40.2,23.66,6.74.58,5.67-1.65,20.39-2.3,7.65-.34,23.19-.4,25.03-.34t2.93-10.02Z"/>
    <path class="st1" d="M186.58,213.06c-17.63,1.82-29.93,3.43-37.78,4.99-1.62.32-5.5,1.13-10.44.36-5.65-.88-9.67-3.35-12.02-4.88-13.47-8.75-16.81-15.49-25.67-20.74-4.41-2.62-11.57-5.68-22.53-5.92-3.29,4.49-4.14,5.92-4,6.08.3.37-.14-.02,0,0,14.27,1.65,23.92,9.11,23.92,9.11,19.15,15.12,28.72,22.68,40.2,23.66,6.74.58,5.67-1.65,20.39-2.3,7.65-.34,23.19-.4,25.03-.34t2.93-10.02Z"/>
    <path class="st1" d="M516.02,109.81c-17.64-1.64-30.02-2.45-38.03-2.45-1.65,0-5.62.04-10.31-1.68-5.37-1.96-8.84-5.17-10.84-7.13-11.52-11.21-13.48-18.46-21.15-25.34-3.82-3.42-10.25-7.82-20.95-10.19-4.1,3.76-5.21,5-5.11,5.18.22.42-.13-.04,0,0,13.68,4.39,21.69,13.58,21.69,13.58,15.84,18.55,23.77,27.83,34.83,31.03,6.5,1.88,5.89-.52,20.44,1.71,7.57,1.16,22.83,4.12,24.61,4.53t4.82-9.26Z"/>
    <path class="st1" d="M556.18,215.98c-17.72-.05-30.12.26-38.1.99-1.64.15-5.59.54-10.42-.74-5.53-1.47-9.27-4.35-11.44-6.12-12.48-10.12-15.09-17.18-23.35-23.33-4.11-3.07-10.91-6.87-21.78-8.26-3.75,4.12-4.74,5.45-4.62,5.62.26.4-.14-.03,0,0,14.02,3.14,22.83,11.58,22.83,11.58,17.45,17.05,26.18,25.58,37.48,27.77,6.64,1.29,5.82-1.04,20.51-.14,7.64.47,23.11,2.05,24.92,2.3t3.97-9.66Z"/>
    <path class="st1" d="M317.71,256.41c-16.92,5.26-28.66,9.26-36.06,12.34-1.52.63-5.17,2.19-10.17,2.41-5.71.25-10.14-1.38-12.75-2.41-14.94-5.93-19.54-11.87-29.26-15.28-4.84-1.69-12.46-3.29-23.25-1.36-2.34,5.05-2.89,6.62-2.73,6.75.37.3-.14.01,0,0,14.32-1.2,25.24,4.21,25.24,4.21,21.75,11.05,32.63,16.57,44.08,15.28,6.72-.76,5.24-2.74,19.53-6.27,7.43-1.84,22.66-4.96,24.47-5.27t.89-10.4Z"/>
    <path class="st1" d="M451.37,246.93c-16.57,6.29-28.04,11.01-35.23,14.54-1.48.73-5.03,2.51-10,3.03-5.69.6-10.21-.76-12.87-1.63-15.27-5-20.23-10.65-30.14-13.45-4.93-1.39-12.64-2.52-23.29.07-2.03,5.19-2.48,6.78-2.31,6.9.39.28-.14.02,0,0,14.22-2.08,25.46,2.65,25.46,2.65,22.39,9.69,33.59,14.53,44.93,12.54,6.66-1.17,5.06-3.05,19.11-7.46,7.31-2.29,22.31-6.35,24.1-6.76t.25-10.44Z"/>
    <path class="st1" d="M334.6,125.29c17.5,2.79,29.8,4.41,37.79,4.93,1.65.11,5.61.33,10.18,2.35,5.23,2.31,8.48,5.74,10.36,7.82,10.76,11.94,12.24,19.31,19.45,26.67,3.59,3.67,9.71,8.48,20.24,11.54,4.34-3.49,5.52-4.65,5.44-4.84-.2-.43.13.05,0,0-13.37-5.28-20.76-14.97-20.76-14.97-14.6-19.55-21.89-29.32-32.72-33.24-6.36-2.3-5.91.13-20.29-3.05-7.48-1.65-22.51-5.6-24.26-6.14t-5.42,8.93Z"/>
    <path class="st1" d="M323.33,35.24c-16.61,6.18-28.11,10.83-35.32,14.31-1.49.72-5.04,2.47-10.02,2.97-5.69.57-10.2-.82-12.86-1.71-15.24-5.09-20.16-10.78-30.06-13.64-4.93-1.43-12.63-2.6-23.29-.08-2.06,5.17-2.52,6.76-2.35,6.89.38.28-.14.02,0,0,14.23-1.99,25.44,2.82,25.44,2.82,22.33,9.83,33.49,14.75,44.85,12.83,6.67-1.13,5.08-3.02,19.16-7.34,7.32-2.24,22.35-6.2,24.14-6.6t.32-10.44Z"/>
    <path class="st1" d="M223.94,103.11c-16.2,7.19-27.4,12.53-34.38,16.44-1.44.81-4.88,2.78-9.82,3.58-5.64.91-10.24-.2-12.94-.92-15.52-4.15-20.78-9.53-30.83-11.78-5-1.12-12.76-1.82-23.25,1.34-1.74,5.29-2.1,6.91-1.93,7.02.4.26-.14.03,0,0,14.08-2.85,25.56,1.26,25.56,1.26,22.89,8.45,34.33,12.67,45.55,10.06,6.59-1.53,4.88-3.33,18.67-8.49,7.17-2.69,21.93-7.56,23.69-8.07t-.32-10.44Z"/>
    <path class="st1" d="M162.91,177.48s-25.29,13.62-111.48,4.32c0,0-4.58,5.28-2.2,6.94.39.27-.14.02,0,0,3.02-.49,48.58,8.01,113.6-.82,3.45-.47.06-6.96.09-10.44Z"/>
    <path class="st1" d="M532.84,106.64s-16.29,23.66-97.23,54.71c0,0-1.66,6.79,1.21,7.18.47.06-.11.08,0,0,2.46-1.81,46.89-15.04,100.71-52.55,2.86-1.99-3.13-6.22-4.69-9.33Z"/>
    <path class="st1" d="M373.18,266.57s-27.94,6.65-108.84-24.52c0,0-5.78,3.92-3.91,6.14.31.36-.14-.01,0,0,3.04.3,44.88,20.25,109.98,28.45,3.45.44,1.85-6.71,2.77-10.07Z"/>
    <path class="st1" d="M326.21,78.65c-3.99,4.61-10.33,10.59-19.5,14.15-11.66,4.53-21.49,2.64-27.74,2.39-12.44-.52-30.44,4.57-54.18,29.96-.65,1.44-.67,2.67-.76,3.39-.2,1.74-.05,3.55,1.37,3.86.42.09-.01.08-.02.02,0,0,0,0,.02-.02.08-.05,1.3,1.05,1.43,1.14,2.03,1.54,20.17-26,38.36-28.84,2.85-.44,12.14-1.29,15.18-1.55,12.68-1.09,11.63-.48,16.84-1.15,0,0,14.46-1.86,32.9-13.67.15-.1.5-.32-3.9-9.69Z"/>
    <path class="st1" d="M390.84,256.31c3.71-4.85,9.68-11.19,18.61-15.29,11.37-5.22,21.29-3.93,27.55-4.05,12.45-.23,30.11-6.38,52.28-33.15.57-1.48.51-2.71.55-3.43.1-1.74-.17-3.54-1.6-3.77-.42-.07,0-.08.02-.02,0,0,0,0-.02.02-.08.06-1.36-.97-1.5-1.06-2.11-1.41-18.57,27.17-36.56,31.08-2.82.61-12.04,2.01-15.06,2.45-12.6,1.84-11.58,1.18-16.74,2.16,0,0-14.33,2.73-32.02,15.62-.14.1-.48.35,4.47,9.44Z"/>
    <path class="st1" d="M167.47,244.56c17.39-3.39,29.5-6.09,37.19-8.35,1.58-.47,5.38-1.62,10.37-1.29,5.71.37,9.93,2.48,12.41,3.79,14.2,7.51,18.13,13.93,27.43,18.37,4.63,2.21,12.03,4.62,22.97,3.88,2.88-4.77,3.59-6.26,3.45-6.41-.33-.34.14,0,0,0-14.36-.37-24.64-6.93-24.64-6.93-20.42-13.35-30.64-20.02-42.15-19.98-6.76.02-5.5,2.15-20.1,4.11-7.59,1.02-23.06,2.47-24.9,2.57t-2.02,10.25Z"/>
  </g>
</svg>