<?xml version="1.0" encoding="UTF-8"?>
<svg id="Calque_2" data-name="Calque 2" xmlns="http://www.w3.org/2000/svg" viewBox="0 0 741.59 574.7">
  <defs>
    <style>
      .cls-1 {
        fill: #ff9677;
      }

      .cls-1, .cls-2 {
        stroke: #000;
        stroke-miterlimit: 10;
        stroke-width: 3px;
      }

      .cls-2 {
        fill: #ffb977;
      }
    </style>
  </defs>
  <g>
    <path class="cls-1" d="M475.08,276.98s-.56-9.17-2.78-10c0,0-35.29-21.12-46.96,19.17,0,0-17.23,15.56-38.07-1.95,0,0-6.39-3.88-8.06-7.22,0,0-13.62-11.67-26.95-3.62,0,0-15.84-1.38-33.62,3.62,0,0-18.34,4.73-21.4,0,0,0-7.22-.56-15.28,1.38,0,0-20.56-3.89-35.01.83,0,0-14.73-4.17-26.68,3.33,0,0-40.85,11.95-40.01,16.12,0,0-21.67,14.17-8.61,61.13,0,0,13.89,42.51,18.62,45.01,0,0,5,9.17,11.95,8.61,0,0,5.28-5.56,45.57-3.89,0,0,49.74-16.95,64.46-15.56,0,0,36.12-12.5,63.08-8.34,0,0,72.8-7.22,81.14-15.84,0,0,26.95-8.61,34.73-.28,0,0,26.4.28,18.06-30.84,0,0-5.56-28.9-16.67-30.57,0,0-8.34-24.45-17.51-31.12Z"/>
    <path class="cls-2" d="M503.96,321.16c7.01,37.52-136.73,28.9-136.73,28.9-134.21-31.95-186.77,34.65-186.77,34.65l-7.24-20.26s17.29-66.62,138.44-46.06c0,0,165.16,11.75,175.25-24.13l5.69,13.85s9.45,2.78,11.37,13.06Z"/>
  </g>
  <g>
    <path class="cls-1" d="M704.29,106.97s-.56-9.17-2.78-10c0,0-35.29-21.12-46.96,19.17,0,0-17.23,15.56-38.07-1.95,0,0-6.39-3.88-8.06-7.22,0,0-13.62-11.67-26.95-3.62,0,0-15.84-1.38-33.62,3.62,0,0-18.34,4.73-21.4,0,0,0-7.22-.56-15.28,1.38,0,0-20.56-3.89-35.01.83,0,0-14.73-4.17-26.68,3.33,0,0-40.85,11.95-40.01,16.12,0,0-21.67,14.17-8.61,61.13,0,0,13.89,42.51,18.62,45.01,0,0,5,9.17,11.95,8.61,0,0,5.28-5.56,45.57-3.89,0,0,49.74-16.95,64.46-15.56,0,0,36.12-12.5,63.08-8.34,0,0,72.8-7.22,81.14-15.84,0,0,26.95-8.61,34.73-.28,0,0,26.4.28,18.06-30.84,0,0-5.56-28.9-16.67-30.57,0,0-8.34-24.45-17.51-31.12Z"/>
    <path class="cls-2" d="M733.16,151.15c7.01,37.52-136.73,28.9-136.73,28.9-134.21-31.95-186.77,34.65-186.77,34.65l-7.24-20.26s17.29-66.62,138.44-46.06c0,0,165.16,11.75,175.25-24.13l5.69,13.85s9.45,2.78,11.37,13.06Z"/>
  </g>
  <g>
    <path class="cls-1" d="M703.82,400.24s-.56-9.17-2.78-10c0,0-35.29-21.12-46.96,19.17,0,0-17.23,15.56-38.07-1.95,0,0-6.39-3.88-8.06-7.22,0,0-13.62-11.67-26.95-3.62,0,0-15.84-1.38-33.62,3.62,0,0-18.34,4.73-21.4,0,0,0-7.22-.56-15.28,1.38,0,0-20.56-3.89-35.01.83,0,0-14.73-4.17-26.68,3.33,0,0-40.85,11.95-40.01,16.12,0,0-21.67,14.17-8.61,61.13,0,0,13.89,42.51,18.62,45.01,0,0,5,9.17,11.95,8.61,0,0,5.28-5.56,45.57-3.89,0,0,49.74-16.95,64.46-15.56,0,0,36.12-12.5,63.08-8.34,0,0,72.8-7.22,81.14-15.84,0,0,26.95-8.61,34.73-.28,0,0,26.4.28,18.06-30.84,0,0-5.56-28.9-16.67-30.57,0,0-8.34-24.45-17.51-31.12Z"/>
    <path class="cls-2" d="M732.69,444.42c7.01,37.52-136.73,28.9-136.73,28.9-134.21-31.95-186.77,34.65-186.77,34.65l-7.24-20.26s17.29-66.62,138.44-46.06c0,0,165.16,11.75,175.25-24.13l5.69,13.85s9.45,2.78,11.37,13.06Z"/>
  </g>
  <g>
    <path class="cls-1" d="M309.11,124.99s-.56-9.17-2.78-10c0,0-35.29-21.12-46.96,19.17,0,0-17.23,15.56-38.07-1.95,0,0-6.39-3.88-8.06-7.22,0,0-13.62-11.67-26.95-3.62,0,0-15.84-1.38-33.62,3.62,0,0-18.34,4.73-21.4,0,0,0-7.22-.56-15.28,1.38,0,0-20.56-3.89-35.01.83,0,0-14.73-4.17-26.68,3.33,0,0-40.85,11.95-40.01,16.12,0,0-21.67,14.17-8.61,61.13,0,0,13.89,42.51,18.62,45.01,0,0,5,9.17,11.95,8.61,0,0,5.28-5.56,45.57-3.89,0,0,49.74-16.95,64.46-15.56,0,0,36.12-12.5,63.08-8.34,0,0,72.8-7.22,81.14-15.84,0,0,26.95-8.61,34.73-.28,0,0,26.4.28,18.06-30.84,0,0-5.56-28.9-16.67-30.57,0,0-8.34-24.45-17.51-31.12Z"/>
    <path class="cls-2" d="M337.99,169.17c7.01,37.52-136.73,28.9-136.73,28.9C67.05,166.11,14.48,232.71,14.48,232.71l-7.24-20.26s17.29-66.62,138.44-46.06c0,0,165.16,11.75,175.25-24.13l5.69,13.85s9.45,2.78,11.37,13.06Z"/>
  </g>
</svg>