<?xml version="1.0" encoding="UTF-8"?>
<svg id="Calque_2" data-name="Calque 2" xmlns="http://www.w3.org/2000/svg" viewBox="0 0 746.08 574.7">
  <defs>
    <style>
      .cls-1 {
        fill: #6f8800;
        stroke: #000;
        stroke-miterlimit: 10;
        stroke-width: 3px;
      }
    </style>
  </defs>
  <path class="cls-1" d="M253.47,156.45s-7.42,43.73-32.29,37.49c-24.87-6.24,18.29-1.56-10.83-6.76-29.12-5.2-36.13,2.43-47.96-16.46s-31.07-10.05-6.63-39.17c24.44-29.12-17.68-61.87,21.32-39.52,39,22.36,1.04-1.04,37.96,4.16,36.92,5.2,31.2-23.4,58.75-.52s35.36-3.12,42.64,15.6c7.28,18.72,14.56,41.08-7.8,42.12-22.36,1.04-28.14,25.36-55.15,3.06Z"/>
  <path class="cls-1" d="M222.83,113.35c-31.72,8.32-29.12,18.2-29.12,18.2,0,0-19.24-11.96-19.76,0s-18.2-.52-20.28,17.16,22.36,8.84,26.52,13.52-8.32,9.88,24.44,7.28c32.76-2.6,6.76,5.2,42.64-15.08,35.88-20.28,19.76-8.84,22.88-23.4,3.12-14.56-47.32-17.68-47.32-17.68Z"/>
  <path class="cls-1" d="M258.18,103.99c-19.76,15.6-46.8,22.88-24.96,26,21.84,3.12-7.8-3.67,10.92,8.05,18.72,11.71,29.64,16.39,40.04,7.03,10.4-9.36,19.76,1.86,5.72-18.05s-22.53-29.76-28.84-25.11c-6.31,4.66-2.88,2.08-2.88,2.08Z"/>
  <path class="cls-1" d="M111.02,280.24s-7.42,43.73-32.29,37.49c-24.87-6.24,18.29-1.56-10.83-6.76-29.12-5.2-36.13,2.43-47.96-16.46s-31.07-10.05-6.63-39.17c24.44-29.12-17.68-61.87,21.32-39.52s1.04-1.04,37.96,4.16c36.92,5.2,31.2-23.4,58.75-.52s35.36-3.12,42.64,15.6c7.28,18.72,14.56,41.08-7.8,42.12-22.36,1.04-28.14,25.36-55.15,3.06Z"/>
  <path class="cls-1" d="M80.37,237.15c-31.72,8.32-29.12,18.2-29.12,18.2,0,0-19.24-11.96-19.76,0s-18.2-.52-20.28,17.16c-2.08,17.68,22.36,8.84,26.52,13.52s-8.32,9.88,24.44,7.28c32.76-2.6,6.76,5.2,42.64-15.08,35.88-20.28,19.76-8.84,22.88-23.4,3.12-14.56-47.32-17.68-47.32-17.68Z"/>
  <path class="cls-1" d="M115.73,227.79c-19.76,15.6-46.8,22.88-24.96,26,21.84,3.12-7.8-3.67,10.92,8.05,18.72,11.71,29.64,16.39,40.04,7.03,10.4-9.36,19.76,1.86,5.72-18.05-14.04-19.91-22.53-29.76-28.84-25.11s-2.88,2.08-2.88,2.08Z"/>
  <path class="cls-1" d="M174.23,404.04s-7.42,43.73-32.29,37.49c-24.87-6.24,18.29-1.56-10.83-6.76s-36.13,2.43-47.96-16.46-31.07-10.05-6.63-39.17c24.44-29.12-17.68-61.87,21.32-39.52,39,22.36,1.04-1.04,37.96,4.16,36.92,5.2,31.2-23.4,58.75-.52s35.36-3.12,42.64,15.6c7.28,18.72,14.56,41.08-7.8,42.12-22.36,1.04-28.14,25.36-55.15,3.06Z"/>
  <path class="cls-1" d="M143.59,360.94c-31.72,8.32-29.12,18.2-29.12,18.2,0,0-19.24-11.96-19.76,0s-18.2-.52-20.28,17.16c-2.08,17.68,22.36,8.84,26.52,13.52s-8.32,9.88,24.44,7.28c32.76-2.6,6.76,5.2,42.64-15.08s19.76-8.84,22.88-23.4c3.12-14.56-47.32-17.68-47.32-17.68Z"/>
  <path class="cls-1" d="M178.94,351.58c-19.76,15.6-46.8,22.88-24.96,26,21.84,3.12-7.8-3.67,10.92,8.05,18.72,11.71,29.64,16.39,40.04,7.03,10.4-9.36,19.76,1.86,5.72-18.05-14.04-19.91-22.53-29.76-28.84-25.11-6.31,4.66-2.88,2.08-2.88,2.08Z"/>
  <path class="cls-1" d="M301.18,287.19s-7.42,43.73-32.29,37.49c-24.87-6.24,18.29-1.56-10.83-6.76-29.12-5.2-36.13,2.43-47.96-16.46-11.83-18.89-31.07-10.05-6.63-39.17,24.44-29.12-17.68-61.87,21.32-39.52s1.04-1.04,37.96,4.16c36.92,5.2,31.2-23.4,58.75-.52,27.56,22.88,35.36-3.12,42.64,15.6,7.28,18.72,14.56,41.08-7.8,42.12-22.36,1.04-28.14,25.36-55.15,3.06Z"/>
  <path class="cls-1" d="M270.54,244.09c-31.72,8.32-29.12,18.2-29.12,18.2,0,0-19.24-11.96-19.76,0s-18.2-.52-20.28,17.16c-2.08,17.68,22.36,8.84,26.52,13.52s-8.32,9.88,24.44,7.28c32.76-2.6,6.76,5.2,42.64-15.08s19.76-8.84,22.88-23.4c3.12-14.56-47.32-17.68-47.32-17.68Z"/>
  <path class="cls-1" d="M305.89,234.73c-19.76,15.6-46.8,22.88-24.96,26,21.84,3.12-7.8-3.67,10.92,8.05s29.64,16.39,40.04,7.03c10.4-9.36,19.76,1.86,5.72-18.05-14.04-19.91-22.53-29.76-28.84-25.11-6.31,4.66-2.88,2.08-2.88,2.08Z"/>
  <path class="cls-1" d="M406.52,389.86s-7.42,43.73-32.29,37.49c-24.87-6.24,18.29-1.56-10.83-6.76-29.12-5.2-36.13,2.43-47.96-16.46-11.83-18.89-31.07-10.05-6.63-39.17,24.44-29.12-17.68-61.87,21.32-39.52s1.04-1.04,37.96,4.16c36.92,5.2,31.2-23.4,58.75-.52,27.56,22.88,35.36-3.12,42.64,15.6,7.28,18.72,14.56,41.08-7.8,42.12-22.36,1.04-28.14,25.36-55.15,3.06Z"/>
  <path class="cls-1" d="M375.88,346.76c-31.72,8.32-29.12,18.2-29.12,18.2,0,0-19.24-11.96-19.76,0s-18.2-.52-20.28,17.16c-2.08,17.68,22.36,8.84,26.52,13.52s-8.32,9.88,24.44,7.28c32.76-2.6,6.76,5.2,42.64-15.08,35.88-20.28,19.76-8.84,22.88-23.4,3.12-14.56-47.32-17.68-47.32-17.68Z"/>
  <path class="cls-1" d="M411.24,337.4c-19.76,15.6-46.8,22.88-24.96,26,21.84,3.12-7.8-3.67,10.92,8.05s29.64,16.39,40.04,7.03c10.4-9.36,19.76,1.86,5.72-18.05-14.04-19.91-22.53-29.76-28.84-25.11-6.31,4.66-2.88,2.08-2.88,2.08Z"/>
  <path class="cls-1" d="M459.73,142.26s-7.42,43.73-32.29,37.49c-24.87-6.24,18.29-1.56-10.83-6.76-29.12-5.2-36.13,2.43-47.96-16.46-11.83-18.89-31.07-10.05-6.63-39.17,24.44-29.12-17.68-61.87,21.32-39.52s1.04-1.04,37.96,4.16c36.92,5.2,31.2-23.4,58.75-.52,27.56,22.88,35.36-3.12,42.64,15.6,7.28,18.72,14.56,41.08-7.8,42.12-22.36,1.04-28.14,25.36-55.15,3.06Z"/>
  <path class="cls-1" d="M429.08,99.16c-31.72,8.32-29.12,18.2-29.12,18.2,0,0-19.24-11.96-19.76,0s-18.2-.52-20.28,17.16c-2.08,17.68,22.36,8.84,26.52,13.52s-8.32,9.88,24.44,7.28c32.76-2.6,6.76,5.2,42.64-15.08s19.76-8.84,22.88-23.4c3.12-14.56-47.32-17.68-47.32-17.68Z"/>
  <path class="cls-1" d="M464.44,89.8c-19.76,15.6-46.8,22.88-24.96,26,21.84,3.12-7.8-3.67,10.92,8.05s29.64,16.39,40.04,7.03c10.4-9.36,19.76,1.86,5.72-18.05-14.04-19.91-22.53-29.76-28.84-25.11-6.31,4.66-2.88,2.08-2.88,2.08Z"/>
  <path class="cls-1" d="M517.97,266.06s-7.42,43.73-32.29,37.49c-24.87-6.24,18.29-1.56-10.83-6.76-29.12-5.2-36.13,2.43-47.96-16.46-11.83-18.89-31.07-10.05-6.63-39.17,24.44-29.12-17.68-61.87,21.32-39.52s1.04-1.04,37.96,4.16c36.92,5.2,31.2-23.4,58.75-.52,27.56,22.88,35.36-3.12,42.64,15.6,7.28,18.72,14.56,41.08-7.8,42.12-22.36,1.04-28.14,25.36-55.15,3.06Z"/>
  <path class="cls-1" d="M487.32,222.96c-31.72,8.32-29.12,18.2-29.12,18.2,0,0-19.24-11.96-19.76,0s-18.2-.52-20.28,17.16c-2.08,17.68,22.36,8.84,26.52,13.52s-8.32,9.88,24.44,7.28c32.76-2.6,6.76,5.2,42.64-15.08s19.76-8.84,22.88-23.4c3.12-14.56-47.32-17.68-47.32-17.68Z"/>
  <path class="cls-1" d="M522.68,213.6c-19.76,15.6-46.8,22.88-24.96,26,21.84,3.12-7.8-3.67,10.92,8.05s29.64,16.39,40.04,7.03c10.4-9.36,19.76,1.86,5.72-18.05-14.04-19.91-22.53-29.76-28.84-25.11-6.31,4.66-2.88,2.08-2.88,2.08Z"/>
</svg>