<?xml version="1.0" encoding="UTF-8"?>
<svg id="Calque_2" data-name="Calque 2" xmlns="http://www.w3.org/2000/svg" viewBox="0 0 604.54 574.7">
  <defs>
    <style>
      .cls-1 {
        fill: #fffae1;
      }

      .cls-1, .cls-2 {
        stroke: #000;
        stroke-miterlimit: 10;
        stroke-width: 3px;
      }

      .cls-2 {
        fill: #774d00;
      }
    </style>
  </defs>
  <path class="cls-2" d="M229.85,304.58s6.19-73.22,96.93-73.22,93.84,73.22,93.84,73.22c0,0,8.25,14.44-95.39,14.44s-95.39-14.44-95.39-14.44Z"/>
  <path class="cls-1" d="M341.51,319.01c7.22,55.68,0,55.68,0,55.68,0,0-26.81,6.19-33,0-6.19-6.19,0-55.68,0-55.68h33Z"/>
  <path class="cls-2" d="M383.94,397.78s6.19-73.22,96.93-73.22,93.84,73.22,93.84,73.22c0,0,8.25,14.44-95.39,14.44s-95.39-14.44-95.39-14.44Z"/>
  <path class="cls-1" d="M495.6,412.22c7.22,55.68,0,55.68,0,55.68,0,0-26.81,6.19-33,0s0-55.68,0-55.68h33Z"/>
  <path class="cls-2" d="M412.11,231.53s6.19-73.22,96.93-73.22,93.84,73.22,93.84,73.22c0,0,8.25,14.44-95.39,14.44s-95.39-14.44-95.39-14.44Z"/>
  <path class="cls-1" d="M523.77,245.97c7.22,55.68,0,55.68,0,55.68,0,0-26.81,6.19-33,0s0-55.68,0-55.68h33Z"/>
  <path class="cls-2" d="M172.64,485.43s6.19-73.22,96.93-73.22,93.84,73.22,93.84,73.22c0,0,8.25,14.44-95.39,14.44s-95.39-14.44-95.39-14.44Z"/>
  <path class="cls-1" d="M284.29,499.87c7.22,55.68,0,55.68,0,55.68,0,0-26.81,6.19-33,0s0-55.68,0-55.68h33Z"/>
  <path class="cls-2" d="M256.89,143.04s6.19-73.22,96.93-73.22,93.84,73.22,93.84,73.22c0,0,8.25,14.44-95.39,14.44s-95.39-14.44-95.39-14.44Z"/>
  <path class="cls-1" d="M368.55,157.48c7.22,55.68,0,55.68,0,55.68,0,0-26.81,6.19-33,0-6.19-6.19,0-55.68,0-55.68h33Z"/>
  <path class="cls-2" d="M27.07,368.56s6.19-73.22,96.93-73.22,93.84,73.22,93.84,73.22c0,0,8.25,14.44-95.39,14.44s-95.39-14.44-95.39-14.44Z"/>
  <path class="cls-1" d="M138.73,383c7.22,55.68,0,55.68,0,55.68,0,0-26.81,6.19-33,0s0-55.68,0-55.68h33Z"/>
  <path class="cls-2" d="M51.72,173.1s6.19-73.22,96.93-73.22,93.84,73.22,93.84,73.22c0,0,8.25,14.44-95.39,14.44s-95.39-14.44-95.39-14.44Z"/>
  <path class="cls-1" d="M163.38,187.53c7.22,55.68,0,55.68,0,55.68,0,0-26.81,6.19-33,0s0-55.68,0-55.68h33Z"/>
</svg>