<?xml version="1.0" encoding="UTF-8"?>
<svg id="Calque_2" data-name="Calque 2" xmlns="http://www.w3.org/2000/svg" viewBox="0 0 1080 1080">
  <defs>
    <style>
      .cls-1 {
        fill: #ff9d00;
      }

      .cls-1, .cls-2 {
        stroke: #000;
        stroke-miterlimit: 10;
        stroke-width: 3px;
      }

      .cls-2 {
        fill: #fff;
        opacity: .4;
      }
    </style>
  </defs>
  <g>
    <path class="cls-1" d="M418.28,764.81s-42.84-27.19-55.68-42.29c0,0-29.45-15.86-39.27,3.78,0,0-65.91,80.05,47.47,151.8,0,0,75.63,42.29,138.31-10.57,0,0,61.17-67.21,12.84-93.65,0,0-11.33-6.8-15.1-4.53,0,0-29.45-1.51-40.03,3.02,0,0-32.59,3.02-48.54-7.55Z"/>
    <path class="cls-2" d="M506.85,769.34l-14.54,15.29c-6.8-15.48-19.26,43.42-19.64,30.96-.02-.64-.09-1.26-.2-1.85-2.07-10.99-19.06-14.39-19.06-14.39-9.06-1.51-8.68,25.68-8.68,25.68,0,0-5.66-6.42-5.1-23.03s-15.29-8.68-15.29-8.68c7.93-7.93-13.97-6-13.97-6-1.89-8.27-23.34-3.44-23.34-3.44,4.61-6.42-6.12-7.94-6.12-7.94-9.82,4.14-18.88-1.12-18.88-1.12,2.64,4.91,21.9-7.93,21.9-7.93,11.71-.38-13.57-36.71-13.57-36.71,0,0,43.42,32.17,47.91,34.63,0,0,5.18,10.93,48.54,7.55,0,0,13.03-3.96,40.03-3.02Z"/>
  </g>
  <g>
    <path class="cls-1" d="M493.97,603.8s-42.84-27.19-55.68-42.29c0,0-29.45-15.86-39.27,3.78,0,0-65.91,80.05,47.47,151.8,0,0,75.63,42.29,138.31-10.57,0,0,61.17-67.21,12.84-93.65,0,0-11.33-6.8-15.1-4.53,0,0-29.45-1.51-40.03,3.02,0,0-32.59,3.02-48.54-7.55Z"/>
    <path class="cls-2" d="M582.54,608.33l-14.54,15.29c-6.8-15.48-19.26,43.42-19.64,30.96-.02-.64-.09-1.26-.2-1.85-2.07-10.99-19.06-14.39-19.06-14.39-9.06-1.51-8.68,25.68-8.68,25.68,0,0-5.66-6.42-5.1-23.03.57-16.61-15.29-8.68-15.29-8.68,7.93-7.93-13.97-6-13.97-6-1.89-8.27-23.34-3.44-23.34-3.44,4.61-6.42-6.12-7.94-6.12-7.94-9.82,4.14-18.88-1.12-18.88-1.12,2.64,4.91,21.9-7.93,21.9-7.93,11.71-.38-13.57-36.71-13.57-36.71,0,0,43.42,32.17,47.91,34.63,0,0,5.18,10.93,48.54,7.55,0,0,13.03-3.96,40.03-3.02Z"/>
  </g>
  <g>
    <path class="cls-1" d="M228.32,603.8s-42.84-27.19-55.68-42.29c0,0-29.45-15.86-39.27,3.78,0,0-65.91,80.05,47.47,151.8,0,0,75.63,42.29,138.31-10.57,0,0,61.17-67.21,12.84-93.65,0,0-11.33-6.8-15.1-4.53,0,0-29.45-1.51-40.03,3.02,0,0-32.59,3.02-48.54-7.55Z"/>
    <path class="cls-2" d="M316.89,608.33l-14.54,15.29c-6.8-15.48-19.26,43.42-19.64,30.96-.02-.64-.09-1.26-.2-1.85-2.07-10.99-19.06-14.39-19.06-14.39-9.06-1.51-8.68,25.68-8.68,25.68,0,0-5.66-6.42-5.1-23.03s-15.29-8.68-15.29-8.68c7.93-7.93-13.97-6-13.97-6-1.89-8.27-23.34-3.44-23.34-3.44,4.61-6.42-6.12-7.94-6.12-7.94-9.82,4.14-18.88-1.12-18.88-1.12,2.64,4.91,21.9-7.93,21.9-7.93,11.71-.38-13.57-36.71-13.57-36.71,0,0,43.42,32.17,47.91,34.63,0,0,5.18,10.93,48.54,7.55,0,0,13.03-3.96,40.03-3.02Z"/>
  </g>
  <g>
    <path class="cls-1" d="M754.89,737.14s-42.84-27.19-55.68-42.29c0,0-29.45-15.86-39.27,3.78,0,0-65.91,80.05,47.47,151.8,0,0,75.63,42.29,138.31-10.57,0,0,61.17-67.21,12.84-93.65,0,0-11.33-6.8-15.1-4.53,0,0-29.45-1.51-40.03,3.02,0,0-32.59,3.02-48.54-7.55Z"/>
    <path class="cls-2" d="M843.46,741.67l-14.54,15.29c-6.8-15.48-19.26,43.42-19.64,30.96-.02-.64-.09-1.26-.2-1.85-2.07-10.99-19.06-14.39-19.06-14.39-9.06-1.51-8.68,25.68-8.68,25.68,0,0-5.66-6.42-5.1-23.03.57-16.61-15.29-8.68-15.29-8.68,7.93-7.93-13.97-6-13.97-6-1.89-8.27-23.34-3.44-23.34-3.44,4.61-6.42-6.12-7.94-6.12-7.94-9.82,4.14-18.88-1.12-18.88-1.12,2.64,4.91,21.9-7.93,21.9-7.93,11.71-.38-13.57-36.71-13.57-36.71,0,0,43.42,32.17,47.91,34.63,0,0,5.18,10.93,48.54,7.55,0,0,13.03-3.96,40.03-3.02Z"/>
  </g>
  <g>
    <path class="cls-1" d="M697.13,502.84s-42.84-27.19-55.68-42.29c0,0-29.45-15.86-39.27,3.78,0,0-65.91,80.05,47.47,151.8,0,0,75.63,42.29,138.31-10.57,0,0,61.17-67.21,12.84-93.65,0,0-11.33-6.8-15.1-4.53,0,0-29.45-1.51-40.03,3.02,0,0-32.59,3.02-48.54-7.55Z"/>
    <path class="cls-2" d="M785.7,507.37l-14.54,15.29c-6.8-15.48-19.26,43.42-19.64,30.96-.02-.64-.09-1.26-.2-1.85-2.07-10.99-19.06-14.39-19.06-14.39-9.06-1.51-8.68,25.68-8.68,25.68,0,0-5.66-6.42-5.1-23.03s-15.29-8.68-15.29-8.68c7.93-7.93-13.97-6-13.97-6-1.89-8.27-23.34-3.44-23.34-3.44,4.61-6.42-6.12-7.94-6.12-7.94-9.82,4.14-18.88-1.12-18.88-1.12,2.64,4.91,21.9-7.93,21.9-7.93,11.71-.38-13.57-36.71-13.57-36.71,0,0,43.42,32.17,47.91,34.63,0,0,5.18,10.93,48.54,7.55,0,0,13.03-3.96,40.03-3.02Z"/>
  </g>
</svg>