<?xml version="1.0" encoding="UTF-8"?>
<svg id="Calque_2" data-name="Calque 2" xmlns="http://www.w3.org/2000/svg" viewBox="0 0 593.01 574.7">
  <defs>
    <style>
      .cls-1 {
        fill: #6f8800;
        opacity: .49;
        stroke-width: 3px;
      }

      .cls-1, .cls-2 {
        stroke: #6f8800;
        stroke-miterlimit: 10;
      }

      .cls-2 {
        fill: #ecff99;
        stroke-width: 6px;
      }
    </style>
  </defs>
  <g>
    <path class="cls-2" d="M190.9,223.99c-35.32,2.32-64.57,25.83-64.57,25.83,0,0-36.39,46.96-17.61,58.7,0,0-3.52,16.43,27,18.78,30.52,2.35,88.04,9.39,98.61-21.13,0,0,46.96-50.48,0-73.96,0,0-23.26-9.54-43.43-8.22Z"/>
    <path class="cls-1" d="M176.39,285.85s-19.82-40.58-26.57-19.35c-6.75,21.23,26.57,19.35,26.57,19.35Z"/>
    <path class="cls-1" d="M185.17,280.21s31.91-33.47,9.13-32.39-9.13,32.39-9.13,32.39Z"/>
    <path class="cls-1" d="M180.12,297.07s-18.66,20.2-5.12,19.35c13.54-.85,5.12-19.35,5.12-19.35Z"/>
    <path class="cls-1" d="M191.81,294.64s17.6,21.13,18.52,7.6-18.52-7.6-18.52-7.6Z"/>
  </g>
  <g>
    <path class="cls-2" d="M342.76,264.13c-35.32,2.32-64.57,25.83-64.57,25.83,0,0-36.39,46.96-17.61,58.7,0,0-3.52,16.43,27,18.78,30.52,2.35,88.04,9.39,98.61-21.13,0,0,46.96-50.48,0-73.96,0,0-23.26-9.54-43.43-8.22Z"/>
    <path class="cls-1" d="M328.25,325.99s-19.82-40.58-26.57-19.35c-6.75,21.23,26.57,19.35,26.57,19.35Z"/>
    <path class="cls-1" d="M337.03,320.36s31.91-33.47,9.13-32.39c-22.78,1.07-9.13,32.39-9.13,32.39Z"/>
    <path class="cls-1" d="M331.99,337.21s-18.66,20.2-5.12,19.35c13.54-.85,5.12-19.35,5.12-19.35Z"/>
    <path class="cls-1" d="M343.67,334.78s17.6,21.13,18.52,7.6c.92-13.53-18.52-7.6-18.52-7.6Z"/>
  </g>
  <g>
    <path class="cls-2" d="M127.5,369.96c-35.32,2.32-64.57,25.83-64.57,25.83,0,0-36.39,46.96-17.61,58.7,0,0-3.52,16.43,27,18.78s88.04,9.39,98.61-21.13c0,0,46.96-50.48,0-73.96,0,0-23.26-9.54-43.43-8.22Z"/>
    <path class="cls-1" d="M113,431.82s-19.82-40.58-26.57-19.35c-6.75,21.23,26.57,19.35,26.57,19.35Z"/>
    <path class="cls-1" d="M121.78,426.18s31.91-33.47,9.13-32.39c-22.78,1.07-9.13,32.39-9.13,32.39Z"/>
    <path class="cls-1" d="M116.73,443.04s-18.66,20.2-5.12,19.35,5.12-19.35,5.12-19.35Z"/>
    <path class="cls-1" d="M128.41,440.6s17.6,21.13,18.52,7.6c.92-13.53-18.52-7.6-18.52-7.6Z"/>
  </g>
  <g>
    <path class="cls-2" d="M297.91,393.23c-35.32,2.32-64.57,25.83-64.57,25.83,0,0-36.39,46.96-17.61,58.7,0,0-3.52,16.43,27,18.78s88.04,9.39,98.61-21.13c0,0,46.96-50.48,0-73.96,0,0-23.26-9.54-43.43-8.22Z"/>
    <path class="cls-1" d="M283.41,455.09s-19.82-40.58-26.57-19.35c-6.75,21.23,26.57,19.35,26.57,19.35Z"/>
    <path class="cls-1" d="M292.19,449.46s31.91-33.47,9.13-32.39-9.13,32.39-9.13,32.39Z"/>
    <path class="cls-1" d="M287.14,466.32s-18.66,20.2-5.12,19.35c13.54-.85,5.12-19.35,5.12-19.35Z"/>
    <path class="cls-1" d="M298.82,463.88s17.6,21.13,18.52,7.6c.92-13.53-18.52-7.6-18.52-7.6Z"/>
  </g>
  <g>
    <path class="cls-2" d="M494.62,333.61c-35.32,2.32-64.57,25.83-64.57,25.83,0,0-36.39,46.96-17.61,58.7,0,0-3.52,16.43,27,18.78,30.52,2.35,88.04,9.39,98.61-21.13,0,0,46.96-50.48,0-73.96,0,0-23.26-9.54-43.43-8.22Z"/>
    <path class="cls-1" d="M480.12,395.47s-19.82-40.58-26.57-19.35,26.57,19.35,26.57,19.35Z"/>
    <path class="cls-1" d="M488.9,389.84s31.91-33.47,9.13-32.39c-22.78,1.07-9.13,32.39-9.13,32.39Z"/>
    <path class="cls-1" d="M483.85,406.69s-18.66,20.2-5.12,19.35c13.54-.85,5.12-19.35,5.12-19.35Z"/>
    <path class="cls-1" d="M495.53,404.26s17.6,21.13,18.52,7.6c.92-13.53-18.52-7.6-18.52-7.6Z"/>
  </g>
  <g>
    <path class="cls-2" d="M525.71,182.24c-35.32,2.32-64.57,25.83-64.57,25.83,0,0-36.39,46.96-17.61,58.7,0,0-3.52,16.43,27,18.78s88.04,9.39,98.61-21.13c0,0,46.96-50.48,0-73.96,0,0-23.26-9.54-43.43-8.22Z"/>
    <path class="cls-1" d="M511.2,244.1s-19.82-40.58-26.57-19.35,26.57,19.35,26.57,19.35Z"/>
    <path class="cls-1" d="M519.98,238.47s31.91-33.47,9.13-32.39-9.13,32.39-9.13,32.39Z"/>
    <path class="cls-1" d="M514.93,255.32s-18.66,20.2-5.12,19.35c13.54-.85,5.12-19.35,5.12-19.35Z"/>
    <path class="cls-1" d="M526.62,252.89s17.6,21.13,18.52,7.6c.92-13.53-18.52-7.6-18.52-7.6Z"/>
  </g>
  <g>
    <path class="cls-2" d="M361.14,129.33c-35.32,2.32-64.57,25.83-64.57,25.83,0,0-36.39,46.96-17.61,58.7,0,0-3.52,16.43,27,18.78s88.04,9.39,98.61-21.13c0,0,46.96-50.48,0-73.96,0,0-23.26-9.54-43.43-8.22Z"/>
    <path class="cls-1" d="M346.64,191.19s-19.82-40.58-26.57-19.35c-6.75,21.23,26.57,19.35,26.57,19.35Z"/>
    <path class="cls-1" d="M355.42,185.55s31.91-33.47,9.13-32.39-9.13,32.39-9.13,32.39Z"/>
    <path class="cls-1" d="M350.37,202.41s-18.66,20.2-5.12,19.35c13.54-.85,5.12-19.35,5.12-19.35Z"/>
    <path class="cls-1" d="M362.05,199.98s17.6,21.13,18.52,7.6-18.52-7.6-18.52-7.6Z"/>
  </g>
</svg>