<?xml version="1.0" encoding="UTF-8"?>
<svg id="Calque_2" data-name="Calque 2" xmlns="http://www.w3.org/2000/svg" viewBox="0 0 1227.56 630">
  <defs>
    <style>
      .cls-1 {
        fill: #fffbd4;
      }

      .cls-1, .cls-2, .cls-3, .cls-4 {
        stroke: #000;
        stroke-miterlimit: 10;
        stroke-width: 3px;
      }

      .cls-2 {
        fill: #ff7a00;
      }

      .cls-3 {
        fill: #fffbe3;
      }

      .cls-4 {
        fill: none;
      }
    </style>
  </defs>
  <g>
    <path class="cls-4" d="M663.14,412.49s2.37,10.67-7.51,19.76c0,0,5.14,37.63-3.95,38.57,0,0-12.65,3.32-14.23-10.52,0,0-6.23-8.69-6.72-8.69-3.16,0-13.44,7.11-8.3-7.11l1.19-11.86s-15.02,8.3-18.97-15.41c0,0-15.81-28.85,6.32-32.8,0,0,2.37-15.41,16.2-10.67,0,0,37.54-37.94,83.78-16.2,0,0,18.57,3.95,15.02,12.25,0,0,17.39-9.48,36.36,57.7,0,0-4.74,30.43-7.11,32.4,0,0,3.56,25.29-22.52,57.3,0,0-56.51,50.58-77.85,47.42,0,0-16.6-1.98-9.48-13.04,0,0,56.11-54.14,63.62-48.21,0,0-10.67-18.04,5.14-45.57,0,0-1.98-28.72,1.19-27.93,0,0-5.93-14.62-15.81-17.39,0,0-17.72,2.37-18.74-1.98,0,0-14.46,8.69-17.62,1.98Z"/>
    <path class="cls-2" d="M712.22,461.32s43.05-9.3,43-1.41c0,0,1.58,32.01-22.52,57.3,0,0-51.28,43.49-60.22,43.09,0,0-31.86,14.22-27.12-8.71,0,0,47.42-47.03,63.62-48.21,0,0-8.93-18.92,3.24-42.06Z"/>
    <path class="cls-4" d="M649.13,563.1s71.31-37.19,59.85-56.95"/>
    <path class="cls-4" d="M687.43,551.93s24.32-26.02,26.69-31.95"/>
    <path class="cls-3" d="M663.14,412.49c-.98-5.86-15.81-22.52-15.81-22.52,0,0-6.72-7.9-15.02-7.9s-5.14-8.3-5.14-8.3c0,0-13.44-3.95-16.2,10.67,0,0-20.55,1.58-6.32,32.8,0,0,4.35,23.71,18.97,15.41l-1.19,11.86s-7.11,13.83,8.3,7.11l6.72,8.69s1.58,13.52,14.23,10.52c0,0,8.44-.29,3.95-38.57,0,0,9.48-7.9,7.51-19.76Z"/>
    <path class="cls-1" d="M663.14,412.49c-.48-4.34-15.81-22.52-15.81-22.52-5.34-6.31-15.02-7.9-15.02-7.9-8.69.4-5.14-8.3-5.14-8.3,0,0,36.75-36.75,83.78-16.2,0,0,18.57,3.56,15.02,12.25,0,0,16.2-10.67,36.36,57.7,0,0-3.95,28.85-7.11,32.4,0,0,.95-7.46-43,1.41l1.9-3.51s-2.37-23.19,1.19-27.93c0,0-5.53-13.44-15.81-17.39,0,0-14.56,3.16-18.74-1.98,0,0-16.83,9.09-17.62,1.98Z"/>
  </g>
  <g>
    <path class="cls-4" d="M917.6,371.26s2.37,10.67-7.51,19.76c0,0,5.14,37.63-3.95,38.57,0,0-12.65,3.32-14.23-10.52,0,0-6.23-8.69-6.72-8.69-3.16,0-13.44,7.11-8.3-7.11l1.19-11.86s-15.02,8.3-18.97-15.41c0,0-15.81-28.85,6.32-32.8,0,0,2.37-15.41,16.2-10.67,0,0,37.54-37.94,83.78-16.2,0,0,18.57,3.95,15.02,12.25,0,0,17.39-9.48,36.36,57.7,0,0-4.74,30.43-7.11,32.4,0,0,3.56,25.29-22.52,57.3,0,0-56.51,50.58-77.85,47.42,0,0-16.6-1.98-9.48-13.04,0,0,56.11-54.14,63.62-48.21,0,0-10.67-18.04,5.14-45.57,0,0-1.98-28.72,1.19-27.93,0,0-5.93-14.62-15.81-17.39,0,0-17.72,2.37-18.74-1.98,0,0-14.46,8.69-17.62,1.98Z"/>
    <path class="cls-2" d="M966.68,420.08s43.05-9.3,43-1.41c0,0,1.58,32.01-22.52,57.3,0,0-51.28,43.49-60.22,43.09,0,0-31.86,14.22-27.12-8.71,0,0,47.42-47.03,63.62-48.21,0,0-8.93-18.92,3.24-42.06Z"/>
    <path class="cls-4" d="M903.59,521.86s71.31-37.19,59.85-56.95"/>
    <path class="cls-4" d="M941.88,510.7s24.32-26.02,26.69-31.95"/>
    <path class="cls-3" d="M917.6,371.26c-.98-5.86-15.81-22.52-15.81-22.52,0,0-6.72-7.9-15.02-7.9s-5.14-8.3-5.14-8.3c0,0-13.44-3.95-16.2,10.67,0,0-20.55,1.58-6.32,32.8,0,0,4.35,23.71,18.97,15.41l-1.19,11.86s-7.11,13.83,8.3,7.11l6.72,8.69s1.58,13.52,14.23,10.52c0,0,8.44-.29,3.95-38.57,0,0,9.48-7.9,7.51-19.76Z"/>
    <path class="cls-1" d="M917.6,371.26c-.48-4.34-15.81-22.52-15.81-22.52-5.34-6.31-15.02-7.9-15.02-7.9-8.69.4-5.14-8.3-5.14-8.3,0,0,36.75-36.75,83.78-16.2,0,0,18.57,3.56,15.02,12.25,0,0,16.2-10.67,36.36,57.7,0,0-3.95,28.85-7.11,32.4,0,0,.95-7.46-43,1.41l1.9-3.51s-2.37-23.19,1.19-27.93c0,0-5.53-13.44-15.81-17.39,0,0-14.56,3.16-18.74-1.98,0,0-16.83,9.09-17.62,1.98Z"/>
  </g>
  <g>
    <path class="cls-4" d="M764.73,189.04s2.37,10.67-7.51,19.76c0,0,5.14,37.63-3.95,38.57,0,0-12.65,3.32-14.23-10.52,0,0-6.23-8.69-6.72-8.69-3.16,0-13.44,7.11-8.3-7.11l1.19-11.86s-15.02,8.3-18.97-15.41c0,0-15.81-28.85,6.32-32.8,0,0,2.37-15.41,16.2-10.67,0,0,37.54-37.94,83.78-16.2,0,0,18.57,3.95,15.02,12.25,0,0,17.39-9.48,36.36,57.7,0,0-4.74,30.43-7.11,32.4,0,0,3.56,25.29-22.52,57.3,0,0-56.51,50.58-77.85,47.42,0,0-16.6-1.98-9.48-13.04,0,0,56.11-54.14,63.62-48.21,0,0-10.67-18.04,5.14-45.57,0,0-1.98-28.72,1.19-27.93,0,0-5.93-14.62-15.81-17.39,0,0-17.72,2.37-18.74-1.98,0,0-14.46,8.69-17.62,1.98Z"/>
    <path class="cls-2" d="M813.81,237.87s43.05-9.3,43-1.41c0,0,1.58,32.01-22.52,57.3,0,0-51.28,43.49-60.22,43.09,0,0-31.86,14.22-27.12-8.71,0,0,47.42-47.03,63.62-48.21,0,0-8.93-18.92,3.24-42.06Z"/>
    <path class="cls-4" d="M750.71,339.65s71.31-37.19,59.85-56.95"/>
    <path class="cls-4" d="M789.01,328.48s24.32-26.02,26.69-31.95"/>
    <path class="cls-3" d="M764.73,189.04c-.98-5.86-15.81-22.52-15.81-22.52,0,0-6.72-7.9-15.02-7.9s-5.14-8.3-5.14-8.3c0,0-13.44-3.95-16.2,10.67,0,0-20.55,1.58-6.32,32.8,0,0,4.35,23.71,18.97,15.41l-1.19,11.86s-7.11,13.83,8.3,7.11l6.72,8.69s1.58,13.52,14.23,10.52c0,0,8.44-.29,3.95-38.57,0,0,9.48-7.9,7.51-19.76Z"/>
    <path class="cls-1" d="M764.73,189.04c-.48-4.34-15.81-22.52-15.81-22.52-5.34-6.31-15.02-7.9-15.02-7.9-8.69.4-5.14-8.3-5.14-8.3,0,0,36.75-36.75,83.78-16.2,0,0,18.57,3.56,15.02,12.25,0,0,16.2-10.67,36.36,57.7,0,0-3.95,28.85-7.11,32.4,0,0,.95-7.46-43,1.41l1.9-3.51s-2.37-23.19,1.19-27.93c0,0-5.53-13.44-15.81-17.39,0,0-14.56,3.16-18.74-1.98,0,0-16.83,9.09-17.62,1.98Z"/>
  </g>
  <g>
    <path class="cls-4" d="M957.31,126.87s2.37,10.67-7.51,19.76c0,0,5.14,37.63-3.95,38.57,0,0-12.65,3.32-14.23-10.52,0,0-6.23-8.69-6.72-8.69-3.16,0-13.44,7.11-8.3-7.11l1.19-11.86s-15.02,8.3-18.97-15.41c0,0-15.81-28.85,6.32-32.8,0,0,2.37-15.41,16.2-10.67,0,0,37.54-37.94,83.78-16.2,0,0,18.57,3.95,15.02,12.25,0,0,17.39-9.48,36.36,57.7,0,0-4.74,30.43-7.11,32.4,0,0,3.56,25.29-22.52,57.3,0,0-56.51,50.58-77.85,47.42,0,0-16.6-1.98-9.48-13.04,0,0,56.11-54.14,63.62-48.21,0,0-10.67-18.04,5.14-45.57,0,0-1.98-28.72,1.19-27.93,0,0-5.93-14.62-15.81-17.39,0,0-17.72,2.37-18.74-1.98,0,0-14.46,8.69-17.62,1.98Z"/>
    <path class="cls-2" d="M1006.39,175.7s43.05-9.3,43-1.41c0,0,1.58,32.01-22.52,57.3,0,0-51.28,43.49-60.22,43.09,0,0-31.86,14.22-27.12-8.71,0,0,47.42-47.03,63.62-48.21,0,0-8.93-18.92,3.24-42.06Z"/>
    <path class="cls-4" d="M943.29,277.48s71.31-37.19,59.85-56.95"/>
    <path class="cls-4" d="M981.59,266.31s24.32-26.02,26.69-31.95"/>
    <path class="cls-3" d="M957.31,126.87c-.98-5.86-15.81-22.52-15.81-22.52,0,0-6.72-7.9-15.02-7.9s-5.14-8.3-5.14-8.3c0,0-13.44-3.95-16.2,10.67,0,0-20.55,1.58-6.32,32.8,0,0,4.35,23.71,18.97,15.41l-1.19,11.86s-7.11,13.83,8.3,7.11l6.72,8.69s1.58,13.52,14.23,10.52c0,0,8.44-.29,3.95-38.57,0,0,9.48-7.9,7.51-19.76Z"/>
    <path class="cls-1" d="M957.31,126.87c-.48-4.34-15.81-22.52-15.81-22.52-5.34-6.31-15.02-7.9-15.02-7.9-8.69.4-5.14-8.3-5.14-8.3,0,0,36.75-36.75,83.78-16.2,0,0,18.57,3.56,15.02,12.25,0,0,16.2-10.67,36.36,57.7,0,0-3.95,28.85-7.11,32.4,0,0,.95-7.46-43,1.41l1.9-3.51s-2.37-23.19,1.19-27.93c0,0-5.53-13.44-15.81-17.39,0,0-14.56,3.16-18.74-1.98,0,0-16.83,9.09-17.62,1.98Z"/>
  </g>
  <g>
    <path class="cls-4" d="M1126.84,264.77s2.37,10.67-7.51,19.76c0,0,5.14,37.63-3.95,38.57,0,0-12.65,3.32-14.23-10.52,0,0-6.23-8.69-6.72-8.69-3.16,0-13.44,7.11-8.3-7.11l1.19-11.86s-15.02,8.3-18.97-15.41c0,0-15.81-28.85,6.32-32.8,0,0,2.37-15.41,16.2-10.67,0,0,37.54-37.94,83.78-16.2,0,0,18.57,3.95,15.02,12.25,0,0,17.39-9.48,36.36,57.7,0,0-4.74,30.43-7.11,32.4,0,0,3.56,25.29-22.52,57.3,0,0-56.51,50.58-77.85,47.42,0,0-16.6-1.98-9.48-13.04,0,0,56.11-54.14,63.62-48.21,0,0-10.67-18.04,5.14-45.57,0,0-1.98-28.72,1.19-27.93,0,0-5.93-14.62-15.81-17.39,0,0-17.72,2.37-18.74-1.98,0,0-14.46,8.69-17.62,1.98Z"/>
    <path class="cls-2" d="M1175.92,313.59s43.05-9.3,43-1.41c0,0,1.58,32.01-22.52,57.3,0,0-51.28,43.49-60.22,43.09,0,0-31.86,14.22-27.12-8.71,0,0,47.42-47.03,63.62-48.21,0,0-8.93-18.92,3.24-42.06Z"/>
    <path class="cls-4" d="M1112.83,415.37s71.31-37.19,59.85-56.95"/>
    <path class="cls-4" d="M1151.13,404.2s24.32-26.02,26.69-31.95"/>
    <path class="cls-3" d="M1126.84,264.77c-.98-5.86-15.81-22.52-15.81-22.52,0,0-6.72-7.9-15.02-7.9s-5.14-8.3-5.14-8.3c0,0-13.44-3.95-16.2,10.67,0,0-20.55,1.58-6.32,32.8,0,0,4.35,23.71,18.97,15.41l-1.19,11.86s-7.11,13.83,8.3,7.11l6.72,8.69s1.58,13.52,14.23,10.52c0,0,8.44-.29,3.95-38.57,0,0,9.48-7.9,7.51-19.76Z"/>
    <path class="cls-1" d="M1126.84,264.77c-.48-4.34-15.81-22.52-15.81-22.52-5.34-6.31-15.02-7.9-15.02-7.9-8.69.4-5.14-8.3-5.14-8.3,0,0,36.75-36.75,83.78-16.2,0,0,18.57,3.56,15.02,12.25,0,0,16.2-10.67,36.36,57.7,0,0-3.95,28.85-7.11,32.4,0,0,.95-7.46-43,1.41l1.9-3.51s-2.37-23.19,1.19-27.93c0,0-5.53-13.44-15.81-17.39,0,0-14.56,3.16-18.74-1.98,0,0-16.83,9.09-17.62,1.98Z"/>
  </g>
</svg>