<?xml version="1.0" encoding="UTF-8"?>
<svg id="Calque_2" data-name="Calque 2" xmlns="http://www.w3.org/2000/svg" viewBox="0 0 664.4 574.7">
  <defs>
    <style>
      .cls-1 {
        fill: #ff9e21;
        stroke: #000;
        stroke-miterlimit: 10;
        stroke-width: 3px;
      }
    </style>
  </defs>
  <g>
    <polygon class="cls-1" points="337.16 243.86 255.83 367.97 427.61 367.97 337.16 243.86"/>
    <path class="cls-1" d="M335.06,247.07s-15.08,15.41-16.97,25.89c0,0-23.39,21.68-24.32,30.11l-.93,8.43s-10.52,8.26-17.45,22.73-10.77,20.33-10.77,20.33c0,0-9.95,8.8-8.78,13.4s21.74,0,21.74,0c0,0,36.46,8.21,44.25,2.04,0,0,27.11,8.94,39.58-2.04,0,0,26.8,5.38,38.33,0,0,0,59.68,14.4,20.96-9.51,0,0-12.55-31.13-25.17-34.53,0,0-10.81-27.58-19.35-26.55,0,0-11.1-29.49-22.75-31.22,0,0-3.08-18.86-16.25-22.29,0,0-1.95-1.69-2.1,3.21Z"/>
  </g>
  <g>
    <polygon class="cls-1" points="192.22 144.39 110.88 268.49 282.67 268.49 192.22 144.39"/>
    <path class="cls-1" d="M190.11,147.6s-15.08,15.41-16.97,25.89c0,0-23.39,21.68-24.32,30.11l-.93,8.43s-10.52,8.26-17.45,22.73-10.77,20.33-10.77,20.33c0,0-9.95,8.8-8.78,13.4s21.74,0,21.74,0c0,0,36.46,8.21,44.25,2.04,0,0,27.11,8.94,39.58-2.04,0,0,26.8,5.38,38.33,0,0,0,59.68,14.4,20.96-9.51,0,0-12.55-31.13-25.17-34.53,0,0-10.81-27.58-19.35-26.55,0,0-11.1-29.49-22.75-31.22,0,0-3.08-18.86-16.25-22.29,0,0-1.95-1.69-2.1,3.21Z"/>
  </g>
  <g>
    <polygon class="cls-1" points="363.91 90.02 282.58 214.13 454.36 214.13 363.91 90.02"/>
    <path class="cls-1" d="M361.81,93.23s-15.08,15.41-16.97,25.89c0,0-23.39,21.68-24.32,30.11l-.93,8.43s-10.52,8.26-17.45,22.73-10.77,20.33-10.77,20.33c0,0-9.95,8.8-8.78,13.4s21.74,0,21.74,0c0,0,36.46,8.21,44.25,2.04,0,0,27.11,8.94,39.58-2.04,0,0,26.8,5.38,38.33,0,0,0,59.68,14.4,20.96-9.51,0,0-12.55-31.13-25.17-34.53,0,0-10.81-27.58-19.35-26.55,0,0-11.1-29.49-22.75-31.22,0,0-3.08-18.86-16.25-22.29,0,0-1.95-1.69-2.1,3.21Z"/>
  </g>
  <g>
    <polygon class="cls-1" points="530.4 190.66 449.06 314.76 620.85 314.76 530.4 190.66"/>
    <path class="cls-1" d="M528.3,193.86s-15.08,15.41-16.97,25.89c0,0-23.39,21.68-24.32,30.11l-.93,8.43s-10.52,8.26-17.45,22.73c-6.93,14.48-10.77,20.33-10.77,20.33,0,0-9.95,8.8-8.78,13.4s21.74,0,21.74,0c0,0,36.46,8.21,44.25,2.04,0,0,27.11,8.94,39.58-2.04,0,0,26.8,5.38,38.33,0,0,0,59.68,14.4,20.96-9.51,0,0-12.55-31.13-25.17-34.53,0,0-10.81-27.58-19.35-26.55,0,0-11.1-29.49-22.75-31.22,0,0-3.08-18.86-16.25-22.29,0,0-1.95-1.69-2.1,3.21Z"/>
  </g>
  <g>
    <polygon class="cls-1" points="223.25 354.81 141.92 478.92 313.7 478.92 223.25 354.81"/>
    <path class="cls-1" d="M221.15,358.02s-15.08,15.41-16.97,25.89c0,0-23.39,21.68-24.32,30.11l-.93,8.43s-10.52,8.26-17.45,22.73-10.77,20.33-10.77,20.33c0,0-9.95,8.8-8.78,13.4s21.74,0,21.74,0c0,0,36.46,8.21,44.25,2.04,0,0,27.11,8.94,39.58-2.04,0,0,26.8,5.38,38.33,0,0,0,59.68,14.4,20.96-9.51,0,0-12.55-31.13-25.17-34.53,0,0-10.81-27.58-19.35-26.55,0,0-11.1-29.49-22.75-31.22,0,0-3.08-18.86-16.25-22.29,0,0-1.95-1.69-2.1,3.21Z"/>
  </g>
  <g>
    <polygon class="cls-1" points="84.11 258.18 2.78 382.29 174.56 382.29 84.11 258.18"/>
    <path class="cls-1" d="M82.01,261.39s-15.08,15.41-16.97,25.89c0,0-23.39,21.68-24.32,30.11l-.93,8.43s-10.52,8.26-17.45,22.73-10.77,20.33-10.77,20.33c0,0-9.95,8.8-8.78,13.4s21.74,0,21.74,0c0,0,36.46,8.21,44.25,2.04,0,0,27.11,8.94,39.58-2.04,0,0,26.8,5.38,38.33,0,0,0,59.68,14.4,20.96-9.51,0,0-12.55-31.13-25.17-34.53,0,0-10.81-27.58-19.35-26.55,0,0-11.1-29.49-22.75-31.22,0,0-3.08-18.86-16.25-22.29,0,0-1.95-1.69-2.1,3.21Z"/>
  </g>
  <g>
    <polygon class="cls-1" points="566.32 343.88 484.98 467.99 656.77 467.99 566.32 343.88"/>
    <path class="cls-1" d="M564.21,347.09s-15.08,15.41-16.97,25.89c0,0-23.39,21.68-24.32,30.11l-.93,8.43s-10.52,8.26-17.45,22.73c-6.93,14.48-10.77,20.33-10.77,20.33,0,0-9.95,8.8-8.78,13.4,1.17,4.6,21.74,0,21.74,0,0,0,36.46,8.21,44.25,2.04,0,0,27.11,8.94,39.58-2.04,0,0,26.8,5.38,38.33,0,0,0,59.68,14.4,20.96-9.51,0,0-12.55-31.13-25.17-34.53,0,0-10.81-27.58-19.35-26.55,0,0-11.1-29.49-22.75-31.22,0,0-3.08-18.86-16.25-22.29,0,0-1.95-1.69-2.1,3.21Z"/>
  </g>
  <g>
    <polygon class="cls-1" points="420.03 408.81 338.7 532.92 510.48 532.92 420.03 408.81"/>
    <path class="cls-1" d="M417.93,412.02s-15.08,15.41-16.97,25.89c0,0-23.39,21.68-24.32,30.11l-.93,8.43s-10.52,8.26-17.45,22.73c-6.93,14.48-10.77,20.33-10.77,20.33,0,0-9.95,8.8-8.78,13.4s21.74,0,21.74,0c0,0,36.46,8.21,44.25,2.04,0,0,27.11,8.94,39.58-2.04,0,0,26.8,5.38,38.33,0,0,0,59.68,14.4,20.96-9.51,0,0-12.55-31.13-25.17-34.53,0,0-10.81-27.58-19.35-26.55,0,0-11.1-29.49-22.75-31.22,0,0-3.08-18.86-16.25-22.29,0,0-1.95-1.69-2.1,3.21Z"/>
  </g>
</svg>