<?xml version="1.0" encoding="UTF-8"?>
<svg id="Calque_2" data-name="Calque 2" xmlns="http://www.w3.org/2000/svg" viewBox="0 0 574.7 574.7">
  <defs>
    <style>
      .cls-1, .cls-2, .cls-3 {
        fill: #fffae1;
      }

      .cls-1, .cls-2, .cls-3, .cls-4 {
        stroke: #000;
        stroke-miterlimit: 10;
      }

      .cls-1, .cls-4 {
        stroke-width: 3px;
      }

      .cls-2 {
        stroke-width: .75px;
      }

      .cls-3 {
        stroke-width: 2px;
      }

      .cls-4 {
        fill: #fffabb;
      }
    </style>
  </defs>
  <ellipse class="cls-4" cx="314.27" cy="244" rx="233.15" ry="84.58"/>
  <path class="cls-4" d="M81.12,244s-8.68,143.14,15.18,162.66c23.86,19.52,208.21,109.77,451.12,12.59,0,0,6.64-160.09,0-175.25"/>
  <path class="cls-1" d="M321.67,218.51c-58.87,11.89-90.66,33.03-95.37,54.98-14.5,67.56,0,181.42,0,181.42h0c17.56,5.28,38.53,10,62.39,12.38,49.78,4.95,101.62-3.96,130.26-11.67.34-44.55-3.02-78.13-2.2-101.87-1.58-17.39-2.45-29.56-3.01-38.81-1.78-29.4-1.87-33.56-2.64-37.88-3-16.88-21.17-38.57-89.43-58.56Z"/>
  <line class="cls-3" x1="321.67" y1="218.51" x2="317.56" y2="468.72"/>
  <path class="cls-2" d="M251.92,313.94c-19.52,17.75,18.44,0,18.44,0,0,0-6.51-10.84-18.44,0Z"/>
  <path class="cls-2" d="M275.93,363.37c-19.52,17.75,18.44,0,18.44,0,0,0-6.51-10.84-18.44,0Z"/>
  <path class="cls-2" d="M281.28,327.05c-19.52,17.75,18.44,0,18.44,0,0,0-6.51-10.84-18.44,0Z"/>
  <path class="cls-2" d="M346.34,283.13c-19.52,17.75,18.44,0,18.44,0,0,0-6.51-10.84-18.44,0Z"/>
  <path class="cls-2" d="M353.66,352.22c-19.52,17.75,18.44,0,18.44,0,0,0-6.51-10.84-18.44,0Z"/>
  <path class="cls-2" d="M263.93,432.78c-19.52,17.75,18.44,0,18.44,0,0,0-6.51-10.84-18.44,0Z"/>
  <path class="cls-2" d="M377.67,393.74c-19.52,17.75,18.44,0,18.44,0,0,0-6.51-10.84-18.44,0Z"/>
</svg>