<?xml version="1.0" encoding="UTF-8"?>
<svg id="Calque_2" data-name="Calque 2" xmlns="http://www.w3.org/2000/svg" viewBox="0 0 574.7 574.7">
  <defs>
    <style>
      .cls-1 {
        fill: #ffdf88;
        stroke: #000;
        stroke-miterlimit: 10;
        stroke-width: 3px;
      }
    </style>
  </defs>
  <path class="cls-1" d="M267.8,243.44s-48.58-11.11-74.06,43.12c59.74,4.61,74.06-43.12,74.06-43.12Z"/>
  <path class="cls-1" d="M258.6,191.51s-48.58-11.11-74.06,43.12c59.74,4.61,74.06-43.12,74.06-43.12Z"/>
  <path class="cls-1" d="M258.6,191.51s-48.58-11.11-74.06,43.12c59.74,4.61,74.06-43.12,74.06-43.12Z"/>
  <path class="cls-1" d="M258.6,191.51s-48.58-11.11-74.06,43.12c59.74,4.61,74.06-43.12,74.06-43.12Z"/>
  <path class="cls-1" d="M258.6,191.51s-48.58-11.11-74.06,43.12c59.74,4.61,74.06-43.12,74.06-43.12Z"/>
  <path class="cls-1" d="M258.6,191.51s-48.58-11.11-74.06,43.12c59.74,4.61,74.06-43.12,74.06-43.12Z"/>
  <path class="cls-1" d="M258.6,191.51s-48.58-11.11-74.06,43.12c59.74,4.61,74.06-43.12,74.06-43.12Z"/>
  <path class="cls-1" d="M332.66,184.47s-48.58-11.11-74.06,43.12c59.74,4.61,74.06-43.12,74.06-43.12Z"/>
  <path class="cls-1" d="M258.6,295.37s-48.58-11.11-74.06,43.12c59.74,4.61,74.06-43.12,74.06-43.12Z"/>
  <path class="cls-1" d="M352.96,221.25s-48.58-11.11-74.06,43.12c59.74,4.61,74.06-43.12,74.06-43.12Z"/>
  <path class="cls-1" d="M352.01,321.07s-48.58-11.11-74.06,43.12c59.74,4.61,74.06-43.12,74.06-43.12Z"/>
  <path class="cls-1" d="M342.81,269.14s-48.58-11.11-74.06,43.12c59.74,4.61,74.06-43.12,74.06-43.12Z"/>
  <path class="cls-1" d="M342.81,269.14s-48.58-11.11-74.06,43.12c59.74,4.61,74.06-43.12,74.06-43.12Z"/>
  <path class="cls-1" d="M342.81,269.14s-48.58-11.11-74.06,43.12c59.74,4.61,74.06-43.12,74.06-43.12Z"/>
  <path class="cls-1" d="M342.81,269.14s-48.58-11.11-74.06,43.12c59.74,4.61,74.06-43.12,74.06-43.12Z"/>
  <path class="cls-1" d="M342.81,269.14s-48.58-11.11-74.06,43.12c59.74,4.61,74.06-43.12,74.06-43.12Z"/>
  <path class="cls-1" d="M342.81,269.14s-48.58-11.11-74.06,43.12c59.74,4.61,74.06-43.12,74.06-43.12Z"/>
  <path class="cls-1" d="M416.87,262.1s-48.58-11.11-74.06,43.12c59.74,4.61,74.06-43.12,74.06-43.12Z"/>
  <path class="cls-1" d="M342.81,373s-48.58-11.11-74.06,43.12c59.74,4.61,74.06-43.12,74.06-43.12Z"/>
  <path class="cls-1" d="M437.17,298.89s-48.58-11.11-74.06,43.12c59.74,4.61,74.06-43.12,74.06-43.12Z"/>
  <path class="cls-1" d="M527.23,291.33s-48.58-11.11-74.06,43.12c59.74,4.61,74.06-43.12,74.06-43.12Z"/>
  <path class="cls-1" d="M155.76,360.86s-48.58-11.11-74.06,43.12c59.74,4.61,74.06-43.12,74.06-43.12Z"/>
  <path class="cls-1" d="M167.16,302.15s-48.58-11.11-74.06,43.12c59.74,4.61,74.06-43.12,74.06-43.12Z"/>
  <path class="cls-1" d="M511.22,353.82s-48.58-11.11-74.06,43.12c59.74,4.61,74.06-43.12,74.06-43.12Z"/>
  <path class="cls-1" d="M192.79,243.44s-48.58-11.11-74.06,43.12c59.74,4.61,74.06-43.12,74.06-43.12Z"/>
  <path class="cls-1" d="M516.81,228.84s-48.58-11.11-74.06,43.12c59.74,4.61,74.06-43.12,74.06-43.12Z"/>
  <path class="cls-1" d="M437.17,353.82s-48.58-11.11-74.06,43.12c59.74,4.61,74.06-43.12,74.06-43.12Z"/>
  <path class="cls-1" d="M241.21,353.82s-48.58-11.11-74.06,43.12c59.74,4.61,74.06-43.12,74.06-43.12Z"/>
  <path class="cls-1" d="M447.32,191.51s-48.58-11.11-74.06,43.12c59.74,4.61,74.06-43.12,74.06-43.12Z"/>
  <path class="cls-1" d="M261.51,390.61s-48.58-11.11-74.06,43.12c59.74,4.61,74.06-43.12,74.06-43.12Z"/>
  <path class="cls-1" d="M397,412.79s-48.58-11.11-74.06,43.12c59.74,4.61,74.06-43.12,74.06-43.12Z"/>
  <path class="cls-1" d="M282.08,445.54s-48.58-11.11-74.06,43.12c59.74,4.61,74.06-43.12,74.06-43.12Z"/>
  <path class="cls-1" d="M167.16,412.79s-48.58-11.11-74.06,43.12c59.74,4.61,74.06-43.12,74.06-43.12Z"/>
  <path class="cls-1" d="M427.02,140.1s-48.58-11.11-74.06,43.12c59.74,4.61,74.06-43.12,74.06-43.12Z"/>
  <path class="cls-1" d="M548.25,166.35s-48.58-11.11-74.06,43.12c59.74,4.61,74.06-43.12,74.06-43.12Z"/>
</svg>