<?xml version="1.0" encoding="UTF-8"?>
<svg id="Calque_2" data-name="Calque 2" xmlns="http://www.w3.org/2000/svg" viewBox="0 0 817.12 800">
  <defs>
    <style>
      .cls-1 {
        fill: #840;
      }

      .cls-1, .cls-2 {
        stroke: #000;
        stroke-miterlimit: 10;
      }

      .cls-2 {
        fill: #552f00;
      }
    </style>
  </defs>
  <g>
    <path class="cls-1" d="M390.34,686.4v3.85s33.72,36.59,40.5,32.75c0,0,28.15,0,89.85-24.39,0,0,6.11-8.92,5.33-10.11"/>
    <path class="cls-1" d="M377.07,672.65c12.79,13.24,25.57,26.49,38.36,39.73,0,0,4.74,11.52,23.71,4.07l96.89-31.17s6.1-6.1,0-21l-10.84-6.78s-1.36-10.8-21-20.99c0,0-21.85-26.89-29.53-25.09-1.88.3-3.84,1.52-5.65.9-10.61-3.61-10.16,1.58-10.16,1.58l-16.94,3.39c-3.39-1.36-8.81,0-8.81,0-2.48.45-3.61,2.94-3.61,2.94l-7.9,3.16c-7.45-2.48-8.58,1.81-8.58,1.81,0,0-29.13,22.13-30.72,28.68,0,0-17.49,3.54-5.21,18.77Z"/>
    <path class="cls-2" d="M375.96,671.5c-.24-.66-1.73-4.83.37-8.05,2.44-3.73,8.96-5.01,14.76-1.44,3.17,1.33,6.41,2.75,9.71,4.26,2.79,1.28,5.5,2.57,8.13,3.87,9.26-1.58,16.6,6.32,16.6,6.32,6.21,4.97,12.08,35.46,12.08,35.46l3.16-1.13c1.64-5.65-7.68-29.13-7.68-29.13-6.55-18.52-22.36-16.52-22.36-16.52-3.48-1.71-6.97-3.42-10.45-5.13-2.92-1.44-5.83-2.88-8.75-4.32-7.84-3.9-16.04-.79-18.2,4.44-1.43,3.47-.22,7.9,2.61,11.37l.22.23"/>
    <path class="cls-2" d="M413,625.2c32.75,10.39,37.38,87.63,37.38,87.63l5.37-1.73c-4.91-74.68-34.16-87.71-34.16-87.71,0,0-6.13-2.54-8.41,1.4l-.17.41Z"/>
    <path class="cls-2" d="M441.91,617.3s34.1,4.07,48.11,79.27c0,0-4.74,1.81-4.97,0,0,0-9.49-73.63-55.56-76.34,0,0,2.89-5.31,12.69-2.89"/>
    <path class="cls-2" d="M469.01,612.33s29.59,12.87,30.49,87.63c0,0-3.39,2.48-4.07,1.36,0,0,.9-9.26,0-10.84s-10.84-79.95-36.59-76.56c0,0,.03-5.22,10.16-1.58Z"/>
    <path class="cls-2" d="M534.96,686.4c-1.58-16.27-9.77-28.9-9.77-28.9-3.3-10.98-16.35-18.36-16.35-18.36,0,0,17.45,15.41,23.71,47.26h2.41Z"/>
  </g>
  <g>
    <path class="cls-1" d="M346.57,427.2v3.85s33.72,36.59,40.5,32.75c0,0,28.15,0,89.85-24.39,0,0,6.11-8.92,5.33-10.11"/>
    <path class="cls-1" d="M333.29,413.45c12.79,13.24,25.57,26.49,38.36,39.73,0,0,4.74,11.52,23.71,4.07l96.89-31.17s6.1-6.1,0-21l-10.84-6.78s-1.36-10.8-21-20.99c0,0-21.85-26.89-29.53-25.09-1.88.3-3.84,1.52-5.65.9-10.61-3.61-10.16,1.58-10.16,1.58l-16.94,3.39c-3.39-1.36-8.81,0-8.81,0-2.48.45-3.61,2.94-3.61,2.94l-7.9,3.16c-7.45-2.48-8.58,1.81-8.58,1.81,0,0-29.13,22.13-30.72,28.68,0,0-17.49,3.54-5.21,18.77Z"/>
    <path class="cls-2" d="M332.18,412.3c-.24-.66-1.73-4.83.37-8.05,2.44-3.73,8.96-5.01,14.76-1.44,3.17,1.33,6.41,2.75,9.71,4.26,2.79,1.28,5.5,2.57,8.13,3.87,9.26-1.58,16.6,6.32,16.6,6.32,6.21,4.97,12.08,35.46,12.08,35.46l3.16-1.13c1.64-5.65-7.68-29.13-7.68-29.13-6.55-18.52-22.36-16.52-22.36-16.52-3.48-1.71-6.97-3.42-10.45-5.13-2.92-1.44-5.83-2.88-8.75-4.32-7.84-3.9-16.04-.79-18.2,4.44-1.43,3.47-.22,7.9,2.61,11.37l.22.23"/>
    <path class="cls-2" d="M369.22,366c32.75,10.39,37.38,87.63,37.38,87.63l5.37-1.73c-4.91-74.68-34.16-87.71-34.16-87.71,0,0-6.13-2.54-8.41,1.4l-.17.41Z"/>
    <path class="cls-2" d="M398.13,358.09s34.1,4.07,48.11,79.27c0,0-4.74,1.81-4.97,0,0,0-9.49-73.63-55.56-76.34,0,0,2.89-5.31,12.69-2.89"/>
    <path class="cls-2" d="M425.23,353.12s29.59,12.87,30.49,87.63c0,0-3.39,2.48-4.07,1.36,0,0,.9-9.26,0-10.84s-10.84-79.95-36.59-76.56c0,0,.03-5.22,10.16-1.58Z"/>
    <path class="cls-2" d="M491.18,427.2c-1.58-16.27-9.77-28.9-9.77-28.9-3.3-10.98-16.35-18.36-16.35-18.36,0,0,17.45,15.41,23.71,47.26h2.41Z"/>
  </g>
  <g>
    <path class="cls-1" d="M668.22,499.09v3.85s33.72,36.59,40.5,32.75c0,0,28.15,0,89.85-24.39,0,0,6.11-8.92,5.33-10.11"/>
    <path class="cls-1" d="M654.95,485.34c12.79,13.24,25.57,26.49,38.36,39.73,0,0,4.74,11.52,23.71,4.07l96.89-31.17s6.1-6.1,0-21l-10.84-6.78s-1.36-10.8-21-20.99c0,0-21.85-26.89-29.53-25.09-1.88.3-3.84,1.52-5.65.9-10.61-3.61-10.16,1.58-10.16,1.58l-16.94,3.39c-3.39-1.36-8.81,0-8.81,0-2.48.45-3.61,2.94-3.61,2.94l-7.9,3.16c-7.45-2.48-8.58,1.81-8.58,1.81,0,0-29.13,22.13-30.72,28.68,0,0-17.49,3.54-5.21,18.77Z"/>
    <path class="cls-2" d="M653.84,484.19c-.24-.66-1.73-4.83.37-8.05,2.44-3.73,8.96-5.01,14.76-1.44,3.17,1.33,6.41,2.75,9.71,4.26,2.79,1.28,5.5,2.57,8.13,3.87,9.26-1.58,16.6,6.32,16.6,6.32,6.21,4.97,12.08,35.46,12.08,35.46l3.16-1.13c1.64-5.65-7.68-29.13-7.68-29.13-6.55-18.52-22.36-16.52-22.36-16.52-3.48-1.71-6.97-3.42-10.45-5.13-2.92-1.44-5.83-2.88-8.75-4.32-7.84-3.9-16.04-.79-18.2,4.44-1.43,3.47-.22,7.9,2.61,11.37l.22.23"/>
    <path class="cls-2" d="M690.88,437.89c32.75,10.39,37.38,87.63,37.38,87.63l5.37-1.73c-4.91-74.68-34.16-87.71-34.16-87.71,0,0-6.13-2.54-8.41,1.4l-.17.41Z"/>
    <path class="cls-2" d="M719.79,429.99s34.1,4.07,48.11,79.27c0,0-4.74,1.81-4.97,0,0,0-9.49-73.63-55.56-76.34,0,0,2.89-5.31,12.69-2.89"/>
    <path class="cls-2" d="M746.89,425.02s29.59,12.87,30.49,87.63c0,0-3.39,2.48-4.07,1.36,0,0,.9-9.26,0-10.84s-10.84-79.95-36.59-76.56c0,0,.03-5.22,10.16-1.58Z"/>
    <path class="cls-2" d="M812.84,499.09c-1.58-16.27-9.77-28.9-9.77-28.9-3.3-10.98-16.35-18.36-16.35-18.36,0,0,17.45,15.41,23.71,47.26h2.41Z"/>
  </g>
  <g>
    <path class="cls-1" d="M583.17,738.2v3.85s33.72,36.59,40.5,32.75c0,0,28.15,0,89.85-24.39,0,0,6.11-8.92,5.33-10.11"/>
    <path class="cls-1" d="M569.9,724.45c12.79,13.24,25.57,26.49,38.36,39.73,0,0,4.74,11.52,23.71,4.07l96.89-31.17s6.1-6.1,0-21l-10.84-6.78s-1.36-10.8-21-20.99c0,0-21.85-26.89-29.53-25.09-1.88.3-3.84,1.52-5.65.9-10.61-3.61-10.16,1.58-10.16,1.58l-16.94,3.39c-3.39-1.36-8.81,0-8.81,0-2.48.45-3.61,2.94-3.61,2.94l-7.9,3.16c-7.45-2.48-8.58,1.81-8.58,1.81,0,0-29.13,22.13-30.72,28.68,0,0-17.49,3.54-5.21,18.77Z"/>
    <path class="cls-2" d="M568.79,723.3c-.24-.66-1.73-4.83.37-8.05,2.44-3.73,8.96-5.01,14.76-1.44,3.17,1.33,6.41,2.75,9.71,4.26,2.79,1.28,5.5,2.57,8.13,3.87,9.26-1.58,16.6,6.32,16.6,6.32,6.21,4.97,12.08,35.46,12.08,35.46l3.16-1.13c1.64-5.65-7.68-29.13-7.68-29.13-6.55-18.52-22.36-16.52-22.36-16.52-3.48-1.71-6.97-3.42-10.45-5.13-2.92-1.44-5.83-2.88-8.75-4.32-7.84-3.9-16.04-.79-18.2,4.44-1.43,3.47-.22,7.9,2.61,11.37l.22.23"/>
    <path class="cls-2" d="M605.83,677c32.75,10.39,37.38,87.63,37.38,87.63l5.37-1.73c-4.91-74.68-34.16-87.71-34.16-87.71,0,0-6.13-2.54-8.41,1.4l-.17.41Z"/>
    <path class="cls-2" d="M634.74,669.1s34.1,4.07,48.11,79.27c0,0-4.74,1.81-4.97,0,0,0-9.49-73.63-55.56-76.34,0,0,2.89-5.31,12.69-2.89"/>
    <path class="cls-2" d="M661.84,664.13s29.59,12.87,30.49,87.63c0,0-3.39,2.48-4.07,1.36,0,0,.9-9.26,0-10.84s-10.84-79.95-36.59-76.56c0,0,.03-5.22,10.16-1.58Z"/>
    <path class="cls-2" d="M727.79,738.2c-1.58-16.27-9.77-28.9-9.77-28.9-3.3-10.98-16.35-18.36-16.35-18.36,0,0,17.45,15.41,23.71,47.26h2.41Z"/>
  </g>
  <g>
    <path class="cls-1" d="M517,563.68v3.85s33.72,36.59,40.5,32.75c0,0,28.15,0,89.85-24.39,0,0,6.11-8.92,5.33-10.11"/>
    <path class="cls-1" d="M503.72,549.93c12.79,13.24,25.57,26.49,38.36,39.73,0,0,4.74,11.52,23.71,4.07l96.89-31.17s6.1-6.1,0-21l-10.84-6.78s-1.36-10.8-21-20.99c0,0-21.85-26.89-29.53-25.09-1.88.3-3.84,1.52-5.65.9-10.61-3.61-10.16,1.58-10.16,1.58l-16.94,3.39c-3.39-1.36-8.81,0-8.81,0-2.48.45-3.61,2.94-3.61,2.94l-7.9,3.16c-7.45-2.48-8.58,1.81-8.58,1.81,0,0-29.13,22.13-30.72,28.68,0,0-17.49,3.54-5.21,18.77Z"/>
    <path class="cls-2" d="M502.61,548.78c-.24-.66-1.73-4.83.37-8.05,2.44-3.73,8.96-5.01,14.76-1.44,3.17,1.33,6.41,2.75,9.71,4.26,2.79,1.28,5.5,2.57,8.13,3.87,9.26-1.58,16.6,6.32,16.6,6.32,6.21,4.97,12.08,35.46,12.08,35.46l3.16-1.13c1.64-5.65-7.68-29.13-7.68-29.13-6.55-18.52-22.36-16.52-22.36-16.52-3.48-1.71-6.97-3.42-10.45-5.13-2.92-1.44-5.83-2.88-8.75-4.32-7.84-3.9-16.04-.79-18.2,4.44-1.43,3.47-.22,7.9,2.61,11.37l.22.23"/>
    <path class="cls-2" d="M539.65,502.48c32.75,10.39,37.38,87.63,37.38,87.63l5.37-1.73c-4.91-74.68-34.16-87.71-34.16-87.71,0,0-6.13-2.54-8.41,1.4l-.17.41Z"/>
    <path class="cls-2" d="M568.56,494.57s34.1,4.07,48.11,79.27c0,0-4.74,1.81-4.97,0,0,0-9.49-73.63-55.56-76.34,0,0,2.89-5.31,12.69-2.89"/>
    <path class="cls-2" d="M595.66,489.61s29.59,12.87,30.49,87.63c0,0-3.39,2.48-4.07,1.36,0,0,.9-9.26,0-10.84s-10.84-79.95-36.59-76.56c0,0,.03-5.22,10.16-1.58Z"/>
    <path class="cls-2" d="M661.61,563.68c-1.58-16.27-9.77-28.9-9.77-28.9-3.3-10.98-16.35-18.36-16.35-18.36,0,0,17.45,15.41,23.71,47.26h2.41Z"/>
  </g>
  <g>
    <path class="cls-1" d="M263.55,591.7v3.85s33.72,36.59,40.5,32.75c0,0,28.15,0,89.85-24.39,0,0,6.11-8.92,5.33-10.11"/>
    <path class="cls-1" d="M250.27,577.95c12.79,13.24,25.57,26.49,38.36,39.73,0,0,4.74,11.52,23.71,4.07l96.89-31.17s6.1-6.1,0-21l-10.84-6.78s-1.36-10.8-21-20.99c0,0-21.85-26.89-29.53-25.09-1.88.3-3.84,1.52-5.65.9-10.61-3.61-10.16,1.58-10.16,1.58l-16.94,3.39c-3.39-1.36-8.81,0-8.81,0-2.48.45-3.61,2.94-3.61,2.94l-7.9,3.16c-7.45-2.48-8.58,1.81-8.58,1.81,0,0-29.13,22.13-30.72,28.68,0,0-17.49,3.54-5.21,18.77Z"/>
    <path class="cls-2" d="M249.16,576.8c-.24-.66-1.73-4.83.37-8.05,2.44-3.73,8.96-5.01,14.76-1.44,3.17,1.33,6.41,2.75,9.71,4.26,2.79,1.28,5.5,2.57,8.13,3.87,9.26-1.58,16.6,6.32,16.6,6.32,6.21,4.97,12.08,35.46,12.08,35.46l3.16-1.13c1.64-5.65-7.68-29.13-7.68-29.13-6.55-18.52-22.36-16.52-22.36-16.52-3.48-1.71-6.97-3.42-10.45-5.13-2.92-1.44-5.83-2.88-8.75-4.32-7.84-3.9-16.04-.79-18.2,4.44-1.43,3.47-.22,7.9,2.61,11.37l.22.23"/>
    <path class="cls-2" d="M286.2,530.5c32.75,10.39,37.38,87.63,37.38,87.63l5.37-1.73c-4.91-74.68-34.16-87.71-34.16-87.71,0,0-6.13-2.54-8.41,1.4l-.17.41Z"/>
    <path class="cls-2" d="M315.11,522.6s34.1,4.07,48.11,79.27c0,0-4.74,1.81-4.97,0,0,0-9.49-73.63-55.56-76.34,0,0,2.89-5.31,12.69-2.89"/>
    <path class="cls-2" d="M342.21,517.63s29.59,12.87,30.49,87.63c0,0-3.39,2.48-4.07,1.36,0,0,.9-9.26,0-10.84s-10.84-79.95-36.59-76.56c0,0,.03-5.22,10.16-1.58Z"/>
    <path class="cls-2" d="M408.16,591.7c-1.58-16.27-9.77-28.9-9.77-28.9-3.3-10.98-16.35-18.36-16.35-18.36,0,0,17.45,15.41,23.71,47.26h2.41Z"/>
  </g>
  <g>
    <path class="cls-1" d="M534.64,422.81v3.85s33.72,36.59,40.5,32.75c0,0,28.15,0,89.85-24.39,0,0,6.11-8.92,5.33-10.11"/>
    <path class="cls-1" d="M521.36,409.06c12.79,13.24,25.57,26.49,38.36,39.73,0,0,4.74,11.52,23.71,4.07l96.89-31.17s6.1-6.1,0-21l-10.84-6.78s-1.36-10.8-21-20.99c0,0-21.85-26.89-29.53-25.09-1.88.3-3.84,1.52-5.65.9-10.61-3.61-10.16,1.58-10.16,1.58l-16.94,3.39c-3.39-1.36-8.81,0-8.81,0-2.48.45-3.61,2.94-3.61,2.94l-7.9,3.16c-7.45-2.48-8.58,1.81-8.58,1.81,0,0-29.13,22.13-30.72,28.68,0,0-17.49,3.54-5.21,18.77Z"/>
    <path class="cls-2" d="M520.25,407.91c-.24-.66-1.73-4.83.37-8.05,2.44-3.73,8.96-5.01,14.76-1.44,3.17,1.33,6.41,2.75,9.71,4.26,2.79,1.28,5.5,2.57,8.13,3.87,9.26-1.58,16.6,6.32,16.6,6.32,6.21,4.97,12.08,35.46,12.08,35.46l3.16-1.13c1.64-5.65-7.68-29.13-7.68-29.13-6.55-18.52-22.36-16.52-22.36-16.52-3.48-1.71-6.97-3.42-10.45-5.13-2.92-1.44-5.83-2.88-8.75-4.32-7.84-3.9-16.04-.79-18.2,4.44-1.43,3.47-.22,7.9,2.61,11.37l.22.23"/>
    <path class="cls-2" d="M557.29,361.61c32.75,10.39,37.38,87.63,37.38,87.63l5.37-1.73c-4.91-74.68-34.16-87.71-34.16-87.71,0,0-6.13-2.54-8.41,1.4l-.17.41Z"/>
    <path class="cls-2" d="M586.2,353.7s34.1,4.07,48.11,79.27c0,0-4.74,1.81-4.97,0,0,0-9.49-73.63-55.56-76.34,0,0,2.89-5.31,12.69-2.89"/>
    <path class="cls-2" d="M613.3,348.73s29.59,12.87,30.49,87.63c0,0-3.39,2.48-4.07,1.36,0,0,.9-9.26,0-10.84s-10.84-79.95-36.59-76.56c0,0,.03-5.22,10.16-1.58Z"/>
    <path class="cls-2" d="M679.25,422.81c-1.58-16.27-9.77-28.9-9.77-28.9-3.3-10.98-16.35-18.36-16.35-18.36,0,0,17.45,15.41,23.71,47.26h2.41Z"/>
  </g>
</svg>