<?xml version="1.0" encoding="UTF-8"?>
<svg id="Calque_1" data-name="Calque 1" xmlns="http://www.w3.org/2000/svg" viewBox="0 0 639.65 329.89">
  <defs>
    <style>
      .cls-1 {
        fill: #840;
        stroke: #000;
        stroke-miterlimit: 10;
      }
    </style>
  </defs>
  <polygon class="cls-1" points="240.34 224.72 87.01 224.72 87.01 209.07 92.24 209.07 240.34 209.07 240.34 224.72"/>
  <polygon class="cls-1" points="94.08 209.07 110.82 155.46 215.63 155.46 232.38 209.07 94.08 209.07"/>
  <polygon class="cls-1" points="373.8 329.39 220.47 329.39 220.47 313.74 225.7 313.74 373.8 313.74 373.8 329.39"/>
  <polygon class="cls-1" points="227.53 313.74 244.28 260.13 349.09 260.13 365.84 313.74 227.53 313.74"/>
  <polygon class="cls-1" points="450.46 182.26 297.13 182.26 297.13 166.61 302.37 166.61 450.46 166.61 450.46 182.26"/>
  <polygon class="cls-1" points="304.2 166.61 320.94 113 425.75 113 442.5 166.61 304.2 166.61"/>
  <polygon class="cls-1" points="240.34 98.33 87.01 98.33 87.01 82.67 92.24 82.67 240.34 82.67 240.34 98.33"/>
  <polygon class="cls-1" points="94.08 82.67 110.82 29.07 215.63 29.07 232.38 82.67 94.08 82.67"/>
  <polygon class="cls-1" points="562.49 294.76 409.16 294.76 409.16 279.11 414.4 279.11 562.49 279.11 562.49 294.76"/>
  <polygon class="cls-1" points="416.23 279.11 432.97 225.5 537.78 225.5 554.53 279.11 416.23 279.11"/>
  <polygon class="cls-1" points="457.87 69.76 304.54 69.76 304.54 54.11 309.78 54.11 457.87 54.11 457.87 69.76"/>
  <polygon class="cls-1" points="311.61 54.11 328.35 .5 433.16 .5 449.91 54.11 311.61 54.11"/>
  <polygon class="cls-1" points="153.83 313.74 .5 313.74 .5 298.09 5.73 298.09 153.83 298.09 153.83 313.74"/>
  <polygon class="cls-1" points="7.56 298.09 24.31 244.48 129.12 244.48 145.87 298.09 7.56 298.09"/>
  <polygon class="cls-1" points="639.15 159.76 485.83 159.76 485.83 144.11 491.06 144.11 639.15 144.11 639.15 159.76"/>
  <polygon class="cls-1" points="492.89 144.11 509.64 90.5 614.45 90.5 631.19 144.11 492.89 144.11"/>
</svg>