<?xml version="1.0" encoding="UTF-8"?>
<svg id="Calque_1" data-name="Calque 1" xmlns="http://www.w3.org/2000/svg" viewBox="0 0 581.17 373">
  <defs>
    <style>
      .cls-1 {
        fill: #55f;
      }

      .cls-2 {
        fill: #ff3e32;
      }

      .cls-3 {
        fill: #840;
      }

      .cls-4 {
        fill: #fff842;
      }
    </style>
  </defs>
  <g>
    <path class="cls-1" d="M71.97,181.13c-38.86,0-70.47-19.81-70.47-44.16s31.61-44.16,70.47-44.16,70.47,19.81,70.47,44.16-31.61,44.16-70.47,44.16Z"/>
    <path d="M71.97,94.32c18.66,0,36.16,4.58,49.28,12.91,12.69,8.05,19.69,18.62,19.69,29.75s-6.99,21.7-19.69,29.75c-13.12,8.32-30.62,12.91-49.28,12.91s-36.16-4.58-49.28-12.91c-12.69-8.05-19.69-18.62-19.69-29.75s6.99-21.7,19.69-29.75c13.12-8.32,30.62-12.91,49.28-12.91M71.97,91.32C32.22,91.32,0,111.76,0,136.97s32.22,45.66,71.97,45.66,71.97-20.44,71.97-45.66-32.22-45.66-71.97-45.66h0Z"/>
  </g>
  <g>
    <path class="cls-3" d="M482.93,241.49c-38.86,0-70.47-19.81-70.47-44.16s31.61-44.16,70.47-44.16,70.47,19.81,70.47,44.16-31.61,44.16-70.47,44.16Z"/>
    <path d="M482.93,154.68c18.66,0,36.16,4.58,49.28,12.91,12.69,8.05,19.69,18.62,19.69,29.75s-6.99,21.7-19.69,29.75c-13.12,8.32-30.62,12.91-49.28,12.91s-36.16-4.58-49.28-12.91c-12.69-8.05-19.69-18.62-19.69-29.75s6.99-21.7,19.69-29.75c13.12-8.32,30.62-12.91,49.28-12.91M482.93,151.68c-39.75,0-71.97,20.44-71.97,45.66s32.22,45.66,71.97,45.66,71.97-20.44,71.97-45.66-32.22-45.66-71.97-45.66h0Z"/>
  </g>
  <g>
    <path class="cls-2" d="M229.06,371.5c-38.86,0-70.47-19.81-70.47-44.16s31.61-44.16,70.47-44.16,70.47,19.81,70.47,44.16-31.61,44.16-70.47,44.16Z"/>
    <path d="M229.06,284.68c18.66,0,36.16,4.58,49.28,12.91,12.69,8.05,19.69,18.62,19.69,29.75s-6.99,21.7-19.69,29.75c-13.12,8.32-30.62,12.91-49.28,12.91s-36.16-4.58-49.28-12.91c-12.69-8.05-19.69-18.62-19.69-29.75s6.99-21.7,19.69-29.75c13.12-8.32,30.62-12.91,49.28-12.91M229.06,281.68c-39.75,0-71.97,20.44-71.97,45.66s32.22,45.66,71.97,45.66,71.97-20.44,71.97-45.66-32.22-45.66-71.97-45.66h0Z"/>
  </g>
  <g>
    <path class="cls-2" d="M270.85,188.87c-38.86,0-70.47-19.81-70.47-44.16s31.61-44.16,70.47-44.16,70.47,19.81,70.47,44.16-31.61,44.16-70.47,44.16Z"/>
    <path d="M270.85,102.05c18.66,0,36.16,4.58,49.28,12.91,12.69,8.05,19.69,18.62,19.69,29.75s-6.99,21.7-19.69,29.75c-13.12,8.32-30.62,12.91-49.28,12.91s-36.16-4.58-49.28-12.91c-12.69-8.05-19.69-18.62-19.69-29.75s6.99-21.7,19.69-29.75c13.12-8.32,30.62-12.91,49.28-12.91M270.85,99.05c-39.75,0-71.97,20.44-71.97,45.66s32.22,45.66,71.97,45.66,71.97-20.44,71.97-45.66-32.22-45.66-71.97-45.66h0Z"/>
  </g>
  <g>
    <path class="cls-4" d="M71.97,287.15c-38.86,0-70.47-19.81-70.47-44.16s31.61-44.16,70.47-44.16,70.47,19.81,70.47,44.16-31.61,44.16-70.47,44.16Z"/>
    <path d="M71.97,200.33c18.66,0,36.16,4.58,49.28,12.91,12.69,8.05,19.69,18.62,19.69,29.75s-6.99,21.7-19.69,29.75c-13.12,8.32-30.62,12.91-49.28,12.91s-36.16-4.58-49.28-12.91c-12.69-8.05-19.69-18.62-19.69-29.75s6.99-21.7,19.69-29.75c13.12-8.32,30.62-12.91,49.28-12.91M71.97,197.33C32.22,197.33,0,217.78,0,242.99s32.22,45.66,71.97,45.66,71.97-20.44,71.97-45.66-32.22-45.66-71.97-45.66h0Z"/>
  </g>
  <g>
    <path class="cls-4" d="M430.27,143.21c-38.86,0-70.47-19.81-70.47-44.16s31.61-44.16,70.47-44.16,70.47,19.81,70.47,44.16-31.61,44.16-70.47,44.16Z"/>
    <path d="M430.27,56.4c18.66,0,36.16,4.58,49.28,12.91,12.69,8.05,19.69,18.62,19.69,29.75s-6.99,21.7-19.69,29.75c-13.12,8.32-30.62,12.91-49.28,12.91s-36.16-4.58-49.28-12.91c-12.69-8.05-19.69-18.62-19.69-29.75s6.99-21.7,19.69-29.75c13.12-8.32,30.62-12.91,49.28-12.91M430.27,53.4c-39.75,0-71.97,20.44-71.97,45.66s32.22,45.66,71.97,45.66,71.97-20.44,71.97-45.66-32.22-45.66-71.97-45.66h0Z"/>
  </g>
  <g>
    <path class="cls-4" d="M509.2,371.5c-38.86,0-70.47-19.81-70.47-44.16s31.61-44.16,70.47-44.16,70.47,19.81,70.47,44.16-31.61,44.16-70.47,44.16Z"/>
    <path d="M509.2,284.68c18.66,0,36.16,4.58,49.28,12.91,12.69,8.05,19.69,18.62,19.69,29.75s-6.99,21.7-19.69,29.75c-13.12,8.32-30.62,12.91-49.28,12.91s-36.16-4.58-49.28-12.91c-12.69-8.05-19.69-18.62-19.69-29.75s6.99-21.7,19.69-29.75c13.12-8.32,30.62-12.91,49.28-12.91M509.2,281.68c-39.75,0-71.97,20.44-71.97,45.66s32.22,45.66,71.97,45.66,71.97-20.44,71.97-45.66-32.22-45.66-71.97-45.66h0Z"/>
  </g>
  <g>
    <path class="cls-1" d="M342.82,297.21c-38.86,0-70.47-19.81-70.47-44.16s31.61-44.16,70.47-44.16,70.47,19.81,70.47,44.16-31.61,44.16-70.47,44.16Z"/>
    <path d="M342.82,210.39c18.66,0,36.16,4.58,49.28,12.91,12.69,8.05,19.69,18.62,19.69,29.75s-6.99,21.7-19.69,29.75c-13.12,8.32-30.62,12.91-49.28,12.91s-36.16-4.58-49.28-12.91c-12.69-8.05-19.69-18.62-19.69-29.75s6.99-21.7,19.69-29.75c13.12-8.32,30.62-12.91,49.28-12.91M342.82,207.39c-39.75,0-71.97,20.44-71.97,45.66s32.22,45.66,71.97,45.66,71.97-20.44,71.97-45.66-32.22-45.66-71.97-45.66h0Z"/>
  </g>
  <g>
    <path class="cls-3" d="M270.85,89.82c-38.86,0-70.47-19.81-70.47-44.16S231.99,1.5,270.85,1.5s70.47,19.81,70.47,44.16-31.61,44.16-70.47,44.16Z"/>
    <path d="M270.85,3c18.66,0,36.16,4.58,49.28,12.91,12.69,8.05,19.69,18.62,19.69,29.75s-6.99,21.7-19.69,29.75c-13.12,8.32-30.62,12.91-49.28,12.91s-36.16-4.58-49.28-12.91c-12.69-8.05-19.69-18.62-19.69-29.75s6.99-21.7,19.69-29.75c13.12-8.32,30.62-12.91,49.28-12.91M270.85,0c-39.75,0-71.97,20.44-71.97,45.66s32.22,45.66,71.97,45.66,71.97-20.44,71.97-45.66S310.6,0,270.85,0h0Z"/>
  </g>
</svg>