<?xml version="1.0" encoding="UTF-8"?>
<svg id="Calque_2" data-name="Calque 2" xmlns="http://www.w3.org/2000/svg" viewBox="0 0 581.17 373">
  <defs>
    <style>
      .cls-1 {
        fill: #fff;
      }

      .cls-1, .cls-2, .cls-3, .cls-4 {
        stroke: #000;
        stroke-miterlimit: 10;
        stroke-width: 3px;
      }

      .cls-2 {
        fill: #fff842;
      }

      .cls-3 {
        fill: #ff3e32;
      }

      .cls-4 {
        fill: #55f;
      }
    </style>
  </defs>
  <path class="cls-1" d="M249.5,162.34c0-13.39-10.86-24.25-24.25-24.25-6.84,0-13.01,2.83-17.41,7.38-4.41-4.55-10.58-7.38-17.41-7.38-13.39,0-24.25,10.86-24.25,24.25,0,6.9,2.89,13.12,7.51,17.54l34.17,34.17,34.29-34.29-.03-.03c4.54-4.41,7.37-10.57,7.37-17.4Z"/>
  <path class="cls-4" d="M344.31,142.04c0-13.39-10.86-24.25-24.25-24.25-6.84,0-13.01,2.83-17.41,7.38-4.41-4.55-10.58-7.38-17.41-7.38-13.39,0-24.25,10.86-24.25,24.25,0,6.9,2.89,13.12,7.51,17.54l34.17,34.17,34.29-34.29-.03-.03c4.54-4.41,7.37-10.57,7.37-17.4Z"/>
  <path class="cls-3" d="M376.54,303.66c0-13.39-10.86-24.25-24.25-24.25-6.84,0-13.01,2.83-17.41,7.38-4.41-4.55-10.58-7.38-17.41-7.38-13.39,0-24.25,10.86-24.25,24.25,0,6.9,2.89,13.12,7.51,17.54l34.17,34.17,34.29-34.29-.03-.03c4.54-4.41,7.37-10.57,7.37-17.4Z"/>
  <path class="cls-4" d="M505.66,251.11c0-13.39-10.86-24.25-24.25-24.25-6.84,0-13.01,2.83-17.41,7.38-4.41-4.55-10.58-7.38-17.41-7.38-13.39,0-24.25,10.86-24.25,24.25,0,6.9,2.89,13.12,7.51,17.54l34.17,34.17,34.29-34.29-.03-.03c4.54-4.41,7.37-10.57,7.37-17.4Z"/>
  <path class="cls-4" d="M158.83,120.12c0-13.39-10.86-24.25-24.25-24.25-6.84,0-13.01,2.83-17.41,7.38-4.41-4.55-10.58-7.38-17.41-7.38-13.39,0-24.25,10.86-24.25,24.25,0,6.9,2.89,13.12,7.51,17.54l34.17,34.17,34.29-34.29-.03-.03c4.54-4.41,7.37-10.57,7.37-17.4Z"/>
  <path class="cls-2" d="M469.1,158.09c0-13.39-10.86-24.25-24.25-24.25-6.84,0-13.01,2.83-17.41,7.38-4.41-4.55-10.58-7.38-17.41-7.38-13.39,0-24.25,10.86-24.25,24.25,0,6.9,2.89,13.12,7.51,17.54l34.17,34.17,34.29-34.29-.03-.03c4.54-4.41,7.37-10.57,7.37-17.4Z"/>
  <path class="cls-2" d="M185.8,234.05c0-13.39-10.86-24.25-24.25-24.25-6.84,0-13.01,2.83-17.41,7.38-4.41-4.55-10.58-7.38-17.41-7.38-13.39,0-24.25,10.86-24.25,24.25,0,6.9,2.89,13.12,7.51,17.54l34.17,34.17,34.29-34.29-.03-.03c4.54-4.41,7.37-10.57,7.37-17.4Z"/>
  <path class="cls-2" d="M336.95,41.88c0-13.39-10.86-24.25-24.25-24.25-6.84,0-13.01,2.83-17.41,7.38-4.41-4.55-10.58-7.38-17.41-7.38-13.39,0-24.25,10.86-24.25,24.25,0,6.9,2.89,13.12,7.51,17.54l34.17,34.17,34.29-34.29-.03-.03c4.54-4.41,7.37-10.57,7.37-17.4Z"/>
  <path class="cls-1" d="M400.62,214.44c0-13.39-10.86-24.25-24.25-24.25-6.84,0-13.01,2.83-17.41,7.38-4.41-4.55-10.58-7.38-17.41-7.38-13.39,0-24.25,10.86-24.25,24.25,0,6.9,2.89,13.12,7.51,17.54l34.17,34.17,34.29-34.29-.03-.03c4.54-4.41,7.37-10.57,7.37-17.4Z"/>
  <path class="cls-1" d="M420.27,91.18c0-13.39-10.86-24.25-24.25-24.25-6.84,0-13.01,2.83-17.41,7.38-4.41-4.55-10.58-7.38-17.41-7.38-13.39,0-24.25,10.86-24.25,24.25,0,6.9,2.89,13.12,7.51,17.54l34.17,34.17,34.29-34.29-.03-.03c4.54-4.41,7.37-10.57,7.37-17.4Z"/>
  <path class="cls-2" d="M282.61,272.03c0-13.39-10.86-24.25-24.25-24.25-6.84,0-13.01,2.83-17.41,7.38-4.41-4.55-10.58-7.38-17.41-7.38-13.39,0-24.25,10.86-24.25,24.25,0,6.9,2.89,13.12,7.51,17.54l34.17,34.17,34.29-34.29-.03-.03c4.54-4.41,7.37-10.57,7.37-17.4Z"/>
  <path class="cls-3" d="M251.57,73.57c0-13.39-10.86-24.25-24.25-24.25-6.84,0-13.01,2.83-17.41,7.38-4.41-4.55-10.58-7.38-17.41-7.38-13.39,0-24.25,10.86-24.25,24.25,0,6.9,2.89,13.12,7.51,17.54l34.17,34.17,34.29-34.29-.03-.03c4.54-4.41,7.37-10.57,7.37-17.4Z"/>
</svg>