<?xml version="1.0" encoding="UTF-8"?>
<svg id="Calque_2" data-name="Calque 2" xmlns="http://www.w3.org/2000/svg" viewBox="0 0 603.23 390.68">
  <defs>
    <style>
      .cls-1 {
        fill: #ff9d10;
      }

      .cls-1, .cls-2, .cls-3, .cls-4 {
        stroke: #000;
        stroke-miterlimit: 10;
        stroke-width: 3px;
      }

      .cls-2 {
        fill: #fff842;
      }

      .cls-3 {
        fill: #ff3e32;
      }

      .cls-4 {
        fill: #55f;
      }
    </style>
  </defs>
  <polygon class="cls-2" points="96.65 42.02 104.99 67.69 131.99 67.69 110.15 83.56 118.49 109.24 96.65 93.37 74.8 109.24 83.15 83.56 61.3 67.69 88.3 67.69 96.65 42.02"/>
  <polygon class="cls-1" points="264.08 204.18 272.42 229.86 299.42 229.86 277.58 245.73 285.92 271.4 264.08 255.53 242.24 271.4 250.58 245.73 228.74 229.86 255.74 229.86 264.08 204.18"/>
  <polygon class="cls-1" points="264.08 204.18 272.42 229.86 299.42 229.86 277.58 245.73 285.92 271.4 264.08 255.53 242.24 271.4 250.58 245.73 228.74 229.86 255.74 229.86 264.08 204.18"/>
  <polygon class="cls-1" points="264.08 204.18 272.42 229.86 299.42 229.86 277.58 245.73 285.92 271.4 264.08 255.53 242.24 271.4 250.58 245.73 228.74 229.86 255.74 229.86 264.08 204.18"/>
  <polygon class="cls-1" points="264.08 204.18 272.42 229.86 299.42 229.86 277.58 245.73 285.92 271.4 264.08 255.53 242.24 271.4 250.58 245.73 228.74 229.86 255.74 229.86 264.08 204.18"/>
  <polygon class="cls-1" points="264.08 204.18 272.42 229.86 299.42 229.86 277.58 245.73 285.92 271.4 264.08 255.53 242.24 271.4 250.58 245.73 228.74 229.86 255.74 229.86 264.08 204.18"/>
  <polygon class="cls-3" points="264.08 204.18 272.42 229.86 299.42 229.86 277.58 245.73 285.92 271.4 264.08 255.53 242.24 271.4 250.58 245.73 228.74 229.86 255.74 229.86 264.08 204.18"/>
  <polygon class="cls-3" points="39.96 140.96 48.3 166.64 75.3 166.64 53.46 182.51 61.8 208.19 39.96 192.32 18.12 208.19 26.46 182.51 4.62 166.64 31.62 166.64 39.96 140.96"/>
  <polygon class="cls-4" points="216.65 98.02 224.99 123.69 251.99 123.69 230.15 139.56 238.49 165.24 216.65 149.37 194.8 165.24 203.15 139.56 181.3 123.69 208.3 123.69 216.65 98.02"/>
  <polygon class="cls-2" points="299.42 45.56 307.77 71.24 334.77 71.24 312.92 87.11 321.27 112.79 299.42 96.92 277.58 112.79 285.92 87.11 264.08 71.24 291.08 71.24 299.42 45.56"/>
  <polygon class="cls-4" points="145.96 152.58 154.3 178.25 181.3 178.25 159.46 194.12 167.8 219.8 145.96 203.93 124.12 219.8 132.46 194.12 110.62 178.25 137.62 178.25 145.96 152.58"/>
  <polygon class="cls-2" points="187.65 4.85 195.99 30.53 222.99 30.53 201.15 46.4 209.49 72.08 187.65 56.21 165.8 72.08 174.15 46.4 152.3 30.53 179.3 30.53 187.65 4.85"/>
  <polygon class="cls-2" points="306.96 131.63 315.3 157.31 342.3 157.31 320.46 173.18 328.8 198.86 306.96 182.99 285.12 198.86 293.46 173.18 271.62 157.31 298.62 157.31 306.96 131.63"/>
  <polygon class="cls-2" points="83.58 226.03 91.92 251.71 118.92 251.71 97.08 267.58 105.42 293.25 83.58 277.38 61.73 293.25 70.08 267.58 48.23 251.71 75.23 251.71 83.58 226.03"/>
  <polygon class="cls-4" points="397.65 208.19 405.99 233.87 432.99 233.87 411.15 249.74 419.49 275.42 397.65 259.55 375.8 275.42 384.15 249.74 362.3 233.87 389.3 233.87 397.65 208.19"/>
  <polygon class="cls-3" points="377.65 98.02 385.99 123.69 412.99 123.69 391.15 139.56 399.49 165.24 377.65 149.37 355.8 165.24 364.15 139.56 342.3 123.69 369.3 123.69 377.65 98.02"/>
</svg>