<?xml version="1.0" encoding="UTF-8"?>
<svg id="Calque_2" data-name="Calque 2" xmlns="http://www.w3.org/2000/svg" viewBox="0 0 609.22 574.7">
  <defs>
    <style>
      .cls-1 {
        fill: #ffd155;
        stroke: #000;
        stroke-miterlimit: 10;
        stroke-width: 3px;
      }
    </style>
  </defs>
  <path class="cls-1" d="M207.69,340.9s-31.3,26.61-34.43,31.3-14.09,17.22,0,14.09,31.3,4.12,46.96.5,9.39,35.46,31.3,19.05c21.91-16.41,26.61-17.98,17.22-43.02s-23.48-21.91-42.26-21.91h-18.78Z"/>
  <path class="cls-1" d="M306.56,207.58s-31.3,26.61-34.43,31.3-14.09,17.22,0,14.09,31.3,4.12,46.96.5,9.39,35.46,31.3,19.05c21.91-16.41,26.61-17.98,17.22-43.02-9.39-25.04-23.48-21.91-42.26-21.91h-18.78Z"/>
  <path class="cls-1" d="M63.69,228.73s-31.3,26.61-34.43,31.3-14.09,17.22,0,14.09,31.3,4.12,46.96.5,9.39,35.46,31.3,19.05,26.61-17.98,17.22-43.02-23.48-21.91-42.26-21.91h-18.78Z"/>
  <path class="cls-1" d="M245.52,137.01s-31.3,26.61-34.43,31.3-14.09,17.22,0,14.09,31.3,4.12,46.96.5,9.39,35.46,31.3,19.05c21.91-16.41,26.61-17.98,17.22-43.02s-23.48-21.91-42.26-21.91h-18.78Z"/>
  <path class="cls-1" d="M129.26,166.63s-31.98,29.08-35.17,34.21-14.39,18.82,0,15.39,31.98,4.51,47.96.54c15.99-3.96,9.59,38.75,31.98,20.82,22.38-17.94,27.18-19.65,17.59-47.02-9.59-27.37-23.98-23.95-43.17-23.95h-19.19Z"/>
  <path class="cls-1" d="M428.9,161.39s-31.3,26.61-34.43,31.3-14.09,17.22,0,14.09,31.3,4.12,46.96.5,9.39,35.46,31.3,19.05c21.91-16.41,26.61-17.98,17.22-43.02-9.39-25.04-23.48-21.91-42.26-21.91h-18.78Z"/>
  <path class="cls-1" d="M299.06,422.27s-31.3,26.61-34.43,31.3-14.09,17.22,0,14.09,31.3,4.12,46.96.5,9.39,35.46,31.3,19.05c21.91-16.41,26.61-17.98,17.22-43.02-9.39-25.04-23.48-21.91-42.26-21.91h-18.78Z"/>
  <path class="cls-1" d="M108.54,407.38s-31.3,26.61-34.43,31.3-14.09,17.22,0,14.09,31.3,4.12,46.96.5,9.39,35.46,31.3,19.05c21.91-16.41,26.61-17.98,17.22-43.02-9.39-25.04-23.48-21.91-42.26-21.91h-18.78Z"/>
  <path class="cls-1" d="M542.09,370.76s-31.3,26.61-34.43,31.3c-3.13,4.7-14.09,17.22,0,14.09,14.09-3.13,31.3,4.12,46.96.5s9.39,35.46,31.3,19.05c21.91-16.41,26.61-17.98,17.22-43.02-9.39-25.04-23.48-21.91-42.26-21.91h-18.78Z"/>
  <path class="cls-1" d="M93.43,305.69s-31.3,26.61-34.43,31.3-14.09,17.22,0,14.09,31.3,4.12,46.96.5,9.39,35.46,31.3,19.05c21.91-16.41,26.61-17.98,17.22-43.02s-23.48-21.91-42.26-21.91h-18.78Z"/>
  <path class="cls-1" d="M389.31,358.58s-31.3,26.61-34.43,31.3-14.09,17.22,0,14.09,31.3,4.12,46.96.5,9.39,35.46,31.3,19.05c21.91-16.41,26.61-17.98,17.22-43.02-9.39-25.04-23.48-21.91-42.26-21.91h-18.78Z"/>
  <path class="cls-1" d="M428.9,256.97s-31.3,26.61-34.43,31.3-14.09,17.22,0,14.09,31.3,4.12,46.96.5,9.39,35.46,31.3,19.05c21.91-16.41,26.61-17.98,17.22-43.02-9.39-25.04-23.48-21.91-42.26-21.91h-18.78Z"/>
  <path class="cls-1" d="M191.98,256.97s-31.3,26.61-34.43,31.3-14.09,17.22,0,14.09,31.3,4.12,46.96.5,9.39,35.46,31.3,19.05,26.61-17.98,17.22-43.02-23.48-21.91-42.26-21.91h-18.78Z"/>
  <path class="cls-1" d="M306.56,291.52s-31.3,26.61-34.43,31.3-14.09,17.22,0,14.09,31.3,4.12,46.96.5,9.39,35.46,31.3,19.05c21.91-16.41,26.61-17.98,17.22-43.02-9.39-25.04-23.48-21.91-42.26-21.91h-18.78Z"/>
</svg>