<?xml version="1.0" encoding="UTF-8"?>
<svg id="Calque_2" data-name="Calque 2" xmlns="http://www.w3.org/2000/svg" viewBox="0 0 632.14 574.7">
  <defs>
    <style>
      .cls-1 {
        stroke-width: 6px;
      }

      .cls-1, .cls-2 {
        fill: #6f8800;
        stroke: #000;
        stroke-miterlimit: 10;
      }

      .cls-2 {
        stroke-width: 3px;
      }
    </style>
  </defs>
  <g>
    <path class="cls-1" d="M294.73,284.75s-137.35,34.04-181.96-90.39c0,0,166.7-12.91,181.96,90.39Z"/>
    <path class="cls-2" d="M294.73,284.75s-62.27-48.87-113.87-52.83"/>
  </g>
  <path class="cls-1" d="M309.66,369.02s-162.87,136.11-304.75-2.4c0,0,216.32-126.89,304.75,2.4Z"/>
  <path class="cls-2" d="M309.66,369.02s-116.07-25.01-188.26,3.54"/>
  <path class="cls-1" d="M344.4,485.89s-92.5,69.56-165.88-9.84c0,0,121.35-63.04,165.88,9.84Z"/>
  <path class="cls-2" d="M344.4,485.89s-62.5-16.87-102.61-3.34"/>
  <g>
    <path class="cls-1" d="M302.73,304.59s62.9,15.59,83.33-41.4c0,0-76.34-5.91-83.33,41.4Z"/>
    <path class="cls-2" d="M302.73,304.59s28.52-22.38,52.15-24.19"/>
  </g>
  <g>
    <path class="cls-1" d="M319.3,412.56s233.01,57.75,308.69-153.35c0,0-282.8-21.91-308.69,153.35Z"/>
    <path class="cls-2" d="M319.3,412.56s105.64-82.91,193.18-89.62"/>
  </g>
  <g>
    <path class="cls-1" d="M367.78,490.51s72.63,18,96.21-47.8c0,0-88.14-6.83-96.21,47.8Z"/>
    <path class="cls-2" d="M367.78,490.51s32.93-25.84,60.21-27.93"/>
  </g>
  <g>
    <path class="cls-1" d="M319.3,235.73s183.83,45.57,243.54-120.98c0,0-223.12-17.28-243.54,120.98Z"/>
    <path class="cls-2" d="M319.3,235.73s83.34-65.41,152.41-70.71"/>
  </g>
</svg>