<?xml version="1.0" encoding="UTF-8"?>
<svg id="Calque_2" data-name="Calque 2" xmlns="http://www.w3.org/2000/svg" viewBox="0 0 581.17 373.35">
  <defs>
    <style>
      .cls-1 {
        fill: #ff3e32;
        stroke: #ff99ef;
        stroke-miterlimit: 10;
        stroke-width: 3px;
      }
    </style>
  </defs>
  <g>
    <polygon class="cls-1" points="130.2 259.28 135.05 260.39 137.61 256.13 138.04 261.08 142.89 262.2 138.31 264.14 138.75 269.1 135.49 265.35 130.91 267.29 133.47 263.03 130.2 259.28"/>
    <polygon class="cls-1" points="128.6 233.36 125.21 237 127.63 241.35 123.12 239.25 119.73 242.89 120.33 237.95 115.82 235.85 120.7 234.9 121.31 229.96 123.72 234.31 128.6 233.36"/>
    <polygon class="cls-1" points="151.85 244.93 150.39 240.18 145.42 240.09 149.49 237.24 148.03 232.48 152.01 235.47 156.08 232.62 154.46 237.32 158.44 240.31 153.46 240.23 151.85 244.93"/>
  </g>
  <g>
    <polygon class="cls-1" points="313.04 252.07 317.88 253.19 320.44 248.92 320.88 253.88 325.72 254.99 321.15 256.94 321.58 261.89 318.32 258.14 313.74 260.09 316.3 255.82 313.04 252.07"/>
    <polygon class="cls-1" points="311.43 226.16 308.04 229.8 310.46 234.14 305.95 232.04 302.56 235.68 303.16 230.75 298.65 228.65 303.54 227.7 304.14 222.76 306.55 227.11 311.43 226.16"/>
    <polygon class="cls-1" points="334.68 237.73 333.22 232.97 328.25 232.89 332.32 230.03 330.87 225.28 334.84 228.27 338.91 225.41 337.29 230.12 341.27 233.11 336.3 233.02 334.68 237.73"/>
  </g>
  <g>
    <polygon class="cls-1" points="241.53 141.24 246.38 142.35 248.94 138.09 249.37 143.04 254.22 144.16 249.64 146.1 250.08 151.06 246.81 147.31 242.24 149.25 244.8 144.99 241.53 141.24"/>
    <polygon class="cls-1" points="239.93 115.32 236.54 118.96 238.95 123.31 234.44 121.21 231.05 124.85 231.66 119.91 227.15 117.81 232.03 116.86 232.63 111.92 235.05 116.27 239.93 115.32"/>
    <polygon class="cls-1" points="263.17 126.89 261.72 122.14 256.74 122.05 260.82 119.2 259.36 114.44 263.33 117.43 267.41 114.58 265.79 119.28 269.76 122.27 264.79 122.19 263.17 126.89"/>
  </g>
  <g>
    <polygon class="cls-1" points="412.25 160.46 417.1 161.57 419.66 157.31 420.09 162.26 424.94 163.38 420.36 165.32 420.8 170.28 417.53 166.53 412.96 168.47 415.52 164.21 412.25 160.46"/>
    <polygon class="cls-1" points="410.65 134.54 407.26 138.18 409.67 142.53 405.16 140.43 401.78 144.07 402.38 139.13 397.87 137.03 402.75 136.08 403.35 131.14 405.77 135.49 410.65 134.54"/>
    <polygon class="cls-1" points="433.89 146.11 432.44 141.36 427.47 141.27 431.54 138.42 430.08 133.66 434.05 136.65 438.13 133.8 436.51 138.5 440.48 141.49 435.51 141.41 433.89 146.11"/>
  </g>
  <g>
    <polygon class="cls-1" points="384.54 224.36 389.39 225.48 391.95 221.22 392.38 226.17 397.23 227.29 392.65 229.23 393.09 234.19 389.83 230.43 385.25 232.38 387.81 228.12 384.54 224.36"/>
    <polygon class="cls-1" points="382.94 198.45 379.55 202.09 381.96 206.44 377.46 204.34 374.07 207.98 374.67 203.04 370.16 200.94 375.04 199.99 375.64 195.05 378.06 199.4 382.94 198.45"/>
    <polygon class="cls-1" points="406.19 210.02 404.73 205.26 399.76 205.18 403.83 202.32 402.37 197.57 406.35 200.56 410.42 197.7 408.8 202.41 412.77 205.4 407.8 205.31 406.19 210.02"/>
  </g>
  <g>
    <polygon class="cls-1" points="285.33 295.51 290.17 296.62 292.73 292.36 293.17 297.31 298.02 298.43 293.44 300.38 293.88 305.33 290.61 301.58 286.03 303.52 288.59 299.26 285.33 295.51"/>
    <polygon class="cls-1" points="283.72 269.59 280.34 273.23 282.75 277.58 278.24 275.48 274.85 279.12 275.45 274.18 270.95 272.08 275.83 271.13 276.43 266.2 278.84 270.54 283.72 269.59"/>
    <polygon class="cls-1" points="306.97 281.16 305.51 276.41 300.54 276.32 304.61 273.47 303.16 268.71 307.13 271.7 311.2 268.85 309.59 273.55 313.56 276.54 308.59 276.46 306.97 281.16"/>
  </g>
  <g>
    <polygon class="cls-1" points="170.79 295.51 175.63 296.62 178.19 292.36 178.63 297.31 183.47 298.43 178.9 300.38 179.33 305.33 176.07 301.58 171.49 303.52 174.05 299.26 170.79 295.51"/>
    <polygon class="cls-1" points="169.18 269.59 165.8 273.23 168.21 277.58 163.7 275.48 160.31 279.12 160.91 274.18 156.41 272.08 161.29 271.13 161.89 266.2 164.3 270.54 169.18 269.59"/>
    <polygon class="cls-1" points="192.43 281.16 190.97 276.41 186 276.32 190.07 273.47 188.62 268.71 192.59 271.7 196.66 268.85 195.05 273.55 199.02 276.54 194.05 276.46 192.43 281.16"/>
  </g>
  <g>
    <polygon class="cls-1" points="304.2 203.86 309.04 204.97 311.6 200.71 312.04 205.66 316.88 206.78 312.31 208.73 312.74 213.68 309.48 209.93 304.9 211.87 307.46 207.61 304.2 203.86"/>
    <polygon class="cls-1" points="302.59 177.94 299.2 181.58 301.62 185.93 297.11 183.83 293.72 187.47 294.32 182.53 289.81 180.43 294.7 179.48 295.3 174.55 297.71 178.89 302.59 177.94"/>
    <polygon class="cls-1" points="325.84 189.51 324.38 184.76 319.41 184.67 323.48 181.82 322.02 177.06 326 180.05 330.07 177.2 328.45 181.9 332.43 184.89 327.46 184.81 325.84 189.51"/>
  </g>
  <g>
    <polygon class="cls-1" points="233.21 196.66 238.06 197.77 240.62 193.51 241.05 198.46 245.9 199.58 241.32 201.52 241.76 206.48 238.49 202.73 233.92 204.67 236.48 200.41 233.21 196.66"/>
    <polygon class="cls-1" points="231.61 170.74 228.22 174.38 230.63 178.73 226.12 176.63 222.73 180.27 223.34 175.33 218.83 173.23 223.71 172.28 224.31 167.34 226.73 171.69 231.61 170.74"/>
    <polygon class="cls-1" points="254.85 182.31 253.4 177.55 248.42 177.47 252.5 174.62 251.04 169.86 255.01 172.85 259.08 170 257.47 174.7 261.44 177.69 256.47 177.61 254.85 182.31"/>
  </g>
  <g>
    <polygon class="cls-1" points="233.21 267.8 238.06 268.92 240.62 264.65 241.05 269.61 245.9 270.72 241.32 272.67 241.76 277.62 238.49 273.87 233.92 275.82 236.48 271.55 233.21 267.8"/>
    <polygon class="cls-1" points="231.61 241.88 228.22 245.52 230.63 249.87 226.12 247.77 222.73 251.41 223.34 246.47 218.83 244.38 223.71 243.42 224.31 238.49 226.73 242.84 231.61 241.88"/>
    <polygon class="cls-1" points="254.85 253.45 253.4 248.7 248.42 248.62 252.5 245.76 251.04 241.01 255.01 244 259.08 241.14 257.47 245.84 261.44 248.83 256.47 248.75 254.85 253.45"/>
  </g>
  <g>
    <polygon class="cls-1" points="233.21 267.8 238.06 268.92 240.62 264.65 241.05 269.61 245.9 270.72 241.32 272.67 241.76 277.62 238.49 273.87 233.92 275.82 236.48 271.55 233.21 267.8"/>
    <polygon class="cls-1" points="231.61 241.88 228.22 245.52 230.63 249.87 226.12 247.77 222.73 251.41 223.34 246.47 218.83 244.38 223.71 243.42 224.31 238.49 226.73 242.84 231.61 241.88"/>
    <polygon class="cls-1" points="254.85 253.45 253.4 248.7 248.42 248.62 252.5 245.76 251.04 241.01 255.01 244 259.08 241.14 257.47 245.84 261.44 248.83 256.47 248.75 254.85 253.45"/>
  </g>
  <g>
    <polygon class="cls-1" points="233.21 267.8 238.06 268.92 240.62 264.65 241.05 269.61 245.9 270.72 241.32 272.67 241.76 277.62 238.49 273.87 233.92 275.82 236.48 271.55 233.21 267.8"/>
    <polygon class="cls-1" points="231.61 241.88 228.22 245.52 230.63 249.87 226.12 247.77 222.73 251.41 223.34 246.47 218.83 244.38 223.71 243.42 224.31 238.49 226.73 242.84 231.61 241.88"/>
    <polygon class="cls-1" points="254.85 253.45 253.4 248.7 248.42 248.62 252.5 245.76 251.04 241.01 255.01 244 259.08 241.14 257.47 245.84 261.44 248.83 256.47 248.75 254.85 253.45"/>
  </g>
  <g>
    <polygon class="cls-1" points="233.21 267.8 238.06 268.92 240.62 264.65 241.05 269.61 245.9 270.72 241.32 272.67 241.76 277.62 238.49 273.87 233.92 275.82 236.48 271.55 233.21 267.8"/>
    <polygon class="cls-1" points="231.61 241.88 228.22 245.52 230.63 249.87 226.12 247.77 222.73 251.41 223.34 246.47 218.83 244.38 223.71 243.42 224.31 238.49 226.73 242.84 231.61 241.88"/>
    <polygon class="cls-1" points="254.85 253.45 253.4 248.7 248.42 248.62 252.5 245.76 251.04 241.01 255.01 244 259.08 241.14 257.47 245.84 261.44 248.83 256.47 248.75 254.85 253.45"/>
  </g>
  <g>
    <polygon class="cls-1" points="233.21 267.8 238.06 268.92 240.62 264.65 241.05 269.61 245.9 270.72 241.32 272.67 241.76 277.62 238.49 273.87 233.92 275.82 236.48 271.55 233.21 267.8"/>
    <polygon class="cls-1" points="231.61 241.88 228.22 245.52 230.63 249.87 226.12 247.77 222.73 251.41 223.34 246.47 218.83 244.38 223.71 243.42 224.31 238.49 226.73 242.84 231.61 241.88"/>
    <polygon class="cls-1" points="254.85 253.45 253.4 248.7 248.42 248.62 252.5 245.76 251.04 241.01 255.01 244 259.08 241.14 257.47 245.84 261.44 248.83 256.47 248.75 254.85 253.45"/>
  </g>
  <g>
    <polygon class="cls-1" points="233.21 267.8 238.06 268.92 240.62 264.65 241.05 269.61 245.9 270.72 241.32 272.67 241.76 277.62 238.49 273.87 233.92 275.82 236.48 271.55 233.21 267.8"/>
    <polygon class="cls-1" points="231.61 241.88 228.22 245.52 230.63 249.87 226.12 247.77 222.73 251.41 223.34 246.47 218.83 244.38 223.71 243.42 224.31 238.49 226.73 242.84 231.61 241.88"/>
    <polygon class="cls-1" points="254.85 253.45 253.4 248.7 248.42 248.62 252.5 245.76 251.04 241.01 255.01 244 259.08 241.14 257.47 245.84 261.44 248.83 256.47 248.75 254.85 253.45"/>
  </g>
  <g>
    <polygon class="cls-1" points="233.21 267.8 238.06 268.92 240.62 264.65 241.05 269.61 245.9 270.72 241.32 272.67 241.76 277.62 238.49 273.87 233.92 275.82 236.48 271.55 233.21 267.8"/>
    <polygon class="cls-1" points="231.61 241.88 228.22 245.52 230.63 249.87 226.12 247.77 222.73 251.41 223.34 246.47 218.83 244.38 223.71 243.42 224.31 238.49 226.73 242.84 231.61 241.88"/>
    <polygon class="cls-1" points="254.85 253.45 253.4 248.7 248.42 248.62 252.5 245.76 251.04 241.01 255.01 244 259.08 241.14 257.47 245.84 261.44 248.83 256.47 248.75 254.85 253.45"/>
  </g>
  <g>
    <polygon class="cls-1" points="233.21 267.8 238.06 268.92 240.62 264.65 241.05 269.61 245.9 270.72 241.32 272.67 241.76 277.62 238.49 273.87 233.92 275.82 236.48 271.55 233.21 267.8"/>
    <polygon class="cls-1" points="231.61 241.88 228.22 245.52 230.63 249.87 226.12 247.77 222.73 251.41 223.34 246.47 218.83 244.38 223.71 243.42 224.31 238.49 226.73 242.84 231.61 241.88"/>
    <polygon class="cls-1" points="254.85 253.45 253.4 248.7 248.42 248.62 252.5 245.76 251.04 241.01 255.01 244 259.08 241.14 257.47 245.84 261.44 248.83 256.47 248.75 254.85 253.45"/>
  </g>
  <g>
    <polygon class="cls-1" points="233.21 267.8 238.06 268.92 240.62 264.65 241.05 269.61 245.9 270.72 241.32 272.67 241.76 277.62 238.49 273.87 233.92 275.82 236.48 271.55 233.21 267.8"/>
    <polygon class="cls-1" points="231.61 241.88 228.22 245.52 230.63 249.87 226.12 247.77 222.73 251.41 223.34 246.47 218.83 244.38 223.71 243.42 224.31 238.49 226.73 242.84 231.61 241.88"/>
    <polygon class="cls-1" points="254.85 253.45 253.4 248.7 248.42 248.62 252.5 245.76 251.04 241.01 255.01 244 259.08 241.14 257.47 245.84 261.44 248.83 256.47 248.75 254.85 253.45"/>
  </g>
  <g>
    <polygon class="cls-1" points="233.21 267.8 238.06 268.92 240.62 264.65 241.05 269.61 245.9 270.72 241.32 272.67 241.76 277.62 238.49 273.87 233.92 275.82 236.48 271.55 233.21 267.8"/>
    <polygon class="cls-1" points="231.61 241.88 228.22 245.52 230.63 249.87 226.12 247.77 222.73 251.41 223.34 246.47 218.83 244.38 223.71 243.42 224.31 238.49 226.73 242.84 231.61 241.88"/>
    <polygon class="cls-1" points="254.85 253.45 253.4 248.7 248.42 248.62 252.5 245.76 251.04 241.01 255.01 244 259.08 241.14 257.47 245.84 261.44 248.83 256.47 248.75 254.85 253.45"/>
  </g>
  <g>
    <polygon class="cls-1" points="233.21 267.8 238.06 268.92 240.62 264.65 241.05 269.61 245.9 270.72 241.32 272.67 241.76 277.62 238.49 273.87 233.92 275.82 236.48 271.55 233.21 267.8"/>
    <polygon class="cls-1" points="231.61 241.88 228.22 245.52 230.63 249.87 226.12 247.77 222.73 251.41 223.34 246.47 218.83 244.38 223.71 243.42 224.31 238.49 226.73 242.84 231.61 241.88"/>
    <polygon class="cls-1" points="254.85 253.45 253.4 248.7 248.42 248.62 252.5 245.76 251.04 241.01 255.01 244 259.08 241.14 257.47 245.84 261.44 248.83 256.47 248.75 254.85 253.45"/>
  </g>
  <g>
    <polygon class="cls-1" points="233.21 267.8 238.06 268.92 240.62 264.65 241.05 269.61 245.9 270.72 241.32 272.67 241.76 277.62 238.49 273.87 233.92 275.82 236.48 271.55 233.21 267.8"/>
    <polygon class="cls-1" points="231.61 241.88 228.22 245.52 230.63 249.87 226.12 247.77 222.73 251.41 223.34 246.47 218.83 244.38 223.71 243.42 224.31 238.49 226.73 242.84 231.61 241.88"/>
    <polygon class="cls-1" points="254.85 253.45 253.4 248.7 248.42 248.62 252.5 245.76 251.04 241.01 255.01 244 259.08 241.14 257.47 245.84 261.44 248.83 256.47 248.75 254.85 253.45"/>
  </g>
  <g>
    <polygon class="cls-1" points="233.21 267.8 238.06 268.92 240.62 264.65 241.05 269.61 245.9 270.72 241.32 272.67 241.76 277.62 238.49 273.87 233.92 275.82 236.48 271.55 233.21 267.8"/>
    <polygon class="cls-1" points="231.61 241.88 228.22 245.52 230.63 249.87 226.12 247.77 222.73 251.41 223.34 246.47 218.83 244.38 223.71 243.42 224.31 238.49 226.73 242.84 231.61 241.88"/>
    <polygon class="cls-1" points="254.85 253.45 253.4 248.7 248.42 248.62 252.5 245.76 251.04 241.01 255.01 244 259.08 241.14 257.47 245.84 261.44 248.83 256.47 248.75 254.85 253.45"/>
  </g>
  <g>
    <polygon class="cls-1" points="233.21 267.8 238.06 268.92 240.62 264.65 241.05 269.61 245.9 270.72 241.32 272.67 241.76 277.62 238.49 273.87 233.92 275.82 236.48 271.55 233.21 267.8"/>
    <polygon class="cls-1" points="231.61 241.88 228.22 245.52 230.63 249.87 226.12 247.77 222.73 251.41 223.34 246.47 218.83 244.38 223.71 243.42 224.31 238.49 226.73 242.84 231.61 241.88"/>
    <polygon class="cls-1" points="254.85 253.45 253.4 248.7 248.42 248.62 252.5 245.76 251.04 241.01 255.01 244 259.08 241.14 257.47 245.84 261.44 248.83 256.47 248.75 254.85 253.45"/>
  </g>
  <g>
    <polygon class="cls-1" points="233.21 267.8 238.06 268.92 240.62 264.65 241.05 269.61 245.9 270.72 241.32 272.67 241.76 277.62 238.49 273.87 233.92 275.82 236.48 271.55 233.21 267.8"/>
    <polygon class="cls-1" points="231.61 241.88 228.22 245.52 230.63 249.87 226.12 247.77 222.73 251.41 223.34 246.47 218.83 244.38 223.71 243.42 224.31 238.49 226.73 242.84 231.61 241.88"/>
    <polygon class="cls-1" points="254.85 253.45 253.4 248.7 248.42 248.62 252.5 245.76 251.04 241.01 255.01 244 259.08 241.14 257.47 245.84 261.44 248.83 256.47 248.75 254.85 253.45"/>
  </g>
  <g>
    <polygon class="cls-1" points="233.21 267.8 238.06 268.92 240.62 264.65 241.05 269.61 245.9 270.72 241.32 272.67 241.76 277.62 238.49 273.87 233.92 275.82 236.48 271.55 233.21 267.8"/>
    <polygon class="cls-1" points="231.61 241.88 228.22 245.52 230.63 249.87 226.12 247.77 222.73 251.41 223.34 246.47 218.83 244.38 223.71 243.42 224.31 238.49 226.73 242.84 231.61 241.88"/>
    <polygon class="cls-1" points="254.85 253.45 253.4 248.7 248.42 248.62 252.5 245.76 251.04 241.01 255.01 244 259.08 241.14 257.47 245.84 261.44 248.83 256.47 248.75 254.85 253.45"/>
  </g>
  <g>
    <polygon class="cls-1" points="233.21 267.8 238.06 268.92 240.62 264.65 241.05 269.61 245.9 270.72 241.32 272.67 241.76 277.62 238.49 273.87 233.92 275.82 236.48 271.55 233.21 267.8"/>
    <polygon class="cls-1" points="231.61 241.88 228.22 245.52 230.63 249.87 226.12 247.77 222.73 251.41 223.34 246.47 218.83 244.38 223.71 243.42 224.31 238.49 226.73 242.84 231.61 241.88"/>
    <polygon class="cls-1" points="254.85 253.45 253.4 248.7 248.42 248.62 252.5 245.76 251.04 241.01 255.01 244 259.08 241.14 257.47 245.84 261.44 248.83 256.47 248.75 254.85 253.45"/>
  </g>
  <g>
    <polygon class="cls-1" points="233.21 267.8 238.06 268.92 240.62 264.65 241.05 269.61 245.9 270.72 241.32 272.67 241.76 277.62 238.49 273.87 233.92 275.82 236.48 271.55 233.21 267.8"/>
    <polygon class="cls-1" points="231.61 241.88 228.22 245.52 230.63 249.87 226.12 247.77 222.73 251.41 223.34 246.47 218.83 244.38 223.71 243.42 224.31 238.49 226.73 242.84 231.61 241.88"/>
    <polygon class="cls-1" points="254.85 253.45 253.4 248.7 248.42 248.62 252.5 245.76 251.04 241.01 255.01 244 259.08 241.14 257.47 245.84 261.44 248.83 256.47 248.75 254.85 253.45"/>
  </g>
  <g>
    <polygon class="cls-1" points="233.21 267.8 238.06 268.92 240.62 264.65 241.05 269.61 245.9 270.72 241.32 272.67 241.76 277.62 238.49 273.87 233.92 275.82 236.48 271.55 233.21 267.8"/>
    <polygon class="cls-1" points="231.61 241.88 228.22 245.52 230.63 249.87 226.12 247.77 222.73 251.41 223.34 246.47 218.83 244.38 223.71 243.42 224.31 238.49 226.73 242.84 231.61 241.88"/>
    <polygon class="cls-1" points="254.85 253.45 253.4 248.7 248.42 248.62 252.5 245.76 251.04 241.01 255.01 244 259.08 241.14 257.47 245.84 261.44 248.83 256.47 248.75 254.85 253.45"/>
  </g>
  <g>
    <polygon class="cls-1" points="233.21 267.8 238.06 268.92 240.62 264.65 241.05 269.61 245.9 270.72 241.32 272.67 241.76 277.62 238.49 273.87 233.92 275.82 236.48 271.55 233.21 267.8"/>
    <polygon class="cls-1" points="231.61 241.88 228.22 245.52 230.63 249.87 226.12 247.77 222.73 251.41 223.34 246.47 218.83 244.38 223.71 243.42 224.31 238.49 226.73 242.84 231.61 241.88"/>
    <polygon class="cls-1" points="254.85 253.45 253.4 248.7 248.42 248.62 252.5 245.76 251.04 241.01 255.01 244 259.08 241.14 257.47 245.84 261.44 248.83 256.47 248.75 254.85 253.45"/>
  </g>
  <g>
    <polygon class="cls-1" points="233.21 267.8 238.06 268.92 240.62 264.65 241.05 269.61 245.9 270.72 241.32 272.67 241.76 277.62 238.49 273.87 233.92 275.82 236.48 271.55 233.21 267.8"/>
    <polygon class="cls-1" points="231.61 241.88 228.22 245.52 230.63 249.87 226.12 247.77 222.73 251.41 223.34 246.47 218.83 244.38 223.71 243.42 224.31 238.49 226.73 242.84 231.61 241.88"/>
    <polygon class="cls-1" points="254.85 253.45 253.4 248.7 248.42 248.62 252.5 245.76 251.04 241.01 255.01 244 259.08 241.14 257.47 245.84 261.44 248.83 256.47 248.75 254.85 253.45"/>
  </g>
  <g>
    <polygon class="cls-1" points="233.21 267.8 238.06 268.92 240.62 264.65 241.05 269.61 245.9 270.72 241.32 272.67 241.76 277.62 238.49 273.87 233.92 275.82 236.48 271.55 233.21 267.8"/>
    <polygon class="cls-1" points="231.61 241.88 228.22 245.52 230.63 249.87 226.12 247.77 222.73 251.41 223.34 246.47 218.83 244.38 223.71 243.42 224.31 238.49 226.73 242.84 231.61 241.88"/>
    <polygon class="cls-1" points="254.85 253.45 253.4 248.7 248.42 248.62 252.5 245.76 251.04 241.01 255.01 244 259.08 241.14 257.47 245.84 261.44 248.83 256.47 248.75 254.85 253.45"/>
  </g>
  <g>
    <polygon class="cls-1" points="233.21 267.8 238.06 268.92 240.62 264.65 241.05 269.61 245.9 270.72 241.32 272.67 241.76 277.62 238.49 273.87 233.92 275.82 236.48 271.55 233.21 267.8"/>
    <polygon class="cls-1" points="231.61 241.88 228.22 245.52 230.63 249.87 226.12 247.77 222.73 251.41 223.34 246.47 218.83 244.38 223.71 243.42 224.31 238.49 226.73 242.84 231.61 241.88"/>
    <polygon class="cls-1" points="254.85 253.45 253.4 248.7 248.42 248.62 252.5 245.76 251.04 241.01 255.01 244 259.08 241.14 257.47 245.84 261.44 248.83 256.47 248.75 254.85 253.45"/>
  </g>
  <g>
    <polygon class="cls-1" points="233.21 267.8 238.06 268.92 240.62 264.65 241.05 269.61 245.9 270.72 241.32 272.67 241.76 277.62 238.49 273.87 233.92 275.82 236.48 271.55 233.21 267.8"/>
    <polygon class="cls-1" points="231.61 241.88 228.22 245.52 230.63 249.87 226.12 247.77 222.73 251.41 223.34 246.47 218.83 244.38 223.71 243.42 224.31 238.49 226.73 242.84 231.61 241.88"/>
    <polygon class="cls-1" points="254.85 253.45 253.4 248.7 248.42 248.62 252.5 245.76 251.04 241.01 255.01 244 259.08 241.14 257.47 245.84 261.44 248.83 256.47 248.75 254.85 253.45"/>
  </g>
  <g>
    <polygon class="cls-1" points="233.21 267.8 238.06 268.92 240.62 264.65 241.05 269.61 245.9 270.72 241.32 272.67 241.76 277.62 238.49 273.87 233.92 275.82 236.48 271.55 233.21 267.8"/>
    <polygon class="cls-1" points="231.61 241.88 228.22 245.52 230.63 249.87 226.12 247.77 222.73 251.41 223.34 246.47 218.83 244.38 223.71 243.42 224.31 238.49 226.73 242.84 231.61 241.88"/>
    <polygon class="cls-1" points="254.85 253.45 253.4 248.7 248.42 248.62 252.5 245.76 251.04 241.01 255.01 244 259.08 241.14 257.47 245.84 261.44 248.83 256.47 248.75 254.85 253.45"/>
  </g>
  <g>
    <polygon class="cls-1" points="233.21 267.8 238.06 268.92 240.62 264.65 241.05 269.61 245.9 270.72 241.32 272.67 241.76 277.62 238.49 273.87 233.92 275.82 236.48 271.55 233.21 267.8"/>
    <polygon class="cls-1" points="231.61 241.88 228.22 245.52 230.63 249.87 226.12 247.77 222.73 251.41 223.34 246.47 218.83 244.38 223.71 243.42 224.31 238.49 226.73 242.84 231.61 241.88"/>
    <polygon class="cls-1" points="254.85 253.45 253.4 248.7 248.42 248.62 252.5 245.76 251.04 241.01 255.01 244 259.08 241.14 257.47 245.84 261.44 248.83 256.47 248.75 254.85 253.45"/>
  </g>
  <g>
    <polygon class="cls-1" points="233.21 267.8 238.06 268.92 240.62 264.65 241.05 269.61 245.9 270.72 241.32 272.67 241.76 277.62 238.49 273.87 233.92 275.82 236.48 271.55 233.21 267.8"/>
    <polygon class="cls-1" points="231.61 241.88 228.22 245.52 230.63 249.87 226.12 247.77 222.73 251.41 223.34 246.47 218.83 244.38 223.71 243.42 224.31 238.49 226.73 242.84 231.61 241.88"/>
    <polygon class="cls-1" points="254.85 253.45 253.4 248.7 248.42 248.62 252.5 245.76 251.04 241.01 255.01 244 259.08 241.14 257.47 245.84 261.44 248.83 256.47 248.75 254.85 253.45"/>
  </g>
  <g>
    <polygon class="cls-1" points="233.21 267.8 238.06 268.92 240.62 264.65 241.05 269.61 245.9 270.72 241.32 272.67 241.76 277.62 238.49 273.87 233.92 275.82 236.48 271.55 233.21 267.8"/>
    <polygon class="cls-1" points="231.61 241.88 228.22 245.52 230.63 249.87 226.12 247.77 222.73 251.41 223.34 246.47 218.83 244.38 223.71 243.42 224.31 238.49 226.73 242.84 231.61 241.88"/>
    <polygon class="cls-1" points="254.85 253.45 253.4 248.7 248.42 248.62 252.5 245.76 251.04 241.01 255.01 244 259.08 241.14 257.47 245.84 261.44 248.83 256.47 248.75 254.85 253.45"/>
  </g>
  <g>
    <polygon class="cls-1" points="233.21 267.8 238.06 268.92 240.62 264.65 241.05 269.61 245.9 270.72 241.32 272.67 241.76 277.62 238.49 273.87 233.92 275.82 236.48 271.55 233.21 267.8"/>
    <polygon class="cls-1" points="231.61 241.88 228.22 245.52 230.63 249.87 226.12 247.77 222.73 251.41 223.34 246.47 218.83 244.38 223.71 243.42 224.31 238.49 226.73 242.84 231.61 241.88"/>
    <polygon class="cls-1" points="254.85 253.45 253.4 248.7 248.42 248.62 252.5 245.76 251.04 241.01 255.01 244 259.08 241.14 257.47 245.84 261.44 248.83 256.47 248.75 254.85 253.45"/>
  </g>
  <g>
    <polygon class="cls-1" points="233.21 267.8 238.06 268.92 240.62 264.65 241.05 269.61 245.9 270.72 241.32 272.67 241.76 277.62 238.49 273.87 233.92 275.82 236.48 271.55 233.21 267.8"/>
    <polygon class="cls-1" points="231.61 241.88 228.22 245.52 230.63 249.87 226.12 247.77 222.73 251.41 223.34 246.47 218.83 244.38 223.71 243.42 224.31 238.49 226.73 242.84 231.61 241.88"/>
    <polygon class="cls-1" points="254.85 253.45 253.4 248.7 248.42 248.62 252.5 245.76 251.04 241.01 255.01 244 259.08 241.14 257.47 245.84 261.44 248.83 256.47 248.75 254.85 253.45"/>
  </g>
  <g>
    <polygon class="cls-1" points="233.21 267.8 238.06 268.92 240.62 264.65 241.05 269.61 245.9 270.72 241.32 272.67 241.76 277.62 238.49 273.87 233.92 275.82 236.48 271.55 233.21 267.8"/>
    <polygon class="cls-1" points="231.61 241.88 228.22 245.52 230.63 249.87 226.12 247.77 222.73 251.41 223.34 246.47 218.83 244.38 223.71 243.42 224.31 238.49 226.73 242.84 231.61 241.88"/>
    <polygon class="cls-1" points="254.85 253.45 253.4 248.7 248.42 248.62 252.5 245.76 251.04 241.01 255.01 244 259.08 241.14 257.47 245.84 261.44 248.83 256.47 248.75 254.85 253.45"/>
  </g>
  <g>
    <polygon class="cls-1" points="233.21 267.8 238.06 268.92 240.62 264.65 241.05 269.61 245.9 270.72 241.32 272.67 241.76 277.62 238.49 273.87 233.92 275.82 236.48 271.55 233.21 267.8"/>
    <polygon class="cls-1" points="231.61 241.88 228.22 245.52 230.63 249.87 226.12 247.77 222.73 251.41 223.34 246.47 218.83 244.38 223.71 243.42 224.31 238.49 226.73 242.84 231.61 241.88"/>
    <polygon class="cls-1" points="254.85 253.45 253.4 248.7 248.42 248.62 252.5 245.76 251.04 241.01 255.01 244 259.08 241.14 257.47 245.84 261.44 248.83 256.47 248.75 254.85 253.45"/>
  </g>
  <g>
    <polygon class="cls-1" points="233.21 267.8 238.06 268.92 240.62 264.65 241.05 269.61 245.9 270.72 241.32 272.67 241.76 277.62 238.49 273.87 233.92 275.82 236.48 271.55 233.21 267.8"/>
    <polygon class="cls-1" points="231.61 241.88 228.22 245.52 230.63 249.87 226.12 247.77 222.73 251.41 223.34 246.47 218.83 244.38 223.71 243.42 224.31 238.49 226.73 242.84 231.61 241.88"/>
    <polygon class="cls-1" points="254.85 253.45 253.4 248.7 248.42 248.62 252.5 245.76 251.04 241.01 255.01 244 259.08 241.14 257.47 245.84 261.44 248.83 256.47 248.75 254.85 253.45"/>
  </g>
  <g>
    <polygon class="cls-1" points="233.21 267.8 238.06 268.92 240.62 264.65 241.05 269.61 245.9 270.72 241.32 272.67 241.76 277.62 238.49 273.87 233.92 275.82 236.48 271.55 233.21 267.8"/>
    <polygon class="cls-1" points="231.61 241.88 228.22 245.52 230.63 249.87 226.12 247.77 222.73 251.41 223.34 246.47 218.83 244.38 223.71 243.42 224.31 238.49 226.73 242.84 231.61 241.88"/>
    <polygon class="cls-1" points="254.85 253.45 253.4 248.7 248.42 248.62 252.5 245.76 251.04 241.01 255.01 244 259.08 241.14 257.47 245.84 261.44 248.83 256.47 248.75 254.85 253.45"/>
  </g>
  <g>
    <polygon class="cls-1" points="233.21 267.8 238.06 268.92 240.62 264.65 241.05 269.61 245.9 270.72 241.32 272.67 241.76 277.62 238.49 273.87 233.92 275.82 236.48 271.55 233.21 267.8"/>
    <polygon class="cls-1" points="231.61 241.88 228.22 245.52 230.63 249.87 226.12 247.77 222.73 251.41 223.34 246.47 218.83 244.38 223.71 243.42 224.31 238.49 226.73 242.84 231.61 241.88"/>
    <polygon class="cls-1" points="254.85 253.45 253.4 248.7 248.42 248.62 252.5 245.76 251.04 241.01 255.01 244 259.08 241.14 257.47 245.84 261.44 248.83 256.47 248.75 254.85 253.45"/>
  </g>
  <g>
    <polygon class="cls-1" points="233.21 267.8 238.06 268.92 240.62 264.65 241.05 269.61 245.9 270.72 241.32 272.67 241.76 277.62 238.49 273.87 233.92 275.82 236.48 271.55 233.21 267.8"/>
    <polygon class="cls-1" points="231.61 241.88 228.22 245.52 230.63 249.87 226.12 247.77 222.73 251.41 223.34 246.47 218.83 244.38 223.71 243.42 224.31 238.49 226.73 242.84 231.61 241.88"/>
    <polygon class="cls-1" points="254.85 253.45 253.4 248.7 248.42 248.62 252.5 245.76 251.04 241.01 255.01 244 259.08 241.14 257.47 245.84 261.44 248.83 256.47 248.75 254.85 253.45"/>
  </g>
  <g>
    <polygon class="cls-1" points="233.21 267.8 238.06 268.92 240.62 264.65 241.05 269.61 245.9 270.72 241.32 272.67 241.76 277.62 238.49 273.87 233.92 275.82 236.48 271.55 233.21 267.8"/>
    <polygon class="cls-1" points="231.61 241.88 228.22 245.52 230.63 249.87 226.12 247.77 222.73 251.41 223.34 246.47 218.83 244.38 223.71 243.42 224.31 238.49 226.73 242.84 231.61 241.88"/>
    <polygon class="cls-1" points="254.85 253.45 253.4 248.7 248.42 248.62 252.5 245.76 251.04 241.01 255.01 244 259.08 241.14 257.47 245.84 261.44 248.83 256.47 248.75 254.85 253.45"/>
  </g>
  <g>
    <polygon class="cls-1" points="233.21 267.8 238.06 268.92 240.62 264.65 241.05 269.61 245.9 270.72 241.32 272.67 241.76 277.62 238.49 273.87 233.92 275.82 236.48 271.55 233.21 267.8"/>
    <polygon class="cls-1" points="231.61 241.88 228.22 245.52 230.63 249.87 226.12 247.77 222.73 251.41 223.34 246.47 218.83 244.38 223.71 243.42 224.31 238.49 226.73 242.84 231.61 241.88"/>
    <polygon class="cls-1" points="254.85 253.45 253.4 248.7 248.42 248.62 252.5 245.76 251.04 241.01 255.01 244 259.08 241.14 257.47 245.84 261.44 248.83 256.47 248.75 254.85 253.45"/>
  </g>
  <g>
    <polygon class="cls-1" points="233.21 267.8 238.06 268.92 240.62 264.65 241.05 269.61 245.9 270.72 241.32 272.67 241.76 277.62 238.49 273.87 233.92 275.82 236.48 271.55 233.21 267.8"/>
    <polygon class="cls-1" points="231.61 241.88 228.22 245.52 230.63 249.87 226.12 247.77 222.73 251.41 223.34 246.47 218.83 244.38 223.71 243.42 224.31 238.49 226.73 242.84 231.61 241.88"/>
    <polygon class="cls-1" points="254.85 253.45 253.4 248.7 248.42 248.62 252.5 245.76 251.04 241.01 255.01 244 259.08 241.14 257.47 245.84 261.44 248.83 256.47 248.75 254.85 253.45"/>
  </g>
  <g>
    <polygon class="cls-1" points="233.21 267.8 238.06 268.92 240.62 264.65 241.05 269.61 245.9 270.72 241.32 272.67 241.76 277.62 238.49 273.87 233.92 275.82 236.48 271.55 233.21 267.8"/>
    <polygon class="cls-1" points="231.61 241.88 228.22 245.52 230.63 249.87 226.12 247.77 222.73 251.41 223.34 246.47 218.83 244.38 223.71 243.42 224.31 238.49 226.73 242.84 231.61 241.88"/>
    <polygon class="cls-1" points="254.85 253.45 253.4 248.7 248.42 248.62 252.5 245.76 251.04 241.01 255.01 244 259.08 241.14 257.47 245.84 261.44 248.83 256.47 248.75 254.85 253.45"/>
  </g>
  <g>
    <polygon class="cls-1" points="233.21 267.8 238.06 268.92 240.62 264.65 241.05 269.61 245.9 270.72 241.32 272.67 241.76 277.62 238.49 273.87 233.92 275.82 236.48 271.55 233.21 267.8"/>
    <polygon class="cls-1" points="231.61 241.88 228.22 245.52 230.63 249.87 226.12 247.77 222.73 251.41 223.34 246.47 218.83 244.38 223.71 243.42 224.31 238.49 226.73 242.84 231.61 241.88"/>
    <polygon class="cls-1" points="254.85 253.45 253.4 248.7 248.42 248.62 252.5 245.76 251.04 241.01 255.01 244 259.08 241.14 257.47 245.84 261.44 248.83 256.47 248.75 254.85 253.45"/>
  </g>
  <g>
    <polygon class="cls-1" points="233.21 267.8 238.06 268.92 240.62 264.65 241.05 269.61 245.9 270.72 241.32 272.67 241.76 277.62 238.49 273.87 233.92 275.82 236.48 271.55 233.21 267.8"/>
    <polygon class="cls-1" points="231.61 241.88 228.22 245.52 230.63 249.87 226.12 247.77 222.73 251.41 223.34 246.47 218.83 244.38 223.71 243.42 224.31 238.49 226.73 242.84 231.61 241.88"/>
    <polygon class="cls-1" points="254.85 253.45 253.4 248.7 248.42 248.62 252.5 245.76 251.04 241.01 255.01 244 259.08 241.14 257.47 245.84 261.44 248.83 256.47 248.75 254.85 253.45"/>
  </g>
  <g>
    <polygon class="cls-1" points="233.21 267.8 238.06 268.92 240.62 264.65 241.05 269.61 245.9 270.72 241.32 272.67 241.76 277.62 238.49 273.87 233.92 275.82 236.48 271.55 233.21 267.8"/>
    <polygon class="cls-1" points="231.61 241.88 228.22 245.52 230.63 249.87 226.12 247.77 222.73 251.41 223.34 246.47 218.83 244.38 223.71 243.42 224.31 238.49 226.73 242.84 231.61 241.88"/>
    <polygon class="cls-1" points="254.85 253.45 253.4 248.7 248.42 248.62 252.5 245.76 251.04 241.01 255.01 244 259.08 241.14 257.47 245.84 261.44 248.83 256.47 248.75 254.85 253.45"/>
  </g>
  <g>
    <polygon class="cls-1" points="233.21 267.8 238.06 268.92 240.62 264.65 241.05 269.61 245.9 270.72 241.32 272.67 241.76 277.62 238.49 273.87 233.92 275.82 236.48 271.55 233.21 267.8"/>
    <polygon class="cls-1" points="231.61 241.88 228.22 245.52 230.63 249.87 226.12 247.77 222.73 251.41 223.34 246.47 218.83 244.38 223.71 243.42 224.31 238.49 226.73 242.84 231.61 241.88"/>
    <polygon class="cls-1" points="254.85 253.45 253.4 248.7 248.42 248.62 252.5 245.76 251.04 241.01 255.01 244 259.08 241.14 257.47 245.84 261.44 248.83 256.47 248.75 254.85 253.45"/>
  </g>
  <g>
    <polygon class="cls-1" points="233.21 267.8 238.06 268.92 240.62 264.65 241.05 269.61 245.9 270.72 241.32 272.67 241.76 277.62 238.49 273.87 233.92 275.82 236.48 271.55 233.21 267.8"/>
    <polygon class="cls-1" points="231.61 241.88 228.22 245.52 230.63 249.87 226.12 247.77 222.73 251.41 223.34 246.47 218.83 244.38 223.71 243.42 224.31 238.49 226.73 242.84 231.61 241.88"/>
    <polygon class="cls-1" points="254.85 253.45 253.4 248.7 248.42 248.62 252.5 245.76 251.04 241.01 255.01 244 259.08 241.14 257.47 245.84 261.44 248.83 256.47 248.75 254.85 253.45"/>
  </g>
  <g>
    <polygon class="cls-1" points="233.21 267.8 238.06 268.92 240.62 264.65 241.05 269.61 245.9 270.72 241.32 272.67 241.76 277.62 238.49 273.87 233.92 275.82 236.48 271.55 233.21 267.8"/>
    <polygon class="cls-1" points="231.61 241.88 228.22 245.52 230.63 249.87 226.12 247.77 222.73 251.41 223.34 246.47 218.83 244.38 223.71 243.42 224.31 238.49 226.73 242.84 231.61 241.88"/>
    <polygon class="cls-1" points="254.85 253.45 253.4 248.7 248.42 248.62 252.5 245.76 251.04 241.01 255.01 244 259.08 241.14 257.47 245.84 261.44 248.83 256.47 248.75 254.85 253.45"/>
  </g>
  <g>
    <polygon class="cls-1" points="233.21 267.8 238.06 268.92 240.62 264.65 241.05 269.61 245.9 270.72 241.32 272.67 241.76 277.62 238.49 273.87 233.92 275.82 236.48 271.55 233.21 267.8"/>
    <polygon class="cls-1" points="231.61 241.88 228.22 245.52 230.63 249.87 226.12 247.77 222.73 251.41 223.34 246.47 218.83 244.38 223.71 243.42 224.31 238.49 226.73 242.84 231.61 241.88"/>
    <polygon class="cls-1" points="254.85 253.45 253.4 248.7 248.42 248.62 252.5 245.76 251.04 241.01 255.01 244 259.08 241.14 257.47 245.84 261.44 248.83 256.47 248.75 254.85 253.45"/>
  </g>
  <g>
    <polygon class="cls-1" points="233.21 267.8 238.06 268.92 240.62 264.65 241.05 269.61 245.9 270.72 241.32 272.67 241.76 277.62 238.49 273.87 233.92 275.82 236.48 271.55 233.21 267.8"/>
    <polygon class="cls-1" points="231.61 241.88 228.22 245.52 230.63 249.87 226.12 247.77 222.73 251.41 223.34 246.47 218.83 244.38 223.71 243.42 224.31 238.49 226.73 242.84 231.61 241.88"/>
    <polygon class="cls-1" points="254.85 253.45 253.4 248.7 248.42 248.62 252.5 245.76 251.04 241.01 255.01 244 259.08 241.14 257.47 245.84 261.44 248.83 256.47 248.75 254.85 253.45"/>
  </g>
  <g>
    <polygon class="cls-1" points="233.21 267.8 238.06 268.92 240.62 264.65 241.05 269.61 245.9 270.72 241.32 272.67 241.76 277.62 238.49 273.87 233.92 275.82 236.48 271.55 233.21 267.8"/>
    <polygon class="cls-1" points="231.61 241.88 228.22 245.52 230.63 249.87 226.12 247.77 222.73 251.41 223.34 246.47 218.83 244.38 223.71 243.42 224.31 238.49 226.73 242.84 231.61 241.88"/>
    <polygon class="cls-1" points="254.85 253.45 253.4 248.7 248.42 248.62 252.5 245.76 251.04 241.01 255.01 244 259.08 241.14 257.47 245.84 261.44 248.83 256.47 248.75 254.85 253.45"/>
  </g>
  <g>
    <polygon class="cls-1" points="233.21 267.8 238.06 268.92 240.62 264.65 241.05 269.61 245.9 270.72 241.32 272.67 241.76 277.62 238.49 273.87 233.92 275.82 236.48 271.55 233.21 267.8"/>
    <polygon class="cls-1" points="231.61 241.88 228.22 245.52 230.63 249.87 226.12 247.77 222.73 251.41 223.34 246.47 218.83 244.38 223.71 243.42 224.31 238.49 226.73 242.84 231.61 241.88"/>
    <polygon class="cls-1" points="254.85 253.45 253.4 248.7 248.42 248.62 252.5 245.76 251.04 241.01 255.01 244 259.08 241.14 257.47 245.84 261.44 248.83 256.47 248.75 254.85 253.45"/>
  </g>
  <g>
    <polygon class="cls-1" points="233.21 267.8 238.06 268.92 240.62 264.65 241.05 269.61 245.9 270.72 241.32 272.67 241.76 277.62 238.49 273.87 233.92 275.82 236.48 271.55 233.21 267.8"/>
    <polygon class="cls-1" points="231.61 241.88 228.22 245.52 230.63 249.87 226.12 247.77 222.73 251.41 223.34 246.47 218.83 244.38 223.71 243.42 224.31 238.49 226.73 242.84 231.61 241.88"/>
    <polygon class="cls-1" points="254.85 253.45 253.4 248.7 248.42 248.62 252.5 245.76 251.04 241.01 255.01 244 259.08 241.14 257.47 245.84 261.44 248.83 256.47 248.75 254.85 253.45"/>
  </g>
  <g>
    <polygon class="cls-1" points="233.21 267.8 238.06 268.92 240.62 264.65 241.05 269.61 245.9 270.72 241.32 272.67 241.76 277.62 238.49 273.87 233.92 275.82 236.48 271.55 233.21 267.8"/>
    <polygon class="cls-1" points="231.61 241.88 228.22 245.52 230.63 249.87 226.12 247.77 222.73 251.41 223.34 246.47 218.83 244.38 223.71 243.42 224.31 238.49 226.73 242.84 231.61 241.88"/>
    <polygon class="cls-1" points="254.85 253.45 253.4 248.7 248.42 248.62 252.5 245.76 251.04 241.01 255.01 244 259.08 241.14 257.47 245.84 261.44 248.83 256.47 248.75 254.85 253.45"/>
  </g>
  <g>
    <polygon class="cls-1" points="233.21 267.8 238.06 268.92 240.62 264.65 241.05 269.61 245.9 270.72 241.32 272.67 241.76 277.62 238.49 273.87 233.92 275.82 236.48 271.55 233.21 267.8"/>
    <polygon class="cls-1" points="231.61 241.88 228.22 245.52 230.63 249.87 226.12 247.77 222.73 251.41 223.34 246.47 218.83 244.38 223.71 243.42 224.31 238.49 226.73 242.84 231.61 241.88"/>
    <polygon class="cls-1" points="254.85 253.45 253.4 248.7 248.42 248.62 252.5 245.76 251.04 241.01 255.01 244 259.08 241.14 257.47 245.84 261.44 248.83 256.47 248.75 254.85 253.45"/>
  </g>
  <g>
    <polygon class="cls-1" points="233.21 267.8 238.06 268.92 240.62 264.65 241.05 269.61 245.9 270.72 241.32 272.67 241.76 277.62 238.49 273.87 233.92 275.82 236.48 271.55 233.21 267.8"/>
    <polygon class="cls-1" points="231.61 241.88 228.22 245.52 230.63 249.87 226.12 247.77 222.73 251.41 223.34 246.47 218.83 244.38 223.71 243.42 224.31 238.49 226.73 242.84 231.61 241.88"/>
    <polygon class="cls-1" points="254.85 253.45 253.4 248.7 248.42 248.62 252.5 245.76 251.04 241.01 255.01 244 259.08 241.14 257.47 245.84 261.44 248.83 256.47 248.75 254.85 253.45"/>
  </g>
  <g>
    <polygon class="cls-1" points="233.21 267.8 238.06 268.92 240.62 264.65 241.05 269.61 245.9 270.72 241.32 272.67 241.76 277.62 238.49 273.87 233.92 275.82 236.48 271.55 233.21 267.8"/>
    <polygon class="cls-1" points="231.61 241.88 228.22 245.52 230.63 249.87 226.12 247.77 222.73 251.41 223.34 246.47 218.83 244.38 223.71 243.42 224.31 238.49 226.73 242.84 231.61 241.88"/>
    <polygon class="cls-1" points="254.85 253.45 253.4 248.7 248.42 248.62 252.5 245.76 251.04 241.01 255.01 244 259.08 241.14 257.47 245.84 261.44 248.83 256.47 248.75 254.85 253.45"/>
  </g>
  <g>
    <polygon class="cls-1" points="233.21 267.8 238.06 268.92 240.62 264.65 241.05 269.61 245.9 270.72 241.32 272.67 241.76 277.62 238.49 273.87 233.92 275.82 236.48 271.55 233.21 267.8"/>
    <polygon class="cls-1" points="231.61 241.88 228.22 245.52 230.63 249.87 226.12 247.77 222.73 251.41 223.34 246.47 218.83 244.38 223.71 243.42 224.31 238.49 226.73 242.84 231.61 241.88"/>
    <polygon class="cls-1" points="254.85 253.45 253.4 248.7 248.42 248.62 252.5 245.76 251.04 241.01 255.01 244 259.08 241.14 257.47 245.84 261.44 248.83 256.47 248.75 254.85 253.45"/>
  </g>
  <g>
    <polygon class="cls-1" points="233.21 267.8 238.06 268.92 240.62 264.65 241.05 269.61 245.9 270.72 241.32 272.67 241.76 277.62 238.49 273.87 233.92 275.82 236.48 271.55 233.21 267.8"/>
    <polygon class="cls-1" points="231.61 241.88 228.22 245.52 230.63 249.87 226.12 247.77 222.73 251.41 223.34 246.47 218.83 244.38 223.71 243.42 224.31 238.49 226.73 242.84 231.61 241.88"/>
    <polygon class="cls-1" points="254.85 253.45 253.4 248.7 248.42 248.62 252.5 245.76 251.04 241.01 255.01 244 259.08 241.14 257.47 245.84 261.44 248.83 256.47 248.75 254.85 253.45"/>
  </g>
  <g>
    <polygon class="cls-1" points="233.21 267.8 238.06 268.92 240.62 264.65 241.05 269.61 245.9 270.72 241.32 272.67 241.76 277.62 238.49 273.87 233.92 275.82 236.48 271.55 233.21 267.8"/>
    <polygon class="cls-1" points="231.61 241.88 228.22 245.52 230.63 249.87 226.12 247.77 222.73 251.41 223.34 246.47 218.83 244.38 223.71 243.42 224.31 238.49 226.73 242.84 231.61 241.88"/>
    <polygon class="cls-1" points="254.85 253.45 253.4 248.7 248.42 248.62 252.5 245.76 251.04 241.01 255.01 244 259.08 241.14 257.47 245.84 261.44 248.83 256.47 248.75 254.85 253.45"/>
  </g>
  <g>
    <polygon class="cls-1" points="233.21 267.8 238.06 268.92 240.62 264.65 241.05 269.61 245.9 270.72 241.32 272.67 241.76 277.62 238.49 273.87 233.92 275.82 236.48 271.55 233.21 267.8"/>
    <polygon class="cls-1" points="231.61 241.88 228.22 245.52 230.63 249.87 226.12 247.77 222.73 251.41 223.34 246.47 218.83 244.38 223.71 243.42 224.31 238.49 226.73 242.84 231.61 241.88"/>
    <polygon class="cls-1" points="254.85 253.45 253.4 248.7 248.42 248.62 252.5 245.76 251.04 241.01 255.01 244 259.08 241.14 257.47 245.84 261.44 248.83 256.47 248.75 254.85 253.45"/>
  </g>
  <g>
    <polygon class="cls-1" points="233.21 267.8 238.06 268.92 240.62 264.65 241.05 269.61 245.9 270.72 241.32 272.67 241.76 277.62 238.49 273.87 233.92 275.82 236.48 271.55 233.21 267.8"/>
    <polygon class="cls-1" points="231.61 241.88 228.22 245.52 230.63 249.87 226.12 247.77 222.73 251.41 223.34 246.47 218.83 244.38 223.71 243.42 224.31 238.49 226.73 242.84 231.61 241.88"/>
    <polygon class="cls-1" points="254.85 253.45 253.4 248.7 248.42 248.62 252.5 245.76 251.04 241.01 255.01 244 259.08 241.14 257.47 245.84 261.44 248.83 256.47 248.75 254.85 253.45"/>
  </g>
  <g>
    <polygon class="cls-1" points="233.21 267.8 238.06 268.92 240.62 264.65 241.05 269.61 245.9 270.72 241.32 272.67 241.76 277.62 238.49 273.87 233.92 275.82 236.48 271.55 233.21 267.8"/>
    <polygon class="cls-1" points="231.61 241.88 228.22 245.52 230.63 249.87 226.12 247.77 222.73 251.41 223.34 246.47 218.83 244.38 223.71 243.42 224.31 238.49 226.73 242.84 231.61 241.88"/>
    <polygon class="cls-1" points="254.85 253.45 253.4 248.7 248.42 248.62 252.5 245.76 251.04 241.01 255.01 244 259.08 241.14 257.47 245.84 261.44 248.83 256.47 248.75 254.85 253.45"/>
  </g>
  <g>
    <polygon class="cls-1" points="233.21 267.8 238.06 268.92 240.62 264.65 241.05 269.61 245.9 270.72 241.32 272.67 241.76 277.62 238.49 273.87 233.92 275.82 236.48 271.55 233.21 267.8"/>
    <polygon class="cls-1" points="231.61 241.88 228.22 245.52 230.63 249.87 226.12 247.77 222.73 251.41 223.34 246.47 218.83 244.38 223.71 243.42 224.31 238.49 226.73 242.84 231.61 241.88"/>
    <polygon class="cls-1" points="254.85 253.45 253.4 248.7 248.42 248.62 252.5 245.76 251.04 241.01 255.01 244 259.08 241.14 257.47 245.84 261.44 248.83 256.47 248.75 254.85 253.45"/>
  </g>
  <g>
    <polygon class="cls-1" points="233.21 267.8 238.06 268.92 240.62 264.65 241.05 269.61 245.9 270.72 241.32 272.67 241.76 277.62 238.49 273.87 233.92 275.82 236.48 271.55 233.21 267.8"/>
    <polygon class="cls-1" points="231.61 241.88 228.22 245.52 230.63 249.87 226.12 247.77 222.73 251.41 223.34 246.47 218.83 244.38 223.71 243.42 224.31 238.49 226.73 242.84 231.61 241.88"/>
    <polygon class="cls-1" points="254.85 253.45 253.4 248.7 248.42 248.62 252.5 245.76 251.04 241.01 255.01 244 259.08 241.14 257.47 245.84 261.44 248.83 256.47 248.75 254.85 253.45"/>
  </g>
  <g>
    <polygon class="cls-1" points="233.21 267.8 238.06 268.92 240.62 264.65 241.05 269.61 245.9 270.72 241.32 272.67 241.76 277.62 238.49 273.87 233.92 275.82 236.48 271.55 233.21 267.8"/>
    <polygon class="cls-1" points="231.61 241.88 228.22 245.52 230.63 249.87 226.12 247.77 222.73 251.41 223.34 246.47 218.83 244.38 223.71 243.42 224.31 238.49 226.73 242.84 231.61 241.88"/>
    <polygon class="cls-1" points="254.85 253.45 253.4 248.7 248.42 248.62 252.5 245.76 251.04 241.01 255.01 244 259.08 241.14 257.47 245.84 261.44 248.83 256.47 248.75 254.85 253.45"/>
  </g>
  <g>
    <polygon class="cls-1" points="233.21 267.8 238.06 268.92 240.62 264.65 241.05 269.61 245.9 270.72 241.32 272.67 241.76 277.62 238.49 273.87 233.92 275.82 236.48 271.55 233.21 267.8"/>
    <polygon class="cls-1" points="231.61 241.88 228.22 245.52 230.63 249.87 226.12 247.77 222.73 251.41 223.34 246.47 218.83 244.38 223.71 243.42 224.31 238.49 226.73 242.84 231.61 241.88"/>
    <polygon class="cls-1" points="254.85 253.45 253.4 248.7 248.42 248.62 252.5 245.76 251.04 241.01 255.01 244 259.08 241.14 257.47 245.84 261.44 248.83 256.47 248.75 254.85 253.45"/>
  </g>
  <g>
    <polygon class="cls-1" points="233.21 267.8 238.06 268.92 240.62 264.65 241.05 269.61 245.9 270.72 241.32 272.67 241.76 277.62 238.49 273.87 233.92 275.82 236.48 271.55 233.21 267.8"/>
    <polygon class="cls-1" points="231.61 241.88 228.22 245.52 230.63 249.87 226.12 247.77 222.73 251.41 223.34 246.47 218.83 244.38 223.71 243.42 224.31 238.49 226.73 242.84 231.61 241.88"/>
    <polygon class="cls-1" points="254.85 253.45 253.4 248.7 248.42 248.62 252.5 245.76 251.04 241.01 255.01 244 259.08 241.14 257.47 245.84 261.44 248.83 256.47 248.75 254.85 253.45"/>
  </g>
  <g>
    <polygon class="cls-1" points="233.21 267.8 238.06 268.92 240.62 264.65 241.05 269.61 245.9 270.72 241.32 272.67 241.76 277.62 238.49 273.87 233.92 275.82 236.48 271.55 233.21 267.8"/>
    <polygon class="cls-1" points="231.61 241.88 228.22 245.52 230.63 249.87 226.12 247.77 222.73 251.41 223.34 246.47 218.83 244.38 223.71 243.42 224.31 238.49 226.73 242.84 231.61 241.88"/>
    <polygon class="cls-1" points="254.85 253.45 253.4 248.7 248.42 248.62 252.5 245.76 251.04 241.01 255.01 244 259.08 241.14 257.47 245.84 261.44 248.83 256.47 248.75 254.85 253.45"/>
  </g>
  <g>
    <polygon class="cls-1" points="233.21 267.8 238.06 268.92 240.62 264.65 241.05 269.61 245.9 270.72 241.32 272.67 241.76 277.62 238.49 273.87 233.92 275.82 236.48 271.55 233.21 267.8"/>
    <polygon class="cls-1" points="231.61 241.88 228.22 245.52 230.63 249.87 226.12 247.77 222.73 251.41 223.34 246.47 218.83 244.38 223.71 243.42 224.31 238.49 226.73 242.84 231.61 241.88"/>
    <polygon class="cls-1" points="254.85 253.45 253.4 248.7 248.42 248.62 252.5 245.76 251.04 241.01 255.01 244 259.08 241.14 257.47 245.84 261.44 248.83 256.47 248.75 254.85 253.45"/>
  </g>
  <g>
    <polygon class="cls-1" points="233.21 267.8 238.06 268.92 240.62 264.65 241.05 269.61 245.9 270.72 241.32 272.67 241.76 277.62 238.49 273.87 233.92 275.82 236.48 271.55 233.21 267.8"/>
    <polygon class="cls-1" points="231.61 241.88 228.22 245.52 230.63 249.87 226.12 247.77 222.73 251.41 223.34 246.47 218.83 244.38 223.71 243.42 224.31 238.49 226.73 242.84 231.61 241.88"/>
    <polygon class="cls-1" points="254.85 253.45 253.4 248.7 248.42 248.62 252.5 245.76 251.04 241.01 255.01 244 259.08 241.14 257.47 245.84 261.44 248.83 256.47 248.75 254.85 253.45"/>
  </g>
  <g>
    <polygon class="cls-1" points="233.21 267.8 238.06 268.92 240.62 264.65 241.05 269.61 245.9 270.72 241.32 272.67 241.76 277.62 238.49 273.87 233.92 275.82 236.48 271.55 233.21 267.8"/>
    <polygon class="cls-1" points="231.61 241.88 228.22 245.52 230.63 249.87 226.12 247.77 222.73 251.41 223.34 246.47 218.83 244.38 223.71 243.42 224.31 238.49 226.73 242.84 231.61 241.88"/>
    <polygon class="cls-1" points="254.85 253.45 253.4 248.7 248.42 248.62 252.5 245.76 251.04 241.01 255.01 244 259.08 241.14 257.47 245.84 261.44 248.83 256.47 248.75 254.85 253.45"/>
  </g>
  <g>
    <polygon class="cls-1" points="233.21 267.8 238.06 268.92 240.62 264.65 241.05 269.61 245.9 270.72 241.32 272.67 241.76 277.62 238.49 273.87 233.92 275.82 236.48 271.55 233.21 267.8"/>
    <polygon class="cls-1" points="231.61 241.88 228.22 245.52 230.63 249.87 226.12 247.77 222.73 251.41 223.34 246.47 218.83 244.38 223.71 243.42 224.31 238.49 226.73 242.84 231.61 241.88"/>
    <polygon class="cls-1" points="254.85 253.45 253.4 248.7 248.42 248.62 252.5 245.76 251.04 241.01 255.01 244 259.08 241.14 257.47 245.84 261.44 248.83 256.47 248.75 254.85 253.45"/>
  </g>
  <g>
    <polygon class="cls-1" points="233.21 267.8 238.06 268.92 240.62 264.65 241.05 269.61 245.9 270.72 241.32 272.67 241.76 277.62 238.49 273.87 233.92 275.82 236.48 271.55 233.21 267.8"/>
    <polygon class="cls-1" points="231.61 241.88 228.22 245.52 230.63 249.87 226.12 247.77 222.73 251.41 223.34 246.47 218.83 244.38 223.71 243.42 224.31 238.49 226.73 242.84 231.61 241.88"/>
    <polygon class="cls-1" points="254.85 253.45 253.4 248.7 248.42 248.62 252.5 245.76 251.04 241.01 255.01 244 259.08 241.14 257.47 245.84 261.44 248.83 256.47 248.75 254.85 253.45"/>
  </g>
  <g>
    <polygon class="cls-1" points="233.21 267.8 238.06 268.92 240.62 264.65 241.05 269.61 245.9 270.72 241.32 272.67 241.76 277.62 238.49 273.87 233.92 275.82 236.48 271.55 233.21 267.8"/>
    <polygon class="cls-1" points="231.61 241.88 228.22 245.52 230.63 249.87 226.12 247.77 222.73 251.41 223.34 246.47 218.83 244.38 223.71 243.42 224.31 238.49 226.73 242.84 231.61 241.88"/>
    <polygon class="cls-1" points="254.85 253.45 253.4 248.7 248.42 248.62 252.5 245.76 251.04 241.01 255.01 244 259.08 241.14 257.47 245.84 261.44 248.83 256.47 248.75 254.85 253.45"/>
  </g>
  <g>
    <polygon class="cls-1" points="233.21 267.8 238.06 268.92 240.62 264.65 241.05 269.61 245.9 270.72 241.32 272.67 241.76 277.62 238.49 273.87 233.92 275.82 236.48 271.55 233.21 267.8"/>
    <polygon class="cls-1" points="231.61 241.88 228.22 245.52 230.63 249.87 226.12 247.77 222.73 251.41 223.34 246.47 218.83 244.38 223.71 243.42 224.31 238.49 226.73 242.84 231.61 241.88"/>
    <polygon class="cls-1" points="254.85 253.45 253.4 248.7 248.42 248.62 252.5 245.76 251.04 241.01 255.01 244 259.08 241.14 257.47 245.84 261.44 248.83 256.47 248.75 254.85 253.45"/>
  </g>
  <g>
    <polygon class="cls-1" points="233.21 267.8 238.06 268.92 240.62 264.65 241.05 269.61 245.9 270.72 241.32 272.67 241.76 277.62 238.49 273.87 233.92 275.82 236.48 271.55 233.21 267.8"/>
    <polygon class="cls-1" points="231.61 241.88 228.22 245.52 230.63 249.87 226.12 247.77 222.73 251.41 223.34 246.47 218.83 244.38 223.71 243.42 224.31 238.49 226.73 242.84 231.61 241.88"/>
    <polygon class="cls-1" points="254.85 253.45 253.4 248.7 248.42 248.62 252.5 245.76 251.04 241.01 255.01 244 259.08 241.14 257.47 245.84 261.44 248.83 256.47 248.75 254.85 253.45"/>
  </g>
  <g>
    <polygon class="cls-1" points="233.21 267.8 238.06 268.92 240.62 264.65 241.05 269.61 245.9 270.72 241.32 272.67 241.76 277.62 238.49 273.87 233.92 275.82 236.48 271.55 233.21 267.8"/>
    <polygon class="cls-1" points="231.61 241.88 228.22 245.52 230.63 249.87 226.12 247.77 222.73 251.41 223.34 246.47 218.83 244.38 223.71 243.42 224.31 238.49 226.73 242.84 231.61 241.88"/>
    <polygon class="cls-1" points="254.85 253.45 253.4 248.7 248.42 248.62 252.5 245.76 251.04 241.01 255.01 244 259.08 241.14 257.47 245.84 261.44 248.83 256.47 248.75 254.85 253.45"/>
  </g>
  <g>
    <polygon class="cls-1" points="233.21 267.8 238.06 268.92 240.62 264.65 241.05 269.61 245.9 270.72 241.32 272.67 241.76 277.62 238.49 273.87 233.92 275.82 236.48 271.55 233.21 267.8"/>
    <polygon class="cls-1" points="231.61 241.88 228.22 245.52 230.63 249.87 226.12 247.77 222.73 251.41 223.34 246.47 218.83 244.38 223.71 243.42 224.31 238.49 226.73 242.84 231.61 241.88"/>
    <polygon class="cls-1" points="254.85 253.45 253.4 248.7 248.42 248.62 252.5 245.76 251.04 241.01 255.01 244 259.08 241.14 257.47 245.84 261.44 248.83 256.47 248.75 254.85 253.45"/>
  </g>
  <g>
    <polygon class="cls-1" points="233.21 267.8 238.06 268.92 240.62 264.65 241.05 269.61 245.9 270.72 241.32 272.67 241.76 277.62 238.49 273.87 233.92 275.82 236.48 271.55 233.21 267.8"/>
    <polygon class="cls-1" points="231.61 241.88 228.22 245.52 230.63 249.87 226.12 247.77 222.73 251.41 223.34 246.47 218.83 244.38 223.71 243.42 224.31 238.49 226.73 242.84 231.61 241.88"/>
    <polygon class="cls-1" points="254.85 253.45 253.4 248.7 248.42 248.62 252.5 245.76 251.04 241.01 255.01 244 259.08 241.14 257.47 245.84 261.44 248.83 256.47 248.75 254.85 253.45"/>
  </g>
  <g>
    <polygon class="cls-1" points="233.21 267.8 238.06 268.92 240.62 264.65 241.05 269.61 245.9 270.72 241.32 272.67 241.76 277.62 238.49 273.87 233.92 275.82 236.48 271.55 233.21 267.8"/>
    <polygon class="cls-1" points="231.61 241.88 228.22 245.52 230.63 249.87 226.12 247.77 222.73 251.41 223.34 246.47 218.83 244.38 223.71 243.42 224.31 238.49 226.73 242.84 231.61 241.88"/>
    <polygon class="cls-1" points="254.85 253.45 253.4 248.7 248.42 248.62 252.5 245.76 251.04 241.01 255.01 244 259.08 241.14 257.47 245.84 261.44 248.83 256.47 248.75 254.85 253.45"/>
  </g>
  <g>
    <polygon class="cls-1" points="233.21 267.8 238.06 268.92 240.62 264.65 241.05 269.61 245.9 270.72 241.32 272.67 241.76 277.62 238.49 273.87 233.92 275.82 236.48 271.55 233.21 267.8"/>
    <polygon class="cls-1" points="231.61 241.88 228.22 245.52 230.63 249.87 226.12 247.77 222.73 251.41 223.34 246.47 218.83 244.38 223.71 243.42 224.31 238.49 226.73 242.84 231.61 241.88"/>
    <polygon class="cls-1" points="254.85 253.45 253.4 248.7 248.42 248.62 252.5 245.76 251.04 241.01 255.01 244 259.08 241.14 257.47 245.84 261.44 248.83 256.47 248.75 254.85 253.45"/>
  </g>
  <g>
    <polygon class="cls-1" points="233.21 267.8 238.06 268.92 240.62 264.65 241.05 269.61 245.9 270.72 241.32 272.67 241.76 277.62 238.49 273.87 233.92 275.82 236.48 271.55 233.21 267.8"/>
    <polygon class="cls-1" points="231.61 241.88 228.22 245.52 230.63 249.87 226.12 247.77 222.73 251.41 223.34 246.47 218.83 244.38 223.71 243.42 224.31 238.49 226.73 242.84 231.61 241.88"/>
    <polygon class="cls-1" points="254.85 253.45 253.4 248.7 248.42 248.62 252.5 245.76 251.04 241.01 255.01 244 259.08 241.14 257.47 245.84 261.44 248.83 256.47 248.75 254.85 253.45"/>
  </g>
  <g>
    <polygon class="cls-1" points="233.21 267.8 238.06 268.92 240.62 264.65 241.05 269.61 245.9 270.72 241.32 272.67 241.76 277.62 238.49 273.87 233.92 275.82 236.48 271.55 233.21 267.8"/>
    <polygon class="cls-1" points="231.61 241.88 228.22 245.52 230.63 249.87 226.12 247.77 222.73 251.41 223.34 246.47 218.83 244.38 223.71 243.42 224.31 238.49 226.73 242.84 231.61 241.88"/>
    <polygon class="cls-1" points="254.85 253.45 253.4 248.7 248.42 248.62 252.5 245.76 251.04 241.01 255.01 244 259.08 241.14 257.47 245.84 261.44 248.83 256.47 248.75 254.85 253.45"/>
  </g>
  <g>
    <polygon class="cls-1" points="233.21 267.8 238.06 268.92 240.62 264.65 241.05 269.61 245.9 270.72 241.32 272.67 241.76 277.62 238.49 273.87 233.92 275.82 236.48 271.55 233.21 267.8"/>
    <polygon class="cls-1" points="231.61 241.88 228.22 245.52 230.63 249.87 226.12 247.77 222.73 251.41 223.34 246.47 218.83 244.38 223.71 243.42 224.31 238.49 226.73 242.84 231.61 241.88"/>
    <polygon class="cls-1" points="254.85 253.45 253.4 248.7 248.42 248.62 252.5 245.76 251.04 241.01 255.01 244 259.08 241.14 257.47 245.84 261.44 248.83 256.47 248.75 254.85 253.45"/>
  </g>
  <g>
    <polygon class="cls-1" points="233.21 267.8 238.06 268.92 240.62 264.65 241.05 269.61 245.9 270.72 241.32 272.67 241.76 277.62 238.49 273.87 233.92 275.82 236.48 271.55 233.21 267.8"/>
    <polygon class="cls-1" points="231.61 241.88 228.22 245.52 230.63 249.87 226.12 247.77 222.73 251.41 223.34 246.47 218.83 244.38 223.71 243.42 224.31 238.49 226.73 242.84 231.61 241.88"/>
    <polygon class="cls-1" points="254.85 253.45 253.4 248.7 248.42 248.62 252.5 245.76 251.04 241.01 255.01 244 259.08 241.14 257.47 245.84 261.44 248.83 256.47 248.75 254.85 253.45"/>
  </g>
  <g>
    <polygon class="cls-1" points="233.21 267.8 238.06 268.92 240.62 264.65 241.05 269.61 245.9 270.72 241.32 272.67 241.76 277.62 238.49 273.87 233.92 275.82 236.48 271.55 233.21 267.8"/>
    <polygon class="cls-1" points="231.61 241.88 228.22 245.52 230.63 249.87 226.12 247.77 222.73 251.41 223.34 246.47 218.83 244.38 223.71 243.42 224.31 238.49 226.73 242.84 231.61 241.88"/>
    <polygon class="cls-1" points="254.85 253.45 253.4 248.7 248.42 248.62 252.5 245.76 251.04 241.01 255.01 244 259.08 241.14 257.47 245.84 261.44 248.83 256.47 248.75 254.85 253.45"/>
  </g>
  <g>
    <polygon class="cls-1" points="233.21 267.8 238.06 268.92 240.62 264.65 241.05 269.61 245.9 270.72 241.32 272.67 241.76 277.62 238.49 273.87 233.92 275.82 236.48 271.55 233.21 267.8"/>
    <polygon class="cls-1" points="231.61 241.88 228.22 245.52 230.63 249.87 226.12 247.77 222.73 251.41 223.34 246.47 218.83 244.38 223.71 243.42 224.31 238.49 226.73 242.84 231.61 241.88"/>
    <polygon class="cls-1" points="254.85 253.45 253.4 248.7 248.42 248.62 252.5 245.76 251.04 241.01 255.01 244 259.08 241.14 257.47 245.84 261.44 248.83 256.47 248.75 254.85 253.45"/>
  </g>
  <g>
    <polygon class="cls-1" points="233.21 267.8 238.06 268.92 240.62 264.65 241.05 269.61 245.9 270.72 241.32 272.67 241.76 277.62 238.49 273.87 233.92 275.82 236.48 271.55 233.21 267.8"/>
    <polygon class="cls-1" points="231.61 241.88 228.22 245.52 230.63 249.87 226.12 247.77 222.73 251.41 223.34 246.47 218.83 244.38 223.71 243.42 224.31 238.49 226.73 242.84 231.61 241.88"/>
    <polygon class="cls-1" points="254.85 253.45 253.4 248.7 248.42 248.62 252.5 245.76 251.04 241.01 255.01 244 259.08 241.14 257.47 245.84 261.44 248.83 256.47 248.75 254.85 253.45"/>
  </g>
  <g>
    <polygon class="cls-1" points="233.21 267.8 238.06 268.92 240.62 264.65 241.05 269.61 245.9 270.72 241.32 272.67 241.76 277.62 238.49 273.87 233.92 275.82 236.48 271.55 233.21 267.8"/>
    <polygon class="cls-1" points="231.61 241.88 228.22 245.52 230.63 249.87 226.12 247.77 222.73 251.41 223.34 246.47 218.83 244.38 223.71 243.42 224.31 238.49 226.73 242.84 231.61 241.88"/>
    <polygon class="cls-1" points="254.85 253.45 253.4 248.7 248.42 248.62 252.5 245.76 251.04 241.01 255.01 244 259.08 241.14 257.47 245.84 261.44 248.83 256.47 248.75 254.85 253.45"/>
  </g>
  <g>
    <polygon class="cls-1" points="233.21 267.8 238.06 268.92 240.62 264.65 241.05 269.61 245.9 270.72 241.32 272.67 241.76 277.62 238.49 273.87 233.92 275.82 236.48 271.55 233.21 267.8"/>
    <polygon class="cls-1" points="231.61 241.88 228.22 245.52 230.63 249.87 226.12 247.77 222.73 251.41 223.34 246.47 218.83 244.38 223.71 243.42 224.31 238.49 226.73 242.84 231.61 241.88"/>
    <polygon class="cls-1" points="254.85 253.45 253.4 248.7 248.42 248.62 252.5 245.76 251.04 241.01 255.01 244 259.08 241.14 257.47 245.84 261.44 248.83 256.47 248.75 254.85 253.45"/>
  </g>
  <g>
    <polygon class="cls-1" points="233.21 267.8 238.06 268.92 240.62 264.65 241.05 269.61 245.9 270.72 241.32 272.67 241.76 277.62 238.49 273.87 233.92 275.82 236.48 271.55 233.21 267.8"/>
    <polygon class="cls-1" points="231.61 241.88 228.22 245.52 230.63 249.87 226.12 247.77 222.73 251.41 223.34 246.47 218.83 244.38 223.71 243.42 224.31 238.49 226.73 242.84 231.61 241.88"/>
    <polygon class="cls-1" points="254.85 253.45 253.4 248.7 248.42 248.62 252.5 245.76 251.04 241.01 255.01 244 259.08 241.14 257.47 245.84 261.44 248.83 256.47 248.75 254.85 253.45"/>
  </g>
  <g>
    <polygon class="cls-1" points="233.21 267.8 238.06 268.92 240.62 264.65 241.05 269.61 245.9 270.72 241.32 272.67 241.76 277.62 238.49 273.87 233.92 275.82 236.48 271.55 233.21 267.8"/>
    <polygon class="cls-1" points="231.61 241.88 228.22 245.52 230.63 249.87 226.12 247.77 222.73 251.41 223.34 246.47 218.83 244.38 223.71 243.42 224.31 238.49 226.73 242.84 231.61 241.88"/>
    <polygon class="cls-1" points="254.85 253.45 253.4 248.7 248.42 248.62 252.5 245.76 251.04 241.01 255.01 244 259.08 241.14 257.47 245.84 261.44 248.83 256.47 248.75 254.85 253.45"/>
  </g>
  <g>
    <polygon class="cls-1" points="233.21 267.8 238.06 268.92 240.62 264.65 241.05 269.61 245.9 270.72 241.32 272.67 241.76 277.62 238.49 273.87 233.92 275.82 236.48 271.55 233.21 267.8"/>
    <polygon class="cls-1" points="231.61 241.88 228.22 245.52 230.63 249.87 226.12 247.77 222.73 251.41 223.34 246.47 218.83 244.38 223.71 243.42 224.31 238.49 226.73 242.84 231.61 241.88"/>
    <polygon class="cls-1" points="254.85 253.45 253.4 248.7 248.42 248.62 252.5 245.76 251.04 241.01 255.01 244 259.08 241.14 257.47 245.84 261.44 248.83 256.47 248.75 254.85 253.45"/>
  </g>
  <g>
    <polygon class="cls-1" points="233.21 267.8 238.06 268.92 240.62 264.65 241.05 269.61 245.9 270.72 241.32 272.67 241.76 277.62 238.49 273.87 233.92 275.82 236.48 271.55 233.21 267.8"/>
    <polygon class="cls-1" points="231.61 241.88 228.22 245.52 230.63 249.87 226.12 247.77 222.73 251.41 223.34 246.47 218.83 244.38 223.71 243.42 224.31 238.49 226.73 242.84 231.61 241.88"/>
    <polygon class="cls-1" points="254.85 253.45 253.4 248.7 248.42 248.62 252.5 245.76 251.04 241.01 255.01 244 259.08 241.14 257.47 245.84 261.44 248.83 256.47 248.75 254.85 253.45"/>
  </g>
  <g>
    <polygon class="cls-1" points="233.21 267.8 238.06 268.92 240.62 264.65 241.05 269.61 245.9 270.72 241.32 272.67 241.76 277.62 238.49 273.87 233.92 275.82 236.48 271.55 233.21 267.8"/>
    <polygon class="cls-1" points="231.61 241.88 228.22 245.52 230.63 249.87 226.12 247.77 222.73 251.41 223.34 246.47 218.83 244.38 223.71 243.42 224.31 238.49 226.73 242.84 231.61 241.88"/>
    <polygon class="cls-1" points="254.85 253.45 253.4 248.7 248.42 248.62 252.5 245.76 251.04 241.01 255.01 244 259.08 241.14 257.47 245.84 261.44 248.83 256.47 248.75 254.85 253.45"/>
  </g>
  <g>
    <polygon class="cls-1" points="233.21 267.8 238.06 268.92 240.62 264.65 241.05 269.61 245.9 270.72 241.32 272.67 241.76 277.62 238.49 273.87 233.92 275.82 236.48 271.55 233.21 267.8"/>
    <polygon class="cls-1" points="231.61 241.88 228.22 245.52 230.63 249.87 226.12 247.77 222.73 251.41 223.34 246.47 218.83 244.38 223.71 243.42 224.31 238.49 226.73 242.84 231.61 241.88"/>
    <polygon class="cls-1" points="254.85 253.45 253.4 248.7 248.42 248.62 252.5 245.76 251.04 241.01 255.01 244 259.08 241.14 257.47 245.84 261.44 248.83 256.47 248.75 254.85 253.45"/>
  </g>
  <g>
    <polygon class="cls-1" points="361.03 286.99 365.87 288.1 368.43 283.84 368.87 288.79 373.71 289.91 369.14 291.85 369.57 296.81 366.31 293.06 361.73 295 364.29 290.74 361.03 286.99"/>
    <polygon class="cls-1" points="359.42 261.07 356.03 264.71 358.45 269.06 353.94 266.96 350.55 270.6 351.15 265.66 346.65 263.56 351.53 262.61 352.13 257.67 354.54 262.02 359.42 261.07"/>
    <polygon class="cls-1" points="382.67 272.64 381.21 267.88 376.24 267.8 380.31 264.95 378.86 260.19 382.83 263.18 386.9 260.33 385.29 265.03 389.26 268.02 384.29 267.94 382.67 272.64"/>
  </g>
  <g>
    <polygon class="cls-1" points="352.27 168.95 357.12 170.06 359.68 165.8 360.11 170.75 364.96 171.87 360.38 173.81 360.82 178.77 357.55 175.02 352.98 176.96 355.54 172.7 352.27 168.95"/>
    <polygon class="cls-1" points="350.67 143.03 347.28 146.67 349.69 151.02 345.18 148.92 341.79 152.56 342.4 147.62 337.89 145.52 342.77 144.57 343.37 139.63 345.79 143.98 350.67 143.03"/>
    <polygon class="cls-1" points="373.92 154.6 372.46 149.85 367.49 149.76 371.56 146.91 370.1 142.15 374.07 145.14 378.15 142.29 376.53 146.99 380.5 149.98 375.53 149.9 373.92 154.6"/>
  </g>
  <g>
    <polygon class="cls-1" points="296.85 121.55 301.7 122.67 304.26 118.4 304.69 123.36 309.54 124.47 304.96 126.42 305.4 131.37 302.14 127.62 297.56 129.57 300.12 125.3 296.85 121.55"/>
    <polygon class="cls-1" points="295.25 95.63 291.86 99.27 294.27 103.62 289.77 101.52 286.38 105.16 286.98 100.22 282.47 98.13 287.35 97.17 287.96 92.24 290.37 96.59 295.25 95.63"/>
    <polygon class="cls-1" points="318.5 107.2 317.04 102.45 312.07 102.37 316.14 99.51 314.68 94.76 318.66 97.75 322.73 94.89 321.11 99.59 325.09 102.59 320.11 102.5 318.5 107.2"/>
  </g>
  <g>
    <polygon class="cls-1" points="437.6 247.26 442.45 248.38 445.01 244.11 445.45 249.07 450.29 250.18 445.71 252.13 446.15 257.08 442.89 253.33 438.31 255.28 440.87 251.01 437.6 247.26"/>
    <polygon class="cls-1" points="436 221.34 432.61 224.98 435.03 229.33 430.52 227.23 427.13 230.87 427.73 225.93 423.22 223.84 428.1 222.88 428.71 217.95 431.12 222.3 436 221.34"/>
    <polygon class="cls-1" points="459.25 232.91 457.79 228.16 452.82 228.08 456.89 225.22 455.43 220.47 459.41 223.46 463.48 220.6 461.86 225.3 465.84 228.29 460.86 228.21 459.25 232.91"/>
  </g>
  <g>
    <polygon class="cls-1" points="437.6 247.26 442.45 248.38 445.01 244.11 445.45 249.07 450.29 250.18 445.71 252.13 446.15 257.08 442.89 253.33 438.31 255.28 440.87 251.01 437.6 247.26"/>
    <polygon class="cls-1" points="436 221.34 432.61 224.98 435.03 229.33 430.52 227.23 427.13 230.87 427.73 225.93 423.22 223.84 428.1 222.88 428.71 217.95 431.12 222.3 436 221.34"/>
    <polygon class="cls-1" points="459.25 232.91 457.79 228.16 452.82 228.08 456.89 225.22 455.43 220.47 459.41 223.46 463.48 220.6 461.86 225.3 465.84 228.29 460.86 228.21 459.25 232.91"/>
  </g>
  <g>
    <polygon class="cls-1" points="437.6 247.26 442.45 248.38 445.01 244.11 445.45 249.07 450.29 250.18 445.71 252.13 446.15 257.08 442.89 253.33 438.31 255.28 440.87 251.01 437.6 247.26"/>
    <polygon class="cls-1" points="436 221.34 432.61 224.98 435.03 229.33 430.52 227.23 427.13 230.87 427.73 225.93 423.22 223.84 428.1 222.88 428.71 217.95 431.12 222.3 436 221.34"/>
    <polygon class="cls-1" points="459.25 232.91 457.79 228.16 452.82 228.08 456.89 225.22 455.43 220.47 459.41 223.46 463.48 220.6 461.86 225.3 465.84 228.29 460.86 228.21 459.25 232.91"/>
  </g>
  <g>
    <polygon class="cls-1" points="437.6 247.26 442.45 248.38 445.01 244.11 445.45 249.07 450.29 250.18 445.71 252.13 446.15 257.08 442.89 253.33 438.31 255.28 440.87 251.01 437.6 247.26"/>
    <polygon class="cls-1" points="436 221.34 432.61 224.98 435.03 229.33 430.52 227.23 427.13 230.87 427.73 225.93 423.22 223.84 428.1 222.88 428.71 217.95 431.12 222.3 436 221.34"/>
    <polygon class="cls-1" points="459.25 232.91 457.79 228.16 452.82 228.08 456.89 225.22 455.43 220.47 459.41 223.46 463.48 220.6 461.86 225.3 465.84 228.29 460.86 228.21 459.25 232.91"/>
  </g>
  <g>
    <polygon class="cls-1" points="437.6 247.26 442.45 248.38 445.01 244.11 445.45 249.07 450.29 250.18 445.71 252.13 446.15 257.08 442.89 253.33 438.31 255.28 440.87 251.01 437.6 247.26"/>
    <polygon class="cls-1" points="436 221.34 432.61 224.98 435.03 229.33 430.52 227.23 427.13 230.87 427.73 225.93 423.22 223.84 428.1 222.88 428.71 217.95 431.12 222.3 436 221.34"/>
    <polygon class="cls-1" points="459.25 232.91 457.79 228.16 452.82 228.08 456.89 225.22 455.43 220.47 459.41 223.46 463.48 220.6 461.86 225.3 465.84 228.29 460.86 228.21 459.25 232.91"/>
  </g>
  <g>
    <polygon class="cls-1" points="437.6 247.26 442.45 248.38 445.01 244.11 445.45 249.07 450.29 250.18 445.71 252.13 446.15 257.08 442.89 253.33 438.31 255.28 440.87 251.01 437.6 247.26"/>
    <polygon class="cls-1" points="436 221.34 432.61 224.98 435.03 229.33 430.52 227.23 427.13 230.87 427.73 225.93 423.22 223.84 428.1 222.88 428.71 217.95 431.12 222.3 436 221.34"/>
    <polygon class="cls-1" points="459.25 232.91 457.79 228.16 452.82 228.08 456.89 225.22 455.43 220.47 459.41 223.46 463.48 220.6 461.86 225.3 465.84 228.29 460.86 228.21 459.25 232.91"/>
  </g>
  <g>
    <polygon class="cls-1" points="437.6 247.26 442.45 248.38 445.01 244.11 445.45 249.07 450.29 250.18 445.71 252.13 446.15 257.08 442.89 253.33 438.31 255.28 440.87 251.01 437.6 247.26"/>
    <polygon class="cls-1" points="436 221.34 432.61 224.98 435.03 229.33 430.52 227.23 427.13 230.87 427.73 225.93 423.22 223.84 428.1 222.88 428.71 217.95 431.12 222.3 436 221.34"/>
    <polygon class="cls-1" points="459.25 232.91 457.79 228.16 452.82 228.08 456.89 225.22 455.43 220.47 459.41 223.46 463.48 220.6 461.86 225.3 465.84 228.29 460.86 228.21 459.25 232.91"/>
  </g>
  <g>
    <polygon class="cls-1" points="437.6 247.26 442.45 248.38 445.01 244.11 445.45 249.07 450.29 250.18 445.71 252.13 446.15 257.08 442.89 253.33 438.31 255.28 440.87 251.01 437.6 247.26"/>
    <polygon class="cls-1" points="436 221.34 432.61 224.98 435.03 229.33 430.52 227.23 427.13 230.87 427.73 225.93 423.22 223.84 428.1 222.88 428.71 217.95 431.12 222.3 436 221.34"/>
    <polygon class="cls-1" points="459.25 232.91 457.79 228.16 452.82 228.08 456.89 225.22 455.43 220.47 459.41 223.46 463.48 220.6 461.86 225.3 465.84 228.29 460.86 228.21 459.25 232.91"/>
  </g>
  <g>
    <polygon class="cls-1" points="437.6 247.26 442.45 248.38 445.01 244.11 445.45 249.07 450.29 250.18 445.71 252.13 446.15 257.08 442.89 253.33 438.31 255.28 440.87 251.01 437.6 247.26"/>
    <polygon class="cls-1" points="436 221.34 432.61 224.98 435.03 229.33 430.52 227.23 427.13 230.87 427.73 225.93 423.22 223.84 428.1 222.88 428.71 217.95 431.12 222.3 436 221.34"/>
    <polygon class="cls-1" points="459.25 232.91 457.79 228.16 452.82 228.08 456.89 225.22 455.43 220.47 459.41 223.46 463.48 220.6 461.86 225.3 465.84 228.29 460.86 228.21 459.25 232.91"/>
  </g>
  <g>
    <polygon class="cls-1" points="437.6 247.26 442.45 248.38 445.01 244.11 445.45 249.07 450.29 250.18 445.71 252.13 446.15 257.08 442.89 253.33 438.31 255.28 440.87 251.01 437.6 247.26"/>
    <polygon class="cls-1" points="436 221.34 432.61 224.98 435.03 229.33 430.52 227.23 427.13 230.87 427.73 225.93 423.22 223.84 428.1 222.88 428.71 217.95 431.12 222.3 436 221.34"/>
    <polygon class="cls-1" points="459.25 232.91 457.79 228.16 452.82 228.08 456.89 225.22 455.43 220.47 459.41 223.46 463.48 220.6 461.86 225.3 465.84 228.29 460.86 228.21 459.25 232.91"/>
  </g>
  <g>
    <polygon class="cls-1" points="437.6 247.26 442.45 248.38 445.01 244.11 445.45 249.07 450.29 250.18 445.71 252.13 446.15 257.08 442.89 253.33 438.31 255.28 440.87 251.01 437.6 247.26"/>
    <polygon class="cls-1" points="436 221.34 432.61 224.98 435.03 229.33 430.52 227.23 427.13 230.87 427.73 225.93 423.22 223.84 428.1 222.88 428.71 217.95 431.12 222.3 436 221.34"/>
    <polygon class="cls-1" points="459.25 232.91 457.79 228.16 452.82 228.08 456.89 225.22 455.43 220.47 459.41 223.46 463.48 220.6 461.86 225.3 465.84 228.29 460.86 228.21 459.25 232.91"/>
  </g>
  <g>
    <polygon class="cls-1" points="437.6 247.26 442.45 248.38 445.01 244.11 445.45 249.07 450.29 250.18 445.71 252.13 446.15 257.08 442.89 253.33 438.31 255.28 440.87 251.01 437.6 247.26"/>
    <polygon class="cls-1" points="436 221.34 432.61 224.98 435.03 229.33 430.52 227.23 427.13 230.87 427.73 225.93 423.22 223.84 428.1 222.88 428.71 217.95 431.12 222.3 436 221.34"/>
    <polygon class="cls-1" points="459.25 232.91 457.79 228.16 452.82 228.08 456.89 225.22 455.43 220.47 459.41 223.46 463.48 220.6 461.86 225.3 465.84 228.29 460.86 228.21 459.25 232.91"/>
  </g>
  <g>
    <polygon class="cls-1" points="437.6 247.26 442.45 248.38 445.01 244.11 445.45 249.07 450.29 250.18 445.71 252.13 446.15 257.08 442.89 253.33 438.31 255.28 440.87 251.01 437.6 247.26"/>
    <polygon class="cls-1" points="436 221.34 432.61 224.98 435.03 229.33 430.52 227.23 427.13 230.87 427.73 225.93 423.22 223.84 428.1 222.88 428.71 217.95 431.12 222.3 436 221.34"/>
    <polygon class="cls-1" points="459.25 232.91 457.79 228.16 452.82 228.08 456.89 225.22 455.43 220.47 459.41 223.46 463.48 220.6 461.86 225.3 465.84 228.29 460.86 228.21 459.25 232.91"/>
  </g>
  <g>
    <polygon class="cls-1" points="437.6 247.26 442.45 248.38 445.01 244.11 445.45 249.07 450.29 250.18 445.71 252.13 446.15 257.08 442.89 253.33 438.31 255.28 440.87 251.01 437.6 247.26"/>
    <polygon class="cls-1" points="436 221.34 432.61 224.98 435.03 229.33 430.52 227.23 427.13 230.87 427.73 225.93 423.22 223.84 428.1 222.88 428.71 217.95 431.12 222.3 436 221.34"/>
    <polygon class="cls-1" points="459.25 232.91 457.79 228.16 452.82 228.08 456.89 225.22 455.43 220.47 459.41 223.46 463.48 220.6 461.86 225.3 465.84 228.29 460.86 228.21 459.25 232.91"/>
  </g>
  <g>
    <polygon class="cls-1" points="437.6 247.26 442.45 248.38 445.01 244.11 445.45 249.07 450.29 250.18 445.71 252.13 446.15 257.08 442.89 253.33 438.31 255.28 440.87 251.01 437.6 247.26"/>
    <polygon class="cls-1" points="436 221.34 432.61 224.98 435.03 229.33 430.52 227.23 427.13 230.87 427.73 225.93 423.22 223.84 428.1 222.88 428.71 217.95 431.12 222.3 436 221.34"/>
    <polygon class="cls-1" points="459.25 232.91 457.79 228.16 452.82 228.08 456.89 225.22 455.43 220.47 459.41 223.46 463.48 220.6 461.86 225.3 465.84 228.29 460.86 228.21 459.25 232.91"/>
  </g>
  <g>
    <polygon class="cls-1" points="437.6 247.26 442.45 248.38 445.01 244.11 445.45 249.07 450.29 250.18 445.71 252.13 446.15 257.08 442.89 253.33 438.31 255.28 440.87 251.01 437.6 247.26"/>
    <polygon class="cls-1" points="436 221.34 432.61 224.98 435.03 229.33 430.52 227.23 427.13 230.87 427.73 225.93 423.22 223.84 428.1 222.88 428.71 217.95 431.12 222.3 436 221.34"/>
    <polygon class="cls-1" points="459.25 232.91 457.79 228.16 452.82 228.08 456.89 225.22 455.43 220.47 459.41 223.46 463.48 220.6 461.86 225.3 465.84 228.29 460.86 228.21 459.25 232.91"/>
  </g>
  <g>
    <polygon class="cls-1" points="437.6 247.26 442.45 248.38 445.01 244.11 445.45 249.07 450.29 250.18 445.71 252.13 446.15 257.08 442.89 253.33 438.31 255.28 440.87 251.01 437.6 247.26"/>
    <polygon class="cls-1" points="436 221.34 432.61 224.98 435.03 229.33 430.52 227.23 427.13 230.87 427.73 225.93 423.22 223.84 428.1 222.88 428.71 217.95 431.12 222.3 436 221.34"/>
    <polygon class="cls-1" points="459.25 232.91 457.79 228.16 452.82 228.08 456.89 225.22 455.43 220.47 459.41 223.46 463.48 220.6 461.86 225.3 465.84 228.29 460.86 228.21 459.25 232.91"/>
  </g>
  <g>
    <polygon class="cls-1" points="437.6 247.26 442.45 248.38 445.01 244.11 445.45 249.07 450.29 250.18 445.71 252.13 446.15 257.08 442.89 253.33 438.31 255.28 440.87 251.01 437.6 247.26"/>
    <polygon class="cls-1" points="436 221.34 432.61 224.98 435.03 229.33 430.52 227.23 427.13 230.87 427.73 225.93 423.22 223.84 428.1 222.88 428.71 217.95 431.12 222.3 436 221.34"/>
    <polygon class="cls-1" points="459.25 232.91 457.79 228.16 452.82 228.08 456.89 225.22 455.43 220.47 459.41 223.46 463.48 220.6 461.86 225.3 465.84 228.29 460.86 228.21 459.25 232.91"/>
  </g>
  <g>
    <polygon class="cls-1" points="437.6 247.26 442.45 248.38 445.01 244.11 445.45 249.07 450.29 250.18 445.71 252.13 446.15 257.08 442.89 253.33 438.31 255.28 440.87 251.01 437.6 247.26"/>
    <polygon class="cls-1" points="436 221.34 432.61 224.98 435.03 229.33 430.52 227.23 427.13 230.87 427.73 225.93 423.22 223.84 428.1 222.88 428.71 217.95 431.12 222.3 436 221.34"/>
    <polygon class="cls-1" points="459.25 232.91 457.79 228.16 452.82 228.08 456.89 225.22 455.43 220.47 459.41 223.46 463.48 220.6 461.86 225.3 465.84 228.29 460.86 228.21 459.25 232.91"/>
  </g>
  <g>
    <polygon class="cls-1" points="437.6 247.26 442.45 248.38 445.01 244.11 445.45 249.07 450.29 250.18 445.71 252.13 446.15 257.08 442.89 253.33 438.31 255.28 440.87 251.01 437.6 247.26"/>
    <polygon class="cls-1" points="436 221.34 432.61 224.98 435.03 229.33 430.52 227.23 427.13 230.87 427.73 225.93 423.22 223.84 428.1 222.88 428.71 217.95 431.12 222.3 436 221.34"/>
    <polygon class="cls-1" points="459.25 232.91 457.79 228.16 452.82 228.08 456.89 225.22 455.43 220.47 459.41 223.46 463.48 220.6 461.86 225.3 465.84 228.29 460.86 228.21 459.25 232.91"/>
  </g>
  <g>
    <polygon class="cls-1" points="437.6 247.26 442.45 248.38 445.01 244.11 445.45 249.07 450.29 250.18 445.71 252.13 446.15 257.08 442.89 253.33 438.31 255.28 440.87 251.01 437.6 247.26"/>
    <polygon class="cls-1" points="436 221.34 432.61 224.98 435.03 229.33 430.52 227.23 427.13 230.87 427.73 225.93 423.22 223.84 428.1 222.88 428.71 217.95 431.12 222.3 436 221.34"/>
    <polygon class="cls-1" points="459.25 232.91 457.79 228.16 452.82 228.08 456.89 225.22 455.43 220.47 459.41 223.46 463.48 220.6 461.86 225.3 465.84 228.29 460.86 228.21 459.25 232.91"/>
  </g>
  <g>
    <polygon class="cls-1" points="437.6 247.26 442.45 248.38 445.01 244.11 445.45 249.07 450.29 250.18 445.71 252.13 446.15 257.08 442.89 253.33 438.31 255.28 440.87 251.01 437.6 247.26"/>
    <polygon class="cls-1" points="436 221.34 432.61 224.98 435.03 229.33 430.52 227.23 427.13 230.87 427.73 225.93 423.22 223.84 428.1 222.88 428.71 217.95 431.12 222.3 436 221.34"/>
    <polygon class="cls-1" points="459.25 232.91 457.79 228.16 452.82 228.08 456.89 225.22 455.43 220.47 459.41 223.46 463.48 220.6 461.86 225.3 465.84 228.29 460.86 228.21 459.25 232.91"/>
  </g>
  <g>
    <polygon class="cls-1" points="437.6 247.26 442.45 248.38 445.01 244.11 445.45 249.07 450.29 250.18 445.71 252.13 446.15 257.08 442.89 253.33 438.31 255.28 440.87 251.01 437.6 247.26"/>
    <polygon class="cls-1" points="436 221.34 432.61 224.98 435.03 229.33 430.52 227.23 427.13 230.87 427.73 225.93 423.22 223.84 428.1 222.88 428.71 217.95 431.12 222.3 436 221.34"/>
    <polygon class="cls-1" points="459.25 232.91 457.79 228.16 452.82 228.08 456.89 225.22 455.43 220.47 459.41 223.46 463.48 220.6 461.86 225.3 465.84 228.29 460.86 228.21 459.25 232.91"/>
  </g>
  <g>
    <polygon class="cls-1" points="437.6 247.26 442.45 248.38 445.01 244.11 445.45 249.07 450.29 250.18 445.71 252.13 446.15 257.08 442.89 253.33 438.31 255.28 440.87 251.01 437.6 247.26"/>
    <polygon class="cls-1" points="436 221.34 432.61 224.98 435.03 229.33 430.52 227.23 427.13 230.87 427.73 225.93 423.22 223.84 428.1 222.88 428.71 217.95 431.12 222.3 436 221.34"/>
    <polygon class="cls-1" points="459.25 232.91 457.79 228.16 452.82 228.08 456.89 225.22 455.43 220.47 459.41 223.46 463.48 220.6 461.86 225.3 465.84 228.29 460.86 228.21 459.25 232.91"/>
  </g>
  <g>
    <polygon class="cls-1" points="437.6 247.26 442.45 248.38 445.01 244.11 445.45 249.07 450.29 250.18 445.71 252.13 446.15 257.08 442.89 253.33 438.31 255.28 440.87 251.01 437.6 247.26"/>
    <polygon class="cls-1" points="436 221.34 432.61 224.98 435.03 229.33 430.52 227.23 427.13 230.87 427.73 225.93 423.22 223.84 428.1 222.88 428.71 217.95 431.12 222.3 436 221.34"/>
    <polygon class="cls-1" points="459.25 232.91 457.79 228.16 452.82 228.08 456.89 225.22 455.43 220.47 459.41 223.46 463.48 220.6 461.86 225.3 465.84 228.29 460.86 228.21 459.25 232.91"/>
  </g>
  <g>
    <polygon class="cls-1" points="437.6 247.26 442.45 248.38 445.01 244.11 445.45 249.07 450.29 250.18 445.71 252.13 446.15 257.08 442.89 253.33 438.31 255.28 440.87 251.01 437.6 247.26"/>
    <polygon class="cls-1" points="436 221.34 432.61 224.98 435.03 229.33 430.52 227.23 427.13 230.87 427.73 225.93 423.22 223.84 428.1 222.88 428.71 217.95 431.12 222.3 436 221.34"/>
    <polygon class="cls-1" points="459.25 232.91 457.79 228.16 452.82 228.08 456.89 225.22 455.43 220.47 459.41 223.46 463.48 220.6 461.86 225.3 465.84 228.29 460.86 228.21 459.25 232.91"/>
  </g>
  <g>
    <polygon class="cls-1" points="437.6 247.26 442.45 248.38 445.01 244.11 445.45 249.07 450.29 250.18 445.71 252.13 446.15 257.08 442.89 253.33 438.31 255.28 440.87 251.01 437.6 247.26"/>
    <polygon class="cls-1" points="436 221.34 432.61 224.98 435.03 229.33 430.52 227.23 427.13 230.87 427.73 225.93 423.22 223.84 428.1 222.88 428.71 217.95 431.12 222.3 436 221.34"/>
    <polygon class="cls-1" points="459.25 232.91 457.79 228.16 452.82 228.08 456.89 225.22 455.43 220.47 459.41 223.46 463.48 220.6 461.86 225.3 465.84 228.29 460.86 228.21 459.25 232.91"/>
  </g>
  <g>
    <polygon class="cls-1" points="437.6 247.26 442.45 248.38 445.01 244.11 445.45 249.07 450.29 250.18 445.71 252.13 446.15 257.08 442.89 253.33 438.31 255.28 440.87 251.01 437.6 247.26"/>
    <polygon class="cls-1" points="436 221.34 432.61 224.98 435.03 229.33 430.52 227.23 427.13 230.87 427.73 225.93 423.22 223.84 428.1 222.88 428.71 217.95 431.12 222.3 436 221.34"/>
    <polygon class="cls-1" points="459.25 232.91 457.79 228.16 452.82 228.08 456.89 225.22 455.43 220.47 459.41 223.46 463.48 220.6 461.86 225.3 465.84 228.29 460.86 228.21 459.25 232.91"/>
  </g>
  <g>
    <polygon class="cls-1" points="437.6 247.26 442.45 248.38 445.01 244.11 445.45 249.07 450.29 250.18 445.71 252.13 446.15 257.08 442.89 253.33 438.31 255.28 440.87 251.01 437.6 247.26"/>
    <polygon class="cls-1" points="436 221.34 432.61 224.98 435.03 229.33 430.52 227.23 427.13 230.87 427.73 225.93 423.22 223.84 428.1 222.88 428.71 217.95 431.12 222.3 436 221.34"/>
    <polygon class="cls-1" points="459.25 232.91 457.79 228.16 452.82 228.08 456.89 225.22 455.43 220.47 459.41 223.46 463.48 220.6 461.86 225.3 465.84 228.29 460.86 228.21 459.25 232.91"/>
  </g>
  <g>
    <polygon class="cls-1" points="437.6 247.26 442.45 248.38 445.01 244.11 445.45 249.07 450.29 250.18 445.71 252.13 446.15 257.08 442.89 253.33 438.31 255.28 440.87 251.01 437.6 247.26"/>
    <polygon class="cls-1" points="436 221.34 432.61 224.98 435.03 229.33 430.52 227.23 427.13 230.87 427.73 225.93 423.22 223.84 428.1 222.88 428.71 217.95 431.12 222.3 436 221.34"/>
    <polygon class="cls-1" points="459.25 232.91 457.79 228.16 452.82 228.08 456.89 225.22 455.43 220.47 459.41 223.46 463.48 220.6 461.86 225.3 465.84 228.29 460.86 228.21 459.25 232.91"/>
  </g>
  <g>
    <polygon class="cls-1" points="437.6 247.26 442.45 248.38 445.01 244.11 445.45 249.07 450.29 250.18 445.71 252.13 446.15 257.08 442.89 253.33 438.31 255.28 440.87 251.01 437.6 247.26"/>
    <polygon class="cls-1" points="436 221.34 432.61 224.98 435.03 229.33 430.52 227.23 427.13 230.87 427.73 225.93 423.22 223.84 428.1 222.88 428.71 217.95 431.12 222.3 436 221.34"/>
    <polygon class="cls-1" points="459.25 232.91 457.79 228.16 452.82 228.08 456.89 225.22 455.43 220.47 459.41 223.46 463.48 220.6 461.86 225.3 465.84 228.29 460.86 228.21 459.25 232.91"/>
  </g>
  <g>
    <polygon class="cls-1" points="437.6 247.26 442.45 248.38 445.01 244.11 445.45 249.07 450.29 250.18 445.71 252.13 446.15 257.08 442.89 253.33 438.31 255.28 440.87 251.01 437.6 247.26"/>
    <polygon class="cls-1" points="436 221.34 432.61 224.98 435.03 229.33 430.52 227.23 427.13 230.87 427.73 225.93 423.22 223.84 428.1 222.88 428.71 217.95 431.12 222.3 436 221.34"/>
    <polygon class="cls-1" points="459.25 232.91 457.79 228.16 452.82 228.08 456.89 225.22 455.43 220.47 459.41 223.46 463.48 220.6 461.86 225.3 465.84 228.29 460.86 228.21 459.25 232.91"/>
  </g>
  <g>
    <polygon class="cls-1" points="437.6 247.26 442.45 248.38 445.01 244.11 445.45 249.07 450.29 250.18 445.71 252.13 446.15 257.08 442.89 253.33 438.31 255.28 440.87 251.01 437.6 247.26"/>
    <polygon class="cls-1" points="436 221.34 432.61 224.98 435.03 229.33 430.52 227.23 427.13 230.87 427.73 225.93 423.22 223.84 428.1 222.88 428.71 217.95 431.12 222.3 436 221.34"/>
    <polygon class="cls-1" points="459.25 232.91 457.79 228.16 452.82 228.08 456.89 225.22 455.43 220.47 459.41 223.46 463.48 220.6 461.86 225.3 465.84 228.29 460.86 228.21 459.25 232.91"/>
  </g>
  <g>
    <polygon class="cls-1" points="437.6 247.26 442.45 248.38 445.01 244.11 445.45 249.07 450.29 250.18 445.71 252.13 446.15 257.08 442.89 253.33 438.31 255.28 440.87 251.01 437.6 247.26"/>
    <polygon class="cls-1" points="436 221.34 432.61 224.98 435.03 229.33 430.52 227.23 427.13 230.87 427.73 225.93 423.22 223.84 428.1 222.88 428.71 217.95 431.12 222.3 436 221.34"/>
    <polygon class="cls-1" points="459.25 232.91 457.79 228.16 452.82 228.08 456.89 225.22 455.43 220.47 459.41 223.46 463.48 220.6 461.86 225.3 465.84 228.29 460.86 228.21 459.25 232.91"/>
  </g>
  <g>
    <polygon class="cls-1" points="437.6 247.26 442.45 248.38 445.01 244.11 445.45 249.07 450.29 250.18 445.71 252.13 446.15 257.08 442.89 253.33 438.31 255.28 440.87 251.01 437.6 247.26"/>
    <polygon class="cls-1" points="436 221.34 432.61 224.98 435.03 229.33 430.52 227.23 427.13 230.87 427.73 225.93 423.22 223.84 428.1 222.88 428.71 217.95 431.12 222.3 436 221.34"/>
    <polygon class="cls-1" points="459.25 232.91 457.79 228.16 452.82 228.08 456.89 225.22 455.43 220.47 459.41 223.46 463.48 220.6 461.86 225.3 465.84 228.29 460.86 228.21 459.25 232.91"/>
  </g>
  <g>
    <polygon class="cls-1" points="437.6 247.26 442.45 248.38 445.01 244.11 445.45 249.07 450.29 250.18 445.71 252.13 446.15 257.08 442.89 253.33 438.31 255.28 440.87 251.01 437.6 247.26"/>
    <polygon class="cls-1" points="436 221.34 432.61 224.98 435.03 229.33 430.52 227.23 427.13 230.87 427.73 225.93 423.22 223.84 428.1 222.88 428.71 217.95 431.12 222.3 436 221.34"/>
    <polygon class="cls-1" points="459.25 232.91 457.79 228.16 452.82 228.08 456.89 225.22 455.43 220.47 459.41 223.46 463.48 220.6 461.86 225.3 465.84 228.29 460.86 228.21 459.25 232.91"/>
  </g>
  <g>
    <polygon class="cls-1" points="437.6 247.26 442.45 248.38 445.01 244.11 445.45 249.07 450.29 250.18 445.71 252.13 446.15 257.08 442.89 253.33 438.31 255.28 440.87 251.01 437.6 247.26"/>
    <polygon class="cls-1" points="436 221.34 432.61 224.98 435.03 229.33 430.52 227.23 427.13 230.87 427.73 225.93 423.22 223.84 428.1 222.88 428.71 217.95 431.12 222.3 436 221.34"/>
    <polygon class="cls-1" points="459.25 232.91 457.79 228.16 452.82 228.08 456.89 225.22 455.43 220.47 459.41 223.46 463.48 220.6 461.86 225.3 465.84 228.29 460.86 228.21 459.25 232.91"/>
  </g>
  <g>
    <polygon class="cls-1" points="437.6 247.26 442.45 248.38 445.01 244.11 445.45 249.07 450.29 250.18 445.71 252.13 446.15 257.08 442.89 253.33 438.31 255.28 440.87 251.01 437.6 247.26"/>
    <polygon class="cls-1" points="436 221.34 432.61 224.98 435.03 229.33 430.52 227.23 427.13 230.87 427.73 225.93 423.22 223.84 428.1 222.88 428.71 217.95 431.12 222.3 436 221.34"/>
    <polygon class="cls-1" points="459.25 232.91 457.79 228.16 452.82 228.08 456.89 225.22 455.43 220.47 459.41 223.46 463.48 220.6 461.86 225.3 465.84 228.29 460.86 228.21 459.25 232.91"/>
  </g>
  <g>
    <polygon class="cls-1" points="437.6 247.26 442.45 248.38 445.01 244.11 445.45 249.07 450.29 250.18 445.71 252.13 446.15 257.08 442.89 253.33 438.31 255.28 440.87 251.01 437.6 247.26"/>
    <polygon class="cls-1" points="436 221.34 432.61 224.98 435.03 229.33 430.52 227.23 427.13 230.87 427.73 225.93 423.22 223.84 428.1 222.88 428.71 217.95 431.12 222.3 436 221.34"/>
    <polygon class="cls-1" points="459.25 232.91 457.79 228.16 452.82 228.08 456.89 225.22 455.43 220.47 459.41 223.46 463.48 220.6 461.86 225.3 465.84 228.29 460.86 228.21 459.25 232.91"/>
  </g>
  <g>
    <polygon class="cls-1" points="437.6 247.26 442.45 248.38 445.01 244.11 445.45 249.07 450.29 250.18 445.71 252.13 446.15 257.08 442.89 253.33 438.31 255.28 440.87 251.01 437.6 247.26"/>
    <polygon class="cls-1" points="436 221.34 432.61 224.98 435.03 229.33 430.52 227.23 427.13 230.87 427.73 225.93 423.22 223.84 428.1 222.88 428.71 217.95 431.12 222.3 436 221.34"/>
    <polygon class="cls-1" points="459.25 232.91 457.79 228.16 452.82 228.08 456.89 225.22 455.43 220.47 459.41 223.46 463.48 220.6 461.86 225.3 465.84 228.29 460.86 228.21 459.25 232.91"/>
  </g>
  <g>
    <polygon class="cls-1" points="170.79 203.86 175.63 204.97 178.19 200.71 178.63 205.66 183.47 206.78 178.9 208.73 179.33 213.68 176.07 209.93 171.49 211.87 174.05 207.61 170.79 203.86"/>
    <polygon class="cls-1" points="169.18 177.94 165.8 181.58 168.21 185.93 163.7 183.83 160.31 187.47 160.91 182.53 156.41 180.43 161.29 179.48 161.89 174.55 164.3 178.89 169.18 177.94"/>
    <polygon class="cls-1" points="192.43 189.51 190.97 184.76 186 184.67 190.07 181.82 188.62 177.06 192.59 180.05 196.66 177.2 195.05 181.9 199.02 184.89 194.05 184.81 192.43 189.51"/>
  </g>
  <g>
    <polygon class="cls-1" points="384.54 105.04 389.39 106.15 391.95 101.89 392.38 106.84 397.23 107.96 392.65 109.91 393.09 114.86 389.83 111.11 385.25 113.05 387.81 108.79 384.54 105.04"/>
    <polygon class="cls-1" points="382.94 79.12 379.55 82.76 381.96 87.11 377.46 85.01 374.07 88.65 374.67 83.71 370.16 81.61 375.04 80.66 375.64 75.73 378.06 80.07 382.94 79.12"/>
    <polygon class="cls-1" points="406.19 90.69 404.73 85.94 399.76 85.85 403.83 83 402.37 78.24 406.35 81.23 410.42 78.38 408.8 83.08 412.77 86.07 407.8 85.99 406.19 90.69"/>
  </g>
  <g>
    <polygon class="cls-1" points="185.62 132.75 190.47 133.86 193.03 129.6 193.46 134.55 198.31 135.67 193.73 137.61 194.17 142.57 190.9 138.82 186.33 140.76 188.89 136.5 185.62 132.75"/>
    <polygon class="cls-1" points="184.02 106.83 180.63 110.47 183.04 114.82 178.53 112.72 175.15 116.36 175.75 111.42 171.24 109.32 176.12 108.37 176.72 103.43 179.14 107.78 184.02 106.83"/>
    <polygon class="cls-1" points="207.26 118.4 205.81 113.65 200.84 113.56 204.91 110.71 203.45 105.95 207.42 108.94 211.5 106.09 209.88 110.79 213.85 113.78 208.88 113.7 207.26 118.4"/>
  </g>
  <g>
    <polygon class="cls-1" points="185.62 132.75 190.47 133.86 193.03 129.6 193.46 134.55 198.31 135.67 193.73 137.61 194.17 142.57 190.9 138.82 186.33 140.76 188.89 136.5 185.62 132.75"/>
    <polygon class="cls-1" points="184.02 106.83 180.63 110.47 183.04 114.82 178.53 112.72 175.15 116.36 175.75 111.42 171.24 109.32 176.12 108.37 176.72 103.43 179.14 107.78 184.02 106.83"/>
    <polygon class="cls-1" points="207.26 118.4 205.81 113.65 200.84 113.56 204.91 110.71 203.45 105.95 207.42 108.94 211.5 106.09 209.88 110.79 213.85 113.78 208.88 113.7 207.26 118.4"/>
  </g>
  <g>
    <polygon class="cls-1" points="185.62 132.75 190.47 133.86 193.03 129.6 193.46 134.55 198.31 135.67 193.73 137.61 194.17 142.57 190.9 138.82 186.33 140.76 188.89 136.5 185.62 132.75"/>
    <polygon class="cls-1" points="184.02 106.83 180.63 110.47 183.04 114.82 178.53 112.72 175.15 116.36 175.75 111.42 171.24 109.32 176.12 108.37 176.72 103.43 179.14 107.78 184.02 106.83"/>
    <polygon class="cls-1" points="207.26 118.4 205.81 113.65 200.84 113.56 204.91 110.71 203.45 105.95 207.42 108.94 211.5 106.09 209.88 110.79 213.85 113.78 208.88 113.7 207.26 118.4"/>
  </g>
  <g>
    <polygon class="cls-1" points="185.62 132.75 190.47 133.86 193.03 129.6 193.46 134.55 198.31 135.67 193.73 137.61 194.17 142.57 190.9 138.82 186.33 140.76 188.89 136.5 185.62 132.75"/>
    <polygon class="cls-1" points="184.02 106.83 180.63 110.47 183.04 114.82 178.53 112.72 175.15 116.36 175.75 111.42 171.24 109.32 176.12 108.37 176.72 103.43 179.14 107.78 184.02 106.83"/>
    <polygon class="cls-1" points="207.26 118.4 205.81 113.65 200.84 113.56 204.91 110.71 203.45 105.95 207.42 108.94 211.5 106.09 209.88 110.79 213.85 113.78 208.88 113.7 207.26 118.4"/>
  </g>
  <g>
    <polygon class="cls-1" points="185.62 132.75 190.47 133.86 193.03 129.6 193.46 134.55 198.31 135.67 193.73 137.61 194.17 142.57 190.9 138.82 186.33 140.76 188.89 136.5 185.62 132.75"/>
    <polygon class="cls-1" points="184.02 106.83 180.63 110.47 183.04 114.82 178.53 112.72 175.15 116.36 175.75 111.42 171.24 109.32 176.12 108.37 176.72 103.43 179.14 107.78 184.02 106.83"/>
    <polygon class="cls-1" points="207.26 118.4 205.81 113.65 200.84 113.56 204.91 110.71 203.45 105.95 207.42 108.94 211.5 106.09 209.88 110.79 213.85 113.78 208.88 113.7 207.26 118.4"/>
  </g>
  <g>
    <polygon class="cls-1" points="185.62 132.75 190.47 133.86 193.03 129.6 193.46 134.55 198.31 135.67 193.73 137.61 194.17 142.57 190.9 138.82 186.33 140.76 188.89 136.5 185.62 132.75"/>
    <polygon class="cls-1" points="184.02 106.83 180.63 110.47 183.04 114.82 178.53 112.72 175.15 116.36 175.75 111.42 171.24 109.32 176.12 108.37 176.72 103.43 179.14 107.78 184.02 106.83"/>
    <polygon class="cls-1" points="207.26 118.4 205.81 113.65 200.84 113.56 204.91 110.71 203.45 105.95 207.42 108.94 211.5 106.09 209.88 110.79 213.85 113.78 208.88 113.7 207.26 118.4"/>
  </g>
  <g>
    <polygon class="cls-1" points="185.62 132.75 190.47 133.86 193.03 129.6 193.46 134.55 198.31 135.67 193.73 137.61 194.17 142.57 190.9 138.82 186.33 140.76 188.89 136.5 185.62 132.75"/>
    <polygon class="cls-1" points="184.02 106.83 180.63 110.47 183.04 114.82 178.53 112.72 175.15 116.36 175.75 111.42 171.24 109.32 176.12 108.37 176.72 103.43 179.14 107.78 184.02 106.83"/>
    <polygon class="cls-1" points="207.26 118.4 205.81 113.65 200.84 113.56 204.91 110.71 203.45 105.95 207.42 108.94 211.5 106.09 209.88 110.79 213.85 113.78 208.88 113.7 207.26 118.4"/>
  </g>
  <g>
    <polygon class="cls-1" points="185.62 132.75 190.47 133.86 193.03 129.6 193.46 134.55 198.31 135.67 193.73 137.61 194.17 142.57 190.9 138.82 186.33 140.76 188.89 136.5 185.62 132.75"/>
    <polygon class="cls-1" points="184.02 106.83 180.63 110.47 183.04 114.82 178.53 112.72 175.15 116.36 175.75 111.42 171.24 109.32 176.12 108.37 176.72 103.43 179.14 107.78 184.02 106.83"/>
    <polygon class="cls-1" points="207.26 118.4 205.81 113.65 200.84 113.56 204.91 110.71 203.45 105.95 207.42 108.94 211.5 106.09 209.88 110.79 213.85 113.78 208.88 113.7 207.26 118.4"/>
  </g>
  <g>
    <polygon class="cls-1" points="185.62 132.75 190.47 133.86 193.03 129.6 193.46 134.55 198.31 135.67 193.73 137.61 194.17 142.57 190.9 138.82 186.33 140.76 188.89 136.5 185.62 132.75"/>
    <polygon class="cls-1" points="184.02 106.83 180.63 110.47 183.04 114.82 178.53 112.72 175.15 116.36 175.75 111.42 171.24 109.32 176.12 108.37 176.72 103.43 179.14 107.78 184.02 106.83"/>
    <polygon class="cls-1" points="207.26 118.4 205.81 113.65 200.84 113.56 204.91 110.71 203.45 105.95 207.42 108.94 211.5 106.09 209.88 110.79 213.85 113.78 208.88 113.7 207.26 118.4"/>
  </g>
  <g>
    <polygon class="cls-1" points="185.62 132.75 190.47 133.86 193.03 129.6 193.46 134.55 198.31 135.67 193.73 137.61 194.17 142.57 190.9 138.82 186.33 140.76 188.89 136.5 185.62 132.75"/>
    <polygon class="cls-1" points="184.02 106.83 180.63 110.47 183.04 114.82 178.53 112.72 175.15 116.36 175.75 111.42 171.24 109.32 176.12 108.37 176.72 103.43 179.14 107.78 184.02 106.83"/>
    <polygon class="cls-1" points="207.26 118.4 205.81 113.65 200.84 113.56 204.91 110.71 203.45 105.95 207.42 108.94 211.5 106.09 209.88 110.79 213.85 113.78 208.88 113.7 207.26 118.4"/>
  </g>
  <g>
    <polygon class="cls-1" points="185.62 132.75 190.47 133.86 193.03 129.6 193.46 134.55 198.31 135.67 193.73 137.61 194.17 142.57 190.9 138.82 186.33 140.76 188.89 136.5 185.62 132.75"/>
    <polygon class="cls-1" points="184.02 106.83 180.63 110.47 183.04 114.82 178.53 112.72 175.15 116.36 175.75 111.42 171.24 109.32 176.12 108.37 176.72 103.43 179.14 107.78 184.02 106.83"/>
    <polygon class="cls-1" points="207.26 118.4 205.81 113.65 200.84 113.56 204.91 110.71 203.45 105.95 207.42 108.94 211.5 106.09 209.88 110.79 213.85 113.78 208.88 113.7 207.26 118.4"/>
  </g>
  <g>
    <polygon class="cls-1" points="185.62 132.75 190.47 133.86 193.03 129.6 193.46 134.55 198.31 135.67 193.73 137.61 194.17 142.57 190.9 138.82 186.33 140.76 188.89 136.5 185.62 132.75"/>
    <polygon class="cls-1" points="184.02 106.83 180.63 110.47 183.04 114.82 178.53 112.72 175.15 116.36 175.75 111.42 171.24 109.32 176.12 108.37 176.72 103.43 179.14 107.78 184.02 106.83"/>
    <polygon class="cls-1" points="207.26 118.4 205.81 113.65 200.84 113.56 204.91 110.71 203.45 105.95 207.42 108.94 211.5 106.09 209.88 110.79 213.85 113.78 208.88 113.7 207.26 118.4"/>
  </g>
  <g>
    <polygon class="cls-1" points="185.62 132.75 190.47 133.86 193.03 129.6 193.46 134.55 198.31 135.67 193.73 137.61 194.17 142.57 190.9 138.82 186.33 140.76 188.89 136.5 185.62 132.75"/>
    <polygon class="cls-1" points="184.02 106.83 180.63 110.47 183.04 114.82 178.53 112.72 175.15 116.36 175.75 111.42 171.24 109.32 176.12 108.37 176.72 103.43 179.14 107.78 184.02 106.83"/>
    <polygon class="cls-1" points="207.26 118.4 205.81 113.65 200.84 113.56 204.91 110.71 203.45 105.95 207.42 108.94 211.5 106.09 209.88 110.79 213.85 113.78 208.88 113.7 207.26 118.4"/>
  </g>
  <g>
    <polygon class="cls-1" points="185.62 132.75 190.47 133.86 193.03 129.6 193.46 134.55 198.31 135.67 193.73 137.61 194.17 142.57 190.9 138.82 186.33 140.76 188.89 136.5 185.62 132.75"/>
    <polygon class="cls-1" points="184.02 106.83 180.63 110.47 183.04 114.82 178.53 112.72 175.15 116.36 175.75 111.42 171.24 109.32 176.12 108.37 176.72 103.43 179.14 107.78 184.02 106.83"/>
    <polygon class="cls-1" points="207.26 118.4 205.81 113.65 200.84 113.56 204.91 110.71 203.45 105.95 207.42 108.94 211.5 106.09 209.88 110.79 213.85 113.78 208.88 113.7 207.26 118.4"/>
  </g>
  <g>
    <polygon class="cls-1" points="175.8 77.33 180.65 78.45 183.21 74.18 183.65 79.13 188.49 80.25 183.92 82.2 184.35 87.15 181.09 83.4 176.51 85.35 179.07 81.08 175.8 77.33"/>
    <polygon class="cls-1" points="174.2 51.41 170.81 55.05 173.23 59.4 168.72 57.3 165.33 60.94 165.93 56 161.42 53.9 166.3 52.95 166.91 48.02 169.32 52.36 174.2 51.41"/>
    <polygon class="cls-1" points="197.45 62.98 195.99 58.23 191.02 58.14 195.09 55.29 193.63 50.53 197.61 53.52 201.68 50.67 200.06 55.37 204.04 58.36 199.06 58.28 197.45 62.98"/>
  </g>
  <g>
    <polygon class="cls-1" points="333.32 61.64 338.16 62.75 340.72 58.49 341.16 63.44 346.01 64.56 341.43 66.5 341.87 71.46 338.6 67.71 334.02 69.65 336.58 65.39 333.32 61.64"/>
    <polygon class="cls-1" points="331.72 35.72 328.33 39.36 330.74 43.71 326.23 41.61 322.84 45.25 323.44 40.31 318.94 38.21 323.82 37.26 324.42 32.32 326.83 36.67 331.72 35.72"/>
    <polygon class="cls-1" points="354.96 47.29 353.5 42.54 348.53 42.45 352.6 39.6 351.15 34.84 355.12 37.83 359.19 34.98 357.58 39.68 361.55 42.67 356.58 42.59 354.96 47.29"/>
  </g>
  <g>
    <polygon class="cls-1" points="256.38 77.33 261.23 78.45 263.78 74.18 264.22 79.13 269.07 80.25 264.49 82.2 264.93 87.15 261.66 83.4 257.09 85.35 259.64 81.08 256.38 77.33"/>
    <polygon class="cls-1" points="254.78 51.41 251.39 55.05 253.8 59.4 249.29 57.3 245.9 60.94 246.51 56 242 53.9 246.88 52.95 247.48 48.02 249.9 52.36 254.78 51.41"/>
    <polygon class="cls-1" points="278.02 62.98 276.57 58.23 271.59 58.14 275.67 55.29 274.21 50.53 278.18 53.52 282.25 50.67 280.64 55.37 284.61 58.36 279.64 58.28 278.02 62.98"/>
  </g>
  <g>
    <polygon class="cls-1" points="392.86 41.13 397.71 42.25 400.27 37.98 400.7 42.94 405.55 44.05 400.97 46 401.41 50.95 398.15 47.2 393.57 49.15 396.13 44.88 392.86 41.13"/>
    <polygon class="cls-1" points="391.26 15.21 387.87 18.85 390.28 23.2 385.78 21.1 382.39 24.74 382.99 19.8 378.48 17.71 383.36 16.75 383.96 11.82 386.38 16.17 391.26 15.21"/>
    <polygon class="cls-1" points="414.51 26.78 413.05 22.03 408.08 21.95 412.15 19.09 410.69 14.34 414.66 17.33 418.74 14.47 417.12 19.17 421.09 22.16 416.12 22.08 414.51 26.78"/>
  </g>
  <g>
    <polygon class="cls-1" points="119.89 68.84 124.74 69.95 127.3 65.69 127.74 70.64 132.58 71.76 128.01 73.71 128.44 78.66 125.18 74.91 120.6 76.85 123.16 72.59 119.89 68.84"/>
    <polygon class="cls-1" points="118.29 42.92 114.9 46.56 117.32 50.91 112.81 48.81 109.42 52.45 110.02 47.51 105.51 45.41 110.39 44.46 111 39.53 113.41 43.87 118.29 42.92"/>
    <polygon class="cls-1" points="141.54 54.49 140.08 49.74 135.11 49.65 139.18 46.8 137.72 42.04 141.7 45.03 145.77 42.18 144.15 46.88 148.13 49.87 143.16 49.79 141.54 54.49"/>
  </g>
  <g>
    <polygon class="cls-1" points="439.96 89.34 444.81 90.46 447.37 86.2 447.8 91.15 452.65 92.27 448.07 94.21 448.51 99.17 445.24 95.41 440.67 97.36 443.23 93.1 439.96 89.34"/>
    <polygon class="cls-1" points="438.36 63.43 434.97 67.07 437.38 71.42 432.87 69.32 429.48 72.96 430.09 68.02 425.58 65.92 430.46 64.97 431.06 60.03 433.48 64.38 438.36 63.43"/>
    <polygon class="cls-1" points="461.6 75 460.15 70.24 455.17 70.16 459.25 67.31 457.79 62.55 461.76 65.54 465.83 62.69 464.22 67.39 468.19 70.38 463.22 70.3 461.6 75"/>
  </g>
  <g>
    <polygon class="cls-1" points="74.39 125.51 79.24 126.63 81.79 122.36 82.23 127.32 87.08 128.43 82.5 130.38 82.94 135.33 79.67 131.58 75.09 133.53 77.65 129.26 74.39 125.51"/>
    <polygon class="cls-1" points="72.79 99.59 69.4 103.23 71.81 107.58 67.3 105.48 63.91 109.12 64.52 104.19 60.01 102.09 64.89 101.13 65.49 96.2 67.91 100.55 72.79 99.59"/>
    <polygon class="cls-1" points="96.03 111.16 94.58 106.41 89.6 106.33 93.68 103.47 92.22 98.72 96.19 101.71 100.26 98.85 98.65 103.55 102.62 106.54 97.65 106.46 96.03 111.16"/>
  </g>
  <g>
    <polygon class="cls-1" points="74.39 224.36 79.24 225.48 81.79 221.22 82.23 226.17 87.08 227.29 82.5 229.23 82.94 234.19 79.67 230.43 75.09 232.38 77.65 228.12 74.39 224.36"/>
    <polygon class="cls-1" points="72.79 198.45 69.4 202.09 71.81 206.44 67.3 204.34 63.91 207.98 64.52 203.04 60.01 200.94 64.89 199.99 65.49 195.05 67.91 199.4 72.79 198.45"/>
    <polygon class="cls-1" points="96.03 210.02 94.58 205.26 89.6 205.18 93.68 202.32 92.22 197.57 96.19 200.56 100.26 197.71 98.65 202.41 102.62 205.4 97.65 205.32 96.03 210.02"/>
  </g>
  <g>
    <polygon class="cls-1" points="119.89 168.3 124.74 169.42 127.3 165.15 127.74 170.11 132.58 171.22 128.01 173.17 128.44 178.12 125.18 174.37 120.6 176.32 123.16 172.05 119.89 168.3"/>
    <polygon class="cls-1" points="118.29 142.39 114.9 146.02 117.32 150.37 112.81 148.27 109.42 151.91 110.02 146.98 105.51 144.88 110.39 143.93 111 138.99 113.41 143.34 118.29 142.39"/>
    <polygon class="cls-1" points="141.54 153.96 140.08 149.2 135.11 149.12 139.18 146.26 137.72 141.51 141.7 144.5 145.77 141.64 144.15 146.35 148.13 149.34 143.15 149.25 141.54 153.96"/>
  </g>
</svg>