<?xml version="1.0" encoding="UTF-8"?>
<svg id="Calque_2" data-name="Calque 2" xmlns="http://www.w3.org/2000/svg" viewBox="0 0 574.7 574.7">
  <defs>
    <style>
      .cls-1 {
        fill: #ffe266;
        stroke: #000;
        stroke-miterlimit: 10;
        stroke-width: 3px;
      }
    </style>
  </defs>
  <path class="cls-1" d="M412.21,263.72s-31.7,54-76.3,84.52v9.39s76.3-45.78,88.04-83.35l-11.74-10.57Z"/>
  <path class="cls-1" d="M451.5,258.97s-31.7,54-76.3,84.52v9.39s76.3-45.78,88.04-83.35l-11.74-10.57Z"/>
  <path class="cls-1" d="M451.5,258.97s-31.7,54-76.3,84.52v9.39s76.3-45.78,88.04-83.35l-11.74-10.57Z"/>
  <path class="cls-1" d="M451.5,258.97s-31.7,54-76.3,84.52v9.39s76.3-45.78,88.04-83.35l-11.74-10.57Z"/>
  <path class="cls-1" d="M451.5,258.97s-31.7,54-76.3,84.52v9.39s76.3-45.78,88.04-83.35l-11.74-10.57Z"/>
  <path class="cls-1" d="M367.53,296.56s-53.14,33.11-106.82,39.44l-4.36,8.32s88.84-5.13,116.67-32.95l-5.49-14.81Z"/>
  <path class="cls-1" d="M257.92,353.93s59.99-17.93,113.44-9.88l6.4-6.87s-87.05-18.48-121.23,1.02l1.39,15.73Z"/>
  <path class="cls-1" d="M441.79,281.39s-49.59,38.23-102.38,49.85l-3.51,8.71s87.89-13.92,112.83-44.37l-6.94-14.19Z"/>
  <path class="cls-1" d="M332.74,308.37s-31.7,54-76.3,84.52v9.39s76.3-45.78,88.04-83.35l-11.74-10.57Z"/>
  <path class="cls-1" d="M372.03,303.62s-31.7,54-76.3,84.52v9.39s76.3-45.78,88.04-83.35l-11.74-10.57Z"/>
  <path class="cls-1" d="M372.03,303.62s-31.7,54-76.3,84.52v9.39s76.3-45.78,88.04-83.35l-11.74-10.57Z"/>
  <path class="cls-1" d="M372.03,303.62s-31.7,54-76.3,84.52v9.39s76.3-45.78,88.04-83.35l-11.74-10.57Z"/>
  <path class="cls-1" d="M372.03,303.62s-31.7,54-76.3,84.52v9.39s76.3-45.78,88.04-83.35l-11.74-10.57Z"/>
  <path class="cls-1" d="M266.64,373.84s-53.14,33.11-106.82,39.44l-4.36,8.32s88.84-5.13,116.67-32.95l-5.49-14.81Z"/>
  <path class="cls-1" d="M157.02,431.22s59.99-17.93,113.44-9.88l6.4-6.87s-87.05-18.48-121.23,1.02l1.39,15.73Z"/>
  <path class="cls-1" d="M341.89,303.69s-49.59,38.23-102.38,49.85l-3.51,8.71s87.89-13.92,112.83-44.37l-6.94-14.19Z"/>
  <path class="cls-1" d="M331.95,251.98s-31.7,54-76.3,84.52v9.39s76.3-45.78,88.04-83.35l-11.74-10.57Z"/>
  <path class="cls-1" d="M417.43,223.89s-31.7,54-76.3,84.52v9.39s76.3-45.78,88.04-83.35l-11.74-10.57Z"/>
  <path class="cls-1" d="M417.43,223.89s-31.7,54-76.3,84.52v9.39s76.3-45.78,88.04-83.35l-11.74-10.57Z"/>
  <path class="cls-1" d="M417.43,223.89s-31.7,54-76.3,84.52v9.39s76.3-45.78,88.04-83.35l-11.74-10.57Z"/>
  <path class="cls-1" d="M417.43,223.89s-31.7,54-76.3,84.52v9.39s76.3-45.78,88.04-83.35l-11.74-10.57Z"/>
  <path class="cls-1" d="M333.47,261.48s-53.14,33.11-106.82,39.44l-4.36,8.32s88.84-5.13,116.67-32.95l-5.49-14.81Z"/>
  <path class="cls-1" d="M223.85,318.85s59.99-17.93,113.44-9.88l6.4-6.87s-87.05-18.48-121.23,1.02l1.39,15.73Z"/>
  <path class="cls-1" d="M361.54,269.65s-49.59,38.23-102.38,49.85l-3.51,8.71s87.89-13.92,112.83-44.37l-6.94-14.19Z"/>
  <path class="cls-1" d="M424.95,310.75s-31.7,54-76.3,84.52v9.39s76.3-45.78,88.04-83.35l-11.74-10.57Z"/>
  <path class="cls-1" d="M464.24,306s-31.7,54-76.3,84.52v9.39s76.3-45.78,88.04-83.35l-11.74-10.57Z"/>
  <path class="cls-1" d="M464.24,306s-31.7,54-76.3,84.52v9.39s76.3-45.78,88.04-83.35l-11.74-10.57Z"/>
  <path class="cls-1" d="M464.24,306s-31.7,54-76.3,84.52v9.39s76.3-45.78,88.04-83.35l-11.74-10.57Z"/>
  <path class="cls-1" d="M464.24,306s-31.7,54-76.3,84.52v9.39s76.3-45.78,88.04-83.35l-11.74-10.57Z"/>
  <path class="cls-1" d="M406.03,297.89s-53.14,33.11-106.82,39.44l-4.36,8.32s88.84-5.13,116.67-32.95l-5.49-14.81Z"/>
  <path class="cls-1" d="M296.41,355.26s59.99-17.93,113.44-9.88l6.4-6.87s-87.05-18.48-121.23,1.02l1.39,15.73Z"/>
  <path class="cls-1" d="M434.1,306.06s-49.59,38.23-102.38,49.85l-3.51,8.71s87.89-13.92,112.83-44.37l-6.94-14.19Z"/>
  <path class="cls-1" d="M344.78,342.4s-31.7,54-76.3,84.52v9.39s76.3-45.78,88.04-83.35l-11.74-10.57Z"/>
  <path class="cls-1" d="M384.07,337.65s-31.7,54-76.3,84.52v9.39s76.3-45.78,88.04-83.35l-11.74-10.57Z"/>
  <path class="cls-1" d="M384.07,337.65s-31.7,54-76.3,84.52v9.39s76.3-45.78,88.04-83.35l-11.74-10.57Z"/>
  <path class="cls-1" d="M384.07,337.65s-31.7,54-76.3,84.52v9.39s76.3-45.78,88.04-83.35l-11.74-10.57Z"/>
  <path class="cls-1" d="M384.07,337.65s-31.7,54-76.3,84.52v9.39s76.3-45.78,88.04-83.35l-11.74-10.57Z"/>
  <path class="cls-1" d="M346.29,351.91s-53.14,33.11-106.82,39.44l-4.36,8.32s88.84-5.13,116.67-32.95l-5.49-14.81Z"/>
  <path class="cls-1" d="M236.68,409.28s59.99-17.93,113.44-9.88l6.4-6.87s-87.05-18.48-121.23,1.02l1.39,15.73Z"/>
  <path class="cls-1" d="M374.36,360.08s-49.59,38.23-102.38,49.85l-3.51,8.71s87.89-13.92,112.83-44.37l-6.94-14.19Z"/>
  <path class="cls-1" d="M434.38,344.78s-31.7,54-76.3,84.52v9.39s76.3-45.78,88.04-83.35l-11.74-10.57Z"/>
  <path class="cls-1" d="M473.67,340.03s-31.7,54-76.3,84.52v9.39s76.3-45.78,88.04-83.35l-11.74-10.57Z"/>
  <path class="cls-1" d="M473.67,340.03s-31.7,54-76.3,84.52v9.39s76.3-45.78,88.04-83.35l-11.74-10.57Z"/>
  <path class="cls-1" d="M473.67,340.03s-31.7,54-76.3,84.52v9.39s76.3-45.78,88.04-83.35l-11.74-10.57Z"/>
  <path class="cls-1" d="M473.67,340.03s-31.7,54-76.3,84.52v9.39s76.3-45.78,88.04-83.35l-11.74-10.57Z"/>
  <path class="cls-1" d="M435.9,354.28s-53.14,33.11-106.82,39.44l-4.36,8.32s88.84-5.13,116.67-32.95l-5.49-14.81Z"/>
  <path class="cls-1" d="M326.28,411.65s59.99-17.93,113.44-9.88l6.4-6.87s-87.05-18.48-121.23,1.02l1.39,15.73Z"/>
  <path class="cls-1" d="M463.97,362.45s-49.59,38.23-102.38,49.85l-3.51,8.71s87.89-13.92,112.83-44.37l-6.94-14.19Z"/>
  <path class="cls-1" d="M230.17,331.64s-31.7,54-76.3,84.52v9.39s76.3-45.78,88.04-83.35l-11.74-10.57Z"/>
  <path class="cls-1" d="M270.45,271.9s-31.7,54-76.3,84.52v9.39s76.3-45.78,88.04-83.35l-11.74-10.57Z"/>
  <path class="cls-1" d="M270.45,271.9s-31.7,54-76.3,84.52v9.39s76.3-45.78,88.04-83.35l-11.74-10.57Z"/>
  <path class="cls-1" d="M270.45,271.9s-31.7,54-76.3,84.52v9.39s76.3-45.78,88.04-83.35l-11.74-10.57Z"/>
  <path class="cls-1" d="M270.45,271.9s-31.7,54-76.3,84.52v9.39s76.3-45.78,88.04-83.35l-11.74-10.57Z"/>
  <path class="cls-1" d="M231.69,341.14s-53.14,33.11-106.82,39.44l-4.36,8.32s88.84-5.13,116.67-32.95l-5.49-14.81Z"/>
  <path class="cls-1" d="M122.07,398.51s59.99-17.93,113.44-9.88l6.4-6.87s-87.05-18.48-121.23,1.02l1.39,15.73Z"/>
  <path class="cls-1" d="M259.76,349.31s-49.59,38.23-102.38,49.85l-3.51,8.71s87.89-13.92,112.83-44.37l-6.94-14.19Z"/>
  <path class="cls-1" d="M318.23,383.42s-31.7,54-76.3,84.52v9.39s76.3-45.78,88.04-83.35l-11.74-10.57Z"/>
  <path class="cls-1" d="M357.52,378.67s-31.7,54-76.3,84.52v9.39s76.3-45.78,88.04-83.35l-11.74-10.57Z"/>
  <path class="cls-1" d="M357.52,378.67s-31.7,54-76.3,84.52v9.39s76.3-45.78,88.04-83.35l-11.74-10.57Z"/>
  <path class="cls-1" d="M357.52,378.67s-31.7,54-76.3,84.52v9.39s76.3-45.78,88.04-83.35l-11.74-10.57Z"/>
  <path class="cls-1" d="M357.52,378.67s-31.7,54-76.3,84.52v9.39s76.3-45.78,88.04-83.35l-11.74-10.57Z"/>
  <path class="cls-1" d="M319.75,392.92s-53.14,33.11-106.82,39.44l-4.36,8.32s88.84-5.13,116.67-32.95l-5.49-14.81Z"/>
  <path class="cls-1" d="M210.13,450.29s59.99-17.93,113.44-9.88l6.4-6.87s-87.05-18.48-121.23,1.02l1.39,15.73Z"/>
  <path class="cls-1" d="M347.82,401.09s-49.59,38.23-102.38,49.85l-3.51,8.71s87.89-13.92,112.83-44.37l-6.94-14.19Z"/>
  <path class="cls-1" d="M490.79,310.75s-31.7,54-76.3,84.52v9.39s76.3-45.78,88.04-83.35l-11.74-10.57Z"/>
  <path class="cls-1" d="M530.08,306s-31.7,54-76.3,84.52v9.39s76.3-45.78,88.04-83.35l-11.74-10.57Z"/>
  <path class="cls-1" d="M530.08,306s-31.7,54-76.3,84.52v9.39s76.3-45.78,88.04-83.35l-11.74-10.57Z"/>
  <path class="cls-1" d="M530.08,306s-31.7,54-76.3,84.52v9.39s76.3-45.78,88.04-83.35l-11.74-10.57Z"/>
  <path class="cls-1" d="M530.08,306s-31.7,54-76.3,84.52v9.39s76.3-45.78,88.04-83.35l-11.74-10.57Z"/>
  <path class="cls-1" d="M471.87,297.89s-53.14,33.11-106.82,39.44l-4.36,8.32s88.84-5.13,116.67-32.95l-5.49-14.81Z"/>
  <path class="cls-1" d="M362.25,355.26s59.99-17.93,113.44-9.88l6.4-6.87s-87.05-18.48-121.23,1.02l1.39,15.73Z"/>
  <path class="cls-1" d="M499.94,306.06s-49.59,38.23-102.38,49.85l-3.51,8.71s87.89-13.92,112.83-44.37l-6.94-14.19Z"/>
  <path class="cls-1" d="M410.64,372.22s-31.7,54-76.3,84.52v9.39s76.3-45.78,88.04-83.35l-11.74-10.57Z"/>
  <path class="cls-1" d="M449.93,367.47s-31.7,54-76.3,84.52v9.39s76.3-45.78,88.04-83.35l-11.74-10.57Z"/>
  <path class="cls-1" d="M449.93,367.47s-31.7,54-76.3,84.52v9.39s76.3-45.78,88.04-83.35l-11.74-10.57Z"/>
  <path class="cls-1" d="M449.93,367.47s-31.7,54-76.3,84.52v9.39s76.3-45.78,88.04-83.35l-11.74-10.57Z"/>
  <path class="cls-1" d="M449.93,367.47s-31.7,54-76.3,84.52v9.39s76.3-45.78,88.04-83.35l-11.74-10.57Z"/>
  <path class="cls-1" d="M412.15,381.72s-53.14,33.11-106.82,39.44l-4.36,8.32s88.84-5.13,116.67-32.95l-5.49-14.81Z"/>
  <path class="cls-1" d="M302.54,439.09s59.99-17.93,113.44-9.88l6.4-6.87s-87.05-18.48-121.23,1.02l1.39,15.73Z"/>
  <path class="cls-1" d="M440.22,389.89s-49.59,38.23-102.38,49.85l-3.51,8.71s87.89-13.92,112.83-44.37l-6.94-14.19Z"/>
  <path class="cls-1" d="M205.5,246s-31.7,54-76.3,84.52v9.39s76.3-45.78,88.04-83.35l-11.74-10.57Z"/>
  <path class="cls-1" d="M244.79,241.25s-31.7,54-76.3,84.52v9.39s76.3-45.78,88.04-83.35l-11.74-10.57Z"/>
  <path class="cls-1" d="M244.79,241.25s-31.7,54-76.3,84.52v9.39s76.3-45.78,88.04-83.35l-11.74-10.57Z"/>
  <path class="cls-1" d="M244.79,241.25s-31.7,54-76.3,84.52v9.39s76.3-45.78,88.04-83.35l-11.74-10.57Z"/>
  <path class="cls-1" d="M244.79,241.25s-31.7,54-76.3,84.52v9.39s76.3-45.78,88.04-83.35l-11.74-10.57Z"/>
  <path class="cls-1" d="M235.08,263.68s-49.59,38.23-102.38,49.85l-3.51,8.71s87.89-13.92,112.83-44.37l-6.94-14.19Z"/>
  <path class="cls-1" d="M210.72,206.18s-31.7,54-76.3,84.52v9.39s76.3-45.78,88.04-83.35l-11.74-10.57Z"/>
  <path class="cls-1" d="M218.24,293.03s-31.7,54-76.3,84.52v9.39s76.3-45.78,88.04-83.35l-11.74-10.57Z"/>
  <path class="cls-1" d="M257.53,288.28s-31.7,54-76.3,84.52v9.39s76.3-45.78,88.04-83.35l-11.74-10.57Z"/>
  <path class="cls-1" d="M257.53,288.28s-31.7,54-76.3,84.52v9.39s76.3-45.78,88.04-83.35l-11.74-10.57Z"/>
  <path class="cls-1" d="M257.53,288.28s-31.7,54-76.3,84.52v9.39s76.3-45.78,88.04-83.35l-11.74-10.57Z"/>
  <path class="cls-1" d="M257.53,288.28s-31.7,54-76.3,84.52v9.39s76.3-45.78,88.04-83.35l-11.74-10.57Z"/>
  <path class="cls-1" d="M199.32,280.18s-53.14,33.11-106.82,39.44l-4.36,8.32s88.84-5.13,116.67-32.95l-5.49-14.81Z"/>
  <path class="cls-1" d="M89.7,337.55s59.99-17.93,113.44-9.88l6.4-6.87s-87.05-18.48-121.23,1.02l1.39,15.73Z"/>
  <path class="cls-1" d="M227.39,288.35s-49.59,38.23-102.38,49.85l-3.51,8.71s87.89-13.92,112.83-44.37l-6.94-14.19Z"/>
  <path class="cls-1" d="M284.08,293.03s-31.7,54-76.3,84.52v9.39s76.3-45.78,88.04-83.35l-11.74-10.57Z"/>
  <path class="cls-1" d="M265.16,280.18s-53.14,33.11-106.82,39.44l-4.36,8.32s88.84-5.13,116.67-32.95l-5.49-14.81Z"/>
  <path class="cls-1" d="M155.54,337.55s59.99-17.93,113.44-9.88l6.4-6.87s-87.05-18.48-121.23,1.02l1.39,15.73Z"/>
  <path class="cls-1" d="M293.23,288.35s-49.59,38.23-102.38,49.85l-3.51,8.71s87.89-13.92,112.83-44.37l-6.94-14.19Z"/>
  <path class="cls-1" d="M336.06,190.63s-31.7,54-76.3,84.52v9.39s76.3-45.78,88.04-83.35l-11.74-10.57Z"/>
  <path class="cls-1" d="M375.35,185.88s-31.7,54-76.3,84.52v9.39s76.3-45.78,88.04-83.35l-11.74-10.57Z"/>
  <path class="cls-1" d="M375.35,185.88s-31.7,54-76.3,84.52v9.39s76.3-45.78,88.04-83.35l-11.74-10.57Z"/>
  <path class="cls-1" d="M375.35,185.88s-31.7,54-76.3,84.52v9.39s76.3-45.78,88.04-83.35l-11.74-10.57Z"/>
  <path class="cls-1" d="M375.35,185.88s-31.7,54-76.3,84.52v9.39s76.3-45.78,88.04-83.35l-11.74-10.57Z"/>
  <path class="cls-1" d="M365.65,208.3s-49.59,38.23-102.38,49.85l-3.51,8.71s87.89-13.92,112.83-44.37l-6.94-14.19Z"/>
  <path class="cls-1" d="M341.29,150.8s-31.7,54-76.3,84.52v9.39s76.3-45.78,88.04-83.35l-11.74-10.57Z"/>
  <path class="cls-1" d="M270.45,210.54s-31.7,54-76.3,84.52v9.39s76.3-45.78,88.04-83.35l-11.74-10.57Z"/>
  <path class="cls-1" d="M423.03,185.88s-31.7,54-76.3,84.52v9.39s76.3-45.78,88.04-83.35l-11.74-10.57Z"/>
  <path class="cls-1" d="M260.97,219.84s-31.7,54-76.3,84.52v9.39s76.3-45.78,88.04-83.35l-11.74-10.57Z"/>
  <path class="cls-1" d="M348.81,237.66s-31.7,54-76.3,84.52v9.39s76.3-45.78,88.04-83.35l-11.74-10.57Z"/>
  <path class="cls-1" d="M388.1,232.91s-31.7,54-76.3,84.52v9.39s76.3-45.78,88.04-83.35l-11.74-10.57Z"/>
  <path class="cls-1" d="M388.1,232.91s-31.7,54-76.3,84.52v9.39s76.3-45.78,88.04-83.35l-11.74-10.57Z"/>
  <path class="cls-1" d="M388.1,232.91s-31.7,54-76.3,84.52v9.39s76.3-45.78,88.04-83.35l-11.74-10.57Z"/>
  <path class="cls-1" d="M388.1,232.91s-31.7,54-76.3,84.52v9.39s76.3-45.78,88.04-83.35l-11.74-10.57Z"/>
  <path class="cls-1" d="M329.88,224.8s-53.14,33.11-106.82,39.44l-4.36,8.32s88.84-5.13,116.67-32.95l-5.49-14.81Z"/>
  <path class="cls-1" d="M220.27,282.17s59.99-17.93,113.44-9.88l6.4-6.87s-87.05-18.48-121.23,1.02l1.39,15.73Z"/>
  <path class="cls-1" d="M357.95,232.97s-49.59,38.23-102.38,49.85l-3.51,8.71s87.89-13.92,112.83-44.37l-6.94-14.19Z"/>
  <path class="cls-1" d="M414.65,237.66s-31.7,54-76.3,84.52v9.39s76.3-45.78,88.04-83.35l-11.74-10.57Z"/>
  <path class="cls-1" d="M395.72,224.8s-53.14,33.11-106.82,39.44l-4.36,8.32s88.84-5.13,116.67-32.95l-5.49-14.81Z"/>
  <path class="cls-1" d="M286.11,282.17s59.99-17.93,113.44-9.88l6.4-6.87s-87.05-18.48-121.23,1.02l1.39,15.73Z"/>
  <path class="cls-1" d="M423.79,232.97s-49.59,38.23-102.38,49.85l-3.51,8.71s87.89-13.92,112.83-44.37l-6.94-14.19Z"/>
</svg>