<?xml version="1.0" encoding="UTF-8"?>
<svg id="Calque_2" data-name="Calque 2" xmlns="http://www.w3.org/2000/svg" viewBox="0 0 574.7 574.7">
  <defs>
    <style>
      .cls-1 {
        fill: #ffdf88;
        stroke: #000;
        stroke-miterlimit: 10;
        stroke-width: 3px;
      }
    </style>
  </defs>
  <path class="cls-1" d="M323.75,152.26l-22.3,21.13s-4.7,16.43,11.15,9.39l24.07-24.65s9.39-14.09-12.91-5.87Z"/>
  <path class="cls-1" d="M276.48,176.65l-22.3,21.13s-4.7,16.43,11.15,9.39l24.07-24.65s9.39-14.09-12.91-5.87Z"/>
  <path class="cls-1" d="M281.23,200.78l-22.3,21.13s-4.7,16.43,11.15,9.39l24.07-24.65s9.39-14.09-12.91-5.87Z"/>
  <path class="cls-1" d="M215,187.11l-22.3,21.13s-4.7,16.43,11.15,9.39l24.07-24.65s9.39-14.09-12.91-5.87Z"/>
  <path class="cls-1" d="M307.18,209.77l-22.3,21.13s-4.7,16.43,11.15,9.39l24.07-24.65s9.39-14.09-12.91-5.87Z"/>
  <path class="cls-1" d="M229.2,209.77l-22.3,21.13s-4.7,16.43,11.15,9.39l24.07-24.65s9.39-14.09-12.91-5.87Z"/>
  <path class="cls-1" d="M330.86,218.21l-22.3,21.13s-4.7,16.43,11.15,9.39l24.07-24.65s9.39-14.09-12.91-5.87Z"/>
  <path class="cls-1" d="M314.31,349.17l-22.3,21.13s-4.7,16.43,11.15,9.39l24.07-24.65s9.39-14.09-12.91-5.87Z"/>
  <path class="cls-1" d="M314.31,257.55l-22.3,21.13s-4.7,16.43,11.15,9.39l24.07-24.65s9.39-14.09-12.91-5.87Z"/>
  <path class="cls-1" d="M252.8,257.55l-22.3,21.13s-4.7,16.43,11.15,9.39l24.07-24.65s9.39-14.09-12.91-5.87Z"/>
  <path class="cls-1" d="M356.89,249.85l-22.3,21.13s-4.7,16.43,11.15,9.39l24.07-24.65s9.39-14.09-12.91-5.87Z"/>
  <path class="cls-1" d="M281.23,262.04l-22.3,21.13s-4.7,16.43,11.15,9.39l24.07-24.65s9.39-14.09-12.91-5.87Z"/>
  <path class="cls-1" d="M243.4,235.63l-22.3,21.13s-4.7,16.43,11.15,9.39l24.07-24.65s9.39-14.09-12.91-5.87Z"/>
  <path class="cls-1" d="M196.08,259.43l-22.3,21.13s-4.7,16.43,11.15,9.39l24.07-24.65s9.39-14.09-12.91-5.87Z"/>
  <path class="cls-1" d="M153.51,349.17l-22.3,21.13s-4.7,16.43,11.15,9.39l24.07-24.65s9.39-14.09-12.91-5.87Z"/>
  <path class="cls-1" d="M144.13,285.25l-22.3,21.13s-4.7,16.43,11.15,9.39l24.07-24.65s9.39-14.09-12.91-5.87Z"/>
  <path class="cls-1" d="M196.08,296.89l-22.3,21.13s-4.7,16.43,11.15,9.39l24.07-24.65s9.39-14.09-12.91-5.87Z"/>
  <path class="cls-1" d="M148.82,314.32l-22.3,21.13s-4.7,16.43,11.15,9.39l24.07-24.65s9.39-14.09-12.91-5.87Z"/>
  <path class="cls-1" d="M413.58,225.59l-22.3,21.13s-4.7,16.43,11.15,9.39l24.07-24.65s9.39-14.09-12.91-5.87Z"/>
  <path class="cls-1" d="M432.5,165.93l-22.3,21.13s-4.7,16.43,11.15,9.39l24.07-24.65s9.39-14.09-12.91-5.87Z"/>
  <path class="cls-1" d="M380.49,191.79l-22.3,21.13s-4.7,16.43,11.15,9.39l24.07-24.65s9.39-14.09-12.91-5.87Z"/>
  <path class="cls-1" d="M342.66,169.69l-22.3,21.13s-4.7,16.43,11.15,9.39l24.07-24.65s9.39-14.09-12.91-5.87Z"/>
  <path class="cls-1" d="M404.15,204.54l-22.3,21.13s-4.7,16.43,11.15,9.39l24.07-24.65s9.39-14.09-12.91-5.87Z"/>
  <path class="cls-1" d="M366.32,174.37l-22.3,21.13s-4.7,16.43,11.15,9.39l24.07-24.65s9.39-14.09-12.91-5.87Z"/>
  <path class="cls-1" d="M167.74,218.21l-22.3,21.13s-4.7,16.43,11.15,9.39l24.07-24.65s9.39-14.09-12.91-5.87Z"/>
  <path class="cls-1" d="M144.13,209.77l-22.3,21.13s-4.7,16.43,11.15,9.39l24.07-24.65s9.39-14.09-12.91-5.87Z"/>
  <path class="cls-1" d="M139.34,262.04l-22.3,21.13s-4.7,16.43,11.15,9.39l24.07-24.65s9.39-14.09-12.91-5.87Z"/>
  <path class="cls-1" d="M101.51,244.62l-22.3,21.13s-4.7,16.43,11.15,9.39l24.07-24.65s9.39-14.09-12.91-5.87Z"/>
  <path class="cls-1" d="M186.65,236.18l-22.3,21.13s-4.7,16.43,11.15,9.39l24.07-24.65s9.39-14.09-12.91-5.87Z"/>
  <path class="cls-1" d="M110.99,262.04l-22.3,21.13s-4.7,16.43,11.15,9.39l24.07-24.65s9.39-14.09-12.91-5.87Z"/>
  <path class="cls-1" d="M262.29,314.32l-22.3,21.13s-4.7,16.43,11.15,9.39l24.07-24.65s9.39-14.09-12.91-5.87Z"/>
  <path class="cls-1" d="M238.65,294.61l-22.3,21.13s-4.7,16.43,11.15,9.39l24.07-24.65s9.39-14.09-12.91-5.87Z"/>
  <path class="cls-1" d="M224.48,353.48l-22.3,21.13s-4.7,16.43,11.15,9.39l24.07-24.65s9.39-14.09-12.91-5.87Z"/>
  <path class="cls-1" d="M193.71,340.73l-22.3,21.13s-4.7,16.43,11.15,9.39l24.07-24.65s9.39-14.09-12.91-5.87Z"/>
  <path class="cls-1" d="M281.23,340.73l-22.3,21.13s-4.7,16.43,11.15,9.39l24.07-24.65s9.39-14.09-12.91-5.87Z"/>
  <path class="cls-1" d="M186.75,399.71l-22.3,21.13s-4.7,16.43,11.15,9.39l24.07-24.65s9.39-14.09-12.91-5.87Z"/>
  <path class="cls-1" d="M408.84,267.83l-22.3,21.13s-4.7,16.43,11.15,9.39l24.07-24.65s9.39-14.09-12.91-5.87Z"/>
  <path class="cls-1" d="M366.32,276.26l-22.3,21.13s-4.7,16.43,11.15,9.39l24.07-24.65s9.39-14.09-12.91-5.87Z"/>
  <path class="cls-1" d="M371.01,302.68l-22.3,21.13s-4.7,16.43,11.15,9.39l24.07-24.65s9.39-14.09-12.91-5.87Z"/>
  <path class="cls-1" d="M304.88,293.69l-22.3,21.13s-4.7,16.43,11.15,9.39l24.07-24.65s9.39-14.09-12.91-5.87Z"/>
  <path class="cls-1" d="M418.32,290.48l-22.3,21.13s-4.7,16.43,11.15,9.39l24.07-24.65s9.39-14.09-12.91-5.87Z"/>
  <path class="cls-1" d="M328.49,305.88l-22.3,21.13s-4.7,16.43,11.15,9.39l24.07-24.65s9.39-14.09-12.91-5.87Z"/>
  <path class="cls-1" d="M512.87,296.89l-22.3,21.13s-4.7,16.43,11.15,9.39l24.07-24.65s9.39-14.09-12.91-5.87Z"/>
  <path class="cls-1" d="M517.61,321.02l-22.3,21.13s-4.7,16.43,11.15,9.39l24.07-24.65s9.39-14.09-12.91-5.87Z"/>
  <path class="cls-1" d="M451.38,307.36l-22.3,21.13s-4.7,16.43,11.15,9.39l24.07-24.65s9.39-14.09-12.91-5.87Z"/>
  <path class="cls-1" d="M465.58,330.01l-22.3,21.13s-4.7,16.43,11.15,9.39l24.07-24.65s9.39-14.09-12.91-5.87Z"/>
  <path class="cls-1" d="M508.13,364.86l-22.3,21.13s-4.7,16.43,11.15,9.39l24.07-24.65s9.39-14.09-12.91-5.87Z"/>
  <path class="cls-1" d="M356.86,384.9l-22.3,21.13s-4.7,16.43,11.15,9.39l24.07-24.65s9.39-14.09-12.91-5.87Z"/>
  <path class="cls-1" d="M479.78,355.87l-22.3,21.13s-4.7,16.43,11.15,9.39l24.07-24.65s9.39-14.09-12.91-5.87Z"/>
  <path class="cls-1" d="M271.72,382.29l-22.3,21.13s-4.7,16.43,11.15,9.39l24.07-24.65s9.39-14.09-12.91-5.87Z"/>
  <path class="cls-1" d="M248.06,439.33l-22.3,21.13s-4.7,16.43,11.15,9.39l24.07-24.65s9.39-14.09-12.91-5.87Z"/>
  <path class="cls-1" d="M219.76,408.11l-22.3,21.13s-4.7,16.43,11.15,9.39l24.07-24.65s9.39-14.09-12.91-5.87Z"/>
  <path class="cls-1" d="M288.26,402.33l-22.3,21.13s-4.7,16.43,11.15,9.39l24.07-24.65s9.39-14.09-12.91-5.87Z"/>
  <path class="cls-1" d="M229.15,430.76l-22.3,21.13s-4.7,16.43,11.15,9.39l24.07-24.65s9.39-14.09-12.91-5.87Z"/>
  <path class="cls-1" d="M404.12,338.45l-22.3,21.13s-4.7,16.43,11.15,9.39l24.07-24.65s9.39-14.09-12.91-5.87Z"/>
  <path class="cls-1" d="M380.52,330.01l-22.3,21.13s-4.7,16.43,11.15,9.39l24.07-24.65s9.39-14.09-12.91-5.87Z"/>
  <path class="cls-1" d="M337.89,364.86l-22.3,21.13s-4.7,16.43,11.15,9.39l24.07-24.65s9.39-14.09-12.91-5.87Z"/>
  <path class="cls-1" d="M423.04,356.42l-22.3,21.13s-4.7,16.43,11.15,9.39l24.07-24.65s9.39-14.09-12.91-5.87Z"/>
  <path class="cls-1" d="M337.92,437.18l-22.3,21.13s-4.7,16.43,11.15,9.39l24.07-24.65s9.39-14.09-12.91-5.87Z"/>
  <path class="cls-1" d="M314.29,417.47l-22.3,21.13s-4.7,16.43,11.15,9.39l24.07-24.65s9.39-14.09-12.91-5.87Z"/>
  <path class="cls-1" d="M479.78,237.79l-22.3,21.13s-4.7,16.43,11.15,9.39l24.07-24.65s9.39-14.09-12.91-5.87Z"/>
  <path class="cls-1" d="M271.72,446.16l-22.3,21.13s-4.7,16.43,11.15,9.39l24.07-24.65s9.39-14.09-12.91-5.87Z"/>
  <path class="cls-1" d="M536.53,225.04l-22.3,21.13s-4.7,16.43,11.15,9.39l24.07-24.65s9.39-14.09-12.91-5.87Z"/>
  <path class="cls-1" d="M460.87,225.04l-22.3,21.13s-4.7,16.43,11.15,9.39l24.07-24.65s9.39-14.09-12.91-5.87Z"/>
</svg>