<?xml version="1.0" encoding="UTF-8"?>
<svg id="Calque_2" data-name="Calque 2" xmlns="http://www.w3.org/2000/svg" viewBox="0 0 768 480">
  <defs>
    <style>
      .cls-1 {
        fill: #cc6d00;
        stroke: #000;
        stroke-miterlimit: 10;
        stroke-width: 3px;
      }
    </style>
  </defs>
  <path class="cls-1" d="M354.78,235.49s-14.06-.36-20.2,11.54c0,0-10.37,6.31-11.54,12.08,0,0-8.47,4.51-9.83,10.1,0,0-8.75,3.79-10.73,10.1,0,0-9.29,2.98-11.45,13.97,0,0-11.63,3.16-12.8,13.97,0,0-11.9,2.43-13.25,11.72,0,0-8.02,2.14-11,9.55,0,0-8.02,1.63-9.65,11.19,0,0-11.99,4.78-11.18,10.64,0,0-13.25,9.65-11.09,16.95,0,0-6.13,11.9.99,16.59,0,0-1.98,7.3,7.84,9.83,0,0,1.17,8.29,9.29,8.02,0,0-1.98,7.57,9.29,8.93,0,0-.45,6.4,7.57,9.11,0,0,1.98,8.02,10.73,7.03,0,0,2.52,4.6,12.35.72,0,0,10.64,1.35,17.31-9.38,0,0,10.19-5.86,12.62-13.16,0,0,8.93-4.33,9.65-10.37,0,0,8.75-4.24,10.64-9.56,0,0,10.46-4.42,11.45-14.43,0,0,12.71-3.88,14.06-15.51,0,0,8.47.27,13.43-10.91,0,0,7.75-3.25,10.37-9.74,0,0,8.75-4.96,9.92-9.74,0,0,12.35-7.21,11.9-12.26,0,0,11.45-5.86,9.11-18.93,0,0,4.15-6.67-1.53-13.25,0,0,1.89-7.39-6.85-10.1,0,0,1.08-7.3-8.93-7.21,0,0,.72-9.47-8.75-8.56,0,0-.09-7.93-7.75-8.84,0,0-.54-8.84-9.38-7.84,0,0-4.51-6.4-12.62-2.25Z"/>
  <path class="cls-1" d="M332.93,70.91s-14.06-.36-20.2,11.54c0,0-10.37,6.31-11.54,12.08,0,0-8.47,4.51-9.83,10.1,0,0-8.75,3.79-10.73,10.1,0,0-9.29,2.98-11.45,13.97,0,0-11.63,3.16-12.8,13.97,0,0-11.9,2.43-13.25,11.72,0,0-8.02,2.14-11,9.55,0,0-8.02,1.63-9.65,11.19,0,0-11.99,4.78-11.18,10.64,0,0-13.25,9.65-11.09,16.95,0,0-6.13,11.9.99,16.59,0,0-1.98,7.3,7.84,9.83,0,0,1.17,8.29,9.29,8.02,0,0-1.98,7.57,9.29,8.93,0,0-.45,6.4,7.57,9.11,0,0,1.98,8.02,10.73,7.03,0,0,2.52,4.6,12.35.72,0,0,10.64,1.35,17.31-9.38,0,0,10.19-5.86,12.62-13.16,0,0,8.93-4.33,9.65-10.37,0,0,8.75-4.24,10.64-9.56,0,0,10.46-4.42,11.45-14.43,0,0,12.71-3.88,14.06-15.51,0,0,8.47.27,13.43-10.91,0,0,7.75-3.25,10.37-9.74,0,0,8.75-4.96,9.92-9.74,0,0,12.35-7.21,11.9-12.26,0,0,11.45-5.86,9.11-18.93,0,0,4.15-6.67-1.53-13.25,0,0,1.89-7.39-6.85-10.1,0,0,1.08-7.3-8.93-7.21,0,0,.72-9.47-8.75-8.56,0,0-.09-7.93-7.75-8.84,0,0-.54-8.84-9.38-7.84,0,0-4.51-6.4-12.62-2.25Z"/>
  <path class="cls-1" d="M516.06,56.82s-14.06-.36-20.2,11.54c0,0-10.37,6.31-11.54,12.08,0,0-8.47,4.51-9.83,10.1,0,0-8.75,3.79-10.73,10.1,0,0-9.29,2.98-11.45,13.97,0,0-11.63,3.16-12.8,13.97,0,0-11.9,2.43-13.25,11.72,0,0-8.02,2.14-11,9.55,0,0-8.02,1.63-9.65,11.19,0,0-11.99,4.78-11.18,10.64,0,0-13.25,9.65-11.09,16.95,0,0-6.13,11.9.99,16.59,0,0-1.98,7.3,7.84,9.83,0,0,1.17,8.29,9.29,8.02,0,0-1.98,7.57,9.29,8.93,0,0-.45,6.4,7.57,9.11,0,0,1.98,8.02,10.73,7.03,0,0,2.52,4.6,12.35.72,0,0,10.64,1.35,17.31-9.38,0,0,10.19-5.86,12.62-13.16,0,0,8.93-4.33,9.65-10.37,0,0,8.75-4.24,10.64-9.56,0,0,10.46-4.42,11.45-14.43,0,0,12.71-3.88,14.06-15.51,0,0,8.47.27,13.43-10.91,0,0,7.75-3.25,10.37-9.74,0,0,8.75-4.96,9.92-9.74,0,0,12.35-7.21,11.9-12.26,0,0,11.45-5.86,9.11-18.93,0,0,4.15-6.67-1.53-13.25,0,0,1.89-7.39-6.85-10.1,0,0,1.08-7.3-8.93-7.21,0,0,.72-9.47-8.75-8.56,0,0-.09-7.93-7.75-8.84,0,0-.54-8.84-9.38-7.84,0,0-4.51-6.4-12.62-2.25Z"/>
  <path class="cls-1" d="M504.32,251.81s-14.06-.36-20.2,11.54c0,0-10.37,6.31-11.54,12.08,0,0-8.47,4.51-9.83,10.1,0,0-8.75,3.79-10.73,10.1,0,0-9.29,2.98-11.45,13.97,0,0-11.63,3.16-12.8,13.97,0,0-11.9,2.43-13.25,11.72,0,0-8.02,2.14-11,9.55,0,0-8.02,1.63-9.65,11.19,0,0-11.99,4.78-11.18,10.64,0,0-13.25,9.65-11.09,16.95,0,0-6.13,11.9.99,16.59,0,0-1.98,7.3,7.84,9.83,0,0,1.17,8.29,9.29,8.02,0,0-1.98,7.57,9.29,8.93,0,0-.45,6.4,7.57,9.11,0,0,1.98,8.02,10.73,7.03,0,0,2.52,4.6,12.35.72,0,0,10.64,1.35,17.31-9.38,0,0,10.19-5.86,12.62-13.16,0,0,8.93-4.33,9.65-10.37,0,0,8.75-4.24,10.64-9.56,0,0,10.46-4.42,11.45-14.43,0,0,12.71-3.88,14.06-15.51,0,0,8.47.27,13.43-10.91,0,0,7.75-3.25,10.37-9.74,0,0,8.75-4.96,9.92-9.74,0,0,12.35-7.21,11.9-12.26,0,0,11.45-5.86,9.11-18.93,0,0,4.15-6.67-1.53-13.25,0,0,1.89-7.39-6.85-10.1,0,0,1.08-7.3-8.93-7.21,0,0,.72-9.47-8.75-8.56,0,0-.09-7.93-7.75-8.84,0,0-.54-8.84-9.38-7.84,0,0-4.51-6.4-12.62-2.25Z"/>
  <path class="cls-1" d="M673.36,77.96s-14.06-.36-20.2,11.54c0,0-10.37,6.31-11.54,12.08,0,0-8.47,4.51-9.83,10.1,0,0-8.75,3.79-10.73,10.1,0,0-9.29,2.98-11.45,13.97,0,0-11.63,3.16-12.8,13.97,0,0-11.9,2.43-13.25,11.72,0,0-8.02,2.14-11,9.55,0,0-8.02,1.63-9.65,11.19,0,0-11.99,4.78-11.18,10.64,0,0-13.25,9.65-11.09,16.95,0,0-6.13,11.9.99,16.59,0,0-1.98,7.3,7.84,9.83,0,0,1.17,8.29,9.29,8.02,0,0-1.98,7.57,9.29,8.93,0,0-.45,6.4,7.57,9.11,0,0,1.98,8.02,10.73,7.03,0,0,2.52,4.6,12.35.72,0,0,10.64,1.35,17.31-9.38,0,0,10.19-5.86,12.62-13.16,0,0,8.93-4.33,9.65-10.37,0,0,8.75-4.24,10.64-9.56,0,0,10.46-4.42,11.45-14.43,0,0,12.71-3.88,14.06-15.51,0,0,8.47.27,13.43-10.91,0,0,7.75-3.25,10.37-9.74,0,0,8.75-4.96,9.92-9.74,0,0,12.35-7.21,11.9-12.26,0,0,11.45-5.86,9.11-18.93,0,0,4.15-6.67-1.53-13.25,0,0,1.89-7.39-6.85-10.1,0,0,1.08-7.3-8.93-7.21,0,0,.72-9.47-8.75-8.56,0,0-.09-7.93-7.75-8.84,0,0-.54-8.84-9.38-7.84,0,0-4.51-6.4-12.62-2.25Z"/>
  <path class="cls-1" d="M702.71,220s-14.06-.36-20.2,11.54c0,0-10.37,6.31-11.54,12.08,0,0-8.47,4.51-9.83,10.1,0,0-8.75,3.79-10.73,10.1,0,0-9.29,2.98-11.45,13.97,0,0-11.63,3.16-12.8,13.97,0,0-11.9,2.43-13.25,11.72,0,0-8.02,2.14-11,9.55,0,0-8.02,1.63-9.65,11.19,0,0-11.99,4.78-11.18,10.64,0,0-13.25,9.65-11.09,16.95,0,0-6.13,11.9.99,16.59,0,0-1.98,7.3,7.84,9.83,0,0,1.17,8.29,9.29,8.02,0,0-1.98,7.57,9.29,8.93,0,0-.45,6.4,7.57,9.11,0,0,1.98,8.02,10.73,7.03,0,0,2.52,4.6,12.35.72,0,0,10.64,1.35,17.31-9.38,0,0,10.19-5.86,12.62-13.16,0,0,8.93-4.33,9.65-10.37,0,0,8.75-4.24,10.64-9.56,0,0,10.46-4.42,11.45-14.43,0,0,12.71-3.88,14.06-15.51,0,0,8.47.27,13.43-10.91,0,0,7.75-3.25,10.37-9.74,0,0,8.75-4.96,9.92-9.74,0,0,12.35-7.21,11.9-12.26,0,0,11.45-5.86,9.11-18.93,0,0,4.15-6.67-1.53-13.25,0,0,1.89-7.39-6.85-10.1,0,0,1.08-7.3-8.93-7.21,0,0,.72-9.47-8.75-8.56,0,0-.09-7.93-7.75-8.84,0,0-.54-8.84-9.38-7.84,0,0-4.51-6.4-12.62-2.25Z"/>
</svg>