<?xml version="1.0" encoding="UTF-8"?>
<svg id="Calque_1" data-name="Calque 1" xmlns="http://www.w3.org/2000/svg" viewBox="0 0 567.32 451.21">
  <defs>
    <style>
      .cls-1 {
        stroke-width: 2px;
      }

      .cls-1, .cls-2 {
        fill: none;
        stroke: #000;
        stroke-miterlimit: 10;
      }

      .cls-2 {
        stroke-width: 3px;
      }
    </style>
  </defs>
  <g>
    <polygon class="cls-1" points="72.32 88.52 104.32 120.52 146.32 104.52 109.32 71.52 72.32 88.52"/>
    <polyline class="cls-1" points="104.32 120.52 104.32 159.52 72.32 129.52 72.32 88.52"/>
    <line class="cls-1" x1="104.32" y1="159.52" x2="129.32" y2="152.52"/>
    <line class="cls-1" x1="146.32" y1="104.52" x2="146.32" y2="128.52"/>
    <rect class="cls-1" x="129.32" y="128.52" width="54" height="37"/>
    <polyline class="cls-1" points="129.32 165.52 129.32 213.52 137.32 213.52 173.32 189.52 183.32 196.52 183.32 165.52"/>
    <polyline class="cls-1" points="168.32 254.52 168.32 261.57 216.14 278 185.23 317.52 136.71 298.35 168.32 261.57"/>
    <polyline class="cls-1" points="185.23 317.52 185.23 353.13 216.14 317.52 216.14 278"/>
    <polyline class="cls-1" points="185.23 353.13 136.71 332.78 136.71 298.35"/>
    <polyline class="cls-1" points="64.32 207.57 64.32 248.26 82.32 254.52 82.32 213.52 129.32 213.52 151.32 213.52 151.32 238.52 168.32 254.52 210.32 218.52 183.32 196.52"/>
    <line class="cls-1" x1="82.32" y1="194.65" x2="129.32" y2="194.65"/>
    <polyline class="cls-1" points="1.71 274.87 1.71 310.87 51.21 329.26 51.21 292.09"/>
    <polyline class="cls-1" points="51.21 329.26 62.36 320.65 62.36 329.26 133.19 329.26 133.19 282.3"/>
    <polyline class="cls-1" points="151.32 238.52 150.6 282.3 82.32 282.3 82.32 254.52 51.21 292.09 1.71 274.87 33.41 237.7 64.32 248.26"/>
    <polyline class="cls-1" points="75.15 132.18 20.1 132.18 20.1 171.52 20.1 207.57 64.32 207.57 64.32 194.65 82.32 194.65 82.32 171.52 20.1 171.52 82.32 171.52 82.32 138.9"/>
    <polyline class="cls-1" points="183.32 266.72 183.32 249.43 210.32 218.52 266.62 242.62 241.97 272.91 183.32 249.43"/>
    <polyline class="cls-1" points="241.97 272.91 241.97 312.83 216.14 308.91"/>
    <polyline class="cls-1" points="241.97 312.83 251.46 303.34 251.46 268.61 315.14 268.61 315.14 332.78 251.36 332.78 251.46 303.34"/>
    <line class="cls-1" x1="266.62" y1="242.62" x2="266.62" y2="268.61"/>
    <polyline class="cls-1" points="62.36 320.65 62.36 282.3 82.32 282.3"/>
    <polyline class="cls-1" points="62.36 329.26 62.36 364.87 133.19 364.87 133.19 329.26"/>
  </g>
  <g>
    <path class="cls-2" d="M353.64,65.52C347.27,4.62,438.39,1.51,438.39,1.51c0,0,106.67-2.37,90.67,64,0,0-5.33,34.37-82.38,40.89,0,0-87.71,10.07-93.04-40.89Z"/>
    <path class="cls-2" d="M363.01,86.95s-6.63,13.96,0,20.27c6.63,6.3,35.07,24.08,91.97,16.97,0,0,56.3-5.33,69.93-32.59,0,0,4.74-7.44,0-17.05"/>
    <path class="cls-2" d="M360.07,103.44s-15.91,18.37,6.61,34.37c0,0,87.18,43.01,160.34-11.98,0,0,15.08-9.95-2.11-34.25"/>
    <path class="cls-2" d="M524.24,127.87v22.39s38.01,13.04,38.01,50.97l3.56,177.79-101.93,70.52-128.6-45.04-2.96-194.98s-5.93-9.49,14.22-32.59l20.15-23.11v-16.01"/>
    <path class="cls-2" d="M340.25,184.81s-6.16,15.83-5.57,19.38,19.94,174.24,19.94,174.24c0,0,70.74,34.37,107.48,29.63l71.05-33.19s21.41-13.63,21.41-50.97c0,0,5.93-135.68,0-149.63"/>
    <ellipse class="cls-1" cx="406.43" cy="34" rx="5.1" ry="2.09"/>
    <ellipse class="cls-1" cx="435.01" cy="31.92" rx="5.1" ry="2.09"/>
    <ellipse class="cls-1" cx="459.23" cy="38.18" rx="5.1" ry="2.09"/>
    <ellipse class="cls-1" cx="413.93" cy="22.23" rx="5.1" ry="2.09"/>
    <ellipse class="cls-1" cx="405.28" cy="13.88" rx="5.1" ry="2.09"/>
    <ellipse class="cls-1" cx="432.95" cy="11.79" rx="5.1" ry="2.09"/>
    <ellipse class="cls-1" cx="443.15" cy="21.14" rx="5.1" ry="2.09"/>
    <ellipse class="cls-1" cx="467.12" cy="26.4" rx="5.1" ry="2.09"/>
    <ellipse class="cls-1" cx="488.92" cy="20.14" rx="5.1" ry="2.09"/>
    <ellipse class="cls-1" cx="464.95" cy="14.62" rx="5.1" ry="2.09"/>
    <ellipse class="cls-1" cx="454.75" cy="6.61" rx="5.1" ry="2.09"/>
  </g>
</svg>