<?xml version="1.0" encoding="UTF-8"?>
<svg id="sel" xmlns="http://www.w3.org/2000/svg" viewBox="0 0 800 800">
  <defs>
    <style>
      .cls-1 {
        stroke-width: 2px;
      }

      .cls-1, .cls-2 {
        fill: none;
        stroke: #000;
        stroke-miterlimit: 10;
      }

      .cls-2 {
        stroke-width: 3px;
      }
    </style>
  </defs>
  <path class="cls-2" d="M304.99,239.99c-6.37-60.89,84.75-64,84.75-64,0,0,106.67-2.37,90.67,64,0,0-5.33,34.37-82.38,40.89,0,0-87.71,10.07-93.04-40.89Z"/>
  <path class="cls-2" d="M314.37,261.43s-6.63,13.96,0,20.27,35.07,24.08,91.97,16.97c0,0,56.3-5.33,69.93-32.59,0,0,4.74-7.44,0-17.05"/>
  <path class="cls-2" d="M311.42,277.92s-15.91,18.37,6.61,34.37c0,0,87.18,43.01,160.34-11.98,0,0,15.08-9.95-2.11-34.25"/>
  <path class="cls-2" d="M475.59,302.35v22.39s38.01,13.04,38.01,50.97l3.56,177.79-101.93,70.52-128.6-45.04-2.96-194.98s-5.93-9.49,14.22-32.59l20.15-23.11v-16.01"/>
  <path class="cls-2" d="M291.6,359.29s-6.16,15.83-5.57,19.38,19.94,174.24,19.94,174.24c0,0,70.74,34.37,107.48,29.63l71.05-33.19s21.41-13.63,21.41-50.97c0,0,5.93-135.68,0-149.63"/>
  <ellipse class="cls-1" cx="357.79" cy="208.48" rx="5.1" ry="2.09"/>
  <ellipse class="cls-1" cx="386.36" cy="206.39" rx="5.1" ry="2.09"/>
  <ellipse class="cls-1" cx="410.58" cy="212.66" rx="5.1" ry="2.09"/>
  <ellipse class="cls-1" cx="365.29" cy="196.71" rx="5.1" ry="2.09"/>
  <ellipse class="cls-1" cx="356.63" cy="188.36" rx="5.1" ry="2.09"/>
  <ellipse class="cls-1" cx="384.3" cy="186.27" rx="5.1" ry="2.09"/>
  <ellipse class="cls-1" cx="394.51" cy="195.62" rx="5.1" ry="2.09"/>
  <ellipse class="cls-1" cx="418.47" cy="200.88" rx="5.1" ry="2.09"/>
  <ellipse class="cls-1" cx="440.27" cy="194.62" rx="5.1" ry="2.09"/>
  <ellipse class="cls-1" cx="416.3" cy="189.1" rx="5.1" ry="2.09"/>
  <ellipse class="cls-1" cx="406.1" cy="181.09" rx="5.1" ry="2.09"/>
</svg>