<?xml version="1.0" encoding="UTF-8"?>
<svg id="Calque_2" data-name="Calque 2" xmlns="http://www.w3.org/2000/svg" viewBox="0 0 683.55 512">
  <defs>
    <style>
      .cls-1 {
        fill: none;
        stroke: #000;
        stroke-miterlimit: 10;
        stroke-width: 2px;
      }
    </style>
  </defs>
  <polygon class="cls-1" points="255.66 126.33 287.66 158.33 329.66 142.33 292.66 109.33 255.66 126.33"/>
  <polyline class="cls-1" points="287.66 158.33 287.66 197.33 255.66 167.33 255.66 126.33"/>
  <line class="cls-1" x1="287.66" y1="197.33" x2="312.66" y2="190.33"/>
  <line class="cls-1" x1="329.66" y1="142.33" x2="329.66" y2="166.33"/>
  <rect class="cls-1" x="312.66" y="166.33" width="54" height="37"/>
  <polyline class="cls-1" points="312.66 203.33 312.66 251.33 320.66 251.33 356.66 227.33 366.66 234.33 366.66 203.33"/>
  <polyline class="cls-1" points="351.66 292.33 351.66 299.37 399.49 315.8 368.58 355.33 320.06 336.15 351.66 299.37"/>
  <polyline class="cls-1" points="368.58 355.33 368.58 390.93 399.49 355.33 399.49 315.8"/>
  <polyline class="cls-1" points="368.58 390.93 320.06 370.59 320.06 336.15"/>
  <polyline class="cls-1" points="247.66 245.37 247.66 286.07 265.66 292.33 265.66 251.33 312.66 251.33 334.66 251.33 334.66 276.33 351.66 292.33 393.66 256.33 366.66 234.33"/>
  <line class="cls-1" x1="265.66" y1="232.46" x2="312.66" y2="232.46"/>
  <polyline class="cls-1" points="185.06 312.67 185.06 348.67 234.56 367.07 234.56 329.89"/>
  <polyline class="cls-1" points="234.56 367.07 245.71 358.46 245.71 367.07 316.53 367.07 316.53 320.11"/>
  <polyline class="cls-1" points="334.66 276.33 333.94 320.11 265.66 320.11 265.66 292.33 234.56 329.89 185.06 312.67 216.75 275.5 247.66 286.07"/>
  <polyline class="cls-1" points="258.5 169.98 203.45 169.98 203.45 209.33 203.45 245.37 247.66 245.37 247.66 232.46 265.66 232.46 265.66 209.33 203.45 209.33 265.66 209.33 265.66 176.7"/>
  <polyline class="cls-1" points="366.66 304.52 366.66 287.24 393.66 256.33 449.97 280.43 425.32 310.72 366.66 287.24"/>
  <polyline class="cls-1" points="425.32 310.72 425.32 350.63 399.49 346.72"/>
  <polyline class="cls-1" points="425.32 350.63 434.81 341.14 434.81 306.41 498.49 306.41 498.49 370.59 434.71 370.59 434.81 341.14"/>
  <line class="cls-1" x1="449.97" y1="280.43" x2="449.97" y2="306.41"/>
  <polyline class="cls-1" points="245.71 358.46 245.71 320.11 265.66 320.11"/>
  <polyline class="cls-1" points="245.71 367.07 245.71 402.67 316.53 402.67 316.53 367.07"/>
</svg>