<?xml version="1.0" encoding="UTF-8"?>
<svg xmlns="http://www.w3.org/2000/svg" version="1.1" viewBox="0 0 600 500">
  <!-- Generator: Adobe Illustrator 30.1.0, SVG Export Plug-In . SVG Version: 2.1.1 Build 136)  -->
  <defs>
    <style>
      .st0 {
        opacity: .14;
      }

      .st1 {
        fill: #44fcff;
      }

      .st2 {
        fill: #fc6;
      }

      .st2, .st3, .st4, .st5, .st6, .st7, .st8, .st9, .st10, .st11 {
        stroke-miterlimit: 10;
      }

      .st2, .st3, .st7, .st8, .st9, .st10, .st11 {
        stroke-width: 3px;
      }

      .st2, .st3, .st7, .st9, .st10, .st11 {
        stroke: #000;
      }

      .st4 {
        fill: #662b00;
        opacity: .8;
        stroke: #551400;
      }

      .st4, .st6 {
        stroke-width: 5px;
      }

      .st5 {
        fill: #fff2bb;
        stroke: #fc6;
        stroke-width: .75px;
      }

      .st6 {
        fill: #930;
        stroke: #862000;
      }

      .st12 {
        fill: #ff88e5;
      }

      .st7 {
        fill: #7e2000;
      }

      .st13 {
        fill: #fbffaa;
      }

      .st8 {
        fill: #fff;
        opacity: .39;
        stroke: #fff;
      }

      .st14 {
        opacity: .15;
      }

      .st9 {
        fill: #ffe3b2;
      }

      .st15 {
        display: none;
      }

      .st10 {
        fill: none;
      }

      .st11 {
        fill: #ffe399;
      }

      .st16 {
        fill: #ff666a;
      }
    </style>
  </defs>
  <g id="donuts" class="st15">
    <path class="st11" d="M307.11,42.24C139.62,46.67,3.73,114.74,3.73,253.07c0,118.66,101.12,210.83,303.38,210.83,84.67,0,151.58-12.28,200.8-36.87-1.36-3.68-2.15-7.59-2.33-11.53-3.86-4.69-6.04-10.54-6.42-17.26-2.15-1.07-4.63-2.61-7.6-4.8-10.96-8.11-10.72-28.07-6.6-36.25h0s0,0,0,0c-36.89-21.96-10.29-63.82-10.29-63.82-26.22-51.44,26.51-69.31,26.51-69.31-.01-5.77.9-16.19,7.67-25.78,10.98-15.56,32.78-22.43,55.17-17.4,2.15-2.19,6.01-5.57,11.74-8.01,5.51-2.35,10.43-2.84,13.46-2.92-43.49-79.47-149.72-131.18-282.08-127.68ZM307.11,252.98c-44.85,0-81.22-11.72-81.22-26.18s36.37-26.18,81.22-26.18,81.22,11.72,81.22,26.18-36.37,26.18-81.22,26.18Z"/>
    <path class="st6" d="M589.67,170.5"/>
    <path class="st9" d="M589.67,170.5s31.3,159.28-39.93,171.15c-3.4,3.22-9.52,8.2-18.48,11.61-9.3,3.53-17.48,3.77-22.21,3.56-.79-.75-10.68,11.08-24.12.64-.13-.1-.07-.33-.22-.41-3-1.75-33.54-20.9-9.63-63.11,2.18-3.85-30.36-45.47,26.51-69.31,0,0-.12-53.39,62.4-43.77,0,0,12.59-12.14,25.68-10.35Z"/>
    <path class="st5" d="M484.45,357.22s0,0,0,0h0c-18.27-10.87-20.97-26.62-19.04-39.76-45.03,13.19-98.42,22.29-158.57,20.76-157.4-3.99-265.11-78.29-300.88-105.38-.72,11.28-.92,23.72-.25,37.14.42,8.46,1.15,16.46,2.08,23.97,38.31,26.71,146.13,94.38,299.98,95.69,67.97.58,127.11-11.95,175.19-28.26.41-1.58.91-2.99,1.5-4.16Z"/>
    <path class="st10" d="M306.63,41.06C139.14,45.49,3.25,113.56,3.25,251.89c0,118.66,101.12,210.83,303.38,210.83,84.71,0,151.62-12.3,200.85-36.91-1.1-3.31-1.73-6.8-1.89-10.3-3.79-4.61-5.96-10.32-6.4-16.89-2.06-1.06-4.42-2.54-7.21-4.6-10.96-8.11-10.72-28.07-6.6-36.25,0,0,0,0,0,0h0c-36.89-21.96-10.29-63.82-10.29-63.82-26.22-51.44,26.51-69.31,26.51-69.31,0-5.78.94-16.16,7.67-25.78,10.91-15.59,32.47-22.62,54.73-17.99,2.5-2.18,6.55-5.2,12.2-7.44,5.42-2.15,10.24-2.76,13.49-2.92-42.88-80.46-149.71-132.96-283.05-129.44ZM306.63,251.81c-44.85,0-81.22-11.72-81.22-26.18s36.37-26.18,81.22-26.18,81.22,11.72,81.22,26.18-36.37,26.18-81.22,26.18Z"/>
    <path class="st14" d="M589.19,169.93l4.1,24.37c-1.19-.76-5.81-3.51-11.97-2.59-7.38,1.11-11.24,6.63-11.87,7.56-3.53-1.7-16.57-7.48-31.91-2.94-23.92,7.08-30.58,32.51-30.88,33.76-3.64,2.04-15.97,9.54-22.21,25.33-6.98,17.69-1.37,33.23,0,36.74,0,0-23.27,49.49,0,54.78l.26,10.11s-34.01-20.22-10.06-63.69c0,0-28.11-47.58,26.51-69.31,0,0-.54-53.11,62.83-43.18,0,0,11.05-12.08,25.2-10.93Z"/>
    <g>
      <path class="st2" d="M310.26,252.96c-1.2.01-2.41.02-3.63.02,1.22,0,2.42,0,3.63-.02Z"/>
      <path class="st2" d="M306.63,148.28c-62.43,0-113.04,23.44-113.04,52.35,0,23.07,32.21,42.65,76.93,49.63-26.73-4.28-45.12-13.18-45.12-23.45,0-14.45,36.37-26.18,81.22-26.18s81.22,11.72,81.22,26.18c0,10.27-18.38,19.17-45.12,23.45,44.72-6.98,76.93-26.56,76.93-49.63,0-28.92-50.6-52.35-113.04-52.35h0Z"/>
      <path class="st2" d="M299.57,252.89c.71.02,1.42.04,2.13.05-.72-.01-1.42-.04-2.13-.05Z"/>
      <path class="st2" d="M313.7,252.89c-.71.02-1.42.04-2.13.05.72-.01,1.42-.04,2.13-.05Z"/>
      <path class="st2" d="M306.63,252.99c-1.22,0-2.42-.01-3.63-.02,1.2.01,2.42.02,3.63.02Z"/>
    </g>
    <g class="st0">
      <path class="st3" d="M310.74,252.96c-1.2.01-2.41.02-3.63.02,1.22,0,2.42,0,3.63-.02Z"/>
      <path class="st3" d="M307.11,148.28c-62.43,0-113.04,23.44-113.04,52.35,0,23.07,32.21,42.65,76.93,49.63-26.73-4.28-45.12-13.18-45.12-23.45,0-14.45,36.37-26.18,81.22-26.18s81.22,11.72,81.22,26.18c0,10.27-18.38,19.17-45.12,23.45,44.72-6.98,76.93-26.56,76.93-49.63,0-28.92-50.6-52.35-113.04-52.35h0Z"/>
      <path class="st3" d="M300.05,252.89c.71.02,1.42.04,2.13.05-.72-.01-1.42-.04-2.13-.05Z"/>
      <path class="st3" d="M314.18,252.89c-.71.02-1.42.04-2.13.05.72-.01,1.42-.04,2.13-.05Z"/>
      <path class="st3" d="M307.11,252.99c-1.22,0-2.42-.01-3.63-.02,1.2.01,2.42.02,3.63.02Z"/>
    </g>
  </g>
  <g id="fourrage">
    <path class="st4" d="M537.06,235.42s42.79-7.67,34.43,34.43c0,0,9.64,23.51-12.42,26.47,0,0-4.12,12.96-22.01,7.95,0,0-43.01,2.85-34.43-27.15,0,0-4.89-31.34,10.79-32.29,0,0,7.07-18.67,23.64-9.41Z"/>
  </g>
  <g id="glaçage" class="st15">
    <path class="st7" d="M312.06,34.35S17,32.8,3.25,215.43c0,0-.86,2.63,3.08,5.56,0,0,208.11,162.05,463.28,82.73l5.04-10.36s-26.11-48.78,26.51-69.31c0,0,1.09-55,62.83-43.18,0,0,10.32-10.46,25.2-10.93l4.1-.08s-44.57-136.28-281.24-135.5ZM307.11,252.99c-112.79-2.37-113.52-52.37-113.52-52.37,7.4-52.41,113.04-52.34,113.04-52.34,108.82,1.26,113.04,52.34,113.04,52.34-7.2,52.83-112.55,52.37-112.55,52.37Z"/>
    <ellipse class="st8" cx="470.86" cy="111.08" rx="39.68" ry="21.67"/>
  </g>
  <g id="toppings" class="st15">
    <g>
      <path class="st12" d="M67.73,173.11c-.63,0-1.24-.11-1.84-.33l-15.89-5.87c-1.33-.49-2.39-1.47-2.98-2.76-.59-1.29-.65-2.73-.16-4.06.77-2.07,2.77-3.47,4.98-3.47.63,0,1.24.11,1.84.33l15.89,5.87c2.74,1.01,4.15,4.07,3.14,6.81-.77,2.08-2.77,3.47-4.98,3.47Z"/>
      <path d="M51.84,157.13h0c.57,0,1.13.1,1.66.3l15.89,5.87c1.2.44,2.16,1.33,2.7,2.5.54,1.17.59,2.47.14,3.67-.69,1.88-2.51,3.14-4.51,3.14-.57,0-1.13-.1-1.66-.3l-15.89-5.87c-1.2-.44-2.16-1.33-2.7-2.5-.54-1.17-.59-2.47-.14-3.67.69-1.88,2.51-3.14,4.51-3.14M51.84,156.13c-2.36,0-4.58,1.45-5.45,3.8h0c-1.11,3.01.43,6.35,3.43,7.46l15.89,5.87c.66.24,1.34.36,2.01.36,2.36,0,4.58-1.45,5.45-3.8h0c1.11-3.01-.43-6.35-3.43-7.46l-15.89-5.87c-.66-.24-1.34-.36-2.01-.36h0Z"/>
    </g>
    <g>
      <path class="st1" d="M134.75,151.08c-.56,0-1.12-.09-1.66-.27l-16.1-5.28c-1.35-.44-2.44-1.38-3.08-2.65s-.75-2.7-.31-4.05c.72-2.18,2.74-3.65,5.04-3.65.56,0,1.12.09,1.66.27l16.1,5.28c2.78.91,4.3,3.92,3.39,6.69-.72,2.18-2.74,3.65-5.04,3.65Z"/>
      <path d="M118.65,135.69h0c.51,0,1.01.08,1.5.24l16.1,5.28c1.22.4,2.21,1.25,2.79,2.4s.68,2.45.28,3.67c-.65,1.98-2.48,3.31-4.56,3.31-.51,0-1.01-.08-1.5-.24l-16.1-5.28c-1.22-.4-2.21-1.25-2.79-2.4-.58-1.15-.68-2.45-.28-3.67.65-1.98,2.48-3.31,4.56-3.31M118.65,134.69c-2.44,0-4.71,1.55-5.51,4h0c-1,3.05.66,6.33,3.7,7.33l16.1,5.28c.6.2,1.21.29,1.81.29,2.44,0,4.71-1.55,5.51-4h0c1-3.05-.66-6.33-3.7-7.33l-16.1-5.28c-.6-.2-1.21-.29-1.81-.29h0Z"/>
    </g>
    <g>
      <path class="st16" d="M115.2,231.47c-.11,0-.23,0-.35-.01l-16.91-1.08c-2.92-.19-5.14-2.71-4.95-5.63.18-2.78,2.5-4.97,5.29-4.97.11,0,.23,0,.34.01l16.91,1.08c1.41.09,2.71.73,3.64,1.79.94,1.06,1.4,2.43,1.31,3.84-.18,2.78-2.5,4.97-5.29,4.97Z"/>
      <path d="M98.29,220.28h0c.1,0,.21,0,.31.01l16.91,1.08c2.64.17,4.66,2.46,4.49,5.1-.16,2.52-2.27,4.5-4.79,4.5-.1,0-.21,0-.31-.01l-16.91-1.08c-2.64-.17-4.66-2.46-4.49-5.1.16-2.52,2.27-4.5,4.79-4.5M98.29,219.28c-3.04,0-5.59,2.36-5.79,5.43h0c-.2,3.2,2.22,5.96,5.42,6.16l16.91,1.08c.13,0,.25.01.38.01,3.04,0,5.59-2.36,5.79-5.43h0c.2-3.2-2.22-5.96-5.42-6.16l-16.91-1.08c-.13,0-.25-.01-.38-.01h0Z"/>
    </g>
    <g>
      <path class="st16" d="M118.23,107.23c-2.92,0-5.3-2.38-5.3-5.3s2.38-5.3,5.3-5.3h16.94c2.92,0,5.3,2.38,5.3,5.3s-2.38,5.3-5.3,5.3h-16.94Z"/>
      <path d="M135.17,97.12c2.65,0,4.8,2.16,4.8,4.8s-2.16,4.8-4.8,4.8h-16.94c-2.65,0-4.8-2.16-4.8-4.8s2.16-4.8,4.8-4.8h16.94M135.17,96.12h-16.94c-3.21,0-5.8,2.6-5.8,5.8h0c0,3.21,2.6,5.8,5.8,5.8h16.94c3.21,0,5.8-2.6,5.8-5.8h0c0-3.21-2.6-5.8-5.8-5.8h0Z"/>
    </g>
    <g>
      <path class="st13" d="M185.79,100.28c-2.48,0-4.65-1.76-5.18-4.18-.62-2.86,1.2-5.69,4.06-6.31l16.56-3.58c.37-.08.75-.12,1.13-.12,2.48,0,4.65,1.76,5.18,4.18.62,2.86-1.2,5.69-4.06,6.31l-16.56,3.58c-.37.08-.75.12-1.13.12Z"/>
      <path d="M202.36,86.59c2.24,0,4.21,1.59,4.69,3.79.27,1.25.04,2.54-.66,3.62-.69,1.08-1.77,1.82-3.02,2.09l-16.56,3.58c-.34.07-.68.11-1.02.11-2.24,0-4.21-1.59-4.69-3.79-.56-2.59,1.09-5.15,3.68-5.71l16.56-3.58c.34-.07.68-.11,1.02-.11M202.36,85.59c-.41,0-.82.04-1.23.13l-16.56,3.58c-3.13.68-5.12,3.77-4.45,6.9h0c.59,2.72,2.99,4.58,5.67,4.58.41,0,.82-.04,1.23-.13l16.56-3.58c3.13-.68,5.12-3.77,4.45-6.9h0c-.59-2.72-2.99-4.58-5.67-4.58h0Z"/>
    </g>
    <g>
      <path class="st12" d="M289.39,96.8c-.33,0-.67-.03-1-.09l-16.64-3.17c-2.87-.55-4.77-3.33-4.22-6.2.48-2.5,2.66-4.31,5.2-4.31.33,0,.67.03,1,.09l16.64,3.17c2.87.55,4.77,3.33,4.22,6.2-.48,2.5-2.66,4.31-5.2,4.31Z"/>
      <path d="M272.73,83.53h0c.3,0,.6.03.9.09l16.64,3.17c2.6.49,4.32,3.01,3.82,5.62-.43,2.26-2.41,3.91-4.71,3.91-.3,0-.61-.03-.9-.09l-16.64-3.17c-2.6-.49-4.32-3.01-3.82-5.62.43-2.26,2.41-3.91,4.71-3.91M272.73,82.53c-2.73,0-5.17,1.94-5.7,4.72h0c-.6,3.15,1.47,6.19,4.62,6.79l16.64,3.17c.37.07.73.1,1.09.1,2.73,0,5.17-1.94,5.7-4.72h0c.6-3.15-1.47-6.19-4.62-6.79l-16.64-3.17c-.37-.07-.73-.1-1.09-.1h0Z"/>
    </g>
    <g>
      <path class="st13" d="M236.68,290.27c-2.41,0-4.51-1.63-5.13-3.96-.36-1.37-.17-2.8.55-4.02.71-1.22,1.86-2.1,3.23-2.46l16.38-4.31c.44-.12.9-.18,1.35-.18,2.41,0,4.51,1.63,5.13,3.96.74,2.83-.95,5.74-3.78,6.48l-16.38,4.31c-.44.12-.9.18-1.35.18Z"/>
      <path d="M253.07,275.85h0c2.18,0,4.09,1.47,4.64,3.58.67,2.56-.86,5.19-3.42,5.87l-16.38,4.31c-.4.11-.81.16-1.23.16-2.18,0-4.09-1.47-4.64-3.58-.67-2.56.86-5.19,3.42-5.87l16.38-4.31c.4-.11.81-.16,1.23-.16M253.07,274.85c-.49,0-.99.06-1.48.19l-16.38,4.31c-3.1.82-4.95,3.99-4.14,7.09.69,2.61,3.04,4.33,5.61,4.33.49,0,.99-.06,1.48-.19l16.38-4.31c3.1-.82,4.95-3.99,4.14-7.09h0c-.69-2.61-3.04-4.33-5.61-4.33h0Z"/>
    </g>
    <g>
      <path class="st13" d="M144.44,210.64c-2.77,0-5.09-2.16-5.29-4.93-.21-2.92,2-5.46,4.91-5.67l16.9-1.2c.13,0,.26-.01.38-.01,2.77,0,5.09,2.16,5.29,4.93.1,1.41-.35,2.78-1.28,3.85s-2.22,1.72-3.63,1.82l-16.9,1.2c-.13,0-.26.01-.38.01Z"/>
      <path d="M161.35,199.33c2.51,0,4.61,1.96,4.79,4.46.09,1.28-.32,2.52-1.16,3.49-.84.97-2.01,1.55-3.29,1.64l-16.9,1.2c-.12,0-.23.01-.35.01-2.51,0-4.61-1.96-4.79-4.46-.19-2.64,1.81-4.95,4.45-5.13l16.9-1.2c.12,0,.23-.01.35-.01M161.35,198.33c-.14,0-.28,0-.42.01l-16.9,1.2c-3.2.23-5.61,3-5.38,6.2.22,3.06,2.77,5.39,5.78,5.39.14,0,.28,0,.42-.01l16.9-1.2c3.2-.23,5.61-3,5.38-6.2h0c-.22-3.06-2.77-5.39-5.78-5.39h0Z"/>
    </g>
    <g>
      <path class="st1" d="M368.53,85.24c-2.71,0-4.97-2.04-5.27-4.73-.31-2.91,1.79-5.53,4.7-5.84l16.84-1.82c.19-.02.39-.03.58-.03,2.71,0,4.97,2.04,5.27,4.73.31,2.91-1.79,5.53-4.7,5.84l-16.84,1.82c-.19.02-.39.03-.58.03Z"/>
      <path d="M385.38,73.31c2.45,0,4.5,1.84,4.77,4.29.29,2.63-1.63,5.01-4.26,5.29l-16.84,1.82c-.17.02-.35.03-.52.03-2.45,0-4.5-1.84-4.77-4.29-.29-2.63,1.63-5.01,4.26-5.29l16.84-1.82c.17-.02.35-.03.52-.03M385.38,72.31c-.21,0-.42.01-.63.03l-16.84,1.82c-3.19.35-5.49,3.21-5.15,6.4h0c.32,2.97,2.84,5.18,5.76,5.18.21,0,.42-.01.63-.03l16.84-1.82c3.19-.35,5.49-3.21,5.15-6.4h0c-.32-2.97-2.84-5.18-5.76-5.18h0Z"/>
    </g>
    <g>
      <path class="st12" d="M450.12,171.02c-.83,0-1.63-.19-2.38-.57l-15.14-7.6c-1.27-.64-2.21-1.73-2.66-3.07s-.34-2.78.29-4.05c.91-1.8,2.72-2.93,4.74-2.93.83,0,1.63.19,2.38.57l15.14,7.6c1.27.64,2.21,1.73,2.66,3.07s.34,2.78-.29,4.05c-.91,1.8-2.72,2.93-4.74,2.93Z"/>
      <path d="M434.99,153.31h0c.75,0,1.47.17,2.15.51l15.14,7.6c1.15.58,2,1.56,2.4,2.78s.31,2.52-.27,3.67c-.82,1.63-2.47,2.65-4.3,2.65-.75,0-1.47-.17-2.15-.51l-15.14-7.6c-1.15-.58-2-1.56-2.4-2.78s-.31-2.52.27-3.67c.82-1.63,2.47-2.65,4.3-2.65M434.99,152.31c-2.13,0-4.17,1.17-5.19,3.2-1.44,2.86-.28,6.35,2.58,7.79l15.14,7.6c.84.42,1.72.62,2.6.62,2.13,0,4.17-1.17,5.19-3.2h0c1.44-2.86.28-6.35-2.58-7.79l-15.14-7.6c-.84-.42-1.72-.62-2.6-.62h0Z"/>
    </g>
    <g>
      <path class="st16" d="M393.23,132.3c-2.62,0-4.82-1.88-5.23-4.47-.46-2.89,1.51-5.61,4.4-6.08l16.73-2.67c.28-.04.56-.07.84-.07,2.62,0,4.82,1.88,5.23,4.47.22,1.4-.11,2.8-.94,3.95s-2.06,1.9-3.46,2.13l-16.73,2.67c-.28.04-.56.07-.84.07Z"/>
      <path d="M409.98,119.52h0c2.37,0,4.36,1.7,4.74,4.05.2,1.27-.1,2.54-.85,3.58-.75,1.04-1.87,1.72-3.13,1.93l-16.73,2.67c-.25.04-.51.06-.77.06-2.37,0-4.36-1.7-4.74-4.05-.42-2.62,1.37-5.08,3.99-5.5l16.73-2.67c.25-.04.51-.06.77-.06M409.98,118.52c-.3,0-.61.02-.92.07l-16.73,2.67c-3.17.51-5.32,3.48-4.82,6.65h0c.46,2.86,2.92,4.89,5.72,4.89.3,0,.61-.02.92-.07l16.73-2.67c3.17-.51,5.32-3.48,4.82-6.65h0c-.46-2.86-2.92-4.89-5.72-4.89h0Z"/>
    </g>
    <g>
      <path class="st13" d="M517.45,150.03c-.33,0-.67-.03-1-.09l-16.64-3.17c-1.39-.26-2.6-1.06-3.39-2.23s-1.09-2.58-.83-3.97c.48-2.5,2.66-4.31,5.2-4.31.33,0,.67.03,1,.09l16.64,3.17c1.39.26,2.6,1.06,3.39,2.23.8,1.17,1.09,2.58.83,3.98-.48,2.5-2.67,4.31-5.21,4.31Z"/>
      <path d="M500.8,136.75h0c.3,0,.6.03.9.09l16.64,3.17c1.26.24,2.35.96,3.07,2.02.72,1.06.99,2.34.75,3.6-.43,2.26-2.41,3.91-4.71,3.91-.3,0-.61-.03-.9-.09l-16.64-3.17c-2.6-.49-4.32-3.01-3.82-5.62.43-2.26,2.41-3.91,4.71-3.91M500.8,135.75c-2.73,0-5.17,1.94-5.7,4.72-.6,3.15,1.47,6.19,4.62,6.79l16.64,3.17c.37.07.73.1,1.09.1,2.73,0,5.17-1.94,5.7-4.72.6-3.15-1.47-6.19-4.62-6.79l-16.64-3.17c-.37-.07-.73-.1-1.09-.1h0Z"/>
    </g>
    <g>
      <path class="st1" d="M351.53,291.05c-.63,0-1.24-.11-1.84-.33l-15.89-5.87c-1.33-.49-2.39-1.47-2.98-2.76-.59-1.29-.65-2.73-.16-4.06.77-2.07,2.77-3.47,4.98-3.47.63,0,1.24.11,1.84.33l15.89,5.87c2.74,1.01,4.15,4.07,3.14,6.81-.77,2.07-2.77,3.47-4.98,3.47Z"/>
      <path d="M335.64,275.07h0c.57,0,1.13.1,1.66.3l15.89,5.87c2.49.92,3.76,3.69,2.84,6.17-.69,1.88-2.51,3.14-4.51,3.14-.57,0-1.13-.1-1.66-.3l-15.89-5.87c-2.49-.92-3.76-3.69-2.84-6.17.69-1.88,2.51-3.14,4.51-3.14M335.64,274.07c-2.36,0-4.58,1.45-5.45,3.8h0c-1.11,3.01.43,6.35,3.43,7.46l15.89,5.87c.66.24,1.34.36,2.01.36,2.36,0,4.58-1.45,5.45-3.8,1.11-3.01-.43-6.35-3.43-7.46l-15.89-5.87c-.66-.24-1.34-.36-2.01-.36h0Z"/>
    </g>
    <g>
      <path class="st16" d="M431.76,250.97c-2.71,0-4.97-2.04-5.27-4.73-.31-2.91,1.79-5.53,4.7-5.84l16.84-1.82c.19-.02.39-.03.58-.03,2.71,0,4.97,2.04,5.27,4.73.31,2.91-1.79,5.53-4.7,5.84l-16.84,1.82c-.19.02-.39.03-.58.03Z"/>
      <path d="M448.61,239.04c2.45,0,4.5,1.84,4.77,4.29.29,2.63-1.63,5.01-4.26,5.29l-16.84,1.82c-.17.02-.35.03-.52.03-2.45,0-4.5-1.84-4.77-4.29-.29-2.63,1.63-5.01,4.26-5.29l16.84-1.82c.17-.02.35-.03.52-.03M448.61,238.04c-.21,0-.42.01-.63.03l-16.84,1.82c-3.19.35-5.49,3.21-5.15,6.4h0c.32,2.97,2.84,5.18,5.76,5.18.21,0,.42-.01.63-.03l16.84-1.82c3.19-.35,5.49-3.21,5.15-6.4h0c-.32-2.97-2.84-5.18-5.76-5.18h0Z"/>
    </g>
    <g>
      <path class="st16" d="M244.31,136.1c-.2,0-.4-.01-.6-.03l-16.84-1.88c-2.91-.32-5.01-2.95-4.68-5.86.3-2.69,2.56-4.72,5.26-4.72.2,0,.4.01.6.03l16.84,1.88c2.91.33,5.01,2.95,4.68,5.86-.3,2.69-2.56,4.72-5.26,4.72Z"/>
      <path d="M227.46,124.11h0c.18,0,.36.01.54.03l16.84,1.88c1.28.14,2.42.77,3.22,1.78.8,1,1.16,2.26,1.02,3.53-.27,2.43-2.32,4.27-4.77,4.27-.18,0-.36-.01-.54-.03l-16.84-1.88c-2.63-.29-4.54-2.68-4.24-5.31.27-2.43,2.32-4.27,4.77-4.27M227.46,123.11c-2.92,0-5.43,2.19-5.76,5.16h0c-.36,3.19,1.94,6.06,5.12,6.41l16.84,1.88c.22.02.44.04.65.04,2.92,0,5.43-2.19,5.76-5.16h0c.36-3.19-1.94-6.06-5.12-6.41l-16.84-1.88c-.22-.02-.44-.04-.65-.04h0Z"/>
    </g>
  </g>
</svg>