<?xml version="1.0" encoding="UTF-8"?>
<svg xmlns="http://www.w3.org/2000/svg" viewBox="0 0 531.95 603.21">
  <defs>
    <style>
      .cls-1 {
        fill: #840;
        stroke: #000;
        stroke-miterlimit: 10;
        stroke-width: 3px;
      }
    </style>
  </defs>
  <g id="fourrage">
    <path class="cls-1" d="M438.85,29.73s-4,9-10,10c0,0-22,0-52,23,0,0-103,16-129,160-1.15,8.09-3.03,17.35-6.12,27.37-4.38,14.2-9.97,25.97-15.16,35.15-9.77,15.53-19.96,36.01-26.22,61.22-19.59,78.87,13.68,145.84,25.5,167.25,0,0,57,92,130,81,0,0,100-10,142-114,5.71-14.71,11.39-33.89,13.88-56.75,4.79-44.1-4.72-80.01-12.16-100.9-3.46-8.29-7.02-19.26-8.72-32.48-3.06-23.76,1.35-43.29,5-54.87,0,0,27-80-16-117,0,0-38-15-37-49,0,0,5-28-4-40Z"/>
  </g>
  <g id="Calque_3" data-name="Calque 3">
    <path class="cls-1" d="M471.06,550.22c-17.23,45.23,42.26-27,42.26-27,0,0-32.87,2.35-42.26,27Z"/>
    <path class="cls-1" d="M207.36,545.1c-6.15,40.61,36.39,6.86,36.39,6.86,0,0-30.52-45.6-36.39-6.86Z"/>
    <path class="cls-1" d="M198.41,484.83c32.2,32.89-38.74,39.91-45.78-4.7,0,0,35.44-5.87,45.78,4.7Z"/>
    <path class="cls-1" d="M417.05,588.13c-30.54,30.54,40.3,0,40.3,0,0,0-14.48-25.83-40.3,0Z"/>
    <path class="cls-1" d="M511.64,254.74s-25.84,21.13-10.58,34.04c15.26,12.91,29.35-8.22,29.35-8.22,0,0-1.6-19.73-18.77-25.83Z"/>
    <path class="cls-1" d="M249.18,470.88s59.93,53.87,50.5,15.49-50.5-15.49-50.5-15.49Z"/>
    <path class="cls-1" d="M294.96,399.13s-19.96,29.35,0,37.57,39.91-9.39,39.91-9.39c0,0-17.61-28.17-39.91-28.17Z"/>
    <path class="cls-1" d="M238.61,345.13s19.81,63.39,36.32,36.39-36.32-36.39-36.32-36.39Z"/>
    <path class="cls-1" d="M334.87,523.22s-8.22,50.82,27,36.73-27.83-43.43-27.83-43.43l.83,6.7Z"/>
    <path class="cls-1" d="M399.44,345.13c-46.02-21.91,33.94,59.87,33.94,59.87,0,0,15.37-36.39-33.94-59.87Z"/>
    <path class="cls-1" d="M385.16,184.3s-108.99-11.74-50.29,29.35c58.7,41.09,56.35-30.9,56.35-30.9l-6.06,1.55Z"/>
    <path class="cls-1" d="M300.69,285.26s-20.99,57.52,10.71,48.13,29.35-40.43,29.35-40.43c0,0,11.45-18.27-40.06-7.7Z"/>
    <path class="cls-1" d="M433.38,259.43s-98.88,6.01-48.21,33.53,48.21-33.53,48.21-33.53Z"/>
    <path class="cls-1" d="M426.44,133.83c-27.45,32.22,30.91,9.39,30.91,9.39,0,0-3.91-41.09-30.91-9.39Z"/>
    <path class="cls-1" d="M353.3,100.96c-62.04,6.97,17.41,42.26,17.41,42.26,0,0,13.93-45.78-17.41-42.26Z"/>
    <path class="cls-1" d="M409.4,447.26s-73.33,7.54-18.17,34.88,18.17-34.88,18.17-34.88Z"/>
  </g>
</svg>