<?xml version="1.0" encoding="UTF-8"?>
<svg xmlns="http://www.w3.org/2000/svg" viewBox="0 0 531.95 603.21">
  <defs>
    <style>
      .cls-1 {
        fill: #fff;
        opacity: .6;
      }

      .cls-2 {
        fill: #fff4bb;
        stroke: #ffaf55;
        stroke-miterlimit: 10;
        stroke-width: 3px;
      }
    </style>
  </defs>
  <g id="fourrage">
    <path class="cls-2" d="M438.85,29.73s-4,9-10,10c0,0-22,0-52,23,0,0-103,16-129,160-1.15,8.09-3.03,17.35-6.12,27.37-4.38,14.2-9.97,25.97-15.16,35.15-9.77,15.53-19.96,36.01-26.22,61.22-19.59,78.87,13.68,145.84,25.5,167.25,0,0,57,92,130,81,0,0,100-10,142-114,5.71-14.71,11.39-33.89,13.88-56.75,4.79-44.1-4.72-80.01-12.16-100.9-3.46-8.29-7.02-19.26-8.72-32.48-3.06-23.76,1.35-43.29,5-54.87,0,0,27-80-16-117,0,0-38-15-37-49,0,0,5-28-4-40Z"/>
  </g>
  <g id="img">
    <path class="cls-1" d="M475.02,133.83s21.13,33.65,18.78,59.48c-6.52,13.56-14.73,35.02-16.86,62.41-3.13,40.13,8.47,71.4,15.45,86.8,3.82,12.57,7.29,28.55,8.11,47.22,1.68,38.54-8.8,69.17-16.59,86.87,0,0-43.33.78-25.33-229.3,0,0-8.61-112.7,16.43-113.48Z"/>
    <path class="cls-1" d="M420.11,517.76s-144.35,7.19-116.06,50.97c28.29,43.78,128.93-24.56,128.93-24.56,0,0,14.55-22.72-12.87-26.41Z"/>
  </g>
</svg>