<?xml version="1.0" encoding="UTF-8"?>
<svg id="beignet" xmlns="http://www.w3.org/2000/svg" viewBox="0 0 867.18 435.04">
  <defs>
    <style>
      .cls-1 {
        fill: #ffe399;
      }

      .cls-1, .cls-2, .cls-3, .cls-4 {
        stroke-miterlimit: 10;
      }

      .cls-1, .cls-3, .cls-4 {
        stroke: #000;
      }

      .cls-1, .cls-4 {
        stroke-width: 5px;
      }

      .cls-2 {
        stroke: #fc6;
        stroke-width: .75px;
      }

      .cls-2, .cls-5 {
        fill: #fff2bb;
      }

      .cls-3 {
        fill: none;
        stroke-width: 3px;
      }

      .cls-4 {
        fill: #fc6;
      }
    </style>
  </defs>
  <path class="cls-1" d="M555.54,2.88C384.87,7.39,246.4,76.76,246.4,217.71c0,120.91,103.04,214.83,309.14,214.83s309.14-71.22,309.14-214.83c0-126.61-131.48-219.52-309.14-214.83ZM555.54,217.62c-45.71,0-82.76-11.94-82.76-26.67s37.05-26.67,82.76-26.67,82.76,11.94,82.76,26.67-37.05,26.67-82.76,26.67Z"/>
  <g>
    <path class="cls-4" d="M559.23,217.59c-1.23.02-2.46.03-3.7.03,1.24,0,2.47-.01,3.7-.03Z"/>
    <path class="cls-4" d="M555.54,110.92c-63.61,0-115.17,23.88-115.17,53.35,0,23.5,32.82,43.46,78.39,50.57-27.24-4.37-45.97-13.42-45.97-23.89,0-14.73,37.05-26.67,82.76-26.67s82.76,11.94,82.76,26.67c0,10.47-18.73,19.53-45.97,23.89,45.57-7.11,78.39-27.06,78.39-50.57,0-29.46-51.57-53.35-115.17-53.35h-.02Z"/>
    <path class="cls-4" d="M548.34,217.51c.72.02,1.45.04,2.17.05-.73-.01-1.45-.03-2.17-.05Z"/>
    <path class="cls-4" d="M562.74,217.51c-.72.02-1.44.04-2.17.05.73-.01,1.45-.03,2.17-.05Z"/>
    <path class="cls-4" d="M555.54,217.62c-1.24,0-2.47-.01-3.7-.03,1.23.02,2.46.03,3.7.03Z"/>
  </g>
  <path class="cls-5" d="M1.45,41.99c1.93,0,1.93-3,0-3s-1.93,3,0,3h0Z"/>
  <path class="cls-2" d="M849.65,303.87c-312.8,152.23-584.56,0-584.56,0l-16.69-68.51s318.5,154.16,616.28,0l-15.02,68.51h-.01Z"/>
  <path class="cls-3" d="M555.54,1.67C384.87,6.18,246.4,75.55,246.4,216.5c0,120.91,103.04,214.83,309.14,214.83s309.14-71.22,309.14-214.83c0-126.61-131.48-219.52-309.14-214.83ZM555.54,216.42c-45.71,0-82.76-11.94-82.76-26.67s37.05-26.67,82.76-26.67,82.76,11.94,82.76,26.67-37.05,26.67-82.76,26.67Z"/>
</svg>