<?xml version="1.0" encoding="UTF-8"?>
<svg id="beignet" xmlns="http://www.w3.org/2000/svg" version="1.1" viewBox="0 0 626.67 435.04">
  <!-- Generator: Adobe Illustrator 29.8.2, SVG Export Plug-In . SVG Version: 2.1.1 Build 3)  -->
  <defs>
    <style>
      .st0 {
        fill: #ffe399;
      }

      .st0, .st1, .st2, .st3 {
        stroke-miterlimit: 10;
      }

      .st0, .st2, .st3 {
        stroke: #000;
      }

      .st0, .st3 {
        stroke-width: 5px;
      }

      .st1 {
        stroke: #fc6;
        stroke-width: .75px;
      }

      .st1, .st4 {
        fill: #fff2bb;
      }

      .st2 {
        fill: none;
        stroke-width: 3px;
      }

      .st3 {
        fill: #fc6;
      }
    </style>
  </defs>
  <path class="st0" d="M315.03,2.88C144.36,7.39,5.89,76.76,5.89,217.71c0,120.91,103.04,214.83,309.14,214.83s309.14-71.22,309.14-214.83C624.17,91.1,492.69-1.81,315.03,2.88h0ZM315.03,217.62c-45.71,0-82.76-11.94-82.76-26.67s37.05-26.67,82.76-26.67,82.76,11.94,82.76,26.67-37.05,26.67-82.76,26.67Z"/>
  <g>
    <path class="st3" d="M318.72,217.59c-1.23.02-2.46.03-3.7.03,1.24,0,2.47,0,3.7-.03Z"/>
    <path class="st3" d="M315.03,110.92c-63.61,0-115.17,23.88-115.17,53.35,0,23.5,32.82,43.46,78.39,50.57-27.24-4.37-45.97-13.42-45.97-23.89,0-14.73,37.05-26.67,82.76-26.67s82.76,11.94,82.76,26.67c0,10.47-18.73,19.53-45.97,23.89,45.57-7.11,78.39-27.06,78.39-50.57,0-29.46-51.57-53.35-115.17-53.35,0,0-.02,0-.02,0Z"/>
    <path class="st3" d="M307.83,217.51c.72.02,1.45.04,2.17.05-.73,0-1.45-.03-2.17-.05Z"/>
    <path class="st3" d="M322.23,217.51c-.72.02-1.44.04-2.17.05.73,0,1.45-.03,2.17-.05Z"/>
    <path class="st3" d="M315.03,217.62c-1.24,0-2.47,0-3.7-.03,1.23.02,2.46.03,3.7.03Z"/>
  </g>
  <path class="st4" d="M-239.06,41.99c1.93,0,1.93-3,0-3s-1.93,3,0,3h0Z"/>
  <path class="st1" d="M609.14,303.87c-312.8,152.23-584.56,0-584.56,0L7.89,235.36s318.5,154.16,616.28,0l-15.02,68.51h-.01Z"/>
  <path class="st2" d="M315.03,1.67C144.36,6.18,5.89,75.55,5.89,216.5c0,120.91,103.04,214.83,309.14,214.83s309.14-71.22,309.14-214.83C624.17,89.89,492.69-3.02,315.03,1.67h0ZM315.03,216.42c-45.71,0-82.76-11.94-82.76-26.67s37.05-26.67,82.76-26.67,82.76,11.94,82.76,26.67-37.05,26.67-82.76,26.67Z"/>
</svg>