<?xml version="1.0" encoding="UTF-8"?>
<svg id="Calque_1" data-name="Calque 1" xmlns="http://www.w3.org/2000/svg" viewBox="0 0 623.27 435.03">
  <defs>
    <style>
      .cls-1 {
        stroke: #ffe399;
      }

      .cls-1, .cls-2 {
        fill: #ffe399;
      }

      .cls-1, .cls-2, .cls-3, .cls-4 {
        stroke-miterlimit: 10;
      }

      .cls-1, .cls-4 {
        stroke-width: 3px;
      }

      .cls-2 {
        stroke-width: 5px;
      }

      .cls-2, .cls-4 {
        stroke: #000;
      }

      .cls-3 {
        fill: #fff2bb;
        stroke: #fc6;
        stroke-width: .75px;
      }

      .cls-4 {
        fill: none;
      }
    </style>
  </defs>
  <g>
    <path class="cls-2" d="M311.64,2.88C140.96,7.39,2.5,76.75,2.5,217.7c0,120.91,103.04,214.83,309.14,214.83s309.14-71.22,309.14-214.83C620.77,91.09,489.29-1.82,311.64,2.88ZM311.64,217.62c-45.71,0-82.76-11.94-82.76-26.67s37.05-26.67,82.76-26.67,82.76,11.94,82.76,26.67-37.05,26.67-82.76,26.67Z"/>
    <path class="cls-3" d="M605.75,303.87c-312.8,152.23-584.56,0-584.56,0L4.49,235.36s318.5,154.16,616.28,0l-15.02,68.51Z"/>
    <path class="cls-4" d="M311.64,1.67C140.96,6.18,2.5,75.55,2.5,216.5c0,120.91,103.04,214.83,309.14,214.83s309.14-71.22,309.14-214.83C620.77,89.88,489.29-3.03,311.64,1.67Z"/>
  </g>
  <ellipse class="cls-1" cx="306.64" cy="195.51" rx="118" ry="93.5"/>
</svg>