<?xml version="1.0" encoding="UTF-8"?>
<svg id="Calque_1" data-name="Calque 1" xmlns="http://www.w3.org/2000/svg" viewBox="0 0 623.27 519.36">
  <defs>
    <style>
      .cls-1 {
        letter-spacing: .02em;
      }

      .cls-2 {
        letter-spacing: -.02em;
      }

      .cls-3 {
        fill: #ffe399;
      }

      .cls-3, .cls-4, .cls-5, .cls-6 {
        stroke-miterlimit: 10;
      }

      .cls-3, .cls-5, .cls-6 {
        stroke: #000;
      }

      .cls-3, .cls-6 {
        stroke-width: 5px;
      }

      .cls-4 {
        fill: #fff2bb;
        stroke: #fc6;
        stroke-width: .75px;
      }

      .cls-7 {
        letter-spacing: .02em;
      }

      .cls-8 {
        letter-spacing: 0em;
      }

      .cls-9 {
        font-family: Modak, Modak;
        font-size: 42.16px;
      }

      .cls-10 {
        letter-spacing: 0em;
      }

      .cls-11 {
        letter-spacing: -.01em;
      }

      .cls-12 {
        letter-spacing: .01em;
      }

      .cls-5 {
        fill: none;
        stroke-width: 3px;
      }

      .cls-13 {
        fill: #ffe010;
      }

      .cls-14 {
        letter-spacing: 0em;
      }

      .cls-6 {
        fill: #fc6;
      }
    </style>
  </defs>
  <path class="cls-3" d="M311.64,87.21C140.96,91.72,2.5,161.09,2.5,302.04c0,120.91,103.04,214.83,309.14,214.83s309.14-71.22,309.14-214.83c0-126.61-131.48-219.52-309.14-214.83ZM311.64,301.95c-45.71,0-82.76-11.94-82.76-26.67s37.05-26.67,82.76-26.67,82.76,11.94,82.76,26.67-37.05,26.67-82.76,26.67Z"/>
  <g>
    <path class="cls-6" d="M315.33,301.92c-1.23.02-2.46.03-3.7.03,1.24,0,2.47-.01,3.7-.03Z"/>
    <path class="cls-6" d="M311.64,195.26c-63.61,0-115.17,23.88-115.17,53.35,0,23.5,32.82,43.46,78.39,50.57-27.24-4.37-45.97-13.42-45.97-23.89,0-14.73,37.05-26.67,82.76-26.67s82.76,11.94,82.76,26.67c0,10.47-18.73,19.53-45.97,23.89,45.57-7.11,78.39-27.06,78.39-50.57,0-29.46-51.57-53.35-115.17-53.35Z"/>
    <path class="cls-6" d="M304.44,301.84c.72.02,1.45.04,2.17.05-.73-.01-1.45-.03-2.17-.05Z"/>
    <path class="cls-6" d="M318.84,301.84c-.72.02-1.44.04-2.17.05.73-.01,1.45-.03,2.17-.05Z"/>
    <path class="cls-6" d="M311.64,301.95c-1.24,0-2.47-.01-3.7-.03,1.23.02,2.46.03,3.7.03Z"/>
  </g>
  <path class="cls-4" d="M604.75,388.21c-312.8,152.23-584.56,0-584.56,0L3.5,319.69s318.5,154.16,616.28,0l-15.02,68.51Z"/>
  <path class="cls-5" d="M311.64,86.01C140.96,90.52,2.5,159.88,2.5,300.83c0,120.91,103.04,214.83,309.14,214.83s309.14-71.22,309.14-214.83c0-126.61-131.48-219.52-309.14-214.83ZM311.64,300.75c-45.71,0-82.76-11.94-82.76-26.67s37.05-26.67,82.76-26.67,82.76,11.94,82.76,26.67-37.05,26.67-82.76,26.67Z"/>
  <text class="cls-9" transform="translate(67.01 63.67)"><tspan class="cls-10" x="0" y="0">G</tspan><tspan class="cls-11" x="27.77" y="0">L</tspan><tspan x="49.14" y="0">U</tspan><tspan class="cls-2" x="74.42" y="0">T</tspan><tspan x="98.44" y="0">T</tspan><tspan class="cls-1" x="123.29" y="0">E</tspan><tspan class="cls-14" x="146.91" y="0">N </tspan><tspan class="cls-7" x="182.44" y="0">F</tspan><tspan class="cls-12" x="205.97" y="0">R</tspan><tspan class="cls-1" x="232.42" y="0">E</tspan><tspan class="cls-8" x="256.04" y="0">E</tspan></text>
  <g>
    <path class="cls-13" d="M35.69,0s-13.72,12.88,0,26.6c13.72-13.72,0-26.6,0-26.6Z"/>
    <path class="cls-13" d="M51.31,20.29s-15.09-.48-15.09,15.09c15.57,0,15.09-15.09,15.09-15.09Z"/>
    <path class="cls-13" d="M20.08,20.29s15.09-.48,15.09,15.09c-15.57,0-15.09-15.09-15.09-15.09Z"/>
    <path class="cls-13" d="M51.31,33.48s-15.09-.48-15.09,15.09c15.57,0,15.09-15.09,15.09-15.09Z"/>
    <path class="cls-13" d="M20.08,33.48s15.09-.48,15.09,15.09c-15.57,0-15.09-15.09-15.09-15.09Z"/>
    <path class="cls-13" d="M51.31,48.58s-15.09-.48-15.09,15.09c15.57,0,15.09-15.09,15.09-15.09Z"/>
    <path class="cls-13" d="M20.08,48.58s15.09-.48,15.09,15.09c-15.57,0-15.09-15.09-15.09-15.09Z"/>
    <g>
      <line x1="67.01" y1="8.8" x2="5.92" y2="69.88"/>
      <rect x="-6.73" y="35.05" width="86.39" height="8.59" transform="translate(-17.14 37.3) rotate(-45)"/>
    </g>
  </g>
</svg>