<?xml version="1.0" encoding="UTF-8"?>
<svg id="Calque_1" data-name="Calque 1" xmlns="http://www.w3.org/2000/svg" viewBox="0 0 623.27 502.49">
  <defs>
    <style>
      .cls-1 {
        letter-spacing: 0em;
      }

      .cls-2 {
        fill: #ffe399;
      }

      .cls-2, .cls-3, .cls-4, .cls-5 {
        stroke-miterlimit: 10;
      }

      .cls-2, .cls-4, .cls-5 {
        stroke: #000;
      }

      .cls-2, .cls-5 {
        stroke-width: 5px;
      }

      .cls-3 {
        fill: #fff2bb;
        stroke: #fc6;
        stroke-width: .75px;
      }

      .cls-6 {
        fill: #009912;
      }

      .cls-7 {
        letter-spacing: 0em;
      }

      .cls-8 {
        font-family: Modak, Modak;
        font-size: 42.16px;
      }

      .cls-9 {
        letter-spacing: 0em;
      }

      .cls-10 {
        letter-spacing: -.01em;
      }

      .cls-4 {
        fill: none;
        stroke-width: 3px;
      }

      .cls-5 {
        fill: #fc6;
      }
    </style>
  </defs>
  <path class="cls-2" d="M311.64,70.34C140.96,74.85,2.5,144.21,2.5,285.16c0,120.91,103.04,214.83,309.14,214.83s309.14-71.22,309.14-214.83c0-126.61-131.48-219.52-309.14-214.83ZM311.64,285.08c-45.71,0-82.76-11.94-82.76-26.67s37.05-26.67,82.76-26.67,82.76,11.94,82.76,26.67-37.05,26.67-82.76,26.67Z"/>
  <g>
    <path class="cls-5" d="M315.33,285.05c-1.23.02-2.46.03-3.7.03,1.24,0,2.47-.01,3.7-.03Z"/>
    <path class="cls-5" d="M311.64,178.38c-63.61,0-115.17,23.88-115.17,53.35,0,23.5,32.82,43.46,78.39,50.57-27.24-4.37-45.97-13.42-45.97-23.89,0-14.73,37.05-26.67,82.76-26.67s82.76,11.94,82.76,26.67c0,10.47-18.73,19.53-45.97,23.89,45.57-7.11,78.39-27.06,78.39-50.57,0-29.46-51.57-53.35-115.17-53.35Z"/>
    <path class="cls-5" d="M304.44,284.97c.72.02,1.45.04,2.17.05-.73-.01-1.45-.03-2.17-.05Z"/>
    <path class="cls-5" d="M318.84,284.97c-.72.02-1.44.04-2.17.05.73-.01,1.45-.03,2.17-.05Z"/>
    <path class="cls-5" d="M311.64,285.08c-1.24,0-2.47-.01-3.7-.03,1.23.02,2.46.03,3.7.03Z"/>
  </g>
  <path class="cls-3" d="M604.75,371.33c-312.8,152.23-584.56,0-584.56,0L3.5,302.82s318.5,154.16,616.28,0l-15.02,68.51Z"/>
  <path class="cls-4" d="M311.64,69.13C140.96,73.64,2.5,143.01,2.5,283.96c0,120.91,103.04,214.83,309.14,214.83s309.14-71.22,309.14-214.83c0-126.61-131.48-219.52-309.14-214.83ZM311.64,283.87c-45.71,0-82.76-11.94-82.76-26.67s37.05-26.67,82.76-26.67,82.76,11.94,82.76,26.67-37.05,26.67-82.76,26.67Z"/>
  <g>
    <path class="cls-6" d="M29.08,47.69S34.32,28.04,9.17,0c0,0-21.75,46.38,19.91,47.69Z"/>
    <path class="cls-6" d="M30.9,47.03s-2.86-10.72,10.87-26.02c0,0,11.87,25.31-10.87,26.02Z"/>
    <text class="cls-8" transform="translate(53.9 46.8)"><tspan class="cls-9" x="0" y="0">V</tspan><tspan class="cls-7" x="26.17" y="0">E</tspan><tspan class="cls-10" x="48.65" y="0">G</tspan><tspan class="cls-1" x="75.7" y="0">A</tspan><tspan x="103.37" y="0">N </tspan></text>
  </g>
</svg>